<svg width="current" height="current" viewBox="0 0 223 240" fill="none" xmlns="http://www.w3.org/2000/svg">
<path fill-rule="evenodd" clip-rule="evenodd" d="M107.869 54C100.594 54 93.864 57.8555 90.1844 64.1311L58.8157 117.631C55.0615 124.034 55.0614 131.966 58.8156 138.369L90.1844 191.869C93.864 198.145 100.594 202 107.869 202L171.036 202C178.311 202 185.041 198.145 188.721 191.869L220.089 138.369C223.844 131.966 223.844 124.034 220.089 117.631L188.721 64.1311C185.041 57.8555 178.311 54 171.036 54L107.869 54Z" fill="#0B77A9"/>
<path d="M210.255 109.407C213.185 114.405 213.185 120.595 210.255 125.593L178.886 179.093C176.014 183.991 170.762 187 165.084 187L101.916 187C96.2383 187 90.9856 183.991 88.1138 179.093L56.745 125.593C53.8149 120.595 53.8149 114.405 56.7451 109.407L88.1138 55.9072C90.9856 51.0091 96.2383 48 101.916 48L165.084 48C170.762 48 176.014 51.0092 178.886 55.9072L210.255 109.407Z" fill="#14B5FF" stroke="white" stroke-width="9"/>
<path d="M186.333 109.464C189.219 114.433 189.219 120.567 186.333 125.536L166.876 159.036C164.012 163.966 158.741 167 153.04 167L113.96 167C108.259 167 102.988 163.966 100.124 159.036L80.6673 125.536C77.7815 120.567 77.7815 114.433 80.6673 109.464L100.124 75.9642C102.988 71.0339 108.259 68 113.96 68L153.04 68C158.741 68 164.012 71.0339 166.876 75.9641L186.333 109.464Z" fill="#EF3A3E"/>
<path d="M161.19 109.36C164.157 114.381 164.157 120.619 161.19 125.64L154.395 137.14C151.516 142.011 146.278 145 140.62 145L126.38 145C120.722 145 115.484 142.011 112.605 137.14L105.81 125.64C102.843 120.619 102.843 114.381 105.81 109.36L112.605 97.8603C115.484 92.9888 120.722 90 126.38 90L140.62 90C146.278 90 151.516 92.9888 154.395 97.8603L161.19 109.36Z" fill="#EFFE37"/>
<path d="M6.74316 37.8779L29.7265 29.9144L33.5999 5.90086L70.6256 36.9978L66.7522 61.0114L43.7688 68.9749L6.74316 37.8779Z" fill="#8955CB"/>
<path d="M0 31.9775L22.9834 24.014L26.8567 0.000474274L63.8824 31.0974L60.009 55.111L37.0257 63.0745L0 31.9775Z" fill="#B484F1"/>
<path fill-rule="evenodd" clip-rule="evenodd" d="M127.828 119.178L34.1255 40.4798C32.4339 39.059 32.2143 36.5359 33.635 34.8442C35.0558 33.1526 37.5789 32.933 39.2706 34.3538L132.973 113.052L133.245 119.139L127.828 119.178Z" fill="black"/>
</svg>
