<svg width="189" height="127" viewBox="0 0 189 127" fill="none" xmlns="http://www.w3.org/2000/svg">
<path fill-rule="evenodd" clip-rule="evenodd" d="M94.5 56C109.964 56 122.5 43.464 122.5 28C122.5 12.536 109.964 0 94.5 0C79.036 0 66.5 12.536 66.5 28C66.5 43.464 79.036 56 94.5 56ZM85.0395 34.3329C84.187 35.2373 82.749 35.2373 81.8965 34.3329C81.1123 33.501 81.1123 32.202 81.8965 31.3701L92.6734 19.9377C93.6643 18.8865 95.3357 18.8865 96.3266 19.9377L107.104 31.3701C107.888 32.202 107.888 33.501 107.104 34.3329C106.251 35.2373 104.813 35.2373 103.96 34.3329L95.1895 25.0285C94.8155 24.6317 94.1845 24.6317 93.8105 25.0285L85.0395 34.3329Z" fill="#EFFE37"/>
<path d="M3.58165 93.68V73.22C3.58165 72.494 4.17565 71.9 4.86865 71.9H13.4157C16.0557 71.9 18.1347 72.659 19.4547 73.946C20.4117 74.936 20.9397 76.157 20.9397 77.642V77.708C20.9397 80.711 19.0917 82.262 17.2767 83.054C20.0157 83.879 22.2267 85.463 22.2267 88.631V88.697C22.2267 92.657 18.8937 95 13.8447 95H4.86865C4.17565 95 3.58165 94.406 3.58165 93.68ZM6.15565 82.196H12.9867C16.1217 82.196 18.2997 80.777 18.2997 78.071V78.005C18.2997 75.728 16.4847 74.243 13.1847 74.243H6.15565V82.196ZM6.15565 92.657H13.9107C17.4087 92.657 19.5867 91.106 19.5867 88.532V88.466C19.5867 85.958 17.4747 84.506 13.4487 84.506H6.15565V92.657ZM31.3901 95.363C28.2221 95.363 25.0211 93.548 25.0211 90.05V89.984C25.0211 86.387 27.9911 84.473 32.3141 84.473C34.4921 84.473 36.0431 84.77 37.5611 85.199V84.605C37.5611 81.536 35.6801 79.952 32.4791 79.952C30.7631 79.952 29.3111 80.348 28.0571 80.909C27.8921 80.975 27.7271 81.008 27.5951 81.008C27.0011 81.008 26.4731 80.513 26.4731 79.919C26.4731 79.391 26.8361 78.995 27.1661 78.863C28.8491 78.137 30.5651 77.708 32.7431 77.708C35.1521 77.708 37.0001 78.335 38.2541 79.589C39.4091 80.744 40.0031 82.394 40.0031 84.572V93.911C40.0031 94.637 39.4751 95.165 38.7821 95.165C38.0561 95.165 37.5611 94.637 37.5611 93.977V92.426C36.3731 93.977 34.3931 95.363 31.3901 95.363ZM31.8851 93.35C35.0201 93.35 37.5941 91.436 37.5941 88.73V87.08C36.3401 86.717 34.6571 86.354 32.5781 86.354C29.3771 86.354 27.5951 87.74 27.5951 89.885V89.951C27.5951 92.096 29.5751 93.35 31.8851 93.35ZM52.4474 95.396C47.4644 95.396 43.7024 91.337 43.7024 86.552V86.486C43.7024 81.668 47.4644 77.576 52.4474 77.576C55.2854 77.576 57.1994 78.665 58.7174 80.051C58.9154 80.216 59.1134 80.546 59.1134 80.942C59.1134 81.635 58.5524 82.163 57.8924 82.163C57.5624 82.163 57.2654 82.031 57.0674 81.866C55.8464 80.744 54.4604 79.82 52.4144 79.82C48.9494 79.82 46.3094 82.757 46.3094 86.42V86.486C46.3094 90.182 49.0154 93.119 52.5794 93.119C54.5264 93.119 56.0774 92.228 57.3314 91.04C57.4964 90.875 57.7274 90.71 58.0574 90.71C58.6844 90.71 59.2124 91.271 59.2124 91.865C59.2124 92.162 59.0804 92.459 58.8824 92.657C57.2654 94.274 55.3184 95.396 52.4474 95.396ZM62.951 93.878V72.032C62.951 71.339 63.512 70.745 64.205 70.745C64.931 70.745 65.492 71.339 65.492 72.032V87.674L74.732 78.269C75.029 77.939 75.326 77.774 75.722 77.774C76.415 77.774 76.877 78.335 76.877 78.962C76.877 79.358 76.712 79.622 76.382 79.952L70.805 85.43L76.91 93.119C77.141 93.416 77.24 93.647 77.24 93.977C77.24 94.67 76.712 95.165 76.019 95.165C75.557 95.165 75.26 95 74.93 94.571L69.023 87.113L65.492 90.611V93.878C65.492 94.604 64.964 95.165 64.238 95.165C63.512 95.165 62.951 94.604 62.951 93.878ZM95.9894 95.297C93.2504 95.297 91.1714 93.944 91.1714 90.479V80.183H89.7854C89.1914 80.183 88.6634 79.655 88.6634 79.061C88.6634 78.434 89.1914 77.939 89.7854 77.939H91.1714V73.913C91.1714 73.22 91.6994 72.626 92.4254 72.626C93.1184 72.626 93.7124 73.22 93.7124 73.913V77.939H98.1344C98.7614 77.939 99.2894 78.467 99.2894 79.061C99.2894 79.688 98.7614 80.183 98.1344 80.183H93.7124V90.149C93.7124 92.228 94.8674 92.987 96.5834 92.987C97.4744 92.987 97.9364 92.756 98.1344 92.756C98.7284 92.756 99.2234 93.251 99.2234 93.845C99.2234 94.307 98.9264 94.67 98.4974 94.835C97.7714 95.132 96.9794 95.297 95.9894 95.297ZM110.267 95.396C105.152 95.396 101.423 91.37 101.423 86.552V86.486C101.423 81.668 105.185 77.576 110.333 77.576C115.448 77.576 119.21 81.602 119.21 86.42V86.486C119.21 91.304 115.415 95.396 110.267 95.396ZM110.333 93.119C114.029 93.119 116.603 90.149 116.603 86.552V86.486C116.603 82.823 113.864 79.82 110.267 79.82C106.571 79.82 104.03 82.823 104.03 86.42V86.486C104.03 90.149 106.736 93.119 110.333 93.119ZM138.92 93.845V74.309H132.221C131.561 74.309 131 73.781 131 73.121C131 72.461 131.561 71.9 132.221 71.9H148.259C148.919 71.9 149.48 72.461 149.48 73.121C149.48 73.781 148.919 74.309 148.259 74.309H141.56V93.845C141.56 94.571 140.966 95.165 140.24 95.165C139.514 95.165 138.92 94.571 138.92 93.845ZM156.723 95.396C151.608 95.396 147.879 91.37 147.879 86.552V86.486C147.879 81.668 151.641 77.576 156.789 77.576C161.904 77.576 165.666 81.602 165.666 86.42V86.486C165.666 91.304 161.871 95.396 156.723 95.396ZM156.789 93.119C160.485 93.119 163.059 90.149 163.059 86.552V86.486C163.059 82.823 160.32 79.82 156.723 79.82C153.027 79.82 150.486 82.823 150.486 86.42V86.486C150.486 90.149 153.192 93.119 156.789 93.119ZM169.609 99.158V79.061C169.609 78.335 170.17 77.774 170.863 77.774C171.589 77.774 172.15 78.335 172.15 79.061V81.371C173.536 79.325 175.549 77.576 178.684 77.576C182.776 77.576 186.835 80.81 186.835 86.42V86.486C186.835 92.063 182.809 95.363 178.684 95.363C175.516 95.363 173.47 93.647 172.15 91.733V99.158C172.15 99.884 171.622 100.445 170.896 100.445C170.17 100.445 169.609 99.884 169.609 99.158ZM178.222 93.086C181.522 93.086 184.228 90.644 184.228 86.519V86.453C184.228 82.427 181.456 79.853 178.222 79.853C175.054 79.853 172.051 82.526 172.051 86.42V86.486C172.051 90.446 175.054 93.086 178.222 93.086Z" fill="#EFFE37"/>
<path d="M19.4547 73.946L19.5985 73.8069L19.5943 73.8028L19.4547 73.946ZM17.2767 83.054L17.1967 82.8707L16.6976 83.0885L17.219 83.2455L17.2767 83.054ZM6.15565 82.196H5.95565V82.396H6.15565V82.196ZM6.15565 74.243V74.043H5.95565V74.243H6.15565ZM6.15565 92.657H5.95565V92.857H6.15565V92.657ZM6.15565 84.506V84.306H5.95565V84.506H6.15565ZM3.78165 93.68V73.22H3.38165V93.68H3.78165ZM3.78165 73.22C3.78165 72.6012 4.28937 72.1 4.86865 72.1V71.7C4.06193 71.7 3.38165 72.3868 3.38165 73.22H3.78165ZM4.86865 72.1H13.4157V71.7H4.86865V72.1ZM13.4157 72.1C16.02 72.1 18.0427 72.8487 19.315 74.0892L19.5943 73.8028C18.2266 72.4693 16.0914 71.7 13.4157 71.7V72.1ZM19.3109 74.085C20.2327 75.0386 20.7397 76.2101 20.7397 77.642H21.1397C21.1397 76.1039 20.5906 74.8334 19.5984 73.807L19.3109 74.085ZM20.7397 77.642V77.708H21.1397V77.642H20.7397ZM20.7397 77.708C20.7397 80.6036 18.9683 82.0976 17.1967 82.8707L17.3566 83.2373C19.215 82.4264 21.1397 80.8184 21.1397 77.708H20.7397ZM17.219 83.2455C18.5718 83.653 19.7746 84.2425 20.6374 85.1053C21.4946 85.9625 22.0267 87.0995 22.0267 88.631H22.4267C22.4267 86.9945 21.8532 85.7555 20.9202 84.8225C19.9927 83.895 18.7205 83.28 17.3343 82.8625L17.219 83.2455ZM22.0267 88.631V88.697H22.4267V88.631H22.0267ZM22.0267 88.697C22.0267 90.6137 21.2234 92.1297 19.8103 93.1726C18.3906 94.2204 16.3412 94.8 13.8447 94.8V95.2C16.3971 95.2 18.5387 94.6081 20.0478 93.4944C21.5634 92.3758 22.4267 90.7403 22.4267 88.697H22.0267ZM13.8447 94.8H4.86865V95.2H13.8447V94.8ZM4.86865 94.8C4.28937 94.8 3.78165 94.2988 3.78165 93.68H3.38165C3.38165 94.5132 4.06193 95.2 4.86865 95.2V94.8ZM6.15565 82.396H12.9867V81.996H6.15565V82.396ZM12.9867 82.396C14.5809 82.396 15.9559 82.0357 16.9378 81.309C17.9272 80.5767 18.4997 79.4847 18.4997 78.071H18.0997C18.0997 79.3633 17.5831 80.3338 16.6998 80.9875C15.8089 81.6468 14.5274 81.996 12.9867 81.996V82.396ZM18.4997 78.071V78.005H18.0997V78.071H18.4997ZM18.4997 78.005C18.4997 76.8074 18.0193 75.8064 17.1004 75.1107C16.188 74.4199 14.8615 74.043 13.1847 74.043V74.443C14.8078 74.443 16.0388 74.8086 16.8589 75.4296C17.6725 76.0456 18.0997 76.9256 18.0997 78.005H18.4997ZM13.1847 74.043H6.15565V74.443H13.1847V74.043ZM5.95565 74.243V82.196H6.35565V74.243H5.95565ZM6.15565 92.857H13.9107V92.457H6.15565V92.857ZM13.9107 92.857C15.6859 92.857 17.1508 92.4639 18.1776 91.7218C19.2115 90.9746 19.7867 89.883 19.7867 88.532H19.3867C19.3867 89.755 18.8728 90.7259 17.9433 91.3976C17.0065 92.0746 15.6334 92.457 13.9107 92.457V92.857ZM19.7867 88.532V88.466H19.3867V88.532H19.7867ZM19.7867 88.466C19.7867 87.1461 19.2259 86.0925 18.1371 85.3783C17.0598 84.6716 15.4807 84.306 13.4487 84.306V84.706C15.4426 84.706 16.9325 85.0664 17.9177 85.7127C18.8914 86.3515 19.3867 87.2779 19.3867 88.466H19.7867ZM13.4487 84.306H6.15565V84.706H13.4487V84.306ZM5.95565 84.506V92.657H6.35565V84.506H5.95565ZM37.5611 85.199L37.5067 85.3915L37.7611 85.4634V85.199H37.5611ZM28.0571 80.909L28.1314 81.0948L28.1388 81.0916L28.0571 80.909ZM27.1661 78.863L27.2404 79.0488L27.2453 79.0466L27.1661 78.863ZM37.5611 92.426H37.7611V91.836L37.4023 92.3044L37.5611 92.426ZM37.5941 87.08H37.7941V86.9297L37.6497 86.8879L37.5941 87.08ZM31.3901 95.163C29.8412 95.163 28.2929 94.7188 27.1371 93.8579C25.9865 93.0009 25.2211 91.7298 25.2211 90.05H24.8211C24.8211 91.8682 25.6562 93.2536 26.8981 94.1786C28.1348 95.0997 29.771 95.563 31.3901 95.563V95.163ZM25.2211 90.05V89.984H24.8211V90.05H25.2211ZM25.2211 89.984C25.2211 88.2483 25.9339 86.9314 27.1637 86.0417C28.4014 85.1462 30.1785 84.673 32.3141 84.673V84.273C30.1266 84.273 28.2573 84.7568 26.9292 85.7176C25.5932 86.6841 24.8211 88.1227 24.8211 89.984H25.2211ZM32.3141 84.673C34.4707 84.673 36.0032 84.9666 37.5067 85.3915L37.6155 85.0065C36.0829 84.5734 34.5135 84.273 32.3141 84.273V84.673ZM37.7611 85.199V84.605H37.3611V85.199H37.7611ZM37.7611 84.605C37.7611 83.0284 37.2765 81.8051 36.3539 80.9787C35.4348 80.1554 34.1099 79.752 32.4791 79.752V80.152C34.0492 80.152 35.2653 80.5406 36.087 81.2766C36.9051 82.0094 37.3611 83.1126 37.3611 84.605H37.7611ZM32.4791 79.752C30.7307 79.752 29.251 80.1558 27.9754 80.7264L28.1388 81.0916C29.3712 80.5402 30.7954 80.152 32.4791 80.152V79.752ZM27.9828 80.7233C27.8369 80.7817 27.6972 80.808 27.5951 80.808V81.208C27.757 81.208 27.9473 81.1683 28.1314 81.0947L27.9828 80.7233ZM27.5951 80.808C27.1038 80.808 26.6731 80.3949 26.6731 79.919H26.2731C26.2731 80.6311 26.8984 81.208 27.5951 81.208V80.808ZM26.6731 79.919C26.6731 79.4833 26.976 79.1544 27.2404 79.0487L27.0918 78.6773C26.6962 78.8356 26.2731 79.2987 26.2731 79.919H26.6731ZM27.2453 79.0466C28.9059 78.3303 30.595 77.908 32.7431 77.908V77.508C30.5351 77.508 28.7923 77.9437 27.0869 78.6794L27.2453 79.0466ZM32.7431 77.908C35.119 77.908 36.9083 78.526 38.1127 79.7304L38.3955 79.4476C37.0919 78.144 35.1852 77.508 32.7431 77.508V77.908ZM38.1127 79.7304C39.22 80.8378 39.8031 82.4307 39.8031 84.572H40.2031C40.2031 82.3573 39.5982 80.6502 38.3955 79.4476L38.1127 79.7304ZM39.8031 84.572V93.911H40.2031V84.572H39.8031ZM39.8031 93.911C39.8031 94.5301 39.3611 94.965 38.7821 94.965V95.365C39.589 95.365 40.2031 94.7439 40.2031 93.911H39.8031ZM38.7821 94.965C38.1665 94.965 37.7611 94.5265 37.7611 93.977H37.3611C37.3611 94.7475 37.9456 95.365 38.7821 95.365V94.965ZM37.7611 93.977V92.426H37.3611V93.977H37.7611ZM37.4023 92.3044C36.2467 93.813 34.3225 95.163 31.3901 95.163V95.563C34.4637 95.563 36.4994 94.141 37.7199 92.5476L37.4023 92.3044ZM31.8851 93.55C35.0837 93.55 37.7941 91.5881 37.7941 88.73H37.3941C37.3941 91.2839 34.9564 93.15 31.8851 93.15V93.55ZM37.7941 88.73V87.08H37.3941V88.73H37.7941ZM37.6497 86.8879C36.3832 86.5213 34.681 86.154 32.5781 86.154V86.554C34.6332 86.554 36.2969 86.9127 37.5385 87.2721L37.6497 86.8879ZM32.5781 86.154C30.9522 86.154 29.6599 86.5055 28.7686 87.1533C27.87 87.8065 27.3951 88.75 27.3951 89.885H27.7951C27.7951 88.875 28.2112 88.053 29.0038 87.4769C29.8038 86.8955 31.003 86.554 32.5781 86.554V86.154ZM27.3951 89.885V89.951H27.7951V89.885H27.3951ZM27.3951 89.951C27.3951 91.0928 27.925 91.9998 28.7546 92.6155C29.5796 93.2277 30.6964 93.55 31.8851 93.55V93.15C30.7638 93.15 29.7355 92.8453 28.993 92.2943C28.2551 91.7467 27.7951 90.9542 27.7951 89.951H27.3951ZM58.7174 80.051L58.5824 80.1988L58.5894 80.2046L58.7174 80.051ZM57.0674 81.866L56.9319 82.0134L56.9394 82.0196L57.0674 81.866ZM57.3314 91.04L57.469 91.1852L57.4729 91.1814L57.3314 91.04ZM58.8824 92.657L58.741 92.5156V92.5156L58.8824 92.657ZM52.4474 95.196C47.5807 95.196 43.9024 91.2325 43.9024 86.552H43.5024C43.5024 91.4415 47.3481 95.596 52.4474 95.596V95.196ZM43.9024 86.552V86.486H43.5024V86.552H43.9024ZM43.9024 86.486C43.9024 81.7711 47.5821 77.776 52.4474 77.776V77.376C47.3467 77.376 43.5024 81.5649 43.5024 86.486H43.9024ZM52.4474 77.776C55.2245 77.776 57.0924 78.8381 58.5826 80.1987L58.8523 79.9033C57.3065 78.4919 55.3464 77.376 52.4474 77.376V77.776ZM58.5894 80.2046C58.7452 80.3345 58.9134 80.6096 58.9134 80.942H59.3134C59.3134 80.4824 59.0857 80.0975 58.8455 79.8974L58.5894 80.2046ZM58.9134 80.942C58.9134 81.521 58.4455 81.963 57.8924 81.963V82.363C58.6593 82.363 59.3134 81.749 59.3134 80.942H58.9134ZM57.8924 81.963C57.6142 81.963 57.3615 81.8507 57.1955 81.7124L56.9394 82.0196C57.1694 82.2113 57.5107 82.363 57.8924 82.363V81.963ZM57.2028 81.7187C55.9648 80.5812 54.5323 79.62 52.4144 79.62V80.02C54.3886 80.02 55.728 80.9068 56.9321 82.0133L57.2028 81.7187ZM52.4144 79.62C48.823 79.62 46.1094 82.6632 46.1094 86.42H46.5094C46.5094 82.8508 49.0759 80.02 52.4144 80.02V79.62ZM46.1094 86.42V86.486H46.5094V86.42H46.1094ZM46.1094 86.486C46.1094 90.2802 48.8931 93.319 52.5794 93.319V92.919C49.1378 92.919 46.5094 90.0838 46.5094 86.486H46.1094ZM52.5794 93.319C54.5938 93.319 56.1915 92.3954 57.469 91.1852L57.1939 90.8948C55.9633 92.0606 54.4591 92.919 52.5794 92.919V93.319ZM57.4729 91.1814C57.6194 91.0349 57.8024 90.91 58.0574 90.91V90.51C57.6525 90.51 57.3735 90.7151 57.19 90.8986L57.4729 91.1814ZM58.0574 90.91C58.5703 90.91 59.0124 91.3778 59.0124 91.865H59.4124C59.4124 91.1642 58.7985 90.51 58.0574 90.51V90.91ZM59.0124 91.865C59.0124 92.1065 58.9033 92.3533 58.741 92.5156L59.0239 92.7984C59.2576 92.5647 59.4124 92.2175 59.4124 91.865H59.0124ZM58.741 92.5156C57.1532 94.1034 55.2547 95.196 52.4474 95.196V95.596C55.3822 95.596 57.3777 94.4446 59.0239 92.7984L58.741 92.5156ZM65.492 87.674H65.292V88.163L65.6346 87.8142L65.492 87.674ZM74.732 78.269L74.8748 78.4093L74.8806 78.4028L74.732 78.269ZM76.382 79.952L76.5221 80.0947L76.5234 80.0934L76.382 79.952ZM70.805 85.43L70.6648 85.2873L70.5364 85.4134L70.6483 85.5544L70.805 85.43ZM76.91 93.119L77.0678 92.9962L77.0666 92.9946L76.91 93.119ZM74.93 94.571L75.0885 94.449L75.0868 94.4468L74.93 94.571ZM69.023 87.113L69.1798 86.9888L69.041 86.8136L68.8822 86.9709L69.023 87.113ZM65.492 90.611L65.3512 90.4689L65.292 90.5276V90.611H65.492ZM63.151 93.878V72.032H62.751V93.878H63.151ZM63.151 72.032C63.151 71.4427 63.6291 70.945 64.205 70.945V70.545C63.3948 70.545 62.751 71.2353 62.751 72.032H63.151ZM64.205 70.945C64.8172 70.945 65.292 71.4461 65.292 72.032H65.692C65.692 71.2319 65.0448 70.545 64.205 70.545V70.945ZM65.292 72.032V87.674H65.692V72.032H65.292ZM65.6346 87.8142L74.8746 78.4092L74.5893 78.1288L65.3493 87.5338L65.6346 87.8142ZM74.8806 78.4028C75.1511 78.1023 75.3977 77.974 75.722 77.974V77.574C75.2543 77.574 74.9069 77.7757 74.5833 78.1352L74.8806 78.4028ZM75.722 77.974C76.29 77.974 76.677 78.4304 76.677 78.962H77.077C77.077 78.2396 76.5399 77.574 75.722 77.574V77.974ZM76.677 78.962C76.677 79.2814 76.5538 79.4973 76.2406 79.8106L76.5234 80.0934C76.8701 79.7467 77.077 79.4346 77.077 78.962H76.677ZM76.2418 79.8093L70.6648 85.2873L70.9451 85.5727L76.5221 80.0947L76.2418 79.8093ZM70.6483 85.5544L76.7533 93.2434L77.0666 92.9946L70.9616 85.3056L70.6483 85.5544ZM76.7521 93.2418C76.964 93.5143 77.04 93.7033 77.04 93.977H77.44C77.44 93.5907 77.3179 93.3177 77.0678 92.9962L76.7521 93.2418ZM77.04 93.977C77.04 94.5524 76.6088 94.965 76.019 94.965V95.365C76.8151 95.365 77.44 94.7876 77.44 93.977H77.04ZM76.019 94.965C75.8134 94.965 75.6585 94.9287 75.521 94.8535C75.381 94.7768 75.2441 94.6514 75.0885 94.4491L74.7714 94.6929C74.9458 94.9196 75.1225 95.0912 75.3289 95.2043C75.538 95.3188 75.7625 95.365 76.019 95.365V94.965ZM75.0868 94.4468L69.1798 86.9888L68.8662 87.2372L74.7732 94.6952L75.0868 94.4468ZM68.8822 86.9709L65.3512 90.4689L65.6327 90.7531L69.1637 87.2551L68.8822 86.9709ZM65.292 90.611V93.878H65.692V90.611H65.292ZM65.292 93.878C65.292 94.5005 64.8467 94.965 64.238 94.965V95.365C65.0812 95.365 65.692 94.7075 65.692 93.878H65.292ZM64.238 94.965C63.6224 94.965 63.151 94.4935 63.151 93.878H62.751C62.751 94.7145 63.4015 95.365 64.238 95.365V94.965ZM91.1714 80.183H91.3714V79.983H91.1714V80.183ZM91.1714 77.939V78.139H91.3714V77.939H91.1714ZM93.7124 77.939H93.5124V78.139H93.7124V77.939ZM93.7124 80.183V79.983H93.5124V80.183H93.7124ZM98.4974 94.835L98.4256 94.6483L98.4217 94.6499L98.4974 94.835ZM95.9894 95.097C94.6498 95.097 93.4999 94.766 92.6866 94.0383C91.8774 93.3143 91.3714 92.1704 91.3714 90.479H90.9714C90.9714 92.2526 91.5049 93.5177 92.4199 94.3364C93.3309 95.1515 94.59 95.497 95.9894 95.497V95.097ZM91.3714 90.479V80.183H90.9714V90.479H91.3714ZM91.1714 79.983H89.7854V80.383H91.1714V79.983ZM89.7854 79.983C89.3018 79.983 88.8634 79.5445 88.8634 79.061H88.4634C88.4634 79.7655 89.0809 80.383 89.7854 80.383V79.983ZM88.8634 79.061C88.8634 78.5482 89.298 78.139 89.7854 78.139V77.739C89.0848 77.739 88.4634 78.3198 88.4634 79.061H88.8634ZM89.7854 78.139H91.1714V77.739H89.7854V78.139ZM91.3714 77.939V73.913H90.9714V77.939H91.3714ZM91.3714 73.913C91.3714 73.3201 91.8199 72.826 92.4254 72.826V72.426C91.5789 72.426 90.9714 73.1199 90.9714 73.913H91.3714ZM92.4254 72.826C93.0079 72.826 93.5124 73.3305 93.5124 73.913H93.9124C93.9124 73.1095 93.2288 72.426 92.4254 72.426V72.826ZM93.5124 73.913V77.939H93.9124V73.913H93.5124ZM93.7124 78.139H98.1344V77.739H93.7124V78.139ZM98.1344 78.139C98.6547 78.139 99.0894 78.5812 99.0894 79.061H99.4894C99.4894 78.3528 98.8681 77.739 98.1344 77.739V78.139ZM99.0894 79.061C99.0894 79.5701 98.6585 79.983 98.1344 79.983V80.383C98.8642 80.383 99.4894 79.8059 99.4894 79.061H99.0894ZM98.1344 79.983H93.7124V80.383H98.1344V79.983ZM93.5124 80.183V90.149H93.9124V80.183H93.5124ZM93.5124 90.149C93.5124 91.2251 93.8123 91.9975 94.3711 92.4968C94.9257 92.9922 95.7002 93.187 96.5834 93.187V92.787C95.7506 92.787 95.0896 92.6023 94.6376 92.1985C94.19 91.7985 93.9124 91.1519 93.9124 90.149H93.5124ZM96.5834 93.187C97.0471 93.187 97.4007 93.1267 97.6635 93.0664C97.7922 93.0369 97.9031 93.0063 97.9831 92.9859C98.0725 92.9632 98.1141 92.956 98.1344 92.956V92.556C98.0556 92.556 97.9653 92.5777 97.8845 92.5983C97.7944 92.6212 97.6969 92.6484 97.574 92.6766C97.3336 92.7318 97.0106 92.787 96.5834 92.787V93.187ZM98.1344 92.956C98.6179 92.956 99.0234 93.3615 99.0234 93.845H99.4234C99.4234 93.1405 98.8388 92.556 98.1344 92.556V92.956ZM99.0234 93.845C99.0234 94.21 98.7916 94.5076 98.4256 94.6483L98.5692 95.0217C99.0612 94.8324 99.4234 94.404 99.4234 93.845H99.0234ZM98.4217 94.6499C97.7213 94.9364 96.9552 95.097 95.9894 95.097V95.497C97.0036 95.497 97.8215 95.3276 98.5731 95.0201L98.4217 94.6499ZM110.267 95.196C105.267 95.196 101.623 91.264 101.623 86.552H101.223C101.223 91.476 105.037 95.596 110.267 95.596V95.196ZM101.623 86.552V86.486H101.223V86.552H101.623ZM101.623 86.486C101.623 81.7736 105.3 77.776 110.333 77.776V77.376C105.07 77.376 101.223 81.5624 101.223 86.486H101.623ZM110.333 77.776C115.334 77.776 119.01 81.709 119.01 86.42H119.41C119.41 81.495 115.562 77.376 110.333 77.376V77.776ZM119.01 86.42V86.486H119.41V86.42H119.01ZM119.01 86.486C119.01 91.1974 115.3 95.196 110.267 95.196V95.596C115.529 95.596 119.41 91.4106 119.41 86.486H119.01ZM110.333 93.319C114.153 93.319 116.803 90.245 116.803 86.552H116.403C116.403 90.053 113.904 92.919 110.333 92.919V93.319ZM116.803 86.552V86.486H116.403V86.552H116.803ZM116.803 86.486C116.803 82.7247 113.986 79.62 110.267 79.62V80.02C113.742 80.02 116.403 82.9213 116.403 86.486H116.803ZM110.267 79.62C106.444 79.62 103.83 82.7298 103.83 86.42H104.23C104.23 82.9162 106.698 80.02 110.267 80.02V79.62ZM103.83 86.42V86.486H104.23V86.42H103.83ZM103.83 86.486C103.83 90.2472 106.613 93.319 110.333 93.319V92.919C106.858 92.919 104.23 90.0508 104.23 86.486H103.83ZM138.92 74.309H139.12V74.109H138.92V74.309ZM141.56 74.309V74.109H141.36V74.309H141.56ZM139.12 93.845V74.309H138.72V93.845H139.12ZM138.92 74.109H132.221V74.509H138.92V74.109ZM132.221 74.109C131.665 74.109 131.2 73.6635 131.2 73.121H130.8C130.8 73.8985 131.458 74.509 132.221 74.509V74.109ZM131.2 73.121C131.2 72.5715 131.672 72.1 132.221 72.1V71.7C131.451 71.7 130.8 72.3505 130.8 73.121H131.2ZM132.221 72.1H148.259V71.7H132.221V72.1ZM148.259 72.1C148.809 72.1 149.28 72.5715 149.28 73.121H149.68C149.68 72.3505 149.03 71.7 148.259 71.7V72.1ZM149.28 73.121C149.28 73.6635 148.816 74.109 148.259 74.109V74.509C149.023 74.509 149.68 73.8985 149.68 73.121H149.28ZM148.259 74.109H141.56V74.509H148.259V74.109ZM141.36 74.309V93.845H141.76V74.309H141.36ZM141.36 93.845C141.36 94.4605 140.856 94.965 140.24 94.965V95.365C141.077 95.365 141.76 94.6815 141.76 93.845H141.36ZM140.24 94.965C139.625 94.965 139.12 94.4605 139.12 93.845H138.72C138.72 94.6815 139.404 95.365 140.24 95.365V94.965ZM156.723 95.196C151.723 95.196 148.079 91.264 148.079 86.552H147.679C147.679 91.476 151.493 95.596 156.723 95.596V95.196ZM148.079 86.552V86.486H147.679V86.552H148.079ZM148.079 86.486C148.079 81.7736 151.757 77.776 156.789 77.776V77.376C151.526 77.376 147.679 81.5624 147.679 86.486H148.079ZM156.789 77.776C161.79 77.776 165.466 81.709 165.466 86.42H165.866C165.866 81.495 162.018 77.376 156.789 77.376V77.776ZM165.466 86.42V86.486H165.866V86.42H165.466ZM165.466 86.486C165.466 91.1974 161.757 95.196 156.723 95.196V95.596C161.986 95.596 165.866 91.4106 165.866 86.486H165.466ZM156.789 93.319C160.61 93.319 163.259 90.245 163.259 86.552H162.859C162.859 90.053 160.361 92.919 156.789 92.919V93.319ZM163.259 86.552V86.486H162.859V86.552H163.259ZM163.259 86.486C163.259 82.7247 160.443 79.62 156.723 79.62V80.02C160.198 80.02 162.859 82.9213 162.859 86.486H163.259ZM156.723 79.62C152.9 79.62 150.286 82.7298 150.286 86.42H150.686C150.686 82.9162 153.154 80.02 156.723 80.02V79.62ZM150.286 86.42V86.486H150.686V86.42H150.286ZM150.286 86.486C150.286 90.2472 153.07 93.319 156.789 93.319V92.919C153.315 92.919 150.686 90.0508 150.686 86.486H150.286ZM172.15 81.371H171.95V82.0228L172.316 81.4832L172.15 81.371ZM172.15 91.733L172.315 91.6195L171.95 91.0907V91.733H172.15ZM169.809 99.158V79.061H169.409V99.158H169.809ZM169.809 79.061C169.809 78.442 170.284 77.974 170.863 77.974V77.574C170.056 77.574 169.409 78.228 169.409 79.061H169.809ZM170.863 77.974C171.479 77.974 171.95 78.4455 171.95 79.061H172.35C172.35 78.2245 171.7 77.574 170.863 77.574V77.974ZM171.95 79.061V81.371H172.35V79.061H171.95ZM172.316 81.4832C173.681 79.4684 175.64 77.776 178.684 77.776V77.376C175.459 77.376 173.392 79.1816 171.985 81.2588L172.316 81.4832ZM178.684 77.776C182.668 77.776 186.635 80.9225 186.635 86.42H187.035C187.035 80.6975 182.885 77.376 178.684 77.376V77.776ZM186.635 86.42V86.486H187.035V86.42H186.635ZM186.635 86.486C186.635 91.9525 182.699 95.163 178.684 95.163V95.563C182.92 95.563 187.035 92.1735 187.035 86.486H186.635ZM178.684 95.163C175.603 95.163 173.611 93.4989 172.315 91.6195L171.986 91.8465C173.329 93.7951 175.43 95.563 178.684 95.563V95.163ZM171.95 91.733V99.158H172.35V91.733H171.95ZM171.95 99.158C171.95 99.7805 171.505 100.245 170.896 100.245V100.645C171.74 100.645 172.35 99.9875 172.35 99.158H171.95ZM170.896 100.245C170.281 100.245 169.809 99.7735 169.809 99.158H169.409C169.409 99.9945 170.06 100.645 170.896 100.645V100.245ZM178.222 93.286C179.923 93.286 181.477 92.6562 182.607 91.4884C183.736 90.3203 184.428 88.6264 184.428 86.519H184.028C184.028 88.5366 183.367 90.1262 182.319 91.2103C181.27 92.2948 179.822 92.886 178.222 92.886V93.286ZM184.428 86.519V86.453H184.028V86.519H184.428ZM184.428 86.453C184.428 82.325 181.575 79.653 178.222 79.653V80.053C181.338 80.053 184.028 82.529 184.028 86.453H184.428ZM178.222 79.653C174.942 79.653 171.851 82.4169 171.851 86.42H172.251C172.251 82.6351 175.166 80.053 178.222 80.053V79.653ZM171.851 86.42V86.486H172.251V86.42H171.851ZM171.851 86.486C171.851 90.5551 174.942 93.286 178.222 93.286V92.886C175.166 92.886 172.251 90.3369 172.251 86.486H171.851Z" fill="#EFFE37"/>
<path d="M22 124.567V115.14C22 114.806 22.2662 114.532 22.5767 114.532H25.5931C28.8461 114.532 31.0936 116.828 31.0936 119.823V119.854C31.0936 122.849 28.8461 125.175 25.5931 125.175H22.5767C22.2662 125.175 22 124.902 22 124.567ZM23.1681 124.065H25.5931C28.2103 124.065 29.8811 122.241 29.8811 119.884V119.854C29.8811 117.497 28.2103 115.642 25.5931 115.642H23.1681V124.065Z" fill="white"/>
<path d="M36.7158 125.358C34.4239 125.358 32.753 123.503 32.753 121.283V121.253C32.753 119.033 34.4387 117.147 36.7453 117.147C39.0372 117.147 40.7229 119.002 40.7229 121.222V121.253C40.7229 123.473 39.0224 125.358 36.7158 125.358ZM36.7453 124.309C38.4014 124.309 39.5547 122.94 39.5547 121.283V121.253C39.5547 119.565 38.3275 118.181 36.7158 118.181C35.0597 118.181 33.9211 119.565 33.9211 121.222V121.253C33.9211 122.94 35.1336 124.309 36.7453 124.309Z" fill="white"/>
<path d="M47.1148 124.567V115.14C47.1148 114.806 47.381 114.532 47.6915 114.532H50.7079C53.9609 114.532 56.2084 116.828 56.2084 119.823V119.854C56.2084 122.849 53.9609 125.175 50.7079 125.175H47.6915C47.381 125.175 47.1148 124.902 47.1148 124.567ZM48.283 124.065H50.7079C53.3251 124.065 54.996 122.241 54.996 119.884V119.854C54.996 117.497 53.3251 115.642 50.7079 115.642H48.283V124.065Z" fill="white"/>
<path d="M59.0212 120.812H63.9451C63.8268 119.382 63.0283 118.136 61.5053 118.136C60.1745 118.136 59.1691 119.276 59.0212 120.812ZM64.5661 124.172C63.8415 124.887 62.9839 125.358 61.6827 125.358C59.5831 125.358 57.8679 123.701 57.8679 121.268V121.237C57.8679 118.972 59.4204 117.147 61.5349 117.147C63.7972 117.147 65.0836 119.048 65.0836 121.131C65.0836 121.45 64.8322 121.678 64.5513 121.678H59.0212C59.1838 123.381 60.352 124.339 61.7123 124.339C62.6586 124.339 63.3536 123.959 63.9155 123.427C64.0042 123.351 64.1077 123.29 64.2408 123.29C64.5217 123.29 64.7435 123.518 64.7435 123.792C64.7435 123.929 64.6844 124.065 64.5661 124.172Z" fill="white"/>
<path d="M66.9437 124.658V114.593C66.9437 114.258 67.195 114 67.5056 114C67.8309 114 68.0822 114.258 68.0822 114.593V118.896C68.7033 117.953 69.6052 117.147 71.0099 117.147C72.8434 117.147 74.6622 118.637 74.6622 121.222V121.253C74.6622 123.822 72.8582 125.343 71.0099 125.343C69.5904 125.343 68.6737 124.552 68.0822 123.67V124.658C68.0822 124.978 67.8456 125.251 67.5203 125.251C67.195 125.251 66.9437 124.978 66.9437 124.658ZM70.8029 124.294C72.2816 124.294 73.494 123.168 73.494 121.268V121.237C73.494 119.382 72.252 118.196 70.8029 118.196C69.3834 118.196 68.0379 119.428 68.0379 121.222V121.253C68.0379 123.077 69.3834 124.294 70.8029 124.294Z" fill="white"/>
<path d="M78.892 125.343C77.4725 125.343 76.0382 124.506 76.0382 122.895V122.864C76.0382 121.207 77.369 120.325 79.306 120.325C80.2819 120.325 80.9768 120.462 81.657 120.66V120.386C81.657 118.972 80.8142 118.242 79.3799 118.242C78.611 118.242 77.9604 118.425 77.3986 118.683C77.3246 118.713 77.2507 118.729 77.1915 118.729C76.9254 118.729 76.6888 118.501 76.6888 118.227C76.6888 117.984 76.8515 117.801 76.9993 117.74C77.7534 117.406 78.5223 117.208 79.4982 117.208C80.5776 117.208 81.4057 117.497 81.9675 118.075C82.4851 118.607 82.7512 119.367 82.7512 120.371V124.674C82.7512 125.008 82.5146 125.251 82.2041 125.251C81.8788 125.251 81.657 125.008 81.657 124.704V123.989C81.1247 124.704 80.2375 125.343 78.892 125.343ZM79.1138 124.415C80.5185 124.415 81.6718 123.533 81.6718 122.287V121.526C81.1099 121.359 80.3558 121.192 79.4243 121.192C77.99 121.192 77.1915 121.83 77.1915 122.819V122.849C77.1915 123.837 78.0787 124.415 79.1138 124.415Z" fill="white"/>
<path d="M87.5156 125.312C86.2884 125.312 85.3568 124.689 85.3568 123.092V118.349H84.7358C84.4697 118.349 84.2331 118.105 84.2331 117.832C84.2331 117.543 84.4697 117.315 84.7358 117.315H85.3568V115.46C85.3568 115.14 85.5934 114.867 85.9187 114.867C86.2292 114.867 86.4954 115.14 86.4954 115.46V117.315H88.4768C88.7577 117.315 88.9943 117.558 88.9943 117.832C88.9943 118.12 88.7577 118.349 88.4768 118.349H86.4954V122.94C86.4954 123.898 87.0129 124.248 87.7818 124.248C88.181 124.248 88.388 124.142 88.4768 124.142C88.7429 124.142 88.9647 124.37 88.9647 124.643C88.9647 124.856 88.8316 125.023 88.6394 125.099C88.3141 125.236 87.9592 125.312 87.5156 125.312Z" fill="white"/>
<path d="M91.2514 120.812H96.1752C96.057 119.382 95.2585 118.136 93.7355 118.136C92.4047 118.136 91.3993 119.276 91.2514 120.812ZM96.7963 124.172C96.0717 124.887 95.2141 125.358 93.9129 125.358C91.8133 125.358 90.0981 123.701 90.0981 121.268V121.237C90.0981 118.972 91.6506 117.147 93.7651 117.147C96.0274 117.147 97.3138 119.048 97.3138 121.131C97.3138 121.45 97.0624 121.678 96.7815 121.678H91.2514C91.414 123.381 92.5822 124.339 93.9425 124.339C94.8888 124.339 95.5838 123.959 96.1457 123.427C96.2344 123.351 96.3379 123.29 96.471 123.29C96.7519 123.29 96.9737 123.518 96.9737 123.792C96.9737 123.929 96.9146 124.065 96.7963 124.172Z" fill="white"/>
<path d="M98.4232 126.696C98.4232 126.574 98.4972 126.468 98.6155 126.422C99.2217 126.149 99.4731 125.768 99.4435 125.175C99.133 125.099 98.8668 124.856 98.8668 124.446V124.202C98.8668 123.807 99.1478 123.503 99.547 123.503C99.9758 123.503 100.272 123.837 100.272 124.339V124.628C100.272 125.54 100.079 126.103 99.7392 126.453C99.4287 126.772 98.9703 127 98.7337 127C98.5415 127 98.4232 126.878 98.4232 126.696Z" fill="white"/>
<path d="M111.789 125.358C108.536 125.358 106.525 122.925 106.525 119.884V119.854C106.525 116.935 108.61 114.35 111.715 114.35C113.282 114.35 114.303 114.775 115.249 115.49C115.382 115.596 115.486 115.764 115.486 115.977C115.486 116.311 115.219 116.585 114.909 116.585C114.776 116.585 114.657 116.524 114.539 116.433C113.8 115.855 112.972 115.46 111.671 115.46C109.379 115.46 107.737 117.451 107.737 119.823V119.854C107.737 122.393 109.32 124.278 111.833 124.278C113.016 124.278 114.11 123.807 114.82 123.214V120.568H112.04C111.759 120.568 111.523 120.325 111.523 120.036C111.523 119.732 111.759 119.489 112.04 119.489H115.367C115.678 119.489 115.944 119.763 115.944 120.097V123.336C115.944 123.625 115.811 123.883 115.545 124.065C114.598 124.78 113.327 125.358 111.789 125.358Z" fill="white"/>
<path d="M118.919 120.812H123.842C123.724 119.382 122.926 118.136 121.403 118.136C120.072 118.136 119.066 119.276 118.919 120.812ZM124.464 124.172C123.739 124.887 122.881 125.358 121.58 125.358C119.48 125.358 117.765 123.701 117.765 121.268V121.237C117.765 118.972 119.318 117.147 121.432 117.147C123.695 117.147 124.981 119.048 124.981 121.131C124.981 121.45 124.73 121.678 124.449 121.678H118.919C119.081 123.381 120.249 124.339 121.61 124.339C122.556 124.339 123.251 123.959 123.813 123.427C123.902 123.351 124.005 123.29 124.138 123.29C124.419 123.29 124.641 123.518 124.641 123.792C124.641 123.929 124.582 124.065 124.464 124.172Z" fill="white"/>
<path d="M129.399 125.312C128.172 125.312 127.24 124.689 127.24 123.092V118.349H126.619C126.353 118.349 126.117 118.105 126.117 117.832C126.117 117.543 126.353 117.315 126.619 117.315H127.24V115.46C127.24 115.14 127.477 114.867 127.802 114.867C128.113 114.867 128.379 115.14 128.379 115.46V117.315H130.36C130.641 117.315 130.878 117.558 130.878 117.832C130.878 118.12 130.641 118.349 130.36 118.349H128.379V122.94C128.379 123.898 128.896 124.248 129.665 124.248C130.065 124.248 130.272 124.142 130.36 124.142C130.626 124.142 130.848 124.37 130.848 124.643C130.848 124.856 130.715 125.023 130.523 125.099C130.198 125.236 129.843 125.312 129.399 125.312Z" fill="white"/>
<path d="M139.84 124.795L136.528 115.338C136.498 115.247 136.468 115.156 136.468 115.064C136.468 114.745 136.749 114.456 137.075 114.456C137.37 114.456 137.592 114.684 137.681 114.958L140.535 123.412L143.241 114.927C143.329 114.654 143.507 114.456 143.817 114.456H143.891C144.187 114.456 144.379 114.654 144.468 114.927L147.174 123.412L150.042 114.927C150.131 114.654 150.323 114.456 150.604 114.456C150.915 114.456 151.196 114.745 151.196 115.049C151.196 115.14 151.151 115.247 151.122 115.338L147.81 124.795C147.706 125.099 147.499 125.312 147.203 125.312H147.115C146.819 125.312 146.612 125.099 146.508 124.795L143.817 116.615L141.141 124.795C141.037 125.099 140.83 125.312 140.535 125.312H140.446C140.15 125.312 139.943 125.115 139.84 124.795Z" fill="white"/>
<path d="M152.866 115.049V114.851C152.866 114.471 153.161 114.228 153.531 114.228C153.915 114.228 154.211 114.471 154.211 114.851V115.049C154.211 115.414 153.915 115.673 153.531 115.673C153.161 115.673 152.866 115.414 152.866 115.049ZM152.969 124.658V117.832C152.969 117.512 153.221 117.239 153.531 117.239C153.856 117.239 154.108 117.497 154.108 117.832V124.658C154.108 124.993 153.871 125.251 153.546 125.251C153.221 125.251 152.969 124.993 152.969 124.658Z" fill="white"/>
<path d="M156.602 124.658V117.832C156.602 117.512 156.853 117.239 157.164 117.239C157.489 117.239 157.741 117.497 157.741 117.832V118.683C158.243 117.832 159.042 117.147 160.358 117.147C162.206 117.147 163.286 118.425 163.286 120.295V124.658C163.286 124.993 163.034 125.251 162.724 125.251C162.398 125.251 162.147 124.993 162.147 124.658V120.584C162.147 119.124 161.378 118.212 160.033 118.212C158.717 118.212 157.741 119.2 157.741 120.675V124.658C157.741 124.993 157.504 125.251 157.179 125.251C156.853 125.251 156.602 124.993 156.602 124.658Z" fill="white"/>
<path d="M165.95 121.876L165.61 114.973C165.595 114.699 165.788 114.487 166.039 114.487H166.556C166.823 114.487 167 114.699 166.985 114.973L166.645 121.876C166.63 122.074 166.482 122.226 166.305 122.226C166.113 122.226 165.965 122.074 165.95 121.876ZM165.595 124.218C165.595 123.807 165.891 123.503 166.305 123.503C166.704 123.503 167 123.807 167 124.218V124.522C167 124.932 166.704 125.251 166.305 125.251C165.891 125.251 165.595 124.932 165.595 124.522V124.218Z" fill="white"/>
</svg>
