<svg width="current" height="current" viewBox="0 0 64 64" fill="none" xmlns="http://www.w3.org/2000/svg">
<circle cx="32" cy="32" r="32" fill="black" stroke="white"/>
<path d="M12.3039 33.473L51.6962 26.527" stroke="white" stroke-width="3" stroke-linecap="round"/>
<path d="M30.6891 31.1236C31.0882 30.5705 31.9117 30.5705 32.3109 31.1236L41.1813 43.4148C41.6586 44.0762 41.186 45 40.3704 45H22.6296C21.814 45 21.3414 44.0762 21.8187 43.4148L30.6891 31.1236Z" fill="white"/>
<circle cx="13" cy="27" r="5" fill="white"/>
<path d="M50.1592 16.3672C50.0391 17.448 48.8513 18.2435 48.6806 19.3243C48.6188 19.7157 47.8771 20.829 47.5717 21.1725C47.1999 21.5908 47.1348 22.375 46.7914 22.7948C46.4877 23.166 46.0931 23.8319 46.0931 24.3145" stroke="white" stroke-width="3" stroke-linecap="round"/>
<path d="M43.6905 18.0305C44.0777 18.1166 44.6361 18.9152 45.0253 19.1395C45.4727 19.3973 46.1487 19.8356 46.6887 19.8788C47.3885 19.9347 48.741 20.3409 49.3378 20.7207C50.4417 21.4232 51.7575 22.2489 52.9316 22.8359" stroke="white" stroke-width="3" stroke-linecap="round"/>
</svg>
