<svg width="current" height="current" viewBox="0 0 145 124" fill="none" xmlns="http://www.w3.org/2000/svg">
<path d="M75.1634 19.4854H70.4287V109.238H75.1634V19.4854Z" fill="#919191"/>
<path d="M106.53 59.6384L124.877 19.5785M124.877 19.5785L143.224 59.6384M124.877 19.5785V10.6289" stroke="#E2E2E2"/>
<path d="M104.755 57.8672H145C145 64.7155 139.435 70.2672 132.571 70.2672H117.183C110.319 70.2672 104.755 64.7155 104.755 57.8672Z" fill="#ABABAB"/>
<path d="M1.77539 59.6384L20.1223 19.5785M20.1223 19.5785L38.4692 59.6384M20.1223 19.5785V10.6289" stroke="#E2E2E2"/>
<path d="M0 57.8672H40.2449C40.2449 64.7155 34.6804 70.2672 27.8163 70.2672H12.4286C5.56445 70.2672 0 64.7155 0 57.8672Z" fill="#ABABAB"/>
<path d="M19.5303 8.26643L19.5303 12.9902L125.469 12.9902L125.469 8.26643L19.5303 8.26643Z" fill="#E2E2E2"/>
<path d="M72.4997 21.2571C78.2198 21.2571 82.8568 16.4986 82.8568 10.6286C82.8568 4.75857 78.2198 0 72.4997 0C66.7796 0 62.1426 4.75857 62.1426 10.6286C62.1426 16.4986 66.7796 21.2571 72.4997 21.2571Z" fill="#F4FB7A"/>
<path d="M90.5512 115.734C90.5512 111.036 88.6806 106.53 85.3509 103.208C82.0211 99.8859 77.5051 98.0195 72.7961 98.0195C68.0872 98.0195 63.5711 99.8859 60.2414 103.208C56.9116 106.53 55.041 111.036 55.041 115.734L90.5512 115.734Z" fill="#C6C6C6"/>
<path d="M38.4697 120.146C38.4697 122.274 40.1992 124 42.3327 124H102.668C104.801 124 106.531 122.274 106.531 120.146V118.997C106.531 116.868 104.801 115.143 102.668 115.143H42.3327C40.1992 115.143 38.4697 116.868 38.4697 118.997V120.146Z" fill="#E2E2E2"/>
</svg>
