<svg width="517" height="249" viewBox="0 0 517 249" fill="none" xmlns="http://www.w3.org/2000/svg">
<rect width="517" height="248" rx="24" fill="#B484F1"/>
<path d="M25.004 89.392C27.092 89.392 28.712 90.634 29.054 92.452H32.132V88.51H33.77V97.582H32.132V93.802H29.054C28.748 95.674 27.11 96.934 25.004 96.934C22.628 96.934 20.882 95.386 20.882 93.154C20.882 90.958 22.628 89.392 25.004 89.392ZM22.466 93.154C22.466 94.594 23.528 95.566 25.004 95.566C26.462 95.566 27.524 94.594 27.524 93.154C27.524 91.75 26.462 90.778 25.004 90.778C23.528 90.778 22.466 91.75 22.466 93.154ZM23.384 104.17V98.374H33.77V104.17H23.384ZM25.004 102.856H32.168V99.688H25.004V102.856ZM37.0104 90.058H44.3724V100.39H37.0104V90.058ZM38.6304 99.076H42.7524V91.39H38.6304V99.076ZM47.0184 104.386V88.51H48.6744V94.774H51.1944V96.142H48.6744V104.386H47.0184ZM56.8648 89.5C59.2948 89.5 61.0768 91.066 61.0768 93.28C61.0768 95.242 59.6908 96.682 57.6928 97.006V99.544C59.0968 99.49 60.5008 99.382 61.7968 99.202L61.9408 100.408C58.6108 100.984 54.9388 101.002 52.1848 101.002L51.9508 99.652C53.1748 99.652 54.5968 99.652 56.0548 99.616V97.006C54.0388 96.7 52.6348 95.26 52.6348 93.28C52.6348 91.066 54.4168 89.5 56.8648 89.5ZM54.2368 93.28C54.2368 94.702 55.3348 95.656 56.8648 95.656C58.3768 95.656 59.4748 94.702 59.4748 93.28C59.4748 91.858 58.3768 90.904 56.8648 90.904C55.3348 90.904 54.2368 91.858 54.2368 93.28ZM62.7688 104.368V88.492H64.3888V94.972H66.8188V96.34H64.3888V104.368H62.7688ZM70.1853 101.506L69.0873 105.214H67.9173L68.5113 101.506H70.1853ZM81.3394 89.698C83.6974 89.698 85.3714 91.84 85.3714 95.26C85.3714 98.662 83.6974 100.84 81.3394 100.84C78.9994 100.84 77.3074 98.662 77.3074 95.26C77.3074 91.84 78.9994 89.698 81.3394 89.698ZM78.8914 95.26C78.8914 97.78 79.8814 99.364 81.3394 99.364C82.7974 99.364 83.8054 97.78 83.8054 95.26C83.8054 92.74 82.7974 91.174 81.3394 91.174C79.8814 91.174 78.8914 92.74 78.8914 95.26ZM87.7294 104.386V88.51H89.3854V94.774H91.9054V96.142H89.3854V104.386H87.7294ZM103.984 88.51H105.604V94.612H107.566V95.998H105.604V104.386H103.984V88.51ZM93.0938 100.552V89.986H94.4798V93.928H96.1898V89.986H97.5398V100.552H93.0938ZM94.4798 99.238H96.1898V95.26H94.4798V99.238ZM98.3318 100.552V89.986H99.6998V93.928H101.374V89.986H102.742V100.552H98.3318ZM99.6998 99.238H101.374V95.26H99.6998V99.238ZM114.613 89.104H125.215V90.418H116.251V92.596H125.377V93.91H114.613V89.104ZM112.723 96.412V95.08H127.069V96.412H120.715V97.816H125.251V101.506H116.089V102.946H125.719V104.224H114.487V100.336H123.631V99.058H114.433V97.816H119.077V96.412H112.723ZM132.604 95.89H146.95V97.204H140.596V98.788C143.494 98.95 145.222 99.904 145.222 101.56C145.222 103.342 143.17 104.35 139.768 104.35C136.366 104.35 134.313 103.342 134.313 101.56C134.313 99.904 136.042 98.95 138.94 98.788V97.204H132.604V95.89ZM133.36 93.712C136.204 93.424 138.472 92.11 138.67 90.544H133.918V89.23H145.654V90.544H140.884C141.082 92.128 143.332 93.424 146.212 93.712L145.618 95.008C142.9 94.702 140.632 93.532 139.786 91.84C138.922 93.532 136.654 94.702 133.954 95.008L133.36 93.712ZM135.97 101.56C135.97 102.568 137.356 103.09 139.768 103.09C142.162 103.09 143.548 102.568 143.548 101.56C143.548 100.552 142.162 100.012 139.768 100.012C137.356 100.012 135.97 100.552 135.97 101.56ZM154.338 89.284H155.976V93.748H165.246V95.098H154.338V89.284ZM152.484 98.68V97.348H166.866V98.68H160.44V104.386H158.82V98.68H152.484ZM178.819 88.474H180.493V94.846H182.941V96.214H180.493V104.368H178.819V88.474ZM168.253 100.156C172.213 98.14 174.373 95.242 174.697 91.516H169.027V90.184H176.353C176.353 94.756 174.337 98.824 169.171 101.416L168.253 100.156ZM188.89 89.986H196.09V91.318H190.51V99.13C193.21 99.13 195.028 99.04 197.098 98.644L197.278 99.976C195.01 100.408 193.102 100.498 190.114 100.498H188.89V89.986ZM195.208 95.548V94.198H199.582V88.492H201.238V104.404H199.582V95.548H195.208ZM207.979 101.002H214.297V97.222H215.917V101.002H222.361V102.352H207.979V101.002ZM208.5 96.106C211.489 95.602 214.243 93.244 214.243 90.724V89.5H215.971V90.724C215.971 93.244 218.761 95.602 221.731 96.106L221.029 97.492C218.509 96.97 216.151 95.368 215.107 93.172C214.063 95.35 211.723 96.97 209.185 97.492L208.5 96.106ZM223.711 95.89H238.057V97.204H231.703V98.788C234.601 98.95 236.329 99.904 236.329 101.56C236.329 103.342 234.277 104.35 230.875 104.35C227.473 104.35 225.421 103.342 225.421 101.56C225.421 99.904 227.149 98.95 230.047 98.788V97.204H223.711V95.89ZM224.467 93.712C227.311 93.424 229.579 92.11 229.777 90.544H225.025V89.23H236.761V90.544H231.991C232.189 92.128 234.439 93.424 237.319 93.712L236.725 95.008C234.007 94.702 231.739 93.532 230.893 91.84C230.029 93.532 227.761 94.702 225.061 95.008L224.467 93.712ZM227.077 101.56C227.077 102.568 228.463 103.09 230.875 103.09C233.269 103.09 234.655 102.568 234.655 101.56C234.655 100.552 233.269 100.012 230.875 100.012C228.463 100.012 227.077 100.552 227.077 101.56ZM239.407 91.138H242.521V88.942H244.141V91.138H247.219V92.47H239.407V91.138ZM239.911 97.096C239.911 94.972 241.333 93.46 243.331 93.46C245.311 93.46 246.751 94.972 246.751 97.096C246.751 99.274 245.311 100.768 243.331 100.768C241.333 100.768 239.911 99.274 239.911 97.096ZM241.369 97.096C241.369 98.464 242.179 99.382 243.331 99.382C244.465 99.382 245.293 98.464 245.293 97.096C245.293 95.746 244.465 94.828 243.331 94.828C242.179 94.828 241.369 95.746 241.369 97.096ZM247.957 103.612V88.852H249.505V95.134H251.341V88.492H252.907V104.368H251.341V96.484H249.505V103.612H247.957ZM258.29 99.706C258.29 97.726 258.938 96.682 260.108 95.818C260.972 95.188 261.818 94.612 261.818 93.622C261.818 91.93 260.648 91.156 259.226 91.156C258.146 91.156 257.3 91.84 256.886 93.064L255.338 92.56C255.914 90.778 257.48 89.5 259.226 89.5C261.296 89.5 263.474 90.994 263.474 93.622C263.474 95.494 261.926 96.52 261.08 97.15C260.216 97.762 259.946 98.248 259.946 99.706H258.29ZM258.11 102.298C258.11 101.758 258.47 101.308 259.118 101.308C259.766 101.308 260.108 101.758 260.108 102.298C260.108 102.874 259.766 103.324 259.118 103.324C258.47 103.324 258.11 102.874 258.11 102.298ZM20.666 122.492H35.048V123.842H31.394V129.368H29.72V123.842H25.94V129.368H24.248V123.842H20.666V122.492ZM22.214 117.596C22.214 115.454 24.482 114.14 27.812 114.14C31.16 114.14 33.41 115.454 33.41 117.596C33.41 119.738 31.16 121.07 27.812 121.07C24.482 121.07 22.214 119.738 22.214 117.596ZM23.906 117.596C23.906 118.946 25.472 119.756 27.812 119.756C30.17 119.756 31.736 118.946 31.736 117.596C31.736 116.282 30.17 115.436 27.812 115.436C25.472 115.436 23.906 116.282 23.906 117.596ZM47.7744 113.492H49.4304V129.368H47.7744V113.492ZM36.6324 125.084C39.0444 123.968 40.6644 121.286 40.6644 118.586V117.524H37.1004V116.228H40.6644V113.798H42.3204V116.228H45.8304V117.524H42.3024V118.586C42.3024 121.16 43.9944 123.752 46.4064 124.796L45.4884 126.074C43.6884 125.264 42.2484 123.59 41.5284 121.556C40.8264 123.698 39.3864 125.48 37.5504 126.344L36.6324 125.084ZM62.7688 113.51H64.4068V119.954H66.9268V121.322H64.4068V129.386H62.7688V113.51ZM52.0408 117.326V115.994H55.9288V113.708H57.6028V115.994H61.4008V117.326H52.0408ZM52.8868 122.222C52.8868 120.062 54.5428 118.55 56.7748 118.55C59.0428 118.55 60.6808 120.062 60.6808 122.222C60.6808 124.382 59.0428 125.894 56.7748 125.894C54.5428 125.894 52.8868 124.382 52.8868 122.222ZM54.4528 122.222C54.4528 123.608 55.4248 124.544 56.7748 124.544C58.1248 124.544 59.1148 123.608 59.1148 122.222C59.1148 120.854 58.1248 119.9 56.7748 119.9C55.4248 119.9 54.4528 120.854 54.4528 122.222ZM79.8153 113.492H81.3813V129.368H79.8153V113.492ZM67.8093 124.814C71.1753 122.798 72.7773 120.098 73.0473 116.822H68.5293V115.49H74.6853C74.6853 117.038 74.4693 118.514 73.9833 119.9H76.5033V113.888H78.0513V128.576H76.5033V121.214H73.4073C72.4713 123.05 70.9773 124.67 68.7633 125.984L67.8093 124.814ZM85.9177 126.506L84.8197 130.214H83.6497L84.2437 126.506H85.9177ZM103.444 113.474H105.118V119.846H107.566V121.214H105.118V129.368H103.444V113.474ZM92.8778 125.156C96.8378 123.14 98.9978 120.242 99.3218 116.516H93.6518V115.184H100.978C100.978 119.756 98.9618 123.824 93.7958 126.416L92.8778 125.156ZM109.312 114.32H110.95V116.66H114.964V114.32H116.584V115.832H120.04V113.51H121.678V122.186H120.04V120.188H116.584V121.646H109.312V114.32ZM110.95 120.314H114.964V117.956H110.95V120.314ZM111.436 129.152V122.924H113.056V124.724H120.04V122.924H121.66V129.152H111.436ZM113.056 127.838H120.04V126.02H113.056V127.838ZM116.584 118.874H120.04V117.164H116.584V118.874ZM136.259 113.492H137.825V129.368H136.259V113.492ZM124.253 124.814C127.619 122.798 129.221 120.098 129.491 116.822H124.973V115.49H131.129C131.129 117.038 130.913 118.514 130.427 119.9H132.947V113.888H134.495V128.576H132.947V121.214H129.851C128.915 123.05 127.421 124.67 125.207 125.984L124.253 124.814ZM146.005 114.734H156.805V116.066H147.661V118.136H156.463V119.432H147.661V121.646H156.967V122.96H152.197V126.092H158.569V127.442H144.187V126.092H150.541V122.96H146.005V114.734ZM159.92 122.492H166.274V120.89H161.774V116.822H170.846V115.238H161.738V113.978H172.466V118.028H163.376V119.63H172.808V120.89H167.93V122.492H174.302V123.842H159.92V122.492ZM161.792 129.278V124.85H163.43V127.964H172.844V129.278H161.792ZM175.616 116.138H178.73V113.942H180.35V116.138H183.428V117.47H175.616V116.138ZM176.12 122.096C176.12 119.972 177.542 118.46 179.54 118.46C181.52 118.46 182.96 119.972 182.96 122.096C182.96 124.274 181.52 125.768 179.54 125.768C177.542 125.768 176.12 124.274 176.12 122.096ZM177.578 122.096C177.578 123.464 178.388 124.382 179.54 124.382C180.674 124.382 181.502 123.464 181.502 122.096C181.502 120.746 180.674 119.828 179.54 119.828C178.388 119.828 177.578 120.746 177.578 122.096ZM184.166 128.612V113.852H185.714V120.134H187.55V113.492H189.116V129.368H187.55V121.484H185.714V128.612H184.166ZM192.231 114.806H193.851V117.092H198.513V114.806H200.133V121.97H197.019V124.724C198.387 124.67 199.773 124.562 201.051 124.382L201.195 125.588C197.847 126.164 194.193 126.2 191.439 126.182L191.205 124.832C192.447 124.832 193.887 124.832 195.363 124.778V121.97H192.231V114.806ZM193.851 120.656H198.513V118.37H193.851V120.656ZM202.023 129.368V113.492H203.643V120.098H206.073V121.466H203.643V129.368H202.023ZM207.117 126.02H210.573V121.826C209.277 121.124 208.485 119.99 208.485 118.568C208.485 116.066 210.933 114.446 214.281 114.446C217.683 114.446 220.095 116.066 220.095 118.568C220.095 119.972 219.339 121.088 218.061 121.808V126.02H221.499V127.37H207.117V126.02ZM210.087 118.568C210.087 120.296 211.833 121.394 214.281 121.394C216.747 121.394 218.493 120.296 218.493 118.568C218.493 116.84 216.747 115.742 214.281 115.742C211.833 115.742 210.087 116.84 210.087 118.568ZM212.193 126.02H216.405V122.438C215.757 122.6 215.037 122.672 214.281 122.672C213.543 122.672 212.841 122.6 212.193 122.438V126.02Z" fill="white"/>
<path d="M22.048 35.456H25.728V38.592H29.664V35.456H33.344V47.712H22.048V35.456ZM25.728 44.672H29.664V41.536H25.728V44.672ZM25.984 52.864V49.824H45.408V57.472H29.984V59.392H46.24V62.464H26.016V54.592H41.472V52.864H25.984ZM35.552 48.512V34.528H39.264V39.808H41.632V34.016H45.408V48.768H41.632V42.944H39.264V48.512H35.552ZM50.0168 35.904H62.9448V45.024H53.9848V48.224C58.4648 48.192 61.4728 48.064 64.9288 47.52L65.2168 50.656C61.3128 51.328 57.8568 51.392 52.3848 51.392H50.0807V42.016H59.0408V39.04H50.0168V35.904ZM53.8888 62.144V53.44H57.8568V58.976H73.6328V62.144H53.8888ZM64.3848 44.256V40.928H68.9288V34.016H72.9288V55.104H68.9288V44.256H64.3848ZM87.6815 35.648H91.9055V37.728C91.9055 42.016 95.6175 46.464 101.986 47.552L100.258 50.848C95.3295 49.856 91.6495 47.072 89.7935 43.392C87.9055 47.04 84.2255 49.856 79.2975 50.848L77.6015 47.552C83.9055 46.464 87.6815 41.92 87.6815 37.728V35.648ZM76.9615 59.104V55.872H102.914V59.104H76.9615ZM133.137 33.984H136.913V62.656H133.137V33.984ZM111.921 53.92C117.713 50.464 120.241 46.272 120.785 40.576H113.489V37.408H124.689C124.689 40.128 124.401 42.688 123.697 45.056H127.089V34.624H130.801V61.376H127.089V48.224H122.481C120.849 51.488 118.193 54.336 114.161 56.704L111.921 53.92ZM160.018 34.016H164.018V50.24H160.018V34.016ZM140.658 42.208C140.658 38.176 143.986 35.328 148.434 35.328C152.882 35.328 156.21 38.176 156.21 42.208C156.21 46.176 152.882 49.056 148.434 49.056C143.986 49.056 140.658 46.176 140.658 42.208ZM144.53 42.208C144.53 44.416 146.194 45.76 148.434 45.76C150.674 45.76 152.338 44.416 152.338 42.208C152.338 39.968 150.674 38.624 148.434 38.624C146.194 38.624 144.53 39.968 144.53 42.208ZM144.978 62.368V51.552H164.018V62.368H144.978ZM148.882 59.232H160.146V54.656H148.882V59.232Z" fill="white"/>
<path d="M403.231 112.373H397.062V229.067H403.231V112.373Z" fill="#7A48DE"/>
<path d="M490.378 169.588L467.955 120.433L445.434 169.588L442.79 168.408L466.486 116.599V105.293H469.423V116.599L493.021 168.408L490.378 169.588Z" fill="white"/>
<path d="M441.811 166.639H494C494 175.585 486.754 182.761 477.844 182.761H457.869C449.056 182.761 441.811 175.585 441.811 166.639Z" fill="white"/>
<path d="M354.567 169.588L332.046 120.433L309.623 169.588L306.979 168.408L330.577 116.599V105.293H333.515V116.599L357.211 168.408L354.567 169.588Z" fill="white"/>
<path d="M306 166.639H358.19C358.19 175.585 350.944 182.761 342.033 182.761H322.156C313.246 182.761 306 175.585 306 166.639Z" fill="white"/>
<path d="M328.228 105.295C328.228 106.966 329.696 108.342 331.459 108.342H468.738C470.5 108.342 471.969 106.966 471.969 105.295C471.969 103.623 470.5 102.247 468.738 102.247H331.459C329.696 102.149 328.228 103.525 328.228 105.295Z" fill="white"/>
<path d="M400.098 119.057C407.54 119.057 413.513 112.864 413.513 105.196C413.513 97.5275 407.54 91.334 400.098 91.334C392.657 91.334 386.684 97.5275 386.684 105.196C386.684 112.864 392.754 119.057 400.098 119.057Z" fill="#EFFE37"/>
<path d="M423.403 237.519C423.403 231.424 420.955 225.525 416.646 221.199C412.338 216.874 406.463 214.416 400.392 214.416C394.321 214.416 388.446 216.874 384.138 221.199C379.83 225.525 377.382 231.424 377.382 237.519H423.403Z" fill="#FF93E4"/>
<path d="M355.84 243.32C355.84 246.072 358.092 248.333 360.834 248.333H439.069C441.811 248.333 444.063 246.072 444.063 243.32V241.845C444.063 239.092 441.811 236.831 439.069 236.831H360.932C358.19 236.831 355.938 239.092 355.938 241.845V243.32H355.84Z" fill="white"/>
</svg>
