<svg width="439" height="166" viewBox="0 0 439 166" fill="none" xmlns="http://www.w3.org/2000/svg">
<path d="M381 49.999C413.033 49.999 439 75.9665 439 107.999C439 140.032 413.033 165.999 381 165.999H8.01018C-0.702135 165.999 -3.1378 154.046 4.87984 150.637L30.266 139.843C24.2506 130.702 20.7504 119.759 20.7504 107.999C20.7504 75.9665 46.7179 49.999 78.7504 49.999H381Z" fill="#B484F1"/>
<path d="M141.35 87.7512H127.803C119.336 87.7512 112.562 81.7975 111.715 73.2921L110.022 50.3276C110.022 36.7191 121.029 25.6621 134.577 25.6621C148.124 25.6621 159.131 36.7191 159.131 50.3276L157.438 73.2921C156.591 80.9469 149.817 87.7512 141.35 87.7512Z" fill="white"/>
<path d="M193 139.634C193 120.922 177.759 106.463 159.978 106.463H110.022C91.3942 106.463 77 121.773 77 139.634V166H193V139.634Z" fill="white"/>
<path d="M104.596 12.0625C104.44 8.92019 104.283 5.77798 104.126 2.63576C104.026 1.25876 105.126 0.0787568 106.426 0.00375683C107.826 -0.0712432 109.026 0.985757 109.126 2.36376C109.283 5.50756 109.439 8.65137 109.596 11.7953C109.739 14.6766 109.882 17.5581 110.026 20.4398C110.026 21.8188 109.026 22.9918 107.626 23.0598C106.226 23.1268 105.026 22.0628 105.026 20.6848C104.883 17.8105 104.739 14.9365 104.596 12.0625Z" fill="white"/>
<path d="M84.8251 43.0644C80.1068 38.2495 75.1157 33.7185 70.121 29.1841C64.2123 23.82 58.2984 18.4513 52.8251 12.6024C51.9251 11.5944 50.3251 11.5404 49.3251 12.4814C48.3251 13.4234 48.2255 15.0074 49.2255 16.0154C54.6986 21.8808 60.6121 27.2659 66.5206 32.6463C71.5156 37.1948 76.507 41.74 81.2255 46.5694C82.2255 47.5534 83.8251 47.5674 84.8251 46.5994C85.7251 45.6324 85.8251 44.0484 84.8251 43.0644Z" fill="white"/>
<path d="M65.4259 68.5278C59.0259 66.7318 52.3253 65.8258 45.8253 64.9958C44.4253 64.8218 43.1255 65.7928 43.0255 67.1608C42.8255 68.5298 43.8261 69.7818 45.1261 69.9557C51.4261 70.7548 57.9255 71.6097 64.0255 73.3387C65.3255 73.7137 66.7261 72.9418 67.1261 71.6138C67.5261 70.2868 66.7259 68.9038 65.4259 68.5278Z" fill="white"/>
<path fill-rule="evenodd" clip-rule="evenodd" d="M274.299 136.148C251.913 135.879 229.436 136.863 207.768 140.997C207.382 141.071 207.221 141.215 207.19 141.248C207.004 141.444 206.984 141.652 207.008 141.824C207.022 141.928 207.117 142.367 207.636 142.413C207.994 142.443 210.539 142.229 211.52 142.174C216.142 141.916 220.754 141.547 225.364 141.121C235.816 140.158 246.254 139.326 256.722 138.568C262.599 138.142 268.479 137.789 274.355 137.5C288.491 137.673 302.592 138.346 316.43 139.042C310.93 139.396 305.876 139.754 301.686 139.987C294.619 140.379 287.566 140.842 280.513 141.451C276.89 141.764 273.271 142.103 269.655 142.503C269.254 142.549 268.342 142.595 267.9 142.65C267.713 142.672 267.577 142.708 267.516 142.732C267.134 142.887 267.086 143.202 267.081 143.362C267.079 143.458 267.111 143.986 267.755 144.089C297.713 148.916 328.968 143.3 359.034 147.993C359.387 148.048 359.717 147.793 359.77 147.423C359.822 147.055 359.579 146.709 359.225 146.654C330.908 142.235 301.536 146.96 273.182 143.491C275.66 143.24 278.139 143.014 280.62 142.8C287.659 142.191 294.7 141.729 301.755 141.338C308.854 140.945 318.451 140.177 328.496 139.693C337.117 140.195 345.733 140.758 354.355 141.236C357.993 141.437 361.631 141.603 365.268 141.808C366.762 141.891 370.608 142.24 371.166 142.11C371.599 142.009 371.704 141.684 371.729 141.521C371.756 141.345 371.74 141.126 371.543 140.916C371.482 140.85 371.299 140.713 370.925 140.6C360.785 137.565 344.183 137.613 328.634 138.346C325.29 138.15 321.945 137.964 318.599 137.796C310.94 137.411 303.197 137.024 295.409 136.719C317.356 136.152 339.315 136.315 361.279 136.725C370.5 136.898 395.358 137.939 405.148 138.858C405.029 138.987 404.958 139.165 404.967 139.36C404.983 139.732 405.286 140.021 405.644 140.004C407.663 139.906 408.831 139.781 409.294 139.653C409.582 139.573 409.739 139.446 409.812 139.363C409.99 139.162 410.023 138.946 409.987 138.742C409.965 138.614 409.91 138.475 409.784 138.346C409.699 138.258 409.493 138.123 409.142 138.032C405.293 137.031 372.282 135.578 361.302 135.372C332.286 134.831 303.281 134.721 274.299 136.148ZM363.076 140.334C357.406 139.529 350.759 139.246 343.825 139.265C347.357 139.479 350.89 139.688 354.424 139.884C357.307 140.045 360.192 140.182 363.076 140.334ZM247.556 137.896C240.117 138.469 232.687 139.088 225.25 139.774C224.391 139.852 223.534 139.929 222.675 140.005C230.899 138.952 239.208 138.283 247.556 137.896Z" fill="#EF3A3E" stroke="#EF3A3E"/>
<path d="M209.186 63.4383C209.229 64.2231 209.271 65.008 209.312 65.7929C209.417 67.7577 209.521 69.7225 209.642 71.6873C209.645 71.7285 209.649 71.7692 209.656 71.8092C207.241 69.6224 205.25 67.0867 203.706 64.1931C203.352 63.5329 202.528 63.2811 201.861 63.635C201.201 63.9889 200.949 64.8125 201.303 65.4795C203.223 69.0584 205.753 72.1404 208.879 74.7387C206.515 75.086 204.15 75.3413 201.778 75.5974C200.531 75.732 199.283 75.8668 198.032 76.0152C197.283 76.1037 196.752 76.7775 196.841 77.5262C196.929 78.2749 197.603 78.8057 198.352 78.7173C199.559 78.5756 200.764 78.4453 201.968 78.3152C204.33 78.0599 206.686 77.8052 209.043 77.4658C208.45 78.8627 207.924 80.2902 207.398 81.7168C206.484 84.1987 205.57 86.6779 204.305 88.9891C203.944 89.6425 204.189 90.4728 204.85 90.8336C205.51 91.1943 206.333 90.9492 206.694 90.2958C207.964 87.9737 208.884 85.4842 209.806 82.9906C210.078 82.2537 210.35 81.5163 210.632 80.7829C210.811 82.7315 210.885 84.6832 210.914 86.6952C210.921 87.4438 211.54 88.0428 212.289 88.0359C213.044 88.0223 213.643 87.4098 213.63 86.6543C213.597 84.3195 213.505 82.0659 213.27 79.8072C214.77 81.6449 216.243 83.5031 217.634 85.4225C218.076 86.0282 218.927 86.1643 219.54 85.7219C220.145 85.2795 220.282 84.4287 219.839 83.823C218.025 81.3225 216.073 78.9238 214.104 76.5395C218.106 76.6942 222.234 76.6579 226.162 76.4859C226.911 76.4519 227.496 75.8121 227.462 75.0634C227.428 74.3148 226.788 73.7294 226.04 73.7634C222.624 73.916 219.056 73.9618 215.555 73.8623C215.563 73.8119 215.568 73.7606 215.57 73.7084C215.575 73.5931 215.565 73.4806 215.543 73.3726C215.598 73.3239 215.649 73.2701 215.696 73.2113C217.738 70.6999 219.766 68.202 221.563 65.5C221.978 64.8738 221.801 64.0299 221.175 63.6147C220.555 63.1995 219.705 63.3697 219.289 63.9958C217.583 66.5685 215.655 68.9453 213.71 71.3436L213.586 71.4962C213.407 71.7161 213.308 71.9746 213.285 72.2364C212.938 72.2118 212.594 72.1813 212.249 72.1419C212.332 71.9511 212.372 71.7386 212.358 71.5171C212.236 69.5424 212.131 67.5676 212.026 65.5903C211.985 64.8214 211.944 64.0515 211.902 63.2817C211.861 62.5351 211.215 61.96 210.466 62.0022C209.717 62.0444 209.139 62.6875 209.186 63.4383Z" fill="#EF3A3E"/>
<path d="M257.366 106.131C259.298 107.139 260.81 108.525 261.902 110.289C262.994 112.053 263.54 114.09 263.54 116.4C263.54 120.012 262.259 123.015 259.697 125.409C257.135 127.803 254.006 129 250.31 129H231.41V84.8998H248.924C252.536 84.8998 255.581 86.0758 258.059 88.4278C260.579 90.7378 261.839 93.6358 261.839 97.1218C261.839 100.944 260.348 103.947 257.366 106.131ZM248.924 91.7038H238.655V103.296H248.924C250.52 103.296 251.864 102.75 252.956 101.658C254.048 100.524 254.594 99.1378 254.594 97.4998C254.594 95.8618 254.048 94.4968 252.956 93.4048C251.864 92.2708 250.52 91.7038 248.924 91.7038ZM250.31 122.196C251.99 122.196 253.397 121.608 254.531 120.432C255.707 119.214 256.295 117.744 256.295 116.022C256.295 114.3 255.707 112.851 254.531 111.675C253.397 110.457 251.99 109.848 250.31 109.848H238.655V122.196H250.31Z" fill="white"/>
<path d="M269.421 129V83.0098H276.225V129H269.421Z" fill="white"/>
<path d="M309.073 97.4998H315.877V129H309.073V124.464C306.511 128.034 302.836 129.819 298.048 129.819C293.722 129.819 290.026 128.223 286.96 125.031C283.894 121.797 282.361 117.87 282.361 113.25C282.361 108.588 283.894 104.661 286.96 101.469C290.026 98.2768 293.722 96.6808 298.048 96.6808C302.836 96.6808 306.511 98.4448 309.073 101.973V97.4998ZM292 120.495C293.89 122.385 296.263 123.33 299.119 123.33C301.975 123.33 304.348 122.385 306.238 120.495C308.128 118.563 309.073 116.148 309.073 113.25C309.073 110.352 308.128 107.958 306.238 106.068C304.348 104.136 301.975 103.17 299.119 103.17C296.263 103.17 293.89 104.136 292 106.068C290.11 107.958 289.165 110.352 289.165 113.25C289.165 116.148 290.11 118.563 292 120.495Z" fill="white"/>
<path d="M340.377 96.6808C343.989 96.6808 346.908 97.8358 349.134 100.146C351.36 102.456 352.473 105.627 352.473 109.659V129H345.669V110.352C345.669 108 345.039 106.194 343.779 104.934C342.519 103.674 340.797 103.044 338.613 103.044C336.219 103.044 334.287 103.8 332.817 105.312C331.347 106.782 330.612 109.05 330.612 112.116V129H323.808V84.8998H330.612V101.532C332.67 98.2978 335.925 96.6808 340.377 96.6808Z" fill="white"/>
<path d="M376.368 96.6808C379.98 96.6808 382.899 97.8358 385.125 100.146C387.351 102.456 388.464 105.627 388.464 109.659V129H381.66V110.352C381.66 108 381.03 106.194 379.77 104.934C378.51 103.674 376.788 103.044 374.604 103.044C372.21 103.044 370.278 103.8 368.808 105.312C367.338 106.782 366.603 109.05 366.603 112.116V129H359.799V84.8998H366.603V101.532C368.661 98.2978 371.916 96.6808 376.368 96.6808Z" fill="white"/>
</svg>
