<svg width="current" height="current" viewBox="0 0 64 64" fill="none" xmlns="http://www.w3.org/2000/svg">
<circle cx="32" cy="32" r="31.5" fill="black" stroke="white"/>
<mask id="path-2-inside-1_8_113" fill="white">
<path d="M10.2786 14.8585C10.1247 14.3281 10.4088 13.7155 10.9131 13.4904L31.2992 4.38689L38 27.4888L16.7008 37L10.2786 14.8585Z"/>
</mask>
<path d="M10.2786 14.8585C10.1247 14.3281 10.4088 13.7155 10.9131 13.4904L31.2992 4.38689L38 27.4888L16.7008 37L10.2786 14.8585Z" fill="white" stroke="black" stroke-width="3" mask="url(#path-2-inside-1_8_113)"/>
<mask id="path-3-outside-2_8_113" maskUnits="userSpaceOnUse" x="24.4679" y="5.55771" width="8.34169" height="9.57713" fill="black">
<rect fill="white" x="24.4679" y="5.55771" width="8.34169" height="9.57713"/>
<path d="M26.2941 7.59644L30.809 5.5803L32.2911 10.6901L28.6893 12.2985C28.1851 12.5237 27.6515 12.2762 27.4977 11.7458L26.2941 7.59644Z"/>
</mask>
<path d="M26.2941 7.59644L30.809 5.5803L32.2911 10.6901L28.6893 12.2985C28.1851 12.5237 27.6515 12.2762 27.4977 11.7458L26.2941 7.59644Z" fill="white"/>
<path d="M26.2941 7.59644L30.809 5.5803L26.2941 7.59644ZM32.709 12.1307L29.1072 13.7391C27.8465 14.3021 26.5127 13.6835 26.128 12.3574L28.728 10.654L31.8733 9.24946L32.709 12.1307ZM29.1072 13.7391C27.8465 14.3021 26.5127 13.6835 26.128 12.3574L24.9245 8.20805L27.6638 6.98482L28.728 10.654L29.1072 13.7391ZM30.809 5.5803L32.2911 10.6901L30.809 5.5803Z" fill="black" mask="url(#path-3-outside-2_8_113)"/>
<circle cx="17.5" cy="16.5" r="1" stroke="black"/>
<mask id="path-6-inside-3_8_113" fill="white">
<path d="M16.0278 19.9945C15.812 19.4861 16.0491 18.899 16.5575 18.6832L19.9075 17.2613C20.4159 17.0455 21.003 17.2826 21.2188 17.791L21.9955 19.6209L16.8045 21.8244L16.0278 19.9945Z"/>
</mask>
<path d="M15.637 19.074L20.828 16.8705L15.637 19.074ZM23.3067 20.1507L16.2747 23.1356L17.3343 20.5131L20.6843 19.0911L23.3067 20.1507ZM16.2747 23.1356L15.498 21.3057C15.0664 20.289 15.5408 19.1148 16.5575 18.6832C16.5575 18.6832 16.7325 19.0954 16.9483 19.6037L17.3343 20.5131L16.2747 23.1356ZM19.9075 17.2613C20.9243 16.8297 22.0984 17.304 22.53 18.3208L23.3067 20.1507L20.6843 19.0911L20.2983 18.1818C20.0825 17.6734 19.9075 17.2613 19.9075 17.2613Z" fill="black" mask="url(#path-6-inside-3_8_113)"/>
<line x1="20.4038" y1="24.25" x2="29.1731" y2="20.5962" stroke="black" stroke-width="1.5" stroke-linecap="round"/>
<line x1="21.4038" y1="27.25" x2="30.1731" y2="23.5962" stroke="black" stroke-width="1.5" stroke-linecap="round"/>
<rect x="29.1779" y="1" width="7.43806" height="7.63586" transform="rotate(27 29.1779 1)" fill="black"/>
<mask id="path-11-inside-4_8_113" fill="white">
<path d="M35.4984 8.93969C35.6873 8.42071 36.2611 8.15313 36.7801 8.34202L53.6946 14.4984L46.8542 33.2922L29 26.7939L35.4984 8.93969Z"/>
</mask>
<path d="M35.4984 8.93969C35.6873 8.42071 36.2611 8.15313 36.7801 8.34202L53.6946 14.4984L46.8542 33.2922L29 26.7939L35.4984 8.93969Z" fill="white" stroke="black" stroke-width="3" mask="url(#path-11-inside-4_8_113)"/>
<mask id="path-12-outside-5_8_113" maskUnits="userSpaceOnUse" x="44.2605" y="13.0913" width="8.97199" height="8.97199" fill="black">
<rect fill="white" x="44.2605" y="13.0913" width="8.97199" height="8.97199"/>
<path d="M48.534 13.7753L52.3325 15.1578L50.7923 19.3894L47.9336 18.3489C47.4146 18.16 47.147 17.5862 47.3359 17.0672L48.534 13.7753Z"/>
</mask>
<path d="M48.534 13.7753L52.3325 15.1578L50.7923 19.3894L47.9336 18.3489C47.4146 18.16 47.147 17.5862 47.3359 17.0672L48.534 13.7753Z" fill="white"/>
<path d="M48.534 13.7753L52.3325 15.1578L48.534 13.7753ZM50.2793 20.7989L47.4205 19.7584C46.1231 19.2862 45.4541 17.8516 45.9263 16.5541L48.9164 17.1104L51.3053 17.9799L50.2793 20.7989ZM47.4205 19.7584C46.1231 19.2862 45.4541 17.8516 45.9263 16.5541L47.1245 13.2623L49.9436 14.2883L48.9164 17.1104L47.4205 19.7584ZM52.3325 15.1578L50.7923 19.3894L52.3325 15.1578Z" fill="black" mask="url(#path-12-outside-5_8_113)"/>
<path d="M37 17L45.9147 20.2447" stroke="black" stroke-width="1.5" stroke-linecap="round"/>
<path d="M36 20L44.9147 23.2447" stroke="black" stroke-width="1.5" stroke-linecap="round"/>
<path d="M35 23L43.9147 26.2447" stroke="black" stroke-width="1.5" stroke-linecap="round"/>
<rect x="48.0062" y="13.0979" width="7.52451" height="7" transform="rotate(-20 48.0062 13.0979)" fill="black"/>
<mask id="path-18-inside-6_8_113" fill="white">
<path d="M13 34.7826H50V53C50 53.5523 49.5523 54 49 54H14C13.4477 54 13 53.5523 13 53V34.7826Z"/>
</mask>
<path d="M13 34.7826H50V53C50 53.5523 49.5523 54 49 54H14C13.4477 54 13 53.5523 13 53V34.7826Z" fill="white"/>
<path d="M13 34.7826H50H13ZM51.5 53C51.5 54.3807 50.3807 55.5 49 55.5H14C12.6193 55.5 11.5 54.3807 11.5 53L14.5 52.5H48.5L51.5 53ZM14 55.5C12.6193 55.5 11.5 54.3807 11.5 53V34.7826H14.5V52.5L14 55.5ZM51.5 34.7826V53C51.5 54.3807 50.3807 55.5 49 55.5L48.5 52.5V34.7826H51.5Z" fill="black" mask="url(#path-18-inside-6_8_113)"/>
<path d="M27 25C27 24.4477 27.4477 24 28 24H36C36.5523 24 37 24.4477 37 25V28H27V25Z" fill="white" stroke="black" stroke-width="1.5"/>
<path d="M13 29C13 28.4477 13.4477 28 14 28H49C49.5523 28 50 28.4477 50 29V34.913C50 35.4653 49.5523 35.913 49 35.913H14C13.4477 35.913 13 35.4653 13 34.913V29Z" fill="white"/>
<path d="M12.25 29C12.25 28.0335 13.0335 27.25 14 27.25H49C49.9665 27.25 50.75 28.0335 50.75 29H49.25C49.25 28.8619 49.1381 28.75 49 28.75H14C13.8619 28.75 13.75 28.8619 13.75 29H12.25ZM50 35.913H13H50ZM14 35.913C13.0335 35.913 12.25 35.1295 12.25 34.163V29C12.25 28.0335 13.0335 27.25 14 27.25V28.75C13.8619 28.75 13.75 28.8619 13.75 29V34.913C13.75 35.4653 13.8619 35.913 14 35.913ZM49 27.25C49.9665 27.25 50.75 28.0335 50.75 29V34.163C50.75 35.1295 49.9665 35.913 49 35.913C49.1381 35.913 49.25 35.4653 49.25 34.913V29C49.25 28.8619 49.1381 28.75 49 28.75V27.25Z" fill="black"/>
<mask id="path-23-inside-7_8_113" fill="white">
<rect x="29" y="40.4348" width="5" height="5.65217" rx="1"/>
</mask>
<rect x="29" y="40.4348" width="5" height="5.65217" rx="1" fill="white" stroke="black" stroke-width="3" mask="url(#path-23-inside-7_8_113)"/>
<path d="M49.7 34.7826L33 43.8261" stroke="black" stroke-width="1.5"/>
<path d="M13.3 34.7826L30 43.8261" stroke="black" stroke-width="1.5"/>
</svg>
