<svg width="current" height="current" viewBox="0 0 130 134" fill="none" xmlns="http://www.w3.org/2000/svg">
<path d="M36.5376 132C38.7166 132 39.8177 129.476 38.2905 127.982L35.4324 125.186L37.4224 72H6.57759L8.56758 125.186L5.70946 127.982C4.18232 129.476 5.28344 132 7.46243 132H36.5376Z" fill="#C6C6C6"/>
<path d="M22.0117 85.0938V133.041" stroke="#777777" stroke-miterlimit="10"/>
<path d="M24.4621 21.0926H19.7302C16.9699 21.0926 14.604 18.9443 14.4068 16.21L13.6182 8.39797C13.6182 3.71073 17.3643 0 22.0962 0C26.8281 0 30.5742 3.71073 30.5742 8.39797L29.7855 16.21C29.5884 18.9443 27.4196 21.0926 24.4621 21.0926Z" fill="#F1F1F1"/>
<path d="M31.4455 27.3809H12.7747C5.6995 27.3809 0 33.0155 0 40.0103V53.9999V72.4584V82.1733C6.09504 82.1733 9.2328 78.1834 9.2328 72.4584H34.5015C34.5015 78.1834 38.1252 82.1733 44.2203 82.1733V72.4584V53.9999V40.0103C44.2203 33.0155 38.5208 27.3809 31.4455 27.3809Z" fill="#E2E2E2"/>
<path d="M22.2547 47.0869L14.5781 27.3809H30.1281L22.2547 47.0869Z" fill="#F4FB7A"/>
<path d="M10 72.5V47.0869" stroke="#C6C6C6" stroke-miterlimit="10"/>
<path d="M34 72.5V47.0869" stroke="#C6C6C6" stroke-miterlimit="10"/>
<path d="M103.954 67.9651C95.8705 67.9651 89.167 61.3249 89.167 53.3175V17.5773C89.167 9.56994 95.8705 2.92969 103.954 2.92969C112.038 2.92969 118.741 9.56994 118.741 17.5773V53.1222C118.741 61.3249 112.038 67.9651 103.954 67.9651Z" fill="#C6C6C6"/>
<path d="M111.645 30.2715H96.0687C90.1538 30.2715 85.4219 35.9352 85.4219 42.9661L87.1963 84.9559H87.985C91.5339 84.9559 94.2942 81.6358 94.2942 77.3392V76.1674H113.222V77.1439C113.222 81.2452 115.982 84.7606 119.531 84.7606H120.32L122.094 42.7708C122.291 35.7399 117.559 30.2715 111.645 30.2715Z" fill="#F1F1F1"/>
<path d="M106.123 24.0223H101.391C98.6311 24.0223 96.2651 21.8739 96.0679 19.1397L95.2793 11.3277C95.2793 6.64042 99.0254 2.92969 103.757 2.92969C108.489 2.92969 112.235 6.64042 112.235 11.3277L111.447 19.1397C111.447 21.8739 109.081 24.0223 106.123 24.0223Z" fill="#F1F1F1"/>
<path d="M125.84 90.2296C124.657 77.9256 120.32 66.0122 113.616 55.8565L115.193 43.7478C115.193 41.0136 113.419 38.8652 111.25 38.8652H109.673C106.913 38.8652 104.547 41.0136 103.955 44.1384C103.167 41.2089 100.998 38.8652 98.2374 38.8652H96.8573C94.6885 38.8652 92.914 41.0136 92.914 43.7478L94.4913 55.8565C87.5906 66.2075 83.4502 77.9256 82.2673 90.2296L78.4836 129.315C78.2923 131.291 79.8629 133.001 81.8696 133.001H126.598C128.617 133.001 130.192 131.271 129.981 129.285L125.84 90.2296Z" fill="#B484F1"/>
<path d="M61.5756 89.7959H57.8295C55.6607 89.7959 53.689 88.0382 53.4919 85.8899L52.9004 79.6403C52.9004 75.9295 55.8578 73 59.6039 73C63.35 73 66.3075 75.9295 66.3075 79.6403L65.716 85.8899C65.5188 88.2335 63.7444 89.7959 61.5756 89.7959Z" fill="#F1F1F1"/>
<path d="M50 111.336L50.9048 131.089C50.9048 132.15 52.0357 133 53.1667 133C55.2024 133 59.5 131.513 59.5 129.389C59.5 131.301 63.7976 133 65.8333 133C66.9643 133 67.869 132.15 68.0952 131.089L69 111.336C69 110.062 68.0952 109 66.7381 109H52.2619C50.9048 109 50 110.062 50 111.336Z" fill="#F1F1F1"/>
<path d="M59.5 130L59.5 115" stroke="#C6C6C6" stroke-miterlimit="10"/>
<path d="M64.9276 93.1162H54.2808C50.3376 93.1162 47.183 96.4363 47.183 100.342L46 115.967C49.1807 115.967 51.8312 114.471 51.8312 110.969H67.3812C67.3812 114.43 70.0653 115.967 73.2085 115.967L72.0255 100.342C72.0255 96.241 68.8709 93.1162 64.9276 93.1162Z" fill="#F4FB7A"/>
<path d="M52 111V103" stroke="#C6C6C6"/>
<path d="M67 111V103" stroke="#C6C6C6"/>
</svg>
