<svg width="current" height="current" viewBox="0 0 120 132" fill="none" xmlns="http://www.w3.org/2000/svg">
<path d="M32.6584 99.6466H27.046C23.5382 99.6466 20.732 97.1849 20.3812 93.6682L19.6797 84.1731C19.6797 78.5463 24.2398 73.9746 29.8522 73.9746C35.4646 73.9746 40.0247 78.5463 40.0247 84.1731L39.3231 93.6682C38.9724 96.8332 36.1662 99.6466 32.6584 99.6466Z" fill="#E2E2E2"/>
<path d="M54.0563 121.098C54.0563 113.361 47.7423 107.383 40.376 107.383H19.6803C11.9632 107.383 6 113.713 6 121.098V132H54.0563V121.098Z" fill="#E2E2E2"/>
<path d="M88.8811 99.6466H83.2686C79.7609 99.6466 76.9547 97.1849 76.6039 93.6682L75.9023 84.1731C75.9023 78.5463 80.4624 73.9746 86.0748 73.9746C91.6873 73.9746 96.2473 78.5463 96.2473 84.1731L95.5458 93.6682C95.195 96.8332 92.3888 99.6466 88.8811 99.6466Z" fill="#E2E2E2"/>
<path d="M110.279 121.098C110.279 113.361 103.965 107.383 96.5987 107.383H75.9029C68.1858 107.383 62.2227 113.713 62.2227 121.098V132H110.279V121.098Z" fill="#E2E2E2"/>
<path d="M8.56595 0C3.85511 0 0.0362143 3.8128 0.0362143 8.51613C0.0362143 18.273 -0.0454718 28.0338 0.0365207 37.7904C0.0365207 42.7629 2.21019 50.879 14.0187 53.2163C15.4578 53.5012 16.213 51.8744 15.2367 50.781C14.1511 49.5651 13.0585 48.1003 12.196 46.2335H63.9876C68.6984 46.2335 72.5173 42.4207 72.5173 37.7174V8.51614C72.5173 3.8128 68.6984 0 63.9876 0H8.56595Z" fill="#ABABAB"/>
<path d="M8.56543 12.7734H49.6148" stroke="#464747"/>
<path d="M8.56543 33H66.6743" stroke="#464747"/>
<path d="M9 23H34.0561" stroke="#464747"/>
<path d="M57.6113 12.7734L66.6742 12.7734" stroke="#464747"/>
<path d="M38.8545 23L67.1092 23" stroke="#464747"/>
<path d="M111.434 17.5645C116.145 17.5645 119.964 21.3772 119.964 26.0806C119.964 35.8375 120.045 45.5983 119.963 55.3548C119.963 60.3274 117.79 68.4434 105.981 70.7808C104.542 71.0656 103.787 69.4389 104.763 68.3455C105.849 67.1296 106.942 65.6647 107.804 63.798H56.0124C51.3016 63.798 47.4827 59.9852 47.4827 55.2819V26.0806C47.4827 21.3773 51.3016 17.5645 56.0124 17.5645H111.434Z" fill="#B484F1"/>
<path d="M56.5459 30.5322H90.1317" stroke="#B484F1"/>
<path d="M56.5459 40.5166H108.791" stroke="#B484F1"/>
</svg>
