<svg width="49" height="56" viewBox="0 0 49 56" fill="none" xmlns="http://www.w3.org/2000/svg">
<path d="M18.2988 24.7474L19.9722 26.5631L22.4519 29.2651C22.4721 29.2867 22.4721 29.2867 22.4922 29.3083C22.9156 29.7406 23.4801 30 24.0849 30H28.6815C29.9113 30 30.9194 28.9625 31 27.6655V15.5609C31 14.9556 30.5363 14.4585 29.9718 14.4585C29.4073 14.4585 28.9436 14.9556 28.9436 15.5609V19.9272V20.0137C28.9436 20.1001 28.863 20.1866 28.7823 20.1866C28.7017 20.1866 28.6211 20.1001 28.6211 20.0137V19.9272V12.967C28.6211 12.3618 28.1574 11.8646 27.5929 11.8646C27.0284 11.8646 26.5647 12.3618 26.5647 12.967V19.9272V20.0137C26.5647 20.1001 26.484 20.1866 26.4034 20.1866C26.3228 20.1866 26.2421 20.1001 26.2421 20.0137V19.9272V12.1024C26.2421 11.4972 25.7784 11 25.2139 11C24.6494 11 24.1857 11.4972 24.1857 12.1024V19.9272V20.0137C24.1857 20.1001 24.1051 20.1866 24.0244 20.1866C23.9438 20.1866 23.8632 20.1001 23.8632 20.0137V19.9272V14.6314C23.8632 14.0262 23.3995 13.529 22.835 13.529C22.4116 13.529 22.0286 13.81 21.8673 14.2207C21.8068 14.3504 21.7866 14.5017 21.7866 14.653V17.3117V18.8464V24.8987C21.7866 24.9852 21.7665 25.1365 21.6858 25.1365C21.6455 25.1365 21.6052 25.1365 21.5649 25.0933C21.5649 25.0933 21.5649 25.0933 21.5447 25.0933L20.073 23.5154L19.8109 23.2344C19.4278 22.8453 18.8029 22.7804 18.3997 23.1479C17.8956 23.5154 17.8755 24.2935 18.2988 24.7474Z" fill="#C6C6C6"/>
<path d="M1.918 43.668H10.318V44.704H3.192V48.414H10.444V49.464H6.734V52.488H11.704V53.552H0.518V52.488H5.46V49.464H1.918V43.668ZM19.3063 46.076H21.6723V42.73H22.9463V51.76H21.6723V47.126H19.3063V46.076ZM12.7543 49.226C14.6303 48.568 15.8343 46.944 15.8343 45.236V44.718H13.1463V43.682H19.7543V44.718H17.1083V45.222C17.1083 46.776 18.2423 48.33 20.0623 48.96L19.4323 49.968C18.0463 49.478 17.0243 48.484 16.4923 47.252C15.9603 48.61 14.8823 49.716 13.4123 50.248L12.7543 49.226ZM14.9943 54.812V50.976H16.2683V53.762H23.2823V54.812H14.9943ZM33.2647 42.73H34.5387V47.742H36.4987V48.806H34.5387V55.078H33.2647V42.73ZM24.9207 45.698V44.662H27.9447V42.884H29.2467V44.662H32.2007V45.698H24.9207ZM25.5787 49.506C25.5787 47.826 26.8667 46.65 28.6027 46.65C30.3667 46.65 31.6407 47.826 31.6407 49.506C31.6407 51.186 30.3667 52.362 28.6027 52.362C26.8667 52.362 25.5787 51.186 25.5787 49.506ZM26.7967 49.506C26.7967 50.584 27.5527 51.312 28.6027 51.312C29.6527 51.312 30.4227 50.584 30.4227 49.506C30.4227 48.442 29.6527 47.7 28.6027 47.7C27.5527 47.7 26.7967 48.442 26.7967 49.506ZM46.103 42.716H47.391V55.064H46.103V42.716ZM37.339 51.802C40.615 50.22 42.197 47.966 42.449 45.068H37.927V44.032H43.737C43.737 47.658 42.211 50.78 38.011 52.81L37.339 51.802Z" fill="#C6C6C6"/>
</svg>
