<svg width="517" height="248" viewBox="0 0 517 248" fill="none" xmlns="http://www.w3.org/2000/svg">
<rect width="517" height="248" rx="24" fill="#464747"/>
<path d="M32.078 88.492H33.734V104.368H32.078V88.492ZM20.81 100.174C25.022 98.14 27.056 95.242 27.38 91.516H21.566V90.184H29.036C29.036 94.846 27.074 98.86 21.674 101.47L20.81 100.174ZM38.2884 89.122H39.9084V90.994H47.2524V89.122H48.8904V95.494H44.3724V97.114H50.7444V98.428H36.3984V97.114H42.7524V95.494H38.2884V89.122ZM38.2344 104.062V99.634H39.8724V102.712H49.1424V104.062H38.2344ZM39.9084 94.198H47.2524V92.29H39.9084V94.198ZM53.9668 97.582H55.5868V99.562H63.0568V97.582H64.6768V104.188H53.9668V97.582ZM52.1308 96.268V94.9H62.6608C63.0748 93.082 63.0928 91.732 63.0928 90.544H53.9668V89.194H64.6948V90.4C64.6948 91.624 64.6948 92.992 64.2988 94.9H66.5128V96.268H52.1308ZM55.5868 102.856H63.0568V100.84H55.5868V102.856ZM79.2393 88.474H80.8773V104.404H79.2393V88.474ZM68.4033 95.26C68.4033 91.84 70.0953 89.698 72.4713 89.698C74.8293 89.698 76.5393 91.84 76.5393 95.26C76.5393 98.662 74.8293 100.84 72.4713 100.84C70.0953 100.84 68.4033 98.662 68.4033 95.26ZM69.9873 95.26C69.9873 97.78 71.0133 99.364 72.4713 99.364C73.9293 99.364 74.9553 97.78 74.9553 95.26C74.9553 92.74 73.9293 91.174 72.4713 91.174C71.0133 91.174 69.9873 92.74 69.9873 95.26ZM89.6701 88.852H91.3081V92.452H100.506V93.784H95.7361V95.638H102.108V96.952H87.7441V95.638H94.0981V93.784H89.6701V88.852ZM89.1661 104.17V102.856H91.6861V99.706H89.3281V98.392H100.542V99.706H98.1661V102.856H100.686V104.17H89.1661ZM93.3061 102.856H96.5461V99.706H93.3061V102.856ZM103.477 96.79H117.823V98.122H103.477V96.79ZM105.025 92.218C105.025 90.22 107.239 89.014 110.641 89.014C114.061 89.014 116.275 90.22 116.275 92.218C116.275 94.216 114.061 95.404 110.641 95.404C107.239 95.404 105.025 94.216 105.025 92.218ZM105.313 104.062V99.436H106.951V102.712H116.221V104.062H105.313ZM106.717 92.218C106.717 93.388 108.247 94.09 110.641 94.09C113.071 94.09 114.583 93.388 114.583 92.218C114.583 91.03 113.071 90.364 110.641 90.364C108.247 90.364 106.717 91.03 106.717 92.218ZM135.309 88.492H136.875V104.368H135.309V88.492ZM123.303 99.814C126.669 97.798 128.271 95.098 128.541 91.822H124.023V90.49H130.179C130.179 92.038 129.963 93.514 129.477 94.9H131.997V88.888H133.545V103.576H131.997V96.214H128.901C127.965 98.05 126.471 99.67 124.257 100.984L123.303 99.814ZM149.592 93.226H151.212V95.008H157.62V96.322H143.238V95.008H149.592V93.226ZM143.958 92.938C146.784 92.74 149.034 91.66 149.304 90.256H144.552V88.978H156.288V90.256H151.518C151.788 91.66 154.056 92.74 156.882 92.938L156.342 94.18C153.57 93.946 151.266 92.92 150.42 91.336C149.574 92.92 147.252 93.946 144.48 94.18L143.958 92.938ZM144.57 99.58V98.302H149.592V96.898H151.23V98.302H156.252V99.58H144.57ZM145.632 102.37C145.632 101.002 147.342 100.282 150.402 100.282C153.462 100.282 155.172 101.002 155.172 102.37C155.172 103.738 153.462 104.458 150.402 104.458C147.342 104.458 145.632 103.738 145.632 102.37ZM147.306 102.37C147.306 103.018 148.404 103.342 150.402 103.342C152.4 103.342 153.498 103.018 153.498 102.37C153.498 101.704 152.4 101.398 150.402 101.398C148.404 101.398 147.306 101.704 147.306 102.37ZM169.591 88.474H171.247V94.756H173.695V96.124H171.247V104.368H169.591V88.474ZM159.583 100.372V90.04H161.221V99.022C163.417 99.004 165.739 98.824 168.223 98.32L168.421 99.67C165.721 100.228 163.273 100.372 160.879 100.372H159.583ZM177.025 101.506L175.927 105.214H174.757L175.351 101.506H177.025ZM188.287 89.41C189.601 89.41 190.735 89.914 191.473 90.742H195.415V88.51H197.053V97.87H195.415V95.71H191.473C190.735 96.538 189.601 97.024 188.287 97.024C185.929 97.024 184.165 95.458 184.165 93.226C184.165 90.994 185.929 89.41 188.287 89.41ZM185.731 93.226C185.731 94.648 186.829 95.62 188.287 95.62C189.745 95.62 190.807 94.648 190.807 93.226C190.807 91.786 189.745 90.832 188.287 90.832C186.829 90.832 185.731 91.786 185.731 93.226ZM186.469 101.29C186.469 99.364 188.503 98.23 191.797 98.23C195.073 98.23 197.107 99.364 197.107 101.29C197.107 103.234 195.073 104.35 191.797 104.35C188.503 104.35 186.469 103.234 186.469 101.29ZM188.089 101.29C188.089 102.424 189.475 103.072 191.797 103.072C194.119 103.072 195.487 102.424 195.487 101.29C195.487 100.174 194.119 99.526 191.797 99.526C189.475 99.526 188.089 100.174 188.089 101.29ZM192.229 94.378H195.415V92.074H192.229C192.337 92.434 192.391 92.812 192.391 93.226C192.391 93.64 192.337 94.018 192.229 94.378ZM199.682 94.288H203.912C204.398 92.596 204.488 91.336 204.524 90.418H200.96V89.086H206.126V89.752C206.126 90.652 206.126 92.236 205.586 94.288H210.14C210.572 92.596 210.662 91.336 210.68 90.418H207.17V89.086H212.264V89.752C212.264 90.652 212.264 92.218 211.778 94.288H214.064V95.62H199.682V94.288ZM201.374 98.41V97.114H212.228V101.164H203.03V102.874H212.714V104.17H201.41V99.94H210.608V98.41H201.374ZM226.79 88.474H228.428V104.404H226.79V88.474ZM215.954 95.26C215.954 91.84 217.646 89.698 220.022 89.698C222.38 89.698 224.09 91.84 224.09 95.26C224.09 98.662 222.38 100.84 220.022 100.84C217.646 100.84 215.954 98.662 215.954 95.26ZM217.538 95.26C217.538 97.78 218.564 99.364 220.022 99.364C221.48 99.364 222.506 97.78 222.506 95.26C222.506 92.74 221.48 91.174 220.022 91.174C218.564 91.174 217.538 92.74 217.538 95.26ZM237.221 88.852H238.859V92.452H248.057V93.784H243.287V95.638H249.659V96.952H235.295V95.638H241.649V93.784H237.221V88.852ZM236.717 104.17V102.856H239.237V99.706H236.879V98.392H248.093V99.706H245.717V102.856H248.237V104.17H236.717ZM240.857 102.856H244.097V99.706H240.857V102.856ZM251.027 96.79H265.373V98.122H251.027V96.79ZM252.575 92.218C252.575 90.22 254.789 89.014 258.191 89.014C261.611 89.014 263.825 90.22 263.825 92.218C263.825 94.216 261.611 95.404 258.191 95.404C254.789 95.404 252.575 94.216 252.575 92.218ZM252.863 104.062V99.436H254.501V102.712H263.771V104.062H252.863ZM254.267 92.218C254.267 93.388 255.797 94.09 258.191 94.09C260.621 94.09 262.133 93.388 262.133 92.218C262.133 91.03 260.621 90.364 258.191 90.364C255.797 90.364 254.267 91.03 254.267 92.218ZM282.86 88.492H284.426V104.368H282.86V88.492ZM270.854 99.814C274.22 97.798 275.822 95.098 276.092 91.822H271.574V90.49H277.73C277.73 92.038 277.514 93.514 277.028 94.9H279.548V88.888H281.096V103.576H279.548V96.214H276.452C275.516 98.05 274.022 99.67 271.808 100.984L270.854 99.814ZM297.143 93.226H298.763V95.008H305.171V96.322H290.789V95.008H297.143V93.226ZM291.509 92.938C294.335 92.74 296.585 91.66 296.855 90.256H292.103V88.978H303.839V90.256H299.069C299.339 91.66 301.607 92.74 304.433 92.938L303.893 94.18C301.121 93.946 298.817 92.92 297.971 91.336C297.125 92.92 294.803 93.946 292.031 94.18L291.509 92.938ZM292.121 99.58V98.302H297.143V96.898H298.781V98.302H303.803V99.58H292.121ZM293.183 102.37C293.183 101.002 294.893 100.282 297.953 100.282C301.013 100.282 302.723 101.002 302.723 102.37C302.723 103.738 301.013 104.458 297.953 104.458C294.893 104.458 293.183 103.738 293.183 102.37ZM294.857 102.37C294.857 103.018 295.955 103.342 297.953 103.342C299.951 103.342 301.049 103.018 301.049 102.37C301.049 101.704 299.951 101.398 297.953 101.398C295.955 101.398 294.857 101.704 294.857 102.37ZM317.141 88.474H318.797V94.756H321.245V96.124H318.797V104.368H317.141V88.474ZM307.133 100.372V90.04H308.771V99.022C310.967 99.004 313.289 98.824 315.773 98.32L315.971 99.67C313.271 100.228 310.823 100.372 308.429 100.372H307.133ZM325.368 99.706C325.368 97.726 326.016 96.682 327.186 95.818C328.05 95.188 328.896 94.612 328.896 93.622C328.896 91.93 327.726 91.156 326.304 91.156C325.224 91.156 324.378 91.84 323.964 93.064L322.416 92.56C322.992 90.778 324.558 89.5 326.304 89.5C328.374 89.5 330.552 90.994 330.552 93.622C330.552 95.494 329.004 96.52 328.158 97.15C327.294 97.762 327.024 98.248 327.024 99.706H325.368ZM325.188 102.298C325.188 101.758 325.548 101.308 326.196 101.308C326.844 101.308 327.186 101.758 327.186 102.298C327.186 102.874 326.844 103.324 326.196 103.324C325.548 103.324 325.188 102.874 325.188 102.298ZM31.304 113.51H32.942V119.954H35.462V121.322H32.942V129.386H31.304V113.51ZM20.576 117.326V115.994H24.464V113.708H26.138V115.994H29.936V117.326H20.576ZM21.422 122.222C21.422 120.062 23.078 118.55 25.31 118.55C27.578 118.55 29.216 120.062 29.216 122.222C29.216 124.382 27.578 125.894 25.31 125.894C23.078 125.894 21.422 124.382 21.422 122.222ZM22.988 122.222C22.988 123.608 23.96 124.544 25.31 124.544C26.66 124.544 27.65 123.608 27.65 122.222C27.65 120.854 26.66 119.9 25.31 119.9C23.96 119.9 22.988 120.854 22.988 122.222ZM47.0184 113.474H48.6744V119.756H51.1224V121.124H48.6744V129.368H47.0184V113.474ZM37.0104 125.372V115.04H38.6484V124.022C40.8444 124.004 43.1664 123.824 45.6504 123.32L45.8484 124.67C43.1484 125.228 40.7004 125.372 38.3064 125.372H37.0104ZM62.7688 113.51H64.4068V119.954H66.9268V121.322H64.4068V129.386H62.7688V113.51ZM52.0408 117.326V115.994H55.9288V113.708H57.6028V115.994H61.4008V117.326H52.0408ZM52.8868 122.222C52.8868 120.062 54.5428 118.55 56.7748 118.55C59.0428 118.55 60.6808 120.062 60.6808 122.222C60.6808 124.382 59.0428 125.894 56.7748 125.894C54.5428 125.894 52.8868 124.382 52.8868 122.222ZM54.4528 122.222C54.4528 123.608 55.4248 124.544 56.7748 124.544C58.1248 124.544 59.1148 123.608 59.1148 122.222C59.1148 120.854 58.1248 119.9 56.7748 119.9C55.4248 119.9 54.4528 120.854 54.4528 122.222ZM78.4833 113.474H80.1393V119.756H82.5873V121.124H80.1393V129.368H78.4833V113.474ZM68.4753 125.372V115.04H70.1133V124.022C72.3093 124.004 74.6313 123.824 77.1153 123.32L77.3133 124.67C74.6133 125.228 72.1653 125.372 69.7713 125.372H68.4753ZM96.1681 117.812H99.2101V113.51H100.848V125.12H99.2101V119.162H96.1681V117.812ZM87.7441 121.862C90.1561 121.016 91.7041 118.928 91.7041 116.732V116.066H88.2481V114.734H96.7441V116.066H93.3421V116.714C93.3421 118.712 94.8001 120.71 97.1401 121.52L96.3301 122.816C94.5481 122.186 93.2341 120.908 92.5501 119.324C91.8661 121.07 90.4801 122.492 88.5901 123.176L87.7441 121.862ZM90.6241 129.044V124.112H92.2621V127.694H101.28V129.044H90.6241ZM103.477 122.87H117.859V124.184H111.433V129.386H109.813V124.184H103.477V122.87ZM105.259 121.052V114.158H106.879V116.228H114.421V114.158H116.041V121.052H105.259ZM106.879 119.72H114.421V117.542H106.879V119.72ZM133.977 113.474H135.633V119.666H138.153V121.034H135.633V129.404H133.977V113.474ZM124.041 125.48V115.04H131.421V116.354H125.661V124.094C128.379 124.094 130.341 123.986 132.591 123.554L132.771 124.94C130.341 125.39 128.235 125.48 125.301 125.48H124.041ZM153.858 113.474H155.514V119.666H158.034V121.034H155.514V129.404H153.858V113.474ZM143.922 125.48V115.04H151.302V116.354H145.542V124.094C148.26 124.094 150.222 123.986 152.472 123.554L152.652 124.94C150.222 125.39 148.116 125.48 145.182 125.48H143.922ZM158.971 122.24H173.353V123.59H158.971V122.24ZM160.789 115.256V113.996H171.517V118.046H162.427V119.648H171.859V120.908H160.825V116.84H169.897V115.256H160.789ZM160.843 129.044V124.742H162.481V127.712H171.895V129.044H160.843ZM189.454 113.474H191.128V119.846H193.576V121.214H191.128V129.368H189.454V113.474ZM178.888 125.156C182.848 123.14 185.008 120.242 185.332 116.516H179.662V115.184H186.988C186.988 119.756 184.972 123.824 179.806 126.416L178.888 125.156ZM205.96 113.492H207.616V129.368H205.96V113.492ZM194.818 125.084C197.23 123.968 198.85 121.286 198.85 118.586V117.524H195.286V116.228H198.85V113.798H200.506V116.228H204.016V117.524H200.488V118.586C200.488 121.16 202.18 123.752 204.592 124.796L203.674 126.074C201.874 125.264 200.434 123.59 199.714 121.556C199.012 123.698 197.572 125.48 195.736 126.344L194.818 125.084ZM211.144 114.716H219.082V115.598C219.082 116.642 219.082 118.208 218.668 120.278L217.066 120.098C217.426 118.334 217.48 117.038 217.48 116.048H211.144V114.716ZM210.19 121.664C211.162 121.664 212.26 121.664 213.43 121.628V118.28H215.05V121.574C216.742 121.502 218.506 121.376 220.09 121.16L220.198 122.348C216.904 122.924 213.142 122.996 210.37 122.996L210.19 121.664ZM212.584 129.044V124.364H214.222V127.694H223.258V129.044H212.584ZM221.098 125.426V113.492H222.754V118.604H224.932V119.954H222.754V125.426H221.098ZM233.213 113.78C236.741 113.78 238.847 114.734 238.847 116.498C238.847 118.28 236.741 119.252 233.213 119.252C229.703 119.252 227.597 118.28 227.597 116.498C227.597 114.734 229.703 113.78 233.213 113.78ZM226.049 121.556V120.242H240.395V121.556H226.049ZM227.759 124.04V122.798H238.577V126.488H229.415V127.946H239.045V129.224H227.813V125.318H236.957V124.04H227.759ZM229.289 116.498C229.289 117.488 230.711 118.01 233.213 118.01C235.733 118.01 237.155 117.488 237.155 116.498C237.155 115.526 235.733 114.986 233.213 114.986C230.711 114.986 229.289 115.526 229.289 116.498ZM249.494 114.77C251.564 114.77 252.896 116.912 252.896 120.35C252.896 123.806 251.564 125.948 249.494 125.948C247.442 125.948 246.11 123.806 246.11 120.35C246.11 116.912 247.442 114.77 249.494 114.77ZM247.622 120.35C247.622 122.906 248.342 124.4 249.494 124.4C250.664 124.4 251.384 122.906 251.384 120.35C251.384 117.812 250.664 116.318 249.494 116.318C248.342 116.318 247.622 117.812 247.622 120.35ZM254.372 128.594V113.834H255.92V117.434H257.882V113.492H259.448V129.368H257.882V123.482H255.92V128.594H254.372ZM255.92 122.114H257.882V118.82H255.92V122.114ZM273.074 113.492H274.73V129.368H273.074V113.492ZM261.806 125.174C266.018 123.14 268.052 120.242 268.376 116.516H262.562V115.184H270.032C270.032 119.846 268.07 123.86 262.67 126.47L261.806 125.174ZM277.359 116.138H280.473V113.942H282.093V116.138H285.171V117.47H277.359V116.138ZM277.863 122.096C277.863 119.972 279.285 118.46 281.283 118.46C283.263 118.46 284.703 119.972 284.703 122.096C284.703 124.274 283.263 125.768 281.283 125.768C279.285 125.768 277.863 124.274 277.863 122.096ZM279.321 122.096C279.321 123.464 280.131 124.382 281.283 124.382C282.417 124.382 283.245 123.464 283.245 122.096C283.245 120.746 282.417 119.828 281.283 119.828C280.131 119.828 279.321 120.746 279.321 122.096ZM285.909 128.612V113.852H287.457V120.134H289.293V113.492H290.859V129.368H289.293V121.484H287.457V128.612H285.909ZM293.127 126.02H296.583V121.826C295.287 121.124 294.495 119.99 294.495 118.568C294.495 116.066 296.943 114.446 300.291 114.446C303.693 114.446 306.105 116.066 306.105 118.568C306.105 119.972 305.349 121.088 304.071 121.808V126.02H307.509V127.37H293.127V126.02ZM296.097 118.568C296.097 120.296 297.843 121.394 300.291 121.394C302.757 121.394 304.503 120.296 304.503 118.568C304.503 116.84 302.757 115.742 300.291 115.742C297.843 115.742 296.097 116.84 296.097 118.568ZM298.203 126.02H302.415V122.438C301.767 122.6 301.047 122.672 300.291 122.672C299.553 122.672 298.851 122.6 298.203 122.438V126.02Z" fill="white"/>
<path d="M40.864 34.016H44.832V62.688H40.864V34.016ZM21.12 54.624C23.296 54.624 25.76 54.624 28.32 54.56V52.064C25.216 51.488 23.2 49.536 23.2 46.848C23.2 43.648 26.112 41.504 30.304 41.504C34.528 41.504 37.44 43.648 37.44 46.848C37.44 49.536 35.424 51.52 32.288 52.096V54.4C34.688 54.272 37.088 54.08 39.36 53.792L39.616 56.64C33.376 57.792 26.688 57.824 21.6 57.824L21.12 54.624ZM21.664 40.288V37.184H28.32V34.112H32.288V37.184H38.944V40.288H21.664ZM26.976 46.848C26.976 48.416 28.352 49.248 30.304 49.248C32.288 49.248 33.664 48.416 33.664 46.848C33.664 45.312 32.288 44.48 30.304 44.48C28.352 44.48 26.976 45.312 26.976 46.848ZM55.4888 36.256H59.4248V40.48C59.4248 45.632 61.5688 50.848 66.1448 53.088L63.7448 56.224C60.7368 54.688 58.6568 51.84 57.4728 48.384C56.2248 52.096 54.0168 55.168 50.7848 56.768L48.3848 53.568C53.1528 51.328 55.4888 45.824 55.4888 40.48V36.256ZM67.3928 62.688V34.016H71.3608V45.088H75.6168V48.384H71.3608V62.688H67.3928ZM82.1455 35.712H85.9855V39.072C85.9855 42.176 87.5855 45.28 91.3295 46.784L89.2495 49.792C86.8175 48.832 85.1535 47.104 84.1295 44.992C83.0735 47.488 81.2815 49.536 78.6255 50.688L76.5455 47.648C80.4815 45.888 82.1455 42.336 82.1455 39.072V35.712ZM81.7615 57.312C81.7615 53.984 85.6015 51.968 91.6175 51.968C97.6015 51.968 101.442 53.984 101.442 57.312C101.442 60.672 97.6015 62.688 91.6175 62.688C85.6015 62.688 81.7615 60.672 81.7615 57.312ZM85.7295 57.312C85.7295 58.88 87.8415 59.712 91.6175 59.712C95.3615 59.712 97.4735 58.88 97.4735 57.312C97.4735 55.776 95.3615 54.976 91.6175 54.976C87.8415 54.976 85.7295 55.776 85.7295 57.312ZM91.4575 50.656V34.56H95.1695V41.056H97.5375V34.016H101.314V51.552H97.5375V44.256H95.1695V50.656H91.4575ZM123.618 33.984H127.586V40.832H131.266V44.096H127.586V50.848H123.618V33.984ZM104.578 47.872C106.658 47.872 109.026 47.872 111.522 47.808V46.464C108.418 46.08 106.498 44.768 106.498 42.784C106.498 40.448 109.218 39.04 113.442 39.04C117.698 39.04 120.418 40.448 120.418 42.784C120.418 44.768 118.53 46.048 115.458 46.432V47.648C117.794 47.52 120.13 47.328 122.338 47.04L122.626 49.44C116.578 50.496 109.954 50.56 104.994 50.56L104.578 47.872ZM105.314 38.464V35.808H111.522V33.728H115.458V35.808H121.602V38.464H105.314ZM108.386 54.56V51.936H127.586V58.336H112.354V59.84H128.61V62.464H108.418V55.904H123.682V54.56H108.386ZM110.274 42.784C110.274 43.68 111.458 44.096 113.442 44.096C115.49 44.096 116.642 43.68 116.642 42.784C116.642 41.92 115.49 41.472 113.442 41.472C111.458 41.472 110.274 41.92 110.274 42.784Z" fill="white"/>
<path d="M463.017 72H383.983C372.893 72 364 80.9694 364 91.9321V227.969C364 239.031 372.992 247.901 383.983 247.901H463.017C474.107 247.901 483 238.931 483 227.969V91.9321C483 80.8698 474.107 72 463.017 72Z" fill="#7A48DE"/>
<path d="M395.374 135.185H381.286C377.989 135.185 375.291 137.875 375.291 141.164V145.151C375.291 148.439 377.989 151.13 381.286 151.13H395.374C398.671 151.13 401.369 148.439 401.369 145.151V141.164C401.369 137.875 398.671 135.185 395.374 135.185Z" fill="#F7FF7D"/>
<path d="M430.544 86.9492H416.456C413.159 86.9492 410.461 89.64 410.461 92.9288V97.0149C410.461 100.304 413.159 102.995 416.456 102.995H430.544C433.841 102.995 436.539 100.304 436.539 97.0149V92.9288C436.539 89.64 433.841 86.9492 430.544 86.9492Z" fill="#F7FF7D"/>
<path d="M465.815 111.065H451.627C448.33 111.065 445.632 113.756 445.632 117.045V121.131C445.632 124.42 448.33 127.111 451.627 127.111H465.715C469.012 127.111 471.71 124.42 471.71 121.131V117.045C471.81 113.756 469.112 111.065 465.815 111.065Z" fill="#F7FF7D"/>
<path d="M465.815 159.202H451.627C448.33 159.202 445.632 161.893 445.632 165.182V169.268C445.632 172.557 448.33 175.247 451.627 175.247H465.715C469.012 175.247 471.71 172.557 471.71 169.268V165.182C471.81 161.893 469.112 159.202 465.815 159.202Z" fill="#F7FF7D"/>
<path d="M465.815 183.319H451.627C448.33 183.319 445.632 186.01 445.632 189.299V193.385C445.632 196.674 448.33 199.365 451.627 199.365H465.715C469.012 199.365 471.71 196.674 471.71 193.385V189.299C471.81 186.01 469.112 183.319 465.815 183.319Z" fill="#F7FF7D"/>
<path d="M411.76 219.115C411.76 216.354 413.998 214.115 416.76 214.115H423.55H430.34C433.101 214.115 435.34 216.354 435.34 219.115V248H423.55H411.76V219.115Z" fill="white"/>
</svg>
