<svg width="current" height="current" viewBox="0 0 123 124" fill="none" xmlns="http://www.w3.org/2000/svg">
<path d="M18.7494 16.401H15.1339C13.0248 16.401 11.2171 14.7306 11.0665 12.6045L10.4639 6.53004C10.4639 2.88537 13.3261 0 16.9416 0C20.5571 0 23.4194 2.88537 23.4194 6.53004L22.8168 12.6045C22.6662 14.7306 21.0091 16.401 18.7494 16.401Z" fill="#E2E2E2"/>
<path d="M24.0951 19.8799H9.78863C4.36723 19.8799 0 24.2242 0 29.6172V62.125H0.903566C4.51783 62.125 7.37912 59.2787 7.37912 55.6834L7.01384 55H26.1393L26.5046 55.6834C26.5046 59.2787 29.3659 62.125 32.9801 62.125H33.8837V29.6172C33.8837 24.2242 29.5165 19.8799 24.0951 19.8799Z" fill="#E2E2E2"/>
<path d="M8 55V34" stroke="#C6C6C6"/>
<path d="M26 55V34" stroke="#C6C6C6"/>
<path d="M120.914 21.7559H72.75V46.8367H120.914V21.7559Z" fill="#F1F1F1"/>
<path d="M123 46.9716V21.7273C123 20.6293 122.108 19.7393 121.007 19.7393H72.6728C71.5721 19.7393 70.6797 20.6293 70.6797 21.7273V46.9716C70.6797 48.0696 71.5721 48.9596 72.6728 48.9596H121.007C122.108 48.9596 123 48.0696 123 46.9716Z" fill="#F1F1F1"/>
<path d="M119.311 41.0804C119.853 40.9845 120.303 40.5485 120.303 39.9996V28.7166C120.303 28.1677 119.853 27.7317 119.311 27.6358C117.024 27.2313 115.177 25.4509 114.766 23.1116C114.671 22.5709 114.234 22.1221 113.683 22.1221H79.8591C79.3087 22.1221 78.8716 22.5708 78.7751 23.1113C78.3683 25.3889 76.5804 27.2282 74.2314 27.6375C73.6892 27.732 73.2393 28.1677 73.2393 28.7166V39.9996C73.2393 40.5485 73.6891 40.9845 74.2311 41.0804C76.5181 41.4849 78.3653 43.2653 78.7768 45.6046C78.8719 46.1453 79.3087 46.5941 79.8591 46.5941H113.683C114.234 46.5941 114.671 46.1453 114.766 45.6046C115.177 43.2653 117.024 41.4849 119.311 41.0804Z" fill="#F4FB7A"/>
<path d="M96.5 42C100.642 42 104 38.6421 104 34.5C104 30.3579 100.642 27 96.5 27C92.3579 27 89 30.3579 89 34.5C89 38.6421 92.3579 42 96.5 42Z" fill="#C6C6C6"/>
<path d="M100 36.2875C100 36.7208 99.92 37.1083 99.7599 37.45C99.5999 37.7833 99.3767 38.0667 99.0903 38.3C98.8039 38.525 98.4627 38.7 98.0668 38.825C97.6709 38.9417 97.2329 39 96.7527 39C96.0788 39 95.4176 38.8875 94.769 38.6625C94.3951 38.528 94.0409 38.3534 93.7062 38.1386C93.2895 37.8712 93.2541 37.299 93.5734 36.9205V36.9205C93.894 36.5407 94.4549 36.4947 94.8825 36.748C95.0497 36.847 95.2182 36.9352 95.3881 37.0125C95.8177 37.2042 96.2852 37.3 96.7906 37.3C97.1949 37.3 97.5066 37.2292 97.7256 37.0875C97.9531 36.9375 98.0668 36.7333 98.0668 36.475V36.45C98.0668 36.325 98.0415 36.2167 97.991 36.125C97.9489 36.025 97.8604 35.9333 97.7256 35.85C97.5993 35.7667 97.4182 35.6833 97.1823 35.6C96.9549 35.5167 96.6558 35.4292 96.2852 35.3375C95.8387 35.2292 95.4344 35.1083 95.0722 34.975C94.71 34.8417 94.4025 34.6792 94.1498 34.4875C93.8971 34.2875 93.6992 34.0417 93.556 33.75C93.4212 33.4583 93.3538 33.0958 93.3538 32.6625V32.6375C93.3538 32.2375 93.4296 31.8792 93.5812 31.5625C93.7329 31.2375 93.9434 30.9583 94.213 30.725C94.491 30.4917 94.8195 30.3125 95.1986 30.1875C95.5776 30.0625 95.9946 30 96.4495 30C97.0981 30 97.6919 30.0958 98.231 30.2875C98.5036 30.3829 98.7646 30.4989 99.0141 30.6356C99.4401 30.8689 99.5177 31.4237 99.24 31.8221V31.8221C98.9536 32.2329 98.3944 32.3287 97.945 32.1078C97.8162 32.0445 97.6883 31.9877 97.5614 31.9375C97.1823 31.7792 96.8032 31.7 96.4242 31.7C96.0451 31.7 95.7587 31.775 95.565 31.925C95.3797 32.0667 95.287 32.2458 95.287 32.4625V32.4875C95.287 32.6292 95.3123 32.7542 95.3628 32.8625C95.4218 32.9625 95.5229 33.0542 95.6661 33.1375C95.8093 33.2208 96.003 33.3 96.2473 33.375C96.5 33.45 96.8159 33.5375 97.1949 33.6375C97.6414 33.7542 98.0373 33.8875 98.3827 34.0375C98.7365 34.1792 99.0313 34.3542 99.2671 34.5625C99.5114 34.7625 99.6925 35 99.8105 35.275C99.9368 35.55 100 35.8792 100 36.2625V36.2875Z" fill="#777777"/>
<path fill-rule="evenodd" clip-rule="evenodd" d="M96.5 40C96.2239 40 96 39.7761 96 39.5L96 29.5C96 29.2239 96.2239 29 96.5 29V29C96.7761 29 97 29.2239 97 29.5L97 39.5C97 39.7761 96.7761 40 96.5 40V40Z" fill="#777777"/>
<path d="M70.4465 64.8574H37.9897C36.3386 64.8574 35 66.1925 35 67.8394V121.007C35 122.653 36.3386 123.989 37.9897 123.989H70.4465C72.0977 123.989 73.4362 122.653 73.4362 121.007V67.8394C73.4362 66.1925 72.0977 64.8574 70.4465 64.8574Z" fill="#C6C6C6"/>
<path d="M58.6357 71.0781H50.8262V74.9728H58.6357V71.0781Z" fill="#F4FB7A"/>
<path d="M69.374 78.8672H61.5645V82.7619H69.374V78.8672Z" fill="#E2E2E2"/>
<path d="M69.374 94.4463H61.5645V98.341H69.374V94.4463Z" fill="#F4FB7A"/>
<path d="M69.374 102.235H61.5645V106.13H69.374V102.235Z" fill="#E2E2E2"/>
<path d="M51.0166 115C51.0166 112.791 52.8075 111 55.0166 111H55.5166H56.0166C58.2257 111 60.0166 112.791 60.0166 115V124H55.5166H51.0166V115Z" fill="#ABABAB"/>
<path d="M77.2305 77.2305C80.6612 74.918 83.5052 71.7804 85.5217 68.0835C87.5382 64.3865 88.6679 60.239 88.815 55.9922" stroke="#E2E2E2"/>
<path d="M16.4111 58.8877C17.2082 62.791 18.8512 66.5048 21.2412 69.8056C23.3252 72.6838 25.9395 75.196 28.9611 77.2299" stroke="#E2E2E2"/>
<path d="M69.5075 21.238C64.7033 18.1739 59.0162 16.4947 53.1709 16.4142C47.3255 16.3337 41.5864 17.8555 36.6846 20.7859" stroke="#E2E2E2"/>
<path d="M35.0181 21.9634C34.5404 22.0216 34.2479 21.4858 34.5552 21.1155L37.1167 18.029C37.3619 17.7336 37.827 17.7677 38.0052 18.0942L39.4252 20.6953C39.6034 21.0218 39.3806 21.4314 38.9995 21.4779L35.0181 21.9634Z" fill="#D9D9D9"/>
<path d="M30.152 77.3421C30.392 77.7591 30.0127 78.2375 29.5519 78.099L25.7107 76.9447C25.343 76.8342 25.193 76.3927 25.4241 76.1012L27.265 73.779C27.496 73.4875 27.9602 73.5328 28.1516 73.8655L30.152 77.3421Z" fill="#D9D9D9"/>
<path d="M89.2049 52.736C89.4647 52.331 90.064 52.4476 90.1531 52.9205L90.8957 56.862C90.9668 57.2393 90.6438 57.5757 90.2786 57.5046L87.3698 56.9387C87.0047 56.8677 86.8313 56.4348 87.0387 56.1117L89.2049 52.736Z" fill="#D9D9D9"/>
</svg>
