<svg width="80" height="80" xmlns="http://www.w3.org/2000/svg">
 <g class="layer">
  <title>Layer 1</title>
  <g id="svg_5">
   <path d="m40.78,24.38c-0.02,0.02 -0.01,0.04 -0.01,0.06c0,0.02 -0.01,0.04 0,0.06c0,0.02 0.02,0.03 0.04,0.05c0.01,0.02 0.02,0.03 0.03,0.05l2.38,1.2l-1.21,1.78c0,0.01 0,0.02 0,0.02c-0.01,0.01 -0.02,0.01 -0.02,0.02l-2.13,8.95l0,0l-1.03,2.88l-0.58,-0.85l-1.2,-3.87c0,0 -0.01,0 -0.01,0c0,0 0.01,-0.01 0,-0.01l-1.56,-3.98c0,-0.01 -0.01,-0.01 -0.01,-0.02c0,0 0,0 0,-0.01l-1.52,-2.58l-1.01,-4.67l0.33,-0.31c0,-0.01 0,-0.02 0.01,-0.02c0.01,-0.02 0.01,-0.03 0.02,-0.06c0,-0.02 0.01,-0.03 0,-0.06c0,-0.01 0,-0.02 0,-0.02l-2.02,-4.22c-0.01,-0.02 -0.03,-0.02 -0.04,-0.03s-0.01,-0.03 -0.03,-0.04l-2.66,-1.52c-0.02,-0.01 -0.04,-0.01 -0.06,-0.02c-0.02,0 -0.03,-0.02 -0.06,-0.02l-1.37,0l-3.55,-1.01l-0.21,-0.56l0.3,-0.35l1.9,-0.52c0,0 0.01,-0.01 0.01,-0.01c0.03,-0.02 0.06,-0.03 0.09,-0.06c0.01,-0.01 0.02,-0.02 0.02,-0.02c0,0 0.01,-0.01 0.01,-0.01l0.7,-1.64l0,0l1.02,-2.11c0.01,-0.02 0,-0.03 0,-0.05c0,-0.02 0.01,-0.03 0.01,-0.05l-0.79,-2.26l0.41,-0.61c0.01,-0.01 0,-0.01 0.01,-0.02c0.01,-0.02 0,-0.04 0,-0.06c0,-0.02 0.01,-0.04 0,-0.07c-0.01,0 0,-0.01 -0.01,-0.01l-0.9,-1.34c-0.01,-0.01 -0.02,-0.01 -0.03,-0.02s-0.01,-0.02 -0.02,-0.03l-1.69,-1.01c-0.01,-0.01 -0.02,0 -0.03,-0.01c-0.01,-0.01 -0.02,-0.02 -0.03,-0.02l-3.16,-0.79c-0.01,0 -0.02,0.01 -0.03,0c-0.01,0 -0.02,-0.01 -0.03,-0.01l-3.35,0c-0.03,0 -0.05,0.02 -0.08,0.02c-0.02,0.01 -0.05,0.01 -0.08,0.02l-1.8,1.36c-0.01,0 -0.01,0.02 -0.02,0.02c0,0.01 -0.02,0.01 -0.02,0.02l-2.29,3.29c-0.01,0.02 0,0.03 0,0.06c-0.01,0.02 -0.02,0.02 -0.02,0.05l0.85,3.54c0,0.01 0.01,0.02 0.02,0.02c0.01,0.01 0,0.02 0.01,0.03l1.92,2.4l0,0.77l-0.12,0.43l-3.76,1.48l-2.57,0.73c0,0 0,0 0,0c-0.03,0.01 -0.04,0.03 -0.06,0.04c-0.02,0.02 -0.04,0.02 -0.06,0.05l0,0l-1.81,3.13c0,0 0.01,0.01 0,0.02c0,0.01 -0.01,0.02 -0.01,0.02l-0.78,4.14c-0.01,0.02 0.01,0.03 0.02,0.06c0,0.02 0,0.04 0.02,0.06c0.01,0.02 0.03,0.02 0.05,0.03c0.02,0.01 0.04,0.03 0.08,0.03l0.28,0.04l0,4.03l-1.28,2.32c-0.01,0.01 0,0.02 0,0.02c-0.01,0.01 -0.02,0.02 -0.02,0.02l-1.98,8.88l-1.22,2.35c-0.01,0.02 0,0.02 0,0.03c-0.01,0.01 -0.02,0.02 -0.02,0.02l0,1.94c0,0 0.01,0 0.01,0.01c0,0.02 0.01,0.03 0.02,0.06s0.02,0.04 0.04,0.05c0.01,0.01 0,0.01 0.01,0.02l0.78,0.46c0.04,0.02 0.09,0.03 0.13,0.03l1.54,0c0.04,0 0.09,-0.02 0.13,-0.04c0.01,-0.01 0.02,-0.02 0.03,-0.02c0.01,-0.02 0.02,-0.02 0.03,-0.03l1.45,-2.46c0.01,-0.02 0,-0.03 0,-0.05c0,-0.02 0.02,-0.03 0.01,-0.05l-0.47,-2.01l1.44,-3.39l3,-5.52c0.01,-0.01 0,-0.01 0,-0.02c0.01,-0.01 0.02,-0.02 0.02,-0.02l0.66,-3.13c0,0 0,0 0,0c0,0 0,0 0,0l0.13,-0.75l0.01,0.07l-0.18,3.41l-1.16,2.32c-0.01,0.02 0,0.02 0,0.03c0,0.02 0,0.04 0,0.07c0.01,0.02 0.02,0.03 0.03,0.05c0.01,0.02 0.01,0.02 0.02,0.03l0.15,0.1l-1.82,2.68c0,0.01 0,0.02 0,0.02c0,0.01 -0.02,0.01 -0.02,0.02l-0.87,3.7c-0.01,0.01 0,0.02 0,0.02s-0.01,0.02 -0.01,0.02l0.91,8.52c0,0 0,0.01 0,0.01c0.01,0.01 0,0.01 0,0.01l1.3,4.71l0.51,4.34l-0.51,5.07l-2.97,5.69c0,0 0,0 0,0c0,0 0,0 0,0.01c-0.01,0.02 0,0.03 0,0.05c0,0.02 -0.01,0.05 0,0.07c0.01,0.02 0.04,0.02 0.06,0.04c0.01,0.01 0.02,0.03 0.05,0.04c0,0 0,0 0,0s0.01,0 0.01,0l4.79,1.33c0.02,0.01 0.04,0.01 0.08,0.01c0.01,0 0.03,0 0.04,0l1.85,-0.34l1.4,3.72l-0.43,1.24l-0.93,1.06l-0.94,0.65l-0.24,0.16c-0.01,0 -0.01,0.01 -0.01,0.01c-0.02,0.02 -0.02,0.03 -0.03,0.06s-0.03,0.03 -0.03,0.06c0,0 0,0 0,0l0,0.6c0,0.01 0,0.01 0,0.02c0,0 0,0.01 0,0.01c0,0.02 0.01,0.02 0.02,0.03c0,0.01 0,0.02 0,0.02l0.48,0.67c0.01,0 0.02,0 0.02,0.01c0.04,0.04 0.1,0.07 0.17,0.07l4.39,0c0.08,0 0.13,-0.03 0.17,-0.07c0,0 0.01,0 0.01,-0.01l0.4,-0.51c0.01,-0.01 0,-0.02 0,-0.02c0.01,-0.01 0.02,-0.02 0.03,-0.03c0,0 -0.01,0 0,0c0,0 0,0 0,0l0.03,-0.24l1.74,-0.32c0.01,0 0.02,-0.02 0.04,-0.02c0.02,-0.01 0.04,-0.02 0.06,-0.03c0.02,-0.02 0.02,-0.04 0.03,-0.06c0,-0.02 0.02,-0.02 0.02,-0.04l0,-0.76c0,-0.01 -0.01,-0.01 -0.01,-0.02s0.01,-0.01 0.01,-0.01c0,-0.01 -0.02,-0.02 -0.02,-0.02s0,-0.02 0,-0.02l-0.63,-1.06c0,0 0,0 0,0l0,0l-0.26,-0.42l-0.44,-2.55l2.13,-4.03l2.25,-0.5l2.77,0.18c0,0 0.01,0 0.01,0c0.05,0 0.11,-0.01 0.14,-0.04l1.81,-1.15c0.01,-0.01 0.01,-0.02 0.01,-0.02c0.02,-0.02 0.03,-0.03 0.04,-0.06c0.01,-0.02 0.01,-0.03 0.01,-0.06c0,-0.01 0.01,-0.01 0.01,-0.02l-1.8,-9.22l1.14,-7.54l1.68,-6.79c0,0 0,0 0,-0.01c0,0 0.01,-0.01 0.01,-0.01l0.33,-4.95c0,0 -0.01,-0.01 -0.01,-0.01c0,-0.01 0.01,-0.01 0.01,-0.01l-0.21,-2.42c0,0 0,0 0,-0.01c-0.01,0 0,0 0,-0.01c-0.01,-0.02 -0.02,-0.02 -0.03,-0.03c-0.01,-0.02 0,-0.03 -0.02,-0.04l-1.13,-1.05l-0.93,-1.42l0.45,-4.65l0.69,-0.47c0.01,-0.01 0.01,-0.02 0.02,-0.03c0,0 0.02,0 0.02,-0.01l0.27,-0.37c0.01,0 0,-0.01 0.01,-0.01c0,-0.01 0.01,-0.01 0.01,-0.02l0.3,-0.6c0,-0.01 0,-0.02 0,-0.03c0,-0.01 0.01,-0.02 0.01,-0.02l0,-1.07l0.15,-0.13l1.11,4.53c0,0.01 0.01,0.01 0.01,0.02c0.01,0.01 0,0.02 0,0.02l1.13,1.89c0,0 0,0 0,0l0,0l4.11,6.6l0,2.45c0,0.02 0.01,0.02 0.02,0.03c0,0.01 -0.01,0.02 0,0.03l0.72,1.45c0,0.01 0.01,0.01 0.02,0.02c0,0.01 0,0.01 0,0.02c0.01,0.01 0.02,0 0.02,0.01c0.04,0.04 0.1,0.07 0.16,0.07c0.02,0 0.05,-0.01 0.08,-0.02c0.01,0 0.01,-0.01 0.01,-0.01c0.01,-0.01 0.03,-0.01 0.03,-0.01l0.51,-0.28c0,0 0,0 0.01,0c0.03,-0.02 0.06,-0.06 0.08,-0.1l0.12,-0.38l0.92,0.43c0.01,0.01 0.02,0.01 0.04,0.01c0,0.01 0.01,0.01 0.02,0.02l2.38,0.43c0.01,0 0.03,0.01 0.04,0.01c0.05,0 0.09,-0.02 0.13,-0.03c0.01,-0.01 0.02,-0.02 0.03,-0.02c0.01,-0.02 0.02,-0.02 0.03,-0.03l0.45,-0.7c0.01,-0.01 0,-0.02 0.01,-0.03c0,-0.02 0.01,-0.02 0.01,-0.02c0.03,0.02 0.08,0.03 0.12,0.03c0.05,0 0.11,-0.02 0.15,-0.04c0,0 0,-0.01 0,-0.01c0.01,0 0.01,0 0.01,0l0.96,-0.81c0.01,-0.01 0.01,-0.02 0.02,-0.03c0.01,-0.02 0.03,-0.02 0.03,-0.05l0.45,-2.12c0.01,-0.01 0,-0.02 0,-0.02s0.01,-0.02 0,-0.02l-0.44,-2.11l0.79,-2.98l3.82,-5.07c0,-0.01 0,-0.02 0,-0.02c0.01,-0.01 0.02,-0.01 0.02,-0.02l0.56,-1.69l0.2,0.1c0.03,0.02 0.08,0.03 0.12,0.03c0.06,0 0.14,-0.03 0.18,-0.07l0.89,-1.03l-0.56,1.56c0,0 0,0.01 0,0.01s0,0.01 -0.01,0.02l-0.5,3.52c0,0 0,0 0,0c0,0.02 0.01,0.03 0.01,0.05c0.01,0.02 0.01,0.06 0.03,0.07c0,0 0,0 0,0l1.03,0.93l-0.44,2.05l-0.44,0.84c0,0 0,0.01 0,0.02c0,0 -0.01,0.01 -0.01,0.01l-1.81,6.97c0,0 0,0.01 0,0.01s0,0 0,0l-2.33,12.06c0,0 0.01,0.01 0.01,0.01c-0.01,0.01 -0.01,0.02 -0.01,0.02c0,0 0,0 0,0.01c0,0.02 0.02,0.02 0.03,0.04c0,0.02 0.01,0.03 0.02,0.05c0,0 0,0.01 0.01,0.01l0.57,0.44c0.02,0.01 0.04,0.01 0.05,0.02c0.02,0.01 0.03,0.02 0.04,0.02l3.27,0.65l-0.7,1.39c0,0.01 0,0.01 0,0.02c0,0.01 -0.01,0.01 -0.01,0.02l-0.36,1.51c0,0.01 0.01,0.02 0.01,0.03s-0.01,0.02 -0.01,0.02l0.51,2.46l0.39,4.87l-0.14,0.61l-0.71,0.63c-0.01,0.01 -0.01,0.02 -0.02,0.03c-0.01,0.01 -0.02,0.02 -0.02,0.02l-1.91,5.21c0,0.02 0.01,0.03 0.01,0.05c0,0.02 -0.01,0.03 0,0.06l1.23,2.46l0,0l0,0c0.02,0.04 0.06,0.07 0.11,0.08c0,0.01 0,0.01 0.01,0.02l2.77,0.97c0.03,0.01 0.06,0.02 0.1,0.02c0.01,0 0.02,-0.01 0.03,-0.01l1.96,-0.28c0.01,0 0.02,-0.01 0.03,-0.02c0.03,-0.01 0.06,-0.02 0.09,-0.04c0.01,-0.01 0.02,-0.02 0.03,-0.03c0,-0.01 0.02,-0.02 0.02,-0.03l0.81,-2.72c0,-0.01 -0.01,-0.02 -0.01,-0.02c0,-0.01 0.01,-0.02 0.01,-0.02l-0.3,-2.45l0.51,-3.04c0,0 0,0 0,-0.01c0,0 0,-0.01 0,-0.01l0,-1.52c0,-0.01 -0.01,-0.02 -0.01,-0.02c0,-0.02 -0.01,-0.03 -0.03,-0.05s-0.02,-0.04 -0.05,-0.05c0,-0.01 -0.01,-0.02 -0.02,-0.02l-0.53,-0.21l-0.19,-0.22l0.26,-2.37l1.91,-2.68c0.01,-0.01 0,-0.02 0.01,-0.02c0,-0.02 0.01,-0.02 0.02,-0.03l0.5,-3.35l0.45,-0.64l0.72,-0.2c0,-0.01 0.01,-0.02 0.01,-0.02c0.02,-0.01 0.03,-0.01 0.05,-0.02c0.01,-0.01 0.01,-0.02 0.02,-0.03l0,0c0.01,-0.02 0.02,-0.02 0.03,-0.03c0,-0.01 0.01,-0.01 0.01,-0.02l0.45,-1.33c0,-0.01 0,-0.01 0,-0.02c0,-0.01 0.01,-0.01 0.01,-0.02l0.05,-0.81l1.71,-4.9l0,0.83l-1.41,5.42c0,0.02 0.01,0.03 0.02,0.05c0,0.02 0,0.05 0.01,0.07s0.04,0.02 0.06,0.04c0.02,0.01 0.02,0.02 0.05,0.03l0.21,0.06l0,1.72c0,0.01 0.01,0.02 0.01,0.02c0,0.01 -0.01,0.02 -0.01,0.02l0.54,1.76l-0.39,1.94l-1.02,2.82c0,0.01 0,0.02 0,0.02c0,0.01 -0.01,0.01 -0.01,0.02l0,1.69l-0.39,5.52l-1.29,2.41c0,0.01 0.01,0.02 0,0.03c0,0.01 -0.01,0.02 -0.01,0.02l0,1.53l-0.31,1.42l-0.85,0.25c-0.02,0 -0.02,0.02 -0.03,0.02c-0.02,0.02 -0.04,0.02 -0.06,0.04c-0.01,0.02 -0.02,0.04 -0.02,0.06c-0.01,0.02 -0.02,0.02 -0.02,0.03l0,1.24c0,0.02 0.02,0.03 0.02,0.05c0.01,0.02 0.01,0.03 0.03,0.05c0.02,0.02 0.04,0.02 0.06,0.03c0.02,0.01 0.03,0.02 0.05,0.03l3.56,0.52c0.01,0 0.02,0.01 0.04,0.01l5.72,0c0.06,0 0.12,-0.02 0.15,-0.06c0.01,0 0.01,0 0.01,0l0.78,-0.7c0.02,-0.02 0.02,-0.03 0.02,-0.05c0.01,-0.02 0.03,-0.03 0.03,-0.06l0,-0.78c0,-0.02 -0.02,-0.02 -0.02,-0.04c-0.01,-0.02 -0.01,-0.03 -0.03,-0.05s-0.03,-0.03 -0.05,-0.04c-0.02,-0.01 -0.03,-0.02 -0.04,-0.02l-2.63,-0.62l-0.47,-0.74c0,-0.01 -0.02,-0.01 -0.02,-0.02c-0.01,-0.01 0,-0.02 -0.01,-0.02l-1.76,-1.45l0,-1.91l5.18,-9.71c0,-0.01 -0.01,-0.02 0,-0.02s0.01,-0.02 0.01,-0.02l0.25,-3.99l0,0l0.11,-1.71l1.99,0c0.01,0 0.01,0 0.02,0l4.86,-0.29c0,0 0,-0.01 0.01,-0.01c0.02,0 0.04,0 0.06,-0.01c0.01,-0.01 0.01,-0.01 0.02,-0.02c0.01,-0.01 0.02,-0.01 0.03,-0.02c0.01,-0.02 0.02,-0.02 0.02,-0.04c0.01,0 0.01,0 0.01,0c0,-0.02 0.02,-0.02 0.02,-0.03c0,0 0,-0.01 0.01,-0.01l0.45,-1.66c0,-0.01 -0.01,-0.01 -0.01,-0.02c0,-0.01 0.01,-0.02 0.01,-0.02l-0.57,-6.92c0,-0.01 -0.01,-0.01 -0.01,-0.01c0,0 0.01,-0.01 0.01,-0.01l-2.21,-11.95c0,-0.02 -0.02,-0.02 -0.03,-0.04c0,-0.02 0,-0.03 -0.01,-0.04l-0.35,-0.3l-0.16,-1.67l0.66,-0.21c0.02,0 0.02,-0.02 0.03,-0.02c0.02,-0.02 0.04,-0.02 0.06,-0.05c0.01,-0.02 0.02,-0.03 0.02,-0.05c0.01,-0.02 0.02,-0.02 0.02,-0.03l0,-1.1c0,-0.01 0,-0.01 0,-0.01s0,-0.01 0,-0.01l-0.39,-2.88l0.36,-1.71l0.44,-0.14l0,1.92c0,0.01 0.01,0.02 0.01,0.03c0,0.01 0,0.02 0,0.03l2.44,4.39l1.49,3.31l0.12,1.03l-0.29,0.68c0,0.01 0,0.02 0,0.02c0,0.01 -0.01,0.02 -0.01,0.02l-0.42,3.22c0,0.01 0,0.01 0,0.02c0,0 0,0.01 0,0.01l0.15,2l0,0c0,0 0,0 0,0l0,0.01c0,0.02 0.02,0.04 0.04,0.07c0.01,0.02 0.01,0.03 0.02,0.04c0.04,0.03 0.09,0.05 0.15,0.05l0.63,0c0.05,0 0.11,-0.02 0.15,-0.04l0.44,-0.32c0.01,0 0.01,0 0.01,-0.01l0,0c0.01,0 0,-0.02 0.01,-0.02c0.02,-0.02 0.05,-0.05 0.05,-0.08l0.17,-1.25l0.45,0.86l-0.47,1.89l-0.35,0.72c-0.01,0.02 0,0.02 0,0.03c0,0.01 -0.02,0.02 -0.02,0.02c0,0.02 0.02,0.02 0.02,0.04c0.01,0.02 0.01,0.03 0.03,0.05c0.01,0.02 0.03,0.03 0.05,0.04c0.02,0.01 0.02,0.02 0.03,0.02c0.03,0.01 0.05,0.02 0.08,0.02l1.03,0c0.04,0 0.1,-0.02 0.13,-0.04l2.39,-1.42c0,0 0,-0.01 0,-0.01c0.02,-0.02 0.03,-0.03 0.04,-0.06c0.01,-0.02 0.03,-0.03 0.03,-0.05c0,-0.01 0,-0.01 0,-0.02l0,-2.62c0,-0.02 -0.01,-0.02 -0.01,-0.02c0,-0.01 0.01,-0.02 0,-0.03l-1.19,-2.78l0,-0.33l0.25,-0.1c0.01,0 0.01,-0.02 0.02,-0.02c0.02,-0.01 0.04,-0.02 0.05,-0.04c0.01,-0.02 0.02,-0.04 0.02,-0.06c0,-0.02 0.02,-0.02 0.01,-0.03l-0.17,-2.01c-0.01,0 -0.01,-0.01 -0.01,-0.02c-0.01,-0.02 -0.02,-0.03 -0.04,-0.05c-0.01,-0.02 -0.02,-0.03 -0.04,-0.05c-0.01,0 -0.01,-0.01 -0.02,-0.02l-0.23,-0.09l-0.39,-4.89c0,0 -0.01,-0.01 -0.01,-0.02s0.01,-0.01 0,-0.02l-1.56,-4.52l0.06,0.01c0.01,0 0.02,0 0.03,0c0,0 0,0 0.01,0c0.01,0 0.02,-0.01 0.03,-0.02c0.03,0 0.08,-0.02 0.11,-0.03c0.01,-0.02 0.01,-0.02 0.02,-0.04c0.01,-0.02 0.03,-0.03 0.04,-0.05c0,-0.01 -0.01,-0.01 -0.01,-0.02c0,-0.01 0.01,-0.02 0.01,-0.02l-0.33,-5.27c0,-0.01 -0.01,-0.01 -0.01,-0.01c0,-0.01 0.01,-0.01 0.01,-0.01l-1.09,-5.18c0,-0.02 -0.01,-0.02 -0.02,-0.03c0,-0.01 0,-0.02 -0.01,-0.03l-1.9,-2.14c-0.01,-0.01 -0.02,-0.01 -0.03,-0.02s-0.02,-0.02 -0.03,-0.02l-6.4,-3.13l1.83,-2.6c0,0 0,-0.01 0,-0.02c0.01,0 0.01,-0.01 0.02,-0.02l0.5,-1.33c0.01,-0.01 0,-0.01 0,-0.02c0,-0.01 0.01,-0.01 0.01,-0.02l0.2,-2.17l0.31,0c0.05,0 0.11,-0.02 0.14,-0.05c0.02,-0.01 0.02,-0.02 0.03,-0.04c0.01,-0.02 0.03,-0.03 0.04,-0.06l0.3,-1.87c0,-0.02 -0.01,-0.03 -0.02,-0.05c0,-0.02 0,-0.03 -0.01,-0.05l-1.35,-1.87c-0.01,-0.02 -0.03,-0.02 -0.05,-0.02c-0.01,-0.02 -0.02,-0.03 -0.04,-0.04l-3.16,-1.22c-0.02,-0.01 -0.04,0 -0.06,0c-0.02,-0.01 -0.03,-0.02 -0.05,-0.02l-3.62,0.33c-0.02,0 -0.03,0.01 -0.05,0.02c-0.01,0.01 -0.03,0 -0.05,0.01l-2.56,1.52c-0.02,0.02 -0.02,0.03 -0.03,0.04c-0.01,0.02 -0.03,0.03 -0.04,0.05l-0.96,2.83c0,0.01 0.01,0.02 0,0.03s-0.01,0.02 -0.01,0.02l0.18,1.06l-0.2,1.32c0,0.01 0.01,0.02 0.01,0.03s-0.01,0.02 -0.01,0.03l0.4,1.06c0,0 0,0 0,0.01c0.01,0.01 0.02,0.02 0.02,0.02c0.02,0.02 0.04,0.05 0.08,0.07c0.01,0 0.01,0.01 0.02,0.01l0.76,0.27l-0.16,1.41l-0.62,1.11l-0.77,0c-0.01,0 -0.02,0.02 -0.04,0.02c-0.01,0 -0.02,0 -0.04,0l-2.71,0.93l-3.77,0.46c-0.02,0.01 -0.04,0.02 -0.06,0.03c-0.02,0.01 -0.04,0.01 -0.06,0.02l-3.94,3.31c-0.01,0.01 -0.01,0.02 -0.01,0.02s-0.02,0.01 -0.02,0.02l-5.09,7.91zm-15.2,-3.2l-1.83,1.61l-6.75,0l-2.78,-1.19l-1.6,-3.33l3.7,-1.45c0,-0.01 0,-0.01 0.01,-0.02c0.03,-0.02 0.05,-0.03 0.06,-0.06c0.01,-0.02 0.02,-0.02 0.02,-0.03c0.01,-0.01 0.01,-0.01 0.01,-0.01l0.15,-0.53l0,0l0.7,-2.23c0,-0.01 -0.01,-0.02 -0.01,-0.02c0,-0.01 0.01,-0.02 0.01,-0.02l0,-0.46c0,-0.01 -0.01,-0.02 -0.01,-0.02c0,-0.02 -0.01,-0.04 -0.03,-0.06c-0.01,-0.02 -0.03,-0.03 -0.05,-0.04c-0.01,-0.01 -0.01,-0.02 -0.02,-0.02l-0.99,-0.35l-0.3,-1.32l0.28,-0.47l0.58,0.21l0,0.24c0,0.01 0.01,0.02 0.01,0.02c0,0.02 0.02,0.04 0.03,0.06c0.01,0.02 0.02,0.03 0.04,0.05c0.01,0 0.01,0.01 0.01,0.02l0.51,0.25c0.01,0.01 0.02,0 0.04,0.01c0,0 0.01,0.01 0.01,0.01c0.02,0.01 0.04,0.01 0.06,0.01c0.06,0 0.12,-0.02 0.16,-0.07c0,0 0.01,0 0.02,-0.01s0,-0.02 0,-0.02c0.01,-0.01 0.02,-0.02 0.02,-0.02l0.66,-1.65l1.73,-0.59c0,-0.01 0,-0.01 0.01,-0.01c0,-0.01 0.01,-0.01 0.02,-0.01l1.7,-0.87l1.63,0.62l1.34,0.64l0,1.83l-0.47,2.02l-1,1.1c-0.01,0 0,0.01 -0.01,0.01c0,0 0,0 0,0l-0.36,0.43l-0.8,0.33l-1.43,0l-1.81,-0.83c-0.11,-0.05 -0.24,-0.02 -0.3,0.06c-0.06,0.07 -0.02,0.18 0.08,0.22l1.86,0.85c0.04,0.02 0.08,0.02 0.12,0.02l1.53,0c0.03,0 0.08,-0.01 0.11,-0.02l0.66,-0.28l0.2,0.52c0,0 0,0.01 0.01,0.01c0,0.02 0.01,0.02 0.02,0.03c0.02,0.02 0.04,0.04 0.08,0.05c0.01,0.01 0.01,0.02 0.02,0.02l3.49,1.01l-1.18,3.76zm-14.93,11.77l-3.01,5.51c0,0 0,0.01 0,0.01c0,0 0,0 0,0.01l-1.45,3.43c-0.01,0.01 0,0.02 0,0.03c0,0.02 -0.01,0.02 -0.01,0.04l0.47,2l-1.36,2.32l-1.33,0l-0.64,-0.38l0,-1.83l1.22,-2.34c0,0 0,-0.01 0,-0.02s0.01,-0.01 0.01,-0.02l1.99,-8.86l1.29,-2.33c0,-0.02 -0.01,-0.02 0,-0.03c0,-0.02 0.01,-0.02 0.01,-0.03l0,-4l3.78,0.43l-0.02,1.19l-0.3,1.76l0,0l-0.65,3.11zm9.38,37.29c0.02,0 0.03,-0.02 0.05,-0.02c0.02,-0.01 0.04,-0.02 0.06,-0.03c0.02,-0.02 0.02,-0.04 0.03,-0.06c0.01,-0.02 0.02,-0.02 0.02,-0.04l0,-0.43l0.62,-0.14l-2.03,3.82c-0.01,0.02 0,0.02 0,0.04s-0.02,0.02 -0.02,0.04l0.43,2.44l-0.45,0l0,-0.11c0,-0.01 -0.01,-0.02 -0.01,-0.02c0,-0.01 0.01,-0.02 0.01,-0.02l-0.51,-1.89l0.2,-3.31l1.59,-0.27zm-2.12,9.07l-4.16,0l-0.27,-0.38l1.45,-0.15l2.32,0.2l0,0l0.84,0.1l-0.17,0.22zm-3.45,-1.78l2.28,-0.46l1.59,0.6l0,0.06l-0.02,0.23l-0.89,-0.56c-0.02,-0.01 -0.04,-0.01 -0.08,-0.02s-0.03,-0.02 -0.06,-0.02l-1.83,0c-0.02,0 -0.02,0.01 -0.03,0.01s-0.03,-0.01 -0.04,0l-1.07,0.28l0.16,-0.11zm2.85,1.15c0,-0.01 0,0 0,0s-0.01,-0.01 -0.01,-0.01l-2.35,-0.2c-0.01,0 -0.02,0.01 -0.03,0.01s-0.01,-0.01 -0.02,-0.01l-1.53,0.16l0,-0.34l0.13,-0.08l1.98,-0.52l1.73,0l1.06,0.67l0,0.26l-0.02,0.16l-0.93,-0.11zm1.38,-0.39l0.05,-0.41l1.39,-0.16l0,0.44l-1.45,0.27l0,-0.14zm0.06,-0.74l0,-0.91l0.83,0l0.46,0.76l-1.29,0.15zm0,-1.24l0,-0.11l0.56,0l0.06,0.11l-0.62,0zm-0.94,-2.47c0,0.01 0.01,0.01 0.01,0.02s-0.01,0.02 0,0.02l0.5,1.9l0,0.25l0,0.43l0,0.84l-1.47,-0.55c-0.02,-0.01 -0.05,0 -0.08,-0.01c-0.02,0 -0.05,-0.01 -0.08,-0.01l-1.86,0.38l0.65,-0.74c0.01,-0.01 0,-0.02 0.01,-0.02c0,-0.01 0.01,-0.02 0.02,-0.02l0.45,-1.31c0,-0.02 -0.01,-0.03 -0.01,-0.05c0,-0.02 0.01,-0.02 0.01,-0.04l-1.41,-3.75l3.45,-0.58l-0.2,3.24zm8.36,-15.32c0,0.01 0,0.02 0,0.02c0,0.01 -0.01,0.01 0,0.02l1.79,9.13l-1.65,1.06l-2.71,-0.18c-0.02,0 -0.03,0.01 -0.04,0.01c-0.01,0 -0.02,-0.01 -0.04,-0.01l-2.38,0.53c0,0 0,0 0,0l0,0l-0.93,0.21l0,-1.46c0,-0.01 -0.01,-0.02 -0.01,-0.02c0,-0.01 0.01,-0.01 0.01,-0.02l-1.06,-4.58c-0.02,-0.08 -0.13,-0.15 -0.25,-0.13c-0.12,0.02 -0.19,0.1 -0.17,0.19l1.05,4.57l0,1.67l0,0.42l-1.58,0.27c0,0 0,0 0,0l-3.96,0.67c0,0 0,0 0,0c0,0 0,0 0,0l-1.99,0.36l-4.52,-1.26l2.9,-5.56c0,-0.01 0,-0.02 0,-0.02c0,-0.01 0.01,-0.01 0.01,-0.02l0.51,-5.11c0,-0.01 0,-0.01 0,-0.02s0,-0.01 0,-0.01l-0.51,-4.35c0,0 0,0 0,-0.01c0,0 0,-0.01 0,-0.01l-1.3,-4.71l-0.9,-8.49l0.87,-3.67l1.76,-2.57l2.57,1.72c0.01,0.02 0.04,0.02 0.06,0.02c0.01,0 0.02,0.02 0.04,0.02l7.17,0.83c0.01,0 0.02,0.01 0.03,0.01c0.01,0 0.02,-0.01 0.03,-0.01l8.16,-1.05l0.19,2.22l-0.33,4.94l-1.68,6.77c0,0.01 0,0.01 0,0.01c0,0 0,0 0,0.01l-1.15,7.57zm3.54,-32.02l2.86,-2.68l0.95,4.4c0,0.01 0.01,0.02 0.01,0.02c0.01,0 0,0.01 0,0.02l1.53,2.59l1.56,3.97l1.2,3.88c0.01,0.01 0.02,0.02 0.02,0.02c0,0.01 0,0.02 0,0.02l0.85,1.24c0,0 0,0 0,0c0.01,0.01 0.01,0.01 0.01,0.01c0.01,0.01 0.02,0.02 0.03,0.02c0,0 0,0.01 0.01,0.02l2.25,1.39l-0.25,1.1c0,0.01 0.01,0.02 0.01,0.02c0,0.02 0,0.04 0.01,0.06s0.02,0.04 0.04,0.06c0,0 0,0.01 0.01,0.02l0.31,0.2l0,0.28l-0.34,0.54l-2.19,-0.4l-1.15,-0.54c-0.01,-0.01 -0.02,0 -0.03,-0.01c-0.01,0 -0.02,-0.01 -0.03,-0.02c-0.02,0 -0.03,0.01 -0.05,0.01c-0.02,0 -0.04,0 -0.08,0.01s-0.04,0.02 -0.06,0.04c-0.01,0.01 -0.03,0.01 -0.04,0.02c0,0.01 0,0.02 0,0.03c-0.01,0.01 -0.02,0.01 -0.02,0.02l-0.16,0.54l-0.23,0.12l-0.61,-1.23l0,-2.46c0,-0.02 -0.01,-0.02 -0.01,-0.03c-0.01,-0.02 0,-0.02 -0.01,-0.04l-4.13,-6.63l0,0l-1.1,-1.87l-1.19,-4.78zm17.4,3.34l-3.82,5.07c-0.01,0.01 0,0.02 -0.01,0.02c0,0.01 -0.01,0.01 -0.02,0.02l-0.81,3.04c0,0.01 0.01,0.02 0.01,0.02c0,0.02 -0.01,0.02 -0.01,0.03l0.45,2.11l-0.44,2.05l-0.76,0.64l-0.17,-0.15c0,0 0,0 0,0c-0.01,0 -0.01,0 -0.02,-0.01c0,0 0,0 0,0l-0.3,-0.2l0.26,-1.1c0,-0.01 -0.01,-0.02 -0.01,-0.02c0,-0.02 -0.01,-0.04 -0.02,-0.06c-0.01,-0.02 -0.01,-0.03 -0.03,-0.05c-0.01,-0.01 -0.01,-0.02 -0.02,-0.02l-2.24,-1.38l1.14,-3.18c0,-0.01 0,-0.01 0,-0.01c0,-0.01 0.01,-0.01 0.01,-0.01l2.13,-8.93l1.17,-1.73l4.11,2.07l-0.58,1.77zm3.01,4.22c0.01,0.01 0.03,0.01 0.04,0.02c0.02,0.01 0.03,0.02 0.05,0.03l4.04,1.12l-0.1,0.1c-0.01,0.01 -0.01,0.02 -0.01,0.03c-0.01,0.01 -0.03,0.02 -0.03,0.02l-0.57,1.73l-4.08,-1.66l0.35,-1.67l0.3,0.28zm-1.56,22.29l-3.22,-0.64l-0.21,-0.15l3.72,-0.24l-0.29,1.02zm-0.94,13.04c0,0 0,0 0,0c0,0 -0.01,0 -0.01,0c0,0.02 0.01,0.04 0.02,0.06c0,0.02 0,0.05 0.01,0.07c0.02,0.02 0.04,0.02 0.08,0.03c0.02,0.02 0.03,0.03 0.06,0.03c0,0 0,0 0,0.01c0,0 0,0 0,0l1.81,0.27c0.02,0 0.03,0.01 0.04,0.01c0.01,0 0.02,0 0.03,0l2.2,-0.25c0.02,-0.01 0.02,-0.02 0.04,-0.02c0.03,-0.02 0.05,-0.02 0.08,-0.04c0.02,-0.02 0.03,-0.02 0.03,-0.04c0.01,-0.02 0.03,-0.02 0.03,-0.03l0.42,-1.6l0,0.57l-0.51,3.04c0,0.01 0.01,0.02 0.01,0.02c0,0.01 -0.01,0.02 -0.01,0.02l0.3,2.43l-0.77,2.59l-0.74,0.11l0.5,-0.21c0,0 0.01,0 0.01,0c0.04,-0.02 0.08,-0.05 0.1,-0.09l0,-0.01l0,0l0.57,-1.3c0,-0.02 0,-0.02 0,-0.03c0,-0.02 0,-0.04 -0.01,-0.06c0,-0.02 -0.01,-0.04 -0.02,-0.06c-0.01,-0.01 -0.01,-0.02 -0.02,-0.02l-0.84,-0.64c-0.02,-0.02 -0.05,-0.02 -0.08,-0.02c-0.02,-0.01 -0.04,-0.02 -0.06,-0.02l-4.01,-0.2c-0.01,0 -0.01,0 -0.02,0c-0.01,0 -0.02,0.01 -0.03,0.01c-0.02,0 -0.04,0.01 -0.06,0.02c-0.02,0.01 -0.04,0.02 -0.06,0.04c-0.01,0.01 -0.02,0.01 -0.02,0.02l-0.25,0.34c-0.01,0.01 0,0.02 0,0.03c-0.01,0.02 -0.01,0.03 -0.01,0.06c0,0.02 0,0.04 0.02,0.06c0,0.01 0,0.02 0,0.02l1.43,1.5c0.01,0.01 0.02,0.01 0.03,0.02c0.02,0.01 0.02,0.03 0.04,0.04l1.8,0.66l-0.02,0.01l-2.63,-0.92l-1.18,-2.35l1.86,-5.12l0.16,-0.14l-0.32,1.11zm0.56,6.47l-1.31,-1.38l0.11,-0.16l3.79,0.2l0.7,0.53l-0.5,1.15l-0.89,0.37l-1.9,-0.7zm5.65,-14.67l-1.91,2.68c-0.01,0.01 0,0.02 -0.01,0.03c0,0.01 -0.01,0.02 -0.02,0.03l-0.27,2.46c0,0.02 0.02,0.03 0.02,0.06c0.01,0.02 0,0.03 0.02,0.05l0.27,0.29c0,0.01 0.01,0.01 0.01,0.01c0,0 0,0.01 0,0.01l0.3,0.26l-0.59,2.23l-2.02,0.23l-1.55,-0.24l0.46,-1.59c0,0 0,0 0,0c0,0 0.01,0 0.01,-0.01l0.15,-0.66c0,-0.01 -0.01,-0.02 -0.01,-0.02c0,-0.01 0.01,-0.02 0.01,-0.02l-0.4,-4.9c0,0 0,0 0,-0.01c0,0 0,0 0,-0.01l-0.5,-2.43l0.35,-1.48l0.77,-1.55c0,0 0,-0.01 0,-0.01c0,-0.01 0.01,-0.01 0.01,-0.01c0,0 0,0 0,-0.01c0,0 0,0 0,0l0.35,-1.28l1.95,-0.12l3.9,0.7l-0.29,1.19l-0.49,0.7c-0.01,0.01 0,0.02 -0.01,0.03c0,0.01 -0.02,0.02 -0.02,0.02l-0.5,3.36zm1.8,-4.4l-0.29,0.09l0.23,-0.93l0.06,0.01l0,0.83zm3.88,0.16c0.02,0.01 0.05,0.01 0.08,0.01l4.48,0l-0.11,0.5c-0.01,0.01 0,0.01 0,0.01c0,0.01 -0.01,0.01 -0.01,0.01l-0.12,1.87c0,0 0,0 0,0l0,0l-0.24,3.95l-5.18,9.72c0,0.01 0.01,0.02 0,0.03s-0.01,0.02 -0.01,0.02l0,1.83l-1.92,-0.1c-0.02,0 -0.03,0.01 -0.05,0.02c-0.03,0 -0.06,0 -0.09,0.02l-1.25,0.76l0,-1.17l1.28,-2.41c0.01,-0.01 0,-0.02 0,-0.02c0.01,-0.01 0.02,-0.02 0.02,-0.02l0.39,-5.55c0,0 0,-0.01 0,-0.01s0,0 0,0l0,-1.69l1.02,-2.81c0,0 0,-0.01 0,-0.01s0.01,-0.01 0.01,-0.01l0.39,-1.98c0.01,-0.02 0,-0.02 -0.01,-0.03c0,-0.01 0.01,-0.02 0.01,-0.03l-0.54,-1.78l0,-1.6l1.85,0.48zm11.31,0.01l0.06,0.08l-4.52,0.28l-1.94,0l0.08,-0.36l6.32,0zm-10.57,19.7l0.29,0.46l-0.43,-0.09l-0.74,-0.87c0,-0.01 -0.01,-0.01 -0.02,-0.02c-0.01,-0.02 -0.03,-0.02 -0.06,-0.03c-0.02,-0.01 -0.04,-0.02 -0.08,-0.02c0,0 -0.01,0 -0.02,0l-1.8,0c-0.03,0 -0.04,0.01 -0.06,0.02c-0.02,0.01 -0.05,0 -0.06,0.01l-1.66,0.95c-0.01,0.01 -0.01,0.02 -0.02,0.02c-0.01,0.01 -0.03,0.01 -0.03,0.02c-0.01,0.02 -0.01,0.02 -0.01,0.03c-0.01,0.02 -0.01,0.04 -0.01,0.07s0.01,0.03 0.02,0.06c0,0.01 0,0.02 0.01,0.03c0,0 0.02,0 0.03,0.01c0.01,0.01 0.01,0.02 0.02,0.03l0.7,0.32c0.03,0.02 0.08,0.02 0.11,0.02c0.04,0 0.09,-0.01 0.13,-0.02l1.1,-0.59l2.28,0.27l0.94,0.2l2.56,0.61l0,0.6l-0.66,0.59l-5.61,0l-3.37,-0.5l0,-1l0.75,-0.21l1.17,0.35l1.05,0.88c0,0 0.01,0 0.01,0l0,0c0,0 0,0 0,0c0.04,0.03 0.1,0.05 0.15,0.05l4.64,0c0.04,0 0.09,-0.01 0.13,-0.02l0.84,-0.43c0,0 0,0 0,0l0,-0.01c0,0 0,0 0.01,0c0.03,-0.02 0.05,-0.04 0.08,-0.07c0,0 -0.01,-0.01 0,-0.02c0,-0.02 0,-0.03 0,-0.06c-0.01,-0.02 -0.01,-0.04 -0.02,-0.06c0,-0.01 0,-0.02 -0.01,-0.02c-0.01,-0.02 -0.03,-0.02 -0.04,-0.02c-0.02,-0.02 -0.02,-0.03 -0.05,-0.04l-1.71,-0.53c-0.01,0 -0.02,0.01 -0.04,0.01c-0.01,-0.01 -0.02,-0.02 -0.03,-0.02l-2.41,0c-0.03,0 -0.05,0.02 -0.08,0.02s-0.05,0 -0.08,0.02l-1.2,0.86l-0.93,-0.78c-0.01,-0.01 -0.03,-0.01 -0.04,-0.02c-0.02,-0.01 -0.02,-0.02 -0.03,-0.02l-1.14,-0.34l0.29,-1.33l1.46,-0.89l1.98,0.11l1.73,1.42zm-2.62,0.07c0,0 0,0 0,0l-0.01,0c-0.04,-0.01 -0.09,0.01 -0.12,0.02c-0.01,0.01 -0.02,0 -0.03,0.01l0,0c-0.01,0 -0.01,0.01 -0.01,0.01l-1.05,0.55l-0.31,-0.14l1.35,-0.76l1.62,0l0.46,0.54l-1.9,-0.22zm0.74,1.19l2.28,0l1.31,0.4l-0.45,0.24l-4.04,0l0.9,-0.64zm-2.03,-42.16c0.01,0.01 0.02,0.01 0.03,0.01c0,0 0,0 0.01,0l4.39,0.46c0.01,0 0.02,0.01 0.03,0.01c0.02,0 0.03,-0.01 0.04,-0.01l2.06,-0.34l0.29,0.36l0.27,1.54l-0.94,0.29l-2.15,0l-2.88,-0.16l-2.52,-0.31l0.44,-2.09l0.93,0.25zm9.5,-0.36c0,0 0,0 0,0c0.01,-0.01 0.02,-0.01 0.03,-0.01l2.26,-0.7l0.15,1.51l-1.74,0.83l-1.88,0.48l-0.24,-1.32c0,-0.02 -0.02,-0.02 -0.02,-0.03c-0.01,-0.01 0,-0.02 -0.01,-0.03l-0.35,-0.45l1.79,-0.29zm6.78,-0.79c-0.01,0 0,0 0,-0.01l-2.43,-4.36l0,-2.03l1.03,-0.36l1.75,-0.2l1.64,0.16l1.61,4.65l0.39,4.88l-0.33,0.28l-2.2,0.2l-1.45,-3.21c0,0 0,-0.01 0,-0.01zm4.38,4.88l-0.8,-0.52c-0.02,-0.02 -0.04,-0.02 -0.06,-0.02c-0.02,-0.01 -0.04,-0.02 -0.08,-0.02l-1.82,0l-0.09,-0.77l2.24,-0.21c0.03,-0.01 0.05,-0.02 0.08,-0.03c0.02,-0.01 0.04,-0.01 0.05,-0.02l0.34,-0.28l0.09,0.03l0.16,1.8l-0.11,0.04zm-1.18,4.85c0,-0.02 -0.01,-0.02 -0.01,-0.04c-0.01,-0.02 0.01,-0.03 0,-0.05l-0.6,-1.15c-0.01,-0.02 -0.03,-0.02 -0.03,-0.02c-0.02,-0.02 -0.03,-0.03 -0.06,-0.05c-0.02,-0.01 -0.04,-0.02 -0.06,-0.02c-0.02,0 -0.02,-0.01 -0.04,-0.01l-0.24,0c-0.03,0 -0.05,0.02 -0.08,0.02c-0.02,0.01 -0.05,0.01 -0.06,0.02c-0.02,0.02 -0.03,0.04 -0.04,0.07c-0.01,0.02 -0.03,0.02 -0.03,0.04l-0.2,1.48l-0.33,0.24l-0.34,0l-0.14,-1.83l0.42,-3.2l0.25,-0.58l1.78,0l0.77,0.51l0,0.38c0,0.02 0.01,0.02 0.01,0.03c0,0.01 -0.01,0.02 0,0.02l1.19,2.78l0,2.51l-2.24,1.35l-0.64,0l0.26,-0.52c0,-0.01 0,-0.02 0,-0.02c0,-0.01 0.01,-0.01 0.01,-0.02l0.48,-1.96zm-1.21,-21.89l0.32,5.07l-0.14,-0.02c0,0 0,0 0,0s0,0 0,0l-1.81,-0.18c-0.01,-0.01 -0.01,0 -0.02,0c-0.02,0 -0.02,-0.01 -0.03,0l-1.81,0.2c-0.01,0 -0.02,0.01 -0.03,0.01c-0.01,0.01 -0.02,0 -0.02,0l-1.18,0.42l0,0l-0.48,0.16l1.05,-4.74c0,-0.01 0,-0.02 0,-0.02c0,-0.01 0.01,-0.01 0.01,-0.02l0,-2.76c0,-0.09 -0.1,-0.16 -0.21,-0.16s-0.21,0.07 -0.21,0.16l0,2.75l-1.11,5.03l0,0l0,0l-0.4,1.82c0,0.01 0.01,0.02 0.01,0.02s-0.01,0.01 -0.01,0.02l0.4,2.9l0,0.98l-0.69,0.21l0,0l-2.52,0.78l-2.06,0.34l0,0c0,0 0,0 0,0l-0.7,0.11l-2.17,0.36l-4.34,-0.45l-1.15,-0.32c-0.01,0 -0.01,0 -0.01,0c0,0 0,-0.01 -0.01,-0.01l-0.62,-0.13l-4.26,-1.18l-0.56,-0.52l0,0l-1.03,-0.93l0.5,-3.44l0.9,-2.52c0,0 -0.01,-0.01 -0.01,-0.01c0.01,-0.01 0.01,-0.01 0.01,-0.01l0.7,-3.53c0.01,-0.09 -0.06,-0.17 -0.18,-0.19c-0.12,-0.02 -0.23,0.05 -0.25,0.14l-0.69,3.49l-1.48,1.7l-0.28,-0.14c0,0 0,0 0,0l0,0l-4.43,-2.23l0,0l-2.38,-1.21l4.99,-7.77l3.88,-3.26l3.73,-0.45c0,0 0,-0.01 0.01,-0.01c0.01,0 0.02,0 0.04,-0.01l2.7,-0.92l0.54,0l-0.27,0.48c-0.01,0.01 0,0.02 0,0.02c-0.01,0.02 0,0.04 0,0.07c0,0.02 0,0.04 0.02,0.06c0,0.01 0,0.02 0,0.02l1.09,1.15c0,0.01 0.02,0.01 0.03,0.02c0.01,0.01 0.02,0.02 0.04,0.03l2.89,1.08c0.03,0.02 0.06,0.02 0.1,0.02c0,0 0.01,0 0.02,0l3.23,-0.23c0.06,0 0.11,-0.03 0.15,-0.07c0,0 0,0 0.01,-0.01l0.99,-1.15c0.02,-0.02 0.01,-0.03 0.01,-0.05s0.03,-0.02 0.03,-0.04l0,-1.18l6.2,3.02l1.85,2.09l1.07,5.13zm-7.61,-13.33l-1.92,2.73c0,0 0,0.01 0,0.01s-0.01,0 -0.01,0.01l-0.57,1.08l-1.55,0.44l-1.37,-0.43l-1.9,-1.94c-0.06,-0.07 -0.2,-0.09 -0.3,-0.03c-0.09,0.05 -0.11,0.16 -0.04,0.23l1.93,1.98c0.01,0.01 0.03,0.01 0.04,0.02c0.02,0.01 0.03,0.03 0.05,0.03l1.51,0.47c0.02,0.01 0.05,0.01 0.08,0.01c0.02,0 0.05,0 0.08,-0.01l1.71,-0.48c0.01,-0.01 0.01,-0.01 0.02,-0.02c0.03,-0.01 0.06,-0.03 0.09,-0.06c0,-0.01 0.01,-0.01 0.02,-0.02c0,0 0,-0.01 0,-0.01l0.19,-0.36l0,0.57l-0.91,1.05l-3.07,0.22l-2.79,-1.05l-0.99,-1.04l0.34,-0.63c0,0 0,0 0,0l0.7,-1.24c0,-0.01 0,-0.02 0,-0.02c0,-0.01 0.02,-0.02 0.02,-0.02l0.18,-1.54c0,-0.02 -0.02,-0.02 -0.02,-0.04c0,-0.02 -0.01,-0.03 -0.02,-0.06s-0.03,-0.02 -0.05,-0.04c-0.01,-0.01 -0.02,-0.02 -0.03,-0.02l-0.81,-0.29l-0.35,-0.96l0.2,-1.29c0,0 0,0 0,0l0.05,-0.27l0.41,-0.19l0.74,0.7l0,0.56c0,0.02 0.02,0.02 0.02,0.04s0,0.02 0.01,0.04l0.45,0.66c0.01,0.02 0.03,0.03 0.05,0.05c0.01,0 0.01,0.01 0.01,0.02c0.01,0 0.01,0 0.01,0c0.03,0.02 0.08,0.02 0.12,0.02c0.03,0 0.06,-0.01 0.1,-0.02c0.02,-0.01 0.02,-0.02 0.04,-0.04c0.01,-0.01 0.02,-0.01 0.03,-0.02l1.15,-1.28c0,-0.01 0,-0.02 0,-0.02c0.01,-0.01 0.02,-0.01 0.02,-0.02l1.07,-2.67l1.44,0l2.26,1.19c0.01,0 0.02,0 0.03,0.01c0.01,0 0.01,0.01 0.01,0.01l1.84,0.55c0.02,0.01 0.05,0.02 0.08,0.02l0.29,0l-0.2,2.13l-0.49,1.3z" fill="#000000" id="svg_1"/>
   <path d="m47.05,71.09c-0.03,0.01 -0.05,0.02 -0.08,0.02s-0.02,0.03 -0.03,0.05c-0.01,0.02 -0.03,0.02 -0.03,0.04l-0.28,1.22c0,0.02 0.02,0.04 0.02,0.06c0.01,0.02 0,0.04 0.02,0.06c0.01,0.02 0.04,0.02 0.06,0.04c0.02,0.01 0.04,0.02 0.06,0.03l0.01,0l0,0l0,0l1.08,0.16c0,0.01 0,0.01 0.01,0.01l0,0l3.16,0.34c0.01,0 0.02,0 0.03,0c0.02,0 0.03,0 0.05,-0.01l0.78,-0.16l0,0c0,0 0,0 0,0c0.03,-0.01 0.04,-0.03 0.08,-0.05c0.02,-0.01 0.04,-0.02 0.05,-0.03c0.01,-0.02 0.01,-0.03 0.01,-0.05c0.01,-0.02 0.02,-0.05 0.01,-0.07c0,0 0,0 0,0c0,0 0,0 0,0l-0.45,-1.19c0,-0.01 -0.01,-0.01 -0.01,-0.02c-0.01,-0.02 -0.03,-0.02 -0.05,-0.04c-0.02,-0.02 -0.03,-0.03 -0.05,-0.05c-0.01,0 -0.01,-0.01 -0.01,-0.01l-1.88,-0.52c-0.01,-0.01 -0.03,0 -0.04,0c-0.02,0 -0.03,-0.02 -0.04,-0.02l-2.44,0.16c-0.02,0 -0.03,0.02 -0.05,0.02zm2.48,0.15l1.73,0.48l0.36,0.96l-0.54,0.11l-3.11,-0.34l-0.88,-0.13l0.21,-0.93l2.22,-0.15z" fill="#000000" id="svg_2"/>
   <path d="m22.82,11.16c0.03,0 0.04,-0.01 0.08,-0.01l0.69,-0.17l0.72,0.17c0.02,0 0.04,0.01 0.06,0.01c0.1,0 0.17,-0.05 0.2,-0.12c0.03,-0.08 -0.03,-0.17 -0.14,-0.2l-0.78,-0.18c-0.02,0 -0.04,0.01 -0.06,0.01s-0.04,-0.01 -0.06,-0.01l-0.76,0.19c-0.11,0.02 -0.17,0.11 -0.14,0.2c0.03,0.07 0.12,0.11 0.2,0.11z" fill="#000000" id="svg_3"/>
   <path d="m19.72,11.2c0.01,0 0.02,0 0.03,0l1.11,-0.16l0.9,0.11c0.01,0.01 0.02,0.01 0.03,0.01c0.1,0 0.19,-0.06 0.2,-0.14c0.02,-0.09 -0.05,-0.17 -0.17,-0.19l-0.93,-0.11c-0.01,0 -0.02,0.01 -0.03,0.01c-0.02,0 -0.03,-0.01 -0.04,-0.01l-1.15,0.16c-0.12,0.02 -0.19,0.1 -0.17,0.19c0.02,0.08 0.11,0.13 0.21,0.13z" fill="#000000" id="svg_4"/>
  </g>
 </g>
</svg>