<svg width="227" height="28" viewBox="0 0 227 28" fill="none" xmlns="http://www.w3.org/2000/svg">
<path d="M24.6303 8.75149C24.2232 7.53035 23.7143 6.41098 23.1036 5.49512C22.493 4.57927 21.7805 3.76518 20.8645 3.05285C20.3556 2.6458 19.8467 2.23875 19.2361 1.93347C18.6254 1.52642 17.913 1.22114 16.9969 0.915854C16.0809 0.610569 15.1649 0.407046 14.0454 0.203523C12.9258 0 11.6027 0 10.076 0H4.47824C2.03556 0.101762 0 2.13699 0 4.57927V20.047C0 22.4893 2.03556 24.5245 4.47824 24.5245H10.4831V27.0686C10.4831 27.6791 10.992 28.0862 11.6027 27.9844C14.9614 27.4756 25.241 24.9316 25.241 13.636C25.241 13.636 25.241 13.0255 25.241 12.6184C25.241 11.3973 25.0374 9.97263 24.6303 8.75149ZM7.02269 13.4325C6.41202 13.4325 5.90313 12.9237 5.90313 12.3131C5.90313 11.7026 6.41202 11.1938 7.02269 11.1938C7.63336 11.1938 8.14225 11.7026 8.14225 12.3131C8.14225 12.9237 7.63336 13.4325 7.02269 13.4325ZM12.6205 13.4325C12.0098 13.4325 11.5009 12.9237 11.5009 12.3131C11.5009 11.7026 12.0098 11.1938 12.6205 11.1938C13.2312 11.1938 13.74 11.7026 13.74 12.3131C13.74 12.9237 13.2312 13.4325 12.6205 13.4325ZM18.2183 13.4325C17.6076 13.4325 17.0987 12.9237 17.0987 12.3131C17.0987 11.7026 17.6076 11.1938 18.2183 11.1938C18.829 11.1938 19.3378 11.7026 19.3378 12.3131C19.3378 12.9237 18.829 13.4325 18.2183 13.4325Z" fill="#EFFE37"/>
<path d="M45.3528 2.01074H38.2436C37.5181 2.01074 36.8652 2.66353 36.8652 3.38884V25.0032C36.8652 25.8011 37.5181 26.3813 38.2436 26.3813H45.3528C53.0424 26.3813 58.3381 21.014 58.3381 14.1235V14.051C58.3381 7.23301 53.0424 2.01074 45.3528 2.01074ZM55.5089 14.2686C55.5089 19.7084 51.5915 23.8427 45.3528 23.8427H39.6219V4.54935H45.3528C51.519 4.54935 55.5089 8.82871 55.5089 14.2686Z" fill="#EFFE37"/>
<path d="M79.5222 23.9153H65.5213V15.3565H77.3909C78.1164 15.3565 78.6242 14.7763 78.6242 14.1235C78.6242 13.4707 78.0438 12.8905 77.3909 12.8905H65.5213V4.47681H79.3045C80.03 4.47681 80.5378 3.89656 80.5378 3.24378C80.5378 2.51846 79.9574 2.01074 79.3045 2.01074H64.143C63.4175 2.01074 62.7646 2.66353 62.7646 3.38884V25.0032C62.7646 25.8011 63.4175 26.3813 64.143 26.3813H79.5222C80.2476 26.3813 80.7554 25.8011 80.7554 25.1483C80.7554 24.4955 80.2476 23.9153 79.5222 23.9153Z" fill="#EFFE37"/>
<path d="M99.9767 13.8334C101.863 12.963 103.822 11.3673 103.822 8.17592V8.10339C103.822 6.5077 103.241 5.27466 102.226 4.18669C100.847 2.80859 98.5984 2.01074 95.8418 2.01074H86.7738C86.0484 2.01074 85.3955 2.66353 85.3955 3.38884V25.0032C85.3955 25.8011 86.0484 26.3813 86.7738 26.3813H96.277C101.645 26.3813 105.127 23.9153 105.127 19.7084C105.2 16.372 102.878 14.7038 99.9767 13.8334ZM88.2247 4.47681H95.6967C99.1788 4.47681 101.137 6.07251 101.137 8.46605V8.53858C101.137 11.3673 98.816 12.8905 95.479 12.8905H88.2247V4.47681ZM102.443 19.5634C102.443 22.3196 100.122 23.9153 96.4221 23.9153H88.2247V15.3565H95.9143C100.194 15.3565 102.443 16.8797 102.443 19.5634Z" fill="#EFFE37"/>
<path d="M122.033 2.95276C121.743 2.15492 121.162 1.71973 120.292 1.71973H120.147C119.276 1.71973 118.769 2.15492 118.406 2.95276L108.467 24.6397C108.322 24.9298 108.322 25.1474 108.322 25.365C108.322 26.0903 108.903 26.598 109.556 26.598C110.208 26.598 110.644 26.2354 110.861 25.6551L113.4 19.9977L114.488 17.4591L120.147 4.98365L125.805 17.4591L126.313 18.6196H116.375C115.649 18.6196 115.141 19.1998 115.141 19.8526C115.141 20.5054 115.722 21.0856 116.375 21.0856H127.401L129.432 25.5826C129.65 26.1629 130.158 26.598 130.811 26.598C131.536 26.598 132.116 26.0178 132.116 25.2925C132.116 25.0749 132.044 24.8573 131.971 24.5672L122.033 2.95276Z" fill="#EFFE37"/>
<path d="M148.366 2.01074H131.391C130.665 2.01074 130.085 2.59099 130.085 3.31631C130.085 4.04163 130.665 4.54935 131.391 4.54935H138.5V25.2208C138.5 26.0187 139.153 26.5989 139.878 26.5989C140.676 26.5989 141.257 25.9462 141.257 25.2208V4.54935H148.366C149.091 4.54935 149.672 3.96909 149.672 3.31631C149.672 2.59099 149.091 2.01074 148.366 2.01074Z" fill="#EFFE37"/>
<path d="M163.673 1.57617C156.201 1.57617 151.195 7.45123 151.195 14.1967V14.2692C151.195 21.0146 156.201 26.8172 163.6 26.8172C171 26.8172 176.078 20.9421 176.078 14.1967V14.1241C176.15 7.3787 171.145 1.57617 163.673 1.57617ZM173.248 14.2692C173.248 19.8541 169.259 24.2785 163.673 24.2785C158.087 24.2785 154.024 19.7091 154.024 14.1967V14.1241C154.024 8.5392 158.014 4.11478 163.6 4.11478C169.186 4.11478 173.248 8.68426 173.248 14.2692Z" fill="#EFFE37"/>
<path d="M191.091 2.01074H181.951C181.225 2.01074 180.572 2.66353 180.572 3.38884V25.2208C180.572 26.0187 181.225 26.5989 181.951 26.5989C182.749 26.5989 183.329 25.9462 183.329 25.2208V16.9522H190.366L197.257 25.8736C197.547 26.3088 197.983 26.5989 198.563 26.5989C199.288 26.5989 199.941 25.9462 199.941 25.2208C199.941 24.8582 199.796 24.4955 199.506 24.2054L193.412 16.372C197.185 15.6467 199.941 13.3257 199.941 9.2639V9.19136C199.941 7.30554 199.216 5.56479 198.055 4.40428C196.459 2.88112 194.065 2.01074 191.091 2.01074ZM197.112 9.40896C197.112 12.5278 194.501 14.4136 190.801 14.4136H183.256V4.54935H190.873C194.791 4.54935 197.112 6.36263 197.112 9.40896Z" fill="#EFFE37"/>
<path d="M222.719 1.79297C222.139 1.79297 221.776 2.15563 221.413 2.66335L213.288 14.2684L205.236 2.66335C204.873 2.15563 204.511 1.79297 203.93 1.79297C203.132 1.79297 202.479 2.44575 202.479 3.17107C202.479 3.53373 202.625 3.82385 202.77 4.11398L211.838 16.807V25.2206C211.838 26.0185 212.49 26.5987 213.216 26.5987C214.014 26.5987 214.594 25.946 214.594 25.2206V16.7345L223.662 4.18651C223.807 3.89638 224.025 3.53373 224.025 3.17107C224.097 2.44575 223.445 1.79297 222.719 1.79297Z" fill="#EFFE37"/>
<path d="M224.816 26.3772C225.902 26.3772 226.782 25.4966 226.782 24.4103C226.782 23.324 225.902 22.4434 224.816 22.4434C223.729 22.4434 222.849 23.324 222.849 24.4103C222.849 25.4966 223.729 26.3772 224.816 26.3772Z" fill="#EFFE37"/>
</svg>
