<svg width="current" height="curent" viewBox="0 0 300 56" fill="none" xmlns="http://www.w3.org/2000/svg">
<path d="M36.8381 21.3459C36.322 19.7978 35.6768 18.3787 34.9026 17.2176C34.1284 16.0565 33.2252 15.0244 32.0639 14.1213C31.4188 13.6053 30.7736 13.0892 29.9994 12.7022C29.2252 12.1861 28.322 11.7991 27.1607 11.4121C25.9994 11.025 24.8381 10.767 23.4188 10.509C21.9994 10.251 20.322 10.251 18.3865 10.251H11.2897C8.19295 10.38 5.6123 12.9602 5.6123 16.0565V35.6662C5.6123 38.7625 8.19295 41.3427 11.2897 41.3427H18.9026V44.568C18.9026 45.342 19.5478 45.8581 20.322 45.7291C24.58 45.084 37.6123 41.8587 37.6123 27.5385C37.6123 27.5385 37.6123 26.7644 37.6123 26.2484C37.6123 24.7002 37.3542 22.8941 36.8381 21.3459ZM14.5155 27.2805C13.7413 27.2805 13.0962 26.6354 13.0962 25.8613C13.0962 25.0873 13.7413 24.4422 14.5155 24.4422C15.2897 24.4422 15.9349 25.0873 15.9349 25.8613C15.9349 26.6354 15.2897 27.2805 14.5155 27.2805ZM21.6123 27.2805C20.8381 27.2805 20.193 26.6354 20.193 25.8613C20.193 25.0873 20.8381 24.4422 21.6123 24.4422C22.3865 24.4422 23.0317 25.0873 23.0317 25.8613C23.0317 26.6354 22.3865 27.2805 21.6123 27.2805ZM28.7091 27.2805C27.9349 27.2805 27.2897 26.6354 27.2897 25.8613C27.2897 25.0873 27.9349 24.4422 28.7091 24.4422C29.4833 24.4422 30.1284 25.0873 30.1284 25.8613C30.1284 26.6354 29.4833 27.2805 28.7091 27.2805Z" fill="white"/>
<path d="M64.3727 12.5518H55.3597C54.44 12.5518 53.6123 13.3793 53.6123 14.2989V41.7012C53.6123 42.7127 54.44 43.4483 55.3597 43.4483H64.3727C74.1214 43.4483 80.8351 36.6437 80.8351 27.9081V27.8161C80.8351 19.1724 74.1214 12.5518 64.3727 12.5518ZM77.2483 28.092C77.2483 34.9885 72.282 40.2299 64.3727 40.2299H57.1071V15.7701H64.3727C72.19 15.7701 77.2483 21.1954 77.2483 28.092Z" fill="white"/>
<path d="M107.69 40.3219H89.9401V29.4713H104.988C105.908 29.4713 106.552 28.7357 106.552 27.9081C106.552 27.0805 105.816 26.3449 104.988 26.3449H89.9401V15.6782H107.414C108.334 15.6782 108.978 14.9426 108.978 14.115C108.978 13.1954 108.242 12.5518 107.414 12.5518H88.1927C87.273 12.5518 86.4453 13.3793 86.4453 14.2989V41.7012C86.4453 42.7127 87.273 43.4483 88.1927 43.4483H107.69C108.61 43.4483 109.254 42.7127 109.254 41.8851C109.254 41.0575 108.61 40.3219 107.69 40.3219Z" fill="white"/>
<path d="M133.625 27.5403C136.017 26.4368 138.5 24.4138 138.5 20.3678V20.2759C138.5 18.2529 137.764 16.6897 136.476 15.3104C134.729 13.5633 131.878 12.5518 128.383 12.5518H116.887C115.967 12.5518 115.14 13.3793 115.14 14.2989V41.7012C115.14 42.7127 115.967 43.4483 116.887 43.4483H128.935C135.741 43.4483 140.155 40.3219 140.155 34.9885C140.247 30.7587 137.304 28.6437 133.625 27.5403ZM118.726 15.6782H128.199C132.614 15.6782 135.097 17.7012 135.097 20.7357V20.8276C135.097 24.4138 132.154 26.3449 127.923 26.3449H118.726V15.6782ZM136.752 34.8046C136.752 38.2989 133.809 40.3219 129.119 40.3219H118.726V29.4713H128.475C133.901 29.4713 136.752 31.4023 136.752 34.8046Z" fill="white"/>
<path d="M161.584 13.7468C161.216 12.7353 160.481 12.1836 159.377 12.1836H159.193C158.089 12.1836 157.446 12.7353 156.986 13.7468L144.386 41.2411C144.202 41.6089 144.202 41.8847 144.202 42.1606C144.202 43.0801 144.938 43.7238 145.766 43.7238C146.593 43.7238 147.145 43.2641 147.421 42.5284L150.64 35.356L152.02 32.1376L159.193 16.3215L166.367 32.1376L167.01 33.6089H154.411C153.491 33.6089 152.847 34.3445 152.847 35.1721C152.847 35.9997 153.583 36.7353 154.411 36.7353H168.39L170.965 42.4365C171.241 43.1721 171.885 43.7238 172.713 43.7238C173.632 43.7238 174.368 42.9882 174.368 42.0687C174.368 41.7928 174.276 41.5169 174.184 41.1491L161.584 13.7468Z" fill="white"/>
<path d="M194.969 12.5518H173.448C172.529 12.5518 171.793 13.2874 171.793 14.2069C171.793 15.1265 172.529 15.7701 173.448 15.7701H182.461V41.977C182.461 42.9885 183.289 43.7242 184.209 43.7242C185.22 43.7242 185.956 42.8966 185.956 41.977V15.7701H194.969C195.889 15.7701 196.625 15.0345 196.625 14.2069C196.625 13.2874 195.889 12.5518 194.969 12.5518Z" fill="white"/>
<path d="M214.374 12C204.902 12 198.556 19.4483 198.556 28V28.092C198.556 36.6437 204.902 44 214.282 44C223.663 44 230.101 36.5517 230.101 28V27.908C230.193 19.3563 223.847 12 214.374 12ZM226.514 28.092C226.514 35.1724 221.456 40.7816 214.374 40.7816C207.293 40.7816 202.142 34.9885 202.142 28V27.908C202.142 20.8276 207.201 15.2184 214.282 15.2184C221.364 15.2184 226.514 21.0115 226.514 28.092Z" fill="white"/>
<path d="M249.138 12.5518H237.55C236.63 12.5518 235.803 13.3793 235.803 14.2989V41.977C235.803 42.9885 236.63 43.7242 237.55 43.7242C238.562 43.7242 239.298 42.8966 239.298 41.977V31.4943H248.219L256.956 42.8046C257.323 43.3564 257.875 43.7242 258.611 43.7242C259.531 43.7242 260.358 42.8966 260.358 41.977C260.358 41.5173 260.175 41.0575 259.807 40.6897L252.081 30.7587C256.864 29.8391 260.358 26.8966 260.358 21.7472V21.6552C260.358 19.2644 259.439 17.0575 257.967 15.5862C255.944 13.6552 252.909 12.5518 249.138 12.5518ZM256.772 21.9311C256.772 25.8851 253.461 28.2759 248.77 28.2759H239.206V15.7701H248.862C253.829 15.7701 256.772 18.069 256.772 21.9311Z" fill="white"/>
<path d="M289.237 12.2764C288.501 12.2764 288.041 12.7361 287.581 13.3798L277.281 28.0925L267.072 13.3798C266.612 12.7361 266.152 12.2764 265.417 12.2764C264.405 12.2764 263.577 13.104 263.577 14.0235C263.577 14.4833 263.761 14.8511 263.945 15.2189L275.441 31.3108V41.9775C275.441 42.989 276.269 43.7246 277.189 43.7246C278.2 43.7246 278.936 42.8971 278.936 41.9775V31.2189L290.432 15.3108C290.616 14.943 290.892 14.4833 290.892 14.0235C290.984 13.104 290.156 12.2764 289.237 12.2764Z" fill="white"/>
<path d="M291.893 43.4414C293.27 43.4414 294.387 42.3249 294.387 40.9477C294.387 39.5705 293.27 38.4541 291.893 38.4541C290.516 38.4541 289.399 39.5705 289.399 40.9477C289.399 42.3249 290.516 43.4414 291.893 43.4414Z" fill="white"/>
</svg>
