<?xml version="1.0"?>
<svg width="38" height="38" xmlns="http://www.w3.org/2000/svg">
 <g class="layer">
  <title>Layer 1</title>
  <path d="m35.02,12.01l-11.2,0l0,-8.99c0,-1.33 -1.09,-2.41 -2.42,-2.41l-18.6,0c-1.34,0 -2.42,1.08 -2.42,2.41l0,15.62c0,1.34 1.09,2.42 2.42,2.42l3.91,0l0,3.66c0,0.5 0.29,0.95 0.73,1.17c0.2,0.09 0.4,0.14 0.6,0.14c0.28,0 0.56,-0.09 0.79,-0.25l5.18,-3.79l0,8.05c0,1.33 1.09,2.41 2.42,2.41l6.12,0l6.46,4.72c0.24,0.17 0.52,0.25 0.79,0.25c0.2,0 0.41,-0.04 0.6,-0.14c0.44,-0.22 0.73,-0.67 0.73,-1.17l0,-3.66l3.91,0c1.34,0 2.42,-1.08 2.42,-2.41l0,-15.63c0,-1.33 -1.09,-2.41 -2.42,-2.41zm-26.99,6.42l-5,0l0,-15.18l18.15,0l0,15.18l-6.33,0c-0.29,0 -0.56,0.08 -0.79,0.25l-4.7,3.43l0,-2.37c0,-0.74 -0.58,-1.32 -1.32,-1.32zm26.77,11.4l-5,0c-0.74,0 -1.32,0.59 -1.32,1.32l0,2.38l-4.71,-3.45c-0.23,-0.16 -0.49,-0.25 -0.78,-0.25l-6.33,0l0,-8.76l4.75,0c1.34,0 2.42,-1.08 2.42,-2.41l0,-4.01l10.98,0l0,15.18zm-10.59,-4.79l6.77,-6.92c0.5,-0.53 1.34,-0.53 1.87,-0.03c0.53,0.5 0.53,1.34 0.03,1.86l-7.61,7.79c-0.25,0.26 -0.6,0.39 -0.95,0.39c-0.29,0 -0.58,-0.09 -0.83,-0.29l-4.1,-3.36c-0.57,-0.46 -0.65,-1.29 -0.19,-1.84c0.46,-0.57 1.3,-0.64 1.87,-0.18l3.16,2.58zm-12.1,-12.34l-3.76,3.72c-0.25,0.25 -0.6,0.38 -0.93,0.38s-0.68,-0.13 -0.94,-0.38c-0.52,-0.51 -0.52,-1.34 0,-1.87l3.75,-3.72l-3.75,-3.72c-0.52,-0.51 -0.52,-1.34 0,-1.86c0.52,-0.53 1.35,-0.53 1.87,0l3.76,3.72l3.75,-3.74c0.52,-0.51 1.35,-0.51 1.87,0c0.52,0.51 0.52,1.36 0,1.87l-3.75,3.72l3.75,3.72c0.52,0.51 0.52,1.36 0,1.87c-0.25,0.25 -0.6,0.38 -0.94,0.38s-0.68,-0.13 -0.93,-0.38l-3.75,-3.72z" id="svg_1"/>
 </g>
</svg>