<?xml version="1.0"?>
<svg width="current" height="current" xmlns="http://www.w3.org/2000/svg" >
 <g class="layer">
  <title>Layer 1</title>
  <g id="svg_1">
   <path d="m34.64,3.89l-2.39,0c-0.59,0 -1.12,0.24 -1.54,0.62c-0.41,-0.75 -1.17,-1.25 -2.04,-1.25l-3.58,0c-0.5,0 -0.96,0.16 -1.34,0.44c-0.33,-1 -1.21,-1.72 -2.25,-1.72l-4.18,0c-0.5,0 -0.96,0.16 -1.34,0.44c-0.33,-1 -1.21,-1.72 -2.25,-1.72l-4.78,0c-1.28,0 -2.31,1.08 -2.38,2.43l-5.04,22.85c-0.25,1.13 -0.08,2.31 0.46,3.32l3.04,5.68c0.73,1.37 2.14,2.21 3.68,2.21l6.81,0c2.54,0 4.78,-2.4 4.78,-5.12l0,-0.64c1.25,0 2.34,-0.69 2.99,-1.72c0.64,1.04 1.74,1.72 2.99,1.72l1.2,0c1.25,0 2.34,-0.69 2.99,-1.72c0.64,1.04 1.74,1.72 2.99,1.72c1.98,0 3.58,-1.72 3.58,-3.84l0,-21.12c0,-1.42 -1.07,-2.56 -2.39,-2.56l-0.01,0zm-26.9,-0.64c0,-0.7 0.54,-1.28 1.2,-1.28l4.78,0c0.66,0 1.2,0.58 1.2,1.28l0,1.28l0,22.4c0,1.77 -1.34,3.2 -2.99,3.2l-1.2,0c-1.65,0 -2.99,-1.44 -2.99,-3.2l0,-23.69l0,0zm11.35,28.81c0,0.7 -0.2,1.36 -0.52,1.93c-0.02,0 -0.05,-0.01 -0.07,-0.01l-3.58,0c-0.66,0 -1.2,-0.58 -1.2,-1.28l0,-0.64c0,-0.35 -0.27,-0.64 -0.6,-0.64s-0.6,0.29 -0.6,0.64l0,0.64c0,1.42 1.07,2.56 2.39,2.56l2.52,0c-0.56,0.41 -1.22,0.64 -1.92,0.64l-6.81,0c-1.11,0 -2.13,-0.6 -2.65,-1.57l-3.04,-5.67c-0.39,-0.74 -0.51,-1.58 -0.33,-2.39l3.86,-17.53l0,18.19c0,2.47 1.88,4.48 4.18,4.48l1.2,0c1.44,0 2.7,-0.77 3.46,-1.96c0.62,1.17 1.78,1.96 3.12,1.96l0.6,0l0,0.64l0,0zm3.58,-26.24l0,21.77c0,1.42 -1.07,2.56 -2.39,2.56l-1.79,0c-1.32,0 -2.39,-1.15 -2.39,-2.56l0,-0.64l0,-22.4c0,-0.7 0.54,-1.28 1.2,-1.28l4.18,0c0.66,0 1.2,0.58 1.2,1.28l0,1.28l0,0zm7.17,0.64l0,21.12c0,1.42 -1.07,2.56 -2.39,2.56l-1.2,0c-1.32,0 -2.39,-1.15 -2.39,-2.56l0,-21.77c0,-0.7 0.54,-1.28 1.2,-1.28l3.58,0c0.66,0 1.2,0.58 1.2,1.28l0,0.64l0,0zm5.98,21.12c0,1.42 -1.07,2.56 -2.39,2.56s-2.39,-1.15 -2.39,-2.56l0,-21.12c0,-0.7 0.54,-1.28 1.2,-1.28l2.39,0c0.66,0 1.2,0.58 1.2,1.28l0,21.12z" id="svg_2"/>
  </g>
 </g>
</svg>