<svg width="197" height="197" viewBox="0 0 197 197" fill="none" xmlns="http://www.w3.org/2000/svg">
<circle cx="98.5" cy="98.5" r="98.5" fill="white"/>
<path d="M40.8032 47.4302C41.0096 46.0601 41.7836 44.8198 42.9443 44.0632C54.0486 36.8244 61.0146 35.6935 72.0903 43.8013C73.3225 44.7033 74.018 46.1626 74.018 47.6897V134.558C74.018 136.617 72.7612 138.484 70.8149 139.154C61.3338 142.422 54.601 142.441 43.9439 138.942C42.2044 138.371 40.9564 136.841 40.6866 135.03C35.6691 101.352 35.6962 81.3163 40.8032 47.4302Z" fill="#FFD5C0"/>
<path d="M74.018 43.2777C74.018 41.7866 74.6827 40.3598 75.8602 39.4451C86.974 30.812 93.9319 30.8916 105.042 39.4443C106.231 40.3593 106.904 41.7933 106.904 43.2933V138.467C106.904 140.376 105.82 142.139 104.068 142.898C93.923 147.296 87.1701 146.803 77.0739 142.843C75.2105 142.112 74.018 140.288 74.018 138.287V43.2777Z" fill="#FFD5C0"/>
<path d="M106.904 47.178C106.904 45.5096 107.731 43.9362 109.152 43.0615C120.343 36.1716 127.185 36.9044 137.467 43.065C138.928 43.9404 139.789 45.5382 139.789 47.2414V135.991C139.789 137.208 139.361 138.402 138.492 139.256C134.751 142.933 131.11 143.929 124.094 144.344C117.316 143.848 113.399 143.099 108.611 139.322C107.496 138.442 106.904 137.068 106.904 135.647V47.178Z" fill="#FFD5C0"/>
<path d="M139.789 54.1779C139.789 52.3778 140.763 50.7047 142.345 49.8463C159.007 40.8072 166.381 41.238 172.108 50.3288C172.493 50.9388 172.712 51.6466 172.78 52.3644C175.706 83.0913 175.726 100.731 172.92 130.101C172.769 131.684 171.872 133.117 170.473 133.874C159.871 139.61 153.019 138.929 142.547 133.979C140.845 133.174 139.789 131.438 139.789 129.555V54.1779Z" fill="#FFD5C0"/>
<path d="M66.544 43.5751C67.0213 44.0009 68.2059 44.0598 68.7988 44.1762C69.3105 44.2767 69.7591 44.3707 70.2785 44.3707C71.2045 44.3707 71.9945 44.1021 72.8856 44.0524C74.4014 43.9679 75.9266 43.3872 77.0076 42.3022" stroke="#FFD5C0" stroke-width="4.5" stroke-linecap="round"/>
<path d="M103.88 42.1317C104.624 42.7781 105.779 42.7745 106.72 42.9675C107.641 43.1563 108.797 43.438 109.743 43.484C111.625 43.5753 113.579 43.1459 115.423 43.1459" stroke="#FFD5C0" stroke-width="4.5" stroke-linecap="round"/>
<path d="M136.8 46.4391C137.294 47.1982 138.337 47.4501 138.955 47.767C139.904 48.2533 141.06 48.7373 142.048 48.7373C142.768 48.7373 143.512 49.197 144.241 49.197C144.844 49.197 145.446 49.197 146.049 49.197C146.93 49.197 147.811 49.197 148.692 49.197C149.358 49.197 150.092 48.8007 150.751 48.7373C152.1 48.6077 153.464 48.7823 154.738 48.0479" stroke="#FFD5C0" stroke-width="5" stroke-linecap="round"/>
<path d="M105.134 46.3495C105.441 46.9873 106.968 46.8117 107.578 46.8372C109.522 46.9188 111.472 47.0654 113.366 47.4832C114.664 47.7696 116.363 48.0348 117.482 48.7225" stroke="#FFD5C0" stroke-width="5" stroke-linecap="round"/>
<path d="M147.578 54.6549C145.666 54.5079 143.68 53.6526 141.862 53.152C139.931 52.6204 138.024 52.1757 136.174 51.4382C134.61 50.8146 132.825 50.1462 131.115 50.1462" stroke="#FFD5C0" stroke-width="5" stroke-linecap="round"/>
<path d="M73.1889 137.8C75.2954 135.395 73.809 126.136 73.809 122.873C73.809 115.727 72.5688 108.74 72.5688 101.654C72.5688 92.1307 71.3286 82.6566 71.3286 72.9895" stroke="black" stroke-linecap="round"/>
<path d="M108.468 135.042C108.468 129.411 108.874 124.448 108.608 118.773C108.381 113.929 108.354 108.915 108.116 104.151C108.018 102.176 107.768 99.9705 107.745 97.9997C107.673 91.7781 106.69 81.603 107.564 75.7474" stroke="black" stroke-linecap="round"/>
<path d="M140.09 130.905C140.09 128.396 141.198 126.263 141.285 123.812C141.396 120.684 141.554 117.448 141.917 114.342C142.488 109.447 143.079 105.176 143.079 100.221C143.079 93.0071 143.079 85.4654 143.079 78.5052" stroke="black" stroke-linecap="round"/>
<path d="M23.4948 142.8C23.4948 140.039 25.7334 137.8 28.4948 137.8H74.8819C76.4138 137.8 77.8731 138.494 78.7757 139.732C85.2569 148.62 85.1827 154.097 78.7709 162.225C77.8666 163.371 76.4674 164 75.0072 164H28.4948C25.7334 164 23.4948 161.761 23.4948 159V142.8Z" fill="#FFD5C0"/>
<path d="M38.4429 75.7474L52.6828 141.937H24.2029L38.4429 75.7474Z" fill="#FFD5C0"/>
<path d="M39.1369 99.5987C39.1369 106.508 37.3786 113.132 38.7719 120.041C39.4728 123.516 40.4848 126.28 42.2133 129.469C43.0246 130.966 45.023 132.549 45.2375 134.231C45.3213 134.888 46.6096 137.461 47.1146 137.694" stroke="black" stroke-linecap="round"/>
<path d="M46.176 138.993C44.0157 138.993 36.264 137.8 35.3827 139.426" stroke="black" stroke-linecap="round"/>
<path d="M47.4117 139.179C52.1165 139.179 56.1824 137.8 60.9596 137.8C65.0451 137.8 68.9275 138.719 72.8234 138.719" stroke="black" stroke-linecap="round"/>
</svg>
