<svg width="187" height="47" viewBox="0 0 187 47" fill="none" xmlns="http://www.w3.org/2000/svg">
<path d="M18.638 0.799997C24.974 0.799997 30.254 3.022 34.478 7.466C38.746 11.91 40.88 17.388 40.88 23.9C40.88 30.412 38.746 35.89 34.478 40.334C30.254 44.778 24.974 47 18.638 47H0.29V0.799997H18.638ZM18.638 38.288C22.642 38.288 25.898 36.968 28.406 34.328C30.914 31.644 32.168 28.168 32.168 23.9C32.168 19.632 30.914 16.178 28.406 13.538C25.898 10.854 22.642 9.512 18.638 9.512H9.398V38.288H18.638ZM71.6848 47L62.3788 30.962H55.4488V47H46.3408V0.799997H64.8208C69.0888 0.799997 72.7188 2.296 75.7108 5.288C78.7028 8.28 80.1988 11.888 80.1988 16.112C80.1988 18.972 79.3848 21.634 77.7568 24.098C76.1288 26.518 73.9728 28.344 71.2888 29.576L81.5188 47H71.6848ZM55.4488 9.314V22.976H64.8208C66.5368 22.976 68.0108 22.316 69.2428 20.996C70.4748 19.632 71.0908 18.004 71.0908 16.112C71.0908 14.22 70.4748 12.614 69.2428 11.294C68.0108 9.974 66.5368 9.314 64.8208 9.314H55.4488ZM115.582 47L112.81 38.684H94.3958L91.6238 47H81.7898L97.9598 0.799997H109.246L125.482 47H115.582ZM97.2998 30.17H109.972L103.636 11.294L97.2998 30.17ZM135.961 47L123.025 0.799997H132.595L141.439 35.054L151.075 0.799997H158.863L168.565 35.054L177.409 0.799997H186.979L174.043 47H163.681L154.969 16.508L146.323 47H135.961Z" fill="#B484F1"/>
</svg>
