<svg width="current" height="current" viewBox="0 0 149 131" fill="none" xmlns="http://www.w3.org/2000/svg">
<path d="M21.7217 131H29.5982L37.8328 112.198H27.092L21.7217 131Z" fill="#777777"/>
<path d="M144.166 131H136.376L128.055 112.198H138.677L144.166 131Z" fill="#777777"/>
<path d="M143.092 18.7266H21.7219C18.4593 18.7266 15.8145 21.3722 15.8145 24.6357V106.826C15.8145 110.089 18.4593 112.735 21.7219 112.735H143.092C146.355 112.735 149 110.089 149 106.826V24.6357C149 21.3722 146.355 18.7266 143.092 18.7266Z" fill="#C6C6C6"/>
<path d="M101.688 26.248H28.0316C25.3622 26.248 23.1982 28.4126 23.1982 31.0828V100.335C23.1982 103.005 25.3622 105.17 28.0316 105.17H101.688C104.358 105.17 106.522 103.005 106.522 100.335V31.0828C106.522 28.4126 104.358 26.248 101.688 26.248Z" fill="#F4FB7A"/>
<path d="M127.853 53.2224C133.681 53.2224 138.406 48.4966 138.406 42.6669C138.406 36.8372 133.681 32.1113 127.853 32.1113C122.025 32.1113 117.301 36.8372 117.301 42.6669C117.301 48.4966 122.025 53.2224 127.853 53.2224Z" fill="#F4FB7A"/>
<path fill-rule="evenodd" clip-rule="evenodd" d="M113.5 70C113.5 69.1716 114.172 68.5 115 68.5H141C141.828 68.5 142.5 69.1716 142.5 70C142.5 70.8284 141.828 71.5 141 71.5H115C114.172 71.5 113.5 70.8284 113.5 70Z" fill="#ABABAB"/>
<path fill-rule="evenodd" clip-rule="evenodd" d="M113.5 84C113.5 83.1716 114.172 82.5 115 82.5H141C141.828 82.5 142.5 83.1716 142.5 84C142.5 84.8284 141.828 85.5 141 85.5H115C114.172 85.5 113.5 84.8284 113.5 84Z" fill="#ABABAB"/>
<path fill-rule="evenodd" clip-rule="evenodd" d="M113.5 98C113.5 97.1716 114.172 96.5 115 96.5H141C141.828 96.5 142.5 97.1716 142.5 98C142.5 98.8284 141.828 99.5 141 99.5H115C114.172 99.5 113.5 98.8284 113.5 98Z" fill="#ABABAB"/>
<path d="M67.3701 1L81.8701 14.4298" stroke="#E2E2E2" stroke-miterlimit="10"/>
<path d="M96.9071 1L81.8701 14.4298" stroke="#E2E2E2" stroke-miterlimit="10"/>
<path d="M89.9256 18.7277H74.3516L76.1015 13.7139C76.6264 12.1023 78.0263 11.207 79.6012 11.207H84.6759C86.2508 11.207 87.6508 12.2814 88.1757 13.7139L89.9256 18.7277Z" fill="#E2E2E2"/>
<path d="M10.981 16.041V16.041C12.7299 20.7686 16.4575 24.4979 21.1848 26.2476V26.2476V26.2476C16.4575 27.9974 12.7299 31.7266 10.981 36.4542V36.4542V36.4542C9.23217 31.7266 5.50463 27.9974 0.777344 26.2476V26.2476V26.2476C5.50463 24.4979 9.23217 20.7686 10.981 16.041V16.041Z" fill="#F1F1F1"/>
<path d="M126.546 84V84C128.525 89.3497 132.743 93.5696 138.093 95.5496V95.5496V95.5496C132.743 97.5296 128.525 101.75 126.546 107.099V107.099V107.099C124.567 101.75 120.349 97.5296 115 95.5496V95.5496V95.5496C120.349 93.5696 124.567 89.3497 126.546 84V84Z" fill="#F1F1F1"/>
</svg>
