<svg width="248" height="248" viewBox="0 0 248 248" fill="none" xmlns="http://www.w3.org/2000/svg">
<rect width="248" height="248" rx="24" fill="#F7FF7D"/>
<path fill-rule="evenodd" clip-rule="evenodd" d="M152.495 105.867C153.793 106.365 154.792 107.363 155.191 108.56L157.289 114.544H138.612L140.709 108.56C141.109 107.263 142.008 106.365 143.106 105.966L129.923 93.7979L130.622 93L144.305 105.667C144.505 105.667 144.704 105.667 144.904 105.667H150.997C151.096 105.667 151.096 105.667 151.196 105.667L165.379 93L166.078 93.7979L152.495 105.867Z" fill="#1B1B1B"/>
<path d="M130.921 93.9971L147.9 109.956L165.877 93.9971" stroke="#1B1B1B" stroke-width="4" stroke-linecap="round" stroke-linejoin="round"/>
<path d="M74.6924 248H84.1805L94.0682 225.458H81.0844L74.6924 248Z" fill="#1B1B1B"/>
<path d="M221.808 248H212.42L202.433 225.458H215.217L221.808 248Z" fill="#1B1B1B"/>
<path d="M208.025 113.946H87.975C76.9888 113.946 68 122.923 68 133.895V206.507C68 217.578 76.9888 226.455 87.975 226.455H208.025C219.111 226.455 228 217.479 228 206.507V133.895C228 122.923 219.011 113.946 208.025 113.946Z" fill="#505050"/>
<path d="M159.044 126.912H95.8063C87.6248 126.912 80.9834 133.55 80.9834 141.727V198.872C80.9834 207.05 87.6248 213.688 95.8063 213.688H159.044C167.226 213.688 173.867 207.05 173.867 198.872V141.727C173.867 133.55 167.226 126.912 159.044 126.912Z" fill="white"/>
<path d="M202.131 154.839C209.123 154.839 214.816 149.154 214.816 142.172C214.816 135.19 209.123 129.505 202.131 129.505C195.14 129.505 189.447 135.19 189.447 142.172C189.447 149.154 195.04 154.839 202.131 154.839Z" fill="#F7FF7D"/>
<path fill-rule="evenodd" clip-rule="evenodd" d="M184.653 174.988C184.653 173.99 185.452 173.192 186.451 173.192H217.712C218.711 173.192 219.51 173.99 219.51 174.988C219.51 175.985 218.711 176.783 217.712 176.783H186.451C185.452 176.783 184.653 175.885 184.653 174.988Z" fill="#1B1B1B"/>
<path fill-rule="evenodd" clip-rule="evenodd" d="M184.653 191.744C184.653 190.746 185.452 189.948 186.451 189.948H217.712C218.711 189.948 219.51 190.746 219.51 191.744C219.51 192.741 218.711 193.539 217.712 193.539H186.451C185.452 193.539 184.653 192.741 184.653 191.744Z" fill="#1B1B1B"/>
<path fill-rule="evenodd" clip-rule="evenodd" d="M184.653 208.501C184.653 207.504 185.452 206.706 186.451 206.706H217.712C218.711 206.706 219.51 207.504 219.51 208.501C219.51 209.499 218.711 210.297 217.712 210.297H186.451C185.452 210.297 184.653 209.499 184.653 208.501Z" fill="#1B1B1B"/>
<path d="M40.96 34.016H44.96V54.976H40.96V48.16H34.496C33.12 49.632 31.136 50.496 28.896 50.496C24.64 50.496 21.344 47.392 21.344 43.104C21.344 38.784 24.64 35.712 28.896 35.712C31.136 35.712 33.12 36.576 34.496 38.016H40.96V34.016ZM25.088 43.104C25.088 45.568 26.72 47.04 28.896 47.04C31.04 47.04 32.672 45.568 32.672 43.104C32.672 40.672 31.04 39.2 28.896 39.2C26.72 39.2 25.088 40.672 25.088 43.104ZM26.048 62.144V52.928H30.048V58.976H45.6V62.144H26.048ZM36.224 41.184C36.352 41.792 36.448 42.432 36.448 43.104C36.448 43.776 36.384 44.384 36.224 44.992H40.96V41.184H36.224ZM69.7928 33.984H73.5368V62.656H69.7928V33.984ZM49.1848 46.432C49.1848 39.968 51.6168 36.032 55.3928 36.032C57.7928 36.032 59.6488 37.6 60.6728 40.352H64.0648V34.464H67.7768V61.344H64.0648V52.448H60.7048C59.6488 55.232 57.7928 56.8 55.3928 56.8C51.6168 56.8 49.1848 52.896 49.1848 46.432ZM52.7688 46.432C52.7688 50.848 53.7288 53.056 55.3928 53.056C57.0888 53.056 58.0488 50.848 58.0488 46.432C58.0488 41.984 57.0888 39.776 55.3928 39.776C53.7288 39.776 52.7688 41.984 52.7688 46.432ZM61.4408 43.552C61.5688 44.448 61.6328 45.408 61.6328 46.432C61.6328 47.424 61.5688 48.352 61.4728 49.216H64.0648V43.552H61.4408ZM93.8725 41.536L93.8405 45.888L97.9365 44.576L98.9285 47.712L94.8645 48.96L97.5525 52.608L94.9925 54.656L92.2085 50.944L89.4245 54.656L86.9285 52.576L89.5845 48.96L85.4885 47.712L86.5125 44.576L90.5445 45.888L90.5125 41.536H93.8725ZM129.205 33.952H133.205V62.72H129.205V33.952ZM110.261 46.208C110.261 39.936 113.461 36 117.813 36C122.133 36 125.301 39.936 125.301 46.208C125.301 52.512 122.133 56.448 117.813 56.448C113.461 56.448 110.261 52.512 110.261 46.208ZM114.101 46.208C114.101 50.496 115.605 52.864 117.813 52.864C119.989 52.864 121.493 50.496 121.493 46.208C121.493 41.92 119.989 39.584 117.813 39.584C115.605 39.584 114.101 41.92 114.101 46.208ZM137.462 49.856H163.414V53.024H157.526V62.784H153.526V53.024H147.382V62.784H143.414V53.024H137.462V49.856ZM138.454 44.384C144.854 43.488 148.342 39.744 148.342 36.256V34.848H152.534V36.256C152.534 39.712 156.022 43.488 162.422 44.384L160.854 47.584C155.926 46.816 152.278 44.416 150.454 41.28C148.598 44.448 144.95 46.816 139.99 47.584L138.454 44.384Z" fill="black"/>
</svg>
