<svg width="current" height="current" viewBox="0 0 49 57" fill="none" xmlns="http://www.w3.org/2000/svg">
<path d="M31 10H19C17.9 10 17 10.9 17 12V30H33V12C33 10.9 32.1 10 31 10ZM28.5 21.5C27.67 21.5 27 20.83 27 20C27 19.17 27.67 18.5 28.5 18.5C29.33 18.5 30 19.17 30 20C30 20.83 29.33 21.5 28.5 21.5Z" fill="#C42E26"/>
<path d="M5.47334 47.14H6.74734V48.82H11.7033V49.856H0.545344V48.82H5.47334V47.14ZM1.13334 46.748C3.34534 46.552 5.10934 45.53 5.26334 44.312H1.56734V43.29H10.6953V44.312H6.98534C7.13934 45.53 8.90334 46.552 11.1293 46.748L10.6673 47.756C8.56734 47.518 6.78934 46.636 6.13134 45.32C5.45934 46.636 3.69534 47.518 1.58134 47.756L1.13334 46.748ZM1.87534 52.922C1.87534 51.55 3.45734 50.78 6.11734 50.78C8.76334 50.78 10.3593 51.55 10.3593 52.922C10.3593 54.294 8.76334 55.05 6.11734 55.05C3.45734 55.05 1.87534 54.294 1.87534 52.922ZM3.16334 52.922C3.16334 53.678 4.24134 54.084 6.11734 54.084C7.99334 54.084 9.05734 53.678 9.05734 52.922C9.05734 52.18 7.99334 51.774 6.11734 51.774C4.24134 51.774 3.16334 52.18 3.16334 52.922ZM12.7817 52.53H15.8477V50.29H14.1537V46.398H21.3497V44.634H14.1257V43.598H22.6237V47.406H15.4137V49.254H22.9037V50.29H21.0277V52.53H23.9677V53.58H12.7817V52.53ZM17.1077 52.53H19.7817V50.29H17.1077V52.53ZM33.292 42.73H34.566V47.742H36.526V48.806H34.566V55.078H33.292V42.73ZM24.948 45.698V44.662H27.972V42.884H29.274V44.662H32.228V45.698H24.948ZM25.606 49.506C25.606 47.826 26.894 46.65 28.63 46.65C30.394 46.65 31.668 47.826 31.668 49.506C31.668 51.186 30.394 52.362 28.63 52.362C26.894 52.362 25.606 51.186 25.606 49.506ZM26.824 49.506C26.824 50.584 27.58 51.312 28.63 51.312C29.68 51.312 30.45 50.584 30.45 49.506C30.45 48.442 29.68 47.7 28.63 47.7C27.58 47.7 26.824 48.442 26.824 49.506ZM46.1303 42.716H47.4183V55.064H46.1303V42.716ZM37.3663 51.802C40.6423 50.22 42.2243 47.966 42.4763 45.068H37.9543V44.032H43.7643C43.7643 47.658 42.2383 50.78 38.0383 52.81L37.3663 51.802Z" fill="#C42E26"/>
</svg>
