<svg width="current" height="current" viewBox="0 0 262 153" fill="none" xmlns="http://www.w3.org/2000/svg">
<path d="M97.8996 41.2998C97.3996 41.2998 97.0996 41.6998 97.0996 42.1998C97.1996 43.8998 97.0996 45.2998 96.8996 46.5998C95.2996 55.7998 87.6996 62.1998 77.4996 62.8998C77.0996 62.8998 76.5996 62.8998 75.9996 62.8998C75.5996 62.8998 75.2996 63.0998 75.1996 63.4998C73.2996 68.6998 69.3996 82.1998 73.7996 93.4998C74.5996 95.6998 73.4996 98.0998 71.3996 98.9998C69.1996 99.7998 66.6996 98.6998 65.8996 96.5998C61.1996 84.2998 64.0996 70.4998 66.2996 63.4998C66.3996 63.2998 66.2996 62.9998 66.1996 62.7998C66.0996 62.5998 65.7996 62.3998 65.5996 62.3998H65.0996C63.9996 62.2998 62.7996 62.1998 61.6996 62.0998C60.5996 61.9998 59.4996 61.4998 58.7996 60.6998C58.0996 59.7998 57.6996 58.7998 57.7996 57.5998C57.9996 55.1998 59.8996 53.4998 62.2996 53.5998C64.0996 53.6998 65.8996 53.8998 67.7996 54.0998C71.0996 54.3998 74.4996 54.6998 76.9996 54.5998C84.4996 54.0998 87.8996 49.3998 88.5996 45.2998C89.3996 40.8998 87.3996 34.4998 79.3996 30.9998C63.7996 24.0998 41.1996 40.7998 30.2996 51.7998C30.0996 51.9998 30.0996 52.1998 30.0996 52.3998V100.6C30.0996 101 30.2996 101.3 30.6996 101.4C36.4996 103.4 48.8996 107.5 66.1996 111.8C71.5996 113.1 79.0996 114.2 86.5996 114.2C96.9996 114.2 107.7 112.2 113.6 106.5C125.2 95.1998 123.9 69.5998 120.6 58.2998C116.9 46.0998 109.3 40.3998 97.8996 41.2998Z" fill="#FF4848"/>
<path d="M20.6 54.4004H4.2C1.9 54.4004 0 56.3004 0 58.6004V95.5004C0 97.8004 1.9 99.7004 4.2 99.7004H20.5C21 99.7004 21.3 99.3004 21.3 98.9004V55.2004C21.4 54.7004 21.1 54.4004 20.6 54.4004Z" fill="#FF4848"/>
<path d="M185.5 28.9998C182.4 29.6998 179.9 31.7998 178.1 34.9998C178 35.1998 178 35.4998 178 35.6998C178.1 35.8998 178.3 36.0998 178.5 36.1998C185 38.6998 191.9 42.4998 199 47.4998C199.9 48.1998 200.5 49.0998 200.7 50.1998C200.9 51.2998 200.6 52.3998 200 53.3998C198.7 55.2998 196 55.7998 194.1 54.3998C178.1 43.0998 163.9 38.8998 154 42.2998C147.8 44.4998 143.4 49.7998 141 57.9998C137.7 69.1998 136.4 94.8998 148 106.2C153.9 112 164.6 113.9 175 113.9C182.6 113.9 190 112.9 195.4 111.5C212.8 107.2 225.1 103.2 230.9 101.1C231.2 101 231.5 100.7 231.5 100.3V52.2998C231.5 52.0998 231.4 51.7998 231.2 51.6998C228.2 48.9998 201 25.1998 185.5 28.9998Z" fill="#1C75BC"/>
<path d="M257.2 54.4004H240.9C240.4 54.4004 240.1 54.8004 240.1 55.2004V98.9004C240.1 99.4004 240.5 99.7004 240.9 99.7004H257.2C259.5 99.7004 261.4 97.8004 261.4 95.5004V58.6004C261.5 56.3004 259.6 54.4004 257.2 54.4004Z" fill="#1C75BC"/>
<path d="M130.8 0C128 0 125.7 2.3 125.7 5.1V19.4C125.7 22.2 128 24.5 130.8 24.5C133.6 24.5 135.9 22.2 135.9 19.4V5.1C135.9 2.3 133.6 0 130.8 0Z" fill="#FCFCFC"/>
<path d="M105 24.9001C105.8 27.0001 107.7 28.2001 109.8 28.2001C110.4 28.2001 111 28.1001 111.5 27.9001C114.1 26.9001 115.5 24.0001 114.5 21.4001L109.7 8.00008C108.7 5.40008 105.8 4.00008 103.2 5.00008C100.6 6.00008 99.2003 8.90008 100.2 11.5001L105 24.9001Z" fill="#FCFCFC"/>
<path d="M149.9 27.9005C150.5 28.1005 151.1 28.2005 151.6 28.2005C153.7 28.2005 155.6 26.9005 156.4 24.9005L161.3 11.4005C162.3 8.80047 160.9 5.80047 158.3 4.90047C155.7 3.90047 152.7 5.30047 151.8 7.90047L146.9 21.4005C145.9 24.0005 147.3 26.9005 149.9 27.9005Z" fill="#FCFCFC"/>
<path d="M130.7 127.7C127.9 127.7 125.6 130 125.6 132.8V147.1C125.6 149.9 127.9 152.2 130.7 152.2C133.5 152.2 135.8 149.9 135.8 147.1V132.8C135.8 130 133.5 127.7 130.7 127.7Z" fill="#FCFCFC"/>
<path d="M156.4 127.3C155.4 124.7 152.5 123.3 149.9 124.3C147.3 125.3 145.9 128.2 146.9 130.8L151.8 144.3C152.6 146.4 154.5 147.6 156.6 147.6C157.2 147.6 157.8 147.5 158.3 147.3C160.9 146.3 162.3 143.4 161.3 140.8L156.4 127.3Z" fill="#FCFCFC"/>
<path d="M111.6 124.3C109 123.3 106 124.7 105.1 127.3L100.2 140.8C99.2003 143.4 100.6 146.4 103.2 147.3C103.8 147.5 104.4 147.6 104.9 147.6C107 147.6 108.9 146.3 109.7 144.3L114.6 130.8C115.6 128.2 114.2 125.3 111.6 124.3Z" fill="#FCFCFC"/>
</svg>
