<svg width="current" height="current" xmlns="http://www.w3.org/2000/svg">
 <g className="layer">
  <title>Layer 1</title>
  <path d="m73.83,52.1c-0.06,-1.2 -0.43,-2.31 -1.06,-3.25c2.93,-2.55 2.39,-8.03 -0.97,-9.84c1.08,-4.77 -3.89,-8.95 -7.96,-6.73c-0.29,-0.24 -0.6,-0.45 -0.92,-0.61c0.82,-1.02 1.34,-2.23 1.52,-3.55l4.87,-5.21c8.03,3.57 12.07,-9.51 3.65,-11.81c-2.15,-9.05 -14.32,-4.71 -10.99,3.92l-4.87,5.23c-0.61,0.1 -1.19,0.28 -1.77,0.57c-1.23,-1.67 -3.21,-2.68 -5.18,-2.62c0.16,-5.1 -5.37,-8.88 -9.59,-6.52c-3.35,-4.95 -11.05,-2.95 -11.99,3.05c-2.36,0.52 -4.37,2.49 -5.04,5c-4.48,-1.06 -8.93,3.82 -7.81,8.6c-2.54,1.41 -4.05,4.91 -3.24,7.97c-1.87,1.53 -2.84,4.17 -2.45,6.68c-3.6,0.96 -5.84,5.59 -4.4,9.31c-5.52,1.55 -5.79,9.98 -0.39,11.94c0.48,5.66 4.93,10.12 10.33,10.12l49.32,0c5.4,0 9.85,-4.46 10.33,-10.12c5.89,-2.19 4.85,-11.51 -1.38,-12.13zm-9.32,-35.89c0.45,-0.49 0.51,-1.27 0.12,-1.81c-2.32,-3.51 2,-7.44 4.88,-4.54c0.62,0.67 0.96,1.56 0.95,2.51c0,0.38 0.13,0.74 0.38,1c0.25,0.26 0.57,0.39 0.93,0.4c0.88,-0.01 1.71,0.35 2.34,1.02c2.78,3.04 -1.01,7.76 -4.23,5.24c-0.52,-0.42 -1.23,-0.36 -1.69,0.13l-4.11,4.42c-0.61,-1.77 -2.04,-3.3 -3.67,-3.94l4.11,-4.42zm-45.58,8.07c1.14,-1.73 3.28,-2.37 5.1,-1.49c0.39,0.18 0.84,0.15 1.21,-0.08s0.6,-0.67 0.62,-1.13c0.03,-0.86 0.3,-1.69 0.75,-2.38c0.73,-1.1 1.9,-1.78 3.19,-1.85c0.67,-0.04 1.21,-0.63 1.23,-1.35c0.01,-0.89 0.29,-1.74 0.77,-2.48c1.26,-1.98 4.01,-2.49 5.83,-1.05c0.99,0.53 1.13,2.13 2.18,2.45c0.38,0.1 0.77,0.01 1.08,-0.24c1.47,-1.18 3.44,-1.23 4.92,-0.1c1.43,1.09 2.06,3.04 1.58,4.85c-0.3,1.02 0.67,2.05 1.61,1.73c1.51,-0.47 3.17,0 4.21,1.25c-1.12,1.02 -2.65,1.44 -4.21,1.12c-5.76,-1.2 -11.86,0.82 -16.48,5.39c-2.17,-4.06 -8.05,-4.49 -10.7,-0.77c-1.1,-0.63 -2.4,-0.85 -3.62,-0.68c-0.14,-1.09 0.08,-2.23 0.73,-3.19zm31.32,30.22c-2.83,2.63 -7.06,3.37 -10.53,1.83c-0.66,-0.29 -0.97,-1.1 -0.7,-1.81c0.27,-0.71 1.03,-1.06 1.69,-0.75c2.58,1.14 5.74,0.6 7.84,-1.37c1.28,-1.2 2.99,0.91 1.7,2.1zm-42.42,-5.41c0.32,-2.03 1.95,-3.54 3.85,-3.6c0.43,-0.01 0.83,-0.25 1.06,-0.64c0.23,-0.39 0.27,-0.88 0.1,-1.3c-0.31,-0.78 -0.4,-1.62 -0.27,-2.43c0.21,-1.3 0.96,-2.4 2.06,-3.05c0.6,-0.35 0.83,-1.13 0.56,-1.78c-0.32,-0.79 -0.43,-1.66 -0.3,-2.51c0.45,-3.16 4.19,-4.74 6.48,-2.63c0.61,0.56 1.62,0.32 1.97,-0.45c1.47,-3.26 6.09,-3.02 7.27,0.35c-9.4,11.62 -4.01,30.43 11.23,30.52c11.59,0.25 21.94,-12.66 19.52,-24.77c-0.18,-0.96 -0.12,-1.91 0.14,-2.77c0.44,0.2 0.84,0.49 1.18,0.89c1.1,1.31 2.17,-0.53 3.41,-0.45c2.25,-0.18 3.97,2.55 2.88,4.71c-0.36,0.75 0.06,1.76 0.84,1.97c1.3,0.36 2.21,1.56 2.27,2.98c0.06,1.37 -0.69,2.65 -1.88,3.18c-0.92,0.38 -1.08,1.83 -0.26,2.41c0.71,0.56 1.16,1.39 1.25,2.31l-9.96,0c-7.87,15.16 -29.96,17.45 -36.59,0l-16.3,0c-0.48,-0.86 -0.71,-1.9 -0.53,-2.95zm57.04,22.47l-49.32,0c-3.85,0 -7.06,-3.02 -7.68,-6.97l64.69,0c-0.62,3.94 -3.83,6.97 -7.68,6.97z" id="svg_1" stroke="white" />
 </g>
</svg>