<svg width="current" height="current" viewBox="0 0 161 115" fill="none" xmlns="http://www.w3.org/2000/svg">
<path d="M93.6554 75.834H70.2836V101.596C70.2836 102.369 69.9059 103.093 69.272 103.536L60.2211 109.854C58.3232 111.179 59.2607 114.16 61.5753 114.16H102.364C104.678 114.16 105.616 111.179 103.718 109.854L94.667 103.536C94.0331 103.093 93.6554 102.369 93.6554 101.596V75.834Z" fill="#919191"/>
<path d="M21.4053 11.0114C21.4053 8.13688 23.7355 5.80664 26.61 5.80664H139.221C142.096 5.80664 144.426 8.13688 144.426 11.0114V75.8338C144.426 78.7083 142.096 81.0386 139.221 81.0386H26.61C23.7355 81.0386 21.4053 78.7083 21.4053 75.8338V11.0114Z" fill="#E2E2E2"/>
<path d="M26.6104 15.7428C26.6104 13.3909 28.5169 11.4844 30.8688 11.4844H134.963C137.315 11.4844 139.222 13.3909 139.222 15.7428V60.2195C139.222 62.5714 137.315 64.4779 134.963 64.4779H30.8688C28.5169 64.4779 26.6104 62.5714 26.6104 60.2195V15.7428Z" fill="#F4FB7A"/>
<path d="M46.0098 74.4146C46.0098 72.5854 47.4926 71.1025 49.3219 71.1025H53.5803C55.4095 71.1025 56.8924 72.5854 56.8924 74.4146V74.4146H46.0098V74.4146Z" fill="#919191"/>
<path d="M16.2012 74.4146C16.2012 72.5854 17.684 71.1025 19.5133 71.1025H23.7717C25.6009 71.1025 27.0838 72.5854 27.0838 74.4146V74.4146H16.2012V74.4146Z" fill="#919191"/>
<path d="M59.1713 111.068C59.8576 112.926 61.6288 114.16 63.6097 114.16H68.3663C71.436 114.16 73.6931 111.282 72.9616 108.301L66.5045 81.9836C65.4142 77.5398 61.4301 74.415 56.8544 74.415H16.277C11.7055 74.415 7.72386 77.5342 6.62956 81.9729L0.139836 108.296C-0.595484 111.279 1.66199 114.16 4.73385 114.16H9.49449C11.47 114.16 13.2375 112.933 13.9278 111.082L16.5784 103.974C17.2687 102.123 19.0362 100.896 21.0117 100.896H52.1177C54.0986 100.896 55.8698 102.13 56.5562 103.988L59.1713 111.068Z" fill="#C6C6C6"/>
<path d="M50.5518 92.3946C53.7399 92.3946 56.3243 89.8102 56.3243 86.6221C56.3243 83.4341 53.7399 80.8496 50.5518 80.8496C47.3637 80.8496 44.7793 83.4341 44.7793 86.6221C44.7793 89.8102 47.3637 92.3946 50.5518 92.3946Z" fill="#B484F1"/>
<path d="M30.3956 84.2095H26.0425V79.8564H21.2163V84.2095H16.8633V89.0357H21.2163V93.3887H26.0425V89.0357H30.3956V84.2095Z" fill="#B484F1"/>
<path d="M141.393 28.3553L134.86 31.375L138.154 38.5012L144.687 35.4815L141.393 28.3553Z" fill="#ABABAB"/>
<path d="M129.384 1.21891L121.97 4.64615C120.784 5.19439 120.267 6.60027 120.816 7.78628L131.28 30.4232C131.828 31.6092 133.234 32.1262 134.42 31.578L141.834 28.1508C143.02 27.6025 143.537 26.1966 142.989 25.0106L132.525 2.37367C131.976 1.18767 130.57 0.670667 129.384 1.21891Z" fill="#C6C6C6"/>
<path d="M154.067 64.3506C148.768 66.8005 142.47 64.8273 139.516 59.7307L135.404 52.6146C132.044 46.8036 134.386 39.4094 140.425 36.6177L141.781 35.991C147.82 33.1992 154.969 36.2063 157.219 42.5301L159.976 50.2729C161.883 55.8538 159.367 61.9007 154.067 64.3506Z" fill="#E2E2E2"/>
</svg>
