<svg width="248" height="247" viewBox="0 0 248 247" fill="none" xmlns="http://www.w3.org/2000/svg">
<rect width="248" height="247" rx="24" fill="#F7FF7D"/>
<path d="M41.856 33.984H45.632V62.656H41.856V33.984ZM20.64 53.92C26.432 50.464 28.96 46.272 29.504 40.576H22.208V37.408H33.408C33.408 40.128 33.12 42.688 32.416 45.056H35.808V34.624H39.52V61.376H35.808V48.224H31.2C29.568 51.488 26.912 54.336 22.88 56.704L20.64 53.92ZM68.7368 34.016H72.7368V50.24H68.7368V34.016ZM49.3768 42.208C49.3768 38.176 52.7048 35.328 57.1528 35.328C61.6008 35.328 64.9288 38.176 64.9288 42.208C64.9288 46.176 61.6008 49.056 57.1528 49.056C52.7048 49.056 49.3768 46.176 49.3768 42.208ZM53.2488 42.208C53.2488 44.416 54.9128 45.76 57.1528 45.76C59.3928 45.76 61.0568 44.416 61.0568 42.208C61.0568 39.968 59.3928 38.624 57.1528 38.624C54.9128 38.624 53.2488 39.968 53.2488 42.208ZM53.6968 62.368V51.552H72.7368V62.368H53.6968ZM57.6008 59.232H68.8648V54.656H57.6008V59.232ZM93.8725 41.536L93.8405 45.888L97.9365 44.576L98.9285 47.712L94.8645 48.96L97.5525 52.608L94.9925 54.656L92.2085 50.944L89.4245 54.656L86.9285 52.576L89.5845 48.96L85.4885 47.712L86.5125 44.576L90.5445 45.888L90.5125 41.536H93.8725ZM21.024 96.064H46.976V99.328H21.024V96.064ZM23.04 79.68V76.48H44.8V79.68H40.864V88.384H44.736V91.584H23.168V88.384H26.976V79.68H23.04ZM30.976 88.384H36.928V79.68H30.976V88.384ZM48.9928 96.224H59.9368V91.84H52.0008V82.24H68.0648V79.008H51.9368V75.872H72.0008V85.312H55.9048V88.672H72.6408V91.84H63.9048V96.224H74.9448V99.456H48.9928V96.224ZM97.7935 73.984H101.57V102.656H97.7935V73.984ZM76.5775 93.92C82.3695 90.464 84.8975 86.272 85.4415 80.576H78.1455V77.408H89.3455C89.3455 80.128 89.0575 82.688 88.3535 85.056H91.7455V74.624H95.4575V101.376H91.7455V88.224H87.1375C85.5055 91.488 82.8495 94.336 78.8175 96.704L76.5775 93.92ZM124.642 73.952H128.642V102.72H124.642V73.952ZM105.698 86.208C105.698 79.936 108.898 76 113.25 76C117.57 76 120.738 79.936 120.738 86.208C120.738 92.512 117.57 96.448 113.25 96.448C108.898 96.448 105.698 92.512 105.698 86.208ZM109.538 86.208C109.538 90.496 111.042 92.864 113.25 92.864C115.426 92.864 116.93 90.496 116.93 86.208C116.93 81.92 115.426 79.584 113.25 79.584C111.042 79.584 109.538 81.92 109.538 86.208ZM133.923 76.544H147.555V83.936H152.931V73.952H156.867V102.72H152.931V87.136H147.555V95.68H133.923V76.544ZM137.827 92.576H143.619V79.648H137.827V92.576Z" fill="black"/>
<path d="M234.726 234.081L219.655 166.416C216.984 154.442 207.54 145.509 195.807 143.228C195.616 139.141 192.278 135.91 188.176 135.91H175.966C172.055 135.91 168.811 138.856 168.43 142.658H120.544C120.067 138.856 116.919 135.91 113.008 135.91H100.702C96.6006 135.91 93.2619 139.141 93.0711 143.228C81.4335 145.509 71.8944 154.537 69.2235 166.416L54.2471 234.081C52.8162 240.638 57.7766 246.91 64.5493 246.91H81.5289C85.8214 246.91 89.7325 244.249 91.3541 240.258L101.561 214.599C103.183 210.607 107.094 207.946 111.386 207.946H177.587C181.88 207.946 185.791 210.607 187.413 214.599L197.619 240.258C199.241 244.249 203.152 246.91 207.445 246.91H224.424C231.197 246.815 236.253 240.638 234.726 234.081Z" fill="#14B5FF"/>
<path d="M181.976 187.513C189.988 187.513 196.57 181.051 196.57 172.973C196.57 164.99 190.084 158.433 181.976 158.433C173.867 158.433 167.381 164.895 167.381 172.973C167.381 181.051 173.963 187.513 181.976 187.513Z" fill="#EFFE37"/>
<path d="M126.553 166.986H115.583V155.962H103.373V166.891H92.4033V179.055H103.373V189.984H115.583V179.055H126.553V166.986Z" fill="#EFFE37"/>
</svg>
