<svg width="80" height="80">
 <g className="layer">
  <title>Layer 1</title>
  <g id="svg_1" stroke="white">
   <path d="m1,79.13l63.01,0l0,-22.68l-63.01,0l0,22.68zm2.52,-20.16l57.97,0l0,17.64l-57.97,0l0,-17.64z" id="svg_2"/>
   <rect height="2.52" id="svg_3" width="2.52" x="6.04" y="71.57"/>
   <rect height="2.52" id="svg_4" width="2.52" x="11.08" y="71.57"/>
   <rect height="2.52" id="svg_5" width="32.76" x="16.12" y="71.57"/>
   <rect height="2.52" id="svg_6" width="2.52" x="51.41" y="71.57"/>
   <rect height="2.52" id="svg_7" width="2.52" x="56.45" y="71.57"/>
   <rect height="2.52" id="svg_8" width="2.52" x="6.04" y="66.53"/>
   <rect height="2.52" id="svg_9" width="2.52" x="11.08" y="66.53"/>
   <rect height="2.52" id="svg_10" width="2.52" x="16.12" y="66.53"/>
   <rect height="2.52" id="svg_11" width="2.52" x="21.16" y="66.53"/>
   <rect height="2.52" id="svg_12" width="2.52" x="26.2" y="66.53"/>
   <rect height="2.52" id="svg_13" width="2.52" x="31.24" y="66.53"/>
   <rect height="2.52" id="svg_14" width="2.52" x="36.28" y="66.53"/>
   <rect height="2.52" id="svg_15" width="2.52" x="41.32" y="66.53"/>
   <rect height="2.52" id="svg_16" width="2.52" x="46.37" y="66.53"/>
   <rect height="2.52" id="svg_17" width="2.52" x="51.41" y="66.53"/>
   <rect height="2.52" id="svg_18" width="2.52" x="56.45" y="66.53"/>
   <rect height="2.52" id="svg_19" width="2.52" x="6.04" y="61.49"/>
   <rect height="2.52" id="svg_20" width="2.52" x="11.08" y="61.49"/>
   <rect height="2.52" id="svg_21" width="2.52" x="16.12" y="61.49"/>
   <rect height="2.52" id="svg_22" width="2.52" x="21.16" y="61.49"/>
   <rect height="2.52" id="svg_23" width="2.52" x="26.2" y="61.49"/>
   <rect height="2.52" id="svg_24" width="2.52" x="31.24" y="61.49"/>
   <rect height="2.52" id="svg_25" width="2.52" x="36.28" y="61.49"/>
   <rect height="2.52" id="svg_26" width="2.52" x="41.32" y="61.49"/>
   <rect height="2.52" id="svg_27" width="2.52" x="46.37" y="61.49"/>
   <rect height="2.52" id="svg_28" width="2.52" x="51.41" y="61.49"/>
   <rect height="2.52" id="svg_29" width="2.52" x="56.45" y="61.49"/>
   <path d="m74.09,56.57l0,-1.39c0,-2.08 -1.7,-3.78 -3.78,-3.78l-5.04,0c-0.69,0 -1.26,-0.57 -1.26,-1.26l0,-1.26l6.3,0c3.48,0 6.3,-2.82 6.3,-6.3l0,-35.28c0,-3.48 -2.82,-6.3 -6.3,-6.3l-60.49,0c-3.48,0 -6.3,2.82 -6.3,6.3l0,35.28c0,3.48 2.82,6.3 6.3,6.3l17.64,0l0,2.52l-5.04,0l0,2.52l35.28,0l0,-2.52l-5.04,0l0,-2.52l8.82,0l0,1.26c0,2.08 1.7,3.78 3.78,3.78l5.04,0c0.69,0 1.26,0.57 1.26,1.26l0,1.39c-2.87,0.59 -5.04,3.14 -5.04,6.17l0,10.08c0,3.48 2.82,6.3 6.3,6.3s6.3,-2.82 6.3,-6.3l0,-10.08c0,-3.04 -2.17,-5.58 -5.04,-6.17zm-68.05,-13.99l0,-1.26l60.49,0l0,-2.52l-60.49,0l0,-31.5c0,-2.08 1.7,-3.78 3.78,-3.78l60.49,0c2.08,0 3.78,1.7 3.78,3.78l0,31.5l-5.04,0l0,2.52l5.04,0l0,1.26c0,2.08 -1.7,3.78 -3.78,3.78l-60.49,0c-2.08,0 -3.78,-1.7 -3.78,-3.78zm44.11,8.82l-20.16,0l0,-2.52l20.16,0l0,2.52zm22.68,7.56c2.08,0 3.78,1.7 3.78,3.78l0,1.26l-2.52,0l0,-2.52l-2.52,0l0,2.52l-2.52,0l0,-1.26c0,-2.08 1.7,-3.78 3.78,-3.78zm0,17.64c-2.08,0 -3.78,-1.7 -3.78,-3.78l0,-6.3l7.56,0l0,6.3c0,2.08 -1.7,3.78 -3.78,3.78z" id="svg_30"/>
   <path d="m25.67,26.2l2.31,0l5.04,-5.04l-5.04,-5.04l-2.31,0l-3.6,-6.3l2.87,0l0,-2.52l-10.5,0l2.52,8.82l-2.1,0l0,10.08l2.1,0l-2.52,8.82l10.5,0l0,-2.52l-2.87,0l3.6,-6.3zm3.79,-5.04l-2.52,2.52l-9.56,0l0,-5.04l9.56,0l2.52,2.52zm-11.67,-11.34l1.37,0l3.6,6.3l-3.19,0l-1.79,-6.3zm1.79,16.38l3.19,0l-3.6,6.3l-1.37,0l1.79,-6.3z" id="svg_31"/>
   <rect height="2.52" id="svg_32" width="2.52" x="27.46" y="7.3"/>
   <rect height="2.52" id="svg_33" width="2.52" x="32.5" y="7.3"/>
   <rect height="2.52" id="svg_34" width="2.52" x="37.54" y="7.3"/>
   <rect height="2.52" id="svg_35" width="2.52" x="42.58" y="7.3"/>
   <rect height="2.52" id="svg_36" width="2.52" x="47.63" y="7.3"/>
   <rect height="2.52" id="svg_37" width="2.52" x="52.67" y="7.3"/>
   <rect height="2.52" id="svg_38" width="2.52" x="57.71" y="7.3"/>
   <rect height="2.52" id="svg_39" width="2.52" x="27.46" y="32.5"/>
   <rect height="2.52" id="svg_40" width="2.52" x="32.5" y="32.5"/>
   <rect height="2.52" id="svg_41" width="2.52" x="37.54" y="32.5"/>
   <rect height="2.52" id="svg_42" width="2.52" x="42.58" y="32.5"/>
   <rect height="2.52" id="svg_43" width="2.52" x="47.63" y="32.5"/>
   <rect height="2.52" id="svg_44" width="2.52" x="52.67" y="32.5"/>
   <rect height="2.52" id="svg_45" width="2.52" x="57.71" y="32.5"/>
  </g>
 </g>
</svg>