<svg width="19" height="22" viewBox="0 0 19 22" fill="none" xmlns="http://www.w3.org/2000/svg">
<g id="logo/debatory/icononly">
<path id="logo/debatory/icononly_2" d="M18.4635 7.06362C18.1597 6.14776 17.7799 5.30823 17.3241 4.62134C16.8684 3.93445 16.3366 3.32388 15.653 2.78963C15.2732 2.48435 14.8934 2.17907 14.4376 1.9501C13.9818 1.64482 13.4501 1.41585 12.7665 1.18689C12.0828 0.957927 11.3992 0.805285 10.5636 0.652642C9.72805 0.5 8.74057 0.5 7.60116 0.5H3.42332C1.60027 0.576321 0.0810547 2.10274 0.0810547 3.93445V15.5353C0.0810547 17.367 1.60027 18.8934 3.42332 18.8934H7.905V20.8014C7.905 21.2593 8.2848 21.5646 8.74057 21.4883C11.2473 21.1067 18.9193 19.1987 18.9193 10.727C18.9193 10.727 18.9193 10.2691 18.9193 9.96382C18.9193 9.04797 18.7674 7.97947 18.4635 7.06362ZM5.32234 10.5744C4.86657 10.5744 4.48677 10.1928 4.48677 9.73486C4.48677 9.27693 4.86657 8.89533 5.32234 8.89533C5.7781 8.89533 6.1579 9.27693 6.1579 9.73486C6.1579 10.1928 5.7781 10.5744 5.32234 10.5744ZM9.50017 10.5744C9.04441 10.5744 8.66461 10.1928 8.66461 9.73486C8.66461 9.27693 9.04441 8.89533 9.50017 8.89533C9.95594 8.89533 10.3357 9.27693 10.3357 9.73486C10.3357 10.1928 9.95594 10.5744 9.50017 10.5744ZM13.678 10.5744C13.2222 10.5744 12.8424 10.1928 12.8424 9.73486C12.8424 9.27693 13.2222 8.89533 13.678 8.89533C14.1338 8.89533 14.5136 9.27693 14.5136 9.73486C14.5136 10.1928 14.1338 10.5744 13.678 10.5744Z" fill="#EFFE37"/>
</g>
</svg>
