<svg width="81" height="53" viewBox="0 0 81 53" fill="none" xmlns="http://www.w3.org/2000/svg">
<g filter="url(#filter0_d_411_1779)">
<path d="M75.3956 24.8372C71.9545 18.4119 62.9632 18.5208 56.747 16.0161C59.0781 15.2538 61.8531 15.7983 64.4062 16.6695C66.6263 17.1051 69.4014 20.0455 71.2884 17.5407C71.8435 16.5606 74.6185 13.6202 74.3965 12.3134C74.3965 11.5511 74.3965 10.7888 74.3965 10.0265C74.3965 8.61074 74.7295 6.86831 73.2865 5.99709C68.9574 3.38344 64.7392 2.40332 59.3001 2.40332C50.5308 2.40332 43.5376 7.08611 44.2036 16.125C44.2036 16.7784 44.2036 17.4318 44.2036 18.0852C43.4266 29.8466 55.748 29.5199 63.8512 32.6781C59.4111 33.9849 54.3049 32.3514 50.1978 29.8466C49.0878 29.1932 47.6447 29.3021 46.8677 30.2823C46.3127 31.1535 43.3156 33.876 43.4266 35.0739C43.4266 35.5096 43.4266 35.8363 43.4266 36.2719C43.4266 37.3609 43.4266 38.341 43.4266 39.43C43.6486 44.1128 56.525 46.5087 60.6321 46.3998C69.7344 46.3998 77.0606 42.0437 76.3946 32.4603C76.3946 31.9158 76.3946 31.2624 76.3946 30.7179C76.3946 30.5001 76.3946 30.1734 76.3946 29.9555C76.5056 27.9953 76.1726 26.144 75.3956 24.8372Z" fill="url(#paint0_linear_411_1779)"/>
<path d="M43.6486 9.59078C43.6486 8.61066 43.6486 7.63054 43.6486 6.65043C43.6486 6.32372 43.6486 5.99701 43.6486 5.67031C43.7596 4.25458 42.6495 2.94775 41.2065 2.94775H34.7683C33.7693 2.94775 32.7702 3.60117 32.4372 4.58129L24.223 27.124L15.8977 4.69019C15.5647 3.71007 14.6767 3.05666 13.5667 3.05666H6.90647C5.35242 3.05666 4.35339 4.47238 4.4644 5.77921C4.4644 6.32372 4.4644 6.86823 4.4644 7.30384C4.4644 7.84835 4.4644 8.50176 4.4644 9.04627C4.4644 9.59078 4.35339 10.1353 4.5754 10.7887L18.3398 44.4395C18.6728 45.4196 19.6719 45.9641 20.6709 45.9641H27.3311C28.3301 45.9641 29.2181 45.3107 29.6622 44.4395L43.5376 10.7887C43.6486 10.462 43.7596 10.0264 43.6486 9.59078Z" fill="url(#paint1_linear_411_1779)"/>
</g>
<path d="M32.2153 34.0937L29.7732 40.0834C29.4402 41.0635 28.4412 41.608 27.4422 41.608H20.782C19.7829 41.608 18.8949 40.9546 18.4509 40.0834L4.68648 6.43261C4.02046 4.79907 5.2415 3.05664 7.01755 3.05664H13.6777C14.6768 3.05664 15.6758 3.71005 16.0088 4.69017L24.2231 27.2329L32.4373 4.69017C32.7703 3.71005 33.7694 3.05664 34.7684 3.05664H41.2066C42.9826 3.05664 44.2037 4.79907 43.5376 6.43261L32.2153 34.0937Z" fill="white"/>
<path d="M60.6321 41.9348C57.191 41.9348 53.8609 41.3903 50.6418 40.3012C48.3108 39.5389 46.3127 38.4499 44.3147 37.1431C43.2046 36.3808 42.9826 34.6383 43.8706 33.6582L46.7567 30.2823C47.5338 29.3021 48.9768 29.1932 50.0868 29.8466C53.4169 32.0247 57.08 33.1137 60.8542 33.1137C62.2972 33.1137 63.4072 32.8959 64.1843 32.4603C64.9613 32.0247 65.2943 31.3713 65.2943 30.5001V30.3912C65.2943 29.9556 65.1833 29.6288 65.0723 29.3021C64.8503 28.9754 64.5173 28.6487 64.0733 28.4309C63.5182 28.1042 62.8522 27.8864 62.0752 27.5597C61.1872 27.233 60.1881 27.0152 58.8561 26.6885C56.747 26.2529 54.86 25.7084 53.0839 25.1639C51.3079 24.6193 49.7538 23.857 48.4218 22.9858C47.0897 22.1146 46.0907 21.0256 45.3137 19.6099C44.5367 18.303 44.2037 16.6695 44.2037 14.7093V14.6004C44.2037 12.8579 44.5367 11.2244 45.2027 9.69976C45.8687 8.17513 46.8677 6.86831 48.1998 5.77929C49.5318 4.69026 51.0859 3.81905 52.9729 3.27454C54.86 2.73003 56.969 2.40332 59.3001 2.40332C62.6302 2.40332 65.6273 2.83893 68.1804 3.71015C69.9564 4.25466 71.6215 5.12587 73.1755 6.10599C74.3966 6.86831 74.6186 8.39294 73.8415 9.59086L71.2885 13.1846C70.5114 14.2736 69.0684 14.4915 67.9584 13.838C66.8483 13.1846 65.6273 12.6401 64.4063 12.2045C62.5192 11.5511 60.7432 11.2244 58.9671 11.2244C57.6351 11.2244 56.747 11.4422 56.081 11.9867C55.415 12.4223 55.082 13.0757 55.082 13.7291V13.838C55.082 14.2736 55.193 14.7093 55.415 15.036C55.637 15.3627 55.97 15.6894 56.525 15.9072C57.08 16.2339 57.7461 16.4517 58.6341 16.7784C59.5221 17.1051 60.6321 17.3229 61.9642 17.6496C64.1843 18.0852 66.1823 18.6297 67.9584 19.2831C69.7344 19.9366 71.2885 20.6989 72.5095 21.5701C73.7305 22.4413 74.7296 23.5303 75.3956 24.8372C76.0616 26.144 76.3946 27.6686 76.3946 29.411V29.5199C76.3946 31.4802 76.0616 33.2226 75.2846 34.7472C74.5076 36.2719 73.5085 37.5787 72.0655 38.6677C70.7335 39.7567 69.0684 40.5191 67.0703 41.1725C65.1833 41.6081 63.0742 41.9348 60.6321 41.9348Z" fill="white"/>
<g filter="url(#filter1_i_411_1779)">
<path d="M32.2153 34.0937L29.7732 40.0834C29.4402 41.0635 28.4412 41.608 27.4422 41.608H20.782C19.7829 41.608 18.8949 40.9546 18.4509 40.0834L4.68648 6.43261C4.02046 4.79907 5.2415 3.05664 7.01755 3.05664H13.6777C14.6768 3.05664 15.6758 3.71005 16.0088 4.69017L24.2231 27.2329L32.4373 4.69017C32.7703 3.71005 33.7694 3.05664 34.7684 3.05664H41.2066C42.9826 3.05664 44.2037 4.79907 43.5376 6.43261L32.2153 34.0937Z" fill="#F7FF7D"/>
<path d="M60.6321 41.9348C57.191 41.9348 53.8609 41.3903 50.6418 40.3012C48.3108 39.5389 46.3127 38.4499 44.3147 37.1431C43.2046 36.3808 42.9826 34.6383 43.8706 33.6582L46.7567 30.2823C47.5338 29.3021 48.9768 29.1932 50.0868 29.8466C53.4169 32.0247 57.08 33.1137 60.8542 33.1137C62.2972 33.1137 63.4072 32.8959 64.1843 32.4603C64.9613 32.0247 65.2943 31.3713 65.2943 30.5001V30.3912C65.2943 29.9556 65.1833 29.6288 65.0723 29.3021C64.8503 28.9754 64.5173 28.6487 64.0733 28.4309C63.5182 28.1042 62.8522 27.8864 62.0752 27.5597C61.1872 27.233 60.1881 27.0152 58.8561 26.6885C56.747 26.2529 54.86 25.7084 53.0839 25.1639C51.3079 24.6193 49.7538 23.857 48.4218 22.9858C47.0897 22.1146 46.0907 21.0256 45.3137 19.6099C44.5367 18.303 44.2037 16.6695 44.2037 14.7093V14.6004C44.2037 12.8579 44.5367 11.2244 45.2027 9.69976C45.8687 8.17513 46.8677 6.86831 48.1998 5.77929C49.5318 4.69026 51.0859 3.81905 52.9729 3.27454C54.86 2.73003 56.969 2.40332 59.3001 2.40332C62.6302 2.40332 65.6273 2.83893 68.1804 3.71015C69.9564 4.25466 71.6215 5.12587 73.1755 6.10599C74.3966 6.86831 74.6186 8.39294 73.8415 9.59086L71.2885 13.1846C70.5114 14.2736 69.0684 14.4915 67.9584 13.838C66.8483 13.1846 65.6273 12.6401 64.4063 12.2045C62.5192 11.5511 60.7432 11.2244 58.9671 11.2244C57.6351 11.2244 56.747 11.4422 56.081 11.9867C55.415 12.4223 55.082 13.0757 55.082 13.7291V13.838C55.082 14.2736 55.193 14.7093 55.415 15.036C55.637 15.3627 55.97 15.6894 56.525 15.9072C57.08 16.2339 57.7461 16.4517 58.6341 16.7784C59.5221 17.1051 60.6321 17.3229 61.9642 17.6496C64.1843 18.0852 66.1823 18.6297 67.9584 19.2831C69.7344 19.9366 71.2885 20.6989 72.5095 21.5701C73.7305 22.4413 74.7296 23.5303 75.3956 24.8372C76.0616 26.144 76.3946 27.6686 76.3946 29.411V29.5199C76.3946 31.4802 76.0616 33.2226 75.2846 34.7472C74.5076 36.2719 73.5085 37.5787 72.0655 38.6677C70.7335 39.7567 69.0684 40.5191 67.0703 41.1725C65.1833 41.6081 63.0742 41.9348 60.6321 41.9348Z" fill="#F7FF7D"/>
</g>
<defs>
<filter id="filter0_d_411_1779" x="0.436646" y="0.40332" width="80.0001" height="52" filterUnits="userSpaceOnUse" color-interpolation-filters="sRGB">
<feFlood flood-opacity="0" result="BackgroundImageFix"/>
<feColorMatrix in="SourceAlpha" type="matrix" values="0 0 0 0 0 0 0 0 0 0 0 0 0 0 0 0 0 0 127 0" result="hardAlpha"/>
<feOffset dy="2"/>
<feGaussianBlur stdDeviation="2"/>
<feComposite in2="hardAlpha" operator="out"/>
<feColorMatrix type="matrix" values="0 0 0 0 0 0 0 0 0 0 0 0 0 0 0 0 0 0 0.18 0"/>
<feBlend mode="normal" in2="BackgroundImageFix" result="effect1_dropShadow_411_1779"/>
<feBlend mode="normal" in="SourceGraphic" in2="effect1_dropShadow_411_1779" result="shape"/>
</filter>
<filter id="filter1_i_411_1779" x="4.50208" y="2.40332" width="71.8926" height="39.5312" filterUnits="userSpaceOnUse" color-interpolation-filters="sRGB">
<feFlood flood-opacity="0" result="BackgroundImageFix"/>
<feBlend mode="normal" in="SourceGraphic" in2="BackgroundImageFix" result="shape"/>
<feColorMatrix in="SourceAlpha" type="matrix" values="0 0 0 0 0 0 0 0 0 0 0 0 0 0 0 0 0 0 127 0" result="hardAlpha"/>
<feOffset/>
<feGaussianBlur stdDeviation="1"/>
<feComposite in2="hardAlpha" operator="arithmetic" k2="-1" k3="1"/>
<feColorMatrix type="matrix" values="0 0 0 0 0.664425 0 0 0 0 0.675 0 0 0 0 0.14625 0 0 0 0.6 0"/>
<feBlend mode="normal" in2="shape" result="effect1_innerShadow_411_1779"/>
</filter>
<linearGradient id="paint0_linear_411_1779" x1="59.9301" y1="2.40332" x2="59.9301" y2="46.4033" gradientUnits="userSpaceOnUse">
<stop stop-color="#EDFC38"/>
<stop offset="0.848958" stop-color="#BDC831"/>
<stop offset="1" stop-color="#ADB829"/>
</linearGradient>
<linearGradient id="paint1_linear_411_1779" x1="24.0656" y1="2.94775" x2="24.0656" y2="45.9641" gradientUnits="userSpaceOnUse">
<stop stop-color="#E4F237"/>
<stop offset="0.838542" stop-color="#BDC831"/>
<stop offset="1" stop-color="#ADB829"/>
</linearGradient>
</defs>
</svg>
