<?xml version="1.0"?>
<svg width="80" height="80" xmlns="http://www.w3.org/2000/svg">
 <title>9_japan idol</title>
 <g className="layer">
  <title>Layer 1</title>
  <g id="svg_5" stroke="white">
   <path d="m7.01,61.86a5.2,4.39 0 0 0 2.56,3.45a8.01,6.76 0 0 0 1.39,0.53a4.07,3.43 0 0 1 2.15,1.5c0.92,1.3 3.12,3.49 7.56,3.52a4.49,3.79 0 0 1 3.01,1a9.06,7.65 0 0 0 2.86,1.49l1.83,5.44a1.17,0.99 0 1 0 2.25,-0.54l-1.48,-4.4c0.28,0.02 0.57,0.03 0.87,0.03a12.76,10.77 0 0 0 3.87,-0.54a4.29,3.62 0 0 1 2.1,-0.12l0,5.29a1.17,0.99 0 0 0 2.33,0l0,-4.81a9.34,7.88 0 0 0 6.9,-1.42a4.09,3.45 0 0 1 0.53,-0.27l-2.08,6.23a1.17,0.99 0 1 0 2.25,0.53l2.38,-7.13c1.77,0.19 4.37,0.11 6.67,-1.33a4.08,3.44 0 0 1 2.21,-0.65c1.56,-0.07 3.8,-0.59 5.61,-2.62a4.39,3.7 0 0 1 1.39,-1.02c1.53,-0.71 4.1,-2.47 4.04,-6.29a5.25,4.43 0 0 0 -2.88,-3.92a25.48,21.52 0 0 0 -3.65,-1.26a4.77,4.03 0 0 0 -0.36,-1.6a4.68,3.95 0 0 0 -4.36,-2.48l-0.04,0c-0.74,0 -1.47,-0.01 -2.16,-0.04a9.59,8.1 0 0 1 -2.2,-0.32a44.38,37.47 0 0 0 4.6,-1.13a3.97,3.35 0 0 0 2.61,-3.7c-0.12,-0.6 -0.22,-1.24 -0.31,-1.91l3.69,2.63a1.17,0.99 0 0 0 1.35,0.1a39.52,33.37 0 0 0 11.12,-8.16a4.34,3.67 0 0 0 0.33,-4.1c-4.05,-5.86 -12.71,-10.62 -13.08,-10.82l-0.25,-0.14a1.17,0.99 0 1 0 -1.28,1.65l0.26,0.14c0.08,0.04 8.56,4.72 12.33,10.16a2.02,1.7 0 0 1 -0.17,1.9a36.97,31.22 0 0 1 -9.75,7.31l-5.22,-3.72a1.17,0.99 0 0 0 -1.92,0.82c0.13,1.61 0.33,3.11 0.59,4.46a1.64,1.38 0 0 1 -1.09,1.52a42.73,36.08 0 0 1 -7.07,1.54a9.1,7.68 0 0 1 -1.56,-1.38a14.75,12.45 0 0 1 -1.25,-1.71a1.17,0.99 0 0 0 -2.08,0.9a17.18,14.51 0 0 0 1.44,1.98a11.6,9.8 0 0 0 8.77,3.96c0.74,0.03 1.52,0.05 2.3,0.04l0.02,0a2.37,2 0 0 1 1.65,3.43a4.86,4.1 0 0 1 -1.67,0.88a6.94,5.86 0 0 0 -2.93,1.84c-0.9,0.94 -2.74,1.26 -3.75,1.37a6.68,5.64 0 0 0 -3.18,1.12c-1.51,0.96 -3.3,1.17 -5.31,0.62a6.61,5.58 0 0 0 -5.25,0.43c-2.55,1.16 -4.96,0.46 -6.54,-0.34a6.43,5.43 0 0 0 -3.66,-0.75c-2.95,0.13 -4.6,-0.94 -5.47,-1.86a6.75,5.7 0 0 0 -3.54,-1.92a4.46,3.77 0 0 1 -1.86,-0.86a1.67,1.41 0 0 1 -0.49,-1.41a1.73,1.46 0 0 1 1.28,-1.06a29.76,25.13 0 0 0 5.53,-1.61c0.01,-0.01 0.03,-0.01 0.05,-0.02c3.56,-1.64 5.78,-4.16 6.97,-5.88a3.16,2.67 0 0 0 0.43,0.03l6.64,0a13.61,11.49 0 0 0 8.21,-2.28a14.91,12.59 0 0 0 2.23,-1.75a2.52,2.13 0 0 0 0.2,-2.56c-0.04,-0.05 -0.08,-0.11 -0.11,-0.16a1.3,1.1 0 0 1 0.07,-1.07c1.35,-1.98 1.02,-4.83 1.01,-4.95l0,0a7.38,6.23 0 0 0 -1.69,-3.24a1.17,0.99 0 0 0 -1.73,1.32a5.04,4.26 0 0 1 1.1,2.12l0,0c0.08,0.64 0.11,2.57 -0.7,3.75a3.61,3.05 0 0 0 -0.11,2.99c0.06,0.1 0.13,0.19 0.2,0.29a0.22,0.18 0 0 1 0.01,0.21a12.69,10.71 0 0 1 -1.88,1.48a11.26,9.51 0 0 1 -6.79,1.88l-6.64,0a0.78,0.66 0 0 1 -0.6,-0.23a0.82,0.69 0 0 1 -0.2,-0.56c0.02,-0.12 0.04,-0.24 0.05,-0.36a3.63,3.06 0 0 0 -0.82,-2.23a5.15,4.35 0 0 1 -1.15,-2.44l0,0l0,0c-0.42,-3.87 1.59,-6.03 1.68,-6.13a1.17,0.99 0 0 0 -1.8,-1.25c-0.1,0.1 -2.05,2.14 -2.25,5.73l-4.58,-2.26q0.15,-0.1 0.32,-0.22a5.33,4.5 0 0 0 1.78,-2.6c0.21,-0.98 0.82,-2.78 2.49,-3.87c1.5,-0.98 3.6,-0.94 4.9,0.1c0.01,0.01 0.01,0.01 0.02,0.02c1.98,3.64 6.31,4.88 6.5,4.93a1.17,0.99 0 0 0 0.83,-0.03c5.79,-2.1 6.39,-6.91 6.44,-7.61c0.05,-0.16 0.37,-1.03 2.14,-1.85c1.59,-0.73 3.17,-2.14 4.25,-3.23a30.05,25.37 0 0 1 1.28,7.3a3.62,3.06 0 0 1 -0.5,1.5a13.24,11.18 0 0 1 -1.42,1.69a1.17,0.99 0 1 0 1.77,1.29a15.59,13.17 0 0 0 1.68,-1.99a5.99,5.06 0 0 0 0.8,-2.13l17.34,-16.26a4.86,4.1 0 0 1 2.36,-1.22a7.25,6.12 0 0 0 2.88,-1.3l2.46,-1.82a5.25,4.43 0 0 0 1.82,-3.54a11.87,10.02 0 0 0 -0.27,-1.75a3.13,2.64 0 0 0 -5.35,-1.23l-0.7,0.62a2.75,2.32 0 0 0 -3.89,0.17l-1.22,1.14a5.16,4.36 0 0 0 -1.33,2.92l0,0.24a2.84,2.39 0 0 1 -1.12,1.9c-4.24,2.71 -8.88,6.1 -12.2,8.61a43.28,36.54 0 0 1 -3.13,-3.14a24.55,20.73 0 0 1 -3.11,-4.71a44.01,37.16 0 0 0 -2.85,-5.03c-0.01,-0.01 -0.01,-0.02 -0.02,-0.03c-2.48,-3.19 -6.76,-3.29 -8.96,-2.87c-5.44,-1.12 -9.06,4 -9.22,4.24c-4.62,6.92 -3.91,13.85 -2.49,18.44a1.17,0.99 0 0 0 2.26,-0.5c-1.31,-4.24 -1.98,-10.63 2.25,-16.96c0.03,-0.04 3.01,-4.22 6.87,-3.25a1.17,0.99 0 0 0 0.65,0c0.04,-0.01 4.34,-1.02 6.68,1.97a43.04,36.34 0 0 1 2.67,4.73a26.88,22.7 0 0 0 3.41,5.15a45.64,38.54 0 0 0 3.27,3.29c-0.32,0.25 -0.62,0.48 -0.89,0.69c-0.14,-0.34 -0.24,-0.54 -0.26,-0.57a1.17,0.99 0 0 0 -2.03,-0.18c-0.7,0.85 -2.93,3.23 -4.82,4.11c-1.76,0.81 -2.59,1.76 -2.99,2.44a0.83,0.7 0 0 1 -0.58,-0.68l0,-1.57c4.25,-2.95 3.99,-9.13 3.98,-9.4a1.17,0.99 0 0 0 -1.17,-0.95l-2.44,0a15.4,13 0 0 0 -2.39,-5.02a1.17,0.99 0 0 0 -2.1,0.6c0.04,2.24 -0.67,3.52 -1.27,4.19a1.65,1.39 0 0 1 -1.32,0.54l-4.8,0a1.17,0.99 0 0 0 -1.16,0.93c-0.37,5.83 2.56,8.42 4.2,9.4l0,2.31a1.55,1.31 0 0 1 -0.67,1.07l-1.03,0.6a6.09,5.14 0 0 0 -7.41,0.14c-2.28,1.49 -3.08,3.82 -3.35,5.08a2.99,2.52 0 0 1 -1,1.46a8.37,7.07 0 0 1 -1.53,0.88a1.17,0.99 0 0 0 -0.08,1.74l2.33,1.15l-2.31,4.28l-7.48,-3.03a3.74,3.16 0 0 0 0.02,-0.36l1.33,-4.81a5.43,4.59 0 1 0 -7.71,-0.95l-0.34,3.11a3.6,3.04 0 0 0 -1.46,2.07l-0.5,3.26a3.58,3.03 0 0 0 1.1,2.61l-0.15,1.4a2.89,2.44 0 0 0 1.45,2.32l-0.09,0.75a1.17,0.99 0 1 0 2.32,0.2l0.09,-0.76a2.87,2.43 0 0 0 1.34,-0.78a1.17,0.99 0 0 0 -1.82,-1.23a0.55,0.46 0 0 1 -0.97,-0.33l0.06,-0.59a3.67,3.1 0 0 0 2.9,-0.33c0.02,-0.01 0.05,-0.03 0.07,-0.04c2.28,1.58 5.97,3.94 9.33,5.28a3.38,2.85 0 0 0 4.1,-0.82l4.09,-4.35a1.17,0.99 0 1 0 -1.83,-1.23l-4.09,4.35a1.06,0.89 0 0 1 -1.28,0.26c-3.13,-1.25 -6.64,-3.5 -8.83,-5.02a3.76,3.18 0 0 0 0.21,-0.63l0.27,-1.36l7.94,3.22a1.17,0.99 0 0 0 1.57,-0.48l2.7,-5.01l3.16,1.56a7.4,6.25 0 0 0 1.6,3.01a1.28,1.08 0 0 1 0.29,0.78c-0.01,0.1 -0.02,0.2 -0.04,0.29a3.17,2.68 0 0 0 0.66,2.01c-1.04,1.51 -2.97,3.7 -6.04,5.12a27.98,23.63 0 0 1 -5.03,1.46a4.09,3.46 0 0 0 -3.08,3.88a25.31,21.37 0 0 0 -3.72,2.15a5.29,4.47 0 0 0 -1.91,3.82zm60.21,-52.38a5.19,4.38 0 0 0 2.05,-3.48l0,-0.24a2.83,2.39 0 0 1 0.73,-1.6l1.21,-1.14a0.41,0.35 0 0 1 0.3,-0.12a0.38,0.32 0 0 1 0.27,0.08l-0.76,0.74a1.17,0.99 0 0 0 1.75,1.3l1.5,-1.45l1.48,-1.3a0.8,0.67 0 0 1 1.39,0.3a9.54,8.06 0 0 1 0.22,1.4a2.97,2.51 0 0 1 -1.02,1.97l-2.46,1.82a4.9,4.14 0 0 1 -1.95,0.88a7.2,6.08 0 0 0 -3.49,1.81l-15.71,14.74a33.18,28.02 0 0 0 -0.98,-4.58c2.63,-2.05 9.45,-7.3 15.46,-11.13zm-37.28,4.53l3.66,0a4,3.38 0 0 0 3.18,-1.32a7.92,6.68 0 0 0 1.2,-2a14.15,11.95 0 0 1 0.54,2.13a1.17,0.99 0 0 0 1.16,0.87l2.26,0c-0.11,1.79 -0.69,5.64 -3.69,7.21a4.6,3.88 0 0 1 -4.8,0c-1.09,-0.56 -3.49,-2.33 -3.51,-6.9zm2.56,13.37a3.88,3.28 0 0 0 1.67,-2.69l0,-1.41a6.89,5.82 0 0 0 3.8,-0.11l0,0.48a3.17,2.68 0 0 0 2.38,2.6a8.31,7.02 0 0 1 -4.44,4.85c-0.89,-0.33 -3.05,-1.29 -4.36,-3.17l0.94,-0.55zm-24.86,7.73a3.68,3.1 0 0 0 -0.99,-0.39a8.08,6.82 0 0 0 -1.63,-0.24l0.12,-1.05a5.39,4.55 0 0 0 2.21,0.4a5.48,4.63 0 0 0 0.66,-0.04l-0.37,1.32zm-0.29,-8.47a3.09,2.61 0 1 1 -3.09,2.61a3.1,2.61 0 0 1 3.09,-2.61zm-2.8,15.41a5.1,4.31 0 0 1 -1.02,-0.39a1.23,1.04 0 0 1 -0.57,-1.03l0.5,-3.26a1.25,1.05 0 0 1 1.22,-0.93c0.02,0 0.05,0 0.07,0a5.82,4.91 0 0 1 1.24,0.17a1.39,1.18 0 0 1 0.97,1.33l-0.62,3.16a1.41,1.19 0 0 1 -0.67,0.83a1.35,1.14 0 0 1 -1.14,0.11zm5.86,17.52a23.07,19.48 0 0 1 3.27,-1.9c0.07,0.07 0.15,0.13 0.23,0.19a6.78,5.72 0 0 0 2.82,1.31a4.44,3.75 0 0 1 2.33,1.25c1.21,1.28 3.48,2.77 7.42,2.6a4.1,3.46 0 0 1 2.33,0.47a9.82,8.29 0 0 0 4.95,1.24a8.08,6.82 0 0 0 3.89,-0.85a4.3,3.63 0 0 1 3.41,-0.29c1.91,0.53 4.76,0.8 7.45,-0.92a4.34,3.67 0 0 1 2.06,-0.74c1.67,-0.17 3.94,-0.68 5.28,-2.09a4.55,3.84 0 0 1 1.94,-1.23a7.19,6.07 0 0 0 2.46,-1.3a4.83,4.08 0 0 0 0.8,-0.85a23.09,19.5 0 0 1 3.24,1.12a2.92,2.47 0 0 1 1.6,2.19c0.04,2.65 -1.52,3.93 -2.83,4.54a6.7,5.66 0 0 0 -2.13,1.55c-1.28,1.43 -2.82,1.79 -3.89,1.84a6.41,5.41 0 0 0 -3.46,1.04c-1.68,1.05 -3.64,1.1 -4.99,0.95a6.69,5.65 0 0 0 -4.72,0.97a7.09,5.98 0 0 1 -6.59,0.8a6.55,5.53 0 0 0 -4.11,-0.01c-4.02,1.08 -6.52,0.02 -7.9,-1.05a6.82,5.76 0 0 0 -4.58,-1.51c-3.14,-0.02 -4.76,-1.4 -5.57,-2.55a6.4,5.41 0 0 0 -3.39,-2.36a5.67,4.79 0 0 1 -0.98,-0.37a2.82,2.38 0 0 1 -1.41,-1.9a2.96,2.5 0 0 1 1.07,-2.14z" id="svg_1"/>
   <path d="m33.44,18.28a1.17,0.99 0 0 0 0.39,1.36a4.17,3.52 0 0 0 2.08,0.47a3.9,3.29 0 0 0 1.99,-0.46a1.17,0.99 0 1 0 -1.18,-1.7a1.78,1.5 0 0 1 -1.69,0a1.17,0.99 0 0 0 -1.59,0.34z" id="svg_2"/>
   <path d="m33.41,16.76a1.17,0.99 0 1 0 0.85,-1.83a5.85,4.94 0 0 0 -1.48,-0.32a1.17,0.99 0 1 0 -0.26,1.96a3.55,3 0 0 1 0.89,0.19z" id="svg_3"/>
   <path d="m37.92,16.83a1.17,0.99 0 0 0 0.43,-0.07a3.56,3 0 0 1 0.89,-0.19a1.17,0.99 0 0 0 -0.26,-1.96a5.88,4.96 0 0 0 -1.48,0.32a1.17,0.99 0 0 0 0.43,1.9l0,0z" id="svg_4"/>
  </g>
 </g>
</svg>