<svg width="current" height="current" viewBox="0 0 64 64" fill="none" xmlns="http://www.w3.org/2000/svg">
<circle cx="32" cy="32" r="32" fill="black" stroke="white"/>
<path d="M38.6514 18.214C29.4837 12.1485 25.2145 13.7488 18.8228 23.6369H20.2807C20.3154 28.5712 21.3273 30.0278 24.0715 31.384C22.0985 27.4918 22.3946 25.1731 24.0715 20.9255M35.7354 18.214C39.6025 17.5425 41.955 19.4556 41.2758 24.799M35.7354 23.6369C35.211 23.6856 34.7277 23.7108 34.2774 23.7048M23.4883 23.6369C26.5051 23.2075 27.6754 22.3715 28.4455 19.3761C30.302 22.6773 31.7839 23.6713 34.2774 23.7048M23.4883 23.6369C25.7296 27.7418 26.9047 27.5884 28.8829 23.6709C31.8351 29.0942 32.5816 25.8214 34.2774 23.7048M23.4883 23.6369L34.2774 23.7048" stroke="white"/>
<path d="M23.4884 23.6369C22.5635 32.1936 24.9757 34.2755 35.1523 32.546C35.5523 29.1755 36.2024 28.2891 38.3598 29.0599M28.4455 30.9966C29.4494 31.0898 30.0178 31.0008 31.0699 29.8346M36.0271 23.6369C36.097 27.3238 38.3598 29.0599 38.3598 29.0599M38.3598 29.0599C38.3598 29.0599 38.3598 23.6369 41.2758 24.799C44.1918 25.961 43.1637 31.1359 45.6498 30.9966C45.1393 32.4921 44.4802 33.1612 42.7338 34.0954M38.3598 29.0599C39.0829 29.7706 39.4609 29.8887 40.1094 29.8346" stroke="white"/>
<path d="M21.8845 38.668L21.4471 42.9289C20.9778 43.2903 20.6045 43.465 20.2807 43.434M21.8845 38.668L22.3219 34.4071L24.3631 31.3083H20.2807C20.2807 31.3083 18.0365 39.2424 18.8228 41.3794C19.3187 42.7276 19.7274 43.3811 20.2807 43.434M21.8845 38.668C22.82 38.3075 23.2123 38.0421 23.7799 37.5059V35.1818C24.3748 34.0098 24.8088 33.831 25.8211 34.4071M25.8211 34.4071L26.6959 32.8577M25.8211 34.4071C24.9577 39.3827 24.5233 42.6087 24.3893 46.0277M24.3631 50.2885C24.3303 48.7584 24.3364 47.378 24.3893 46.0277M20.2807 43.434L22.3219 44.0909L21.8845 46.0277H20.8639H24.3893M31.9447 32.8577C32.9268 34.9796 33.7539 35.2963 35.4438 35.1818C34.4058 36.0878 34.2768 36.597 34.569 37.5059C32.0328 41.0765 33.4261 42.2347 36.6102 44.0909L36.027 46.0277H34.569H38.0682C39.2433 45.7972 39.7324 45.4866 39.8178 44.0909M39.8178 44.0909L38.0682 43.434M39.8178 44.0909L41.859 44.8656C44.0631 42.3402 45.3129 40.9372 46.5246 37.5059C45.8899 36.2388 45.2317 35.5519 43.0254 34.4071L40.401 32.8577C38.3195 32.5142 38.2363 33.2915 38.6514 35.1818C40.1772 36.6952 41.1867 37.0318 43.0254 37.5059L40.401 42.1542L38.0682 42.9289" stroke="white"/>
<path d="M38.4844 34.0198V47.9644M46.3575 47.9644V51.838L45.1911 53H39.3592L38.4844 51.838V47.9644M46.3575 47.9644L45.1911 40.2174M46.3575 47.9644H41.9836M38.4844 47.9644H41.9836M40.234 36.3439L40.8172 41.3795M41.4004 44.8656L41.9836 47.9644" stroke="white"/>
<path d="M42.4263 16.0217C44.8217 15.2922 45.6124 14.273 45.705 11C46.5369 15.0264 47.4358 15.292 48.9836 16.0217C46.594 16.9162 46.0452 18.4326 45.705 21.9565C45.7979 18.2856 44.99 17.0749 42.4263 16.0217Z" fill="white" stroke="white"/>
<path d="M50 46.0217C52.3954 45.2922 53.1862 44.273 53.2787 41C54.1106 45.0264 55.0095 45.292 56.5574 46.0217C54.1677 46.9162 53.6189 48.4326 53.2787 51.9565C53.3717 48.2856 52.5637 47.0749 50 46.0217Z" fill="white" stroke="white"/>
<path d="M12.918 16.0217C15.3135 15.2922 16.1042 14.273 16.1967 11C17.0286 15.0264 17.9275 15.292 19.4754 16.0217C17.0858 16.9162 16.5369 18.4326 16.1967 21.9565C16.2897 18.2856 15.4817 17.0749 12.918 16.0217Z" fill="white" stroke="white"/>
<path d="M8 46.1522C10.3954 45.4226 11.1862 44.4034 11.2787 41.1304C12.1106 45.1569 13.0095 45.4224 14.5574 46.1522C12.1677 47.0466 11.6189 48.563 11.2787 52.087C11.3717 48.416 10.5637 47.2054 8 46.1522Z" fill="white" stroke="white"/>
</svg>
