<svg width="current" height="current" viewBox="0 0 370 65" fill="none" xmlns="http://www.w3.org/2000/svg">
<rect width="370" height="65" rx="8" fill="#F8DF00"/>
<path fill-rule="evenodd" clip-rule="evenodd" d="M37.5 40.8723C44.9558 40.8723 51 36.1999 51 30.4362C51 24.6724 44.9558 20 37.5 20C30.0442 20 24 24.6724 24 30.4362C24 34.1687 26.5348 37.4436 30.3463 39.2883L29.2812 43.1094C29.1073 43.7331 29.8008 44.2383 30.3412 43.8815L35.1393 40.7133C35.9058 40.8178 36.6947 40.8723 37.5 40.8723Z" fill="#3D1B1A"/>
<path d="M130.86 25.58C130.86 30.94 129.38 35.56 122.86 38.84L121.72 37.2C124.78 35.66 126.62 33.86 127.64 31.72L122.14 32.26L121.86 30.4L128.28 30C128.52 29.16 128.66 28.26 128.74 27.3H122.76V25.58H130.86ZM133.34 41.58V23.8H135.5V30.78H138.14V32.56H135.5V41.58H133.34ZM148.34 25.58C148.34 30.94 146.86 35.56 140.34 38.84L139.2 37.2C142.26 35.66 144.1 33.86 145.12 31.72L139.62 32.26L139.34 30.4L145.76 30C146 29.16 146.14 28.26 146.22 27.3H140.24V25.58H148.34ZM150.82 41.58V23.8H152.98V30.78H155.62V32.56H152.98V41.58H150.82ZM164.681 24.82C168.461 24.82 171.241 26.72 171.241 29.62C171.241 32.26 168.961 34.04 165.741 34.36V37.68H172.741V39.42H156.641V37.68H163.601V34.36C160.381 34.04 158.121 32.26 158.121 29.62C158.121 26.72 160.901 24.82 164.681 24.82ZM160.221 29.62C160.221 31.52 162.081 32.72 164.681 32.72C167.281 32.72 169.141 31.52 169.141 29.62C169.141 27.72 167.281 26.52 164.681 26.52C162.081 26.52 160.221 27.72 160.221 29.62ZM174.121 33.34H181.061V31.8H176.161V24.26H188.281V25.92H178.301V27.18H187.861V28.78H178.301V30.14H188.421V31.8H183.221V33.34H190.181V35.04H174.121V33.34ZM175.901 38.02V36.32H188.161V41.6H186.021V38.02H175.901ZM199.642 24.8C203.362 24.8 206.202 26.8 206.202 29.84C206.202 32.86 203.362 34.86 199.642 34.86C195.922 34.86 193.082 32.86 193.082 29.84C193.082 26.8 195.922 24.8 199.642 24.8ZM191.602 39.34V37.58H207.702V39.34H191.602ZM195.162 29.84C195.162 31.84 197.062 33.1 199.642 33.1C202.242 33.1 204.102 31.84 204.102 29.84C204.102 27.82 202.242 26.54 199.642 26.54C197.062 26.54 195.162 27.82 195.162 29.84ZM209.082 37.78H216.042V34.82H211.002V29.02H221.182V26.74H210.982V25.02H223.302V30.72H213.142V33.1H223.702V34.82H218.182V37.78H225.182V39.52H209.082V37.78ZM235.632 25.26H237.792V28.1C237.792 31.38 239.512 34.64 242.352 35.9L241.092 37.64C239.052 36.68 237.572 34.78 236.752 32.44C235.952 34.94 234.412 37 232.272 38.02L230.992 36.24C233.872 34.94 235.632 31.52 235.632 28.1V25.26ZM243.652 41.64V23.8H245.812V41.64H243.652ZM249.073 24.96H258.653V26.68H254.973V26.9C254.973 29.12 256.393 31.26 259.153 32.18L258.053 33.88C256.093 33.22 254.693 31.88 253.913 30.2C253.133 32.04 251.653 33.5 249.613 34.2L248.473 32.52C251.313 31.56 252.813 29.26 252.813 26.9V26.68H249.073V24.96ZM250.833 37.12V35.38H262.553V41.6H260.413V37.12H250.833ZM260.413 34.52V23.82H262.553V28.3H265.033V30.08H262.553V34.52H260.413ZM277.813 23.82H279.973V30.92H282.673V32.7H279.973V41.6H277.813V23.82ZM266.033 28.26V26.54H270.213V24.08H272.393V26.54H276.473V28.26H266.033ZM266.873 33.64C266.873 31.2 268.773 29.48 271.313 29.48C273.873 29.48 275.733 31.2 275.733 33.64C275.733 36.1 273.873 37.82 271.313 37.82C268.773 37.82 266.873 36.1 266.873 33.64ZM268.933 33.64C268.933 35.12 269.913 36.06 271.313 36.06C272.673 36.06 273.673 35.12 273.673 33.64C273.673 32.18 272.673 31.24 271.313 31.24C269.913 31.24 268.933 32.18 268.933 33.64ZM296.154 23.82H298.314V41.6H296.154V23.82ZM283.714 36.76C288.354 34.52 290.494 31.48 290.854 27.4H284.614V25.68H293.054C293.054 31 291.014 35.48 284.854 38.46L283.714 36.76Z" fill="black"/>
</svg>
