<svg width="80" height="80" xmlns="http://www.w3.org/2000/svg">
 <g className="layer">
  <title>Layer 1</title>
  <g id="svg_1" stroke="white">
   <path d="m36.04,45.02c0,-2.08 -1.68,-3.76 -3.75,-3.76s-3.75,1.68 -3.75,3.76s1.69,3.76 3.75,3.76s3.75,-1.69 3.75,-3.76zm-3.75,1.25c-0.69,0 -1.25,-0.56 -1.25,-1.25s0.56,-1.25 1.25,-1.25s1.25,0.56 1.25,1.25s-0.55,1.25 -1.25,1.25z" id="svg_2"/>
   <path d="m47.31,41.26c-2.07,0 -3.75,1.68 -3.75,3.76s1.69,3.76 3.75,3.76s3.75,-1.69 3.75,-3.76s-1.68,-3.76 -3.75,-3.76zm0,5.02c-0.69,0 -1.25,-0.56 -1.25,-1.25s0.56,-1.25 1.25,-1.25s1.25,0.56 1.25,1.25s-0.55,1.25 -1.25,1.25z" id="svg_3"/>
   <path d="m33.54,52.55c0,3.45 2.82,6.27 6.26,6.27s6.26,-2.82 6.26,-6.27l0,-1.25l-12.52,0l0,1.25zm9.8,1.25c-0.51,1.46 -1.9,2.51 -3.54,2.51s-3.02,-1.05 -3.53,-2.51l7.07,0z" id="svg_4"/>
   <path d="m58.57,11.15l-28.28,0c-0.08,-0.66 0.06,-1.34 0.44,-1.93l0.54,-0.84l-4.96,-4.98l-0.85,0.54c-0.83,0.53 -1.8,0.61 -2.7,0.24c-0.9,-0.38 -1.54,-1.13 -1.75,-2.08l-0.21,-0.98l-7.02,0l-0.21,0.98c-0.21,0.95 -0.85,1.71 -1.75,2.08s-1.88,0.29 -2.7,-0.24l-0.85,-0.54l-4.96,4.98l0.54,0.84c0.53,0.83 0.61,1.82 0.24,2.72c-0.38,0.89 -1.13,1.53 -2.08,1.74l-0.98,0.21l0,7.04l0.98,0.21c0.95,0.21 1.7,0.85 2.08,1.76c0.38,0.9 0.29,1.89 -0.24,2.71l-0.54,0.85l4.96,4.97l0.85,-0.54c0.83,-0.53 1.81,-0.6 2.7,-0.24c0.9,0.38 1.54,1.14 1.75,2.08l0.21,0.99l4.88,0c-0.08,0.54 -0.13,1.09 -0.13,1.66c0,2.71 0.3,5.43 0.86,8.08c-0.54,0.8 -0.86,1.77 -0.86,2.81c0,2.76 2.25,5.02 5.01,5.02l0,1.25c0,4.11 2.22,7.7 5.51,9.68c-4.99,3.49 -8.01,9.19 -8.01,15.4l0,1.25l37.55,0l0,-1.25c0,-6.21 -3.02,-11.92 -8,-15.42c3.29,-1.97 5.49,-5.56 5.49,-9.67l0,-1.25c2.77,0 5.01,-2.26 5.01,-5.02c0,-1.04 -0.31,-2.01 -0.85,-2.81c0.56,-2.65 0.85,-5.37 0.85,-8.08c0,-4.98 -2.98,-9.41 -7.51,-11.3l0,-5.41l5.01,0c1.39,0 2.5,-1.13 2.5,-2.51l0,-2.51c0,-1.39 -1.11,-2.51 -2.5,-2.51zm-39.7,20.07l-3.19,0c-0.56,-1.29 -1.6,-2.33 -2.92,-2.89c-1.33,-0.54 -2.79,-0.54 -4.09,-0.03l-2.27,-2.27c0.51,-1.3 0.51,-2.77 -0.03,-4.1c-0.55,-1.32 -1.59,-2.36 -2.88,-2.92l0,-3.2c1.29,-0.56 2.33,-1.61 2.88,-2.92c0.54,-1.32 0.54,-2.8 0.03,-4.1l2.27,-2.26c1.3,0.51 2.78,0.51 4.09,-0.04c1.31,-0.55 2.35,-1.59 2.92,-2.87l3.19,0c0.56,1.28 1.6,2.32 2.92,2.87c1.31,0.55 2.79,0.55 4.09,0.04l2.27,2.26c-0.3,0.75 -0.4,1.56 -0.35,2.36l-4.41,0c-1.63,-1.59 -3.82,-2.51 -6.11,-2.51c-4.83,0 -8.76,3.94 -8.76,8.78c0,4.48 3.38,8.19 7.71,8.71c0.5,1.49 1.89,2.58 3.55,2.58c0.26,0 0.53,-0.04 0.78,-0.09c-0.2,0.31 -0.4,0.63 -0.58,0.97c-0.46,0.48 -0.85,1.02 -1.11,1.63zm7.16,-7.14c-0.91,0.38 -1.78,0.87 -2.55,1.46c0.03,-0.2 0.05,-0.39 0.05,-0.59c0,-1.63 -1.04,-3.02 -2.5,-3.54l0,-2.73l5.01,0l0,5.41zm-6.26,-0.39c0.7,0 1.25,0.56 1.25,1.25s-0.55,1.25 -1.25,1.25s-1.25,-0.56 -1.25,-1.25s0.56,-1.25 1.25,-1.25zm-1.25,-10.04l0,0.23c-0.39,-0.14 -0.8,-0.23 -1.25,-0.23c-2.07,0 -3.75,1.68 -3.75,3.76s1.69,3.76 3.75,3.76c0.45,0 0.86,-0.09 1.25,-0.24l0,0.46c-1.03,0.36 -1.84,1.17 -2.24,2.18c-2.98,-0.48 -5.27,-3.06 -5.27,-6.17c0,-3.46 2.82,-6.27 6.26,-6.27c0.81,0 1.59,0.16 2.33,0.45c-0.65,0.45 -1.08,1.2 -1.08,2.06zm0,3.76c0,0.69 -0.55,1.25 -1.25,1.25s-1.25,-0.56 -1.25,-1.25s0.56,-1.25 1.25,-1.25s1.25,0.56 1.25,1.25zm2.5,28.85c0,-1.39 1.13,-2.51 2.5,-2.51l0,5.02c-1.38,0 -2.5,-1.13 -2.5,-2.51zm18.4,22.58l0.76,0l2.82,7.53l-6.4,0l2.82,-7.53zm0.96,-2.51l-1.16,0l-0.56,-0.84l1.15,-1.15l1.14,1.15l-0.56,0.84zm2.44,-2.51l1.98,0c0.09,0 0.18,-0.01 0.26,-0.01l-0.68,1.58l-1.56,-1.57zm-7.61,1.56l-0.68,-1.57c0.09,0 0.18,0.01 0.25,0.01l1.99,0l-1.56,1.56zm-3.52,-1.87l2.68,6.27l2.48,-2.48l0.3,0.45l-3.23,8.62l-2.88,0l0,-5.02l-2.5,0l0,5.02l-4.97,0c0.41,-5.37 3.44,-10.15 8.12,-12.86zm24.33,12.86l-4.97,0l0,-5.02l-2.5,0l0,5.02l-2.88,0l-3.23,-8.62l0.3,-0.45l2.48,2.48l2.68,-6.27c4.68,2.71 7.71,7.49 8.12,12.86zm-2.47,-23.83c0,4.84 -3.93,8.78 -8.76,8.78l-10.01,0c-4.82,0 -8.76,-3.94 -8.76,-8.78l0,-10.04c0,-3.27 2.52,-5.96 5.69,-6.25c0.88,1.48 2.49,2.48 4.32,2.48l13.77,0c2.08,0 3.75,1.68 3.75,3.76l0,10.04zm2.5,-3.76l0,-5.02c1.39,0 2.5,1.12 2.5,2.51s-1.11,2.51 -2.5,2.51zm2.5,-13.4c0,2.09 -0.18,4.2 -0.54,6.26c-0.6,-0.25 -1.26,-0.39 -1.96,-0.39l-0.13,0c-0.58,-2.86 -3.1,-5.02 -6.13,-5.02l-13.77,0c-1.38,0 -2.5,-1.13 -2.5,-2.51s1.13,-2.51 2.5,-2.51l0,-2.51c-2.75,0 -5.01,2.25 -5.01,5.02c0,0.03 0,0.05 0.01,0.09c-3.83,0.55 -6.87,3.6 -7.42,7.44l-0.1,0c-0.69,0 -1.35,0.14 -1.95,0.39c-0.36,-2.06 -0.55,-4.16 -0.55,-6.26c0,-4.14 2.6,-7.8 6.47,-9.18l24.62,0c3.87,1.38 6.46,5.04 6.46,9.18zm-7.51,-11.69l-22.53,0l0,-5.02l22.53,0l0,5.02zm7.51,-7.53l-37.55,0l0,-2.51l37.55,0l0,2.51z" id="svg_5"/>
   <polygon id="svg_6" points="0,51.28916161732741 3.510560602648326,51.28916161732741 3.510560602648326,78.88623469548293 6.013633758161916,78.88623469548293 6.013633758161916,48.78033679204054 4.5167960069873345,48.78033679204054 8.516707212065114,42.365268919223126 12.515367269515991,48.78033679204054 11.019781262747529,48.78033679204054 11.019781262747529,78.88623469548293 13.522854716650727,78.88623469548293 13.522854716650727,51.28916161732741 17.032163574892934,51.28916161732741 8.516707212065114,37.63237237930298 "/>
   <polygon id="svg_7" points="71.09354415642429,0 62.576836347579956,13.65678804172353 66.08739724861789,13.65678804172353 66.08739724861789,41.25386231617995 68.59047070252109,41.25386231617995 68.59047070252109,11.147963216436665 67.09363384651533,11.147963216436665 71.09354415642429,4.732898035296273 75.09220361709595,11.147963216436665 73.59661761032748,11.147963216436665 73.59661761032748,51.28916161732741 76.09969106423068,51.28916161732741 76.09969106423068,13.65678804172353 79.60900111603132,13.65678804172353 "/>
   <rect height="2.51" id="svg_8" width="2.5" x="73.59" y="53.8"/>
   <rect height="20.07" id="svg_9" width="2.5" x="73.59" y="58.82"/>
   <rect height="2.51" id="svg_10" width="2.5" x="66.08" y="43.77"/>
   <rect height="30.11" id="svg_11" width="2.5" x="66.08" y="48.78"/>
  </g>
 </g>
</svg>