<svg width="60" height="60" viewBox="0 0 60 60" fill="none" xmlns="http://www.w3.org/2000/svg">
<g clip-path="url(#clip0_154_8161)">
<path d="M41.25 25H33.3625L34.55 19.2875L34.5875 18.8875C34.5875 18.375 34.375 17.9 34.0375 17.5625L32.7125 16.25L24.4875 24.4875C24.025 24.9375 23.75 25.5625 23.75 26.25V38.75C23.75 40.125 24.875 41.25 26.25 41.25H37.5C38.5375 41.25 39.425 40.625 39.8 39.725L43.575 30.9125C43.6875 30.625 43.75 30.325 43.75 30V27.5C43.75 26.125 42.625 25 41.25 25ZM41.25 30L37.5 38.75H26.25V26.25L31.675 20.825L30.2875 27.5H41.25V30ZM16.25 26.25H21.25V41.25H16.25V26.25Z" fill="#919191"/>
</g>
<defs>
<clipPath id="clip0_154_8161">
<rect width="30" height="30" fill="white" transform="translate(15 15)"/>
</clipPath>
</defs>
</svg>
