<svg width="current" height="current" viewBox="0 0 337 234" fill="none" xmlns="http://www.w3.org/2000/svg">
<path fill-rule="evenodd" clip-rule="evenodd" d="M35.5584 38.0107C15.92 38.0107 0 53.9308 0 73.5692C0 93.2075 15.92 109.128 35.5584 109.128H192.506H198.024H241.393C246.734 109.128 248.227 101.799 243.312 99.7094L227.748 93.0918C231.436 87.488 233.582 80.7792 233.582 73.5692C233.582 53.9308 217.662 38.0107 198.024 38.0107H35.5584Z" fill="#F7FF7D"/>
<path d="M98.7054 0C63.8304 0 35.5586 28.1413 35.5586 62.8553C35.5586 81.1615 43.4208 97.64 55.9675 109.128H141.443C153.99 97.64 161.852 81.1615 161.852 62.8553C161.852 28.1413 133.58 0 98.7054 0Z" fill="#7A48DE"/>
<path d="M132.5 86.9995L115.5 87.0003L75.4999 87.001" stroke="#5523BE" stroke-width="10" stroke-linecap="round"/>
<path d="M124.5 103.5V103.5C117.576 92.2897 108.392 82.6448 97.5346 75.18L82 64.5" stroke="#5523BE" stroke-width="10" stroke-linecap="round"/>
<path fill-rule="evenodd" clip-rule="evenodd" d="M96.4005 53.2137C92.6634 52.3062 89.2608 52.1587 87.4595 52.6072C85.9783 52.976 84.4688 52.1123 84.0879 50.678C83.707 49.2438 84.599 47.7822 86.0802 47.4134C89.1981 46.637 93.6648 47.0206 97.7477 48.012C101.859 49.0103 106.262 50.7888 109.115 53.3537C110.236 54.3614 110.301 56.058 109.26 57.1432C108.219 58.2283 106.467 58.2912 105.347 57.2835C103.477 55.6023 100.109 54.1143 96.4005 53.2137Z" fill="#EFFE37"/>
<path d="M103.486 26.1615C94.6364 24.2751 92.3565 39.3825 95.0853 47.2296C96.2789 47.2296 102.989 50 103.486 50C110.945 42.3929 113.317 28.2571 103.486 26.1615Z" fill="#EFFE37"/>
<path fill-rule="evenodd" clip-rule="evenodd" d="M99.2271 43.0942C99.8932 43.3223 100.591 43.5735 101.246 43.8125C101.46 43.8906 101.666 43.9662 101.865 44.0393C103.69 41.3889 104.816 38.2913 104.978 35.7031C105.082 34.0408 104.771 32.9654 104.411 32.3685C104.132 31.906 103.654 31.416 102.458 31.1621C101.829 31.0287 101.631 31.1538 101.374 31.3844C100.91 31.7998 100.254 32.7687 99.7351 34.5193C98.9454 37.1823 98.8233 40.4407 99.2271 43.0942ZM94.7396 23.8189C97.3129 21.5138 100.718 20.4632 104.513 21.2686C108.232 22.0578 111.144 24.109 112.952 27.1083C114.679 29.9731 115.152 33.28 114.96 36.3429C114.581 42.3904 111.543 48.9291 107.03 53.5114L105.564 55H103.486C102.747 55 102.116 54.8212 102.065 54.8068C102.064 54.8063 102.063 54.806 102.062 54.8059C101.858 54.7521 101.661 54.691 101.508 54.6414C101.192 54.5394 100.821 54.4085 100.452 54.2756C100.037 54.126 99.5227 53.9365 98.9929 53.7412C98.609 53.5997 98.2168 53.4551 97.8481 53.3205C96.9111 52.9784 96.0226 52.6623 95.3169 52.4355C95.0429 52.3475 94.8316 52.2843 94.6787 52.2422H91.5482L90.3704 48.8703C88.6277 43.8811 88.5378 37.0674 90.1541 31.6168C90.9699 28.8661 92.3726 25.9391 94.7396 23.8189ZM94.4413 52.1838C94.4404 52.1831 94.4584 52.1863 94.4978 52.1955C94.462 52.1892 94.4422 52.1846 94.4413 52.1838Z" fill="#EFFE37"/>
<path fill-rule="evenodd" clip-rule="evenodd" d="M105.218 31.0192C107.515 31.2385 109.2 33.283 108.981 35.5859C108.794 37.5485 108.103 40.1319 107.379 42.3818C106.638 44.6827 105.723 47.0626 104.915 48.6838C103.883 50.7528 101.374 51.5914 99.3101 50.5569C97.2466 49.5224 96.4102 47.0065 97.4419 44.9375C97.9905 43.8376 98.7563 41.8946 99.4277 39.8089C100.115 37.6722 100.567 35.8052 100.664 34.7916C100.882 32.4888 102.922 30.7998 105.218 31.0192Z" fill="black"/>
<path fill-rule="evenodd" clip-rule="evenodd" d="M123 63.8C123 62.2536 124.236 61 125.76 61C129.361 61 133.29 62.0592 136.742 63.7067C140.176 65.3458 143.424 67.7042 145.47 70.55C146.368 71.7994 146.098 73.5509 144.866 74.4621C143.635 75.3733 141.908 75.0991 141.01 73.8497C139.682 72.0031 137.3 70.1617 134.392 68.7739C131.502 67.3945 128.377 66.5999 125.76 66.5999C124.236 66.5999 123 65.3463 123 63.8Z" fill="#EFFE37"/>
<path d="M141.583 43.2055C134.03 41.1319 131.647 55.2729 133.708 62.0396C134.825 62.0396 140.255 65 140.72 65C146.906 58.6562 150.656 45.6965 141.583 43.2055Z" fill="#EFFE37"/>
<path fill-rule="evenodd" clip-rule="evenodd" d="M138.612 58.5437C139.014 58.7245 139.42 58.9139 139.805 59.0966C141.137 57.0272 142.102 54.6263 142.377 52.5463C142.572 51.0757 142.368 50.1944 142.155 49.7644C142.024 49.5004 141.771 49.1119 140.787 48.8411C140.722 48.8232 140.7 48.8095 140.693 48.8032C140.695 48.8094 140.692 48.8236 140.665 48.8481C140.356 49.1296 139.801 49.918 139.319 51.4712C138.62 53.722 138.425 56.4051 138.612 58.5437ZM142.621 60.4315C142.625 60.4331 142.627 60.434 142.627 60.4339C142.627 60.4339 142.625 60.4331 142.621 60.4315ZM134.331 41.5092C136.661 39.3859 139.799 38.4144 143.256 39.3655C146.632 40.2944 149.198 42.3659 150.658 45.3081C152.036 48.0844 152.195 51.1554 151.835 53.8692C151.126 59.2227 148.2 64.8299 144.567 68.5635L143.169 70H141.192C140.652 70 140.229 69.9052 140.075 69.869C139.87 69.8211 139.701 69.768 139.59 69.7314C139.369 69.6582 139.169 69.578 139.029 69.5196C138.738 69.3989 138.414 69.25 138.117 69.1103C137.784 68.9541 137.359 68.7489 136.93 68.5421C136.627 68.3962 136.323 68.2495 136.048 68.1185C135.311 67.7667 134.64 67.4565 134.116 67.2402C134.029 67.2041 133.953 67.1738 133.888 67.1486H130.945L129.898 63.7068C128.575 59.3558 128.738 53.2815 130.226 48.4899C130.976 46.073 132.231 43.4235 134.331 41.5092ZM133.628 67.0537C133.631 67.0548 133.635 67.056 133.639 67.0572C133.559 67.0374 133.549 67.0288 133.628 67.0537Z" fill="#EFFE37"/>
<path fill-rule="evenodd" clip-rule="evenodd" d="M145.518 47.522C147.733 47.8687 149.248 49.9407 148.901 52.15C148.348 55.6765 145.975 61.4681 143.815 65.1937C142.693 67.1295 140.209 67.7912 138.268 66.6716C136.326 65.552 135.661 63.0751 136.783 61.1392C138.662 57.8978 140.535 53.0786 140.878 50.8945C141.224 48.6853 143.302 47.1753 145.518 47.522Z" fill="black"/>
<path fill-rule="evenodd" clip-rule="evenodd" d="M300.897 136.196C320.535 136.196 336.455 152.116 336.455 171.755C336.455 191.393 320.535 207.313 300.897 207.313H199.28C199.26 207.313 199.241 207.313 199.222 207.313H155.91C150.569 207.313 149.076 199.985 153.991 197.895L169.555 191.277C165.867 185.674 163.721 178.965 163.721 171.755C163.721 152.116 179.641 136.196 199.28 136.196H300.897Z" fill="#B484F1"/>
<path d="M258.658 127C284.256 127 305.008 147.656 305.008 173.136C305.008 186.573 299.237 198.668 290.028 207.1H227.288C218.079 198.668 212.308 186.573 212.308 173.136C212.308 147.656 233.059 127 258.658 127Z" fill="#EFFE37"/>
<path fill-rule="evenodd" clip-rule="evenodd" d="M287.907 180.258C284.377 178.943 281.608 179.951 278.008 184.6C274.408 189.25 269.669 190.452 260.271 191.997C248.983 192.7 243.198 190.858 239.058 187.057C236.927 183.862 232.697 183.06 229.61 185.264C226.522 187.469 225.746 191.845 227.877 195.039C232.016 201.244 244.033 211.445 262.142 209.824C280.256 208.203 289.516 196.378 291.997 189.25C293.268 185.598 291.436 181.572 287.907 180.258Z" fill="#1B1B1B"/>
<path d="M261.051 197.786C268.97 191.323 277.145 196.171 280.243 199.402C278.465 201.341 274.654 203.577 272.97 204.452C271.031 207.36 269.738 214.012 269.334 216.975C265.697 234.547 243 239.5 238.625 226.266C234.132 212.673 240.646 202.634 246.302 196.979C250.828 192.454 258.02 195.632 261.051 197.786Z" fill="#EA6767"/>
<path d="M260.5 195C255.5 199 249.736 208.238 248.52 216.573" stroke="#1B1B1B" stroke-width="5" stroke-linecap="round"/>
</svg>
