<svg width="181" height="181" xmlns="http://www.w3.org/2000/svg">
 <g class="layer">
  <title>Layer 1</title>
  <g id="svg_1">
   <path d="m178.97,60.73c-0.86,-2.13 -2.65,-3.56 -4.82,-3.8l-8.97,-1.05c-1.39,-2.49 -2.93,-4.88 -4.52,-7.07c-2.12,-2.97 -4.46,-5.72 -6.97,-8.21c-0.59,-0.57 -1.17,-1.17 -1.78,-1.74l0.67,-13.48c0,-0.03 0,-0.03 0,-0.03c0.11,-2.31 -0.89,-4.46 -2.73,-5.72c-1.81,-1.26 -4.04,-1.38 -5.96,-0.33l-12.1,6.59c-0.53,-0.24 -1.09,-0.48 -1.62,-0.66c-2.31,-0.93 -4.74,-1.68 -7.25,-2.28l-9.81,-18.27c-1.09,-2.01 -3.01,-3.2 -5.18,-3.2s-4.07,1.2 -5.18,3.2l-9.78,18.3c-30.16,7.43 -51.98,36.69 -51.98,70.06c0,11.83 2.7,23.27 7.8,33.58l-5.88,-4.13c-1.92,-1.38 -3.43,-3.29 -4.38,-5.54l-10.73,-25.61c-2.79,-6.62 -10.06,-9.58 -16.19,-6.62l-3.26,1.59c-6.16,2.97 -8.92,10.78 -6.13,17.4l13.07,31.24c1.56,3.8 4.12,7.01 7.39,9.31l33.56,23.63l0,9.67c0,1.23 0.92,2.19 2.03,2.19l110.98,0c1.14,0 2.06,-0.96 2.06,-2.19l0,-29.35c0,-6.17 -4.68,-11.17 -10.42,-11.17l-0.11,0c9.11,-12.58 14.1,-28 14.1,-44c0,-6.14 -0.72,-12.13 -2.09,-17.76l5.55,-8.18c1.28,-1.89 1.53,-4.25 0.64,-6.38zm-33.22,-37.53c0.86,-0.48 1.62,-0.06 1.9,0.12c0.28,0.18 0.92,0.75 0.86,1.83l-0.53,10.27c-0.17,-0.12 -0.33,-0.21 -0.5,-0.36c-1.48,-1.17 -2.98,-2.25 -4.54,-3.29c-0.17,-0.09 -0.31,-0.21 -0.47,-0.33c-1.76,-1.14 -3.54,-2.16 -5.38,-3.08c-0.11,-0.06 -0.25,-0.15 -0.36,-0.21l9.03,-4.94zm-39.47,-16.32c0.5,-0.93 1.34,-1.02 1.64,-1.02s1.17,0.09 1.64,1.02l8.05,15.01c-0.28,-0.06 -0.56,-0.06 -0.84,-0.09c-1.03,-0.15 -2.09,-0.3 -3.15,-0.39c-0.5,-0.03 -0.98,-0.09 -1.48,-0.12c-1.17,-0.09 -2.37,-0.12 -3.6,-0.15c-0.2,0 -0.42,-0.03 -0.64,-0.03c-0.2,0 -0.42,0.03 -0.64,0.03c-1.2,0.03 -2.4,0.06 -3.57,0.15c-0.5,0.03 -1,0.09 -1.48,0.12c-1.06,0.09 -2.12,0.24 -3.18,0.39c-0.28,0.03 -0.53,0.03 -0.81,0.09l8.03,-15.01zm60.93,141.34l0,27.17l-16.25,0l0,-9.91c0,-1.2 -0.92,-2.19 -2.03,-2.19s-2.03,0.99 -2.03,2.19l0,9.91l-86.57,0l0,-8.69c0,-0.75 -0.36,-1.44 -0.95,-1.83l-34.45,-24.26c-2.62,-1.86 -4.65,-4.43 -5.94,-7.46l-13.07,-31.24c-1.84,-4.4 0,-9.61 4.1,-11.62l3.26,-1.56c4.1,-1.98 8.95,0 10.79,4.4l10.73,25.61c1.25,3 3.29,5.57 5.88,7.4l13.27,9.37c0.56,0.84 1.2,1.62 1.78,2.43c0.47,0.63 0.92,1.29 1.42,1.89c0.67,0.87 1.39,1.65 2.12,2.46c0.47,0.57 0.95,1.17 1.45,1.71c0.86,0.9 1.73,1.74 2.62,2.58c0.42,0.39 0.81,0.84 1.25,1.23c1.31,1.23 2.68,2.37 4.1,3.44c0.39,0.36 0.81,0.69 1.23,0.96c11.2,8.36 24.36,12.79 38.02,12.79s26.84,-4.43 38.04,-12.79c1.76,-1.29 3.46,-2.7 5.1,-4.19c1.17,-1.05 2.29,-2.16 3.4,-3.29c0.39,-0.42 0.75,-0.87 1.14,-1.29c0.59,-0.66 1.2,-1.29 1.78,-1.98c0.17,0 0.33,-0.03 0.5,-0.03l2.98,0c3.48,0 6.33,3.06 6.33,6.8zm-12.37,-10.27c-1.98,2.4 -4.12,4.64 -6.41,6.71c-1.53,1.41 -3.15,2.76 -4.77,3.95c-10.54,7.85 -22.88,11.98 -35.73,11.98c-12.82,0 -25.17,-4.13 -35.73,-12.01c-0.33,-0.24 -0.67,-0.51 -1.06,-0.84c-1.34,-1.02 -2.65,-2.13 -3.93,-3.29c-1.25,-1.14 -2.48,-2.37 -3.65,-3.62c-0.28,-0.3 -0.56,-0.63 -0.84,-0.96c-0.86,-0.96 -1.76,-1.95 -2.56,-3c-1.09,-1.38 -2.15,-2.79 -3.15,-4.25c-7.8,-11.62 -11.93,-25.28 -11.93,-39.57c0,-31.63 20.88,-59.39 49.64,-66.04c8.72,-2.01 17.73,-2.01 26.45,0c0,0.03 0,0.03 0,0.03c0,0 0,0 0,0c2.65,0.57 5.18,1.35 7.64,2.34c0.78,0.27 1.53,0.57 2.37,0.96c6.3,2.67 12.12,6.41 17.31,11.14c0,0 0,0 0,0c0.84,0.78 1.64,1.56 2.42,2.34c2.34,2.34 4.52,4.91 6.52,7.7c1.73,2.34 3.34,4.88 4.79,7.58c2.68,4.88 4.77,10.12 6.19,15.51c0.03,0.15 0.08,0.33 0.17,0.69c0.03,0.06 0.03,0.09 0.06,0.12l-0.03,0c1.45,5.63 2.2,11.56 2.2,17.64c0,16.56 -5.69,32.5 -15.97,44.9zm20.21,-73.41l-3.71,5.45c-0.03,-0.12 -0.08,-0.24 -0.11,-0.36c-0.39,-1.17 -0.81,-2.31 -1.23,-3.47c-0.14,-0.33 -0.25,-0.72 -0.39,-1.08c-0.59,-1.47 -1.23,-2.94 -1.92,-4.37c0,-0.06 -0.03,-0.09 -0.03,-0.12l6.05,0.72c1,0.09 1.42,0.87 1.53,1.2c0.14,0.33 0.39,1.17 -0.2,2.04z" id="svg_2"/>
   <path d="m159.52,63.85c-0.06,-0.24 -0.14,-0.45 -0.25,-0.63c-0.06,-0.09 -0.11,-0.18 -0.2,-0.24c-0.14,-0.18 -0.33,-0.33 -0.56,-0.45c-0.06,-0.03 -0.08,-0.09 -0.14,-0.12c-0.03,0 -0.03,0 -0.06,0c0,0 -0.03,-0.03 -0.06,-0.03c-0.28,-0.12 -0.56,-0.12 -0.84,-0.12c-0.08,0.03 -0.14,0.06 -0.22,0.06c-0.22,0.06 -0.45,0.15 -0.64,0.27c-0.03,0.03 -0.08,0.03 -0.11,0.06c-13.02,9.64 -30.24,14.98 -48.52,14.98s-35.48,-5.33 -48.5,-14.98c-0.03,-0.03 -0.08,-0.03 -0.11,-0.06c-0.22,-0.12 -0.45,-0.21 -0.67,-0.27c-0.08,0 -0.14,-0.03 -0.2,-0.06c-0.28,0 -0.56,0 -0.86,0.12c0,0 -0.03,0.03 -0.06,0.03c0,0 -0.03,0 -0.03,0c-0.06,0.03 -0.08,0.09 -0.14,0.12c-0.22,0.12 -0.42,0.27 -0.59,0.45c-0.06,0.06 -0.11,0.15 -0.17,0.24c-0.11,0.21 -0.2,0.39 -0.28,0.63c0,0.06 -0.06,0.09 -0.08,0.18c-0.7,3.74 -1.06,7.55 -1.06,11.35c0,31.24 23.66,56.64 52.73,56.64s52.73,-25.4 52.73,-56.64c0,-3.8 -0.36,-7.61 -1.06,-11.35c0,-0.09 -0.06,-0.12 -0.08,-0.18zm-5.71,5.69l-3.51,10.99l-5.32,-1.65c-1.09,-0.33 -2.2,0.33 -2.51,1.5l-3.48,12.73l-9.59,-5.03c-0.84,-0.45 -1.87,-0.21 -2.48,0.57l-8.78,11.38l-8.78,-8.99c-0.78,-0.81 -2.03,-0.81 -2.81,0l-8.78,8.99l-8.78,-11.38c-0.61,-0.78 -1.64,-1.02 -2.48,-0.57l-9.62,5.03l-3.46,-12.73c-0.31,-1.17 -1.42,-1.83 -2.54,-1.5l-5.3,1.65l-3.51,-10.99c12.96,8.06 28.99,12.46 45.85,12.46c16.89,0 32.92,-4.4 45.88,-12.46zm-45.88,58.08c-26.81,0 -48.64,-23.42 -48.64,-52.24c0,-0.3 0.03,-0.63 0.03,-0.93l3.04,9.46c0.36,1.11 1.45,1.74 2.51,1.41l5.21,-1.62l3.57,13.12c0.17,0.63 0.59,1.14 1.14,1.41c0.53,0.27 1.17,0.24 1.7,-0.03l10.37,-5.42l9.17,11.86c0.33,0.48 0.86,0.75 1.45,0.78c0.5,0.03 1.11,-0.18 1.51,-0.6l8.95,-9.17l8.95,9.17c0.39,0.39 0.89,0.6 1.42,0.6c0.03,0 0.08,0 0.11,0c0.56,-0.03 1.09,-0.3 1.45,-0.78l9.17,-11.86l10.34,5.42c0.56,0.27 1.17,0.27 1.73,0.03c0.56,-0.27 0.98,-0.78 1.14,-1.41l3.57,-13.12l5.21,1.62c1.06,0.33 2.15,-0.3 2.48,-1.41l3.07,-9.46c0,0.3 0.03,0.63 0.03,0.93c0,28.81 -21.82,52.24 -48.66,52.24z" id="svg_3"/>
   <circle cx="92.24" cy="59.72" id="svg_4" r="3.18"/>
   <circle cx="123.65" cy="59.72" id="svg_5" r="3.18"/>
  </g>
 </g>
</svg>