<svg width="281" height="62" viewBox="0 0 281 62" fill="none" xmlns="http://www.w3.org/2000/svg">
<path d="M77.422 54.215C80.593 54.215 83.197 51.611 83.197 48.419C83.197 45.227 80.593 42.623 77.422 42.623H74.902V54.215H77.422ZM73.033 56.084V40.754H77.422C81.622 40.754 85.066 44.198 85.066 48.419C85.066 52.64 81.622 56.084 77.422 56.084H73.033ZM91.9665 54.362C94.1715 54.362 95.3895 52.766 95.3895 50.666C95.3895 48.587 94.1715 46.991 91.9665 46.991C89.7615 46.991 88.5225 48.587 88.5225 50.666C88.5225 52.766 89.7615 54.362 91.9665 54.362ZM86.7795 50.666C86.7795 47.726 88.6905 45.185 91.9665 45.185C95.3055 45.185 97.1745 47.726 97.1745 50.666C97.1745 53.627 95.3055 56.147 91.9665 56.147C88.6905 56.147 86.7795 53.627 86.7795 50.666ZM109.148 54.215C112.319 54.215 114.923 51.611 114.923 48.419C114.923 45.227 112.319 42.623 109.148 42.623H106.628V54.215H109.148ZM104.759 56.084V40.754H109.148C113.348 40.754 116.792 44.198 116.792 48.419C116.792 52.64 113.348 56.084 109.148 56.084H104.759ZM126.716 49.847C126.632 48.377 125.771 46.991 123.692 46.991C121.802 46.991 120.542 47.915 120.332 49.847H126.716ZM118.505 50.666C118.505 47.705 120.332 45.206 123.65 45.206C127.094 45.206 128.018 47.915 128.102 48.146C128.753 49.847 128.543 51.527 128.543 51.527H120.332C120.5 53.291 121.613 54.404 123.671 54.404C126.149 54.404 126.632 52.955 126.632 52.955L128.207 53.753C128.207 53.753 127.283 56.126 123.65 56.126C120.332 56.126 118.505 53.627 118.505 50.666ZM135.987 54.383C138.213 54.383 139.326 52.808 139.326 50.729C139.326 48.671 138.213 47.075 135.987 47.075C134.181 47.075 132.648 48.671 132.648 50.729C132.648 52.808 134.181 54.383 135.987 54.383ZM130.758 56V40.334H132.585V47.369C133.551 45.815 134.979 45.311 136.092 45.311C139.389 45.311 141.216 47.81 141.216 50.729C141.216 53.669 139.368 56.168 136.071 56.168C134.979 56.168 133.572 55.727 132.585 54.089V56H130.758ZM148.384 54.425C150.169 54.425 151.765 52.955 151.786 50.771C151.765 48.587 150.169 47.096 148.384 47.096C146.158 47.096 145.024 48.692 145.024 50.771C145.024 52.85 146.158 54.425 148.384 54.425ZM143.155 50.771C143.155 47.81 145.003 45.311 148.3 45.311C149.518 45.311 150.862 45.941 151.786 47.369V45.248H153.634V56.063H151.786V54.152C150.82 55.643 149.539 56.231 148.3 56.231C145.003 56.231 143.155 53.69 143.155 50.771ZM162.356 55.853C161.957 55.937 161.243 56.063 160.55 56.042C158.954 56.042 157.484 54.677 157.484 52.934V46.928H155.699V45.164H157.484V41.657H159.374V45.164H162.02V46.928H159.374V52.934C159.374 53.753 159.836 54.152 160.592 54.152C161.075 54.173 161.579 54.089 161.978 54.005L162.356 55.853ZM171.792 49.847C171.708 48.377 170.847 46.991 168.768 46.991C166.878 46.991 165.618 47.915 165.408 49.847H171.792ZM163.581 50.666C163.581 47.705 165.408 45.206 168.726 45.206C172.17 45.206 173.094 47.915 173.178 48.146C173.829 49.847 173.619 51.527 173.619 51.527H165.408C165.576 53.291 166.689 54.404 168.747 54.404C171.225 54.404 171.708 52.955 171.708 52.955L173.283 53.753C173.283 53.753 172.359 56.126 168.726 56.126C165.408 56.126 163.581 53.627 163.581 50.666ZM178.239 54.257L176.958 58.583H175.593L176.286 54.257H178.239ZM201.921 47.894C202.005 48.419 201.9 49.595 201.9 49.595C201.501 53.921 198.75 56.168 194.655 56.252C189.951 56.252 187.074 52.787 187.074 48.419C187.074 44.072 189.951 40.607 194.655 40.607C199.464 40.607 201.081 44.303 201.081 44.303L199.443 45.185C199.443 45.185 198.246 42.476 194.655 42.476C191.022 42.476 188.922 45.101 188.922 48.419C188.922 51.758 191.022 54.383 194.655 54.383C197.595 54.278 199.611 52.955 199.989 49.679H194.949V47.894H201.921ZM212.131 49.847C212.047 48.377 211.186 46.991 209.107 46.991C207.217 46.991 205.957 47.915 205.747 49.847H212.131ZM203.92 50.666C203.92 47.705 205.747 45.206 209.065 45.206C212.509 45.206 213.433 47.915 213.517 48.146C214.168 49.847 213.958 51.527 213.958 51.527H205.747C205.915 53.291 207.028 54.404 209.086 54.404C211.564 54.404 212.047 52.955 212.047 52.955L213.622 53.753C213.622 53.753 212.698 56.126 209.065 56.126C205.747 56.126 203.92 53.627 203.92 50.666ZM221.685 55.853C221.286 55.937 220.572 56.063 219.879 56.042C218.283 56.042 216.813 54.677 216.813 52.934V46.928H215.028V45.164H216.813V41.657H218.703V45.164H221.349V46.928H218.703V52.934C218.703 53.753 219.165 54.152 219.921 54.152C220.404 54.173 220.908 54.089 221.307 54.005L221.685 55.853ZM250.127 40.754L245.444 56.084H243.554L239.816 43.862L235.994 56.084H234.125L229.379 40.754H231.269L235.091 53.018L238.829 40.775H240.782L244.541 53.018L248.237 40.754H250.127ZM252.331 45.227H254.158V56.084H252.331V45.227ZM252.142 41.3C252.142 40.712 252.541 40.229 253.255 40.229C253.948 40.229 254.347 40.712 254.347 41.3C254.347 41.93 253.948 42.413 253.255 42.413C252.541 42.413 252.142 41.93 252.142 41.3ZM264.646 49.868C264.646 48.398 263.722 47.159 261.937 47.159C260.215 47.159 258.934 48.587 258.934 50.036V56.063H257.086V45.248H258.934V47.033C259.669 45.983 260.74 45.248 262.105 45.248C264.625 45.248 266.494 47.012 266.494 49.763V56.063H264.646V49.868ZM272.376 40.502L272.082 52.157H270.36L270.024 40.502H272.376ZM270.045 55.181C270.045 54.551 270.465 54.026 271.242 54.026C271.998 54.026 272.397 54.551 272.397 55.181C272.397 55.853 271.998 56.378 271.242 56.378C270.465 56.378 270.045 55.853 270.045 55.181Z" fill="#919191"/>
<path fill-rule="evenodd" clip-rule="evenodd" d="M54.9196 27.7052C54.9196 28.4562 54.902 29.1853 54.8669 29.8924H54.9198C54.9198 54.4382 32.5632 59.7848 25.273 61C24.0579 61.243 22.8429 60.2709 22.8429 59.0557V53.4661H9.72028C4.37413 53.4661 0 49.0916 0 43.745V9.72112C0 4.3745 4.37413 0 9.72028 0H22.1136C25.5157 0 28.1888 0.243028 30.6189 0.486056C33.049 0.729084 35.236 1.21514 36.9371 1.94422C37.4394 2.15952 37.9417 2.35363 38.4378 2.54532C39.6216 3.00276 40.7697 3.44643 41.7972 4.13147C42.3137 4.47584 42.7692 4.78971 43.1962 5.08388C43.9744 5.62014 44.6577 6.09094 45.4423 6.56175C47.3864 8.01992 48.8444 9.72112 50.3024 11.9084C51.7605 14.0956 52.7325 16.2829 53.4615 18.9562C54.1906 21.6295 54.9196 24.5458 54.9196 27.7052ZM9 27.9841C9 29.7745 10.1935 30.9681 11.9838 30.9681C13.4757 30.9681 14.9676 29.4761 14.9676 27.9841C14.9676 26.1936 13.7741 25 11.9838 25C10.1935 25 9 26.1936 9 27.9841ZM26.9029 30.9681C25.1126 30.9681 23.9191 29.7745 23.9191 27.9841C23.9191 26.1936 25.1126 25 26.9029 25C28.6932 25 29.8867 26.1936 29.8867 27.9841C29.8867 29.4761 28.3948 30.9681 26.9029 30.9681ZM38.8382 27.9841C38.8382 29.7745 40.0318 30.9681 41.822 30.9681C43.314 30.9681 44.8059 29.4761 44.8059 27.9841C44.8059 26.1936 43.6123 25 41.822 25C40.0318 25 38.8382 26.1936 38.8382 27.9841Z" fill="white"/>
<path d="M73.1445 7.67358C73.1445 6.45844 74.1166 5.48633 75.3316 5.48633H82.3788C90.155 5.48633 95.7442 10.8329 95.7442 17.8807C95.7442 24.9286 90.398 30.5182 82.3788 30.5182H75.3316C74.1166 30.5182 73.1445 29.5461 73.1445 28.331V7.67358ZM82.3788 26.3867C87.725 26.3867 91.127 22.7413 91.127 17.8807C91.127 13.0202 87.725 9.37477 82.3788 9.37477H77.5187V26.3867H82.3788Z" fill="white"/>
<path d="M101.09 28.331V7.67358C101.09 6.45844 102.062 5.48633 103.277 5.48633H117.857C118.829 5.48633 119.801 6.45844 119.801 7.43055C119.801 8.64569 118.829 9.37477 117.857 9.37477H105.464V15.9365H116.156C117.128 15.9365 118.1 16.9086 118.1 17.8807C118.1 18.8529 117.128 19.825 116.156 19.825H105.464V26.6298H118.1C119.072 26.6298 120.044 27.6019 120.044 28.574C120.044 29.7891 119.072 30.5182 118.1 30.5182H103.277C102.062 30.5182 101.09 29.5461 101.09 28.331Z" fill="white"/>
<path d="M125.148 7.67358C125.148 6.45844 126.12 5.48633 127.336 5.48633H136.327C139.243 5.48633 141.43 6.21541 142.888 7.67358C144.103 8.88872 144.589 10.1039 144.589 11.8051C144.589 14.7214 142.888 16.4226 140.944 17.3947C143.86 18.3668 146.047 20.068 146.047 23.4704C146.047 27.8449 142.402 30.2752 136.813 30.2752H127.336C126.12 30.2752 125.148 29.3031 125.148 28.0879V7.67358ZM135.598 15.9365C138.514 15.9365 140.215 14.7214 140.215 12.5341C140.215 10.5899 138.757 9.37477 135.841 9.37477H129.523V15.9365H135.598ZM136.813 26.6298C139.729 26.6298 141.673 25.4146 141.673 23.2274C141.673 21.0401 139.972 19.825 136.57 19.825H129.523V26.6298H136.813Z" fill="white"/>
<path d="M155.523 24.4424L153.336 29.3029C153.093 30.275 152.121 30.7611 151.392 30.7611C150.177 30.7611 149.448 29.789 149.448 28.8169C149.448 28.5738 149.448 28.0878 149.691 27.8448L158.926 6.94436C159.412 5.72922 160.384 5.24316 161.599 5.24316H161.842C163.057 5.24316 164.029 5.97225 164.515 6.94436L173.749 27.8448C173.992 28.0878 173.992 28.5738 173.992 28.8169C173.992 30.032 173.02 31.0041 171.805 31.0041C170.833 31.0041 170.104 30.275 169.618 29.546L167.674 24.9284L166.216 20.5539L161.842 10.3468L157.224 20.5539L155.523 24.4424Z" fill="white"/>
<path d="M182.255 9.37477H176.179C174.964 9.37477 174.235 8.40266 174.235 7.43055C174.235 6.21541 175.207 5.48633 176.179 5.48633H192.947C194.162 5.48633 194.891 6.45844 194.891 7.43055C194.891 8.64569 193.919 9.37477 192.947 9.37477H186.872V28.331C186.872 29.5461 185.9 30.5182 184.685 30.5182C183.47 30.5182 182.498 29.5461 182.498 28.331V9.37477H182.255Z" fill="white"/>
<path d="M196.835 18.1235C196.835 11.0757 202.181 5 209.957 5C217.734 5 223.08 10.8327 223.08 17.8805C223.08 24.9283 217.734 30.761 209.957 30.761C202.181 31.004 196.835 25.1713 196.835 18.1235ZM218.463 18.1235C218.463 13.2629 214.817 9.13147 209.957 9.13147C204.854 9.13147 201.452 13.0199 201.452 17.8805C201.452 22.741 205.097 26.8725 209.957 26.8725C215.06 26.8725 218.463 22.9841 218.463 18.1235Z" fill="white"/>
<path d="M228.426 7.67358C228.426 6.45844 229.398 5.48633 230.613 5.48633H239.604C242.763 5.48633 245.193 6.45844 246.894 7.91661C248.109 9.37477 249.081 11.076 249.081 13.2632C249.081 17.3947 246.651 19.825 243.492 20.7971L248.352 26.8728C248.838 27.3588 249.081 27.8449 249.081 28.574C249.081 29.7891 248.109 30.5182 246.894 30.5182C245.922 30.5182 245.193 30.0321 244.707 29.3031L238.632 21.5262H233.043V28.331C233.043 29.5461 232.071 30.5182 230.856 30.5182C229.641 30.5182 228.669 29.5461 228.669 28.331V7.67358H228.426ZM239.361 17.8807C242.52 17.8807 244.464 16.1796 244.464 13.7493C244.464 11.076 242.52 9.6178 239.361 9.6178H233.043V18.1238H239.361V17.8807Z" fill="white"/>
<path d="M260.746 20.797L251.998 8.88858C251.755 8.40253 251.512 7.91647 251.512 7.43042C251.512 6.21528 252.484 5.24316 253.699 5.24316C254.671 5.24316 255.4 5.72922 255.886 6.4583L262.933 16.6655L269.98 6.4583C270.466 5.72922 271.195 5.24316 272.167 5.24316C273.382 5.24316 274.354 6.21528 274.354 7.43042C274.354 8.1595 274.111 8.64555 273.625 8.88858L265.12 20.5539V28.3308C265.12 29.546 264.148 30.5181 262.933 30.5181C261.718 30.5181 260.746 29.546 260.746 28.3308V20.797Z" fill="white"/>
<path d="M162 21.96L167 21.96" stroke="white" stroke-width="4.23" stroke-miterlimit="10" stroke-linecap="round"/>
<path d="M278.43 31.0041C279.772 31.0041 280.86 29.916 280.86 28.5738C280.86 27.2316 279.772 26.1436 278.43 26.1436C277.088 26.1436 276 27.2316 276 28.5738C276 29.916 277.088 31.0041 278.43 31.0041Z" fill="white"/>
</svg>
