<svg width="1920" height="72" viewBox="0 0 1920 72" fill="none" xmlns="http://www.w3.org/2000/svg">
<g clip-path="url(#clip0_248_1790)">
<mask id="path-1-inside-1_248_1790" fill="white">
<path d="M0 0H1920V72H0V0Z"/>
</mask>
<path d="M0 0H1920V72H0V0Z" fill="#1B1B1B"/>
<path d="M396.838 29.3459C396.322 27.7978 395.677 26.3787 394.903 25.2176C394.128 24.0565 393.225 23.0244 392.064 22.1213C391.419 21.6053 390.774 21.0892 389.999 20.7022C389.225 20.1861 388.322 19.7991 387.161 19.4121C385.999 19.025 384.838 18.767 383.419 18.509C381.999 18.251 380.322 18.251 378.386 18.251H371.29C368.193 18.38 365.612 20.9602 365.612 24.0565V43.6662C365.612 46.7625 368.193 49.3427 371.29 49.3427H378.903V52.568C378.903 53.342 379.548 53.8581 380.322 53.7291C384.58 53.084 397.612 49.8587 397.612 35.5385C397.612 35.5385 397.612 34.7644 397.612 34.2484C397.612 32.7002 397.354 30.8941 396.838 29.3459ZM374.516 35.2805C373.741 35.2805 373.096 34.6354 373.096 33.8613C373.096 33.0873 373.741 32.4422 374.516 32.4422C375.29 32.4422 375.935 33.0873 375.935 33.8613C375.935 34.6354 375.29 35.2805 374.516 35.2805ZM381.612 35.2805C380.838 35.2805 380.193 34.6354 380.193 33.8613C380.193 33.0873 380.838 32.4422 381.612 32.4422C382.386 32.4422 383.032 33.0873 383.032 33.8613C383.032 34.6354 382.386 35.2805 381.612 35.2805ZM388.709 35.2805C387.935 35.2805 387.29 34.6354 387.29 33.8613C387.29 33.0873 387.935 32.4422 388.709 32.4422C389.483 32.4422 390.128 33.0873 390.128 33.8613C390.128 34.6354 389.483 35.2805 388.709 35.2805Z" fill="white"/>
<path d="M424.373 20.5518H415.36C414.44 20.5518 413.612 21.3793 413.612 22.2989V49.7012C413.612 50.7127 414.44 51.4483 415.36 51.4483H424.373C434.121 51.4483 440.835 44.6437 440.835 35.9081V35.8161C440.835 27.1724 434.121 20.5518 424.373 20.5518ZM437.248 36.092C437.248 42.9885 432.282 48.2299 424.373 48.2299H417.107V23.7701H424.373C432.19 23.7701 437.248 29.1954 437.248 36.092Z" fill="white"/>
<path d="M467.69 48.3219H449.94V37.4713H464.988C465.908 37.4713 466.552 36.7357 466.552 35.9081C466.552 35.0805 465.816 34.3449 464.988 34.3449H449.94V23.6782H467.414C468.334 23.6782 468.978 22.9426 468.978 22.115C468.978 21.1954 468.242 20.5518 467.414 20.5518H448.193C447.273 20.5518 446.445 21.3793 446.445 22.2989V49.7012C446.445 50.7127 447.273 51.4483 448.193 51.4483H467.69C468.61 51.4483 469.254 50.7127 469.254 49.8851C469.254 49.0575 468.61 48.3219 467.69 48.3219Z" fill="white"/>
<path d="M493.625 35.5403C496.017 34.4368 498.5 32.4138 498.5 28.3678V28.2759C498.5 26.2529 497.764 24.6897 496.476 23.3104C494.729 21.5633 491.878 20.5518 488.383 20.5518H476.887C475.967 20.5518 475.14 21.3793 475.14 22.2989V49.7012C475.14 50.7127 475.967 51.4483 476.887 51.4483H488.935C495.741 51.4483 500.155 48.3219 500.155 42.9885C500.247 38.7587 497.304 36.6437 493.625 35.5403ZM478.726 23.6782H488.199C492.614 23.6782 495.097 25.7012 495.097 28.7357V28.8276C495.097 32.4138 492.154 34.3449 487.923 34.3449H478.726V23.6782ZM496.752 42.8046C496.752 46.2989 493.809 48.3219 489.119 48.3219H478.726V37.4713H488.475C493.901 37.4713 496.752 39.4023 496.752 42.8046Z" fill="white"/>
<path d="M521.584 21.7468C521.216 20.7353 520.481 20.1836 519.377 20.1836H519.193C518.089 20.1836 517.446 20.7353 516.986 21.7468L504.386 49.2411C504.202 49.6089 504.202 49.8847 504.202 50.1606C504.202 51.0801 504.938 51.7238 505.766 51.7238C506.593 51.7238 507.145 51.2641 507.421 50.5284L510.64 43.356L512.02 40.1376L519.193 24.3215L526.367 40.1376L527.01 41.6089H514.411C513.491 41.6089 512.847 42.3445 512.847 43.1721C512.847 43.9997 513.583 44.7353 514.411 44.7353H528.39L530.965 50.4365C531.241 51.1721 531.885 51.7238 532.713 51.7238C533.632 51.7238 534.368 50.9882 534.368 50.0687C534.368 49.7928 534.276 49.5169 534.184 49.1491L521.584 21.7468Z" fill="white"/>
<path d="M554.969 20.5518H533.448C532.529 20.5518 531.793 21.2874 531.793 22.2069C531.793 23.1265 532.529 23.7701 533.448 23.7701H542.461V49.977C542.461 50.9885 543.289 51.7242 544.209 51.7242C545.22 51.7242 545.956 50.8966 545.956 49.977V23.7701H554.969C555.889 23.7701 556.625 23.0345 556.625 22.2069C556.625 21.2874 555.889 20.5518 554.969 20.5518Z" fill="white"/>
<path d="M574.374 20C564.902 20 558.556 27.4483 558.556 36V36.092C558.556 44.6437 564.902 52 574.282 52C583.663 52 590.101 44.5517 590.101 36V35.908C590.193 27.3563 583.847 20 574.374 20ZM586.514 36.092C586.514 43.1724 581.456 48.7816 574.374 48.7816C567.293 48.7816 562.142 42.9885 562.142 36V35.908C562.142 28.8276 567.201 23.2184 574.282 23.2184C581.364 23.2184 586.514 29.0115 586.514 36.092Z" fill="white"/>
<path d="M609.138 20.5518H597.55C596.63 20.5518 595.803 21.3793 595.803 22.2989V49.977C595.803 50.9885 596.63 51.7242 597.55 51.7242C598.562 51.7242 599.298 50.8966 599.298 49.977V39.4943H608.219L616.956 50.8046C617.323 51.3564 617.875 51.7242 618.611 51.7242C619.531 51.7242 620.358 50.8966 620.358 49.977C620.358 49.5173 620.175 49.0575 619.807 48.6897L612.081 38.7587C616.864 37.8391 620.358 34.8966 620.358 29.7472V29.6552C620.358 27.2644 619.439 25.0575 617.967 23.5862C615.944 21.6552 612.909 20.5518 609.138 20.5518ZM616.772 29.9311C616.772 33.8851 613.461 36.2759 608.77 36.2759H599.206V23.7701H608.862C613.829 23.7701 616.772 26.069 616.772 29.9311Z" fill="white"/>
<path d="M649.237 20.2764C648.501 20.2764 648.041 20.7361 647.581 21.3798L637.281 36.0925L627.072 21.3798C626.612 20.7361 626.152 20.2764 625.417 20.2764C624.405 20.2764 623.577 21.104 623.577 22.0235C623.577 22.4833 623.761 22.8511 623.945 23.2189L635.441 39.3108V49.9775C635.441 50.989 636.269 51.7246 637.189 51.7246C638.2 51.7246 638.936 50.8971 638.936 49.9775V39.2189L650.432 23.3108C650.616 22.943 650.892 22.4833 650.892 22.0235C650.984 21.104 650.156 20.2764 649.237 20.2764Z" fill="white"/>
<path d="M651.893 51.4414C653.27 51.4414 654.387 50.3249 654.387 48.9477C654.387 47.5705 653.27 46.4541 651.893 46.4541C650.516 46.4541 649.399 47.5705 649.399 48.9477C649.399 50.3249 650.516 51.4414 651.893 51.4414Z" fill="white"/>
<rect x="1467.5" y="18.5" width="92" height="35" rx="11.5" fill="#1B1B1B"/>
<path d="M1493.48 39.23H1498.61V37.175H1494.89V32.675H1502.42V31.16H1494.86V29.69H1504.27V34.115H1496.72V35.69H1504.57V37.175H1500.47V39.23H1505.65V40.745H1493.48V39.23ZM1508.34 30.05H1517.73V31.625C1517.73 33.485 1517.73 35.345 1517.25 38.105L1515.39 37.955C1515.88 35.36 1515.88 33.44 1515.88 31.625V31.535H1508.34V30.05ZM1507.09 40.475V38.96H1519.24V40.475H1507.09ZM1529.97 28.82H1531.85V38.495H1529.97V28.82ZM1520.88 33.08C1520.88 31.085 1522.49 29.675 1524.53 29.675C1526.58 29.675 1528.17 31.085 1528.17 33.08C1528.17 35.045 1526.58 36.485 1524.53 36.485C1522.49 36.485 1520.88 35.045 1520.88 33.08ZM1522.7 33.08C1522.7 34.175 1523.51 34.865 1524.53 34.865C1525.56 34.865 1526.36 34.175 1526.36 33.08C1526.36 31.955 1525.56 31.28 1524.53 31.28C1523.51 31.28 1522.7 31.955 1522.7 33.08ZM1522.92 42.005V37.52H1524.77V40.52H1532.18V42.005H1522.92Z" fill="white"/>
<rect x="1467.5" y="18.5" width="92" height="35" rx="11.5" stroke="white"/>
<path d="M1920 71H0V73H1920V71Z" fill="#464747" mask="url(#path-1-inside-1_248_1790)"/>
</g>
<defs>
<clipPath id="clip0_248_1790">
<rect width="1920" height="72" fill="white"/>
</clipPath>
</defs>
</svg>
