<svg width="144" height="49" viewBox="0 0 144 49" fill="none" xmlns="http://www.w3.org/2000/svg">
<path d="M9.398 39.288H27.02V48H0.29V1.8H9.398V39.288ZM67.2324 41.994C62.5684 46.614 56.8924 48.924 50.2044 48.924C43.5164 48.924 37.8404 46.614 33.1764 41.994C28.5564 37.33 26.2464 31.632 26.2464 24.9C26.2464 18.168 28.5564 12.492 33.1764 7.872C37.8404 3.208 43.5164 0.875997 50.2044 0.875997C56.8924 0.875997 62.5684 3.208 67.2324 7.872C71.8964 12.492 74.2284 18.168 74.2284 24.9C74.2284 31.632 71.8964 37.33 67.2324 41.994ZM39.5784 35.79C42.4384 38.606 45.9804 40.014 50.2044 40.014C54.4284 40.014 57.9704 38.606 60.8304 35.79C63.6904 32.93 65.1204 29.3 65.1204 24.9C65.1204 20.5 63.6904 16.87 60.8304 14.01C57.9704 11.15 54.4284 9.72 50.2044 9.72C45.9804 9.72 42.4384 11.15 39.5784 14.01C36.7184 16.87 35.2884 20.5 35.2884 24.9C35.2884 29.3 36.7184 32.93 39.5784 35.79ZM93.7281 48.924C89.1521 48.924 85.3021 47.912 82.1781 45.888C79.0541 43.82 76.8541 41.026 75.5781 37.506L83.3661 32.952C85.1701 37.66 88.7121 40.014 93.9921 40.014C96.5441 40.014 98.4141 39.552 99.6021 38.628C100.79 37.704 101.384 36.538 101.384 35.13C101.384 33.502 100.658 32.248 99.2061 31.368C97.7541 30.444 95.1581 29.454 91.4181 28.398C89.3501 27.782 87.5901 27.166 86.1381 26.55C84.7301 25.934 83.3001 25.12 81.8481 24.108C80.4401 23.052 79.3621 21.732 78.6141 20.148C77.8661 18.564 77.4921 16.716 77.4921 14.604C77.4921 10.424 78.9661 7.102 81.9141 4.638C84.9061 2.13 88.4921 0.875997 92.6721 0.875997C96.4121 0.875997 99.6901 1.8 102.506 3.648C105.366 5.452 107.588 7.982 109.172 11.238L101.516 15.66C99.6681 11.7 96.7201 9.72 92.6721 9.72C90.7801 9.72 89.2841 10.16 88.1841 11.04C87.1281 11.876 86.6001 12.976 86.6001 14.34C86.6001 15.792 87.1941 16.98 88.3821 17.904C89.6141 18.784 91.9461 19.752 95.3781 20.808C96.7861 21.248 97.8421 21.6 98.5461 21.864C99.2941 22.084 100.284 22.458 101.516 22.986C102.792 23.47 103.76 23.932 104.42 24.372C105.124 24.812 105.916 25.406 106.796 26.154C107.676 26.902 108.336 27.672 108.776 28.464C109.26 29.256 109.656 30.224 109.964 31.368C110.316 32.468 110.492 33.678 110.492 34.998C110.492 39.266 108.93 42.654 105.806 45.162C102.726 47.67 98.7001 48.924 93.7281 48.924ZM124.218 39.288H143.688V48H115.11V1.8H143.358V10.512H124.218V20.346H141.708V28.926H124.218V39.288Z" fill="#966052"/>
</svg>
