<svg width="592" height="694" viewBox="0 0 592 694" fill="none" xmlns="http://www.w3.org/2000/svg">
<g filter="url(#filter0_f_497_3771)">
<ellipse cx="292.5" cy="340.5" rx="109" ry="113.5" fill="#3D1B1B" fill-opacity="0.4"/>
</g>
<path fill-rule="evenodd" clip-rule="evenodd" d="M310.8 413.062C310.8 403.072 302.7 394.973 292.71 394.973V394.973C282.719 394.973 274.62 403.072 274.62 413.062V439.443C274.62 447.352 268.208 453.764 260.299 453.764V453.764C252.389 453.764 245.978 460.176 245.978 468.085V468.085C245.978 475.994 252.389 482.406 260.299 482.406H325.12C333.029 482.406 339.441 475.994 339.441 468.085V468.085C339.441 460.176 333.03 453.764 325.12 453.764V453.764C317.211 453.764 310.8 447.352 310.8 439.443V413.062Z" fill="url(#paint0_linear_497_3771)"/>
<g filter="url(#filter1_i_497_3771)">
<rect x="264.821" y="407.032" width="55.7767" height="18.0897" rx="9.04487" fill="#78463A"/>
</g>
<path d="M227.889 467.332C227.889 459.006 234.638 452.257 242.963 452.257H257.001L258.501 456L263.501 452.257H342.457C350.783 452.257 357.532 459.006 357.532 467.332V467.332C357.532 475.657 350.783 482.406 342.457 482.406H242.963C234.638 482.406 227.889 475.657 227.889 467.332V467.332Z" fill="#A96757"/>
<path d="M227.889 467.332C227.889 459.006 234.638 452.257 242.963 452.257H257.001L258.501 456L263.501 452.257H342.457C350.783 452.257 357.532 459.006 357.532 467.332V467.332C357.532 475.657 350.783 482.406 342.457 482.406H242.963C234.638 482.406 227.889 475.657 227.889 467.332V467.332Z" fill="url(#paint1_linear_497_3771)"/>
<path fill-rule="evenodd" clip-rule="evenodd" d="M401.444 323.279C401.915 319.595 401.349 316.017 399.975 312.839C399.218 311.09 392.79 313.972 392.292 313.371C391.923 312.315 395.066 305.898 393.933 305.011C391.195 302.867 387.86 301.41 384.159 300.938L350.888 296.692L339.582 385.292L347.433 386.293L346.431 394.144C371.413 397.332 394.25 379.664 397.437 354.682L400.896 327.574L399.701 326.413L401.15 325.59L401.444 323.279ZM356.42 378.39L364.585 314.397L382.156 316.639C384.427 316.929 386.033 319.005 385.743 321.276L381.736 352.678C380.002 366.271 369.358 376.547 356.42 378.39Z" fill="url(#paint2_linear_497_3771)"/>
<path fill-rule="evenodd" clip-rule="evenodd" d="M202.189 297.853C203.585 286.911 213.588 279.172 224.53 280.568L257.802 284.814L246.496 373.414L238.646 372.412L237.644 380.262C212.662 377.075 194.994 354.238 198.182 329.256L200.814 324.725L198.919 323.475L202.189 297.853ZM231.931 362.505L240.097 298.512L222.527 296.269C220.256 295.98 218.18 297.586 217.89 299.857L213.883 331.259C212.148 344.852 219.87 357.471 231.931 362.505Z" fill="url(#paint3_linear_497_3771)"/>
<path d="M233.78 264.652C234.334 260.316 238.297 257.25 242.633 257.803L338 269.972L339.5 273.5L346.057 271L371.233 274.213C375.569 274.766 378.635 278.729 378.082 283.065C377.529 287.401 373.565 290.467 369.23 289.914L240.629 273.504C236.293 272.951 233.227 268.987 233.78 264.652Z" fill="#A86656"/>
<g filter="url(#filter2_i_497_3771)">
<path d="M231.767 280.437C232.326 276.055 236.333 272.955 240.715 273.514L369.146 289.902C373.528 290.462 376.628 294.468 376.069 298.851L369.02 354.094C363.935 393.942 327.51 422.123 287.662 417.038C275.778 415.521 264.931 411.217 255.696 404.866C254.466 404.021 254.094 399.866 253.594 399.866C253.094 399.866 250.594 400.866 250.412 400.866C245.813 397.042 241.709 392.67 238.189 387.866C237.469 386.884 236.774 385.884 236.104 384.866C226.881 370.862 222.429 353.618 224.718 335.68L231.767 280.437Z" fill="url(#paint4_radial_497_3771)"/>
<path d="M231.767 280.437C232.326 276.055 236.333 272.955 240.715 273.514L369.146 289.902C373.528 290.462 376.628 294.468 376.069 298.851L369.02 354.094C363.935 393.942 327.51 422.123 287.662 417.038C275.778 415.521 264.931 411.217 255.696 404.866C254.466 404.021 254.094 399.866 253.594 399.866C253.094 399.866 250.594 400.866 250.412 400.866C245.813 397.042 241.709 392.67 238.189 387.866C237.469 386.884 236.774 385.884 236.104 384.866C226.881 370.862 222.429 353.618 224.718 335.68L231.767 280.437Z" fill="url(#paint5_linear_497_3771)"/>
</g>
<g filter="url(#filter3_i_497_3771)">
<circle cx="298.693" cy="338.012" r="33.5948" transform="rotate(4.28733 298.693 338.012)" fill="#E6AC9F"/>
<path fill-rule="evenodd" clip-rule="evenodd" d="M316.729 321.403C314.016 320.95 311.765 321.64 310.63 322.873C310.044 323.511 309.052 323.552 308.415 322.966C307.778 322.379 307.736 321.387 308.323 320.75C310.422 318.469 313.922 317.74 317.303 318.32C320.744 318.909 324.341 320.879 326.901 324.396C327.411 325.096 327.256 326.077 326.556 326.587C326.165 326.871 325.687 326.949 325.252 326.84C325.678 329.039 325.379 331.462 325.037 333.247C324.658 335.22 322.799 336.55 320.809 336.273L320.809 336.273C320.805 336.272 320.764 336.267 320.676 336.259C320.589 336.252 320.479 336.244 320.349 336.237C320.09 336.222 319.787 336.211 319.494 336.206C319.193 336.201 318.944 336.204 318.778 336.212L318.777 336.212C317.317 336.511 315.79 335.919 314.92 334.662C313.619 332.782 312.761 330.181 312.721 327.849C312.701 326.686 312.876 325.159 313.725 323.784C314.424 322.651 315.467 321.817 316.729 321.403ZM279.939 323.477C280.125 322.632 280.961 322.097 281.807 322.283C281.89 322.301 282.143 322.328 282.626 322.315C283.081 322.302 283.651 322.258 284.317 322.183C285.647 322.032 287.287 321.765 289.007 321.421C292.485 320.726 296.109 319.752 298.1 318.864C298.891 318.512 299.818 318.867 300.171 319.658C300.523 320.449 300.168 321.376 299.377 321.728C298.628 322.062 297.715 322.395 296.704 322.716C297.874 323.711 298.674 325.028 299.146 326.23C300.107 328.676 300.243 331.617 299.722 334.211C299.366 335.985 297.806 337.243 296.023 337.242C295.969 337.246 295.887 337.253 295.776 337.265C295.512 337.293 295.163 337.336 294.799 337.388C294.431 337.44 294.084 337.496 293.816 337.547C293.705 337.569 293.625 337.586 293.575 337.597C291.968 338.156 290.173 337.57 289.211 336.147C287.801 334.063 286.784 331.21 286.57 328.691C286.48 327.621 286.503 326.278 286.955 324.98C286.143 325.111 285.372 325.219 284.67 325.298C283.95 325.38 283.285 325.433 282.712 325.449C282.169 325.464 281.603 325.449 281.133 325.346C280.287 325.16 279.752 324.323 279.939 323.477ZM293.517 337.612C293.517 337.612 293.523 337.61 293.536 337.607L293.52 337.611L293.517 337.612Z" fill="#764539"/>
<path fill-rule="evenodd" clip-rule="evenodd" d="M313.804 346.172C309.388 345.841 303.753 345.937 301.337 346.352C300.484 346.499 299.673 345.926 299.527 345.072C299.38 344.219 299.953 343.408 300.806 343.261C303.591 342.783 309.52 342.706 314.038 343.045C314.901 343.109 315.549 343.862 315.484 344.725C315.42 345.589 314.667 346.236 313.804 346.172Z" fill="#764539"/>
<path d="M297.841 348.417C299.804 348.521 301.31 350.204 301.205 352.174C301.116 353.843 300.812 355.644 299.772 357.449C299.482 357.953 299.15 358.432 298.776 358.89L317.15 355.344C319.08 354.972 320.945 356.241 321.315 358.179C321.685 360.117 320.421 361.99 318.49 362.363L311.038 363.801C312.424 364.05 313.588 365.118 313.895 366.587C314.297 368.518 313.064 370.413 311.14 370.818L309.23 371.219C310.614 371.515 311.745 372.628 311.998 374.113C312.329 376.058 311.027 377.905 309.089 378.238L302.41 379.387L298.257 380.151C291.812 381.336 285.633 377.051 284.455 370.58L283.966 367.891C283.915 367.61 283.884 367.329 283.871 367.051C283.826 366.79 283.809 366.52 283.824 366.245C283.919 364.457 284.474 362.701 285.776 360.941C286.996 359.291 288.798 357.737 291.22 356.107C292.713 355.103 293.321 354.377 293.611 353.874C293.88 353.406 294.041 352.846 294.097 351.796C294.202 349.825 295.878 348.312 297.841 348.417Z" fill="#C78576"/>
</g>
<defs>
<filter id="filter0_f_497_3771" x="-56.5" y="-13" width="698" height="707" filterUnits="userSpaceOnUse" color-interpolation-filters="sRGB">
<feFlood flood-opacity="0" result="BackgroundImageFix"/>
<feBlend mode="normal" in="SourceGraphic" in2="BackgroundImageFix" result="shape"/>
<feGaussianBlur stdDeviation="120" result="effect1_foregroundBlur_497_3771"/>
</filter>
<filter id="filter1_i_497_3771" x="264.821" y="407.032" width="55.7764" height="18.0898" filterUnits="userSpaceOnUse" color-interpolation-filters="sRGB">
<feFlood flood-opacity="0" result="BackgroundImageFix"/>
<feBlend mode="normal" in="SourceGraphic" in2="BackgroundImageFix" result="shape"/>
<feColorMatrix in="SourceAlpha" type="matrix" values="0 0 0 0 0 0 0 0 0 0 0 0 0 0 0 0 0 0 127 0" result="hardAlpha"/>
<feOffset/>
<feGaussianBlur stdDeviation="3.5"/>
<feComposite in2="hardAlpha" operator="arithmetic" k2="-1" k3="1"/>
<feColorMatrix type="matrix" values="0 0 0 0 0 0 0 0 0 0 0 0 0 0 0 0 0 0 0.25 0"/>
<feBlend mode="normal" in2="shape" result="effect1_innerShadow_497_3771"/>
</filter>
<filter id="filter2_i_497_3771" x="224.125" y="273.449" width="152.009" height="144.182" filterUnits="userSpaceOnUse" color-interpolation-filters="sRGB">
<feFlood flood-opacity="0" result="BackgroundImageFix"/>
<feBlend mode="normal" in="SourceGraphic" in2="BackgroundImageFix" result="shape"/>
<feColorMatrix in="SourceAlpha" type="matrix" values="0 0 0 0 0 0 0 0 0 0 0 0 0 0 0 0 0 0 127 0" result="hardAlpha"/>
<feOffset/>
<feGaussianBlur stdDeviation="18"/>
<feComposite in2="hardAlpha" operator="arithmetic" k2="-1" k3="1"/>
<feColorMatrix type="matrix" values="0 0 0 0 0.383333 0 0 0 0 0.203167 0 0 0 0 0.158125 0 0 0 1 0"/>
<feBlend mode="normal" in2="shape" result="effect1_innerShadow_497_3771"/>
</filter>
<filter id="filter3_i_497_3771" x="265.097" y="302.416" width="67.1934" height="77.9316" filterUnits="userSpaceOnUse" color-interpolation-filters="sRGB">
<feFlood flood-opacity="0" result="BackgroundImageFix"/>
<feBlend mode="normal" in="SourceGraphic" in2="BackgroundImageFix" result="shape"/>
<feColorMatrix in="SourceAlpha" type="matrix" values="0 0 0 0 0 0 0 0 0 0 0 0 0 0 0 0 0 0 127 0" result="hardAlpha"/>
<feOffset dy="-2"/>
<feGaussianBlur stdDeviation="1"/>
<feComposite in2="hardAlpha" operator="arithmetic" k2="-1" k3="1"/>
<feColorMatrix type="matrix" values="0 0 0 0 0.384314 0 0 0 0 0.203922 0 0 0 0 0.156863 0 0 0 0.76 0"/>
<feBlend mode="normal" in2="shape" result="effect1_innerShadow_497_3771"/>
</filter>
<linearGradient id="paint0_linear_497_3771" x1="248.239" y1="458.287" x2="337.18" y2="458.287" gradientUnits="userSpaceOnUse">
<stop offset="0.200757" stop-color="#623428"/>
<stop offset="0.386242" stop-color="#9A6052"/>
<stop offset="0.631348" stop-color="#9A6052"/>
<stop offset="0.801376" stop-color="#623428"/>
</linearGradient>
<linearGradient id="paint1_linear_497_3771" x1="292.71" y1="452.257" x2="292.71" y2="482.406" gradientUnits="userSpaceOnUse">
<stop stop-color="#9D503D" stop-opacity="0"/>
<stop offset="1" stop-color="#9D503D"/>
</linearGradient>
<linearGradient id="paint2_linear_497_3771" x1="363.052" y1="347.255" x2="398.193" y2="351.739" gradientUnits="userSpaceOnUse">
<stop stop-color="#623428"/>
<stop offset="0.338542" stop-color="#9F5D4C"/>
<stop offset="1" stop-color="#A96757"/>
</linearGradient>
<linearGradient id="paint3_linear_497_3771" x1="233.33" y1="330.702" x2="198.189" y2="326.217" gradientUnits="userSpaceOnUse">
<stop stop-color="#623428"/>
<stop offset="0.5" stop-color="#9F5D4C"/>
<stop offset="1" stop-color="#A96757"/>
</linearGradient>
<radialGradient id="paint4_radial_497_3771" cx="0" cy="0" r="1" gradientUnits="userSpaceOnUse" gradientTransform="translate(296.296 349.373) rotate(97.2718) scale(72.359 77.1562)">
<stop stop-color="#956559"/>
<stop offset="0.609375" stop-color="#A06556"/>
<stop offset="1" stop-color="#956559"/>
</radialGradient>
<linearGradient id="paint5_linear_497_3771" x1="304.93" y1="281.709" x2="303.642" y2="291.802" gradientUnits="userSpaceOnUse">
<stop stop-color="#9A6052"/>
<stop offset="1" stop-color="#9A6052" stop-opacity="0"/>
</linearGradient>
</defs>
</svg>
