<svg width="248" height="248" viewBox="0 0 248 248" fill="none" xmlns="http://www.w3.org/2000/svg">
<rect width="248" height="248" rx="24" fill="#464747"/>
<path d="M40.96 34.016H44.96V54.976H40.96V48.16H34.496C33.12 49.632 31.136 50.496 28.896 50.496C24.64 50.496 21.344 47.392 21.344 43.104C21.344 38.784 24.64 35.712 28.896 35.712C31.136 35.712 33.12 36.576 34.496 38.016H40.96V34.016ZM25.088 43.104C25.088 45.568 26.72 47.04 28.896 47.04C31.04 47.04 32.672 45.568 32.672 43.104C32.672 40.672 31.04 39.2 28.896 39.2C26.72 39.2 25.088 40.672 25.088 43.104ZM26.048 62.144V52.928H30.048V58.976H45.6V62.144H26.048ZM36.224 41.184C36.352 41.792 36.448 42.432 36.448 43.104C36.448 43.776 36.384 44.384 36.224 44.992H40.96V41.184H36.224ZM55.3928 36.032C59.2008 36.032 61.6328 39.968 61.6328 46.432C61.6328 52.896 59.2008 56.8 55.3928 56.8C51.6168 56.8 49.1848 52.896 49.1848 46.432C49.1848 39.968 51.6168 36.032 55.3928 36.032ZM52.8328 46.432C52.8328 50.848 53.7928 53.056 55.3928 53.056C57.0248 53.056 57.9848 50.848 57.9848 46.432C57.9848 41.984 57.0248 39.776 55.3928 39.776C53.7928 39.776 52.8328 41.984 52.8328 46.432ZM63.4888 61.344V34.464H67.2008V44.992H69.7928V33.984H73.5368V62.656H69.7928V48.16H67.2008V61.344H63.4888Z" fill="white"/>
<path d="M209.056 203.021H129.111C118.06 203.021 109 193.927 109 182.834V133.367C109 122.275 118.06 113.181 129.111 113.181H209.056C220.106 113.181 229.166 122.275 229.166 133.367V182.734C229.166 193.927 220.106 203.021 209.056 203.021Z" fill="white"/>
<path d="M227.175 124.573C223.89 117.778 217.02 113.081 209.056 113.081H129.111C121.146 113.081 114.277 117.778 110.991 124.573L169.033 172.142L227.175 124.573Z" fill="black"/>
<path d="M207.961 85H129.509C127.02 85 125.029 86.9987 125.029 89.497V122.375V136L168.735 172.742L212.441 136.5V122.375V89.497C212.441 86.9987 210.45 85 207.961 85Z" fill="#7A48DE"/>
<path d="M158.056 247.999H78.1107C67.0598 247.999 58 238.905 58 227.813V178.346C58 167.253 67.0598 158.159 78.1107 158.159H158.056C169.106 158.159 178.166 167.253 178.166 178.346V227.713C178.166 238.905 169.106 247.999 158.056 247.999Z" fill="white"/>
<path d="M176.175 169.652C172.89 162.856 166.02 158.159 158.056 158.159H78.1107C70.1461 158.159 63.2766 162.856 59.9912 169.652L118.033 217.22L176.175 169.652Z" fill="#F7FF7D"/>
<path d="M103.561 208.185C101.81 206.417 100.81 203.976 100.81 201.45C100.81 198.925 101.81 196.568 103.561 194.716C105.311 192.948 107.729 191.938 110.229 191.938C112.73 191.938 115.064 192.948 116.898 194.716L118.232 196.062L119.566 194.716C121.317 192.948 123.651 191.938 126.235 191.938C126.568 191.938 126.902 191.937 127.319 192.022C129.486 192.274 131.403 193.2 132.904 194.716C134.654 196.483 135.655 198.925 135.655 201.45C135.655 203.976 134.654 206.333 132.904 208.185L118.316 222.917L103.561 208.185Z" fill="#7A48DE"/>
</svg>
