<svg width="current" height="current" viewBox="0 0 63 63" fill="none" xmlns="http://www.w3.org/2000/svg">
<circle cx="31.5" cy="31.5" r="31.5" fill="black" stroke="white"/>
<path d="M31.0922 24.8554L31.5305 25.473L31.9263 24.8273C34.2744 20.9962 36.6238 18.6819 38.7941 17.4984C40.9506 16.3223 42.936 16.2569 44.6278 16.9296C48.0508 18.2907 50.5 22.7925 50.5 28.066C50.5 30.6049 49.3498 33.0633 47.5596 35.3479C45.7711 37.6303 43.3741 39.6999 40.9568 41.4496C38.5423 43.1973 36.1249 44.6137 34.3094 45.5936C33.4022 46.0833 32.6467 46.4632 32.1189 46.7204C31.855 46.8489 31.6481 46.9467 31.5078 47.0122C31.5051 47.0134 31.5026 47.0146 31.5 47.0158C31.4974 47.0146 31.4949 47.0134 31.4922 47.0122C31.3519 46.9467 31.145 46.8489 30.8811 46.7204C30.3533 46.4632 29.5978 46.0833 28.6906 45.5936C26.8751 44.6137 24.4577 43.1973 22.0432 41.4496C19.6259 39.6999 17.2289 37.6303 15.4404 35.3479C13.6502 33.0633 12.5 30.6049 12.5 28.066C12.5 25.4357 13.0196 22.9771 13.9518 21.0102C14.8854 19.0405 16.2149 17.5978 17.8182 16.9261C19.4058 16.261 21.342 16.3182 23.5787 17.5014C25.828 18.6912 28.3673 21.0158 31.0922 24.8554Z" fill="black" stroke="white"/>
<path d="M57.4824 19.1316C57.555 18.8651 57.398 18.5903 57.1316 18.5176L52.7901 17.3336C52.5237 17.2609 52.2488 17.418 52.1762 17.6844C52.1035 17.9508 52.2606 18.2257 52.527 18.2984L56.3861 19.3508L55.3336 23.2099C55.2609 23.4763 55.418 23.7512 55.6844 23.8238C55.9508 23.8965 56.2257 23.7394 56.2984 23.473L57.4824 19.1316ZM50.2481 23.4341L57.2481 19.4341L56.7519 18.5659L49.7519 22.5659L50.2481 23.4341Z" fill="white"/>
<line x1="32.232" y1="32.4429" x2="11.232" y2="43.4429" stroke="white"/>
<line x1="11.8143" y1="43.4642" x2="6.8143" y2="41.4642" stroke="white"/>
<line x1="13.8143" y1="42.4642" x2="8.8143" y2="40.4642" stroke="white"/>
<line x1="15.8143" y1="41.4642" x2="10.8143" y2="39.4642" stroke="white"/>
<line x1="11.4903" y1="43.0981" x2="10.4903" y2="48.0981" stroke="white"/>
<line x1="13.4903" y1="42.0981" x2="12.4903" y2="47.0981" stroke="white"/>
<line x1="15.4903" y1="41.0981" x2="14.4903" y2="46.0981" stroke="white"/>
</svg>
