<svg width="current" height="current" viewBox="0 0 158 154" fill="none" xmlns="http://www.w3.org/2000/svg">
<path d="M150.561 125.354H61.1806C57.8526 125.354 55 122.507 55 119.184V57.7226C55 54.4004 57.8526 51.5527 61.1806 51.5527H150.561C153.889 51.5527 156.742 54.4004 156.742 57.7226V119.184C156.504 122.744 153.889 125.354 150.561 125.354Z" fill="#E2E2E2" stroke="#919191" stroke-miterlimit="10"/>
<path d="M117.423 11.5022C118.934 13.0025 119.941 15.2529 119.941 17.2533C119.941 19.2537 119.186 21.5041 117.423 23.0044C116.164 24.2546 114.401 25.2548 112.638 25.2548C110.372 25.5049 107.854 24.7547 105.839 23.0044C104.328 24.5047 102.062 25.5049 100.047 25.5049C98.0325 25.5049 95.766 24.7547 94.2551 23.0044C90.9814 19.7538 90.9814 14.7528 94.2551 11.5022L105.839 -3.14716e-05L117.423 11.5022Z" fill="#F4FB7A"/>
<path d="M154.578 53.7235C153.395 52.5522 151.977 52.0836 150.322 52.0836H61.4209C59.7659 52.0836 58.3472 52.7864 57.165 53.7235L105.871 10.8535L154.578 53.7235Z" fill="#E2E2E2"/>
<path d="M144.295 19.5361H68.5296C66.1386 19.5361 64.2002 21.4798 64.2002 23.8774V110.16C64.2002 112.558 66.1386 114.501 68.5296 114.501H144.295C146.686 114.501 148.624 112.558 148.624 110.16V23.8774C148.624 21.4798 146.686 19.5361 144.295 19.5361Z" fill="#F1F1F1"/>
<path d="M73.4004 36.3584H115.227" stroke="#919191"/>
<path d="M73.7461 66.0352H139.424" stroke="#919191"/>
<path d="M73.7461 77.0576H115.227" stroke="#919191"/>
<path d="M122.141 77.0576L138.733 77.0576" stroke="#919191"/>
<path d="M73.7461 45.6855H97.9434" stroke="#919191"/>
<path d="M73.7461 55.8604H87.5731" stroke="#919191"/>
<path d="M122.141 36.3584H138.733" stroke="#919191"/>
<path d="M105.548 45.6855L138.733 45.6856" stroke="#919191"/>
<path d="M94.4863 55.8604L127.671 55.8604" stroke="#919191"/>
<path d="M132.511 55.8604L138.733 55.8604" stroke="#919191"/>
<path d="M55 57.6937V119.213C55 120.876 55.7103 122.539 56.8941 123.726L99.5121 85.7219C99.7489 85.4843 99.9856 85.2468 100.459 85.0093L57.1309 53.1807C55.9471 54.3683 55 56.031 55 57.6937Z" fill="#ABABAB"/>
<path d="M154.374 53.1807L111.282 85.0093C111.519 85.2468 111.756 85.4843 112.229 85.7219L154.847 123.726C156.031 122.539 156.741 121.113 156.741 119.213V57.6937C156.505 56.031 155.794 54.3683 154.374 53.1807Z" fill="#ABABAB"/>
<path d="M99.7239 85.3613L57.165 123.677C58.3472 124.635 59.7659 125.354 61.4209 125.354H150.322C151.977 125.354 153.395 124.635 154.578 123.677L112.019 85.3613C108.472 82.2481 103.27 82.2481 99.7239 85.3613Z" fill="#C6C6C6"/>
<path d="M104.448 141.185L15.8231 152.909C12.5232 153.346 9.32374 150.889 8.89088 147.586L0.882984 86.4826C0.450124 83.1797 2.90757 79.9744 6.20745 79.5379L94.8328 67.8135C98.1326 67.377 101.332 69.8338 101.765 73.1367L109.773 134.24C110.001 137.81 107.748 140.749 104.448 141.185Z" fill="#E2E2E2"/>
<path d="M0.873635 86.4637L8.85559 147.524C9.07132 149.174 9.91267 150.633 11.2413 151.656L48.6744 108.425C48.8785 108.158 49.0826 107.891 49.5216 107.593L2.40233 81.704C1.38184 83.0385 0.657907 84.8134 0.873635 86.4637Z" fill="#C6C6C6"/>
<path d="M99.0824 68.9L60.232 106.265C60.4978 106.471 60.7636 106.676 61.2643 106.85L108.188 138.817C109.208 137.48 110.031 136.201 109.784 134.31L101.784 73.1093C101.332 71.4864 100.411 69.9257 99.0824 68.9Z" fill="#C6C6C6"/>
<path d="M48.5613 107.899L11.1715 151.985C12.4763 152.791 13.9852 153.325 15.6353 153.107L104.271 141.381C105.921 141.163 107.241 140.255 108.293 139.137L60.8193 106.277C56.8737 103.619 51.6876 104.305 48.5613 107.899Z" fill="#E2E2E2"/>
<path d="M99.0501 68.9303C97.7179 67.9147 96.2418 67.6336 94.5912 67.8525L5.92997 79.61C4.27936 79.8289 2.95648 80.7196 1.90004 81.8135L56.726 123.186L99.0501 68.9303Z" fill="#E2E2E2"/>
<path d="M67.8148 116.702C69.1193 115.016 69.827 112.654 69.568 110.672C69.3089 108.69 68.268 106.559 66.3251 105.305C64.9141 104.231 63.036 103.472 61.2874 103.704C59.0068 103.755 56.6059 104.829 54.8342 106.829C53.1411 105.541 50.7634 104.848 48.765 105.113C46.7666 105.378 44.6155 106.42 43.3434 108.353C40.517 112.004 41.1647 116.96 44.8331 119.75L57.8137 129.623L67.8148 116.702Z" fill="#B484F1"/>
</svg>
