<svg width="582" height="314" viewBox="0 0 582 314" fill="none" xmlns="http://www.w3.org/2000/svg">
<rect width="582" height="314" rx="16" fill="#2F3131"/>
<path d="M199.549 41.053H201.46V59.638H199.549V41.053ZM186.907 48.97C186.907 44.98 188.881 42.481 191.653 42.481C194.404 42.481 196.399 44.98 196.399 48.97C196.399 52.939 194.404 55.48 191.653 55.48C188.881 55.48 186.907 52.939 186.907 48.97ZM188.755 48.97C188.755 51.91 189.952 53.758 191.653 53.758C193.354 53.758 194.551 51.91 194.551 48.97C194.551 46.03 193.354 44.203 191.653 44.203C189.952 44.203 188.755 46.03 188.755 48.97ZM205.345 42.376H213.577V47.899H207.277V50.629C210.574 50.629 212.632 50.545 215.047 50.125L215.194 51.679C212.611 52.12 210.427 52.204 206.815 52.204H205.387V46.429H211.687V43.888H205.345V42.376ZM207.886 59.218V53.674H209.818V57.643H220.465V59.218H207.886ZM214.69 47.437V45.799H218.008V41.095H219.919V54.682H218.008V47.437H214.69ZM225.695 56.257L224.414 60.583H223.049L223.742 56.257H225.695ZM247.633 41.074H249.502V59.596H247.633V49.978H245.365V58.714H243.538V41.557H245.365V48.424H247.633V41.074ZM233.71 54.304C237.826 51.994 239.527 48.823 239.821 45.022H234.466V43.447H241.69C241.69 48.319 240.094 52.687 234.823 55.69L233.71 54.304ZM261.62 44.287H265.505V41.095H267.416V50.608H265.505V45.862H261.62V44.287ZM252.086 49.159C254.942 48.235 256.643 45.925 256.643 43.3V41.662H258.554V43.3C258.554 45.652 260.276 47.899 262.985 48.781L261.998 50.251C259.982 49.558 258.449 48.151 257.651 46.366C256.853 48.361 255.257 49.915 253.094 50.65L252.086 49.159ZM255.425 53.023V51.511H267.416V56.089H257.336V57.853H268.067V59.365H255.446V54.661H265.526V53.023H255.425ZM272.204 42.271H281.024V43.825H274.094V47.059H281.15V48.592H277.58V50.965C279.218 50.902 280.835 50.776 282.368 50.608L282.515 52.015C278.588 52.582 274.262 52.666 270.839 52.666L270.545 51.112C272.12 51.112 273.884 51.091 275.669 51.049V48.592H272.204V42.271ZM273.59 59.218V54.01H275.501V57.643H286.274V59.218H273.59ZM283.775 54.955V41.095H285.686V54.955H283.775ZM302.181 52.624C305.982 52.624 308.313 53.926 308.313 56.11C308.313 58.315 305.982 59.596 302.181 59.596C298.38 59.596 296.049 58.315 296.049 56.11C296.049 53.926 298.38 52.624 302.181 52.624ZM294.411 50.839V42.25H296.322V44.917H301.173V42.25H303.063V50.839H294.411ZM296.322 49.306H301.173V46.429H296.322V49.306ZM297.918 56.11C297.918 57.37 299.514 58.084 302.181 58.084C304.827 58.084 306.402 57.37 306.402 56.11C306.402 54.871 304.827 54.157 302.181 54.157C299.514 54.157 297.918 54.871 297.918 56.11ZM306.192 52.162V41.095H308.124V45.673H310.77V47.269H308.124V52.162H306.192ZM325.303 41.053H327.214V59.638H325.303V41.053ZM312.661 48.97C312.661 44.98 314.635 42.481 317.407 42.481C320.158 42.481 322.153 44.98 322.153 48.97C322.153 52.939 320.158 55.48 317.407 55.48C314.635 55.48 312.661 52.939 312.661 48.97ZM314.509 48.97C314.509 51.91 315.706 53.758 317.407 53.758C319.108 53.758 320.305 51.91 320.305 48.97C320.305 46.03 319.108 44.203 317.407 44.203C315.706 44.203 314.509 46.03 314.509 48.97ZM337.325 51.952H339.131V54.136H342.05V51.952H343.835V59.365H337.325V51.952ZM335.519 46.156C335.519 43.615 337.535 41.872 340.307 41.872C342.743 41.872 344.654 43.258 345.032 45.337H348.623V41.095H350.534V50.881H348.623V46.912H345.053C344.696 49.033 342.785 50.461 340.307 50.461C337.535 50.461 335.519 48.697 335.519 46.156ZM337.367 46.156C337.367 47.773 338.585 48.865 340.307 48.865C342.029 48.865 343.268 47.773 343.268 46.156C343.268 44.56 342.029 43.468 340.307 43.468C338.585 43.468 337.367 44.56 337.367 46.156ZM339.131 57.895H342.05V55.564H339.131V57.895ZM343.94 58.084C346.145 57.16 347.237 55.186 347.237 53.338V51.826H349.127V53.338C349.127 55.291 350.219 57.244 352.445 58.084L351.479 59.533C349.841 58.861 348.749 57.643 348.182 56.173C347.594 57.622 346.502 58.861 344.885 59.533L343.94 58.084ZM358.536 42.481C361.035 42.481 362.883 44.602 363.156 48.067H366.978V41.053H368.889V59.638H366.978V49.6H363.177C362.988 53.212 361.098 55.48 358.536 55.48C355.827 55.48 353.895 52.939 353.895 48.97C353.895 44.98 355.827 42.481 358.536 42.481ZM355.701 48.97C355.701 51.91 356.856 53.758 358.536 53.758C360.237 53.758 361.371 51.91 361.371 48.97C361.371 46.03 360.237 44.203 358.536 44.203C356.856 44.203 355.701 46.03 355.701 48.97ZM371.934 55.69H375.966V50.797C374.454 49.978 373.53 48.655 373.53 46.996C373.53 44.077 376.386 42.187 380.292 42.187C384.261 42.187 387.075 44.077 387.075 46.996C387.075 48.634 386.193 49.936 384.702 50.776V55.69H388.713V57.265H371.934V55.69ZM375.399 46.996C375.399 49.012 377.436 50.293 380.292 50.293C383.169 50.293 385.206 49.012 385.206 46.996C385.206 44.98 383.169 43.699 380.292 43.699C377.436 43.699 375.399 44.98 375.399 46.996ZM377.856 55.69H382.77V51.511C382.014 51.7 381.174 51.784 380.292 51.784C379.431 51.784 378.612 51.7 377.856 51.511V55.69ZM391.906 56.047C392.662 56.047 393.061 56.551 393.061 57.202C393.061 57.874 392.662 58.378 391.906 58.378C391.15 58.378 390.73 57.874 390.73 57.202C390.73 56.551 391.15 56.047 391.906 56.047Z" fill="#C6C6C6"/>
<path d="M167.056 78.968C169.904 78.968 171.648 79.928 171.648 81.56C171.648 83.208 169.904 84.152 167.056 84.152C164.208 84.152 162.464 83.208 162.464 81.56C162.464 79.928 164.208 78.968 167.056 78.968ZM161.264 77.496V71.048H162.448V73.192H166.528V71.048H167.712V77.496H161.264ZM162.448 76.52H166.528V74.152H162.448V76.52ZM163.632 81.56C163.632 82.584 164.944 83.192 167.056 83.192C169.152 83.192 170.448 82.584 170.448 81.56C170.448 80.552 169.152 79.944 167.056 79.944C164.944 79.944 163.632 80.552 163.632 81.56ZM170.304 78.6V70.168H171.504V73.72H173.584V74.728H171.504V78.6H170.304ZM178.936 71.432H185.336V77.896H178.936V71.432ZM180.104 76.904H184.168V72.408H180.104V76.904ZM180.504 83.848V79.448H181.688V82.856H189.816V83.848H180.504ZM187.976 80.424V70.152H189.176V74.44H191.256V75.448H189.176V80.424H187.976ZM192.312 76.072H204.952V77.048H192.312V76.072ZM193.832 79.256V78.312H203.304V81.544H195.048V83.032H203.736V84.008H193.88V80.648H202.136V79.256H193.832ZM194.008 74.888V70.648H203.288V71.64H195.192V73.928H203.448V74.888H194.008ZM216.537 70.168H217.737V84.168H216.537V70.168ZM206.457 80.568C210.233 78.76 212.137 76.024 212.393 72.664H207.081V71.672H213.609C213.609 75.704 211.753 79.256 207.097 81.528L206.457 80.568ZM234.257 70.152H235.441V84.184H234.257V76.376H230.913V80.632H224.513V71.272H225.713V74.936H229.729V71.272H230.913V75.4H234.257V70.152ZM225.713 79.64H229.729V75.896H225.713V79.64ZM237.937 77.944H250.577V78.92H237.937V77.944ZM239.585 83.864V79.976H240.769V82.872H249.249V83.864H239.585ZM239.617 76.6V70.696H249.009V71.64H240.817V73.16H248.641V74.088H240.817V75.656H249.089V76.6H239.617ZM258.241 70.424C261.313 70.424 263.153 71.272 263.153 72.84C263.153 74.408 261.313 75.272 258.241 75.272C255.169 75.272 253.329 74.408 253.329 72.84C253.329 71.272 255.169 70.424 258.241 70.424ZM251.921 77.224V76.248H264.561V77.224H251.921ZM253.457 79.384V78.456H262.929V81.56H254.673V83.064H263.361V84.008H253.505V80.68H261.761V79.384H253.457ZM254.561 72.84C254.561 73.816 255.937 74.36 258.241 74.36C260.545 74.36 261.921 73.816 261.921 72.84C261.921 71.88 260.545 71.32 258.241 71.32C255.937 71.32 254.561 71.88 254.561 72.84ZM269.593 77.608H275.305V76.184H271.273V70.584H280.665V71.544H272.473V72.872H280.297V73.8H272.473V75.24H280.745V76.184H276.505V77.608H282.233V78.584H269.593V77.608ZM271.129 81.912C271.129 80.44 272.857 79.688 275.913 79.688C278.953 79.688 280.697 80.44 280.697 81.912C280.697 83.368 278.953 84.136 275.913 84.136C272.857 84.136 271.129 83.368 271.129 81.912ZM272.329 81.912C272.329 82.776 273.625 83.224 275.913 83.224C278.185 83.224 279.497 82.776 279.497 81.912C279.497 81.064 278.185 80.584 275.913 80.584C273.625 80.584 272.329 81.064 272.329 81.912ZM283.546 72.6H286.442V70.568H287.626V72.6H290.506V73.576H283.546V72.6ZM284.042 77.72C284.042 75.864 285.289 74.552 287.034 74.552C288.778 74.552 290.042 75.864 290.042 77.72C290.042 79.608 288.778 80.904 287.034 80.904C285.289 80.904 284.042 79.608 284.042 77.72ZM285.114 77.72C285.114 78.984 285.914 79.88 287.034 79.88C288.154 79.88 288.97 78.984 288.97 77.72C288.97 76.472 288.154 75.56 287.034 75.56C285.914 75.56 285.114 76.472 285.114 77.72ZM291.242 83.464V70.504H292.378V76.088H294.25V70.168H295.386V84.168H294.25V77.08H292.378V83.464H291.242ZM307.665 78.968C310.513 78.968 312.257 79.928 312.257 81.56C312.257 83.208 310.513 84.152 307.665 84.152C304.817 84.152 303.073 83.208 303.073 81.56C303.073 79.928 304.817 78.968 307.665 78.968ZM301.873 77.496V71.048H303.057V73.192H307.137V71.048H308.321V77.496H301.873ZM303.057 76.52H307.137V74.152H303.057V76.52ZM304.241 81.56C304.241 82.584 305.553 83.192 307.665 83.192C309.761 83.192 311.057 82.584 311.057 81.56C311.057 80.552 309.761 79.944 307.665 79.944C305.553 79.944 304.241 80.552 304.241 81.56ZM310.913 78.6V70.168H312.113V73.72H314.193V74.728H312.113V78.6H310.913ZM321.554 70.424C324.626 70.424 326.466 71.272 326.466 72.84C326.466 74.408 324.626 75.272 321.554 75.272C318.482 75.272 316.642 74.408 316.642 72.84C316.642 71.272 318.482 70.424 321.554 70.424ZM315.234 77.224V76.248H327.874V77.224H315.234ZM316.77 79.384V78.456H326.242V81.56H317.986V83.064H326.674V84.008H316.818V80.68H325.074V79.384H316.77ZM317.874 72.84C317.874 73.816 319.25 74.36 321.554 74.36C323.858 74.36 325.234 73.816 325.234 72.84C325.234 71.88 323.858 71.32 321.554 71.32C319.25 71.32 317.874 71.88 317.874 72.84ZM333.53 71.432H339.93V77.896H333.53V71.432ZM334.698 76.904H338.762V72.408H334.698V76.904ZM335.098 83.848V79.448H336.282V82.856H344.41V83.848H335.098ZM342.57 80.424V70.152H343.77V74.44H345.85V75.448H343.77V80.424H342.57ZM346.906 76.072H359.546V77.048H346.906V76.072ZM348.426 79.256V78.312H357.898V81.544H349.642V83.032H358.33V84.008H348.474V80.648H356.73V79.256H348.426ZM348.602 74.888V70.648H357.882V71.64H349.786V73.928H358.042V74.888H348.602ZM364.586 71.256C366.49 71.256 367.866 72.904 368.042 75.544H371.178V70.152H372.362V84.184H371.178V76.504H368.042C367.93 79.256 366.522 81 364.586 81C362.554 81 361.114 79.096 361.114 76.12C361.114 73.144 362.554 71.256 364.586 71.256ZM362.25 76.12C362.25 78.408 363.21 79.928 364.586 79.928C365.978 79.928 366.922 78.408 366.922 76.12C366.922 73.832 365.978 72.328 364.586 72.328C363.21 72.328 362.25 73.832 362.25 76.12ZM374.859 78.184H387.515V79.176H381.755V84.168H380.571V79.176H374.859V78.184ZM375.627 75.992C378.011 75.64 380.523 74.04 380.523 72.152V72.04H376.059V71.064H386.283V72.04H381.851V72.152C381.851 74.04 384.363 75.64 386.747 75.992L386.283 76.968C384.155 76.6 382.027 75.416 381.195 73.72C380.347 75.416 378.219 76.6 376.091 76.968L375.627 75.992ZM394.347 75.208H396.715V70.488H397.835V83.448H396.715V76.216H394.347V75.208ZM388.683 80.232C390.587 79.112 391.787 76.6 391.787 74.2V71.512H392.939V74.168C392.939 76.392 394.043 78.792 395.883 79.896L395.179 80.824C393.835 80.024 392.875 78.504 392.379 76.808C391.867 78.664 390.827 80.28 389.435 81.128L388.683 80.232ZM399.563 84.168V70.168H400.715V84.168H399.563ZM402.828 81.352H405.98V77.528C404.796 76.92 404.076 75.912 404.076 74.648C404.076 72.472 406.204 71.064 409.148 71.064C412.124 71.064 414.22 72.472 414.22 74.648C414.22 75.896 413.516 76.888 412.364 77.512V81.352H415.516V82.344H402.828V81.352ZM405.244 74.648C405.244 76.232 406.876 77.272 409.148 77.272C411.42 77.272 413.068 76.232 413.068 74.648C413.068 73.064 411.42 72.024 409.148 72.024C406.876 72.024 405.244 73.064 405.244 74.648ZM407.164 81.352H411.164V77.976C410.556 78.136 409.884 78.216 409.148 78.216C408.428 78.216 407.772 78.136 407.164 77.976V81.352ZM417.98 81.608C418.492 81.608 418.764 81.96 418.764 82.392C418.764 82.856 418.492 83.208 417.98 83.208C417.452 83.208 417.164 82.856 417.164 82.392C417.164 81.96 417.452 81.608 417.98 81.608Z" fill="#C6C6C6"/>
<circle cx="332.5" cy="174.5" r="1.5" fill="#C6C6C6"/>
<circle cx="343" cy="174.5" r="1.5" fill="#C6C6C6"/>
<circle cx="353.5" cy="174.5" r="1.5" fill="#C6C6C6"/>
<circle cx="364" cy="174.5" r="1.5" fill="#C6C6C6"/>
<circle cx="374.5" cy="174.5" r="1.5" fill="#C6C6C6"/>
<circle cx="385" cy="174.5" r="1.5" fill="#C6C6C6"/>
<path d="M328.209 222.399C328.209 249.681 306.092 271.798 278.81 271.798C251.528 271.798 229.411 249.681 229.411 222.399C229.411 195.117 251.528 173 278.81 173C306.092 173 328.209 195.117 328.209 222.399Z" fill="#919191"/>
<path d="M219.983 235.397L248.156 245.42C253.542 247.335 256.355 253.254 254.439 258.64L253.739 260.607C250.604 269.42 240.918 274.023 232.106 270.887L210.138 263.073L219.983 235.397Z" fill="#777777"/>
<path d="M363.017 235.397L334.844 245.42C329.458 247.335 326.645 253.254 328.561 258.64L329.261 260.607C332.396 269.42 342.082 274.023 350.894 270.887L372.862 263.073L363.017 235.397Z" fill="#777777"/>
<path fill-rule="evenodd" clip-rule="evenodd" d="M192.063 251.442C192.987 248.738 195.929 247.295 198.633 248.219L227.081 257.943C229.786 258.867 231.229 261.809 230.304 264.514C229.38 267.218 226.438 268.661 223.733 267.737L195.286 258.013C192.581 257.089 191.138 254.147 192.063 251.442Z" fill="#777777"/>
<path fill-rule="evenodd" clip-rule="evenodd" d="M390.937 251.442C390.013 248.738 387.071 247.295 384.367 248.219L355.919 257.943C353.214 258.867 351.771 261.809 352.696 264.514C353.62 267.218 356.562 268.661 359.267 267.737L387.714 258.013C390.419 257.089 391.862 254.147 390.937 251.442Z" fill="#777777"/>
<path fill-rule="evenodd" clip-rule="evenodd" d="M193.518 242.586C194.355 239.853 197.248 238.316 199.981 239.152L228.489 247.879C231.222 248.715 232.759 251.609 231.923 254.342C231.086 257.075 228.192 258.612 225.459 257.776L196.952 249.049C194.219 248.213 192.681 245.319 193.518 242.586Z" fill="#777777"/>
<path fill-rule="evenodd" clip-rule="evenodd" d="M389.482 242.586C388.645 239.853 385.752 238.316 383.019 239.152L354.511 247.879C351.778 248.715 350.241 251.609 351.077 254.342C351.914 257.075 354.808 258.612 357.541 257.776L386.048 249.049C388.781 248.213 390.319 245.319 389.482 242.586Z" fill="#777777"/>
<path fill-rule="evenodd" clip-rule="evenodd" d="M195.196 232.609C196.12 229.904 199.062 228.461 201.766 229.386L230.214 239.11C232.918 240.034 234.361 242.976 233.437 245.681C232.513 248.385 229.571 249.828 226.866 248.904L198.419 239.18C195.714 238.255 194.271 235.313 195.196 232.609Z" fill="#777777"/>
<path fill-rule="evenodd" clip-rule="evenodd" d="M387.804 232.609C386.88 229.904 383.938 228.461 381.234 229.386L352.786 239.11C350.082 240.034 348.639 242.976 349.563 245.681C350.487 248.385 353.429 249.828 356.134 248.904L384.581 239.18C387.286 238.255 388.729 235.313 387.804 232.609Z" fill="#777777"/>
<path fill-rule="evenodd" clip-rule="evenodd" d="M223.603 227.321C225.821 225.13 229.395 225.151 231.587 227.369L251.449 247.472C253.641 249.69 253.619 253.265 251.401 255.456C249.183 257.647 245.609 257.626 243.417 255.408L223.555 235.305C221.364 233.087 221.385 229.513 223.603 227.321Z" fill="#777777"/>
<path fill-rule="evenodd" clip-rule="evenodd" d="M359.397 227.321C357.179 225.13 353.605 225.151 351.413 227.369L331.551 247.472C329.359 249.69 329.381 253.265 331.599 255.456C333.817 257.647 337.391 257.626 339.583 255.408L359.445 235.305C361.636 233.087 361.615 229.513 359.397 227.321Z" fill="#777777"/>
<path fill-rule="evenodd" clip-rule="evenodd" d="M249.199 203.073C249.419 201.53 250.849 200.457 252.392 200.678C252.392 200.678 252.392 200.678 252.392 200.678C252.392 200.678 252.414 200.681 252.464 200.683C252.519 200.685 252.594 200.687 252.692 200.685C252.891 200.681 253.149 200.664 253.471 200.631C254.117 200.565 254.933 200.44 255.893 200.258C257.808 199.894 260.169 199.327 262.644 198.636C267.659 197.237 272.819 195.422 275.589 193.93C276.962 193.191 278.674 193.704 279.413 195.077C280.152 196.449 279.639 198.161 278.266 198.901C274.921 200.702 269.261 202.651 264.161 204.074C261.579 204.795 259.058 205.404 256.945 205.805C255.89 206.005 254.906 206.159 254.048 206.247C253.243 206.33 252.359 206.376 251.594 206.267C250.051 206.046 248.978 204.617 249.199 203.073Z" fill="#464747"/>
<path d="M267.772 203.905C263.401 204.498 265.624 212.932 269.051 217.262C269.873 216.85 273.887 216.028 274.395 216.028C275.134 210.058 272.627 203.245 267.772 203.905Z" fill="#505050"/>
<path fill-rule="evenodd" clip-rule="evenodd" d="M261.68 204.149C262.516 201.917 264.393 200.091 267.202 199.709C272.212 199.029 275.454 202.445 276.995 205.642C278.546 208.859 279.049 212.896 278.597 216.549C278.345 218.579 276.683 220.125 274.667 220.254C274.666 220.254 274.664 220.255 274.663 220.255C274.569 220.268 274.419 220.293 274.216 220.33C273.814 220.403 273.291 220.508 272.749 220.627C272.204 220.746 271.679 220.872 271.265 220.984C271.057 221.04 270.906 221.085 270.81 221.116C270.803 221.118 270.797 221.12 270.791 221.122C269.028 221.917 266.94 221.417 265.731 219.89C263.573 217.163 261.861 213.3 261.307 209.854C261.035 208.161 260.959 206.074 261.68 204.149ZM270.742 221.139C270.742 221.139 270.746 221.138 270.755 221.134C270.747 221.138 270.742 221.139 270.742 221.139Z" fill="#464747"/>
<path fill-rule="evenodd" clip-rule="evenodd" d="M303.446 196.582C299.496 196.206 296.447 197.447 295.055 199.208C294.088 200.431 292.313 200.639 291.09 199.672C289.867 198.705 289.659 196.93 290.626 195.707C293.598 191.948 298.852 190.474 303.981 190.962C309.22 191.46 314.837 194.013 319.069 198.997C320.078 200.185 319.933 201.967 318.745 202.976C317.556 203.985 315.775 203.84 314.766 202.652C311.527 198.838 307.287 196.947 303.446 196.582Z" fill="#464747"/>
<path d="M306.414 200.971C302.104 201.462 303.672 208.657 306.548 212.212C307.101 211.957 310.336 211.81 311.401 211.878C312.008 206.618 311.592 200.382 306.414 200.971Z" fill="#505050"/>
<path fill-rule="evenodd" clip-rule="evenodd" d="M300.453 200.487C301.516 198.436 303.456 197.047 305.935 196.765C308.132 196.515 310.277 196.969 312.048 198.334C313.722 199.625 314.621 201.392 315.115 202.959C316.07 205.987 315.926 209.602 315.608 212.364C315.349 214.604 313.381 216.248 311.131 216.104C311.039 216.099 310.774 216.092 310.346 216.1C309.944 216.107 309.482 216.124 309.033 216.151C308.577 216.178 308.182 216.212 307.903 216.246C307.858 216.251 307.82 216.256 307.788 216.261C306.155 216.762 304.354 216.232 303.257 214.876C301.302 212.46 299.861 208.984 299.57 205.832C299.425 204.26 299.52 202.286 300.453 200.487Z" fill="#464747"/>
<path fill-rule="evenodd" clip-rule="evenodd" d="M301.863 233.219C295.368 233.22 287.165 233.98 283.729 234.839C282.216 235.217 280.684 234.297 280.306 232.785C279.927 231.272 280.847 229.74 282.359 229.362C286.45 228.339 295.184 227.574 301.863 227.574C303.422 227.574 304.685 228.838 304.685 230.397C304.685 231.956 303.422 233.219 301.863 233.219Z" fill="#464747"/>
</svg>
