<svg width="1920" height="1152" viewBox="0 0 1920 1152" fill="none" xmlns="http://www.w3.org/2000/svg">
<rect width="1920" height="1152" fill="#1E1E1E"/>
<rect x="392" y="406" width="36" height="36" rx="12" fill="#FF90E3"/>
<path d="M459.064 409.968H478.968V413.136H463.096V416.048H478.296V419.12H463.096V422.224H479.192V425.392H470.968V430.256H481.976V433.456H456.024V430.256H467V425.392H459.064V409.968ZM483.993 423.92H494.969V421.648H487.225V413.712H502.841V411.664H487.161V408.656H506.745V416.56H491.097V418.64H507.321V421.648H498.937V423.92H509.945V427.088H483.993V423.92ZM487.257 436.816V428.56H491.193V433.68H507.417V436.816H487.257ZM520.553 411.024H530.281V407.952H534.249V411.024H543.881V414.128H520.553V411.024ZM519.337 429.744V426.576H545.289V429.744H534.249V436.688H530.281V429.744H519.337ZM522.505 420.208C522.505 417.04 526.121 415.312 532.265 415.312C538.409 415.312 542.057 417.04 542.057 420.208C542.057 423.344 538.409 425.136 532.265 425.136C526.121 425.136 522.505 423.344 522.505 420.208ZM526.601 420.208C526.601 421.552 528.457 422.16 532.265 422.16C536.073 422.16 537.961 421.552 537.961 420.208C537.961 418.864 536.073 418.224 532.265 418.224C528.457 418.224 526.601 418.864 526.601 420.208ZM554.648 425.072H580.6V428.272H569.592V436.72H565.592V428.272H554.648V425.072ZM557.912 422.896V409.168H577.56V412.272H561.816V414.448H576.984V417.52H561.816V419.76H577.88V422.896H557.912ZM582.649 430.288H589.113V424.752H584.793V421.648H588.601V413.456H584.665V410.288H606.425V413.456H602.489V421.648H606.361V424.752H602.009V430.288H608.601V433.488H582.649V430.288ZM592.601 421.648H598.553V413.456H592.601V421.648ZM593.049 430.288H598.105V424.752H593.049V430.288ZM629.402 407.984H633.338V419.248H637.146V422.544H633.338V436.656H629.402V407.984ZM610.042 428.368C613.914 424.144 615.066 419.888 615.29 414.128H611.29V410.928H619.034C619.034 418.768 618.234 424.944 613.146 430.64L610.042 428.368ZM618.106 430.256C621.946 425.424 623.002 420.464 623.194 414.128H620.026V410.928H626.97C626.97 419.088 626.234 426.224 621.21 432.464L618.106 430.256ZM639.451 410.768H655.515V414.032H649.499V415.856C649.499 420.528 651.963 425.456 656.667 427.44L654.491 430.576C651.195 429.136 648.859 426.256 647.579 422.8C646.299 426.576 643.931 429.744 640.571 431.28L638.331 428.144C643.035 426 645.499 420.72 645.499 415.856V414.032H639.451V410.768ZM658.299 436.688V408.016H662.267V436.688H658.299ZM673.866 412.368H678.826V408.752H682.73V412.368H687.626V415.504H673.866V412.368ZM674.506 423.664C674.506 419.696 677.162 416.88 680.778 416.88C684.426 416.88 687.05 419.696 687.05 423.664C687.05 427.664 684.426 430.448 680.778 430.448C677.162 430.448 674.506 427.664 674.506 423.664ZM678.026 423.664C678.026 425.904 679.178 427.152 680.778 427.152C682.41 427.152 683.562 425.904 683.562 423.664C683.562 421.456 682.41 420.144 680.778 420.144C679.178 420.144 678.026 421.456 678.026 423.664ZM688.682 435.44V408.56H692.394V419.696H694.698V407.984H698.474V436.656H694.698V422.896H692.394V435.44H688.682ZM703.275 410.32H707.179V413.872H713.771V410.32H717.707V423.44H712.491V427.856C714.699 427.76 716.875 427.568 718.955 427.28L719.275 430.16C713.291 431.28 706.891 431.28 702.059 431.248L701.579 428.048C703.659 428.048 706.027 428.048 708.523 428.016V423.44H703.275V410.32ZM707.179 420.336H713.771V416.912H707.179V420.336ZM720.491 436.656V407.984H724.427V419.536H728.299V422.8H724.427V436.656H720.491ZM729.868 430.064H735.628V422.992C733.452 421.648 732.108 419.6 732.108 417.072C732.108 412.432 736.652 409.424 742.796 409.424C748.972 409.424 753.484 412.432 753.484 417.072C753.484 419.568 752.172 421.616 750.028 422.96V430.064H755.82V433.296H729.868V430.064ZM736.044 417.072C736.044 419.952 738.764 421.648 742.796 421.648C746.86 421.648 749.58 419.952 749.58 417.072C749.58 414.192 746.86 412.496 742.796 412.496C738.764 412.496 736.044 414.192 736.044 417.072ZM739.596 430.064H746.06V424.432C745.036 424.656 743.948 424.752 742.796 424.752C741.676 424.752 740.588 424.656 739.596 424.464V430.064Z" fill="white"/>
<path d="M412.844 424.024C414.356 424.912 415.628 426.352 415.628 428.104C415.628 431.008 413.228 433.12 409.556 433.12C405.908 433.12 403.532 431.008 403.532 427.888H406.364C406.364 429.16 407.324 430.456 409.556 430.456C411.812 430.456 412.964 429.184 412.964 427.888C412.964 426.592 412.028 425.32 409.604 425.32H408.38V422.776H409.652C411.644 422.776 412.7 421.624 412.7 420.448C412.7 419.344 411.692 418.216 409.724 418.216C407.732 418.216 406.892 419.32 406.892 420.472H404.06C404.06 417.544 406.364 415.552 409.724 415.552C413.036 415.552 415.34 417.544 415.34 420.256C415.34 421.84 414.236 423.184 412.844 424.024Z" fill="black"/>
<path d="M469.718 473.246H471.72V492.716H469.718V473.246ZM456.474 481.54C456.474 477.36 458.542 474.742 461.446 474.742C464.328 474.742 466.418 477.36 466.418 481.54C466.418 485.698 464.328 488.36 461.446 488.36C458.542 488.36 456.474 485.698 456.474 481.54ZM458.41 481.54C458.41 484.62 459.664 486.556 461.446 486.556C463.228 486.556 464.482 484.62 464.482 481.54C464.482 478.46 463.228 476.546 461.446 476.546C459.664 476.546 458.41 478.46 458.41 481.54ZM489.057 473.29H491.059V487.634H489.057V480.308H484.833V484.4H475.967V474.566H477.947V477.888H482.853V474.566H484.833V478.68H489.057V473.29ZM477.947 482.772H482.853V479.428H477.947V482.772ZM478.519 492.276V486.226H480.521V490.626H491.521V492.276H478.519ZM501.563 474.786H514.763V476.414H503.587V478.944H514.345V480.528H503.587V483.234H514.961V484.84H509.131V488.668H516.919V490.318H499.341V488.668H507.107V484.84H501.563V474.786ZM518.57 484.268H526.336V482.31H520.836V477.338H531.924V475.402H520.792V473.862H533.904V478.812H522.794V480.77H534.322V482.31H528.36V484.268H536.148V485.918H518.57V484.268ZM520.858 492.562V487.15H522.86V490.956H534.366V492.562H520.858ZM544.068 474.654C547.082 474.654 549.282 476.568 549.282 479.274C549.282 482.002 547.082 483.894 544.068 483.894C541.01 483.894 538.81 482.002 538.81 479.274C538.81 476.568 541.01 474.654 544.068 474.654ZM537.886 486.864C541.384 486.864 546.268 486.842 550.448 486.204L550.602 487.678C546.29 488.514 541.582 488.536 538.128 488.536L537.886 486.864ZM540.768 479.274C540.768 480.99 542.176 482.156 544.068 482.156C545.916 482.156 547.324 480.99 547.324 479.274C547.324 477.536 545.916 476.392 544.068 476.392C542.176 476.392 540.768 477.536 540.768 479.274ZM551.658 492.716V473.246H553.682V492.716H551.658ZM569.841 473.62H571.909V474.412C571.909 476.766 575.011 478.966 578.641 479.45L577.893 481.034C574.835 480.594 572.129 479.054 570.875 476.942C569.643 479.054 566.915 480.572 563.835 481.034L563.087 479.45C566.761 478.966 569.841 476.81 569.841 474.412V473.62ZM562.097 484.092V482.464H579.631V484.092H562.097ZM564.187 489.218C564.187 486.996 566.695 485.742 570.853 485.742C575.011 485.742 577.519 486.996 577.519 489.218C577.519 491.44 575.011 492.672 570.853 492.672C566.695 492.672 564.187 491.44 564.187 489.218ZM566.211 489.218C566.211 490.45 567.905 491.154 570.853 491.154C573.779 491.154 575.473 490.45 575.473 489.218C575.473 487.986 573.779 487.282 570.853 487.282C567.905 487.282 566.211 487.986 566.211 489.218ZM581.678 475.226H592.194V476.898H588.014V479.054C588.014 482.09 590.038 485.544 592.942 486.908L591.798 488.492C589.62 487.436 587.904 485.236 587.024 482.706C586.144 485.456 584.34 487.876 582.162 488.976L580.996 487.392C583.856 485.984 586.034 482.31 586.034 479.054V476.898H581.678V475.226ZM594.284 492.694V473.29H596.308V481.034H599.388V482.706H596.308V492.694H594.284ZM602.886 473.972H604.866V478.966H616.13V480.594H602.886V473.972ZM600.554 484.686V483.058H618.132V484.686H600.554ZM602.754 492.232V486.534H604.734V490.604H616.24V492.232H602.754ZM627.119 474.236H629.121V479.692H640.451V481.342H627.119V474.236ZM624.853 485.72V484.092H642.431V485.72H634.577V492.694H632.597V485.72H624.853ZM646.26 474.522H659.394V476.216C659.394 478.042 659.394 480.044 658.866 482.838H661.638V484.488H653.828V492.716H651.782V484.488H644.082V482.838H656.82C657.414 480.088 657.414 478.042 657.414 476.216V476.128H646.26V474.522ZM668.744 473.95C671.648 473.95 673.826 475.732 673.826 478.284C673.826 480.836 671.648 482.596 668.744 482.596C665.84 482.596 663.706 480.836 663.706 478.284C663.706 475.732 665.84 473.95 668.744 473.95ZM665.642 478.284C665.642 479.89 666.984 480.968 668.744 480.968C670.548 480.968 671.868 479.89 671.868 478.284C671.868 476.678 670.548 475.578 668.744 475.578C666.984 475.578 665.642 476.678 665.642 478.284ZM666.632 485.654V484.07H679.26V488.932H668.634V490.846H679.876V492.43H666.676V487.436H677.258V485.654H666.632ZM677.236 483.168V473.29H679.26V483.168H677.236ZM695.827 473.268H697.807V481.166H700.645V482.838H697.807V492.672H695.827V473.268ZM682.385 487.238C685.201 484.29 686.257 480.902 686.433 476.986H683.067V475.336H688.325C688.325 480.176 687.467 484.62 683.969 488.404L682.385 487.238ZM687.907 488.536C690.767 485.148 691.603 481.122 691.757 476.986H688.963V475.336H693.649C693.649 480.242 693.033 485.434 689.513 489.658L687.907 488.536ZM701.767 488.58H705.991V483.454C704.407 482.596 703.439 481.21 703.439 479.472C703.439 476.414 706.431 474.434 710.523 474.434C714.681 474.434 717.629 476.414 717.629 479.472C717.629 481.188 716.705 482.552 715.143 483.432V488.58H719.345V490.23H701.767V488.58ZM705.397 479.472C705.397 481.584 707.531 482.926 710.523 482.926C713.537 482.926 715.671 481.584 715.671 479.472C715.671 477.36 713.537 476.018 710.523 476.018C707.531 476.018 705.397 477.36 705.397 479.472ZM707.971 488.58H713.119V484.202C712.327 484.4 711.447 484.488 710.523 484.488C709.621 484.488 708.763 484.4 707.971 484.202V488.58ZM724.802 486.974C724.802 484.554 725.594 483.278 727.024 482.222C728.08 481.452 729.114 480.748 729.114 479.538C729.114 477.47 727.684 476.524 725.946 476.524C724.626 476.524 723.592 477.36 723.086 478.856L721.194 478.24C721.898 476.062 723.812 474.5 725.946 474.5C728.476 474.5 731.138 476.326 731.138 479.538C731.138 481.826 729.246 483.08 728.212 483.85C727.156 484.598 726.826 485.192 726.826 486.974H724.802ZM724.582 490.142C724.582 489.482 725.022 488.932 725.814 488.932C726.606 488.932 727.024 489.482 727.024 490.142C727.024 490.846 726.606 491.396 725.814 491.396C725.022 491.396 724.582 490.846 724.582 490.142ZM460.148 505.27V520.846H458.278V507.316L456.518 507.91L455.902 506.128L458.278 505.27H460.148ZM463.449 506.612H467.717V503.642H469.719V506.612H473.921V508.196H469.719V509.494C469.719 512.552 471.523 515.698 474.361 517.084L473.261 518.624C471.171 517.59 469.565 515.544 468.751 513.146C467.915 515.742 466.221 517.898 464.021 518.976L462.899 517.436C465.825 516.05 467.739 512.75 467.739 509.494V508.196H463.449V506.612ZM476.077 522.694V503.29H478.101V511.166H481.203V512.838H478.101V522.694H476.077ZM488.188 504.104H490.19V506.766H495.272V504.104H497.252V512.552H488.188V504.104ZM490.124 515.72V514.136H502.554V518.998H492.148V520.89H503.214V522.496H490.146V517.502H500.574V515.72H490.124ZM490.19 510.946H495.272V508.306H490.19V510.946ZM500.53 513.256V503.29H502.554V507.36H505.326V509.01H502.554V513.256H500.53ZM520.66 503.29H522.662V517.546H520.66V510.22H516.92C516.502 512.574 514.478 514.18 511.948 514.18C509.088 514.18 506.932 512.178 506.932 509.34C506.932 506.502 509.088 504.522 511.948 504.522C514.522 504.522 516.59 506.15 516.942 508.592H520.66V503.29ZM508.846 509.34C508.846 511.188 510.188 512.42 511.948 512.42C513.708 512.42 515.05 511.188 515.05 509.34C515.05 507.514 513.708 506.282 511.948 506.282C510.188 506.282 508.846 507.514 508.846 509.34ZM510.166 522.276V516.116H512.19V520.626H523.19V522.276H510.166ZM528.713 519.174L527.371 523.706H525.941L526.667 519.174H528.713ZM537.637 518.712C540.761 515.632 545.249 512.838 545.249 510.066C545.249 508.196 543.907 507.162 542.345 507.162C541.223 507.162 539.969 507.558 539.199 509.34L537.395 508.548C538.583 505.886 540.849 505.226 542.345 505.226C544.699 505.226 547.185 507.096 547.185 510.066C547.185 513.322 543.489 516.138 540.541 518.712H547.427V520.648H537.615V518.712H537.637ZM549.623 506.612H553.891V503.642H555.893V506.612H560.095V508.196H555.893V509.494C555.893 512.552 557.697 515.698 560.535 517.084L559.435 518.624C557.345 517.59 555.739 515.544 554.925 513.146C554.089 515.742 552.395 517.898 550.195 518.976L549.073 517.436C551.999 516.05 553.913 512.75 553.913 509.494V508.196H549.623V506.612ZM562.251 522.694V503.29H564.275V511.166H567.377V512.838H564.275V522.694H562.251ZM574.361 504.104H576.363V506.766H581.445V504.104H583.425V512.552H574.361V504.104ZM576.297 515.72V514.136H588.727V518.998H578.321V520.89H589.387V522.496H576.319V517.502H586.747V515.72H576.297ZM576.363 510.946H581.445V508.306H576.363V510.946ZM586.703 513.256V503.29H588.727V507.36H591.499V509.01H588.727V513.256H586.703ZM606.834 503.29H608.836V517.546H606.834V510.22H603.094C602.676 512.574 600.652 514.18 598.122 514.18C595.262 514.18 593.106 512.178 593.106 509.34C593.106 506.502 595.262 504.522 598.122 504.522C600.696 504.522 602.764 506.15 603.116 508.592H606.834V503.29ZM595.02 509.34C595.02 511.188 596.362 512.42 598.122 512.42C599.882 512.42 601.224 511.188 601.224 509.34C601.224 507.514 599.882 506.282 598.122 506.282C596.362 506.282 595.02 507.514 595.02 509.34ZM596.34 522.276V516.116H598.364V520.626H609.364V522.276H596.34ZM618.021 505.446H624.885V503.18H626.887V505.446H633.685V507.052H618.021V505.446ZM617.119 517.48V515.874H634.697V517.48H626.887V522.694H624.885V517.48H617.119ZM619.517 511.364C619.517 509.252 621.871 508.086 625.875 508.086C629.879 508.086 632.255 509.252 632.255 511.364C632.255 513.432 629.879 514.62 625.875 514.62C621.871 514.62 619.517 513.432 619.517 511.364ZM621.585 511.364C621.585 512.464 623.103 513.08 625.875 513.08C628.669 513.08 630.187 512.464 630.187 511.364C630.187 510.22 628.669 509.604 625.875 509.604C623.103 509.604 621.585 510.22 621.585 511.364ZM461.204 543.608H463.228V546.996C464.988 546.886 466.792 546.732 468.464 546.468L468.618 547.942C464.306 548.756 459.598 548.778 456.144 548.8L455.902 547.128C457.442 547.128 459.29 547.128 461.204 547.062V543.608ZM456.43 542.684C459.29 541.848 461.116 539.802 461.204 537.382H456.914V535.754H461.204V533.422H463.228V535.754H467.584V537.382H463.228C463.338 539.714 465.208 541.694 468.024 542.486L467.1 544.026C464.834 543.366 463.096 541.936 462.238 540.088C461.38 542.046 459.664 543.542 457.354 544.246L456.43 542.684ZM469.674 552.716V533.246H471.698V552.716H469.674ZM482.787 540.22H484.789V542.86H492.577V544.488H475.043V542.86H482.787V540.22ZM475.967 539.604C479.443 539.296 482.215 537.69 482.457 535.776H476.649V534.17H490.993V535.776H485.163C485.405 537.69 488.177 539.296 491.675 539.604L490.949 541.188C487.649 540.814 484.855 539.428 483.821 537.36C482.765 539.428 479.993 540.814 476.671 541.188L475.967 539.604ZM477.133 549.306C477.133 547.15 479.619 545.94 483.799 545.94C487.957 545.94 490.465 547.15 490.465 549.306C490.465 551.462 487.957 552.65 483.799 552.65C479.619 552.65 477.133 551.462 477.133 549.306ZM479.157 549.306C479.157 550.494 480.851 551.132 483.799 551.132C486.747 551.132 488.419 550.494 488.419 549.306C488.419 548.14 486.747 547.502 483.799 547.502C480.851 547.502 479.157 548.14 479.157 549.306ZM499.341 544.334H516.919V545.984H509.065V552.694H507.085V545.984H499.341V544.334ZM501.233 538.306C501.233 535.688 504.005 534.06 508.075 534.06C512.167 534.06 514.917 535.688 514.917 538.306C514.917 540.924 512.167 542.574 508.075 542.574C504.005 542.574 501.233 540.924 501.233 538.306ZM503.301 538.306C503.301 539.956 505.215 540.99 508.075 540.99C510.957 540.99 512.871 539.956 512.871 538.306C512.871 536.678 510.957 535.644 508.075 535.644C505.215 535.644 503.301 536.678 503.301 538.306ZM526.314 533.62H528.382V534.412C528.382 536.766 531.484 538.966 535.114 539.45L534.366 541.034C531.308 540.594 528.602 539.054 527.348 536.942C526.116 539.054 523.388 540.572 520.308 541.034L519.56 539.45C523.234 538.966 526.314 536.81 526.314 534.412V533.62ZM518.57 544.092V542.464H536.104V544.092H518.57ZM520.66 549.218C520.66 546.996 523.168 545.742 527.326 545.742C531.484 545.742 533.992 546.996 533.992 549.218C533.992 551.44 531.484 552.672 527.326 552.672C523.168 552.672 520.66 551.44 520.66 549.218ZM522.684 549.218C522.684 550.45 524.378 551.154 527.326 551.154C530.252 551.154 531.946 550.45 531.946 549.218C531.946 547.986 530.252 547.282 527.326 547.282C524.378 547.282 522.684 547.986 522.684 549.218ZM538.15 535.226H548.666V536.898H544.486V539.054C544.486 542.09 546.51 545.544 549.414 546.908L548.27 548.492C546.092 547.436 544.376 545.236 543.496 542.706C542.616 545.456 540.812 547.876 538.634 548.976L537.468 547.392C540.328 545.984 542.506 542.31 542.506 539.054V536.898H538.15V535.226ZM550.756 552.694V533.29H552.78V541.034H555.86V542.706H552.78V552.694H550.756ZM562.075 544.972H579.653V546.644H571.865V552.716H569.863V546.644H562.075V544.972ZM564.407 543.124V534.17H577.519V535.776H566.387V537.8H577.079V539.384H566.387V541.518H577.739V543.124H564.407ZM581.326 548.734H586.078V544.356H582.888V542.75H585.748V536.634H582.844V535.006H597.32V536.634H594.394V542.75H597.276V544.356H594.064V548.734H598.904V550.362H581.326V548.734ZM587.772 542.75H592.392V536.634H587.772V542.75ZM588.08 548.734H592.084V544.356H588.08V548.734ZM613.842 533.268H615.822V541.166H618.66V542.838H615.822V552.672H613.842V533.268ZM600.4 547.238C603.216 544.29 604.272 540.902 604.448 536.986H601.082V535.336H606.34C606.34 540.176 605.482 544.62 601.984 548.404L600.4 547.238ZM605.922 548.536C608.782 545.148 609.618 541.122 609.772 536.986H606.978V535.336H611.664C611.664 540.242 611.048 545.434 607.528 549.658L605.922 548.536ZM620.377 535.226H631.245V536.898H626.801V539.054C626.801 542.31 628.979 545.632 631.905 546.908L630.783 548.492C628.539 547.48 626.713 545.324 625.811 542.728C624.931 545.5 623.127 547.876 620.883 548.976L619.739 547.392C622.621 546.006 624.799 542.376 624.799 539.054V536.898H620.377V535.226ZM633.665 552.694V533.29H635.667V552.694H633.665ZM640.705 548.954C641.497 548.954 641.915 549.482 641.915 550.164C641.915 550.868 641.497 551.396 640.705 551.396C639.913 551.396 639.473 550.868 639.473 550.164C639.473 549.482 639.913 548.954 640.705 548.954ZM455.814 600.682H461.006C461.6 598.46 461.754 596.788 461.798 595.622H457.442V594.016H463.756V594.676C463.756 595.754 463.756 597.844 463.03 600.682H468.64C469.19 598.46 469.278 596.832 469.3 595.622H465.01V594.016H471.236V594.962C471.236 596.194 471.236 598.108 470.62 600.682H473.392V602.288H455.814V600.682ZM458.014 612.452V604.18H471.28V605.698H460.016V607.524H470.796V608.998H460.016V610.89H471.412V612.452H458.014ZM488.331 593.268H490.311V601.166H493.149V602.838H490.311V612.672H488.331V593.268ZM474.889 607.238C477.705 604.29 478.761 600.902 478.937 596.986H475.571V595.336H480.829C480.829 600.176 479.971 604.62 476.473 608.404L474.889 607.238ZM480.411 608.536C483.271 605.148 484.107 601.122 484.261 596.986H481.467V595.336H486.153C486.153 600.242 485.537 605.434 482.017 609.658L480.411 608.536ZM494.865 595.226H505.733V596.898H501.289V599.054C501.289 602.31 503.467 605.632 506.393 606.908L505.271 608.492C503.027 607.48 501.201 605.324 500.299 602.728C499.419 605.5 497.615 607.876 495.371 608.976L494.227 607.392C497.109 606.006 499.287 602.376 499.287 599.054V596.898H494.865V595.226ZM508.153 612.694V593.29H510.155V612.694H508.153ZM527.48 605.368C531.462 605.368 533.904 606.732 533.904 609.02C533.904 611.33 531.462 612.672 527.48 612.672C523.498 612.672 521.056 611.33 521.056 609.02C521.056 606.732 523.498 605.368 527.48 605.368ZM519.34 603.498V594.5H521.342V597.294H526.424V594.5H528.404V603.498H519.34ZM521.342 601.892H526.424V598.878H521.342V601.892ZM523.014 609.02C523.014 610.34 524.686 611.088 527.48 611.088C530.252 611.088 531.902 610.34 531.902 609.02C531.902 607.722 530.252 606.974 527.48 606.974C524.686 606.974 523.014 607.722 523.014 609.02ZM531.682 604.884V593.29H533.706V598.086H536.478V599.758H533.706V604.884H531.682ZM551.724 593.29H553.726V604.29H551.724V593.29ZM537.864 602.266C540.878 601.232 542.704 598.636 542.704 595.886V594.038H544.728V595.886C544.728 598.548 546.62 600.946 549.546 601.914L548.578 603.476C546.334 602.75 544.64 601.166 543.76 599.164C542.902 601.32 541.186 603.036 538.854 603.85L537.864 602.266ZM541.12 612.43V605.346H553.726V612.43H541.12ZM543.078 610.824H551.768V606.952H543.078V610.824ZM567.443 594.324C570.369 594.324 572.503 596.194 572.503 598.834C572.503 601.474 570.369 603.322 567.443 603.322C564.583 603.322 562.427 601.474 562.427 598.834C562.427 596.194 564.583 594.324 567.443 594.324ZM564.055 612.188V604.972H566.013V610.516C567.135 610.472 568.455 610.296 569.687 609.878L570.017 611.484C568.213 612.078 566.475 612.188 565.023 612.188H564.055ZM564.363 598.834C564.363 600.528 565.683 601.672 567.443 601.672C569.247 601.672 570.567 600.528 570.567 598.834C570.567 597.14 569.247 595.996 567.443 595.996C565.683 595.996 564.363 597.14 564.363 598.834ZM569.313 606.534V605.082H573.207V603.41H575.165V605.082H579.037V606.534H569.313ZM570.567 609.922C570.567 608.272 572.041 607.194 574.175 607.194C576.309 607.194 577.805 608.272 577.805 609.922C577.805 611.594 576.309 612.65 574.175 612.65C572.041 612.65 570.567 611.594 570.567 609.922ZM572.349 609.922C572.349 610.758 573.097 611.264 574.175 611.264C575.253 611.264 576.023 610.758 576.023 609.922C576.023 609.108 575.253 608.602 574.175 608.602C573.097 608.602 572.349 609.108 572.349 609.922ZM575.187 602.904V593.29H577.211V597.558H580.005V599.23H577.211V602.904H575.187ZM583.174 595.138H596.858V597.052C596.858 599.45 596.858 602.134 596.154 606.094L594.13 605.874C594.856 602.112 594.856 599.384 594.856 597.052V596.788H583.174V595.138ZM581.326 610.054V608.382H588.014V601.518H590.016V608.382H598.882V610.054H581.326ZM455.814 631.606H463.558V629.868H458.08V623.928H471.082V629.868H465.56V631.606H473.348V633.234H455.814V631.606ZM457.904 636.226V634.686H471.126V639.196H459.928V640.934H471.698V642.496H457.97V637.744H469.146V636.226H457.904ZM460.038 628.284H469.102V625.49H460.038V628.284ZM488.969 623.29H490.971V633.696H488.969V623.29ZM475.439 628.658C475.439 626.018 477.595 624.192 480.543 624.192C483.491 624.192 485.647 626.018 485.647 628.658C485.647 631.32 483.491 633.168 480.543 633.168C477.595 633.168 475.439 631.32 475.439 628.658ZM477.397 628.658C477.397 630.352 478.717 631.474 480.543 631.474C482.369 631.474 483.689 630.352 483.689 628.658C483.689 626.986 482.369 625.842 480.543 625.842C478.717 625.842 477.397 626.986 477.397 628.658ZM478.387 642.43V634.642H480.389V636.842H488.991V634.642H490.971V642.43H478.387ZM480.389 640.824H488.991V638.426H480.389V640.824ZM507.273 623.29H509.275V631.166H512.355V632.838H509.275V642.694H507.273V623.29ZM494.161 627.954V626.326H498.913V623.532H500.959V626.326H505.601V627.954H494.161ZM495.195 633.938C495.195 631.298 497.219 629.45 499.947 629.45C502.719 629.45 504.721 631.298 504.721 633.938C504.721 636.578 502.719 638.426 499.947 638.426C497.219 638.426 495.195 636.578 495.195 633.938ZM497.109 633.938C497.109 635.632 498.297 636.776 499.947 636.776C501.597 636.776 502.807 635.632 502.807 633.938C502.807 632.266 501.597 631.1 499.947 631.1C498.297 631.1 497.109 632.266 497.109 633.938ZM518.692 624.742C520.452 624.742 521.904 625.754 522.762 627.514H527.536V623.246H529.538V642.716H527.536V635.258H522.894C522.08 637.216 520.562 638.36 518.692 638.36C515.854 638.36 513.83 635.698 513.83 631.54C513.83 627.36 515.854 624.742 518.692 624.742ZM515.722 631.54C515.722 634.62 516.932 636.556 518.692 636.556C520.474 636.556 521.684 634.62 521.684 631.54C521.684 628.46 520.474 626.546 518.692 626.546C516.932 626.546 515.722 628.46 515.722 631.54ZM523.334 629.164C523.488 629.89 523.576 630.682 523.576 631.54C523.576 632.288 523.51 632.992 523.378 633.63H527.536V629.164H523.334ZM551.702 623.246H553.704V642.716H551.702V623.246ZM538.458 631.54C538.458 627.36 540.526 624.742 543.43 624.742C546.312 624.742 548.402 627.36 548.402 631.54C548.402 635.698 546.312 638.36 543.43 638.36C540.526 638.36 538.458 635.698 538.458 631.54ZM540.394 631.54C540.394 634.62 541.648 636.556 543.43 636.556C545.212 636.556 546.466 634.62 546.466 631.54C546.466 628.46 545.212 626.546 543.43 626.546C541.648 626.546 540.394 628.46 540.394 631.54ZM562.197 624.742C565.079 624.742 567.125 627.36 567.125 631.54C567.125 635.698 565.079 638.36 562.197 638.36C559.337 638.36 557.269 635.698 557.269 631.54C557.269 627.36 559.337 624.742 562.197 624.742ZM559.205 631.54C559.205 634.62 560.415 636.556 562.197 636.556C563.979 636.556 565.211 634.62 565.211 631.54C565.211 628.46 563.979 626.546 562.197 626.546C560.415 626.546 559.205 628.46 559.205 631.54ZM569.985 642.694V623.29H572.031V628.086H575.001V629.758H572.031V633.828H575.001V635.5H572.031V642.694H569.985ZM590.203 623.268H592.227V642.672H590.203V623.268ZM576.431 637.546C581.579 635.06 584.065 631.518 584.461 626.964H577.355V625.336H586.485C586.485 631.034 584.087 635.94 577.487 639.13L576.431 637.546ZM613.534 623.246H615.558V630.924H618.55V632.596H615.558V642.672H613.534V623.246ZM601.302 637.788V625.16H603.304V636.138C605.988 636.116 608.826 635.896 611.862 635.28L612.104 636.93C608.804 637.612 605.812 637.788 602.886 637.788H601.302ZM633.731 623.268H635.733V642.694H633.731V637.898H629.441V636.314H633.731V623.268ZM619.585 633.146C623.435 633.146 628.099 633.102 632.191 632.706L632.323 634.18C630.541 634.422 628.715 634.576 626.911 634.664V642.1H624.887V634.752C623.127 634.796 621.411 634.796 619.849 634.796L619.585 633.146ZM621.411 630.792V624.28H623.413V629.186H630.937V630.792H621.411ZM639.011 638.58H643.235V633.454C641.651 632.596 640.683 631.21 640.683 629.472C640.683 626.414 643.675 624.434 647.767 624.434C651.925 624.434 654.873 626.414 654.873 629.472C654.873 631.188 653.949 632.552 652.387 633.432V638.58H656.589V640.23H639.011V638.58ZM642.641 629.472C642.641 631.584 644.775 632.926 647.767 632.926C650.781 632.926 652.915 631.584 652.915 629.472C652.915 627.36 650.781 626.018 647.767 626.018C644.775 626.018 642.641 627.36 642.641 629.472ZM645.215 638.58H650.363V634.202C649.571 634.4 648.691 634.488 647.767 634.488C646.865 634.488 646.007 634.4 645.215 634.202V638.58Z" fill="#C6C6C6"/>
<rect x="995" y="270" width="394" height="170" rx="22" fill="black"/>
<path d="M1172.6 302.544L1162.94 326.352H1158.74L1148.73 302.544H1152.82L1160.89 321.648L1168.6 302.544H1172.6ZM1184.77 322.736C1189.63 322.736 1192.86 319.088 1192.86 314.448C1192.86 309.84 1189.63 306.192 1184.77 306.192C1179.9 306.192 1176.7 309.84 1176.7 314.448C1176.7 319.088 1179.9 322.736 1184.77 322.736ZM1172.86 314.448C1172.86 307.792 1177.73 302.288 1184.77 302.288C1191.81 302.288 1196.7 307.792 1196.7 314.448C1196.7 321.136 1191.81 326.608 1184.77 326.608C1177.73 326.608 1172.86 321.136 1172.86 314.448ZM1215.44 302.544V306.32H1208.79V326.352H1204.92V306.32H1198.16V302.544H1215.44ZM1234.96 302.544V306.32H1222.48V312.208H1233.93V316.016H1222.48V322.544H1234.96V326.352H1218.67V302.544H1234.96Z" fill="#919191"/>
<rect x="1034.5" y="366" width="151" height="50" rx="12" fill="#14B5FF"/>
<path d="M1051.8 384.51H1055.81V382.221H1057.7V384.51H1061.71V386.043H1057.7V386.421C1057.7 388.71 1059.38 390.873 1062.16 391.755L1061.23 393.246C1059.15 392.574 1057.6 391.188 1056.78 389.424C1055.98 391.356 1054.39 392.868 1052.24 393.603L1051.28 392.091C1054.07 391.167 1055.81 388.899 1055.81 386.421V386.043H1051.8V384.51ZM1054.09 400.218V394.611H1055.98V398.643H1066.5V400.218H1054.09ZM1063.77 395.808V382.074H1065.7V387.765H1068.37V389.361H1065.7V395.808H1063.77ZM1074.21 383.124H1076.12V384.867C1076.12 387.471 1077.8 389.781 1080.55 390.705L1079.52 392.217C1077.51 391.482 1076.02 390.033 1075.22 388.164C1074.42 390.285 1072.8 391.944 1070.58 392.763L1069.57 391.209C1072.47 390.201 1074.21 387.744 1074.21 384.951V383.124ZM1072.55 397.068C1072.55 394.842 1074.92 393.54 1078.79 393.54C1082.63 393.54 1084.98 394.842 1084.98 397.068C1084.98 399.315 1082.63 400.575 1078.79 400.575C1074.92 400.575 1072.55 399.315 1072.55 397.068ZM1074.48 397.068C1074.48 398.349 1076.06 399.084 1078.79 399.084C1081.48 399.084 1083.09 398.349 1083.09 397.068C1083.09 395.787 1081.48 395.052 1078.79 395.052C1076.06 395.052 1074.48 395.787 1074.48 397.068ZM1079.1 387.471V385.875H1082.99V382.095H1084.9V393.015H1082.99V387.471H1079.1ZM1094.95 383.523H1107.55V385.077H1096.88V387.492H1107.15V389.004H1096.88V391.587H1107.74V393.12H1102.17V396.774H1109.6V398.349H1092.83V396.774H1100.24V393.12H1094.95V383.523ZM1111.18 392.574H1118.59V390.705H1113.34V385.959H1123.93V384.111H1113.3V382.641H1125.82V387.366H1115.21V389.235H1126.22V390.705H1120.53V392.574H1127.96V394.149H1111.18V392.574ZM1113.36 400.491V395.325H1115.28V398.958H1126.26V400.491H1113.36ZM1129.87 383.943H1139.91V385.539H1135.92V387.597C1135.92 390.495 1137.85 393.792 1140.62 395.094L1139.53 396.606C1137.45 395.598 1135.81 393.498 1134.97 391.083C1134.13 393.708 1132.41 396.018 1130.33 397.068L1129.22 395.556C1131.95 394.212 1134.03 390.705 1134.03 387.597V385.539H1129.87V383.943ZM1141.9 400.617V382.095H1143.84V389.487H1146.78V391.083H1143.84V400.617H1141.9ZM1161.63 383.754L1168.02 399.084H1166.02L1164.24 394.8H1157.01L1155.25 399.084H1153.25L1159.64 383.754H1161.63ZM1157.75 392.994H1163.5L1160.67 386.064L1157.75 392.994Z" fill="white"/>
<rect x="1201.5" y="366" width="148" height="50" rx="12" fill="#FA3C3C"/>
<path d="M1230.79 382.095H1232.73V387.597H1235.37V389.172H1232.73V395.682H1230.79V382.095ZM1219.01 392.637V383.418H1220.92V386.421H1225.77V383.418H1227.66V392.637H1219.01ZM1220.92 391.104H1225.77V387.912H1220.92V391.104ZM1221.09 400.218V394.38H1223V398.643H1233.5V400.218H1221.09ZM1250.55 382.074H1252.38V400.596H1250.55V391.02H1248.16V399.651H1246.38V382.473H1248.16V389.424H1250.55V382.074ZM1237.28 396.123V384.321H1244.13V385.875H1239.17V394.527C1241.44 394.506 1243.16 394.401 1245.09 394.023L1245.3 395.598C1243.06 396.039 1241.17 396.123 1238.5 396.123H1237.28ZM1261.95 383.523H1274.55V385.077H1263.88V387.492H1274.15V389.004H1263.88V391.587H1274.74V393.12H1269.17V396.774H1276.6V398.349H1259.83V396.774H1267.24V393.12H1261.95V383.523ZM1278.18 392.574H1285.59V390.705H1280.34V385.959H1290.93V384.111H1280.3V382.641H1292.82V387.366H1282.21V389.235H1293.22V390.705H1287.53V392.574H1294.96V394.149H1278.18V392.574ZM1280.36 400.491V395.325H1282.28V398.958H1293.26V400.491H1280.36ZM1296.87 383.943H1306.91V385.539H1302.92V387.597C1302.92 390.495 1304.85 393.792 1307.62 395.094L1306.53 396.606C1304.45 395.598 1302.81 393.498 1301.97 391.083C1301.13 393.708 1299.41 396.018 1297.33 397.068L1296.22 395.556C1298.95 394.212 1301.03 390.705 1301.03 387.597V385.539H1296.87V383.943ZM1308.9 400.617V382.095H1310.84V389.487H1313.78V391.083H1310.84V400.617H1308.9ZM1320.61 383.754H1327.14C1329.47 383.754 1331.34 385.581 1331.34 387.912C1331.34 389.235 1330.71 390.285 1329.75 391.062C1330.9 391.797 1331.7 393.204 1331.7 394.821C1331.7 397.173 1329.83 399.084 1327.5 399.084H1320.61V383.754ZM1322.46 397.215H1327.39C1328.76 397.215 1329.85 396.144 1329.85 394.737C1329.85 393.246 1328.76 392.091 1327.39 392.091H1322.46V397.215ZM1322.46 390.264H1327.21C1328.51 390.222 1329.54 389.277 1329.54 387.975C1329.54 386.589 1328.44 385.56 1327.08 385.56H1322.46V390.264Z" fill="white"/>
<circle cx="1193.5" cy="448.5" r="1.5" fill="#EFFE37"/>
<circle cx="1193.5" cy="457.5" r="1.5" fill="#EFFE37"/>
<circle cx="1193.5" cy="466.5" r="1.5" fill="#EFFE37"/>
<circle cx="1193.5" cy="475.5" r="1.5" fill="#EFFE37"/>
<rect x="998" y="474" width="394" height="408" rx="24" fill="black"/>
<path d="M1162.15 554L1153.19 522H1159.82L1165.94 545.726L1172.62 522H1178.01L1184.73 545.726L1190.86 522H1197.48L1188.52 554H1181.35L1175.31 532.88L1169.32 554H1162.15Z" fill="#EFFE37"/>
<path d="M1200.45 522H1206.76V554H1200.45V522Z" fill="#EFFE37"/>
<path d="M1230.5 522H1236.81V554H1232.01L1218.3 534.434V554H1211.99V522H1216.79L1230.5 541.52V522Z" fill="#EFFE37"/>
<path d="M1080.47 566.237C1081.91 566.237 1083.13 566.75 1083.9 567.624H1087.99V565.705H1089.7V574.236H1087.99V572.45H1083.96C1083.18 573.343 1081.93 573.894 1080.47 573.894C1077.96 573.894 1076.13 572.317 1076.13 570.075C1076.13 567.814 1077.96 566.237 1080.47 566.237ZM1077.77 570.075C1077.77 571.5 1078.91 572.488 1080.47 572.488C1082.02 572.488 1083.14 571.5 1083.14 570.075C1083.14 568.65 1082.02 567.662 1080.47 567.662C1078.91 567.662 1077.77 568.65 1077.77 570.075ZM1078.85 576.421V575.053H1089.7V579.214H1080.62V580.867H1090.31V582.235H1078.89V577.922H1087.99V576.421H1078.85ZM1084.66 568.992C1084.76 569.334 1084.82 569.695 1084.82 570.075C1084.82 570.436 1084.78 570.759 1084.68 571.082H1087.99V568.992H1084.66ZM1095.51 576.744H1097.24V580.677H1107.05V582.102H1095.51V576.744ZM1093.12 574.958V567.206H1097.66V568.612H1094.83V573.552C1095.72 573.533 1096.71 573.457 1097.79 573.21L1097.95 574.597C1096.37 574.939 1095.1 574.958 1093.92 574.958H1093.12ZM1098.55 574.958V567.206H1103.19V568.612H1100.26V573.571C1101.48 573.552 1102.52 573.476 1103.72 573.21L1103.85 574.597C1102.3 574.92 1101.08 574.958 1099.39 574.958H1098.55ZM1104.77 577.846V565.705H1106.5V577.846H1104.77ZM1115.4 566.997H1126.8V568.403H1117.14V570.588H1126.44V571.956H1117.14V574.293H1126.97V575.68H1121.93V578.986H1128.66V580.411H1113.48V578.986H1120.18V575.68H1115.4V566.997ZM1130.08 575.186H1136.79V573.495H1132.04V569.201H1141.62V567.529H1132V566.199H1143.33V570.474H1133.73V572.165H1143.69V573.495H1138.54V575.186H1145.27V576.611H1130.08V575.186ZM1132.06 582.349V577.675H1133.79V580.962H1143.73V582.349H1132.06ZM1152.11 566.883C1154.71 566.883 1156.61 568.536 1156.61 570.873C1156.61 573.229 1154.71 574.863 1152.11 574.863C1149.46 574.863 1147.56 573.229 1147.56 570.873C1147.56 568.536 1149.46 566.883 1152.11 566.883ZM1146.77 577.428C1149.79 577.428 1154.01 577.409 1157.62 576.858L1157.75 578.131C1154.02 578.853 1149.96 578.872 1146.98 578.872L1146.77 577.428ZM1149.26 570.873C1149.26 572.355 1150.47 573.362 1152.11 573.362C1153.7 573.362 1154.92 572.355 1154.92 570.873C1154.92 569.372 1153.7 568.384 1152.11 568.384C1150.47 568.384 1149.26 569.372 1149.26 570.873ZM1158.66 582.482V565.667H1160.41V582.482H1158.66ZM1167.68 575.243H1182.86V576.668H1176.07V582.463H1174.36V576.668H1167.68V575.243ZM1169.31 570.037C1169.31 567.776 1171.7 566.37 1175.22 566.37C1178.75 566.37 1181.13 567.776 1181.13 570.037C1181.13 572.298 1178.75 573.723 1175.22 573.723C1171.7 573.723 1169.31 572.298 1169.31 570.037ZM1171.1 570.037C1171.1 571.462 1172.75 572.355 1175.22 572.355C1177.71 572.355 1179.36 571.462 1179.36 570.037C1179.36 568.631 1177.71 567.738 1175.22 567.738C1172.75 567.738 1171.1 568.631 1171.1 570.037ZM1190.97 565.99H1192.76V566.674C1192.76 568.707 1195.44 570.607 1198.57 571.025L1197.92 572.393C1195.28 572.013 1192.95 570.683 1191.86 568.859C1190.8 570.683 1188.44 571.994 1185.78 572.393L1185.14 571.025C1188.31 570.607 1190.97 568.745 1190.97 566.674V565.99ZM1184.28 575.034V573.628H1199.43V575.034H1184.28ZM1186.09 579.461C1186.09 577.542 1188.25 576.459 1191.84 576.459C1195.44 576.459 1197.6 577.542 1197.6 579.461C1197.6 581.38 1195.44 582.444 1191.84 582.444C1188.25 582.444 1186.09 581.38 1186.09 579.461ZM1187.84 579.461C1187.84 580.525 1189.3 581.133 1191.84 581.133C1194.37 581.133 1195.83 580.525 1195.83 579.461C1195.83 578.397 1194.37 577.789 1191.84 577.789C1189.3 577.789 1187.84 578.397 1187.84 579.461ZM1201.19 567.377H1210.28V568.821H1206.67V570.683C1206.67 573.305 1208.41 576.288 1210.92 577.466L1209.93 578.834C1208.05 577.922 1206.57 576.022 1205.81 573.837C1205.05 576.212 1203.49 578.302 1201.61 579.252L1200.6 577.884C1203.07 576.668 1204.96 573.495 1204.96 570.683V568.821H1201.19V567.377ZM1212.08 582.463V565.705H1213.83V572.393H1216.49V573.837H1213.83V582.463H1212.08ZM1219.51 566.294H1221.22V570.607H1230.95V572.013H1219.51V566.294ZM1217.5 575.547V574.141H1232.68V575.547H1217.5ZM1219.4 582.064V577.143H1221.11V580.658H1231.04V582.064H1219.4ZM1249.69 565.705H1251.44V572.203H1254.1V573.666H1251.44V582.463H1249.69V565.705ZM1239.13 578.454V567.092H1240.86V571.424H1245.3V567.092H1247.03V578.454H1239.13ZM1240.86 577.048H1245.3V572.792H1240.86V577.048ZM1255.09 579.005H1261.79V576.003H1256.95V570.702H1266.72V568.289H1256.91V566.883H1268.44V572.07H1258.66V574.597H1268.82V576.003H1263.52V579.005H1270.27V580.43H1255.09V579.005ZM1287.42 565.686H1289.16V569.961H1291.54V571.405H1289.16V575.585H1287.42V565.686ZM1276.79 574.369V566.921H1284.22V568.365H1278.52V572.963C1281.81 572.963 1283.63 572.849 1285.74 572.412L1285.93 573.799C1283.69 574.255 1281.7 574.369 1278.12 574.369H1276.79ZM1278.22 579.176C1278.22 577.143 1280.37 575.927 1283.77 575.927C1287.17 575.927 1289.32 577.143 1289.32 579.176C1289.32 581.228 1287.17 582.425 1283.77 582.425C1280.37 582.425 1278.22 581.228 1278.22 579.176ZM1279.91 579.176C1279.91 580.354 1281.37 581.038 1283.77 581.038C1286.16 581.038 1287.61 580.354 1287.61 579.176C1287.61 577.979 1286.16 577.314 1283.77 577.314C1281.37 577.314 1279.91 577.979 1279.91 579.176ZM1304.71 565.705H1306.44V577.96H1304.71V565.705ZM1292.79 574.217C1295.38 573.229 1296.94 570.816 1296.94 568.308V566.617H1298.68V568.308C1298.68 570.74 1300.24 573.001 1302.81 573.913L1301.89 575.3C1299.98 574.578 1298.57 573.134 1297.83 571.291C1297.11 573.248 1295.68 574.825 1293.71 575.585L1292.79 574.217ZM1295.59 582.102V576.82H1297.33V580.677H1306.95V582.102H1295.59ZM1312.76 566.978L1312.5 577.523H1310.94L1310.63 566.978H1312.76ZM1310.65 580.259C1310.65 579.689 1311.03 579.214 1311.74 579.214C1312.42 579.214 1312.78 579.689 1312.78 580.259C1312.78 580.867 1312.42 581.342 1311.74 581.342C1311.03 581.342 1310.65 580.867 1310.65 580.259Z" fill="#C6C6C6"/>
<path fill-rule="evenodd" clip-rule="evenodd" d="M1263.92 632.776C1263.92 625.206 1257.79 619.069 1250.22 619.069H1227.2V680.362H1232.63V685.793C1249.91 685.793 1263.92 671.783 1263.92 654.5V632.776ZM1238.06 674.202V629.931H1250.22C1251.79 629.931 1253.06 631.205 1253.06 632.776V654.5C1253.06 663.904 1246.71 671.823 1238.06 674.202Z" fill="#FBA024"/>
<path fill-rule="evenodd" clip-rule="evenodd" d="M1126.08 632.776C1126.08 625.206 1132.21 619.069 1139.78 619.069H1162.8V680.362H1157.37V685.793C1140.09 685.793 1126.08 671.783 1126.08 654.5V632.776ZM1151.94 674.202V629.931H1139.78C1138.21 629.931 1136.94 631.205 1136.94 632.776V654.5C1136.94 663.904 1143.29 671.823 1151.94 674.202Z" fill="#FBA024"/>
<path fill-rule="evenodd" clip-rule="evenodd" d="M1207.29 704.415C1207.29 697.559 1201.73 692.001 1194.87 692.001V692.001C1188.02 692.001 1182.46 697.559 1182.46 704.415V722.517C1182.46 727.945 1178.06 732.345 1172.63 732.345V732.345C1167.2 732.345 1162.8 736.745 1162.8 742.173V742.173C1162.8 747.6 1167.2 752 1172.63 752H1217.11C1222.54 752 1226.94 747.6 1226.94 742.172V742.172C1226.94 736.745 1222.54 732.345 1217.11 732.345V732.345C1211.69 732.345 1207.29 727.945 1207.29 722.518V704.415Z" fill="#E99137"/>
<rect x="1175.73" y="700.276" width="38.2759" height="12.4138" rx="6.2069" fill="#FE9F3E"/>
<rect x="1144.7" y="602" width="99.8277" height="10.8621" rx="5.43104" fill="#FBA024"/>
<path d="M1144.7 618.713C1144.7 615.482 1147.32 612.862 1150.55 612.862H1238.67C1241.91 612.862 1244.53 615.482 1244.53 618.713V656.569C1244.53 684.136 1222.18 706.483 1194.61 706.483V706.483C1167.05 706.483 1144.7 684.136 1144.7 656.569V618.713Z" fill="#F0C644"/>
<rect x="1150.39" y="731.311" width="88.9656" height="20.6897" rx="10.3448" fill="#FE9F3E"/>
<path d="M1188.29 643.044C1191.4 638.313 1198.34 638.313 1201.45 643.044V643.044C1202.5 644.645 1204.1 645.807 1205.95 646.313V646.313C1211.41 647.807 1213.55 654.405 1210.01 658.823V658.823C1208.82 660.318 1208.2 662.199 1208.29 664.112V664.112C1208.56 669.767 1202.95 673.844 1197.65 671.844V671.844C1195.86 671.167 1193.88 671.167 1192.09 671.844V671.844C1186.79 673.844 1181.18 669.767 1181.45 664.112V664.112C1181.54 662.199 1180.93 660.318 1179.73 658.823V658.823C1176.19 654.405 1178.33 647.807 1183.79 646.313V646.313C1185.64 645.807 1187.24 644.645 1188.29 643.044V643.044Z" fill="white"/>
<rect x="1031" y="792" width="158" height="42" rx="12" fill="#777777"/>
<path d="M1070.77 816.616H1081.89V821.332H1070.77V816.616ZM1069.06 815.752V814.042H1075.23V813.196C1072.48 813.034 1070.98 812.26 1070.98 810.928C1070.98 809.416 1072.89 808.624 1076.35 808.624C1079.8 808.624 1081.73 809.416 1081.73 810.928C1081.73 812.26 1080.22 813.034 1077.46 813.196V814.042H1083.64V815.752H1069.06ZM1069.76 808.21V806.518H1075.23V805.24H1077.46V806.518H1082.86V808.21H1069.76ZM1072.95 819.676H1079.71V818.272H1072.95V819.676ZM1073.36 810.928C1073.36 811.468 1074.31 811.72 1076.35 811.72C1078.4 811.72 1079.35 811.468 1079.35 810.928C1079.35 810.37 1078.4 810.118 1076.35 810.118C1074.31 810.118 1073.36 810.37 1073.36 810.928ZM1099.49 805.384H1101.72V811.954H1103.81V813.79H1101.72V821.512H1099.49V805.384ZM1088.78 816.976C1089.95 816.976 1091.3 816.976 1092.72 816.94V815.536C1091.03 815.212 1089.91 814.114 1089.91 812.602C1089.91 810.802 1091.53 809.596 1093.83 809.596C1096.14 809.596 1097.76 810.802 1097.76 812.602C1097.76 814.114 1096.64 815.212 1094.95 815.536V816.85C1096.21 816.778 1097.47 816.67 1098.66 816.508L1098.84 818.11C1095.44 818.776 1091.76 818.776 1089.05 818.776L1088.78 816.976ZM1089.06 808.912V807.166H1092.72V805.456H1094.95V807.166H1098.57V808.912H1089.06ZM1092.02 812.602C1092.02 813.484 1092.75 813.952 1093.83 813.952C1094.93 813.952 1095.65 813.484 1095.65 812.602C1095.65 811.738 1094.93 811.27 1093.83 811.27C1092.75 811.27 1092.02 811.738 1092.02 812.602ZM1105.34 806.68H1112.93V807.94H1115.9V805.384H1118.15V817.12H1115.9V813.178H1112.93V814.528H1105.34V806.68ZM1107.5 821.206V816.022H1109.75V819.424H1118.5V821.206H1107.5ZM1107.53 812.764H1110.76V808.426H1107.53V812.764ZM1112.93 811.396H1115.9V809.722H1112.93V811.396ZM1127.69 806.176C1131.1 806.176 1133.71 808.048 1133.71 810.82C1133.71 813.628 1131.1 815.464 1127.69 815.464C1124.31 815.464 1121.68 813.628 1121.68 810.82C1121.68 808.048 1124.31 806.176 1127.69 806.176ZM1120.42 819.532V817.696H1135.02V819.532H1120.42ZM1123.88 810.82C1123.88 812.584 1125.46 813.646 1127.69 813.646C1129.94 813.646 1131.53 812.584 1131.53 810.82C1131.53 809.056 1129.94 807.994 1127.69 807.994C1125.46 807.994 1123.88 809.056 1123.88 810.82ZM1136.15 817.876H1142.31V815.41H1137.85V810.01H1146.88V808.192H1137.81V806.428H1149.1V811.738H1140.04V813.628H1149.46V815.41H1144.54V817.876H1150.75V819.694H1136.15V817.876Z" fill="#C6C6C6"/>
<rect x="1201" y="792" width="158" height="42" rx="12" fill="#EFFE37"/>
<path d="M1229.18 813.682H1231.48V811.432H1229.48C1228.75 814.096 1227.11 816.364 1224.1 818.146L1222.84 816.58C1226.06 814.636 1227.49 812.278 1227.79 809.074H1223.74V807.292H1229.99C1229.99 808.12 1229.93 808.912 1229.84 809.668H1231.48V805.726H1233.55V820.774H1231.48V815.464H1229.18V813.682ZM1234.79 821.494V805.366H1236.92V821.494H1234.79ZM1238.79 813.232H1244.95V811.09H1247.18V813.232H1253.39V814.996H1238.79V813.232ZM1239.53 810.28C1243.07 809.848 1244.93 808.012 1244.93 806.176V805.672H1247.2V806.176C1247.2 808.066 1249.01 809.848 1252.6 810.28L1251.75 812.044C1249.05 811.63 1247.07 810.496 1246.04 808.894C1245.02 810.478 1243.04 811.63 1240.36 812.044L1239.53 810.28ZM1240.41 817.948V816.184H1251.61V821.512H1249.39V817.948H1240.41ZM1259.12 806.986H1262.34V805.312H1264.56V806.986H1267.78V808.75H1264.56C1264.59 810.406 1265.78 812.044 1268.3 812.71L1267.29 814.456C1265.48 813.952 1264.22 812.926 1263.48 811.612C1262.78 813.052 1261.48 814.168 1259.61 814.708L1258.56 812.98C1261.12 812.278 1262.31 810.532 1262.34 808.75H1259.12V806.986ZM1260.9 821.332V815.518H1271.34V821.332H1260.9ZM1263.08 819.568H1269.17V817.264H1263.08V819.568ZM1269.11 814.834V805.384H1271.34V809.164H1273.52V811H1271.34V814.834H1269.11ZM1278.8 806.5C1280.24 806.5 1281.44 807.292 1282.18 808.696H1285.69V805.348H1287.9V821.53H1285.69V815.5H1282.32C1281.62 817.084 1280.34 818.002 1278.8 818.002C1276.4 818.002 1274.66 815.788 1274.66 812.242C1274.66 808.714 1276.4 806.5 1278.8 806.5ZM1276.76 812.242C1276.76 814.654 1277.59 815.986 1278.8 815.986C1280.02 815.986 1280.85 814.654 1280.85 812.242C1280.85 809.83 1280.02 808.516 1278.8 808.516C1277.59 808.516 1276.76 809.83 1276.76 812.242ZM1282.79 810.496C1282.9 811.036 1282.95 811.612 1282.95 812.242C1282.95 812.764 1282.92 813.25 1282.85 813.7H1285.69V810.496H1282.79ZM1300.58 805.366H1302.81V808.84H1304.99V810.658H1302.81V814.078H1300.58V805.366ZM1290.15 808.264V806.59H1293.77V805.24H1296V806.59H1299.64V808.264H1290.15ZM1290.95 811.324C1290.95 809.704 1292.51 808.678 1294.91 808.678C1297.28 808.678 1298.85 809.704 1298.85 811.324C1298.85 812.944 1297.28 813.952 1294.91 813.952C1292.51 813.952 1290.95 812.944 1290.95 811.324ZM1292.21 816.364V814.744H1302.81V818.794H1294.44V819.73H1303.29V821.386H1292.24V817.264H1300.61V816.364H1292.21ZM1293.09 811.324C1293.09 812.008 1293.77 812.368 1294.91 812.368C1296.02 812.368 1296.71 812.008 1296.71 811.324C1296.71 810.604 1296.02 810.262 1294.91 810.262C1293.77 810.262 1293.09 810.604 1293.09 811.324ZM1306.3 806.95H1312.38V813.142H1308.48V816.076C1309.99 816.058 1311.41 815.986 1313.07 815.716L1313.23 817.516C1311.14 817.876 1309.41 817.912 1307.45 817.912H1306.32V811.378H1310.24V808.75H1306.3V806.95ZM1313.97 820.72V805.672H1316.04V811.504H1317.57V805.366H1319.69V821.494H1317.57V813.286H1316.04V820.72H1313.97ZM1321.62 817.786H1324.86V813.808C1323.63 813.052 1322.88 811.9 1322.88 810.478C1322.88 807.868 1325.43 806.176 1328.89 806.176C1332.36 806.176 1334.9 807.868 1334.9 810.478C1334.9 811.882 1334.16 813.034 1332.96 813.79V817.786H1336.22V819.604H1321.62V817.786ZM1325.09 810.478C1325.09 812.098 1326.62 813.052 1328.89 813.052C1331.18 813.052 1332.71 812.098 1332.71 810.478C1332.71 808.858 1331.18 807.904 1328.89 807.904C1326.62 807.904 1325.09 808.858 1325.09 810.478ZM1327.09 817.786H1330.73V814.618C1330.15 814.744 1329.54 814.798 1328.89 814.798C1328.26 814.798 1327.65 814.744 1327.09 814.636V817.786Z" fill="#1B1B1B"/>
<path opacity="0.6" d="M900.128 383.944V389.704H905.888V392.584H900.128V398.32H897.272V392.584H891.512V389.704H897.272V383.944H900.128ZM914.266 383.08H918.562V380.656H921.514V383.08H925.81V385.408H921.514C921.514 387.832 923.05 390.304 926.506 391.36L925.066 393.688C922.714 392.968 921.058 391.528 920.098 389.68C919.138 391.696 917.458 393.28 914.986 394.048L913.546 391.744C916.978 390.64 918.562 388.048 918.562 385.408H914.266V383.08ZM916.762 401.608V395.032H919.738V399.232H931.378V401.608H916.762ZM927.586 396.424V380.488H930.562V386.896H933.466V389.32H930.562V396.424H927.586ZM939.658 381.64H942.682V383.44C942.682 386.32 944.146 388.984 947.53 390.064L945.97 392.392C943.714 391.6 942.154 390.112 941.242 388.216C940.282 390.424 938.554 392.176 936.01 393.04L934.45 390.64C938.074 389.464 939.658 386.584 939.658 383.584V381.64ZM937.954 397.816C937.954 395.224 940.786 393.664 945.322 393.664C949.858 393.664 952.666 395.224 952.666 397.816C952.666 400.48 949.858 402.016 945.322 402.016C940.786 402.016 937.954 400.48 937.954 397.816ZM940.954 397.816C940.954 399.088 942.466 399.736 945.322 399.736C948.154 399.736 949.714 399.088 949.714 397.816C949.714 396.592 948.154 395.968 945.322 395.968C942.466 395.968 940.954 396.592 940.954 397.816ZM945.586 386.896V384.472H949.594V380.512H952.594V393.112H949.594V386.896H945.586ZM967.342 382.672V400H964.534V385.768L962.182 386.56L961.27 383.848L964.534 382.672H967.342Z" fill="white"/>
<path opacity="0.4" d="M1458.13 378.944V384.704H1463.89V387.584H1458.13V393.32H1455.27V387.584H1449.51V384.704H1455.27V378.944H1458.13ZM1485.61 375.512H1488.59V381.608H1491.47V384.032H1488.59V391.328H1485.61V375.512ZM1472.34 387.92V377.024H1475.29V380.168H1479.68V377.024H1482.63V387.92H1472.34ZM1474.76 396.608V389.744H1477.76V394.232H1489.38V396.608H1474.76ZM1475.29 385.568H1479.68V382.448H1475.29V385.568ZM1508.24 375.488H1511.07V396.992H1508.24V386.216H1506.2V395.96H1503.44V375.896H1506.2V383.792H1508.24V375.488ZM1493.27 392.12V378.008H1501.19V380.408H1496.19V389.672C1498.28 389.624 1500.13 389.504 1502.19 389.12L1502.43 391.52C1499.82 392.024 1497.56 392.12 1494.75 392.12H1493.27ZM1525.34 377.672V395H1522.53V380.768L1520.18 381.56L1519.27 378.848L1522.53 377.672H1525.34Z" fill="white"/>
<path opacity="0.17" d="M1423.13 335.944V341.704H1428.89V344.584H1423.13V350.32H1420.27V344.584H1414.51V341.704H1420.27V335.944H1423.13ZM1450.61 332.512H1453.59V338.608H1456.47V341.032H1453.59V348.328H1450.61V332.512ZM1437.34 344.92V334.024H1440.29V337.168H1444.68V334.024H1447.63V344.92H1437.34ZM1439.76 353.608V346.744H1442.76V351.232H1454.38V353.608H1439.76ZM1440.29 342.568H1444.68V339.448H1440.29V342.568ZM1473.24 332.488H1476.07V353.992H1473.24V343.216H1471.2V352.96H1468.44V332.896H1471.2V340.792H1473.24V332.488ZM1458.27 349.12V335.008H1466.19V337.408H1461.19V346.672C1463.28 346.624 1465.13 346.504 1467.19 346.12L1467.43 348.52C1464.82 349.024 1462.56 349.12 1459.75 349.12H1458.27ZM1490.34 334.672V352H1487.53V337.768L1485.18 338.56L1484.27 335.848L1487.53 334.672H1490.34Z" fill="white"/>
</svg>
