<svg width="1920" height="1200" viewBox="0 0 1920 1200" fill="none" xmlns="http://www.w3.org/2000/svg">
<rect width="1920" height="1200" fill="url(#paint0_linear_1_93)"/>
<path d="M492.258 257.854H497.466V295.612H492.258V257.854ZM468.612 286.582V261.256H486.714V265.456H473.736V282.256C480.414 282.214 484.614 282.046 489.318 281.122L489.78 285.406C484.614 286.456 479.826 286.582 471.804 286.582H468.612ZM504.103 261.34H508.975V270.034H514.183V261.34H518.929V271.672H522.709V258.526H527.581V293.806H522.709V275.872H518.929V286.54H504.103V261.34ZM508.975 282.382H514.183V274.108H508.975V282.382ZM530.353 295.486V257.854H535.267V295.486H530.353ZM543.752 260.458H569.876V264.616H549.044V268.438H568.994V272.47H549.044V276.544H570.17V280.702H559.376V287.086H573.824V291.286H539.762V287.086H554.168V280.702H543.752V260.458ZM602.511 257.812H607.719V295.57H602.511V257.812ZM578.403 265.246V261.088H596.127V275.536H583.737V282.508C589.491 282.466 594.363 282.214 599.781 281.29L600.327 285.448C594.153 286.54 588.567 286.75 581.763 286.75H578.487V271.378H590.835V265.246H578.403ZM620.278 283.516C620.278 278.224 622.126 275.62 624.772 273.646C626.83 272.092 628.426 271.168 628.426 269.194C628.426 266.044 626.242 264.238 623.05 264.238C620.95 264.238 619.144 265.54 618.388 268.396L613.348 267.136C614.608 262.096 618.976 259.03 623.05 259.03C628.468 259.03 633.634 263.23 633.634 269.194C633.634 272.806 629.896 276.334 627.88 277.846C626.074 279.19 625.486 280.03 625.486 283.516H620.278ZM620.026 290.32C620.026 288.766 621.034 287.506 622.882 287.506C624.73 287.506 625.696 288.766 625.696 290.32C625.696 291.916 624.73 293.176 622.882 293.176C621.034 293.176 620.026 291.916 620.026 290.32Z" fill="#EFFE37"/>
<path d="M476.55 312.5C481.59 312.5 485.412 316.658 486.126 323.504H492.636V309.812H497.802V347.57H492.636V327.662H486.168C485.664 334.886 481.758 339.338 476.55 339.338C470.964 339.338 466.89 334.172 466.89 325.898C466.89 317.666 470.964 312.5 476.55 312.5ZM471.846 325.898C471.846 331.526 473.736 334.634 476.55 334.634C479.406 334.634 481.296 331.526 481.296 325.898C481.296 320.27 479.406 317.204 476.55 317.204C473.736 317.204 471.846 320.27 471.846 325.898ZM507.757 331.82H518.929V328.838H524.179V331.82H535.309V335.726H507.757V331.82ZM503.599 327.536V311.408H513.385V315.398H508.681V323.462C510.319 323.378 511.915 323.21 513.721 322.874L514.141 326.906C510.991 327.494 508.597 327.536 505.447 327.536H503.599ZM510.529 342.278C510.529 338.834 514.645 336.986 521.491 336.986C528.379 336.986 532.453 338.834 532.453 342.278C532.453 345.638 528.379 347.57 521.491 347.57C514.645 347.57 510.529 345.638 510.529 342.278ZM515.149 327.536V311.408H525.607V315.398H520.273V323.462C522.961 323.42 524.641 323.252 526.531 322.832L526.951 326.822C524.263 327.494 522.079 327.536 517.165 327.536H515.149ZM516.073 342.278C516.073 343.496 518.005 344.042 521.491 344.042C524.977 344.042 526.867 343.496 526.867 342.278C526.867 341.018 524.977 340.472 521.491 340.472C518.005 340.472 516.073 341.018 516.073 342.278ZM524.557 321.068V317.204H529.639V309.896H534.805V329.93H529.639V321.068H524.557ZM567.104 309.854H572.06V347.486H567.104V309.854ZM539.258 336.02C546.86 331.484 550.178 325.982 550.892 318.506H541.316V314.348H556.016C556.016 317.918 555.638 321.278 554.714 324.386H559.166V310.694H564.038V345.806H559.166V328.544H553.118C550.976 332.828 547.49 336.566 542.198 339.674L539.258 336.02ZM492.216 361.812H497.466V399.57H492.216V361.812ZM467.352 377.898C467.352 369.666 471.552 364.5 477.264 364.5C482.934 364.5 487.092 369.666 487.092 377.898C487.092 386.172 482.934 391.338 477.264 391.338C471.552 391.338 467.352 386.172 467.352 377.898ZM472.392 377.898C472.392 383.526 474.366 386.634 477.264 386.634C480.12 386.634 482.094 383.526 482.094 377.898C482.094 372.27 480.12 369.204 477.264 369.204C474.366 369.204 472.392 372.27 472.392 377.898ZM503.011 379.788H510.739V375.21C507.967 373.992 506.413 372.102 506.413 369.666C506.413 365.172 511.747 362.442 520.021 362.442C528.337 362.442 533.629 365.172 533.629 369.666C533.629 372.144 532.033 374.034 529.219 375.252V379.788H537.031V383.904H503.011V379.788ZM506.917 392.682C506.917 388.398 511.831 385.92 519.937 385.92C528.085 385.92 532.999 388.398 532.999 392.682C532.999 397.092 528.085 399.528 519.937 399.528C511.831 399.528 506.917 397.092 506.917 392.682ZM511.789 369.666C511.789 371.808 514.771 372.9 520.021 372.9C525.229 372.9 528.253 371.808 528.253 369.666C528.253 367.524 525.229 366.39 520.021 366.39C514.771 366.39 511.789 367.524 511.789 369.666ZM512.167 392.682C512.167 394.656 514.813 395.622 519.937 395.622C525.103 395.622 527.749 394.656 527.749 392.682C527.749 390.75 525.103 389.826 519.937 389.826C514.813 389.826 512.167 390.75 512.167 392.682ZM515.905 379.788H524.053V376.554C522.793 376.722 521.449 376.806 520.021 376.806C518.551 376.806 517.165 376.722 515.905 376.554V379.788ZM563.996 361.896H569.204V376.638H574.706V380.964H569.204V399.528H563.996V361.896ZM539.552 371.64V367.482H547.952V362.484H553.202V367.482H561.518V371.64H539.552ZM541.106 382.812C541.106 377.562 545.138 373.866 550.598 373.866C556.058 373.866 560.132 377.562 560.132 382.812C560.132 388.02 556.058 391.716 550.598 391.716C545.138 391.716 541.106 388.02 541.106 382.812ZM546.104 382.812C546.104 385.71 547.952 387.474 550.598 387.474C553.244 387.474 555.134 385.71 555.134 382.812C555.134 379.872 553.244 378.066 550.598 378.066C547.952 378.066 546.104 379.872 546.104 382.812ZM600.663 361.812H605.871V376.176H611.163V380.46H605.871V399.486H600.663V361.812ZM577.647 390.246V365.466H582.813V385.962C587.643 385.878 592.809 385.416 598.143 384.366L598.689 388.608C592.389 389.91 586.425 390.246 580.839 390.246H577.647ZM613.18 390.834H620.74V381.552C617.884 379.788 616.12 377.1 616.12 373.782C616.12 367.692 622.084 363.744 630.148 363.744C638.254 363.744 644.176 367.692 644.176 373.782C644.176 377.058 642.454 379.746 639.64 381.51V390.834H647.242V395.076H613.18V390.834ZM621.286 373.782C621.286 377.562 624.856 379.788 630.148 379.788C635.482 379.788 639.052 377.562 639.052 373.782C639.052 370.002 635.482 367.776 630.148 367.776C624.856 367.776 621.286 370.002 621.286 373.782ZM625.948 390.834H634.432V383.442C633.088 383.736 631.66 383.862 630.148 383.862C628.678 383.862 627.25 383.736 625.948 383.484V390.834ZM656.987 387.516C656.987 382.224 658.835 379.62 661.481 377.646C663.539 376.092 665.135 375.168 665.135 373.194C665.135 370.044 662.951 368.238 659.759 368.238C657.659 368.238 655.853 369.54 655.097 372.396L650.057 371.136C651.317 366.096 655.685 363.03 659.759 363.03C665.177 363.03 670.343 367.23 670.343 373.194C670.343 376.806 666.605 380.334 664.589 381.846C662.783 383.19 662.195 384.03 662.195 387.516H656.987ZM656.735 394.32C656.735 392.766 657.743 391.506 659.591 391.506C661.439 391.506 662.405 392.766 662.405 394.32C662.405 395.916 661.439 397.176 659.591 397.176C657.743 397.176 656.735 395.916 656.735 394.32Z" fill="white"/>
<rect x="804" y="230" width="753" height="544.754" rx="24" fill="black"/>
<g filter="url(#filter0_d_1_93)">
<path d="M1029.34 266H874.572C864.315 266 856 274.313 856 284.568V647.412C856 657.667 864.315 665.98 874.572 665.98H1029.34C1039.59 665.98 1047.91 657.667 1047.91 647.412V284.568C1047.91 274.313 1039.59 266 1029.34 266Z" fill="#B484F1"/>
<path d="M874.572 267.5H1029.34C1038.77 267.5 1046.41 275.142 1046.41 284.568V647.412C1046.41 656.838 1038.77 664.48 1029.34 664.48H874.572C865.143 664.48 857.5 656.838 857.5 647.412V284.568C857.5 275.142 865.143 267.5 874.572 267.5Z" stroke="white" stroke-width="3"/>
</g>
<path d="M874.296 338.698H881.658V345.574H874.296V338.698ZM875.7 350.362C875.7 348.454 877.716 347.338 880.956 347.338C884.196 347.338 886.212 348.454 886.212 350.362C886.212 352.252 884.196 353.368 880.956 353.368C877.716 353.368 875.7 352.252 875.7 350.362ZM875.916 344.278H880.056V339.994H875.916V344.278ZM877.302 350.362C877.302 351.442 878.67 352.072 880.956 352.072C883.224 352.072 884.574 351.442 884.574 350.362C884.574 349.264 883.224 348.67 880.956 348.67C878.67 348.67 877.302 349.264 877.302 350.362ZM884.394 346.834V337.51H886.05V341.362H888.318V342.73H886.05V346.834H884.394Z" fill="white"/>
<path d="M897.534 340.246H900.864V337.51H902.502V345.664H900.864V341.596H897.534V340.246ZM889.362 344.422C891.81 343.63 893.268 341.65 893.268 339.4V337.996H894.906V339.4C894.906 341.416 896.382 343.342 898.704 344.098L897.858 345.358C896.13 344.764 894.816 343.558 894.132 342.028C893.448 343.738 892.08 345.07 890.226 345.7L889.362 344.422ZM892.224 347.734V346.438H902.502V350.362H893.862V351.874H903.06V353.17H892.242V349.138H900.882V347.734H892.224Z" fill="white"/>
<path d="M909.577 338.05C911.953 338.05 913.735 339.508 913.735 341.596C913.735 343.684 911.953 345.124 909.577 345.124C907.201 345.124 905.455 343.684 905.455 341.596C905.455 339.508 907.201 338.05 909.577 338.05ZM907.039 341.596C907.039 342.91 908.137 343.792 909.577 343.792C911.053 343.792 912.133 342.91 912.133 341.596C912.133 340.282 911.053 339.382 909.577 339.382C908.137 339.382 907.039 340.282 907.039 341.596ZM907.849 347.626V346.33H918.181V350.308H909.487V351.874H918.685V353.17H907.885V349.084H916.543V347.626H907.849ZM916.525 345.592V337.51H918.181V345.592H916.525Z" fill="white"/>
<path d="M936.424 337.51H938.098V345.7H936.424V337.51ZM925.282 343.882C925.876 343.882 926.524 343.882 927.208 343.864V339.85H925.714V338.554H934.228V339.85H932.734V343.648C933.508 343.594 934.246 343.522 934.966 343.432L935.056 344.62C931.888 345.124 928.234 345.214 925.462 345.214L925.282 343.882ZM927.64 347.734V346.456H938.098V350.38H929.296V351.91H938.638V353.224H927.676V349.174H936.46V347.734H927.64ZM928.792 343.828C929.566 343.81 930.358 343.792 931.15 343.756V339.85H928.792V343.828Z" fill="white"/>
<path d="M940.744 350.02H944.2V345.826C942.904 345.124 942.112 343.99 942.112 342.568C942.112 340.066 944.56 338.446 947.908 338.446C951.31 338.446 953.722 340.066 953.722 342.568C953.722 343.972 952.966 345.088 951.688 345.808V350.02H955.126V351.37H940.744V350.02ZM943.714 342.568C943.714 344.296 945.46 345.394 947.908 345.394C950.374 345.394 952.12 344.296 952.12 342.568C952.12 340.84 950.374 339.742 947.908 339.742C945.46 339.742 943.714 340.84 943.714 342.568ZM945.82 350.02H950.032V346.438C949.384 346.6 948.664 346.672 947.908 346.672C947.17 346.672 946.468 346.6 945.82 346.438V350.02Z" fill="white"/>
<path d="M962.425 346.816H963.973V348.688H966.475V346.816H968.005V353.17H962.425V346.816ZM960.877 341.848C960.877 339.67 962.605 338.176 964.981 338.176C967.069 338.176 968.707 339.364 969.031 341.146H972.109V337.51H973.747V345.898H972.109V342.496H969.049C968.743 344.314 967.105 345.538 964.981 345.538C962.605 345.538 960.877 344.026 960.877 341.848ZM962.461 341.848C962.461 343.234 963.505 344.17 964.981 344.17C966.457 344.17 967.519 343.234 967.519 341.848C967.519 340.48 966.457 339.544 964.981 339.544C963.505 339.544 962.461 340.48 962.461 341.848ZM963.973 351.91H966.475V349.912H963.973V351.91ZM968.095 352.072C969.985 351.28 970.921 349.588 970.921 348.004V346.708H972.541V348.004C972.541 349.678 973.477 351.352 975.385 352.072L974.557 353.314C973.153 352.738 972.217 351.694 971.731 350.434C971.227 351.676 970.291 352.738 968.905 353.314L968.095 352.072Z" fill="white"/>
<path d="M987.733 337.474H989.371V353.404H987.733V337.474ZM976.897 344.26C976.897 340.84 978.589 338.698 980.965 338.698C983.323 338.698 985.033 340.84 985.033 344.26C985.033 347.662 983.323 349.84 980.965 349.84C978.589 349.84 976.897 347.662 976.897 344.26ZM978.481 344.26C978.481 346.78 979.507 348.364 980.965 348.364C982.423 348.364 983.449 346.78 983.449 344.26C983.449 341.74 982.423 340.174 980.965 340.174C979.507 340.174 978.481 341.74 978.481 344.26Z" fill="white"/>
<path d="M884.286 362.51H885.942V368.666H888.462V370.052H885.942V378.386H884.286V362.51ZM874.278 374.588V363.824H875.916V367.928H880.128V363.824H881.766V374.588H874.278ZM875.916 373.256H880.128V369.224H875.916V373.256Z" fill="white"/>
<path d="M889.398 375.11H895.752V372.266H891.162V367.244H900.414V364.958H891.126V363.626H902.052V368.54H892.782V370.934H902.412V372.266H897.39V375.11H903.78V376.46H889.398V375.11Z" fill="white"/>
<path d="M911.097 363.734H921.897V365.066H912.753V367.136H921.555V368.432H912.753V370.646H922.059V371.96H917.289V375.092H923.661V376.442H909.279V375.092H915.633V371.96H911.097V363.734Z" fill="white"/>
<path d="M925.012 371.492H931.366V369.89H926.866V365.822H935.938V364.238H926.83V362.978H937.558V367.028H928.468V368.63H937.9V369.89H933.022V371.492H939.394V372.842H925.012V371.492ZM926.884 378.278V373.85H928.522V376.964H937.936V378.278H926.884Z" fill="white"/>
<path d="M952.12 362.474H953.758V378.404H952.12V362.474ZM941.284 369.26C941.284 365.84 942.976 363.698 945.352 363.698C947.71 363.698 949.42 365.84 949.42 369.26C949.42 372.662 947.71 374.84 945.352 374.84C942.976 374.84 941.284 372.662 941.284 369.26ZM942.868 369.26C942.868 371.78 943.894 373.364 945.352 373.364C946.81 373.364 947.836 371.78 947.836 369.26C947.836 366.74 946.81 365.174 945.352 365.174C943.894 365.174 942.868 366.74 942.868 369.26Z" fill="white"/>
<path d="M971.227 362.474H972.901V368.846H975.349V370.214H972.901V378.368H971.227V362.474ZM960.661 374.156C964.621 372.14 966.781 369.242 967.105 365.516H961.435V364.184H968.761C968.761 368.756 966.745 372.824 961.579 375.416L960.661 374.156Z" fill="white"/>
<path d="M978.283 362.816H979.921V366.812H989.101V368.144H978.283V362.816ZM976.375 371.204V369.872H990.721V371.204H976.375ZM978.067 375.416C978.067 373.58 980.119 372.536 983.521 372.536C986.905 372.536 988.975 373.58 988.975 375.416C988.975 377.27 986.905 378.332 983.521 378.332C980.119 378.332 978.067 377.27 978.067 375.416ZM979.723 375.416C979.723 376.46 981.127 377.036 983.521 377.036C985.915 377.036 987.301 376.46 987.301 375.416C987.301 374.372 985.915 373.814 983.521 373.814C981.127 373.814 979.723 374.372 979.723 375.416Z" fill="white"/>
<path d="M1002.8 362.51H1004.46V367.64H1006.74V369.008H1004.46V374.408H1002.8V362.51ZM992.126 365.678V364.364H995.996V362.51H997.634V364.364H1001.5V365.678H992.126ZM992.99 369.476C992.99 367.676 994.556 366.488 996.806 366.488C999.074 366.488 1000.64 367.676 1000.64 369.476C1000.64 371.276 999.074 372.446 996.806 372.446C994.556 372.446 992.99 371.276 992.99 369.476ZM994.502 378.044V373.472H996.122V376.694H1005.14V378.044H994.502ZM994.556 369.476C994.556 370.52 995.474 371.186 996.806 371.186C998.156 371.186 999.056 370.52 999.056 369.476C999.056 368.414 998.156 367.766 996.806 367.766C995.474 367.766 994.556 368.414 994.556 369.476Z" fill="white"/>
<path d="M873.666 396.492H888.03V397.842H881.622V403.386H880.002V397.842H873.666V396.492ZM874.494 393.936C877.41 393.54 879.894 391.74 879.93 389.778H874.998V388.464H886.662V389.778H881.766C881.802 391.74 884.286 393.54 887.202 393.936L886.59 395.268C884.052 394.854 881.82 393.558 880.848 391.74C879.876 393.558 877.644 394.854 875.106 395.268L874.494 393.936Z" fill="white"/>
<path d="M901.332 387.492H902.898V403.368H901.332V387.492ZM889.164 399.03C891.396 397.662 892.53 394.782 892.53 391.92V390.642H889.632V389.292H896.85V390.642H894.132V391.92C894.132 394.656 895.23 397.392 897.426 398.67L896.436 399.876C894.942 398.958 893.898 397.338 893.34 395.412C892.782 397.5 891.72 399.282 890.172 400.254L889.164 399.03ZM895.662 394.494V393.144H898.146V387.852H899.676V402.576H898.146V394.494H895.662Z" fill="white"/>
<path d="M905.131 400.11H911.485V397.266H906.895V392.244H916.147V389.958H906.859V388.626H917.785V393.54H908.515V395.934H918.145V397.266H913.123V400.11H919.513V401.46H905.131V400.11Z" fill="white"/>
<path d="M936.406 387.51H938.044V396.024H936.406V387.51ZM925.336 391.902C925.336 389.742 927.1 388.248 929.512 388.248C931.924 388.248 933.688 389.742 933.688 391.902C933.688 394.08 931.924 395.592 929.512 395.592C927.1 395.592 925.336 394.08 925.336 391.902ZM926.938 391.902C926.938 393.288 928.018 394.206 929.512 394.206C931.006 394.206 932.086 393.288 932.086 391.902C932.086 390.534 931.006 389.598 929.512 389.598C928.018 389.598 926.938 390.534 926.938 391.902ZM927.748 403.17V396.798H929.386V398.598H936.424V396.798H938.044V403.17H927.748ZM929.386 401.856H936.424V399.894H929.386V401.856Z" fill="white"/>
<path d="M941.122 388.644H949.636V389.976H946.216V390.426C946.216 392.442 947.638 394.296 950.014 395.088L949.222 396.348C947.44 395.772 946.144 394.584 945.442 393.054C944.758 394.818 943.372 396.204 941.482 396.852L940.654 395.556C943.102 394.71 944.578 392.658 944.578 390.444V389.976H941.122V388.644ZM942.778 400.38C942.778 398.508 944.776 397.428 948.016 397.428C951.274 397.428 953.272 398.508 953.272 400.38C953.272 402.252 951.274 403.35 948.016 403.35C944.776 403.35 942.778 402.252 942.778 400.38ZM944.38 400.38C944.38 401.46 945.748 402.072 948.016 402.072C950.302 402.072 951.652 401.46 951.652 400.38C951.652 399.318 950.302 398.724 948.016 398.724C945.748 398.724 944.38 399.318 944.38 400.38ZM951.454 397.032V387.51H953.11V391.452H955.396V392.802H953.11V397.032H951.454Z" fill="white"/>
<path d="M956.441 390.138H959.555V387.942H961.175V390.138H964.253V391.47H956.441V390.138ZM956.945 396.096C956.945 393.972 958.367 392.46 960.365 392.46C962.345 392.46 963.785 393.972 963.785 396.096C963.785 398.274 962.345 399.768 960.365 399.768C958.367 399.768 956.945 398.274 956.945 396.096ZM958.403 396.096C958.403 397.464 959.213 398.382 960.365 398.382C961.499 398.382 962.327 397.464 962.327 396.096C962.327 394.746 961.499 393.828 960.365 393.828C959.213 393.828 958.403 394.746 958.403 396.096ZM964.991 402.612V387.852H966.539V394.134H968.375V387.492H969.941V403.368H968.375V395.484H966.539V402.612H964.991Z" fill="white"/>
<path d="M972.209 400.02H975.665V395.826C974.369 395.124 973.577 393.99 973.577 392.568C973.577 390.066 976.025 388.446 979.373 388.446C982.775 388.446 985.187 390.066 985.187 392.568C985.187 393.972 984.431 395.088 983.153 395.808V400.02H986.591V401.37H972.209V400.02ZM975.179 392.568C975.179 394.296 976.925 395.394 979.373 395.394C981.839 395.394 983.585 394.296 983.585 392.568C983.585 390.84 981.839 389.742 979.373 389.742C976.925 389.742 975.179 390.84 975.179 392.568ZM977.285 400.02H981.497V396.438C980.849 396.6 980.129 396.672 979.373 396.672C978.635 396.672 977.933 396.6 977.285 396.438V400.02Z" fill="white"/>
<path d="M935.187 629.076H928.779C924.764 629.076 921.521 626.296 921.134 622.282L920.362 611.474C920.362 605.066 925.613 599.816 932.022 599.816C938.43 599.816 943.682 605.066 943.682 611.474L942.909 622.282C942.368 625.834 939.203 629.076 935.187 629.076Z" fill="white"/>
<path d="M959.666 653.549C959.666 644.748 952.408 637.877 943.991 637.877H920.286C911.484 637.877 904.611 645.134 904.611 653.549V665.978H959.666V653.549Z" fill="white"/>
<path d="M999.587 629.076H993.178C989.162 629.076 985.919 626.296 985.533 622.282L984.762 611.474C984.762 605.066 990.012 599.816 996.421 599.816C1002.83 599.816 1008.08 605.066 1008.08 611.474L1007.31 622.282C1006.77 625.834 1003.6 629.076 999.587 629.076Z" fill="white"/>
<path d="M1024.06 653.549C1024.06 644.748 1016.81 637.877 1008.39 637.877H984.683C975.881 637.877 969.009 645.134 969.009 653.549V665.978H1024.06V653.549Z" fill="white"/>
<path d="M904.842 518.984C899.669 518.984 895.499 523.154 895.499 528.326C895.499 539.057 895.422 549.788 895.499 560.52C895.499 566.001 897.893 574.879 910.942 577.504C912.564 577.813 913.336 576.038 912.255 574.802C911.02 573.49 909.861 571.868 908.935 569.784H966.074C971.248 569.784 975.495 565.615 975.495 560.442V528.326C975.417 523.154 971.248 518.984 965.997 518.984H904.842Z" fill="#F7FF7D"/>
<path d="M1025.22 529.871C1030.47 529.871 1034.72 534.118 1034.72 539.29C1034.72 550.098 1034.8 560.83 1034.72 571.638C1034.72 577.12 1032.33 586.075 1019.2 588.7C1017.58 589.008 1016.73 587.233 1017.81 585.998C1019.04 584.685 1020.2 583.065 1021.21 580.98H963.758C958.507 580.98 954.26 576.734 954.26 571.561V539.29C954.26 534.118 958.507 529.871 963.758 529.871H1025.22Z" fill="#FF90E3"/>
<path d="M888.871 292H891.941V309.773H888.871V301.514H886.893V309.292H883.875V292.428H886.893V298.842H888.871V292ZM873 296.57V293.978H881.846V301.354H876.148V303.866C878.698 303.84 880.571 303.733 882.757 303.305L883.043 305.924C880.363 306.432 878.073 306.512 874.639 306.512H873.052V298.949H878.724V296.57H873ZM876.278 315.519V308.143H879.53V312.873H892.539V315.519H876.278ZM896.078 293.363H906.589V295.982H899.252V302.423C902.947 302.396 905.158 302.263 907.63 301.755L907.916 304.374C905.106 304.962 902.556 305.069 897.899 305.069H896.078V293.363ZM898.81 315.679V306.886H914.316V315.679H898.81ZM901.984 313.087H911.168V309.452H901.984V313.087ZM905.47 300.232V297.586H911.064V292H914.316V305.871H911.064V300.232H905.47ZM932.659 292.027H935.885V299.376H939.034V302.102H935.885V309.933H932.659V292.027ZM917.595 297.158V294.566H922.824V292H926.051V294.566H931.306V297.158H917.595ZM918.74 302.664C918.74 299.911 921.107 298.067 924.464 298.067C927.794 298.067 930.161 299.911 930.161 302.664C930.161 305.416 927.794 307.261 924.464 307.261C921.107 307.261 918.74 305.416 918.74 302.664ZM920.925 315.519V308.57H924.151V312.873H936.77V315.519H920.925ZM921.836 302.664C921.836 304 922.903 304.748 924.464 304.748C925.999 304.748 927.065 304 927.065 302.664C927.065 301.327 925.999 300.579 924.464 300.579C922.903 300.579 921.836 301.327 921.836 302.664ZM946.331 305.283H967.405V307.955H958.403V316H955.177V307.955H946.331V305.283ZM947.371 301.247C952.055 300.659 954.656 298.254 954.994 295.902H948.204V293.283H965.479V295.902H958.741C959.079 298.254 961.681 300.659 966.364 301.247L965.193 303.866C961.161 303.278 958.273 301.461 956.868 298.975C955.463 301.461 952.575 303.278 948.542 303.866L947.371 301.247ZM985.956 292H989V315.947H985.956V292ZM968.576 309.024C971.959 306.833 973.233 302.53 973.233 298.414V297.131H969.409V294.459H979.842V297.131H976.356V298.414C976.356 302.423 977.552 306.486 980.909 308.49L979.035 310.869C976.98 309.612 975.601 307.474 974.821 304.909C974.014 307.715 972.635 310.094 970.502 311.457L968.576 309.024ZM978.177 302.931V300.232H981.247V292.428H984.239V314.851H981.247V302.931H978.177Z" fill="white"/>
<path d="M1042.83 678.17L1036.35 633.319L1072.22 661.313L1053.55 661.968L1053.03 661.987L1052.74 662.435L1042.83 678.17Z" fill="black" stroke="white" stroke-width="2"/>
<path d="M1084 529.58C1084 519.319 1092.32 511 1102.58 511H1257.42C1267.68 511 1276 519.319 1276 529.58V684.419C1276 694.681 1267.68 703 1257.42 703H1102.58C1092.32 703 1084 694.681 1084 684.419V529.58Z" fill="#F7FF7D"/>
<path fill-rule="evenodd" clip-rule="evenodd" d="M1202.48 593.153C1203.49 593.546 1204.26 594.333 1204.57 595.278L1206.19 600H1191.73L1193.35 595.278C1193.66 594.254 1194.36 593.546 1195.21 593.231L1185 583.629L1185.54 583L1196.14 592.995C1196.29 592.995 1196.45 592.995 1196.6 592.995H1201.32C1201.4 592.995 1201.4 592.995 1201.48 592.995L1212.46 583L1213 583.629L1202.48 593.153Z" fill="#1B1B1B"/>
<path fill-rule="evenodd" clip-rule="evenodd" d="M1213.61 582.539C1214.18 583.201 1214.12 584.214 1213.48 584.802L1199.64 597.595C1199.04 598.146 1198.14 598.133 1197.56 597.565L1184.49 584.771C1183.87 584.165 1183.84 583.15 1184.42 582.505C1185 581.86 1185.98 581.828 1186.6 582.435L1198.65 594.225L1211.44 582.404C1212.07 581.816 1213.05 581.876 1213.61 582.539Z" fill="#1B1B1B"/>
<path d="M1142 703H1149.35L1157 686H1146.95L1142 703Z" fill="#1B1B1B"/>
<path d="M1256 703H1248.73L1241 686H1250.9L1256 703Z" fill="#1B1B1B"/>
<path d="M1245.52 599H1152.48C1143.97 599 1137 605.941 1137 614.425V670.574C1137 679.135 1143.97 686 1152.48 686H1245.52C1254.11 686 1261 679.058 1261 670.574V614.425C1261 605.941 1254.03 599 1245.52 599Z" fill="#505050"/>
<path d="M1207.51 609H1158.49C1152.15 609 1147 614.125 1147 620.439V664.561C1147 670.874 1152.15 676 1158.49 676H1207.51C1213.85 676 1219 670.874 1219 664.561V620.439C1219 614.125 1213.85 609 1207.51 609Z" fill="white"/>
<path d="M1240.5 631C1245.74 631 1250 626.512 1250 621C1250 615.488 1245.74 611 1240.5 611C1235.26 611 1231 615.488 1231 621C1231 626.512 1235.19 631 1240.5 631Z" fill="#F7FF7D"/>
<path fill-rule="evenodd" clip-rule="evenodd" d="M1227 646.5C1227 645.666 1227.62 645 1228.39 645H1252.61C1253.38 645 1254 645.666 1254 646.5C1254 647.333 1253.38 648 1252.61 648H1228.39C1227.62 648 1227 647.25 1227 646.5Z" fill="#1B1B1B"/>
<path fill-rule="evenodd" clip-rule="evenodd" d="M1227 659.5C1227 658.666 1227.62 658 1228.39 658H1252.61C1253.38 658 1254 658.666 1254 659.5C1254 660.333 1253.38 661 1252.61 661H1228.39C1227.62 661 1227 660.333 1227 659.5Z" fill="#1B1B1B"/>
<path fill-rule="evenodd" clip-rule="evenodd" d="M1227 672.5C1227 671.666 1227.62 671 1228.39 671H1252.61C1253.38 671 1254 671.666 1254 672.5C1254 673.333 1253.38 674 1252.61 674H1228.39C1227.62 674 1227 673.333 1227 672.5Z" fill="#1B1B1B"/>
<path d="M1116.19 537.051H1119.29V553.771H1116.19V548.334H1111.18C1110.12 549.508 1108.58 550.197 1106.85 550.197C1103.55 550.197 1101 547.721 1101 544.301C1101 540.854 1103.55 538.404 1106.85 538.404C1108.58 538.404 1110.12 539.093 1111.18 540.242H1116.19V537.051ZM1103.9 544.301C1103.9 546.266 1105.16 547.44 1106.85 547.44C1108.51 547.44 1109.77 546.266 1109.77 544.301C1109.77 542.36 1108.51 541.186 1106.85 541.186C1105.16 541.186 1103.9 542.36 1103.9 544.301ZM1104.64 559.489V552.137H1107.74V556.962H1119.78V559.489H1104.64ZM1112.52 542.769C1112.62 543.254 1112.69 543.764 1112.69 544.301C1112.69 544.837 1112.65 545.322 1112.52 545.807H1116.19V542.769H1112.52Z" fill="black"/>
<path d="M1138.51 537.025H1141.41V559.898H1138.51V537.025ZM1122.56 546.955C1122.56 541.799 1124.44 538.659 1127.36 538.659C1129.22 538.659 1130.66 539.91 1131.45 542.105H1134.08V537.408H1136.95V558.851H1134.08V551.754H1131.48C1130.66 553.975 1129.22 555.226 1127.36 555.226C1124.44 555.226 1122.56 552.112 1122.56 546.955ZM1125.33 546.955C1125.33 550.478 1126.07 552.239 1127.36 552.239C1128.68 552.239 1129.42 550.478 1129.42 546.955C1129.42 543.407 1128.68 541.646 1127.36 541.646C1126.07 541.646 1125.33 543.407 1125.33 546.955ZM1132.05 544.658C1132.14 545.373 1132.19 546.138 1132.19 546.955C1132.19 547.747 1132.14 548.487 1132.07 549.176H1134.08V544.658H1132.05Z" fill="black"/>
<path d="M1157.16 543.05L1157.13 546.521L1160.3 545.475L1161.07 547.976L1157.92 548.972L1160.01 551.882L1158.02 553.516L1155.87 550.555L1153.71 553.516L1151.78 551.857L1153.84 548.972L1150.67 547.976L1151.46 545.475L1154.58 546.521L1154.56 543.05H1157.16Z" fill="black"/>
<path d="M1184.51 537H1187.61V559.949H1184.51V537ZM1169.85 546.777C1169.85 541.773 1172.32 538.633 1175.69 538.633C1179.04 538.633 1181.49 541.773 1181.49 546.777C1181.49 551.806 1179.04 554.945 1175.69 554.945C1172.32 554.945 1169.85 551.806 1169.85 546.777ZM1172.82 546.777C1172.82 550.197 1173.98 552.086 1175.69 552.086C1177.38 552.086 1178.54 550.197 1178.54 546.777C1178.54 543.356 1177.38 541.493 1175.69 541.493C1173.98 541.493 1172.82 543.356 1172.82 546.777Z" fill="black"/>
<path d="M1190.91 549.687H1211V552.214H1206.44V560H1203.34V552.214H1198.59V560H1195.51V552.214H1190.91V549.687ZM1191.67 545.322C1196.63 544.607 1199.33 541.62 1199.33 538.838V537.715H1202.58V538.838C1202.58 541.595 1205.28 544.607 1210.23 545.322L1209.02 547.874C1205.2 547.262 1202.38 545.347 1200.97 542.845C1199.53 545.373 1196.7 547.262 1192.86 547.874L1191.67 545.322Z" fill="black"/>
<path d="M1293 320.58C1293 310.319 1301.32 302 1311.58 302H1466.42C1476.68 302 1485 310.319 1485 320.58V475.419C1485 485.681 1476.68 494 1466.42 494H1311.58C1301.32 494 1293 485.681 1293 475.419V320.58Z" fill="#F7FF7D"/>
<path d="M1325.35 328H1328.26V350.525H1325.35V328ZM1309 343.662C1313.46 340.947 1315.41 337.653 1315.83 333.179H1310.21V330.69H1318.84C1318.84 332.827 1318.62 334.838 1318.08 336.698H1320.69V328.503H1323.55V349.519H1320.69V339.187H1317.14C1315.88 341.751 1313.83 343.989 1310.73 345.849L1309 343.662Z" fill="black"/>
<path d="M1346.07 328.025H1349.15V340.771H1346.07V328.025ZM1331.15 334.461C1331.15 331.293 1333.71 329.056 1337.14 329.056C1340.57 329.056 1343.14 331.293 1343.14 334.461C1343.14 337.578 1340.57 339.841 1337.14 339.841C1333.71 339.841 1331.15 337.578 1331.15 334.461ZM1334.13 334.461C1334.13 336.195 1335.42 337.251 1337.14 337.251C1338.87 337.251 1340.15 336.195 1340.15 334.461C1340.15 332.701 1338.87 331.645 1337.14 331.645C1335.42 331.645 1334.13 332.701 1334.13 334.461ZM1334.48 350.299V341.801H1349.15V350.299H1334.48ZM1337.49 347.835H1346.17V344.24H1337.49V347.835Z" fill="black"/>
<path d="M1365.45 333.933L1365.42 337.352L1368.58 336.321L1369.34 338.785L1366.21 339.765L1368.28 342.631L1366.31 344.24L1364.16 341.324L1362.02 344.24L1360.09 342.606L1362.14 339.765L1358.98 338.785L1359.77 336.321L1362.88 337.352L1362.86 333.933H1365.45Z" fill="black"/>
<path d="M1309.3 376.771H1329.3V379.335H1309.3V376.771ZM1310.85 363.899V361.385H1327.62V363.899H1324.59V370.737H1327.57V373.251H1310.95V370.737H1313.88V363.899H1310.85ZM1316.97 370.737H1321.55V363.899H1316.97V370.737Z" fill="black"/>
<path d="M1330.85 376.896H1339.29V373.452H1333.17V365.91H1345.55V363.371H1333.12V360.908H1348.59V368.324H1336.18V370.963H1349.08V373.452H1342.35V376.896H1350.86V379.436H1330.85V376.896Z" fill="black"/>
<path d="M1368.47 359.424H1371.38V381.949H1368.47V359.424ZM1352.12 375.086C1356.58 372.371 1358.53 369.078 1358.95 364.603H1353.32V362.114H1361.96C1361.96 364.251 1361.73 366.262 1361.19 368.123H1363.81V359.927H1366.67V380.944H1363.81V370.611H1360.25C1359 373.176 1356.95 375.413 1353.84 377.274L1352.12 375.086Z" fill="black"/>
<path d="M1389.16 359.399H1392.25V382H1389.16V359.399ZM1374.56 369.028C1374.56 364.1 1377.03 361.008 1380.38 361.008C1383.71 361.008 1386.15 364.1 1386.15 369.028C1386.15 373.98 1383.71 377.072 1380.38 377.072C1377.03 377.072 1374.56 373.98 1374.56 369.028ZM1377.52 369.028C1377.52 372.396 1378.68 374.257 1380.38 374.257C1382.06 374.257 1383.22 372.396 1383.22 369.028C1383.22 365.659 1382.06 363.824 1380.38 363.824C1378.68 363.824 1377.52 365.659 1377.52 369.028Z" fill="black"/>
<path d="M1396.32 361.436H1406.82V367.243H1410.97V359.399H1414V382H1410.97V369.757H1406.82V376.469H1396.32V361.436ZM1399.32 374.03H1403.79V363.874H1399.32V374.03Z" fill="black"/>
<path d="M1474.79 483.06L1463.13 430.635C1461.06 421.358 1453.76 414.436 1444.68 412.669C1444.54 409.503 1441.96 407 1438.78 407H1429.34C1426.31 407 1423.8 409.282 1423.51 412.227H1386.47C1386.1 409.282 1383.67 407 1380.64 407H1371.12C1367.95 407 1365.37 409.503 1365.22 412.669C1356.22 414.436 1348.84 421.431 1346.78 430.635L1335.19 483.06C1334.08 488.14 1337.92 493 1343.16 493H1356.29C1359.61 493 1362.64 490.938 1363.89 487.846L1371.79 467.966C1373.04 464.873 1376.07 462.811 1379.39 462.811H1430.59C1433.91 462.811 1436.94 464.873 1438.19 467.966L1446.09 487.846C1447.34 490.938 1450.37 493 1453.69 493H1466.82C1472.06 492.926 1475.97 488.14 1474.79 483.06Z" fill="#14B5FF"/>
<path d="M1434 447C1440.04 447 1445 442.111 1445 436C1445 429.961 1440.11 425 1434 425C1427.89 425 1423 429.889 1423 436C1423 442.111 1427.96 447 1434 447Z" fill="#EFFE37"/>
<path d="M1391 431.424H1382.65V423H1373.35V431.352H1365V440.648H1373.35V449H1382.65V440.648H1391V431.424Z" fill="#EFFE37"/>
<path d="M1084 320.58C1084 310.319 1092.32 302 1102.58 302H1257.42C1267.68 302 1276 310.319 1276 320.58V475.419C1276 485.681 1267.68 494 1257.42 494H1102.58C1092.32 494 1084 485.681 1084 475.419V320.58Z" fill="#464747"/>
<path d="M1116.02 328.025H1119.06V344.846H1116.02V339.384H1111.07C1110.04 340.564 1108.52 341.256 1106.78 341.256C1103.52 341.256 1101 338.769 1101 335.307C1101 331.872 1103.52 329.41 1106.78 329.41C1108.5 329.41 1110.02 330.102 1111.07 331.256H1116.02V328.025ZM1103.89 335.307C1103.89 337.256 1105.12 338.461 1106.78 338.461C1108.4 338.461 1109.65 337.256 1109.65 335.307C1109.65 333.384 1108.4 332.179 1106.78 332.179C1105.12 332.179 1103.89 333.384 1103.89 335.307ZM1104.63 350.589V343.205H1107.67V348.025H1119.58V350.589H1104.63ZM1112.4 336.846H1116.02V333.82H1112.4C1112.52 334.282 1112.57 334.795 1112.57 335.307C1112.57 335.846 1112.52 336.359 1112.4 336.846Z" fill="white"/>
<path d="M1127.08 329.666C1130 329.666 1131.83 332.82 1131.83 337.974C1131.83 343.154 1130 346.307 1127.08 346.307C1124.19 346.307 1122.32 343.154 1122.32 337.974C1122.32 332.82 1124.19 329.666 1127.08 329.666ZM1125.12 337.974C1125.12 341.513 1125.85 343.282 1127.08 343.282C1128.33 343.282 1129.06 341.513 1129.06 337.974C1129.06 334.436 1128.33 332.666 1127.08 332.666C1125.85 332.666 1125.12 334.436 1125.12 337.974ZM1133.26 349.948V328.384H1136.12V336.82H1138.08V328H1141V351H1138.08V339.384H1136.12V349.948H1133.26Z" fill="white"/>
<path d="M1245.44 459H1183.56C1175.01 459 1168 452.015 1168 443.496V405.504C1168 396.984 1175.01 390 1183.56 390H1245.44C1253.99 390 1261 396.984 1261 405.504V443.419C1261 452.015 1253.99 459 1245.44 459Z" fill="white"/>
<path d="M1260 398.756C1257.46 393.578 1252.13 390 1245.96 390H1184.04C1177.87 390 1172.54 393.578 1170 398.756L1214.96 435L1260 398.756Z" fill="black"/>
<path d="M1244.57 368H1184.43C1182.53 368 1181 369.549 1181 371.485V396.966V407.525L1214.5 436L1248 407.912V396.966V371.485C1248 369.549 1246.47 368 1244.57 368Z" fill="#7A48DE"/>
<path d="M1206.44 494H1144.56C1136.01 494 1129 486.914 1129 478.271V439.728C1129 431.085 1136.01 424 1144.56 424H1206.44C1214.99 424 1222 431.085 1222 439.728V478.193C1222 486.914 1214.99 494 1206.44 494Z" fill="white"/>
<path d="M1220 432.951C1217.46 427.658 1212.13 424 1205.96 424H1144.04C1137.87 424 1132.54 427.658 1130 432.951L1174.96 470L1220 432.951Z" fill="#F7FF7D"/>
<path d="M1164.13 463.587C1162.78 462.217 1162 460.326 1162 458.369C1162 456.413 1162.78 454.587 1164.13 453.152C1165.49 451.782 1167.36 451 1169.3 451C1171.24 451 1173.05 451.782 1174.47 453.152L1175.5 454.195L1176.53 453.152C1177.89 451.782 1179.7 451 1181.7 451C1181.96 451 1182.22 451 1182.54 451.065C1184.22 451.261 1185.71 451.978 1186.87 453.152C1188.22 454.521 1189 456.413 1189 458.369C1189 460.326 1188.22 462.152 1186.87 463.587L1175.56 475L1164.13 463.587Z" fill="#7A48DE"/>
<path d="M1293 529.58C1293 519.319 1301.32 511 1311.58 511H1466.42C1476.68 511 1485 519.319 1485 529.58V684.419C1485 694.681 1476.68 703 1466.42 703H1311.58C1301.32 703 1293 694.681 1293 684.419V529.58Z" fill="#464747"/>
<path d="M1317.31 538.945H1320.58V540.563C1320.58 543.898 1323.46 547.357 1328.39 548.203L1327.05 550.767C1323.23 549.995 1320.38 547.83 1318.94 544.968C1317.48 547.805 1314.63 549.995 1310.81 550.767L1309.5 548.203C1314.38 547.357 1317.31 543.823 1317.31 540.563V538.945ZM1309 557.188V554.674H1329.11V557.188H1309Z" fill="white"/>
<path d="M1330.68 554.923H1339.13V550.841H1332.34V548.402H1335.29V541.982H1332.24V539.518H1349.1V541.982H1346.05V548.402H1349.05V550.841H1342.21V554.923H1350.79V557.436H1330.68V554.923ZM1338.39 548.402H1343V541.982H1338.39V548.402Z" fill="white"/>
<path d="M1352.35 554.823H1372.46V557.362H1352.35V554.823ZM1353.05 549.373C1358.05 548.676 1360.61 545.939 1360.81 543.201H1354.09V540.737H1360.86V538H1363.93V540.737H1370.7V543.201H1363.98C1364.18 545.939 1366.73 548.676 1371.72 549.373L1370.58 551.862C1366.66 551.264 1363.86 549.473 1362.39 547.034C1360.93 549.473 1358.1 551.264 1354.19 551.862L1353.05 549.373Z" fill="white"/>
<path d="M1387.13 543.525L1387.11 546.909L1390.28 545.889L1391.05 548.328L1387.9 549.298L1389.98 552.136L1388 553.728L1385.84 550.841L1383.68 553.728L1381.75 552.111L1383.81 549.298L1380.63 548.328L1381.43 545.889L1384.55 546.909L1384.53 543.525H1387.13Z" fill="white"/>
<path d="M1399.24 548.552H1419.35V550.991H1410.99V554.898H1407.89V550.991H1399.24V548.552ZM1401.3 542.703C1401.3 539.891 1404.49 538.074 1409.26 538.074C1414.04 538.074 1417.24 539.891 1417.24 542.703C1417.24 545.516 1414.04 547.307 1409.26 547.307C1404.49 547.307 1401.3 545.516 1401.3 542.703ZM1401.59 559.552V552.907H1404.69V557.088H1417.14V559.552H1401.59ZM1404.59 542.703C1404.59 544.097 1406.4 544.869 1409.26 544.869C1412.13 544.869 1413.94 544.097 1413.94 542.703C1413.94 541.285 1412.13 540.538 1409.26 540.538C1406.4 540.538 1404.59 541.285 1404.59 542.703Z" fill="white"/>
<path d="M1420.94 548.228H1429.42V546.312H1423.37V538.647H1438.59V541.086H1426.39V543.848H1438.72V546.312H1432.49V548.228H1441V550.667H1420.94V548.228ZM1423.19 555.918C1423.19 553.305 1426.1 551.812 1430.88 551.812C1435.69 551.812 1438.59 553.305 1438.59 555.918C1438.59 558.531 1435.69 560 1430.88 560C1426.1 560 1423.19 558.531 1423.19 555.918ZM1426.29 555.918C1426.29 557.113 1427.88 557.66 1430.88 557.66C1433.93 557.66 1435.49 557.113 1435.49 555.918C1435.49 554.724 1433.93 554.151 1430.88 554.151C1427.88 554.151 1426.29 554.724 1426.29 555.918Z" fill="white"/>
<path d="M1462.34 632.893C1470.38 630.731 1476 623.474 1476 615.213V602.783C1476 595.989 1472.18 589.812 1466.09 586.647C1458.05 582.4 1446.03 578 1431.04 578C1415.97 578 1403.95 582.4 1395.91 586.647C1389.82 589.812 1386 595.989 1386 602.783V615.213C1386 623.474 1391.62 630.731 1399.66 632.893L1427.76 640.537C1429.87 641.154 1432.13 641.154 1434.32 640.537L1462.34 632.893Z" fill="#7A48DE"/>
<path d="M1422.69 633H1413L1413.7 642H1423L1422.69 633Z" fill="#B484F1"/>
<path d="M1448.3 642L1449 633H1439.31L1439 642H1448.3Z" fill="#B484F1"/>
<path d="M1422.63 644H1414L1414.89 657H1423L1422.63 644Z" fill="#B484F1"/>
<path d="M1436.7 642L1437 633H1425L1425.3 642H1436.7Z" fill="#B484F1"/>
<path d="M1415 659L1415.8 669H1424L1423.68 659H1415Z" fill="#B484F1"/>
<path d="M1425.4 657H1436.6L1437 644H1425L1425.4 657Z" fill="#B484F1"/>
<path d="M1426 659L1426.29 669H1435.71L1436 659H1426Z" fill="#B484F1"/>
<path d="M1439 656.307H1447.04V657L1448 644H1439.37L1439 656.307Z" fill="#B484F1"/>
<path d="M1438 669H1446.28L1447 659H1438.32L1438 669Z" fill="#B484F1"/>
<path d="M1439.08 641.96L1439.39 633H1437.12L1436.82 641.96H1425.26L1424.96 633H1422.69L1422.99 641.96H1414L1414.15 644.319H1422.99L1423.37 656.895H1415.06L1415.21 659.253H1423.37L1423.67 669H1425.94L1425.64 659.253H1436.14L1435.84 669H1438.1L1438.4 659.253H1446.72L1446.87 657.602V656.895H1438.63L1439.01 644.319H1447.85L1448 641.96H1439.08ZM1436.36 656.895H1425.71L1425.33 644.319H1436.74L1436.36 656.895Z" fill="#7A48DE"/>
<path d="M1448.75 625H1413.25C1410.93 625 1409 626.818 1409 629C1409 631.182 1410.93 633 1413.25 633H1448.75C1451.07 633 1453 631.182 1453 629C1453 626.818 1451.07 625 1448.75 625Z" fill="#5523BE"/>
<path d="M1442.96 595H1419.04C1415.71 595 1413 597.702 1413 601.021V610.979C1413 614.298 1415.71 617 1419.04 617H1442.96C1446.29 617 1449 614.298 1449 610.979V601.021C1449 597.702 1446.29 595 1442.96 595Z" fill="#5523BE"/>
<path d="M1403 675C1403 690.464 1390.46 703 1375 703C1359.54 703 1347 690.464 1347 675C1347 659.536 1359.54 647 1375 647C1390.46 647 1403 659.536 1403 675Z" fill="#F7FF7D"/>
<path d="M1368 676H1347C1347.32 684.509 1351.58 692.082 1357.89 697C1364.13 691.301 1367.68 683.885 1368 676Z" fill="#F7FF7D"/>
<path d="M1370.13 674H1379.95C1380.25 665.494 1383.76 657.612 1390 651.526C1385.66 648.638 1380.56 647 1375 647C1369.44 647 1364.34 648.638 1360 651.526C1366.32 657.612 1369.82 665.494 1370.13 674Z" fill="#F7FF7D"/>
<path d="M1383 674H1403C1402.7 665.49 1398.64 657.918 1392.62 653C1386.68 658.621 1383.3 666.037 1383 674Z" fill="#F7FF7D"/>
<path d="M1357.89 653C1351.5 657.918 1347.32 665.49 1347 674H1368C1367.61 666.115 1364.05 658.699 1357.89 653Z" fill="#F7FF7D"/>
<path d="M1380.54 676H1370.39C1370.07 684.506 1366.45 692.387 1360 698.474C1364.48 701.361 1369.76 703 1375.5 703C1381.24 703 1386.52 701.361 1391 698.474C1384.47 692.309 1380.85 684.428 1380.54 676Z" fill="#F7FF7D"/>
<path d="M1392.58 697C1398.7 692.082 1402.7 684.509 1403 676H1383C1383.3 683.885 1386.7 691.301 1392.58 697Z" fill="#F7FF7D"/>
<path d="M1403 673.857H1382.4C1382.71 666.089 1386.19 658.854 1392.23 653.371C1391.61 652.914 1390.92 652.381 1390.22 652C1383.87 657.94 1380.31 665.632 1380 673.934H1370C1369.69 665.632 1366.13 657.94 1359.78 652C1359.08 652.457 1358.46 652.914 1357.77 653.371C1363.81 658.93 1367.29 666.089 1367.6 673.857H1347C1347 674.238 1347 674.619 1347 675C1347 675.381 1347 675.761 1347 676.142H1367.6C1367.29 683.91 1363.81 691.145 1357.77 696.629C1358.39 697.086 1359.08 697.619 1359.78 698C1366.13 692.059 1369.69 684.367 1370 676.066H1380C1380.31 684.367 1383.87 692.059 1390.22 698C1390.92 697.543 1391.54 697.086 1392.23 696.629C1386.19 691.069 1382.71 683.91 1382.4 676.142H1403C1403 675.761 1403 675.381 1403 675C1403 674.543 1403 674.162 1403 673.857Z" fill="#D7E33B"/>
<rect x="950" y="918" width="36" height="36" rx="12" fill="#D7E33B"/>
<path d="M969.936 927.672V945H967.128V930.768L964.776 931.56L963.864 928.848L967.128 927.672H969.936Z" fill="black"/>
<path d="M1006.06 923.968H1025.97V927.136H1010.1V930.048H1025.3V933.12H1010.1V936.224H1026.19V939.392H1017.97V944.256H1028.98V947.456H1003.02V944.256H1014V939.392H1006.06V923.968ZM1030.99 937.92H1041.97V935.648H1034.22V927.712H1049.84V925.664H1034.16V922.656H1053.74V930.56H1038.1V932.64H1054.32V935.648H1045.94V937.92H1056.94V941.088H1030.99V937.92ZM1034.26 950.816V942.56H1038.19V947.68H1054.42V950.816H1034.26ZM1066.34 937.888H1092.26V941.088H1081.18V950.72H1077.22V941.088H1066.34V937.888ZM1067.62 933.056C1073.38 932.352 1076.58 929.472 1076.99 926.656H1068.64V923.52H1089.89V926.656H1081.6C1082.02 929.472 1085.22 932.352 1090.98 933.056L1089.54 936.192C1084.58 935.488 1081.02 933.312 1079.3 930.336C1077.57 933.312 1074.02 935.488 1069.06 936.192L1067.62 933.056ZM1115.07 921.984H1118.82V950.656H1115.07V921.984ZM1093.7 942.368C1097.86 939.744 1099.43 934.592 1099.43 929.664V928.128H1094.72V924.928H1107.55V928.128H1103.27V929.664C1103.27 934.464 1104.74 939.328 1108.87 941.728L1106.56 944.576C1104.03 943.072 1102.34 940.512 1101.38 937.44C1100.39 940.8 1098.69 943.648 1096.07 945.28L1093.7 942.368ZM1105.51 935.072V931.84H1109.28V922.496H1112.96V949.344H1109.28V935.072H1105.51ZM1122.27 934.912H1148.23V937.792H1122.27V934.912ZM1125.19 942.016V939.328H1145.12V946.048H1129.15V947.744H1145.92V950.432H1125.22V943.552H1141.22V942.016H1125.19ZM1125.44 925.216V922.528H1145.03V929.216H1129.38V930.816H1145.57V933.504H1125.51V926.72H1141.12V925.216H1125.44ZM1172.21 928.16H1177.55V922.016H1181.52V943.2H1177.55V931.36H1172.21V928.16ZM1157.39 936.544C1162.1 934.944 1164.21 931.008 1164.21 926.88V923.744H1168.21V926.912C1168.21 930.656 1170.23 934.336 1174.67 935.904L1172.56 938.944C1169.55 937.824 1167.47 935.712 1166.29 933.056C1165.04 936.064 1162.8 938.432 1159.51 939.648L1157.39 936.544ZM1162.58 950.144V941.024H1166.58V946.976H1182.16V950.144H1162.58ZM1186.55 923.936H1197.78V927.072H1190.35V929.568H1197.52V932.544H1190.35V935.168C1193.52 935.136 1195.83 934.976 1198.48 934.528L1198.87 937.664C1195.6 938.272 1192.82 938.336 1188.53 938.336H1186.55V923.936ZM1190.29 943.904V940.736H1209.94V950.688H1206V943.904H1190.29ZM1200.05 939.296V922.528H1203.73V929.056H1206.19V921.984H1209.94V939.488H1206.19V932.256H1203.73V939.296H1200.05ZM1232.08 921.984H1236.05V928.16H1239.92V931.392H1236.05V937.472H1232.08V921.984ZM1213.56 927.136V924.16H1219.99V921.76H1223.96V924.16H1230.42V927.136H1213.56ZM1214.96 932.576C1214.96 929.696 1217.75 927.872 1222 927.872C1226.23 927.872 1229.01 929.696 1229.01 932.576C1229.01 935.456 1226.23 937.248 1222 937.248C1217.75 937.248 1214.96 935.456 1214.96 932.576ZM1217.2 941.536V938.656H1236.05V945.856H1221.17V947.52H1236.92V950.464H1217.27V943.136H1232.15V941.536H1217.2ZM1218.77 932.576C1218.77 933.792 1219.99 934.432 1222 934.432C1223.99 934.432 1225.2 933.792 1225.2 932.576C1225.2 931.296 1223.99 930.688 1222 930.688C1219.99 930.688 1218.77 931.296 1218.77 932.576ZM1259.78 922.848H1263.97V924.256C1263.97 927.648 1267.43 931.392 1273.86 932.256L1272.32 935.424C1267.36 934.656 1263.72 932.32 1261.89 929.216C1260.04 932.352 1256.39 934.656 1251.43 935.424L1249.86 932.256C1256.32 931.392 1259.78 927.68 1259.78 924.256V922.848ZM1248.9 940.864V937.632H1274.82V940.864H1263.75V950.688H1259.78V940.864H1248.9ZM1290.74 939.456H1294.58V940.448C1294.58 942.752 1295.54 945.152 1297.84 946.752C1300.21 945.056 1301.2 942.56 1301.2 940.448V939.456H1305.11V940.448C1305.11 943.424 1306.74 946.208 1310.48 947.36L1308.56 950.272C1305.84 949.344 1304.08 947.584 1303.09 945.376C1302.16 947.584 1300.5 949.504 1297.91 950.56C1295.28 949.568 1293.62 947.712 1292.69 945.472C1291.67 947.616 1289.91 949.344 1287.31 950.272L1285.36 947.36C1289.11 946.08 1290.74 943.232 1290.74 940.448V939.456ZM1284.66 930.368C1284.66 926.336 1287.99 923.488 1292.43 923.488C1296.88 923.488 1300.21 926.336 1300.21 930.368C1300.21 934.336 1296.88 937.184 1292.43 937.184C1287.99 937.184 1284.66 934.336 1284.66 930.368ZM1288.53 930.368C1288.53 932.576 1290.19 933.92 1292.43 933.92C1294.67 933.92 1296.34 932.576 1296.34 930.368C1296.34 928.128 1294.67 926.784 1292.43 926.784C1290.19 926.784 1288.53 928.128 1288.53 930.368ZM1304.02 938.24V922.016H1308.05V938.24H1304.02ZM1319.99 924C1323.83 924 1326.74 927.168 1327.28 932.384H1332.24V921.952H1336.18V950.72H1332.24V935.552H1327.32C1326.93 941.056 1323.96 944.448 1319.99 944.448C1315.73 944.448 1312.63 940.512 1312.63 934.208C1312.63 927.936 1315.73 924 1319.99 924ZM1316.4 934.208C1316.4 938.496 1317.84 940.864 1319.99 940.864C1322.16 940.864 1323.6 938.496 1323.6 934.208C1323.6 929.92 1322.16 927.584 1319.99 927.584C1317.84 927.584 1316.4 929.92 1316.4 934.208ZM1340.18 944.064H1345.94V936.992C1343.76 935.648 1342.42 933.6 1342.42 931.072C1342.42 926.432 1346.96 923.424 1353.11 923.424C1359.28 923.424 1363.8 926.432 1363.8 931.072C1363.8 933.568 1362.48 935.616 1360.34 936.96V944.064H1366.13V947.296H1340.18V944.064ZM1346.36 931.072C1346.36 933.952 1349.08 935.648 1353.11 935.648C1357.17 935.648 1359.89 933.952 1359.89 931.072C1359.89 928.192 1357.17 926.496 1353.11 926.496C1349.08 926.496 1346.36 928.192 1346.36 931.072ZM1349.91 944.064H1356.37V938.432C1355.35 938.656 1354.26 938.752 1353.11 938.752C1351.99 938.752 1350.9 938.656 1349.91 938.464V944.064Z" fill="white"/>
<path d="M957.128 986.17C960.032 986.17 962.1 987.798 962.1 990.196C962.1 992.55 960.032 994.2 957.128 994.2C954.246 994.2 952.156 992.55 952.156 990.196C952.156 987.798 954.246 986.17 957.128 986.17ZM950.792 995.718C954.334 995.718 959.218 995.696 963.464 995.036L963.596 996.532C961.836 996.862 960.01 997.06 958.228 997.192V1004.08H956.204V997.302C954.334 997.39 952.574 997.412 951.034 997.412L950.792 995.718ZM954.07 990.196C954.07 991.604 955.346 992.55 957.128 992.55C958.91 992.55 960.186 991.604 960.186 990.196C960.186 988.744 958.91 987.798 957.128 987.798C955.346 987.798 954.07 988.744 954.07 990.196ZM964.784 1004.69V985.268H966.764V1004.69H964.784ZM976.313 986.654C979.327 986.654 981.527 988.568 981.527 991.274C981.527 994.002 979.327 995.894 976.313 995.894C973.255 995.894 971.055 994.002 971.055 991.274C971.055 988.568 973.255 986.654 976.313 986.654ZM970.131 998.864C973.629 998.864 978.513 998.842 982.693 998.204L982.847 999.678C978.535 1000.51 973.827 1000.54 970.373 1000.54L970.131 998.864ZM973.013 991.274C973.013 992.99 974.421 994.156 976.313 994.156C978.161 994.156 979.569 992.99 979.569 991.274C979.569 989.536 978.161 988.392 976.313 988.392C974.421 988.392 973.013 989.536 973.013 991.274ZM983.903 1004.72V985.246H985.927V1004.72H983.903ZM1109.78 985.246H1111.79V1004.72H1109.78V994.024H1105.52V999.898H1096.5V986.808H1098.5V991.758H1103.54V986.808H1105.52V992.396H1109.78V985.246ZM1098.5 998.248H1103.54V993.342H1098.5V998.248ZM1114.98 995.96H1132.49V997.588H1114.98V995.96ZM1117.2 1004.3V998.886H1119.2V1002.65H1130.68V1004.3H1117.2ZM1117.26 994.31V985.972H1130.38V987.534H1119.27V989.36H1129.89V990.878H1119.27V992.77H1130.51V994.31H1117.26ZM1142.96 985.62C1147.27 985.62 1149.85 986.786 1149.85 988.942C1149.85 991.12 1147.27 992.308 1142.96 992.308C1138.67 992.308 1136.1 991.12 1136.1 988.942C1136.1 986.786 1138.67 985.62 1142.96 985.62ZM1134.2 995.124V993.518H1151.74V995.124H1134.2ZM1136.29 998.16V996.642H1149.52V1001.15H1138.32V1002.93H1150.09V1004.5H1136.36V999.722H1147.54V998.16H1136.29ZM1138.16 988.942C1138.16 990.152 1139.9 990.79 1142.96 990.79C1146.04 990.79 1147.78 990.152 1147.78 988.942C1147.78 987.754 1146.04 987.094 1142.96 987.094C1139.9 987.094 1138.16 987.754 1138.16 988.942ZM1160.84 985.554H1162.79V989.734H1174.04V991.362H1160.84V985.554ZM1158.5 994.508V992.902H1176.08V994.508H1168.25V996.422H1173.88V1001.06H1162.68V1002.91H1174.52V1004.5H1160.68V999.612H1171.88V997.984H1160.64V996.422H1166.27V994.508H1158.5ZM1191.75 985.246H1193.73V1004.72H1191.75V994.244H1188.2V992.616H1191.75V985.246ZM1178.39 988.678V987.05H1187.06V993.958H1180.42V998.424C1183.54 998.424 1185.87 998.292 1188.6 997.83L1188.78 999.458C1185.89 999.986 1183.36 1000.1 1179.95 1000.1H1178.41V992.352H1185.1V988.678H1178.39ZM1202.03 996.268H1219.59V997.918H1211.75V1004.69H1209.77V997.918H1202.03V996.268ZM1203.04 993.144C1206.61 992.66 1209.64 990.46 1209.69 988.062H1203.66V986.456H1217.91V988.062H1211.93C1211.97 990.46 1215.01 992.66 1218.57 993.144L1217.83 994.772C1214.72 994.266 1212 992.682 1210.81 990.46C1209.62 992.682 1206.89 994.266 1203.79 994.772L1203.04 993.144ZM1235.85 985.268H1237.76V1004.67H1235.85V985.268ZM1220.97 999.37C1223.7 997.698 1225.09 994.178 1225.09 990.68V989.118H1221.55V987.468H1230.37V989.118H1227.05V990.68C1227.05 994.024 1228.39 997.368 1231.07 998.93L1229.86 1000.4C1228.04 999.282 1226.76 997.302 1226.08 994.948C1225.4 997.5 1224.1 999.678 1222.21 1000.87L1220.97 999.37ZM1228.92 993.826V992.176H1231.95V985.708H1233.82V1003.7H1231.95V993.826H1228.92ZM1255.5 989.734H1259.57V985.29H1261.57V999.766H1259.57V991.406H1255.5V989.734ZM1245.54 995.498C1248.48 994.398 1250.31 991.692 1250.31 988.766V986.434H1252.31V988.81C1252.31 991.494 1254.09 994.024 1256.93 995.058L1255.88 996.62C1253.76 995.784 1252.18 994.178 1251.34 992.154C1250.53 994.42 1248.86 996.202 1246.59 997.082L1245.54 995.498ZM1249.01 1004.28V998.182H1251.01V1002.63H1262.04V1004.28H1249.01ZM1265.58 986.654H1273.08V988.282H1267.51V990.526H1272.9V992.066H1267.51V994.464C1270.11 994.442 1271.78 994.376 1273.78 993.98L1273.98 995.608C1271.76 996.026 1269.89 996.114 1266.85 996.114H1265.58V986.654ZM1268.09 999.678V998.028H1281.18V1004.69H1279.17V999.678H1268.09ZM1275.02 996.95V985.642H1276.91V990.262H1279.26V985.268H1281.18V997.06H1279.26V991.912H1276.91V996.95H1275.02ZM1292.77 985.62C1297.08 985.62 1299.66 986.786 1299.66 988.942C1299.66 991.12 1297.08 992.308 1292.77 992.308C1288.48 992.308 1285.91 991.12 1285.91 988.942C1285.91 986.786 1288.48 985.62 1292.77 985.62ZM1284.02 995.124V993.518H1301.55V995.124H1284.02ZM1286.11 998.16V996.642H1299.33V1001.15H1288.13V1002.93H1299.9V1004.5H1286.17V999.722H1297.35V998.16H1286.11ZM1287.98 988.942C1287.98 990.152 1289.71 990.79 1292.77 990.79C1295.85 990.79 1297.59 990.152 1297.59 988.942C1297.59 987.754 1295.85 987.094 1292.77 987.094C1289.71 987.094 1287.98 987.754 1287.98 988.942ZM1308.27 988.502H1312.08V985.818H1314.06V988.502H1317.82V990.13H1308.27V988.502ZM1308.89 995.784C1308.89 993.188 1310.62 991.34 1313.07 991.34C1315.49 991.34 1317.25 993.188 1317.25 995.784C1317.25 998.446 1315.49 1000.27 1313.07 1000.27C1310.62 1000.27 1308.89 998.446 1308.89 995.784ZM1310.67 995.784C1310.67 997.456 1311.66 998.578 1313.07 998.578C1314.45 998.578 1315.46 997.456 1315.46 995.784C1315.46 994.134 1314.45 993.012 1313.07 993.012C1311.66 993.012 1310.67 994.134 1310.67 995.784ZM1318.72 1003.75V985.708H1320.61V993.386H1322.86V985.268H1324.77V1004.67H1322.86V995.036H1320.61V1003.75H1318.72ZM1327.54 996.268H1345.1V997.918H1337.27V1004.69H1335.29V997.918H1327.54V996.268ZM1328.55 993.144C1332.12 992.66 1335.15 990.46 1335.2 988.062H1329.17V986.456H1343.43V988.062H1337.44C1337.49 990.46 1340.52 992.66 1344.09 993.144L1343.34 994.772C1340.24 994.266 1337.51 992.682 1336.32 990.46C1335.13 992.682 1332.4 994.266 1329.3 994.772L1328.55 993.144ZM1354.41 992.132H1357.42V985.686H1359.29V1003.73H1357.42V993.782H1354.41V992.132ZM1346.51 999.084C1349.21 997.456 1350.67 993.98 1350.67 990.658V987.094H1352.6V990.592C1352.6 993.716 1353.92 996.994 1356.5 998.6L1355.35 1000.16C1353.57 999.062 1352.34 997.104 1351.66 994.838C1350.95 997.302 1349.61 999.414 1347.74 1000.58L1346.51 999.084ZM1361.36 1004.67V985.268H1363.29V1004.67H1361.36ZM1366 1000.58H1370.22V995.454C1368.64 994.596 1367.67 993.21 1367.67 991.472C1367.67 988.414 1370.66 986.434 1374.76 986.434C1378.91 986.434 1381.86 988.414 1381.86 991.472C1381.86 993.188 1380.94 994.552 1379.38 995.432V1000.58H1383.58V1002.23H1366V1000.58ZM1369.63 991.472C1369.63 993.584 1371.76 994.926 1374.76 994.926C1377.77 994.926 1379.9 993.584 1379.9 991.472C1379.9 989.36 1377.77 988.018 1374.76 988.018C1371.76 988.018 1369.63 989.36 1369.63 991.472ZM1372.2 1000.58H1377.35V996.202C1376.56 996.4 1375.68 996.488 1374.76 996.488C1373.85 996.488 1373 996.4 1372.2 996.202V1000.58ZM1386.92 1000.95C1387.71 1000.95 1388.13 1001.48 1388.13 1002.16C1388.13 1002.87 1387.71 1003.4 1386.92 1003.4C1386.13 1003.4 1385.69 1002.87 1385.69 1002.16C1385.69 1001.48 1386.13 1000.95 1386.92 1000.95ZM956.006 1016.74C958.624 1016.74 960.56 1018.96 960.846 1022.59H964.85V1015.25H966.852V1034.72H964.85V1024.2H960.868C960.67 1027.98 958.69 1030.36 956.006 1030.36C953.168 1030.36 951.144 1027.7 951.144 1023.54C951.144 1019.36 953.168 1016.74 956.006 1016.74ZM953.036 1023.54C953.036 1026.62 954.246 1028.56 956.006 1028.56C957.788 1028.56 958.976 1026.62 958.976 1023.54C958.976 1020.46 957.788 1018.55 956.006 1018.55C954.246 1018.55 953.036 1020.46 953.036 1023.54ZM973.189 1028.2H975.213V1032.63H986.741V1034.28H973.189V1028.2ZM970.505 1026.36V1016.85H975.433V1018.48H972.485V1024.71C973.453 1024.68 974.509 1024.57 975.653 1024.33L975.807 1025.98C974.113 1026.33 972.749 1026.36 971.385 1026.36H970.505ZM976.467 1026.36V1016.85H981.835V1018.48H978.425V1024.73C980.031 1024.71 981.175 1024.6 982.495 1024.31L982.693 1025.94C981.021 1026.31 979.679 1026.36 977.435 1026.36H976.467ZM980.977 1022.18V1020.55H984.277V1015.29H986.257V1029.39H984.277V1022.18H980.977ZM994.341 1026.27H1011.9V1027.92H1004.07V1034.69H1002.09V1027.92H994.341V1026.27ZM995.353 1023.14C998.917 1022.66 1001.95 1020.46 1002 1018.06H995.969V1016.46H1010.23V1018.06H1004.24C1004.29 1020.46 1007.32 1022.66 1010.89 1023.14L1010.14 1024.77C1007.04 1024.27 1004.31 1022.68 1003.12 1020.46C1001.93 1022.68 999.203 1024.27 996.101 1024.77L995.353 1023.14ZM1028.16 1015.27H1030.07V1034.67H1028.16V1015.27ZM1013.28 1029.37C1016.01 1027.7 1017.4 1024.18 1017.4 1020.68V1019.12H1013.86V1017.47H1022.68V1019.12H1019.36V1020.68C1019.36 1024.02 1020.7 1027.37 1023.38 1028.93L1022.17 1030.4C1020.35 1029.28 1019.07 1027.3 1018.39 1024.95C1017.71 1027.5 1016.41 1029.68 1014.52 1030.87L1013.28 1029.37ZM1021.23 1023.83V1022.18H1024.26V1015.71H1026.13V1033.7H1024.26V1023.83H1021.23ZM1032.8 1024.24H1050.38V1025.74H1032.8V1024.24ZM1034.87 1028.58V1027.15H1048.2V1031.42H1036.89V1033.02H1048.79V1034.47H1034.91V1030.05H1046.24V1028.58H1034.87ZM1035.02 1017.23V1015.8H1048.13V1019.98H1037.02V1021.47H1048.51V1022.92H1035.06V1018.63H1046.15V1017.23H1035.02ZM1067.04 1019.73H1071.11V1015.29H1073.11V1029.77H1071.11V1021.41H1067.04V1019.73ZM1057.08 1025.5C1060.02 1024.4 1061.85 1021.69 1061.85 1018.77V1016.43H1063.85V1018.81C1063.85 1021.49 1065.63 1024.02 1068.47 1025.06L1067.42 1026.62C1065.3 1025.78 1063.72 1024.18 1062.88 1022.15C1062.07 1024.42 1060.4 1026.2 1058.13 1027.08L1057.08 1025.5ZM1060.55 1034.28V1028.18H1062.55V1032.63H1073.58V1034.28H1060.55ZM1077.12 1016.65H1084.62V1018.28H1079.05V1020.53H1084.44V1022.07H1079.05V1024.46C1081.65 1024.44 1083.32 1024.38 1085.32 1023.98L1085.52 1025.61C1083.3 1026.03 1081.43 1026.11 1078.39 1026.11H1077.12V1016.65ZM1079.63 1029.68V1028.03H1092.72V1034.69H1090.71V1029.68H1079.63ZM1086.56 1026.95V1015.64H1088.45V1020.26H1090.8V1015.27H1092.72V1027.06H1090.8V1021.91H1088.45V1026.95H1086.56ZM1108.64 1015.22H1110.67V1019.78H1113.48V1021.43H1110.67V1025.87H1108.64V1015.22ZM1095.6 1018.5V1016.94H1100.33V1015.07H1102.33V1016.94H1107.06V1018.5H1095.6ZM1096.65 1022.46C1096.65 1020.48 1098.5 1019.27 1101.32 1019.27C1104.13 1019.27 1106 1020.48 1106 1022.46C1106 1024.4 1104.13 1025.63 1101.32 1025.63C1098.5 1025.63 1096.65 1024.4 1096.65 1022.46ZM1098.24 1028.31V1026.82H1110.67V1031.28H1100.26V1032.96H1111.33V1034.5H1098.28V1029.85H1108.69V1028.31H1098.24ZM1098.57 1022.46C1098.57 1023.52 1099.65 1024.18 1101.32 1024.18C1102.99 1024.18 1104.07 1023.52 1104.07 1022.46C1104.07 1021.36 1102.99 1020.72 1101.32 1020.72C1099.65 1020.72 1098.57 1021.36 1098.57 1022.46ZM1115.38 1017.23H1126.24V1018.9H1121.8V1021.05C1121.8 1024.31 1123.98 1027.63 1126.9 1028.91L1125.78 1030.49C1123.54 1029.48 1121.71 1027.32 1120.81 1024.73C1119.93 1027.5 1118.13 1029.88 1115.88 1030.98L1114.74 1029.39C1117.62 1028.01 1119.8 1024.38 1119.8 1021.05V1018.9H1115.38V1017.23ZM1128.66 1034.69V1015.29H1130.67V1034.69H1128.66ZM1139.08 1030.58H1146.85V1026.07H1141.08V1016.83H1154.59V1026.07H1148.85V1030.58H1156.66V1032.23H1139.08V1030.58ZM1143.06 1024.46H1152.63V1018.44H1143.06V1024.46ZM1158.31 1030.62H1175.89V1032.3H1158.31V1030.62ZM1160.42 1018.35V1016.7H1173.78V1022.73H1162.45V1025.63H1174.22V1027.28H1160.47V1021.12H1171.77V1018.35H1160.42ZM1186.07 1016.68C1186.07 1018.13 1185.83 1019.47 1185.35 1020.68H1188.16V1015.69H1190.03V1026.16H1188.16V1022.31H1184.51C1183.28 1024.22 1181.34 1025.74 1178.7 1026.88L1177.69 1025.39C1181.52 1023.85 1183.61 1021.47 1183.98 1018.33H1178.55V1016.68H1186.07ZM1178.62 1033.13C1181.08 1032.23 1182.47 1030.16 1182.47 1028.27V1027.1H1184.4V1028.27C1184.4 1029.99 1185.19 1031.75 1186.93 1032.8C1188.71 1031.64 1189.57 1029.74 1189.57 1028.27V1027.1H1191.53V1028.27C1191.53 1030.32 1192.87 1032.32 1195.36 1033.13L1194.39 1034.61C1192.5 1033.9 1191.2 1032.58 1190.52 1030.95C1189.95 1032.54 1188.8 1034.01 1187 1034.76C1185.15 1034.03 1183.98 1032.65 1183.39 1031.04C1182.71 1032.6 1181.43 1033.9 1179.61 1034.61L1178.62 1033.13ZM1192.01 1026.44V1015.27H1193.95V1026.44H1192.01ZM1209.75 1015.25H1211.77V1022.81H1214.85V1024.49H1211.77V1034.72H1209.75V1015.25ZM1197.6 1029.92V1017.16H1206.62V1018.77H1199.58V1028.23C1202.91 1028.23 1205.3 1028.09 1208.05 1027.57L1208.27 1029.26C1205.3 1029.81 1202.73 1029.92 1199.14 1029.92H1197.6ZM1216.88 1016.92H1225.79V1018.61H1230.01V1015.29H1232.01V1029.44H1230.01V1024.4H1225.79V1026.11H1216.88V1016.92ZM1218.83 1024.49H1223.83V1018.52H1218.83V1024.49ZM1219.47 1034.28V1028.16H1221.47V1032.63H1232.47V1034.28H1219.47ZM1225.79 1022.77H1230.01V1020.24H1225.79V1022.77ZM1254.77 1015.27H1256.71V1029.7H1254.77V1022.66H1252.42V1029.19H1250.52V1015.62H1252.42V1021.01H1254.77V1015.27ZM1241.13 1018.55V1016.94H1248.43V1022.57H1243.09V1025.26C1245.51 1025.23 1247.33 1025.12 1249.47 1024.71L1249.67 1026.33C1247.25 1026.8 1245.24 1026.88 1242.43 1026.88H1241.17V1021.08H1246.5V1018.55H1241.13ZM1243.95 1034.28V1028.4H1245.95V1032.63H1257.26V1034.28H1243.95ZM1260.56 1016.48H1269.4V1018.11H1262.54V1023.98C1265.97 1023.98 1268.04 1023.87 1270.41 1023.39L1270.61 1025.01C1268.06 1025.52 1265.86 1025.63 1262.03 1025.63H1260.56V1016.48ZM1262.87 1034.41V1027.43H1275.54V1034.41H1262.87ZM1264.85 1032.8H1273.58V1029.02H1264.85V1032.8ZM1268.3 1021.58V1019.95H1273.54V1015.27H1275.54V1026.51H1273.54V1021.58H1268.3ZM1283.82 1026.27H1301.38V1027.92H1293.55V1034.69H1291.57V1027.92H1283.82V1026.27ZM1284.83 1023.14C1288.4 1022.66 1291.43 1020.46 1291.48 1018.06H1285.45V1016.46H1299.71V1018.06H1293.72C1293.77 1020.46 1296.8 1022.66 1300.37 1023.14L1299.62 1024.77C1296.52 1024.27 1293.79 1022.68 1292.6 1020.46C1291.41 1022.68 1288.68 1024.27 1285.58 1024.77L1284.83 1023.14ZM1317.64 1015.27H1319.55V1034.67H1317.64V1015.27ZM1302.76 1029.37C1305.49 1027.7 1306.88 1024.18 1306.88 1020.68V1019.12H1303.34V1017.47H1312.16V1019.12H1308.84V1020.68C1308.84 1024.02 1310.18 1027.37 1312.86 1028.93L1311.65 1030.4C1309.83 1029.28 1308.55 1027.3 1307.87 1024.95C1307.19 1027.5 1305.89 1029.68 1304 1030.87L1302.76 1029.37ZM1310.71 1023.83V1022.18H1313.74V1015.71H1315.61V1033.7H1313.74V1023.83H1310.71ZM1322.28 1030.69H1330.04V1027.21H1324.43V1021.08H1335.74V1018.28H1324.39V1016.65H1337.74V1022.66H1326.41V1025.59H1338.18V1027.21H1332.05V1030.69H1339.86V1032.34H1322.28V1030.69ZM1362.92 1024.51C1363.01 1025.06 1362.9 1026.29 1362.9 1026.29C1362.48 1030.82 1359.6 1033.18 1355.31 1033.26C1350.38 1033.26 1347.37 1029.63 1347.37 1025.06C1347.37 1020.5 1350.38 1016.87 1355.31 1016.87C1360.35 1016.87 1362.04 1020.75 1362.04 1020.75L1360.33 1021.67C1360.33 1021.67 1359.07 1018.83 1355.31 1018.83C1351.51 1018.83 1349.31 1021.58 1349.31 1025.06C1349.31 1028.56 1351.51 1031.31 1355.31 1031.31C1358.39 1031.2 1360.5 1029.81 1360.9 1026.38H1355.62V1024.51H1362.92ZM1373.01 1031.31C1376.53 1031.31 1379 1028.53 1379 1025.06C1379 1021.6 1376.53 1018.83 1373.01 1018.83C1369.45 1018.83 1367.03 1021.6 1367.03 1025.06C1367.03 1028.53 1369.45 1031.31 1373.01 1031.31ZM1365.07 1025.06C1365.07 1020.57 1368.35 1016.85 1373.01 1016.85C1377.68 1016.85 1380.96 1020.57 1380.96 1025.06C1380.96 1029.57 1377.68 1033.26 1373.01 1033.26C1368.35 1033.26 1365.07 1029.57 1365.07 1025.06ZM1387.38 1016.76L1387.08 1028.97H1385.27L1384.92 1016.76H1387.38ZM1384.94 1032.14C1384.94 1031.48 1385.38 1030.93 1386.2 1030.93C1386.99 1030.93 1387.41 1031.48 1387.41 1032.14C1387.41 1032.85 1386.99 1033.4 1386.2 1033.4C1385.38 1033.4 1384.94 1032.85 1384.94 1032.14Z" fill="#C6C6C6"/>
<rect x="999" y="980" width="86.7594" height="28" rx="14" fill="#EFFE37"/>
<path d="M1013.48 997.294H1017.53V999.288H1011.38V988.712H1013.48V997.294Z" fill="black"/>
<path d="M1020.14 996.312C1020.41 997.259 1021.12 997.732 1022.29 997.732C1023.04 997.732 1023.6 997.48 1023.99 996.977L1025.57 997.883C1024.82 998.961 1023.71 999.5 1022.26 999.5C1021 999.5 1019.99 999.122 1019.23 998.367C1018.47 997.611 1018.09 996.659 1018.09 995.511C1018.09 994.373 1018.47 993.426 1019.22 992.67C1019.97 991.905 1020.93 991.522 1022.1 991.522C1023.22 991.522 1024.13 991.905 1024.85 992.67C1025.58 993.436 1025.95 994.383 1025.95 995.511C1025.95 995.763 1025.92 996.03 1025.87 996.312H1020.14ZM1020.11 994.801H1023.99C1023.88 994.287 1023.64 993.904 1023.29 993.652C1022.94 993.401 1022.55 993.275 1022.1 993.275C1021.58 993.275 1021.14 993.411 1020.8 993.683C1020.45 993.945 1020.22 994.317 1020.11 994.801Z" fill="black"/>
<path d="M1031.44 993.607H1029.72V996.75C1029.72 997.012 1029.79 997.203 1029.92 997.324C1030.05 997.445 1030.24 997.516 1030.5 997.536C1030.75 997.546 1031.07 997.541 1031.44 997.521V999.288C1030.09 999.44 1029.14 999.314 1028.58 998.911C1028.04 998.508 1027.76 997.788 1027.76 996.75V993.607H1026.44V991.734H1027.76V990.207L1029.72 989.618V991.734H1031.44V993.607Z" fill="black"/>
<path d="M1035.69 988.696L1034.55 992.897H1032.95L1033.56 988.696H1035.69Z" fill="black"/>
<path d="M1037.93 993.879C1037.93 994.081 1038.06 994.247 1038.32 994.378C1038.59 994.499 1038.92 994.609 1039.31 994.71C1039.69 994.801 1040.08 994.922 1040.46 995.073C1040.85 995.214 1041.17 995.456 1041.44 995.798C1041.71 996.141 1041.85 996.569 1041.85 997.082C1041.85 997.858 1041.55 998.457 1040.96 998.88C1040.39 999.293 1039.66 999.5 1038.79 999.5C1037.23 999.5 1036.17 998.901 1035.6 997.702L1037.3 996.75C1037.53 997.405 1038.02 997.732 1038.79 997.732C1039.49 997.732 1039.84 997.516 1039.84 997.082C1039.84 996.881 1039.7 996.72 1039.43 996.599C1039.17 996.468 1038.84 996.352 1038.46 996.251C1038.07 996.151 1037.69 996.025 1037.3 995.874C1036.92 995.723 1036.59 995.486 1036.31 995.163C1036.05 994.831 1035.92 994.418 1035.92 993.924C1035.92 993.179 1036.19 992.595 1036.74 992.172C1037.3 991.739 1037.99 991.522 1038.81 991.522C1039.42 991.522 1039.99 991.663 1040.49 991.945C1041 992.217 1041.4 992.61 1041.69 993.124L1040.02 994.03C1039.78 993.516 1039.37 993.26 1038.81 993.26C1038.55 993.26 1038.34 993.315 1038.17 993.426C1038.01 993.537 1037.93 993.688 1037.93 993.879Z" fill="black"/>
<path d="M1057.51 993.607V994.423C1057.51 995.934 1057.03 997.158 1056.05 998.095C1055.08 999.032 1053.82 999.5 1052.28 999.5C1050.64 999.5 1049.28 998.971 1048.2 997.913C1047.12 996.846 1046.59 995.546 1046.59 994.015C1046.59 992.474 1047.12 991.169 1048.18 990.102C1049.25 989.034 1050.58 988.5 1052.16 988.5C1053.16 988.5 1054.06 988.727 1054.88 989.18C1055.7 989.623 1056.34 990.217 1056.8 990.963L1055 991.99C1054.75 991.557 1054.37 991.205 1053.85 990.933C1053.34 990.661 1052.78 990.525 1052.15 990.525C1051.13 990.525 1050.3 990.857 1049.64 991.522C1048.99 992.177 1048.67 993.008 1048.67 994.015C1048.67 995.012 1049 995.838 1049.66 996.493C1050.32 997.138 1051.21 997.46 1052.3 997.46C1053.11 997.46 1053.78 997.284 1054.31 996.931C1054.84 996.569 1055.21 996.075 1055.4 995.451H1052.18V993.607H1057.51Z" fill="black"/>
<path d="M1067.95 997.913C1066.88 998.971 1065.57 999.5 1064.03 999.5C1062.49 999.5 1061.19 998.971 1060.11 997.913C1059.05 996.846 1058.52 995.541 1058.52 994C1058.52 992.459 1059.05 991.159 1060.11 990.102C1061.19 989.034 1062.49 988.5 1064.03 988.5C1065.57 988.5 1066.88 989.034 1067.95 990.102C1069.03 991.159 1069.57 992.459 1069.57 994C1069.57 995.541 1069.03 996.846 1067.95 997.913ZM1061.59 996.493C1062.25 997.138 1063.06 997.46 1064.03 997.46C1065.01 997.46 1065.82 997.138 1066.48 996.493C1067.14 995.838 1067.47 995.007 1067.47 994C1067.47 992.993 1067.14 992.162 1066.48 991.507C1065.82 990.852 1065.01 990.525 1064.03 990.525C1063.06 990.525 1062.25 990.852 1061.59 991.507C1060.93 992.162 1060.6 992.993 1060.6 994C1060.6 995.007 1060.93 995.838 1061.59 996.493Z" fill="black"/>
<path d="M1071.31 995.738L1070.9 991.734V988.712H1073.26V991.734L1072.86 995.738H1071.31ZM1073 999.107C1072.75 999.359 1072.44 999.485 1072.09 999.485C1071.73 999.485 1071.43 999.359 1071.18 999.107C1070.92 998.855 1070.8 998.553 1070.8 998.201C1070.8 997.848 1070.92 997.546 1071.18 997.294C1071.43 997.042 1071.73 996.916 1072.09 996.916C1072.44 996.916 1072.75 997.042 1073 997.294C1073.25 997.546 1073.38 997.848 1073.38 998.201C1073.38 998.553 1073.25 998.855 1073 999.107Z" fill="black"/>
<defs>
<filter id="filter0_d_1_93" x="856" y="266" width="197.909" height="405.98" filterUnits="userSpaceOnUse" color-interpolation-filters="sRGB">
<feFlood flood-opacity="0" result="BackgroundImageFix"/>
<feColorMatrix in="SourceAlpha" type="matrix" values="0 0 0 0 0 0 0 0 0 0 0 0 0 0 0 0 0 0 127 0" result="hardAlpha"/>
<feOffset dx="6" dy="6"/>
<feComposite in2="hardAlpha" operator="out"/>
<feColorMatrix type="matrix" values="0 0 0 0 1 0 0 0 0 1 0 0 0 0 1 0 0 0 1 0"/>
<feBlend mode="normal" in2="BackgroundImageFix" result="effect1_dropShadow_1_93"/>
<feBlend mode="normal" in="SourceGraphic" in2="effect1_dropShadow_1_93" result="shape"/>
</filter>
<linearGradient id="paint0_linear_1_93" x1="555" y1="665.297" x2="2139.95" y2="1212.79" gradientUnits="userSpaceOnUse">
<stop stop-color="#1B1B1B"/>
<stop offset="1" stop-color="#55329B"/>
</linearGradient>
</defs>
</svg>
