<svg width="current" height="current" viewBox="0 0 442 240" fill="none" xmlns="http://www.w3.org/2000/svg">
<path fill-rule="evenodd" clip-rule="evenodd" d="M406.595 82.0985C417.69 82.3652 429.028 81.8318 439.636 85.6135C440.268 85.8366 440.964 85.5117 441.192 84.8814C441.416 84.2511 441.09 83.5579 440.458 83.33C429.602 79.461 418.006 79.9458 406.654 79.6743C405.983 79.6549 405.423 80.1883 405.409 80.8573C405.389 81.5264 405.924 82.0791 406.595 82.0985Z" fill="#B484F1"/>
<path fill-rule="evenodd" clip-rule="evenodd" d="M405.599 66.0418C409.057 62.87 412.831 60.4939 417.394 59.3162C418.045 59.1485 418.434 58.4867 418.269 57.8389C418.099 57.1912 417.433 56.8019 416.786 56.9696C411.824 58.2496 407.714 60.8105 403.955 64.2572C403.459 64.71 403.425 65.4775 403.882 65.9701C404.334 66.4622 405.107 66.4946 405.599 66.0418Z" fill="#B484F1"/>
<path fill-rule="evenodd" clip-rule="evenodd" d="M395.978 31.414C397.563 25.996 400.686 21.7576 405.472 18.6968C406.036 18.3356 406.202 17.5851 405.837 17.0222C405.477 16.4594 404.723 16.2955 404.159 16.6567C398.862 20.0456 395.399 24.7359 393.643 30.7347C393.453 31.3766 393.828 32.0506 394.47 32.2377C395.117 32.4254 395.793 32.0559 395.978 31.414Z" fill="#B484F1"/>
<path fill-rule="evenodd" clip-rule="evenodd" d="M341.332 24.061C340.388 25.1678 339.542 26.3605 338.822 27.6303C338.501 28.1956 337.937 29.397 337.849 30.4273C337.752 31.5249 338.126 32.451 339.089 32.9387C340.369 33.5855 341.39 33.5181 342.178 33.1268C342.937 32.7511 343.53 32.0127 343.905 31.0227C344.62 29.1304 344.513 26.2384 344.138 24.588C345.145 23.5524 346.249 22.6132 347.431 21.7784C356.235 15.5604 369.148 17.8532 379.085 27.1503C382.563 30.4055 384.236 37.2416 385.107 44.6173C386.464 56.1016 385.69 68.9283 385.583 72.6862C385.559 73.6142 385.647 74.1649 385.695 74.275C385.924 74.8161 386.328 74.9567 386.61 75.01C387.018 75.0827 387.344 75.0052 387.607 74.8694C387.962 74.6832 388.254 74.3555 388.39 73.8498C388.463 73.5705 388.482 73.1817 388.473 72.7672C388.463 72.4797 388.404 72.1655 388.463 71.9594C388.842 70.6397 389.299 69.351 389.747 68.0532C391.24 63.6901 393.171 59.6016 395.316 55.5178C402.13 42.5418 408.721 28.8312 419.893 18.945C420.394 18.5014 420.443 17.7344 419.996 17.234C419.553 16.7337 418.784 16.6881 418.279 17.1322C406.882 27.2138 400.112 41.1605 393.161 54.3935C391.337 57.8673 389.664 61.346 388.273 64.9847C388.414 58.548 388.361 49.6383 387.179 41.7549C386.128 34.7437 384.129 28.5476 380.749 25.3831C369.863 15.1982 355.666 12.9889 346.025 19.8007C344.994 20.5299 344.012 21.3319 343.097 22.2016C338.053 13.1232 327.255 9.48448 317.712 13.8266C317.1 14.1044 316.832 14.8239 317.109 15.4324C317.391 16.0409 318.111 16.3095 318.724 16.0317C327.324 12.1191 337.076 15.6108 341.332 24.061ZM342.037 27.1004C341.643 27.655 341.278 28.23 340.938 28.8244C340.758 29.1435 340.446 29.7568 340.315 30.357C340.286 30.4976 340.281 30.7177 340.281 30.8195C340.617 30.9844 340.879 31.0639 341.093 30.9567C341.361 30.8249 341.497 30.5146 341.628 30.1679C341.959 29.2981 342.066 28.1452 342.037 27.1004Z" fill="#B484F1"/>
<path fill-rule="evenodd" clip-rule="evenodd" d="M58 62C25.9675 62 0 87.9675 0 120C0 152.033 25.9675 178 58 178H314H323H393.74C402.453 178 404.888 166.047 396.871 162.638L371.484 151.844C377.5 142.703 381 131.76 381 120C381 87.9675 355.033 62 323 62H58Z" fill="#ECFF78"/>
<path d="M161 0C104.115 0 58 45.9017 58 102.524C58 132.384 70.8242 159.262 91.2894 178H230.711C251.176 159.262 264 132.384 264 102.524C264 45.9017 217.885 0 161 0Z" fill="#7949DF"/>
<path d="M222.5 63.5L184.5 71.5L106 89.5" stroke="white" stroke-width="14" stroke-linecap="round"/>
<path d="M224 104V104C190.831 82.7716 154.848 66.3007 117.102 55.0686L110.499 53.1035" stroke="white" stroke-width="14" stroke-linecap="round"/>
<path fill-rule="evenodd" clip-rule="evenodd" d="M96.0026 118.351C103.846 115.429 110 117.668 118 128C126 138.332 136.531 141.004 157.415 144.439C182.5 146 195.356 141.906 204.554 133.459C209.29 126.361 218.691 124.578 225.552 129.476C232.413 134.375 234.136 144.1 229.401 151.199C220.203 164.986 193.5 187.656 153.258 184.054C113.005 180.45 92.4254 154.174 86.913 138.333C84.0892 130.218 88.1588 121.272 96.0026 118.351Z" fill="#1B1B1B"/>
<path d="M155.683 159.524C138.084 145.161 119.916 155.933 113.032 163.115C116.983 167.424 125.453 172.391 129.194 174.336C133.504 180.8 136.378 195.582 137.276 202.165C145.357 241.215 196.537 253.333 205.516 222.812C214.495 192.29 201.027 170.297 188.456 157.729C178.4 147.675 162.417 154.736 155.683 159.524Z" fill="#EA6767"/>
<path d="M158.622 155.812C165.798 163.249 180.826 182.753 183.528 201.274" stroke="#1B1B1B" stroke-width="11" stroke-linecap="round"/>
</svg>
