<svg width="current" height="current" viewBox="0 0 64 64" fill="none" xmlns="http://www.w3.org/2000/svg">
<circle cx="32" cy="32" r="32" fill="black" stroke="white"/>
<path d="M16.5101 55.536C16.9012 56.6099 17.2714 56.8239 18.0116 57H30.0232C30.9551 56.8161 31.3398 56.5579 31.5246 55.536L32.0251 50.6558L41.0338 40.8956L56.0483 36.0155C57.7478 33.4317 57.1254 32.5816 54.5468 31.6233L40.5333 35.0394L40.0328 33.5754L52.5449 20.399C53.0136 17.3991 52.2956 16.6066 49.0415 16.983L37.0299 29.1833L36.029 28.2073L45.0377 11.6148C44.6103 8.63234 43.5926 8.14595 40.5333 9.17476L31.0241 25.7672L30.0232 25.2792L33.5266 8.19874C32.2986 5.82922 31.3622 5.17825 28.5217 7.22271L24.0174 26.2552L21.0145 30.6473L19.0126 31.6233L17.0106 30.6473L14.5082 25.2792L10.5043 18.935C7.47744 18.2507 6.40441 18.7657 6 21.8631L9.50338 27.7192C10.9057 32.8487 11.9037 35.5092 14.0077 39.9196L16.5101 55.536Z" fill="white" stroke="white"/>
<path d="M42.5385 45.9127L43.5641 43.9766L42.5385 42.0406L54.8462 37.6844L56.3846 38.1684L57.9231 36.7164L58.9487 34.2963C60.0909 34.0304 60.5077 34.3033 61 35.2643L59.9744 38.6524L57.9231 41.0725L54.8462 43.4926L49.7179 49.7849C49.7179 49.7849 49.2051 50.2689 48.6923 49.7849C48.1795 49.3008 43.0513 46.8808 43.0513 46.8808C42.5398 46.581 42.3824 46.3798 42.5385 45.9127Z" fill="white"/>
<path d="M41 37.2004V34.7803C42.0016 34.1525 42.5625 34.2111 43.5641 34.7803V32.3602C45.0537 31.1993 45.8227 31.4233 47.1538 32.3602L47.6667 30.4241C48.869 29.846 49.5415 29.8714 50.7436 30.4241V31.3922C52.4537 30.5687 53.2427 30.5516 54.3333 31.3922L54.6615 34.7803L54.3333 37.2004C53.08 38.2071 52.3828 38.0462 51.1538 36.7164L51.2564 37.2004C50.8344 38.7005 50.2594 39.0031 48.6923 38.6524L47.6667 38.1684C47.2021 39.3624 46.8551 39.9006 45.1026 39.1365L44.0769 38.1684C43.8748 39.7322 43.5868 40.3184 42.0256 39.6205L41 37.2004Z" fill="white"/>
<path d="M43.5641 34.7803C42.5625 34.2111 42.0016 34.1525 41 34.7803V37.2004L42.0256 39.6205C43.5868 40.3184 43.8748 39.7322 44.0769 38.1684M43.5641 34.7803V36.7164L44.0769 38.1684M43.5641 34.7803V32.3602C45.0537 31.1993 45.8227 31.4233 47.1538 32.3602M44.0769 38.1684L45.1026 39.1365C46.8551 39.9006 47.2021 39.3624 47.6667 38.1684M47.1538 32.3602L46.641 35.2643L47.6667 38.1684M47.1538 32.3602L47.6667 30.4241C48.869 29.846 49.5415 29.8714 50.7436 30.4241V31.3922M47.6667 38.1684L48.6923 38.6524C50.2594 39.0031 50.8344 38.7005 51.2564 37.2004L51.1538 36.7164M50.7436 31.3922V34.7803L51.1538 36.7164M50.7436 31.3922C52.4537 30.5687 53.2427 30.5516 54.3333 31.3922L54.6615 34.7803L54.3333 37.2004C53.08 38.2071 52.3828 38.0462 51.1538 36.7164M43.5641 43.9766L42.5385 45.9127C42.3824 46.3798 42.5398 46.581 43.0513 46.8808C43.0513 46.8808 48.1795 49.3008 48.6923 49.7849C49.2051 50.2689 49.7179 49.7849 49.7179 49.7849L54.8462 43.4926L57.9231 41.0725L59.9744 38.6524L61 35.2643C60.5077 34.3033 60.0909 34.0304 58.9487 34.2963L57.9231 36.7164L56.3846 38.1684L54.8462 37.6844L42.5385 42.0406L43.5641 43.9766Z" stroke="black"/>
<path d="M42 39C42.9127 39.475 43.2553 39.3936 43.5 38.5C42.863 38.3698 42.5375 38.5001 42 39Z" fill="black"/>
<path d="M45 38.5C45.9127 38.975 46.2553 38.8936 46.5 38C45.7823 37.8928 45.478 38.0573 45 38.5Z" fill="black"/>
<path d="M49 37.5C49.9127 37.975 50.2553 37.8936 50.5 37C49.6813 36.8945 49.38 37.0392 49 37.5Z" fill="black"/>
<path d="M52 36.5C52.9127 36.975 53.2553 36.8936 53.5 36C52.8069 35.8737 52.5008 36.0495 52 36.5Z" fill="black"/>
</svg>
