<svg width="248" height="248" viewBox="0 0 248 248" fill="none" xmlns="http://www.w3.org/2000/svg">
<rect width="248" height="248" rx="24" fill="#F7FF7D"/>
<path d="M52.96 33.984H56.928V48.416H52.96V46.208H46.464V43.168H52.96V40.64H46.784C45.024 44.96 40.96 47.68 34.656 49.056L33.344 45.888C39.904 44.544 42.912 41.728 43.392 38.272H34.944V35.104H47.776C47.776 36 47.712 36.832 47.584 37.632H52.96V33.984ZM38.048 52.608V49.504H56.928V57.312H42.048V59.296H57.536V62.4H38.08V54.368H52.96V52.608H38.048ZM60.9608 50.56H71.9368V48.864C67.1048 48.544 64.3848 47.072 64.3848 44.544C64.3848 41.696 67.8408 40.192 73.9208 40.192C80.0008 40.192 83.4888 41.696 83.4888 44.544C83.4888 47.072 80.7688 48.544 75.9048 48.864V50.56H86.8808V53.632H60.9608V50.56ZM62.2088 39.328V36.352H71.9368V33.856H75.9048V36.352H85.5048V39.328H62.2088ZM64.1288 62.144V55.072H68.0648V59.072H83.9688V62.144H64.1288ZM68.4167 44.544C68.4167 45.664 70.1128 46.112 73.9208 46.112C77.7288 46.112 79.4568 45.664 79.4568 44.544C79.4568 43.424 77.7288 42.944 73.9208 42.944C70.1128 42.944 68.4167 43.424 68.4167 44.544ZM105.873 41.536L105.841 45.888L109.937 44.576L110.929 47.712L106.865 48.96L109.553 52.608L106.993 54.656L104.209 50.944L101.425 54.656L98.9285 52.576L101.585 48.96L97.4885 47.712L98.5125 44.576L102.545 45.888L102.513 41.536H105.873ZM121.461 47.424H147.381V50.56H141.141V53.312H144.245V62.688H140.309V56.416H124.341V53.312H127.637V50.56H121.461V47.424ZM124.053 40.192C124.053 36.736 128.149 34.592 134.421 34.592C140.725 34.592 144.789 36.736 144.789 40.192C144.789 43.712 140.725 45.856 134.421 45.856C128.149 45.856 124.053 43.712 124.053 40.192ZM128.149 40.192C128.149 41.92 130.421 42.752 134.421 42.752C138.389 42.752 140.693 41.92 140.693 40.192C140.693 38.528 138.389 37.632 134.421 37.632C130.421 37.632 128.149 38.528 128.149 40.192ZM131.605 53.312H137.237V50.56H131.605V53.312ZM157.11 36C161.462 36 164.597 39.936 164.597 46.208C164.597 52.512 161.462 56.448 157.11 56.448C152.758 56.448 149.622 52.512 149.622 46.208C149.622 39.936 152.758 36 157.11 36ZM153.43 46.208C153.43 50.496 154.902 52.864 157.11 52.864C159.318 52.864 160.822 50.496 160.822 46.208C160.822 41.92 159.318 39.584 157.11 39.584C154.902 39.584 153.43 41.92 153.43 46.208ZM167.894 62.688V34.016H171.862V44.896H176.086V48.16H171.862V62.688H167.894Z" fill="black"/>
<path fill-rule="evenodd" clip-rule="evenodd" d="M115.392 120.472H122.961C127.691 120.472 131.132 117.031 131.476 112.728L132.766 100.337C132.766 92.9373 126.831 87 119.263 87C111.694 87 105.76 92.8512 105.76 100.337L107.05 112.728C107.222 117.117 111.006 120.472 115.392 120.472ZM179.384 128.389H186.952C191.683 128.389 195.467 124.947 195.467 120.644L196.757 108.253C196.757 100.853 190.823 94.916 183.254 94.916C175.685 94.916 169.751 100.767 169.751 108.253L171.041 120.644C171.213 125.033 174.997 128.389 179.384 128.389ZM218.346 233.28C217.314 222.266 214.562 211.424 210.52 201.184L212.326 158.075C212.67 146.974 205.101 138.284 195.726 138.284H170.955C162.87 138.284 156.162 144.995 154.442 153.944V150.416C154.442 139.316 145.325 130.367 134.057 130.367H104.384C93.117 130.367 84 139.316 84 150.416V217.275C88.8165 217.275 92.4289 215.726 94.9232 213.059L96.2521 248H219.922L218.346 233.28Z" fill="#FF90E3"/>
<path d="M156.849 190.429H150.141C146.271 190.429 142.744 187.246 142.4 183.373L141.368 172.101C141.368 165.39 146.615 160.141 153.323 160.141C160.032 160.141 165.278 165.39 165.278 172.101L164.246 183.373C163.816 187.59 160.72 190.429 156.849 190.429Z" fill="white"/>
<path d="M162.785 197.484H143.863C136.81 197.484 131.22 203.422 131.22 210.478L129.155 238.615C134.832 238.615 139.562 235.948 139.562 229.58H167.257C167.257 235.776 172.074 238.615 177.664 238.615L175.6 210.478C175.428 203.077 169.838 197.484 162.785 197.484Z" fill="#B484F1"/>
<path d="M139.272 248L138.616 232.421C138.616 230.356 139.992 228.549 142.057 228.549H164.505C166.655 228.549 168.031 230.27 168.031 232.421L167.376 248H139.272Z" fill="white"/>
</svg>
