<svg width="current" height="current" viewBox="0 0 68 57" fill="none" xmlns="http://www.w3.org/2000/svg">
<g clip-path="url(#clip0_154_7921)">
<path d="M35.5 13.5C36.6 13.5 37.5 12.6 37.5 11.5C37.5 10.4 36.6 9.5 35.5 9.5C34.4 9.5 33.5 10.4 33.5 11.5C33.5 12.6 34.4 13.5 35.5 13.5ZM31.8 16.9L29 31H31.1L32.9 23L35 25V31H37V23.5L34.9 21.5L35.5 18.5C36.8 20 38.8 21 41 21V19C39.1 19 37.5 18 36.7 16.6L35.7 15C35.3 14.4 34.7 14 34 14C33.7 14 33.5 14.1 33.2 14.1L28 16.3V21H30V17.6L31.8 16.9Z" fill="#C6C6C6"/>
</g>
<path d="M8.778 42.702H10.066V47.518H12.026V48.582H10.066V55.092H8.778V42.702ZM1.05 52.04V43.92H6.79V44.942H2.31V50.962C4.424 50.962 5.95 50.878 7.7 50.542L7.84 51.62C5.95 51.97 4.312 52.04 2.03 52.04H1.05ZM12.7543 49.52H23.9403V50.57H12.7543V49.52ZM14.1683 44.088V43.108H22.5123V46.258H15.4423V47.504H22.7783V48.484H14.1963V45.32H21.2523V44.088H14.1683ZM14.2103 54.812V51.466H15.4843V53.776H22.8063V54.812H14.2103ZM33.8872 50.416C36.4212 50.416 37.9752 51.284 37.9752 52.74C37.9752 54.21 36.4212 55.064 33.8872 55.064C31.3532 55.064 29.7992 54.21 29.7992 52.74C29.7992 51.284 31.3532 50.416 33.8872 50.416ZM28.7072 49.226V43.5H29.9812V45.278H33.2152V43.5H34.4752V49.226H28.7072ZM29.9812 48.204H33.2152V46.286H29.9812V48.204ZM31.0452 52.74C31.0452 53.58 32.1092 54.056 33.8872 54.056C35.6512 54.056 36.7012 53.58 36.7012 52.74C36.7012 51.914 35.6512 51.438 33.8872 51.438C32.1092 51.438 31.0452 51.914 31.0452 52.74ZM36.5612 50.108V42.73H37.8492V45.782H39.6132V46.846H37.8492V50.108H36.5612ZM52.5281 42.702H53.8021V55.092H52.5281V42.702ZM44.1001 47.98C44.1001 45.32 45.4161 43.654 47.2641 43.654C49.0981 43.654 50.4281 45.32 50.4281 47.98C50.4281 50.626 49.0981 52.32 47.2641 52.32C45.4161 52.32 44.1001 50.626 44.1001 47.98ZM45.3321 47.98C45.3321 49.94 46.1301 51.172 47.2641 51.172C48.3981 51.172 49.1961 49.94 49.1961 47.98C49.1961 46.02 48.3981 44.802 47.2641 44.802C46.1301 44.802 45.3321 46.02 45.3321 47.98ZM55.9304 48.75H60.8584V47.434H57.3304V43.29H65.7024V44.312H58.5904V46.398H65.7864V47.434H62.1324V48.75H67.0884V49.786H55.9304V48.75ZM57.2464 52.838C57.2464 51.41 58.8424 50.598 61.4884 50.598C64.1204 50.598 65.7304 51.41 65.7304 52.838C65.7304 54.266 64.1204 55.064 61.4884 55.064C58.8424 55.064 57.2464 54.266 57.2464 52.838ZM58.5344 52.838C58.5344 53.65 59.6264 54.084 61.4884 54.084C63.3504 54.084 64.4284 53.65 64.4284 52.838C64.4284 52.04 63.3504 51.592 61.4884 51.592C59.6264 51.592 58.5344 52.04 58.5344 52.838Z" fill="#C6C6C6"/>
<defs>
<clipPath id="clip0_154_7921">
<rect width="24" height="24" fill="white" transform="translate(22 8)"/>
</clipPath>
</defs>
</svg>
