<svg width="current" height="current" viewBox="0 0 40 57" fill="none" xmlns="http://www.w3.org/2000/svg">
<path d="M27 19H25.3C25.3 19.74 25.14 20.43 24.87 21.05L26.1 22.28C26.66 21.3 27 20.19 27 19ZM22.98 19.17C22.98 19.11 23 19.06 23 19V13C23 11.34 21.66 10 20 10C18.34 10 17 11.34 17 13V13.18L22.98 19.17ZM12.27 11L11 12.27L17.01 18.28V19C17.01 20.66 18.34 22 20 22C20.22 22 20.44 21.97 20.65 21.92L22.31 23.58C21.6 23.91 20.81 24.1 20 24.1C17.24 24.1 14.7 22 14.7 19H13C13 22.41 15.72 25.23 19 25.72V29H21V25.72C21.91 25.59 22.77 25.27 23.54 24.82L27.73 29L29 27.73L12.27 11Z" fill="#C6C6C6"/>
<path d="M7.59 42.996C10.278 42.996 11.972 43.864 11.972 45.348C11.972 46.818 10.278 47.686 7.59 47.686C4.916 47.686 3.222 46.818 3.222 45.348C3.222 43.864 4.916 42.996 7.59 42.996ZM2.018 49.688V48.666H13.176V49.688H2.018ZM3.376 54.91V50.822H11.818V54.91H3.376ZM4.538 45.348C4.538 46.188 5.7 46.678 7.59 46.678C9.494 46.678 10.656 46.188 10.656 45.348C10.656 44.466 9.494 43.99 7.59 43.99C5.7 43.99 4.538 44.466 4.538 45.348ZM4.622 53.888H10.572V51.844H4.622V53.888ZM14.2543 52.446H19.1683V49.506H20.4283V52.446H25.4403V53.496H14.2543V52.446ZM14.6603 48.638C16.9843 48.246 19.1263 46.412 19.1263 44.452V43.5H20.4703V44.452C20.4703 46.412 22.6403 48.246 24.9503 48.638L24.4043 49.716C22.4443 49.31 20.6103 48.064 19.7983 46.356C18.9863 48.05 17.1663 49.31 15.1923 49.716L14.6603 48.638ZM35.3947 42.73H36.6547V55.078H35.3947V48.68H32.6227V47.616H35.3947V42.73ZM26.4487 51.788C29.6967 50.178 31.1527 47.924 31.3907 45.068H26.9807V44.032H32.6647C32.6647 47.602 31.2787 50.71 27.1347 52.782L26.4487 51.788Z" fill="#C6C6C6"/>
</svg>
