<svg width="current" height="current" viewBox="0 0 65 57" fill="none" xmlns="http://www.w3.org/2000/svg">
<path d="M32 22C33.66 22 34.99 20.66 34.99 19L35 13C35 11.34 33.66 10 32 10C30.34 10 29 11.34 29 13V19C29 20.66 30.34 22 32 22ZM37.3 19C37.3 22 34.76 24.1 32 24.1C29.24 24.1 26.7 22 26.7 19H25C25 22.41 27.72 25.23 31 25.72V29H33V25.72C36.28 25.24 39 22.42 39 19H37.3Z" fill="#C6C6C6"/>
<path d="M0.994 43.934H6.72V51.97H0.994V43.934ZM2.254 50.948H5.46V44.97H2.254V50.948ZM8.778 55.078V42.73H10.066V47.602H12.026V48.666H10.066V55.078H8.778ZM21.6023 42.702H22.8763V55.092H21.6023V42.702ZM13.1743 47.98C13.1743 45.32 14.4903 43.654 16.3383 43.654C18.1723 43.654 19.5023 45.32 19.5023 47.98C19.5023 50.626 18.1723 52.32 16.3383 52.32C14.4903 52.32 13.1743 50.626 13.1743 47.98ZM14.4063 47.98C14.4063 49.94 15.2043 51.172 16.3383 51.172C17.4723 51.172 18.2703 49.94 18.2703 47.98C18.2703 46.02 17.4723 44.802 16.3383 44.802C15.2043 44.802 14.4063 46.02 14.4063 47.98ZM26.3067 43.934H34.8467V45.432C34.8467 47.238 34.8467 48.932 34.3147 51.48L33.0407 51.368C33.3067 50.234 33.4327 49.226 33.5027 48.302L26.1527 48.694L25.9707 47.644L33.5587 47.35C33.5867 46.692 33.5867 46.062 33.5867 45.432V44.97H26.3067V43.934ZM24.9907 53.412V52.348H36.1627V53.412H24.9907ZM46.1375 49.436H49.3575V47.154H46.3055C45.6755 49.478 44.1775 51.522 41.1395 53.076L40.4255 52.096C42.5815 51.004 43.9115 49.66 44.6675 48.078L40.6635 48.442L40.4675 47.35L45.0595 47.07C45.2555 46.412 45.3675 45.726 45.4235 45.012H41.0975V43.99H46.6835C46.6835 44.718 46.6415 45.432 46.5155 46.132H49.3575V42.716H50.6175V55.064H49.3575V50.472H46.1375V49.436ZM61.5659 42.716H62.8539V55.064H61.5659V42.716ZM52.8019 51.802C56.0779 50.22 57.6599 47.966 57.9119 45.068H53.3899V44.032H59.1999C59.1999 47.658 57.6739 50.78 53.4739 52.81L52.8019 51.802Z" fill="#C6C6C6"/>
</svg>
