<svg width="32" height="32" viewBox="0 0 32 32" fill="none" xmlns="http://www.w3.org/2000/svg">
<circle cx="16" cy="16" r="16" fill="#E2E2E2"/>
<mask id="mask0_1_14074" style="mask-type:alpha" maskUnits="userSpaceOnUse" x="0" y="0" width="32" height="32">
<path d="M32 16C32 24.8366 24.8366 32 16 32C7.16344 32 0 24.8366 0 16C0 7.16344 7.16344 0 16 0C24.8366 0 32 7.16344 32 16Z" fill="#D9D9D9"/>
</mask>
<g mask="url(#mask0_1_14074)">
<path d="M17.3953 17H14.6047C12.9767 17 11.5814 15.7778 11.4651 14.2222L11 9.77778C11 7.11111 13.2093 5 16 5C18.7907 5 21 7.11111 21 9.77778L20.5349 14.2222C20.4186 15.7778 19.1395 17 17.3953 17Z" fill="#919191"/>
<path d="M4 23C4 20.7909 5.79086 19 8 19H24C26.2091 19 28 20.7909 28 23V33H4V23Z" fill="#919191"/>
</g>
</svg>
