<svg width="36" height="50" viewBox="0 0 36 50" fill="none" xmlns="http://www.w3.org/2000/svg">
<path d="M32.0231 16.5667C33.275 17.263 34.0504 18.2154 34.3412 19.3999C35.8112 25.3464 26.6196 35.7669 25.5615 36.9274C25.5049 36.9994 25.4161 37.0394 25.3192 37.0394H6.72584C6.58853 37.0394 6.46737 36.9514 6.41891 36.8233C5.63544 34.5984 4.07657 29.8684 2.41271 23.2175C1.89578 21.1366 1.5 18.2874 1.5 15.3902C1.5 11.3885 2.25117 7.30674 4.48043 5.04978C8.84202 0.62389 18.7606 1.12009 23.098 2.37663C26.2884 3.29702 28.3319 4.97775 29.18 7.37077C30.5127 11.1484 28.865 16.6067 24.5114 22.7293C23.9945 23.4656 24.1722 24.4821 24.9072 24.9943C25.2707 25.2424 25.7068 25.3384 26.1349 25.2664C26.563 25.1944 26.9426 24.9543 27.193 24.6021C29.1234 21.881 30.5934 19.2318 31.5546 16.7348C31.5869 16.6467 31.6596 16.5747 31.7485 16.5427C31.8373 16.5107 31.9423 16.5187 32.0231 16.5667Z" fill="#14B5FF"/>
<path d="M24.5356 40.6166V46.8753C24.5356 47.7717 23.8006 48.5 22.896 48.5H8.61583C7.7112 48.5 6.97619 47.7717 6.97619 46.8753V40.6166C6.97619 40.4326 7.12966 40.2885 7.30735 40.2885H24.2045C24.3903 40.2885 24.5356 40.4406 24.5356 40.6166Z" fill="#14B5FF"/>
<path d="M32.0231 16.5667C33.275 17.263 34.0504 18.2154 34.3412 19.3999C35.8112 25.3464 26.6196 35.7669 25.5615 36.9274C25.5049 36.9994 25.4161 37.0394 25.3192 37.0394H6.72584C6.58853 37.0394 6.46737 36.9514 6.41891 36.8233C5.63544 34.5984 4.07657 29.8684 2.41271 23.2175C1.89578 21.1366 1.5 18.2874 1.5 15.3902C1.5 11.3885 2.25117 7.30674 4.48043 5.04978C8.84202 0.62389 18.7606 1.12009 23.098 2.37663C26.2884 3.29702 28.3319 4.97775 29.18 7.37077C30.5127 11.1484 28.865 16.6067 24.5114 22.7293C23.9945 23.4656 24.1722 24.4821 24.9072 24.9943C25.2707 25.2424 25.7068 25.3384 26.1349 25.2664C26.563 25.1944 26.9426 24.9543 27.193 24.6021C29.1234 21.881 30.5934 19.2318 31.5546 16.7348C31.5869 16.6467 31.6596 16.5747 31.7485 16.5427C31.8373 16.5107 31.9423 16.5187 32.0231 16.5667Z" stroke="#14B5FF" stroke-width="2"/>
<path d="M24.5356 40.6166V46.8753C24.5356 47.7717 23.8006 48.5 22.896 48.5H8.61583C7.7112 48.5 6.97619 47.7717 6.97619 46.8753V40.6166C6.97619 40.4326 7.12966 40.2885 7.30735 40.2885H24.2045C24.3903 40.2885 24.5356 40.4406 24.5356 40.6166Z" stroke="#14B5FF" stroke-width="2"/>
</svg>
