<svg width="34" height="50" viewBox="0 0 34 50" fill="none" xmlns="http://www.w3.org/2000/svg">
<path d="M10.8073 40.2558C10.6402 40.2554 10.4896 40.4078 10.4894 40.5776L10.4771 46.8403C10.4761 47.7342 11.194 48.4656 12.0742 48.4677L25.9912 48.5C26.4369 48.501 26.8271 48.3209 27.1227 48.0217C27.4127 47.7282 27.5914 47.3213 27.5975 46.8744L27.6042 40.6173C27.6044 40.4363 27.4597 40.2888 27.287 40.2941L10.8073 40.2558Z" fill="#FA3C3C"/>
<path d="M11.9346 2.35943C7.39817 3.69536 5.26683 6.58701 5.59081 10.9609C5.60734 11.1364 5.75204 11.2725 5.92477 11.2559C6.55435 11.2291 7.07802 11.2529 7.57933 11.3446C11.0495 11.9693 13.4587 14.8885 13.7275 18.7871C13.7329 18.9285 13.7384 19.0813 13.7438 19.2227L13.7436 19.3698C13.7435 19.5056 13.8269 19.6246 13.9606 19.6702C15.9376 20.3932 21.0002 21.8929 25.2752 20.2339C26.1 19.919 27.0244 20.3398 27.3411 21.1722C27.6522 22.0102 27.2444 22.954 26.4196 23.2689C24.7586 23.91 22.8919 24.2395 20.8696 24.2291C18.1062 24.2227 15.5608 23.6001 13.9179 23.0815C13.8232 23.053 13.7173 23.1037 13.6392 23.16C13.5612 23.2164 13.5053 23.3408 13.4941 23.4426C13.4546 23.9121 13.4039 24.3815 13.37 24.868C13.3133 25.7617 12.5493 26.4332 11.6691 26.3745C10.7889 26.3159 10.1212 25.5336 10.1779 24.6399C10.2232 23.9385 10.2908 23.2484 10.3585 22.5018C10.4825 21.1896 10.5952 19.9565 10.535 19.0003C10.3375 16.1372 8.59512 14.815 7.01877 14.5341C5.35884 14.2474 2.95125 14.9999 1.61085 18.0631C-0.991797 24.0313 5.31106 32.7074 9.4404 36.8922C9.50162 36.9545 9.57958 36.9887 9.66872 36.9889L27.8644 37.0311C27.9535 37.0313 28.0315 36.9976 28.0929 36.9355C28.1264 36.9016 28.1542 36.8621 28.171 36.8112C28.9367 34.5896 30.4627 29.8805 32.0967 23.2199C33.311 18.2725 33.8448 8.96159 30.0995 5.05494C25.8423 0.637926 16.1645 1.11896 11.9346 2.35943Z" fill="#FA3C3C"/>
<path d="M10.8073 40.2558C10.6402 40.2554 10.4896 40.4078 10.4894 40.5776L10.4771 46.8403C10.4761 47.7342 11.194 48.4656 12.0742 48.4677L25.9912 48.5C26.4369 48.501 26.8271 48.3209 27.1227 48.0217C27.4127 47.7282 27.5914 47.3213 27.5975 46.8744L27.6042 40.6173C27.6044 40.4363 27.4597 40.2888 27.287 40.2941L10.8073 40.2558Z" stroke="#FA3C3C" stroke-width="2"/>
<path d="M11.9346 2.35943C7.39817 3.69536 5.26683 6.58701 5.59081 10.9609C5.60734 11.1364 5.75204 11.2725 5.92477 11.2559C6.55435 11.2291 7.07802 11.2529 7.57933 11.3446C11.0495 11.9693 13.4587 14.8885 13.7275 18.7871C13.7329 18.9285 13.7384 19.0813 13.7438 19.2227L13.7436 19.3698C13.7435 19.5056 13.8269 19.6246 13.9606 19.6702C15.9376 20.3932 21.0002 21.8929 25.2752 20.2339C26.1 19.919 27.0244 20.3398 27.3411 21.1722C27.6522 22.0102 27.2444 22.954 26.4196 23.2689C24.7586 23.91 22.8919 24.2395 20.8696 24.2291C18.1062 24.2227 15.5608 23.6001 13.9179 23.0815C13.8232 23.053 13.7173 23.1037 13.6392 23.16C13.5612 23.2164 13.5053 23.3408 13.4941 23.4426C13.4546 23.9121 13.4039 24.3815 13.37 24.868C13.3133 25.7617 12.5493 26.4332 11.6691 26.3745C10.7889 26.3159 10.1212 25.5336 10.1779 24.6399C10.2232 23.9385 10.2908 23.2484 10.3585 22.5018C10.4825 21.1896 10.5952 19.9565 10.535 19.0003C10.3375 16.1372 8.59512 14.815 7.01877 14.5341C5.35884 14.2474 2.95125 14.9999 1.61085 18.0631C-0.991797 24.0313 5.31106 32.7074 9.4404 36.8922C9.50162 36.9545 9.57958 36.9887 9.66872 36.9889L27.8644 37.0311C27.9535 37.0313 28.0315 36.9976 28.0929 36.9355C28.1264 36.9016 28.1542 36.8621 28.171 36.8112C28.9367 34.5896 30.4627 29.8805 32.0967 23.2199C33.311 18.2725 33.8448 8.96159 30.0995 5.05494C25.8423 0.637926 16.1645 1.11896 11.9346 2.35943Z" stroke="#FA3C3C" stroke-width="2"/>
</svg>
