<svg width="100" height="36" viewBox="0 0 100 36" fill="none" xmlns="http://www.w3.org/2000/svg">
<path d="M9.99417 11.8073C9.99456 11.6402 9.84216 11.4896 9.67244 11.4894L3.4097 11.4771C2.51583 11.4761 1.78436 12.194 1.78232 13.0742L1.75 26.9912C1.74897 27.4369 1.9291 27.8271 2.22826 28.1227C2.52177 28.4127 2.92869 28.5914 3.37561 28.5975L9.63269 28.6042C9.81373 28.6044 9.96116 28.4597 9.9559 28.287L9.99417 11.8073Z" fill="#EFFE37"/>
<path d="M47.8906 12.9346C46.5546 8.39817 43.663 6.26683 39.2891 6.59081C39.1136 6.60734 38.9775 6.75204 38.9941 6.92477C39.0209 7.55435 38.9971 8.07802 38.9054 8.57933C38.2807 12.0495 35.3615 14.4587 31.4629 14.7275C31.3215 14.7329 31.1687 14.7384 31.0273 14.7438L30.8802 14.7436C30.7444 14.7435 30.6254 14.8269 30.5798 14.9606C29.8568 16.9376 28.3571 22.0002 30.0161 26.2752C30.331 27.1 29.9102 28.0244 29.0778 28.3411C28.2398 28.6522 27.296 28.2444 26.9811 27.4196C26.34 25.7586 26.0105 23.8919 26.0209 21.8696C26.0273 19.1062 26.6499 16.5608 27.1685 14.9179C27.197 14.8232 27.1463 14.7173 27.09 14.6392C27.0336 14.5612 26.9092 14.5053 26.8074 14.4941C26.3379 14.4546 25.8685 14.4039 25.382 14.37C24.4883 14.3133 23.8168 13.5493 23.8755 12.6691C23.9341 11.7889 24.7164 11.1212 25.6101 11.1779C26.3115 11.2232 27.0016 11.2908 27.7482 11.3585C29.0604 11.4825 30.2935 11.5952 31.2497 11.535C34.1128 11.3375 35.435 9.59512 35.7159 8.01876C36.0026 6.35884 35.2501 3.95125 32.1869 2.61085C26.2187 0.00820181 17.5426 6.31105 13.3578 10.4404C13.2955 10.5016 13.2613 10.5796 13.2611 10.6687L13.2189 28.8644C13.2187 28.9535 13.2524 29.0315 13.3145 29.0929C13.3484 29.1263 13.3879 29.1542 13.4388 29.171C15.6604 29.9367 20.3695 31.4627 27.0301 33.0967C31.9775 34.311 41.2884 34.8448 45.1951 31.0995C49.6121 26.8423 49.131 17.1645 47.8906 12.9346Z" fill="#EFFE37"/>
<path d="M9.99417 11.8073C9.99456 11.6402 9.84216 11.4896 9.67244 11.4894L3.4097 11.4771C2.51583 11.4761 1.78436 12.194 1.78232 13.0742L1.75 26.9912C1.74897 27.4369 1.9291 27.8271 2.22826 28.1227C2.52177 28.4127 2.92869 28.5914 3.37561 28.5975L9.63269 28.6042C9.81373 28.6044 9.96116 28.4597 9.9559 28.287L9.99417 11.8073Z" stroke="#EFFE37" stroke-width="2"/>
<path d="M47.8906 12.9346C46.5546 8.39817 43.663 6.26683 39.2891 6.59081C39.1136 6.60734 38.9775 6.75204 38.9941 6.92477C39.0209 7.55435 38.9971 8.07802 38.9054 8.57933C38.2807 12.0495 35.3615 14.4587 31.4629 14.7275C31.3215 14.7329 31.1687 14.7384 31.0273 14.7438L30.8802 14.7436C30.7444 14.7435 30.6254 14.8269 30.5798 14.9606C29.8568 16.9376 28.3571 22.0002 30.0161 26.2752C30.331 27.1 29.9102 28.0244 29.0778 28.3411C28.2398 28.6522 27.296 28.2444 26.9811 27.4196C26.34 25.7586 26.0105 23.8919 26.0209 21.8696C26.0273 19.1062 26.6499 16.5608 27.1685 14.9179C27.197 14.8232 27.1463 14.7173 27.09 14.6392C27.0336 14.5612 26.9092 14.5053 26.8074 14.4941C26.3379 14.4546 25.8685 14.4039 25.382 14.37C24.4883 14.3133 23.8168 13.5493 23.8755 12.6691C23.9341 11.7889 24.7164 11.1212 25.6101 11.1779C26.3115 11.2232 27.0016 11.2908 27.7482 11.3585C29.0604 11.4825 30.2935 11.5952 31.2497 11.535C34.1128 11.3375 35.435 9.59512 35.7159 8.01876C36.0026 6.35884 35.2501 3.95125 32.1869 2.61085C26.2187 0.00820181 17.5426 6.31105 13.3578 10.4404C13.2955 10.5016 13.2613 10.5796 13.2611 10.6687L13.2189 28.8644C13.2187 28.9535 13.2524 29.0315 13.3145 29.0929C13.3484 29.1263 13.3879 29.1542 13.4388 29.171C15.6604 29.9367 20.3695 31.4627 27.0301 33.0967C31.9775 34.311 41.2884 34.8448 45.1951 31.0995C49.6121 26.8423 49.131 17.1645 47.8906 12.9346Z" stroke="#EFFE37" stroke-width="2"/>
<path d="M66.3167 3.97692C67.013 2.72498 67.9654 1.94958 69.1499 1.65881C75.0964 0.188792 85.5169 9.38045 86.6774 10.4385C86.7494 10.4951 86.7894 10.5839 86.7894 10.6808L86.7894 29.2742C86.7894 29.4115 86.7014 29.5326 86.5733 29.5811C84.3484 30.3646 79.6184 31.9234 72.9675 33.5873C70.8866 34.1042 68.0374 34.5 65.1402 34.5C61.1385 34.5 57.0567 33.7488 54.7998 31.5196C50.3739 27.158 50.8701 17.2394 52.1266 12.902C53.047 9.7116 54.7277 7.66812 57.1208 6.82003C60.8984 5.48732 66.3567 7.13503 72.4793 11.4885C73.2156 12.0055 74.2321 11.8278 74.7443 11.0928C74.9924 10.7293 75.0884 10.2932 75.0164 9.86507C74.9444 9.43699 74.7043 9.05736 74.3521 8.80698C71.631 6.87657 68.9818 5.40655 66.4848 4.44538C66.3967 4.41308 66.3247 4.34038 66.2927 4.25153C66.2607 4.16269 66.2687 4.05769 66.3167 3.97692Z" fill="#EFFE37"/>
<path d="M90.3666 11.4644L96.6253 11.4644C97.5217 11.4644 98.25 12.1994 98.25 13.104L98.25 27.3842C98.25 28.2888 97.5217 29.0238 96.6253 29.0238L90.3666 29.0238C90.1826 29.0238 90.0385 28.8703 90.0385 28.6926L90.0385 11.7955C90.0385 11.6097 90.1906 11.4644 90.3666 11.4644Z" fill="#EFFE37"/>
<path d="M66.3167 3.97692C67.013 2.72498 67.9654 1.94958 69.1499 1.65881C75.0964 0.188792 85.5169 9.38045 86.6774 10.4385C86.7494 10.4951 86.7894 10.5839 86.7894 10.6808L86.7894 29.2742C86.7894 29.4115 86.7014 29.5326 86.5733 29.5811C84.3484 30.3646 79.6184 31.9234 72.9675 33.5873C70.8866 34.1042 68.0374 34.5 65.1402 34.5C61.1385 34.5 57.0567 33.7488 54.7998 31.5196C50.3739 27.158 50.8701 17.2394 52.1266 12.902C53.047 9.7116 54.7277 7.66812 57.1208 6.82003C60.8984 5.48732 66.3567 7.13503 72.4793 11.4885C73.2156 12.0055 74.2321 11.8278 74.7443 11.0928C74.9924 10.7293 75.0884 10.2932 75.0164 9.86507C74.9444 9.43699 74.7043 9.05736 74.3521 8.80698C71.631 6.87657 68.9818 5.40655 66.4848 4.44538C66.3967 4.41308 66.3247 4.34038 66.2927 4.25153C66.2607 4.16269 66.2687 4.05769 66.3167 3.97692Z" stroke="#EFFE37" stroke-width="2"/>
<path d="M90.3666 11.4644L96.6253 11.4644C97.5217 11.4644 98.25 12.1994 98.25 13.104L98.25 27.3842C98.25 28.2888 97.5217 29.0238 96.6253 29.0238L90.3666 29.0238C90.1826 29.0238 90.0385 28.8703 90.0385 28.6926L90.0385 11.7955C90.0385 11.6097 90.1906 11.4644 90.3666 11.4644Z" stroke="#EFFE37" stroke-width="2"/>
</svg>
