<?xml version="1.0" encoding="utf-8"?>
<!-- Generator: Adobe Illustrator 25.1.0, SVG Export Plug-In . SVG Version: 6.00 Build 0)  -->
<svg width="current" height="current" version="1.1" id="Layer_1" xmlns="http://www.w3.org/2000/svg" xmlns:xlink="http://www.w3.org/1999/xlink" x="0px" y="0px"
	 viewBox="0 0 169 169" style="enable-background:new 0 0 169 169;" xml:space="preserve">
<style type="text/css">
	.st0{fill:#FF90E3;stroke:#14B5FF;stroke-width:9;}
</style>
<path class="st0" d="M266.1,83.3 M102.5,11.8c12.1,11.3,9.5,29.4-3.1,40.2c-5.4,5.2-9.1,9.3-8.2,15.8c4.6,1.8,8.6,5.6,10.4,10.2
	c6.3,0.1,7.9-0.2,15.5-8.7c10.5-13.3,28.5-16.3,39.8-4.1c15.8,15,5.1,45.9-17.5,45.4c-16.1,2.3-23.3-20.5-37.7-19.2
	c-1.6,4.8-5.4,8.7-10.2,10.4c-1,13.7,21.3,20.2,20.1,37.3c1,22.6-29.8,34-45.2,18.5c-7.9-7.1-10.1-19.3-5.6-28.8
	c3.6-9,19.1-16.5,17.3-27c-4.7-1.8-8.7-5.5-10.7-10.1c-10.8-1.6-17.5,13.2-26.3,17.3c-16.4,9.2-37.6-4.5-36.8-23.4
	C2.8,63.4,31.4,49.7,47,65.8c6.8,5.8,11.9,14,20.4,12.6c1.8-4.7,5.9-8.5,10.5-10.4c1.3-7.1-5.9-12.5-10.9-17.5
	C39.5,25.3,76.2-11.5,102.5,11.8L102.5,11.8z"/>
</svg>
