<svg width="248" height="517" viewBox="0 0 248 517" fill="none" xmlns="http://www.w3.org/2000/svg">
<rect width="248" height="517" rx="24" fill="#B484F1"/>
<path d="M102.333 469.3H94.0513C88.8625 469.3 84.6716 465.707 84.1726 460.518L83.1748 446.548C83.1748 438.265 89.9601 431.479 98.2423 431.479C106.524 431.479 113.31 438.265 113.31 446.548L112.312 460.518C111.613 465.109 107.522 469.3 102.333 469.3Z" fill="white"/>
<path d="M133.966 500.934C133.966 489.558 124.586 480.677 113.709 480.677H83.0756C71.7002 480.677 62.8193 490.057 62.8193 500.934V517H133.966V500.934Z" fill="white"/>
<path d="M185.554 469.3H177.272C172.083 469.3 167.892 465.707 167.393 460.518L166.396 446.548C166.396 438.265 173.181 431.479 181.463 431.479C189.745 431.479 196.53 438.265 196.53 446.548L195.533 460.518C194.834 465.109 190.743 469.3 185.554 469.3Z" fill="white"/>
<path d="M217.185 500.934C217.185 489.558 207.806 480.677 196.929 480.677H166.295C154.92 480.677 146.039 490.057 146.039 500.934V517H217.185V500.934Z" fill="white"/>
<path d="M63.1183 327C56.4327 327 51.0443 332.389 51.0443 339.075C51.0443 352.945 50.9446 366.816 51.0443 380.687C51.0443 387.772 54.1377 399.248 71.0012 402.641C73.0967 403.04 74.0945 400.745 72.6976 399.148C71.101 397.452 69.6042 395.356 68.4068 392.662H142.247C148.933 392.662 154.421 387.273 154.421 380.587V339.075C154.321 332.389 148.933 327 142.148 327H63.1183Z" fill="#F7FF7D"/>
<path d="M218.682 341.07C225.468 341.07 230.956 346.559 230.956 353.245C230.956 367.215 231.056 381.086 230.956 395.057C230.956 402.142 227.863 413.717 210.899 417.11C208.804 417.509 207.706 415.214 209.103 413.618C210.7 411.921 212.196 409.826 213.494 407.131H139.254C132.469 407.131 126.98 401.643 126.98 394.957V353.245C126.98 346.559 132.469 341.07 139.254 341.07H218.682Z" fill="#FF90E3"/>
<path d="M41.632 33.984H45.408V55.264H41.632V45.376H39.2V54.688H35.488V34.496H39.2V42.176H41.632V33.984ZM22.112 39.456V36.352H32.992V45.184H25.984V48.192C29.12 48.16 31.424 48.032 34.112 47.52L34.464 50.656C31.168 51.264 28.352 51.36 24.128 51.36H22.176V42.304H29.152V39.456H22.112ZM26.144 62.144V53.312H30.144V58.976H46.144V62.144H26.144ZM50.4968 35.616H63.4248V38.752H54.4008V46.464C58.9448 46.432 61.6648 46.272 64.7048 45.664L65.0568 48.8C61.6008 49.504 58.4648 49.632 52.7368 49.632H50.4968V35.616ZM53.8568 62.336V51.808H72.9288V62.336H53.8568ZM57.7608 59.232H69.0568V54.88H57.7608V59.232ZM62.0488 43.84V40.672H68.9288V33.984H72.9288V50.592H68.9288V43.84H62.0488ZM95.4895 34.016H99.4575V42.816H103.33V46.08H99.4575V55.456H95.4895V34.016ZM76.9615 40.16V37.056H83.3935V33.984H87.3615V37.056H93.8255V40.16H76.9615ZM78.3695 46.752C78.3695 43.456 81.2815 41.248 85.4095 41.248C89.5055 41.248 92.4175 43.456 92.4175 46.752C92.4175 50.048 89.5055 52.256 85.4095 52.256C81.2815 52.256 78.3695 50.048 78.3695 46.752ZM81.0575 62.144V53.824H85.0255V58.976H100.546V62.144H81.0575ZM82.1775 46.752C82.1775 48.352 83.4895 49.248 85.4095 49.248C87.2975 49.248 88.6095 48.352 88.6095 46.752C88.6095 45.152 87.2975 44.256 85.4095 44.256C83.4895 44.256 82.1775 45.152 82.1775 46.752ZM112.305 49.888H138.225V53.088H127.153V62.72H123.185V53.088H112.305V49.888ZM113.585 45.056C119.345 44.352 122.545 41.472 122.961 38.656H114.609V35.52H135.857V38.656H127.569C127.985 41.472 131.185 44.352 136.945 45.056L135.505 48.192C130.545 47.488 126.993 45.312 125.265 42.336C123.537 45.312 119.985 47.488 115.025 48.192L113.585 45.056ZM161.042 33.984H164.786V62.656H161.042V33.984ZM139.666 54.368C143.826 51.744 145.394 46.592 145.394 41.664V40.128H140.69V36.928H153.522V40.128H149.234V41.664C149.234 46.464 150.706 51.328 154.834 53.728L152.53 56.576C150.002 55.072 148.306 52.512 147.346 49.44C146.354 52.8 144.658 55.648 142.034 57.28L139.666 54.368ZM151.474 47.072V43.84H155.25V34.496H158.93V61.344H155.25V47.072H151.474Z" fill="white"/>
<path d="M22.296 89.698H29.658V96.574H22.296V89.698ZM23.7 101.362C23.7 99.454 25.716 98.338 28.956 98.338C32.196 98.338 34.212 99.454 34.212 101.362C34.212 103.252 32.196 104.368 28.956 104.368C25.716 104.368 23.7 103.252 23.7 101.362ZM23.916 95.278H28.056V90.994H23.916V95.278ZM25.302 101.362C25.302 102.442 26.67 103.072 28.956 103.072C31.224 103.072 32.574 102.442 32.574 101.362C32.574 100.264 31.224 99.67 28.956 99.67C26.67 99.67 25.302 100.264 25.302 101.362ZM32.394 97.834V88.51H34.05V92.362H36.318V93.73H34.05V97.834H32.394ZM45.5344 91.246H48.8644V88.51H50.5024V96.664H48.8644V92.596H45.5344V91.246ZM37.3624 95.422C39.8104 94.63 41.2684 92.65 41.2684 90.4V88.996H42.9064V90.4C42.9064 92.416 44.3824 94.342 46.7044 95.098L45.8584 96.358C44.1304 95.764 42.8164 94.558 42.1324 93.028C41.4484 94.738 40.0804 96.07 38.2264 96.7L37.3624 95.422ZM40.2244 98.734V97.438H50.5024V101.362H41.8624V102.874H51.0604V104.17H40.2424V100.138H48.8824V98.734H40.2244ZM57.5768 89.05C59.9528 89.05 61.7348 90.508 61.7348 92.596C61.7348 94.684 59.9528 96.124 57.5768 96.124C55.2008 96.124 53.4548 94.684 53.4548 92.596C53.4548 90.508 55.2008 89.05 57.5768 89.05ZM55.0388 92.596C55.0388 93.91 56.1368 94.792 57.5768 94.792C59.0528 94.792 60.1328 93.91 60.1328 92.596C60.1328 91.282 59.0528 90.382 57.5768 90.382C56.1368 90.382 55.0388 91.282 55.0388 92.596ZM55.8488 98.626V97.33H66.1808V101.308H57.4868V102.874H66.6848V104.17H55.8848V100.084H64.5428V98.626H55.8488ZM64.5248 96.592V88.51H66.1808V96.592H64.5248ZM84.4237 88.51H86.0977V96.7H84.4237V88.51ZM73.2817 94.882C73.8757 94.882 74.5237 94.882 75.2077 94.864V90.85H73.7137V89.554H82.2277V90.85H80.7337V94.648C81.5077 94.594 82.2457 94.522 82.9657 94.432L83.0557 95.62C79.8877 96.124 76.2337 96.214 73.4617 96.214L73.2817 94.882ZM75.6397 98.734V97.456H86.0977V101.38H77.2957V102.91H86.6377V104.224H75.6757V100.174H84.4597V98.734H75.6397ZM76.7917 94.828C77.5657 94.81 78.3577 94.792 79.1497 94.756V90.85H76.7917V94.828ZM88.7441 101.02H92.2001V96.826C90.9041 96.124 90.1121 94.99 90.1121 93.568C90.1121 91.066 92.5601 89.446 95.9081 89.446C99.3101 89.446 101.722 91.066 101.722 93.568C101.722 94.972 100.966 96.088 99.6881 96.808V101.02H103.126V102.37H88.7441V101.02ZM91.7141 93.568C91.7141 95.296 93.4601 96.394 95.9081 96.394C98.3741 96.394 100.12 95.296 100.12 93.568C100.12 91.84 98.3741 90.742 95.9081 90.742C93.4601 90.742 91.7141 91.84 91.7141 93.568ZM93.8201 101.02H98.0321V97.438C97.3841 97.6 96.6641 97.672 95.9081 97.672C95.1701 97.672 94.4681 97.6 93.8201 97.438V101.02ZM110.425 97.816H111.973V99.688H114.475V97.816H116.005V104.17H110.425V97.816ZM108.877 92.848C108.877 90.67 110.605 89.176 112.981 89.176C115.069 89.176 116.707 90.364 117.031 92.146H120.109V88.51H121.747V96.898H120.109V93.496H117.049C116.743 95.314 115.105 96.538 112.981 96.538C110.605 96.538 108.877 95.026 108.877 92.848ZM110.461 92.848C110.461 94.234 111.505 95.17 112.981 95.17C114.457 95.17 115.519 94.234 115.519 92.848C115.519 91.48 114.457 90.544 112.981 90.544C111.505 90.544 110.461 91.48 110.461 92.848ZM111.973 102.91H114.475V100.912H111.973V102.91ZM116.095 103.072C117.985 102.28 118.921 100.588 118.921 99.004V97.708H120.541V99.004C120.541 100.678 121.477 102.352 123.385 103.072L122.557 104.314C121.153 103.738 120.217 102.694 119.731 101.434C119.227 102.676 118.291 103.738 116.905 104.314L116.095 103.072ZM135.733 88.474H137.371V104.404H135.733V88.474ZM124.897 95.26C124.897 91.84 126.589 89.698 128.965 89.698C131.323 89.698 133.033 91.84 133.033 95.26C133.033 98.662 131.323 100.84 128.965 100.84C126.589 100.84 124.897 98.662 124.897 95.26ZM126.481 95.26C126.481 97.78 127.507 99.364 128.965 99.364C130.423 99.364 131.449 97.78 131.449 95.26C131.449 92.74 130.423 91.174 128.965 91.174C127.507 91.174 126.481 92.74 126.481 95.26ZM32.286 113.51H33.942V119.666H36.462V121.052H33.942V129.386H32.286V113.51ZM22.278 125.588V114.824H23.916V118.928H28.128V114.824H29.766V125.588H22.278ZM23.916 124.256H28.128V120.224H23.916V124.256ZM37.3984 126.11H43.7524V123.266H39.1624V118.244H48.4144V115.958H39.1264V114.626H50.0524V119.54H40.7824V121.934H50.4124V123.266H45.3904V126.11H51.7804V127.46H37.3984V126.11ZM59.0973 114.734H69.8973V116.066H60.7533V118.136H69.5553V119.432H60.7533V121.646H70.0593V122.96H65.2893V126.092H71.6613V127.442H57.2793V126.092H63.6333V122.96H59.0973V114.734ZM73.0117 122.492H79.3657V120.89H74.8657V116.822H83.9377V115.238H74.8297V113.978H85.5577V118.028H76.4677V119.63H85.8997V120.89H81.0217V122.492H87.3937V123.842H73.0117V122.492ZM74.8837 129.278V124.85H76.5217V127.964H85.9357V129.278H74.8837ZM100.12 113.474H101.758V129.404H100.12V113.474ZM89.2841 120.26C89.2841 116.84 90.9761 114.698 93.3521 114.698C95.7101 114.698 97.4201 116.84 97.4201 120.26C97.4201 123.662 95.7101 125.84 93.3521 125.84C90.9761 125.84 89.2841 123.662 89.2841 120.26ZM90.8681 120.26C90.8681 122.78 91.8941 124.364 93.3521 124.364C94.8101 124.364 95.8361 122.78 95.8361 120.26C95.8361 117.74 94.8101 116.174 93.3521 116.174C91.8941 116.174 90.8681 117.74 90.8681 120.26ZM119.227 113.474H120.901V119.846H123.349V121.214H120.901V129.368H119.227V113.474ZM108.661 125.156C112.621 123.14 114.781 120.242 115.105 116.516H109.435V115.184H116.761C116.761 119.756 114.745 123.824 109.579 126.416L108.661 125.156ZM126.283 113.816H127.921V117.812H137.101V119.144H126.283V113.816ZM124.375 122.204V120.872H138.721V122.204H124.375ZM126.067 126.416C126.067 124.58 128.119 123.536 131.521 123.536C134.905 123.536 136.975 124.58 136.975 126.416C136.975 128.27 134.905 129.332 131.521 129.332C128.119 129.332 126.067 128.27 126.067 126.416ZM127.723 126.416C127.723 127.46 129.127 128.036 131.521 128.036C133.915 128.036 135.301 127.46 135.301 126.416C135.301 125.372 133.915 124.814 131.521 124.814C129.127 124.814 127.723 125.372 127.723 126.416ZM150.8 113.51H152.456V118.64H154.742V120.008H152.456V125.408H150.8V113.51ZM140.126 116.678V115.364H143.996V113.51H145.634V115.364H149.504V116.678H140.126ZM140.99 120.476C140.99 118.676 142.556 117.488 144.806 117.488C147.074 117.488 148.64 118.676 148.64 120.476C148.64 122.276 147.074 123.446 144.806 123.446C142.556 123.446 140.99 122.276 140.99 120.476ZM142.502 129.044V124.472H144.122V127.694H153.14V129.044H142.502ZM142.556 120.476C142.556 121.52 143.474 122.186 144.806 122.186C146.156 122.186 147.056 121.52 147.056 120.476C147.056 119.414 146.156 118.766 144.806 118.766C143.474 118.766 142.556 119.414 142.556 120.476ZM21.666 147.492H36.03V148.842H29.622V154.386H28.002V148.842H21.666V147.492ZM22.494 144.936C25.41 144.54 27.894 142.74 27.93 140.778H22.998V139.464H34.662V140.778H29.766C29.802 142.74 32.286 144.54 35.202 144.936L34.59 146.268C32.052 145.854 29.82 144.558 28.848 142.74C27.876 144.558 25.644 145.854 23.106 146.268L22.494 144.936ZM49.3324 138.492H50.8984V154.368H49.3324V138.492ZM37.1644 150.03C39.3964 148.662 40.5304 145.782 40.5304 142.92V141.642H37.6324V140.292H44.8504V141.642H42.1324V142.92C42.1324 145.656 43.2304 148.392 45.4264 149.67L44.4364 150.876C42.9424 149.958 41.8984 148.338 41.3404 146.412C40.7824 148.5 39.7204 150.282 38.1724 151.254L37.1644 150.03ZM43.6624 145.494V144.144H46.1464V138.852H47.6764V153.576H46.1464V145.494H43.6624ZM53.1308 151.11H59.4848V148.266H54.8948V143.244H64.1468V140.958H54.8588V139.626H65.7848V144.54H56.5148V146.934H66.1448V148.266H61.1228V151.11H67.5128V152.46H53.1308V151.11ZM84.4057 138.51H86.0437V147.024H84.4057V138.51ZM73.3357 142.902C73.3357 140.742 75.0997 139.248 77.5117 139.248C79.9237 139.248 81.6877 140.742 81.6877 142.902C81.6877 145.08 79.9237 146.592 77.5117 146.592C75.0997 146.592 73.3357 145.08 73.3357 142.902ZM74.9377 142.902C74.9377 144.288 76.0177 145.206 77.5117 145.206C79.0057 145.206 80.0857 144.288 80.0857 142.902C80.0857 141.534 79.0057 140.598 77.5117 140.598C76.0177 140.598 74.9377 141.534 74.9377 142.902ZM75.7477 154.17V147.798H77.3857V149.598H84.4237V147.798H86.0437V154.17H75.7477ZM77.3857 152.856H84.4237V150.894H77.3857V152.856ZM89.1221 139.644H97.6361V140.976H94.2161V141.426C94.2161 143.442 95.6381 145.296 98.0141 146.088L97.2221 147.348C95.4401 146.772 94.1441 145.584 93.4421 144.054C92.7581 145.818 91.3721 147.204 89.4821 147.852L88.6541 146.556C91.1021 145.71 92.5781 143.658 92.5781 141.444V140.976H89.1221V139.644ZM90.7781 151.38C90.7781 149.508 92.7761 148.428 96.0161 148.428C99.2741 148.428 101.272 149.508 101.272 151.38C101.272 153.252 99.2741 154.35 96.0161 154.35C92.7761 154.35 90.7781 153.252 90.7781 151.38ZM92.3801 151.38C92.3801 152.46 93.7481 153.072 96.0161 153.072C98.3021 153.072 99.6521 152.46 99.6521 151.38C99.6521 150.318 98.3021 149.724 96.0161 149.724C93.7481 149.724 92.3801 150.318 92.3801 151.38ZM99.4541 148.032V138.51H101.11V142.452H103.396V143.802H101.11V148.032H99.4541ZM104.441 141.138H107.555V138.942H109.175V141.138H112.253V142.47H104.441V141.138ZM104.945 147.096C104.945 144.972 106.367 143.46 108.365 143.46C110.345 143.46 111.785 144.972 111.785 147.096C111.785 149.274 110.345 150.768 108.365 150.768C106.367 150.768 104.945 149.274 104.945 147.096ZM106.403 147.096C106.403 148.464 107.213 149.382 108.365 149.382C109.499 149.382 110.327 148.464 110.327 147.096C110.327 145.746 109.499 144.828 108.365 144.828C107.213 144.828 106.403 145.746 106.403 147.096ZM112.991 153.612V138.852H114.539V145.134H116.375V138.492H117.941V154.368H116.375V146.484H114.539V153.612H112.991ZM120.209 151.02H123.665V146.826C122.369 146.124 121.577 144.99 121.577 143.568C121.577 141.066 124.025 139.446 127.373 139.446C130.775 139.446 133.187 141.066 133.187 143.568C133.187 144.972 132.431 146.088 131.153 146.808V151.02H134.591V152.37H120.209V151.02ZM123.179 143.568C123.179 145.296 124.925 146.394 127.373 146.394C129.839 146.394 131.585 145.296 131.585 143.568C131.585 141.84 129.839 140.742 127.373 140.742C124.925 140.742 123.179 141.84 123.179 143.568ZM125.285 151.02H129.497V147.438C128.849 147.6 128.129 147.672 127.373 147.672C126.635 147.672 125.933 147.6 125.285 147.438V151.02Z" fill="white"/>
</svg>
