<svg width="current" height="current" viewBox="0 0 64 64" fill="none" xmlns="http://www.w3.org/2000/svg">
<circle cx="32" cy="32" r="32" fill="black" stroke="white"/>
<path d="M17 25.5704C17 22.4902 20.556 16.8452 23.3244 15.3352C26.6076 13.5444 31.2578 11.9997 34.8734 13.8075C38.2296 15.4856 42.2978 16.9867 42.2978 21.3083C42.2978 25.8289 37.4803 26.0696 34.3235 27.648C30.4885 29.5655 31.5737 36.5308 31.5737 39.8691" stroke="white" stroke-width="4" stroke-linecap="round"/>
<path d="M30.352 49C28.6546 49.1886 28.939 51.243 29.191 52.3914C29.5155 53.8696 31.3023 53.7591 32.4296 53.4607C33.7461 53.1122 34.4185 51.8065 33.6518 50.5887C32.7635 49.178 32.248 49 30.627 49" stroke="white" stroke-width="3" stroke-linecap="round"/>
</svg>
