<svg width="49" height="56" viewBox="0 0 49 56" fill="none" xmlns="http://www.w3.org/2000/svg">
<g clip-path="url(#clip0_173_3224)">
<path d="M29.954 16.66L32.074 14.54L33.489 15.954L31.359 18.074L29.954 16.66ZM30.9 22C30.4 19.15 27.95 17 25 17C22.05 17 19.55 19.15 19.1 22H30.9ZM15 24H35V28H15V24ZM24 12H26V15H24V12ZM16.54 15.925L17.954 14.51L20.076 16.632L18.661 18.047L16.54 15.925Z" fill="#C6C6C6"/>
</g>
<path d="M9.40734 42.73H10.6813V51.76H9.40734V42.73ZM0.629344 49.002C2.53334 48.274 3.68134 46.496 3.68134 44.648V43.402H4.96934V44.648C4.96934 46.44 6.11734 48.106 8.00734 48.778L7.33534 49.8C5.92134 49.268 4.88534 48.204 4.33934 46.846C3.80734 48.288 2.75734 49.45 1.30134 50.01L0.629344 49.002ZM2.68734 54.812V50.92H3.97534V53.762H11.0593V54.812H2.68734ZM13.9577 43.906H22.6657V45.124C22.6657 46.65 22.6657 48.358 22.2177 50.878L20.9297 50.738C21.3917 48.344 21.3917 46.608 21.3917 45.124V44.956H13.9577V43.906ZM12.7817 53.398V52.334H17.0377V47.966H18.3117V52.334H23.9537V53.398H12.7817ZM33.292 42.73H34.566V47.742H36.526V48.806H34.566V55.078H33.292V42.73ZM24.948 45.698V44.662H27.972V42.884H29.274V44.662H32.228V45.698H24.948ZM25.606 49.506C25.606 47.826 26.894 46.65 28.63 46.65C30.394 46.65 31.668 47.826 31.668 49.506C31.668 51.186 30.394 52.362 28.63 52.362C26.894 52.362 25.606 51.186 25.606 49.506ZM26.824 49.506C26.824 50.584 27.58 51.312 28.63 51.312C29.68 51.312 30.45 50.584 30.45 49.506C30.45 48.442 29.68 47.7 28.63 47.7C27.58 47.7 26.824 48.442 26.824 49.506ZM46.1303 42.716H47.4183V55.064H46.1303V42.716ZM37.3663 51.802C40.6423 50.22 42.2243 47.966 42.4763 45.068H37.9543V44.032H43.7643C43.7643 47.658 42.2383 50.78 38.0383 52.81L37.3663 51.802Z" fill="#C6C6C6"/>
<defs>
<clipPath id="clip0_173_3224">
<rect width="24" height="24" fill="white" transform="translate(13 8)"/>
</clipPath>
</defs>
</svg>
