<svg width="current" height="current" viewBox="0 0 115 126" fill="none" xmlns="http://www.w3.org/2000/svg">
<path d="M114.854 55.8779C115.495 57.9561 113.944 60.0618 111.771 60.0618H3.22857C1.05196 60.0618 -0.500124 57.9478 0.149117 55.8674L7.00511 33.8984C8.02733 30.6228 11.0567 28.3926 14.4838 28.3926H100.598C104.035 28.3926 107.07 30.6354 108.084 33.9238L114.854 55.8779Z" fill="#F4FB7A"/>
<path d="M94.0251 60.0619L60.0229 25.6942C58.4017 24.0556 55.7577 24.0535 54.134 25.6895L20.0188 60.0619H8.95898V122.769C8.95898 124.554 10.4035 126 12.1853 126H101.976C103.758 126 105.203 124.554 105.203 122.769V60.0619H94.0251Z" fill="#C6C6C6"/>
<path d="M57.0801 0V24.461" stroke="#464747" stroke-miterlimit="10"/>
<path d="M79.1434 11.6987H56.4355V0H79.1434L72.4369 5.90845L79.1434 11.6987Z" fill="#ABABAB"/>
<path d="M57.0801 72.3516C63.838 72.3516 69.3164 66.8494 69.3164 60.062C69.3164 53.2747 63.838 47.7725 57.0801 47.7725C50.3222 47.7725 44.8438 53.2747 44.8438 60.062C44.8438 66.8494 50.3222 72.3516 57.0801 72.3516Z" fill="#F4FB7A"/>
<path d="M30.3034 83.9316H19.617C18.3443 83.9316 17.3125 84.9648 17.3125 86.2393V93.2045C17.3125 94.479 18.3443 95.5122 19.617 95.5122H30.3034C31.5762 95.5122 32.6079 94.479 32.6079 93.2045V86.2393C32.6079 84.9648 31.5762 83.9316 30.3034 83.9316Z" fill="#E2E2E2"/>
<path d="M30.3034 102.248H19.617C18.3443 102.248 17.3125 103.281 17.3125 104.556V111.521C17.3125 112.795 18.3443 113.828 19.617 113.828H30.3034C31.5762 113.828 32.6079 112.795 32.6079 111.521V104.556C32.6079 103.281 31.5762 102.248 30.3034 102.248Z" fill="#E2E2E2"/>
<path d="M93.956 83.9316H83.2696C81.9968 83.9316 80.965 84.9648 80.965 86.2393V93.2045C80.965 94.479 81.9968 95.5122 83.2696 95.5122H93.956C95.2287 95.5122 96.2605 94.479 96.2605 93.2045V86.2393C96.2605 84.9648 95.2287 83.9316 93.956 83.9316Z" fill="#E2E2E2"/>
<path d="M93.956 102.248H83.2696C81.9968 102.248 80.965 103.281 80.965 104.556V111.521C80.965 112.795 81.9968 113.828 83.2696 113.828H93.956C95.2287 113.828 96.2605 112.795 96.2605 111.521V104.556C96.2605 103.281 95.2287 102.248 93.956 102.248Z" fill="#E2E2E2"/>
<path d="M57.0801 51.5537V60.0619H63.3159" stroke="#464747" stroke-miterlimit="10"/>
</svg>
