<svg width="current" height="current" viewBox="0 0 64 64" fill="none" xmlns="http://www.w3.org/2000/svg">
<circle cx="32" cy="32" r="32" fill="black" stroke="white"/>
<path d="M8.04732 24.1052C9.7127 23.7995 11.2462 22.9279 12.9008 22.5638C14.2602 22.2646 15.6489 21.891 16.9579 21.4505C17.9966 21.1009 19.0862 20.8312 20.0914 20.4038C21.2378 19.9165 22.4618 19.3593 23.6914 19.1336C24.0033 19.0763 24.4121 18.9083 24.7186 18.7958C25.0566 18.6717 25.4169 18.6172 25.7553 18.4913C26.9339 18.0529 28.2073 17.6693 29.4213 17.34C30.093 17.1578 30.829 16.8701 31.4569 16.5883C31.8042 16.4324 32.305 16.4836 32.6868 16.4836C33.6197 16.4836 34.3207 17.291 34.9156 17.9584C35.7088 18.8483 36.3324 19.8552 37.1774 20.7083C38.5642 22.1085 39.8047 23.7409 41.1261 25.2232C41.6948 25.8613 42.2233 26.5829 42.7329 27.269C43.2411 27.9531 43.953 28.6814 44.3491 29.4146C44.7925 30.2352 45.5972 30.8787 46.1303 31.6412C46.5243 32.2047 47.022 32.7134 47.4591 33.2349C47.8885 33.7472 48.3818 34.197 48.8021 34.7193C49.0285 35.0007 49.4281 35.1392 49.6078 35.4567C49.7946 35.7867 50.0415 36.1706 50.2675 36.4558C50.5316 36.7891 50.653 37.2837 50.9649 37.6357C51.0575 37.7402 51.2564 38.1696 51.3701 37.9782C51.373 37.9734 51.4391 38.3457 51.5209 38.4873C51.7097 38.8141 51.9593 39.131 52.1523 39.4721C52.3164 39.7621 52.9348 40.2519 52.7272 40.6329C52.0553 41.8664 50.1397 41.8113 49.0141 42.2172C48.4643 42.4154 47.8277 42.4343 47.2565 42.5645C46.9019 42.6454 46.5335 42.7738 46.1727 42.7738C45.9715 42.7738 45.6679 42.9425 45.4518 42.9879C45.0971 43.0625 44.7058 43.166 44.3491 43.202C44.0501 43.2322 43.7109 43.4036 43.4162 43.478C43.2671 43.5156 42.8684 43.5589 42.7565 43.6492C42.407 43.9315 41.7187 43.9608 41.2957 44.163C40.6537 44.4701 39.906 44.5179 39.2413 44.7244C38.7414 44.8797 38.0607 44.7883 37.6062 45.0432C37.2915 45.2197 36.7053 45.2871 36.3339 45.3857C35.8348 45.5184 35.2739 45.714 34.7648 45.7711C34.1159 45.8439 33.3345 46.2002 32.7292 46.4752C32.4732 46.5915 32.1881 46.6745 31.9093 46.7321C31.5729 46.8016 30.7531 46.8093 30.5239 47.0985C30.233 47.4656 29.8011 47.5815 29.5485 48.0405C29.3528 48.3962 29.3043 48.7558 29.148 49.1109C28.72 50.0831 28.9711 51.2742 28.6155 52.2794C28.4593 52.721 28.4749 53.2694 28.3988 53.7305C28.3854 53.8113 28.3279 54.2074 28.2763 54.2491C28.027 54.4504 28.2919 54.6366 27.97 54.3823C27.3225 53.8707 26.7718 53.3342 26.1982 52.7552C25.9411 52.4955 25.7691 52.148 25.482 51.9179C25.1618 51.6611 24.7905 51.3075 24.5867 50.9473C24.3114 50.461 23.8551 50.0723 23.5076 49.639C22.7809 48.7326 21.9737 47.9285 21.1563 47.1032C19.7908 45.7245 18.2289 44.5406 16.8777 43.1259C15.4359 41.6162 14.0524 40.0163 12.585 38.5349C12.1217 38.0671 11.7685 37.5286 11.3505 37.0362C10.9847 36.6053 10.6203 35.8469 10.1678 35.5614C9.72242 35.2804 9.59276 34.5273 9.14994 34.2293C8.78154 33.9813 8.60193 33.5035 8.30177 33.1826C8.13958 33.0092 7.99067 32.8404 7.83056 32.664C7.50786 32.3086 7.1048 31.9418 6.73265 31.6412C6.54819 31.4922 6.02376 30.8204 6.0117 30.6135C5.98515 30.1578 5.99745 29.7195 6.11537 29.2909C6.21867 28.9155 6.42192 28.4891 6.43579 28.1111C6.44862 27.7613 6.70934 27.4888 6.77035 27.15C6.84372 26.7426 6.96057 26.3506 7.03422 25.9416C7.07918 25.692 7.30424 24.7372 7.53841 24.619" stroke="white" stroke-width="2" stroke-linecap="round"/>
<path d="M9.74365 27.0168C10.0809 27.3373 10.4152 27.6473 10.7426 27.9778C10.9456 28.1828 11.0999 28.4309 11.3175 28.6106C11.7477 28.966 12.2517 29.3893 12.585 29.838C13.1461 30.5933 14.0872 31.0464 14.6159 31.8315C15.1288 32.5929 15.759 33.283 16.317 34.0342C16.5276 34.3178 16.8146 34.6344 16.9578 34.9477C17.1494 35.3668 17.5769 35.6197 17.8201 36.0086C18.1076 36.4681 18.5512 36.837 18.9228 37.2265C19.3119 37.6345 19.698 38.2245 20.1762 38.5349C20.6279 38.8281 21.0367 39.3513 21.4155 39.7338C21.7533 40.0748 22.1259 40.3749 22.4663 40.7186C22.8627 41.1189 23.2376 41.5305 23.6254 41.9365C23.9832 42.3111 24.3519 42.6667 24.7516 42.9927C24.9926 43.1892 25.1966 43.5899 25.4773 43.7158C25.7941 43.858 26.083 44.199 26.3254 44.4437C26.5066 44.6266 26.7615 44.7677 26.8768 45.0004" stroke="white" stroke-width="2" stroke-linecap="round"/>
<path d="M28.6579 55.6192C29.1875 55.6192 29.6751 55.4757 30.1846 55.3433C31.0547 55.1171 31.9218 54.9976 32.7763 54.7153C33.1291 54.5987 33.5287 54.5292 33.8977 54.5059C34.5419 54.4653 35.1744 54.1987 35.8203 54.1634C36.0997 54.1482 36.3577 54 36.6307 53.9921C37.0361 53.9804 37.4605 53.9314 37.8606 53.8589C39.4579 53.5694 41.1094 53.2164 42.681 52.7932C43.2061 52.6519 43.7486 52.365 44.302 52.365C44.7437 52.365 45.0777 52.0384 45.4706 52.0225C46.2202 51.9922 46.9179 51.4514 47.6758 51.4231C48.0912 51.4075 48.5067 51.3104 48.9104 51.2328C49.5367 51.1123 50.323 51.0805 50.9602 51.0805C51.5301 51.0805 52.1068 50.8821 52.6188 50.6523C52.8678 50.5406 53.4382 50.4639 53.5942 50.267C53.89 49.8937 54.1888 50.1573 53.8487 49.5391" stroke="white" stroke-width="2" stroke-linecap="round"/>
<path d="M52.1523 41.7462C52.1523 42.1739 52.0928 42.6615 52.157 43.0831C52.1754 43.2035 52.3724 44.1677 52.4492 44.2297C52.6479 44.3902 52.644 44.897 52.746 45.1288C52.8825 45.4389 52.9157 45.6875 52.9157 46.028C52.9157 47.3109 53.0005 48.6184 53.0005 49.8816" stroke="white" stroke-width="2" stroke-linecap="round"/>
<path d="M30.1846 49.2821C30.8446 49.2821 31.4091 49.0077 32.0318 48.873C32.3978 48.7938 32.7374 48.5727 33.1014 48.5162C33.4511 48.4619 33.8837 48.4465 34.2087 48.2973C34.9254 47.9684 35.8237 47.9028 36.5883 47.8216C37.2513 47.7511 37.9297 47.4347 38.5815 47.3982C39.3968 47.3524 40.213 46.9812 41.0224 46.8177C41.9895 46.6224 43.1365 46.4516 44.057 46.1136C44.56 45.9289 45.1598 45.8446 45.6638 45.7663C46.3658 45.6573 47.0437 45.4711 47.7418 45.3429" stroke="white" stroke-linecap="round"/>
<path d="M30.1846 51.1662C31.0695 50.7691 32.0821 50.5631 33.026 50.3479C33.662 50.2029 34.2972 49.8402 34.9533 49.796C35.3945 49.7663 35.9701 49.7046 36.3763 49.5201C36.9564 49.2565 37.7861 49.2743 38.3931 49.1109C39.3307 48.8585 40.3091 48.7801 41.2486 48.5543C42.0084 48.3716 42.9132 48.4267 43.6329 48.1499C44.1454 47.9528 44.7778 47.7516 45.3292 47.6503C45.8693 47.5512 46.4198 47.3422 46.9785 47.3126C47.2934 47.2958 47.7071 47.2417 47.9963 47.1223C48.3415 46.9796 48.8287 46.7987 49.1837 46.7987" stroke="white" stroke-linecap="round"/>
<path d="M29.9302 53.2214C30.2517 52.9558 30.8124 52.9293 31.2024 52.7932C31.7522 52.6015 32.2943 52.4186 32.8611 52.2794C33.9441 52.0135 35.0213 51.73 36.1171 51.5087C37.1061 51.309 38.0646 50.953 39.0433 50.719C40.0292 50.4832 41.0676 50.2594 42.0685 50.091C44.0404 49.7591 45.9982 49.0151 48.0151 48.9396C48.8877 48.907 49.6788 48.4258 50.5408 48.4258" stroke="white" stroke-linecap="round"/>
<path d="M8.98028 23.1632C8.72819 23.1314 8.6277 22.5955 8.42425 22.4781C8.16974 22.3313 7.7359 21.7493 7.6232 21.4933C7.46578 21.1357 6.98302 20.5334 6.64309 20.3372C6.48364 20.2452 6.20957 20.009 6.09649 19.8662C5.97421 19.7119 7.25617 19.2066 7.48184 19.1003C8.07131 18.8225 8.7548 18.6469 9.23944 18.2392C9.72643 17.8294 10.3709 17.5985 10.9122 17.2543C11.288 17.0155 12.2674 18.0091 12.6274 18.1963C13.1024 18.4434 13.5318 18.7648 13.9845 19.0337C14.2098 19.1675 14.5365 19.3316 14.6819 19.5665C14.9171 19.9465 15.5613 20.0958 15.7657 20.5085" stroke="white" stroke-width="1.5" stroke-linecap="round"/>
<path d="M19.1584 20.0803C18.7925 19.7109 18.1272 19.4131 17.8673 18.967C17.6829 18.6506 17.2211 18.2956 16.9531 18.0251C16.7168 17.7864 16.4785 17.5545 16.2746 17.2971C16.108 17.0868 15.9874 17.0758 16.2746 16.9308C16.9033 16.6134 17.6239 16.493 18.2914 16.2933C18.5925 16.2032 19.2556 16.1311 19.4788 15.9508C19.6231 15.8342 19.9554 15.672 20.1338 15.632C20.3995 15.5724 20.3071 15.7337 20.5155 15.8651C20.7319 16.0017 20.8887 16.2023 21.0621 16.3932C21.2649 16.6167 21.5692 16.7156 21.7877 16.9118C22.1681 17.2532 22.5781 17.519 22.8903 17.9394" stroke="white" stroke-width="1.5" stroke-linecap="round"/>
<path d="M41.1526 9.80529C40.9315 9.55822 40.5903 9.01309 40.5132 8.66602C40.4376 8.32576 40.5401 8.04496 40.7144 7.73123C41.152 6.94356 42.135 7.00093 42.9183 7.00093C43.7564 7.00093 44.3429 7.68074 44.7489 8.31872C44.9862 8.69158 45.09 9.23716 45.2423 9.65599C45.479 10.3069 45.9234 10.9819 46.3199 11.5483C47.1186 12.6893 48.0894 13.7119 48.8192 14.9012C49.6682 16.2849 50.055 17.9097 50.7926 19.3414C50.9836 19.7121 51.082 20.1319 51.2795 20.5099C51.3909 20.7232 51.514 20.9267 51.6138 21.1428C51.8629 21.6826 52.1499 22.2404 52.5226 22.7008C53.0812 23.3909 53.6375 24.2249 53.9767 25.054C54.2933 25.8279 54.5874 26.6292 54.9375 27.3877C55.0401 27.61 55.0873 27.8686 55.2328 28.0661C55.4537 28.3659 55.6394 28.7713 55.7879 29.1178C55.8783 29.3287 56.0031 29.4694 56.054 29.6988C56.1078 29.9407 56.2136 30.183 56.2715 30.4291C56.3498 30.7617 56.3705 31.0866 56.4597 31.4158C56.5493 31.7461 56.7128 32.0664 56.6934 32.4155C56.6745 32.7573 56.3481 33.2544 56.5474 33.6132C56.6413 33.7823 56.6495 34.0141 56.6902 34.1974C56.7209 34.3355 56.8137 34.6094 56.661 34.3694C56.4327 34.0107 55.9277 33.6833 55.5379 33.5255C55.0657 33.3344 54.6501 33.0784 54.2266 32.779C53.9182 32.561 53.3016 32.4564 53.1166 32.1234C52.6373 31.2607 52.2344 30.3041 51.6949 29.4748C50.9937 28.397 50.4891 27.1835 49.7474 26.1122C49.5521 25.8299 49.3539 25.4477 49.1892 25.1417C48.9934 24.7781 48.8221 24.3848 48.6341 24.0089C48.358 23.4565 48.1375 22.8692 47.8973 22.3016C47.6331 21.6771 47.302 21.0876 47.0145 20.4742C46.4843 19.3431 45.9303 18.2263 45.3884 17.1051C44.8 15.8878 44.2413 14.6155 43.522 13.473C43.4089 13.2933 43.2899 13.0585 43.2104 12.8563C43.1016 12.5793 42.8825 12.3384 42.7755 12.0709C42.649 11.7547 42.3909 11.4794 42.2042 11.1945C42.0587 10.9724 41.893 10.7696 41.7563 10.5518C41.6449 10.3743 41.3279 10.146 41.3279 9.92214" stroke="white" stroke-width="1.5" stroke-linecap="round"/>
<path d="M52.8375 31.247C53.0645 31.247 53.1844 31.0973 53.3763 31.0263C53.7376 30.8924 54.0557 30.6751 54.3435 30.4161C54.5521 30.2283 55.0987 29.9032 55.4081 29.9032" stroke="white" stroke-linecap="round"/>
<path d="M41.7953 9.80528C41.9603 9.78694 42.0778 9.6005 42.2043 9.52614C42.4889 9.35871 42.7618 9.15095 43.0482 8.98734C43.3393 8.82095 43.6191 8.64782 43.8986 8.46152" stroke="white" stroke-linecap="round"/>
</svg>
