<svg width="247" height="248" viewBox="0 0 247 248" fill="none" xmlns="http://www.w3.org/2000/svg">
<rect width="247" height="248" rx="24" fill="#F7FF7D"/>
<path d="M238 160.699H84L94.6723 126.399C95.9689 122.099 99.9585 119.199 104.447 119.199H217.453C221.942 119.199 225.931 122.099 227.328 126.399L238 160.699Z" fill="#B684F1"/>
<path d="M208.975 160.701L164.391 115.701C162.297 113.601 158.806 113.501 156.711 115.701L111.927 160.701H97.3652V226.501C97.3652 237.801 106.541 247.001 117.812 247.001H203.19C214.461 247.001 223.637 237.801 223.637 226.501V160.701H208.975Z" fill="white"/>
<path d="M161.997 82H159.005V114H161.997V82Z" fill="#B684F1"/>
<path d="M188.728 97.3H158.905V82H188.728L179.951 89.7L188.728 97.3Z" fill="#B684F1"/>
<path d="M160.501 176.8C169.378 176.8 176.559 169.6 176.559 160.7C176.559 151.8 169.378 144.6 160.501 144.6C151.624 144.6 144.442 151.8 144.442 160.7C144.442 169.6 151.624 176.8 160.501 176.8Z" fill="#B684F1"/>
<path d="M128.484 191.1H114.421C111.13 191.1 108.437 193.8 108.437 197.1V201.2C108.437 204.5 111.13 207.2 114.421 207.2H128.484C131.776 207.2 134.469 204.5 134.469 201.2V197.1C134.469 193.7 131.776 191.1 128.484 191.1Z" fill="#14B5FF"/>
<path d="M205.883 191.1H191.819C188.528 191.1 185.835 193.8 185.835 197.1V201.2C185.835 204.5 188.528 207.2 191.819 207.2H205.883C209.174 207.2 211.867 204.5 211.867 201.2V197.1C211.867 193.7 209.274 191.1 205.883 191.1Z" fill="#14B5FF"/>
<path d="M128.484 214.5H114.421C111.13 214.5 108.437 217.2 108.437 220.5V224.6C108.437 227.9 111.13 230.6 114.421 230.6H128.484C131.776 230.6 134.469 227.9 134.469 224.6V220.5C134.469 217.2 131.776 214.5 128.484 214.5Z" fill="#14B5FF"/>
<path d="M205.883 214.5H191.819C188.528 214.5 185.835 217.2 185.835 220.5V224.6C185.835 227.9 188.528 230.6 191.819 230.6H205.883C209.174 230.6 211.867 227.9 211.867 224.6V220.5C211.867 217.2 209.274 214.5 205.883 214.5Z" fill="#14B5FF"/>
<path d="M21.024 36.544H27.456V33.824H31.424V36.544H37.888V39.68H21.024V36.544ZM22.432 45.92C22.432 42.752 25.312 40.64 29.472 40.64C33.6 40.64 36.48 42.752 36.48 45.92C36.48 49.088 33.6 51.2 29.472 51.2C25.312 51.2 22.432 49.088 22.432 45.92ZM24.448 56.352V53.184H43.52V62.688H39.552V56.352H24.448ZM26.24 45.92C26.24 47.392 27.52 48.224 29.472 48.224C31.36 48.224 32.672 47.392 32.672 45.92C32.672 44.416 31.36 43.648 29.472 43.648C27.52 43.648 26.24 44.416 26.24 45.92ZM39.552 51.968V34.016H43.52V41.44H47.392V44.672H43.52V51.968H39.552ZM51.4888 36.448H72.5128V39.296C72.5128 42.816 72.5128 46.752 71.4888 52.512L67.5528 52.096C68.4808 46.88 68.5128 43.008 68.5128 39.648H51.4888V36.448ZM48.9928 59.168V55.904H54.5288V46.848H58.4328V55.904H61.6008V46.848H65.5048V55.904H74.9128V59.168H48.9928ZM82.1455 35.712H85.9855V39.072C85.9855 42.176 87.5855 45.28 91.3295 46.784L89.2495 49.792C86.8175 48.832 85.1535 47.104 84.1295 44.992C83.0735 47.488 81.2815 49.536 78.6255 50.688L76.5455 47.648C80.4815 45.888 82.1455 42.336 82.1455 39.072V35.712ZM81.7615 57.312C81.7615 53.984 85.6015 51.968 91.6175 51.968C97.6015 51.968 101.442 53.984 101.442 57.312C101.442 60.672 97.6015 62.688 91.6175 62.688C85.6015 62.688 81.7615 60.672 81.7615 57.312ZM85.7295 57.312C85.7295 58.88 87.8415 59.712 91.6175 59.712C95.3615 59.712 97.4735 58.88 97.4735 57.312C97.4735 55.776 95.3615 54.976 91.6175 54.976C87.8415 54.976 85.7295 55.776 85.7295 57.312ZM91.4575 50.656V34.56H95.1695V41.056H97.5375V34.016H101.314V51.552H97.5375V44.256H95.1695V50.656H91.4575ZM123.618 33.984H127.586V40.832H131.266V44.096H127.586V50.848H123.618V33.984ZM104.578 47.872C106.658 47.872 109.026 47.872 111.522 47.808V46.464C108.418 46.08 106.498 44.768 106.498 42.784C106.498 40.448 109.218 39.04 113.442 39.04C117.698 39.04 120.418 40.448 120.418 42.784C120.418 44.768 118.53 46.048 115.458 46.432V47.648C117.794 47.52 120.13 47.328 122.338 47.04L122.626 49.44C116.578 50.496 109.954 50.56 104.994 50.56L104.578 47.872ZM105.314 38.464V35.808H111.522V33.728H115.458V35.808H121.602V38.464H105.314ZM108.386 54.56V51.936H127.586V58.336H112.354V59.84H128.61V62.464H108.418V55.904H123.682V54.56H108.386ZM110.274 42.784C110.274 43.68 111.458 44.096 113.442 44.096C115.49 44.096 116.642 43.68 116.642 42.784C116.642 41.92 115.49 41.472 113.442 41.472C111.458 41.472 110.274 41.92 110.274 42.784Z" fill="black"/>
</svg>
