<svg width="current" height="current">
 <metadata/>
 <g className="layer">
  <title>Layer 1</title>
  <g id="svg_1">
   <g id="svg_9" stroke="white">
    <path d="m48.39,27.28l-3.23,-3.86c-1.67,-2.1 -3.35,-4.21 -4.94,-6.29l-6.41,-8.58l0.8,-0.51l-5.47,-7.58l-10.24,6.59l5.47,7.58l0.91,-0.58l4.63,6.37c1.35,1.88 2.7,3.8 4.02,5.72c1.64,2.38 3.25,4.83 4.81,7.27l10.79,16.96c-5.04,-1.19 -10.89,-1.67 -16.58,-0.02c-14.31,4.14 -21.45,19.94 -21.75,20.61l-0.56,1.27l1.23,0.75c0.53,0.32 10.96,6.58 22.57,6.58c2.58,0 5.23,-0.31 7.84,-1.06c7.78,-2.25 13.42,-7.94 17.01,-12.77c1.3,2.01 3.4,3.45 5.81,3.94c0.62,0.13 1.25,0.19 1.87,0.19c1.67,0 3.29,-0.46 4.66,-1.36c1.93,-1.23 3.18,-3.11 3.53,-5.32c0.37,-2.32 -0.35,-4.72 -1.95,-6.57l-24.8,-29.31zm-24.61,-19.37l4.42,-2.84l1.52,2.11l-4.42,2.84l-1.52,-2.11zm20.62,27.94l-2.62,-4.13c-1.6,-2.48 -3.23,-4.96 -4.88,-7.37c-1.33,-1.94 -2.7,-3.87 -4.06,-5.79l-4.65,-6.4l2.71,-1.75l6.42,8.6c1.62,2.13 3.31,4.25 5.02,6.4l6.25,7.4l-0.03,0.01c-0.01,0.21 -0.47,1.09 -1.76,1.92c-1.29,0.83 -2.33,0.91 -2.32,1.03l-0.09,0.06zm4.94,7.78l-3.16,-4.97c0.87,-0.24 1.77,-0.62 2.63,-1.17c0.86,-0.55 1.54,-1.22 2.1,-1.92l3.74,4.43l-0.02,0.01c0.01,0.26 -0.51,1.38 -2.19,2.46c-1.68,1.08 -2.97,1.14 -3.09,1.16zm-34.24,27.31c0.57,-1.09 1.58,-2.8 2.91,-4.72l2.35,7.09c-2.28,-0.88 -4.12,-1.78 -5.26,-2.37zm8.6,3.53l-3.64,-10.96c0.51,-0.62 1.02,-1.24 1.59,-1.86l4.48,13.49c-0.84,-0.21 -1.65,-0.43 -2.43,-0.67zm17.52,0.86c-3.96,1.14 -8.09,1.09 -11.92,0.47l-5.43,-16.39c2.78,-2.54 6.16,-4.77 10.11,-5.91c3.96,-1.15 8.09,-1.09 11.92,-0.47l5.44,16.39c-2.78,2.53 -6.15,4.76 -10.11,5.91zm12.33,-8.14l-4.48,-13.5c0.84,0.21 1.65,0.43 2.43,0.67l3.64,10.97c-0.5,0.62 -1.02,1.24 -1.59,1.86zm3.65,-4.57l-2.35,-7.09c2.28,0.88 4.12,1.78 5.26,2.38c-0.57,1.09 -1.58,2.8 -2.91,4.72zm14.44,0.07c-0.2,1.28 -0.92,2.37 -2.04,3.08c-1.08,0.7 -2.43,0.94 -3.76,0.67c-1.49,-0.31 -2.8,-1.22 -3.6,-2.5l-0.83,-1.32c1.63,-2.6 2.51,-4.52 2.61,-4.74l0.56,-1.27l-1.23,-0.75c-0.3,-0.18 -3.75,-2.24 -8.77,-4.01l-3.34,-5.26c1.03,-0.26 2.13,-0.71 3.21,-1.41c1.11,-0.71 1.98,-1.53 2.61,-2.36l13.38,15.84c0.99,1.14 1.44,2.61 1.21,4.02z" id="svg_2"/>
    <path d="m70.36,70.49c-3.36,1.46 -7.56,0.71 -10.23,-1.82l-2.52,2.31c2.43,2.31 5.79,3.54 9.13,3.54c1.75,0 3.49,-0.34 5.09,-1.04c0.76,-0.32 1.48,-0.72 2.15,-1.19l-2.12,-2.64c-0.46,0.32 -0.95,0.59 -1.5,0.83z" id="svg_3"/>
    <path d="m78.1,11.44c-1.72,-3.7 -4.87,-6.55 -8.89,-8.03c-4.01,-1.48 -8.4,-1.41 -12.36,0.19c-3.96,1.61 -7.01,4.56 -8.59,8.31c-1.58,3.75 -1.51,7.85 0.21,11.55c1.72,3.7 4.87,6.55 8.89,8.03c1.92,0.71 3.93,1.06 5.93,1.06c2.18,0 4.37,-0.42 6.43,-1.25c3.96,-1.61 7.01,-4.56 8.59,-8.31c1.58,-3.75 1.51,-7.85 -0.21,-11.55zm-8.23,-4.02c1.7,0.97 3.09,2.3 4.13,3.89l-5.48,2.22c-0.38,-2.12 0.11,-4.26 1.35,-6.11zm-6.59,-1.77c1.09,0 2.17,0.18 3.24,0.45c-1.62,2.67 -2.1,5.79 -1.33,8.78l-0.99,0.4l-4.25,-9.15c1.1,-0.28 2.21,-0.48 3.33,-0.48zm-12.12,14.92c-0.57,-1.93 -0.6,-3.92 -0.1,-5.86c2.32,0.51 4.31,1.78 5.65,3.61l-5.55,2.25zm5.92,7.11c-1.86,-0.98 -3.4,-2.37 -4.51,-4.08l5.55,-2.25c0.52,2.16 0.15,4.39 -1.04,6.33zm-4.68,-16.11c1.05,-1.7 2.52,-3.1 4.31,-4.12l4.25,9.16l-0.9,0.36c-1.72,-2.66 -4.47,-4.57 -7.66,-5.4zm8.06,17.34c1.53,-2.74 1.92,-5.92 1.01,-8.92l0.9,-0.36l4.25,9.15c-2.02,0.52 -4.12,0.57 -6.16,0.13zm9.4,-1.44l-4.25,-9.15l0.86,-0.35c1.63,2.75 4.33,4.79 7.51,5.72c-1.03,1.55 -2.44,2.82 -4.12,3.78zm5.53,-6.89c-2.35,-0.6 -4.34,-2.01 -5.61,-3.96l5.62,-2.28c0.61,2.05 0.6,4.19 -0.02,6.24z" id="svg_4"/>
    <polygon id="svg_5" points="45.42880630493164,58.98779301894927 42.0546875,59.96794017089149 42.433982849121094,61.1121886414823 41.12050247192383,61.49261775459643 40.74015426635742,60.34525564814356 37.36585235595703,61.325402800085776 37.74532699584961,62.47013420195315 36.430442810058594,62.85073488275764 36.049564361572266,61.70270556862004 32.67544174194336,62.68285907492116 33.05526351928711,63.828257684473265 31.74196434020996,64.2086867975874 31.360910415649414,63.060161843455425 27.986610412597656,64.04048056308801 28.366613388061523,65.18603803161267 27.379352569580078,65.47202230836382 28.424789428710938,68.6255190638214 29.41257667541504,68.33953478707025 29.742660522460938,69.33479895884074 33.11696243286133,68.35464545253961 32.78775405883789,67.36185312638207 34.101234436035156,66.9815828722405 34.431488037109375,67.97734268400535 37.805789947509766,66.99718917770423 37.476234436035156,66.00406642488377 38.79093933105469,65.62330688510673 39.12031936645508,66.616766418949 42.494441986083984,65.63644134495752 42.1661262512207,64.64594929672256 43.47959518432617,64.26552653796733 43.80897521972656,65.25930378975471 47.18327331542969,64.27899142448103 46.85459899902344,63.28816259522426 47.84220886230469,63.00218467283201 46.79694747924805,59.84869427173333 45.809329986572266,60.13467219412558 "/>
    <path d="m17.47,46.34c2.73,0 5.34,-0.89 7.46,-2.54c2.39,-1.87 3.85,-4.49 4.12,-7.39c0.56,-5.98 -4.19,-11.27 -10.58,-11.8c-3.11,-0.26 -6.12,0.63 -8.51,2.5c-2.39,1.87 -3.85,4.49 -4.12,7.39c-0.28,2.9 0.68,5.72 2.68,7.95c2,2.23 4.81,3.6 7.91,3.85c0.35,0.03 0.7,0.04 1.04,0.04zm5.35,-11.27c0.13,-1.34 0.65,-2.59 1.45,-3.67c0.93,1.36 1.43,2.99 1.26,4.71c-0.13,1.35 -0.66,2.61 -1.47,3.69c-0.95,-1.39 -1.4,-3.04 -1.24,-4.73zm-11.97,4.73c-1.11,-1.46 -1.66,-3.21 -1.49,-5.02c0.14,-1.52 0.75,-2.93 1.75,-4.09c1.09,1.43 1.64,3.17 1.5,4.96c-0.12,1.53 -0.75,2.96 -1.76,4.15zm3.02,-11.14c1.11,-0.51 2.31,-0.8 3.56,-0.8c0.24,0 0.48,0.01 0.73,0.03c1.32,0.11 2.52,0.53 3.57,1.15c-1.38,1.64 -2.23,3.62 -2.43,5.74c-0.25,2.62 0.55,5.16 2.16,7.26c-1.42,0.76 -3.05,1.11 -4.72,0.97c-1.19,-0.1 -2.3,-0.45 -3.3,-0.98c1.54,-1.73 2.51,-3.84 2.69,-6.12c0.21,-2.62 -0.63,-5.16 -2.26,-7.24z" id="svg_6"/>
    <path d="m18.62,22.99l0.31,-3.29c-7.03,-0.59 -13.54,2.85 -16.65,8.74l3.17,1.46c2.46,-4.66 7.62,-7.36 13.18,-6.92z" id="svg_7"/>
    <path d="m0.67,33.47l3.5,0.41c0.11,-0.83 0.32,-1.66 0.6,-2.45l-3.35,-1.06c-0.36,1 -0.62,2.04 -0.76,3.1z" id="svg_8"/>
   </g>
  </g>
 </g>
</svg>