<svg width="248" height="249" viewBox="0 0 248 249" fill="none" xmlns="http://www.w3.org/2000/svg">
<rect width="248" height="248" rx="24" fill="#464747"/>
<path d="M31.744 35.648H35.968V37.728C35.968 42.016 39.68 46.464 46.048 47.552L44.32 50.848C39.392 49.856 35.712 47.072 33.856 43.392C31.968 47.04 28.288 49.856 23.36 50.848L21.664 47.552C27.968 46.464 31.744 41.92 31.744 37.728V35.648ZM21.024 59.104V55.872H46.976V59.104H21.024ZM48.9928 56.192H59.9048V50.944H51.1368V47.808H54.9448V39.552H51.0088V36.384H72.7688V39.552H68.8328V47.808H72.7048V50.944H63.8728V56.192H74.9448V59.424H48.9928V56.192ZM58.9448 47.808H64.8968V39.552H58.9448V47.808ZM76.9615 56.064H102.914V59.328H76.9615V56.064ZM77.8575 49.056C84.3215 48.16 87.6175 44.64 87.8735 41.12H79.2015V37.952H87.9375V34.432H91.9055V37.952H100.642V41.12H91.9695C92.2255 44.64 95.5215 48.16 101.954 49.056L100.482 52.256C95.4255 51.488 91.8095 49.184 89.9215 46.048C88.0335 49.184 84.3855 51.488 79.3295 52.256L77.8575 49.056ZM121.841 41.536L121.809 45.888L125.905 44.576L126.897 47.712L122.833 48.96L125.521 52.608L122.961 54.656L120.177 50.944L117.393 54.656L114.897 52.576L117.553 48.96L113.457 47.712L114.481 44.576L118.513 45.888L118.481 41.536H121.841ZM137.462 48H163.414V51.136H152.63V56.16H148.63V51.136H137.462V48ZM140.118 40.48C140.118 36.864 144.246 34.528 150.39 34.528C156.566 34.528 160.694 36.864 160.694 40.48C160.694 44.096 156.566 46.4 150.39 46.4C144.246 46.4 140.118 44.096 140.118 40.48ZM140.502 62.144V53.6H144.502V58.976H160.566V62.144H140.502ZM144.374 40.48C144.374 42.272 146.71 43.264 150.39 43.264C154.102 43.264 156.438 42.272 156.438 40.48C156.438 38.656 154.102 37.696 150.39 37.696C146.71 37.696 144.374 38.656 144.374 40.48ZM165.462 47.584H176.406V45.12H168.598V35.264H188.246V38.4H172.502V41.952H188.406V45.12H180.374V47.584H191.35V50.72H165.462V47.584ZM168.374 57.472C168.374 54.112 172.118 52.192 178.294 52.192C184.502 52.192 188.246 54.112 188.246 57.472C188.246 60.832 184.502 62.72 178.294 62.72C172.118 62.72 168.374 60.832 168.374 57.472ZM172.374 57.472C172.374 59.008 174.422 59.712 178.294 59.712C182.23 59.712 184.246 59.008 184.246 57.472C184.246 55.936 182.23 55.2 178.294 55.2C174.422 55.2 172.374 55.936 172.374 57.472Z" fill="white"/>
<path d="M218.489 157.013C228.795 154.216 235.999 144.828 235.999 134.141V118.06C235.999 109.271 231.096 101.281 223.292 97.1862C212.986 91.693 197.576 86 178.365 86C159.053 86 143.644 91.693 133.338 97.1862C125.533 101.281 120.63 109.271 120.63 118.06V134.141C120.63 144.828 127.834 154.216 138.14 157.013L174.162 166.9C176.864 167.699 179.766 167.699 182.567 166.9L218.489 157.013Z" fill="#7A48DE"/>
<path d="M167.259 157.811H154.852L155.752 169.197H167.659L167.259 157.811Z" fill="#B484F1"/>
<path d="M200.879 169.197L201.779 157.811H189.372L188.972 169.197H200.879Z" fill="#B484F1"/>
<path d="M167.76 172.193H156.053L157.253 188.174H168.26L167.76 172.193Z" fill="#B484F1"/>
<path d="M185.971 169.197L186.371 157.811H170.262L170.662 169.197H185.971Z" fill="#B484F1"/>
<path d="M157.554 191.17L158.554 203.555H168.76L168.36 191.17H157.554Z" fill="#B484F1"/>
<path d="M171.262 188.174H185.371L185.871 172.193H170.762L171.262 188.174Z" fill="#B484F1"/>
<path d="M171.361 191.17L171.762 203.555H184.869L185.27 191.17H171.361Z" fill="#B484F1"/>
<path d="M188.372 188.174H199.279V189.073L200.579 172.193H188.872L188.372 188.174Z" fill="#B484F1"/>
<path d="M187.871 203.555H198.177L199.078 191.17H188.271L187.871 203.555Z" fill="#B484F1"/>
<path d="M188.973 169.197L189.373 157.811H186.371L185.971 169.197H170.662L170.262 157.811H167.26L167.66 169.197H155.753L155.953 172.193H167.66L168.16 188.173H157.154L157.354 191.169H168.16L168.561 203.554H171.562L171.162 191.169H185.071L184.67 203.554H187.672L188.072 191.169H199.079L199.279 189.072V188.173H188.373L188.873 172.193H200.58L200.78 169.197H188.973ZM185.371 188.173H171.262L170.762 172.193H185.871L185.371 188.173Z" fill="#7A48DE"/>
<path d="M201.28 147.125H155.352C152.35 147.125 149.849 149.622 149.849 152.618C149.849 155.615 152.35 158.111 155.352 158.111H201.28C204.281 158.111 206.783 155.615 206.783 152.618C206.783 149.622 204.281 147.125 201.28 147.125Z" fill="#5523BE"/>
<path d="M193.774 108.273H162.855C158.553 108.273 155.051 111.769 155.051 116.064V128.948C155.051 133.243 158.553 136.738 162.855 136.738H193.774C198.077 136.738 201.579 133.243 201.579 128.948V116.064C201.579 111.769 198.077 108.273 193.774 108.273Z" fill="#5523BE"/>
<ellipse cx="106.022" cy="211.845" rx="36.0217" ry="35.9557" fill="#F7FF7D"/>
<path d="M96.616 213.444H70C70.4002 224.331 75.8035 234.019 83.8083 240.311C91.7131 233.02 96.2158 223.532 96.616 213.444Z" fill="#F7FF7D"/>
<path d="M99.7182 210.448H112.626C113.026 199.561 117.629 189.474 125.834 181.683C120.13 177.988 113.426 175.891 106.122 175.891C98.8176 175.891 92.1136 177.988 86.4102 181.683C94.7152 189.474 99.3179 199.561 99.7182 210.448Z" fill="#F7FF7D"/>
<path d="M115.728 210.447H142.344C141.943 199.56 136.54 189.872 128.535 183.58C120.63 190.771 116.128 200.26 115.728 210.447Z" fill="#F7FF7D"/>
<path d="M83.9079 183.48C75.803 189.773 70.4999 199.461 70.0996 210.347H96.7156C96.2153 200.26 91.7126 190.771 83.9079 183.48Z" fill="#F7FF7D"/>
<path d="M112.625 213.444H99.7177C99.3175 224.331 94.7147 234.418 86.5098 242.209C92.2132 245.904 98.9172 248.002 106.222 248.002C113.526 248.002 120.23 245.904 125.934 242.209C117.629 234.319 113.026 224.231 112.625 213.444Z" fill="#F7FF7D"/>
<path d="M128.435 240.311C136.54 234.019 141.843 224.331 142.244 213.444H115.728C116.128 223.532 120.63 233.02 128.435 240.311Z" fill="#F7FF7D"/>
<path d="M142.344 210.449H115.728C116.128 200.261 120.631 190.773 128.435 183.582C127.635 182.983 126.734 182.284 125.834 181.784C117.629 189.575 113.026 199.662 112.626 210.549H99.7179C99.3177 199.662 94.7149 189.575 86.5099 181.784C85.6094 182.383 84.8089 182.983 83.9084 183.582C91.7131 190.873 96.2158 200.261 96.616 210.449H70C70 210.948 70 211.448 70 211.947C70 212.446 70 212.946 70 213.445H96.616C96.2158 223.633 91.7131 233.121 83.9084 240.312C84.7089 240.911 85.6094 241.61 86.5099 242.11C94.7149 234.319 99.3177 224.232 99.7179 213.345H112.626C113.026 224.232 117.629 234.319 125.834 242.11C126.734 241.511 127.535 240.911 128.435 240.312C120.631 233.021 116.128 223.633 115.728 213.445H142.344C142.344 212.946 142.344 212.446 142.344 211.947C142.344 211.348 142.344 210.848 142.344 210.449Z" fill="#D7E33B"/>
</svg>
