<svg width="current" height="current" viewBox="0 0 136 128" fill="none" xmlns="http://www.w3.org/2000/svg">
<path fill-rule="evenodd" clip-rule="evenodd" d="M6.48089 54.0156H14.5875C15.3698 54.0156 16.004 54.6496 16.004 55.4317V58.3284C16.004 59.0854 15.4098 59.7037 14.6623 59.7425C14.7364 59.9713 14.7764 60.2155 14.7764 60.469C14.7764 61.012 14.964 61.5384 15.3074 61.9591L20.3421 68.1267C20.9612 68.8851 21.2993 69.8339 21.2993 70.8128V123.516C21.2993 125.863 19.3969 127.765 17.05 127.765H4.24932C1.90249 127.765 0 125.863 0 123.516V70.7887C0 69.8245 0.328065 68.889 0.930286 68.1359L5.87157 61.9566C6.20705 61.5371 6.3898 61.016 6.3898 60.4789C6.3898 60.2225 6.43058 59.9757 6.506 59.7445H6.48089C5.69862 59.7445 5.06445 59.1105 5.06445 58.3284V55.4317C5.06445 54.6496 5.69862 54.0156 6.48089 54.0156Z" fill="#E2E2E2"/>
<path d="M37.3822 96.941C36.4456 95.0999 34.5545 93.9404 32.4885 93.9404H22.0479C19.9819 93.9404 18.0908 95.0999 17.1541 96.941L11.3047 108.438C10.5112 109.998 10.509 111.842 11.2987 113.404L17.1572 124.988C18.0916 126.835 19.9862 128 22.057 128H32.4794C34.5501 128 36.4447 126.835 37.3791 124.988L43.2376 113.404C44.0273 111.842 44.0251 109.998 43.2317 108.438L37.3822 96.941Z" fill="#B484F1"/>
<path d="M31.5881 104.515C28.8442 104.515 26.6084 107.361 26.6084 110.92C26.6084 114.478 28.8442 117.325 31.5881 117.325H58.4177V104.515H31.5881Z" fill="#E2E2E2"/>
<path d="M68.6831 96.941C67.7464 95.0999 65.8553 93.9404 63.7893 93.9404H53.2471C51.1811 93.9404 49.29 95.0999 48.3533 96.941L42.5039 108.438C41.7104 109.998 41.7082 111.842 42.4979 113.404L48.3564 124.988C49.2908 126.835 51.1854 128 53.2562 128H63.7802C65.851 128 67.7456 126.835 68.6799 124.988L74.5385 113.404C75.3282 111.842 75.3259 109.998 74.5325 108.438L68.6831 96.941Z" fill="#B484F1"/>
<path d="M125.514 44.3896C128.985 43.4336 131.39 40.2769 131.39 36.6768V17.4438C131.39 14.9322 130.233 12.5436 128.134 11.1647C121.589 6.86546 108.536 0 90.9479 0C73.2903 0 60.2874 6.86217 53.7597 11.1616C51.6621 12.5432 50.5059 14.9322 50.5059 17.4439V36.6768C50.5059 40.2769 52.9107 43.4336 56.3816 44.3896L90.9479 53.9097L125.514 44.3896Z" fill="#ABABAB"/>
<path d="M104.836 82.1717H77.0588L74.5078 50H107.387L104.836 82.1717Z" fill="#ABABAB"/>
<path d="M96.549 82.1717L97.5933 50M85.3461 82.1717L84.3018 50" stroke="#919191" stroke-miterlimit="10"/>
<path d="M75.208 59.0918H106.688M76.2448 72.3801H105.557" stroke="#919191" stroke-miterlimit="10"/>
<path d="M109.18 43H72.7146C71.7731 43 71.0098 43.7631 71.0098 44.7045V48.9888C71.0098 49.9301 71.7731 50.6932 72.7146 50.6932H109.18C110.121 50.6932 110.884 49.9301 110.884 48.9888V44.7045C110.884 43.7631 110.121 43 109.18 43Z" fill="#C6C6C6"/>
<path d="M104.722 15.6719H77.8004C76.2312 15.6719 74.959 16.9437 74.959 18.5126V32.8905C74.959 34.4594 76.2312 35.7313 77.8004 35.7313H104.722C106.291 35.7313 107.563 34.4594 107.563 32.8905V18.5126C107.563 16.9437 106.291 15.6719 104.722 15.6719Z" fill="#C6C6C6"/>
<path d="M136 108.833C136 119.131 127.65 127.478 117.351 127.478C107.051 127.478 98.7012 119.131 98.7012 108.833C98.7012 98.5361 107.051 90.1885 117.351 90.1885C127.65 90.1885 136 98.5361 136 108.833Z" fill="#F4FB7A"/>
<path d="M136 108.833H98.7012M117.351 127.478V90.1885" stroke="#919191"/>
<path d="M104.617 122.334C108.183 118.938 110.405 114.145 110.405 108.833C110.405 103.52 108.183 98.7271 104.617 95.3311M130.34 122.334C126.775 118.938 124.553 114.145 124.553 108.833C124.553 103.52 126.775 98.7271 130.34 95.3311" stroke="#919191"/>
</svg>
