<svg width="80" height="80" xmlns="http://www.w3.org/2000/svg">
 <g className="layer">
  <title>Layer 1</title>
  <g id="svg_6" stroke="white">
   <path d="m15.25,50.3c0.08,0 0.15,0 0.24,-0.02c0.74,-0.11 1.28,-0.7 1.3,-1.38c0.27,-0.68 1.86,-2.85 3.26,-4.51c0.52,-0.63 0.41,-1.54 -0.27,-2.03c-0.67,-0.49 -1.64,-0.38 -2.17,0.25c-4.14,4.96 -3.96,5.98 -3.88,6.47c0.12,0.71 0.77,1.22 1.52,1.22z" id="svg_1"/>
   <path d="m40.44,55.54c-0.16,-0.61 -0.73,-1.04 -1.39,-1.08c-0.25,-0.02 -24.6,-1.48 -27.67,2.54c-0.45,0.59 -0.58,1.29 -0.37,1.97c0.32,3.65 2.05,6.51 5.03,8.26c3.53,2.09 8.6,2.47 13.58,1.11l0.16,1.54c0.1,0.91 0.54,1.74 1.26,2.35c0.72,0.61 1.64,0.94 2.61,0.94c1.07,0 2.06,-0.39 2.8,-1.11c0.74,-0.71 1.13,-1.66 1.1,-2.67l-0.2,-5.05c2.85,-2.54 3.93,-5.64 3.07,-8.8l0,-0.01zm-5.64,7.07c-0.36,0.29 -0.55,0.7 -0.53,1.15l0.22,5.72c0,0.28 -0.14,0.47 -0.23,0.56c-0.09,0.09 -0.29,0.23 -0.6,0.23c-0.27,0 -0.44,-0.11 -0.54,-0.19c-0.14,-0.13 -0.24,-0.3 -0.26,-0.49l-0.35,-3.35c-0.05,-0.45 -0.32,-0.86 -0.73,-1.09c-0.25,-0.14 -0.52,-0.21 -0.8,-0.21c-0.2,0 -0.38,0.03 -0.56,0.1c-4.6,1.7 -9.59,1.61 -12.72,-0.25c-2.19,-1.3 -3.41,-3.39 -3.62,-6.21l0,-0.03c2.17,-1.3 14.1,-1.77 23.56,-1.28c0.17,2.37 -1.39,4.19 -2.83,5.35l-0.01,0z" id="svg_2"/>
   <path d="m36.11,47.31c5.68,0 10.3,-4.82 10.3,-10.74s-4.62,-10.75 -10.3,-10.75s-10.3,4.82 -10.3,10.75s4.62,10.74 10.3,10.74zm0,-18.61c3.99,0 7.22,3.52 7.22,7.86s-3.24,7.85 -7.22,7.85s-7.22,-3.52 -7.22,-7.85s3.24,-7.86 7.22,-7.86z" id="svg_3"/>
   <path d="m71.18,24.38c5.32,-1.76 7.75,-8.23 5.43,-14.42l0,0c-2.33,-6.19 -8.56,-9.79 -13.89,-8.03c-2.94,0.97 -4.99,3.39 -5.85,6.39c-2.91,-1.89 -6.44,-3.42 -10.59,-4.56c-0.42,-0.12 -0.87,-0.06 -1.24,0.15c-0.37,0.21 -0.63,0.57 -0.71,0.97c-0.02,0.11 -0.05,0.19 -0.07,0.3c-6.04,-3.09 -14.19,-2.51 -20.63,0.65c-5.97,2.95 -8.72,8.09 -9.98,12.05c-0.83,0.1 -1.72,0.13 -2.61,0.05c-0.71,-0.08 -1.38,0.32 -1.61,0.94c-1.19,3.12 -2.25,7.57 -2.85,10.3c-1.15,1.14 -1.88,2.73 -1.88,4.49c0,0.83 0.16,1.62 0.44,2.34c-2.02,10.04 -5.64,30.96 -1.58,35.38c3.53,3.85 21.3,7.11 32.88,7.11c4.41,0 7.91,-0.47 9.4,-1.56c3.7,-2.71 7.3,-12.9 8.91,-17.95c1.02,0.57 2.45,0.91 4.42,0.76c3.42,-0.27 6.86,-3.45 8.75,-6.47c1.86,-2.98 2.33,-5.92 1.28,-8.07c-1.02,-2.07 -3.15,-3.43 -5.93,-3.83c2.59,-6.23 3.73,-11.81 3.42,-16.72c0.56,0.11 1.14,0.15 1.7,0.15c0.94,0 1.89,-0.14 2.8,-0.44l-0.01,-0.01zm-11.54,17.7s-0.03,0.06 -0.04,0.1c-0.24,0.54 -0.1,1.16 0.34,1.58c0.08,0.08 0.16,0.13 0.26,0.19c0.03,0.02 0.06,0.03 0.09,0.05c0.06,0.04 0.13,0.07 0.21,0.09c0.03,0.01 0.07,0.02 0.1,0.03c0.07,0.02 0.14,0.04 0.22,0.05c0.03,0 0.06,0 0.09,0c0.04,0 0.08,0.01 0.11,0.01c0.05,0 0.1,0 0.15,-0.01c0,0 0.02,0 0.03,0c1.3,-0.03 4.15,0.16 5.19,2.27c0.62,1.25 0.18,3.27 -1.14,5.41c-1.7,2.72 -4.43,4.9 -6.35,5.05l0,0c-2.91,0.23 -3.27,-1.06 -3.29,-1.16c-0.09,-0.68 -0.69,-1.21 -1.43,-1.26c-0.74,-0.05 -1.4,0.4 -1.59,1.07c-1.8,6.27 -5.73,17 -8.66,19.15c-3.5,2.57 -33.8,-0.55 -38.03,-5.16c-2.38,-2.59 -0.63,-17.62 1.8,-30.47c0.89,0.54 1.94,0.86 3.05,0.86c3.33,0 6.04,-2.79 6.04,-6.23s-2.71,-6.23 -6.04,-6.23c-0.22,0 -0.42,0.01 -0.63,0.04c0.5,-2.11 1.14,-4.58 1.84,-6.62c2.91,0.04 5.44,-0.79 6.72,-1.28c1.91,1.1 3.79,1.4 5.6,0.89c2.56,-0.72 4.22,-2.95 5.09,-4.45c2.1,0.82 4.09,0.93 5.94,0.33c2.52,-0.82 4.05,-2.78 4.79,-3.98c3.3,0.1 5.73,-1.8 6.87,-5.39c3.79,1.18 6.94,2.73 9.46,4.62c0,0.09 0,0.16 0,0.25l-6.96,2.96c-2.94,1.25 -3.31,4.32 -2.16,6.71c0.89,1.84 2.71,3.31 4.84,3.31c0.63,0 1.29,-0.13 1.96,-0.41l6.68,-2.84c0.83,0.78 1.74,1.43 2.69,1.94c0.67,5.2 -0.61,11.41 -3.83,18.54l0,0.01zm-51.86,-8.39c0,-1.84 1.32,-3.34 2.96,-3.34s2.96,1.5 2.96,3.34s-1.32,3.34 -2.96,3.34s-2.96,-1.5 -2.96,-3.34zm31.68,-24.27c-0.72,-0.12 -1.42,0.25 -1.69,0.89c-0.01,0.03 -1.15,2.59 -3.49,3.34c-1.4,0.45 -3.03,0.17 -4.86,-0.81c-0.39,-0.21 -0.86,-0.25 -1.29,-0.11c-0.42,0.14 -0.76,0.46 -0.92,0.86c-0.38,0.95 -1.81,3.57 -3.82,4.14c-1.09,0.31 -2.28,0 -3.64,-0.93c-0.47,-0.32 -1.09,-0.37 -1.61,-0.12c-0.01,0 -0.34,0.15 -0.88,0.36c1.29,-3.08 3.63,-6.55 7.82,-8.61c5.73,-2.82 13,-3.34 18.13,-0.48c-1.28,1.89 -3.04,1.61 -3.74,1.49l0.01,-0.01zm17.84,6.94c0.39,1.05 0.9,2.02 1.5,2.91l-5.97,2.54c-1.65,0.7 -2.68,-1.37 -2.72,-1.46c-0.04,-0.09 -1.03,-2.18 0.62,-2.88l6.11,-2.6c0.12,0.5 0.28,1 0.46,1.5l0,-0.01zm2.91,-0.96c-1.77,-4.69 -0.17,-9.5 3.55,-10.73c0.6,-0.19 1.2,-0.29 1.82,-0.29c3.26,0 6.65,2.62 8.13,6.55c1.77,4.69 0.17,9.5 -3.55,10.73c-3.72,1.23 -8.19,-1.58 -9.95,-6.27z" id="svg_4"/>
   <path d="m50.48,35.64c-0.85,0.03 -1.51,0.7 -1.48,1.5c0.14,3.62 -1.11,7.08 -3.37,9.28c-1.21,1.17 -2.32,1.6 -2.91,1.6c-0.85,0 -1.54,0.64 -1.54,1.44s0.69,1.44 1.54,1.44c1.64,0 3.51,-0.9 5.13,-2.48c2.87,-2.79 4.41,-6.95 4.22,-11.4c-0.03,-0.8 -0.75,-1.4 -1.6,-1.39l0.01,0z" id="svg_5"/>
  </g>
 </g>
</svg>