<svg width="345" height="64" viewBox="0 0 345 64" fill="none" xmlns="http://www.w3.org/2000/svg">
<path d="M131.464 11.5636C131.16 10.6478 130.78 9.80823 130.324 9.12134C129.868 8.43445 129.337 7.82388 128.653 7.28963C128.273 6.98435 127.893 6.67906 127.438 6.4501C126.982 6.14482 126.45 5.91585 125.766 5.68689C125.083 5.45793 124.399 5.30528 123.564 5.15264C122.728 5 121.741 5 120.601 5H116.423C114.6 5.07632 113.081 6.60274 113.081 8.43445V20.0353C113.081 21.867 114.6 23.3934 116.423 23.3934H120.905V25.3014C120.905 25.7593 121.285 26.0646 121.741 25.9883C124.247 25.6067 131.919 23.6987 131.919 15.227C131.919 15.227 131.919 14.7691 131.919 14.4638C131.919 13.548 131.767 12.4795 131.464 11.5636ZM118.322 15.0744C117.867 15.0744 117.487 14.6928 117.487 14.2349C117.487 13.7769 117.867 13.3953 118.322 13.3953C118.778 13.3953 119.158 13.7769 119.158 14.2349C119.158 14.6928 118.778 15.0744 118.322 15.0744ZM122.5 15.0744C122.044 15.0744 121.665 14.6928 121.665 14.2349C121.665 13.7769 122.044 13.3953 122.5 13.3953C122.956 13.3953 123.336 13.7769 123.336 14.2349C123.336 14.6928 122.956 15.0744 122.5 15.0744ZM126.678 15.0744C126.222 15.0744 125.842 14.6928 125.842 14.2349C125.842 13.7769 126.222 13.3953 126.678 13.3953C127.134 13.3953 127.514 13.7769 127.514 14.2349C127.514 14.6928 127.134 15.0744 126.678 15.0744Z" fill="white"/>
<path d="M148.687 6.908H153.511V4.868H156.487V6.908H161.335V9.26H148.687V6.908ZM149.743 13.94C149.743 11.564 151.903 9.98 155.023 9.98C158.119 9.98 160.279 11.564 160.279 13.94C160.279 16.316 158.119 17.9 155.023 17.9C151.903 17.9 149.743 16.316 149.743 13.94ZM151.255 21.764V19.388H165.559V26.516H162.583V21.764H151.255ZM152.599 13.94C152.599 15.044 153.559 15.668 155.023 15.668C156.439 15.668 157.423 15.044 157.423 13.94C157.423 12.812 156.439 12.236 155.023 12.236C153.559 12.236 152.599 12.812 152.599 13.94ZM162.583 18.476V5.012H165.559V10.58H168.463V13.004H165.559V18.476H162.583ZM171.536 6.836H187.304V8.972C187.304 11.612 187.304 14.564 186.536 18.884L183.584 18.572C184.28 14.66 184.304 11.756 184.304 9.236H171.536V6.836ZM169.664 23.876V21.428H173.816V14.636H176.744V21.428H179.12V14.636H182.048V21.428H189.104V23.876H169.664ZM194.528 6.284H197.408V8.804C197.408 11.132 198.608 13.46 201.416 14.588L199.856 16.844C198.032 16.124 196.784 14.828 196.016 13.244C195.224 15.116 193.88 16.652 191.888 17.516L190.328 15.236C193.28 13.916 194.528 11.252 194.528 8.804V6.284ZM194.24 22.484C194.24 19.988 197.12 18.476 201.632 18.476C206.12 18.476 209 19.988 209 22.484C209 25.004 206.12 26.516 201.632 26.516C197.12 26.516 194.24 25.004 194.24 22.484ZM197.216 22.484C197.216 23.66 198.8 24.284 201.632 24.284C204.44 24.284 206.024 23.66 206.024 22.484C206.024 21.332 204.44 20.732 201.632 20.732C198.8 20.732 197.216 21.332 197.216 22.484ZM201.512 17.492V5.42H204.296V10.292H206.072V5.012H208.904V18.164H206.072V12.692H204.296V17.492H201.512ZM225.633 4.988H228.609V10.124H231.369V12.572H228.609V17.636H225.633V4.988ZM211.353 15.404C212.913 15.404 214.689 15.404 216.561 15.356V14.348C214.233 14.06 212.793 13.076 212.793 11.588C212.793 9.836 214.833 8.78 218.001 8.78C221.193 8.78 223.233 9.836 223.233 11.588C223.233 13.076 221.817 14.036 219.513 14.324V15.236C221.265 15.14 223.017 14.996 224.673 14.78L224.889 16.58C220.353 17.372 215.385 17.42 211.665 17.42L211.353 15.404ZM211.905 8.348V6.356H216.561V4.796H219.513V6.356H224.121V8.348H211.905ZM214.209 20.42V18.452H228.609V23.252H217.185V24.38H229.377V26.348H214.233V21.428H225.681V20.42H214.209ZM215.625 11.588C215.625 12.26 216.513 12.572 218.001 12.572C219.537 12.572 220.401 12.26 220.401 11.588C220.401 10.94 219.537 10.604 218.001 10.604C216.513 10.604 215.625 10.94 215.625 11.588Z" fill="white"/>
<path d="M1.012 47.772H4.228V46.412H6.212V47.772H9.444V49.34H1.012V47.772ZM1.716 52.46C1.716 50.876 3.156 49.82 5.236 49.82C7.3 49.82 8.74 50.876 8.74 52.46C8.74 54.044 7.3 55.1 5.236 55.1C3.156 55.1 1.716 54.044 1.716 52.46ZM2.724 57.676V56.092H12.26V60.844H10.276V57.676H2.724ZM3.62 52.46C3.62 53.196 4.26 53.612 5.236 53.612C6.18 53.612 6.836 53.196 6.836 52.46C6.836 51.708 6.18 51.324 5.236 51.324C4.26 51.324 3.62 51.708 3.62 52.46ZM10.276 55.484V46.508H12.26V50.22H14.196V51.836H12.26V55.484H10.276ZM16.2444 47.724H26.7564V49.148C26.7564 50.908 26.7564 52.876 26.2444 55.756L24.2764 55.548C24.7404 52.94 24.7564 51.004 24.7564 49.324H16.2444V47.724ZM14.9964 59.084V57.452H17.7644V52.924H19.7164V57.452H21.3004V52.924H23.2524V57.452H27.9564V59.084H14.9964ZM39.3808 46.492H41.2528V60.828H39.3808V46.492ZM29.0768 52.716C29.0768 49.484 30.2928 47.516 32.1808 47.516C33.8928 47.516 35.0608 49.116 35.2688 51.804H36.4528V46.732H38.3088V60.172H36.4528V53.404H35.2848C35.1248 56.22 33.9408 57.9 32.1808 57.9C30.2928 57.9 29.0768 55.948 29.0768 52.716ZM30.8848 52.716C30.8848 54.924 31.3648 56.028 32.1808 56.028C33.0128 56.028 33.4928 54.924 33.4928 52.716C33.4928 50.492 33.0128 49.388 32.1808 49.388C31.3648 49.388 30.8848 50.492 30.8848 52.716ZM50.1491 51.02H52.9651V46.476H54.9331V60.86H52.9651V52.62H50.1491V51.02ZM42.7571 56.348C45.1571 55.228 46.3091 52.46 46.3091 49.74V47.612H48.2931V49.74C48.2931 52.444 49.3811 55.068 51.7331 56.124L50.5491 57.708C48.9811 56.94 47.9091 55.5 47.3171 53.724C46.6931 55.596 45.5891 57.132 43.9891 57.932L42.7571 56.348ZM58.5495 47.004H60.5335V50.412H68.4695V51.98H58.5495V47.004ZM56.9495 55.1V53.516H69.9255V55.1H56.9495ZM58.4215 60.54V56.268H60.4055V58.94H68.5495V60.54H58.4215ZM84.4774 46.476H86.4774V60.86H84.4774V46.476ZM75.0054 52.604C75.0054 49.468 76.6054 47.5 78.7814 47.5C80.9414 47.5 82.5254 49.468 82.5254 52.604C82.5254 55.756 80.9414 57.724 78.7814 57.724C76.6054 57.724 75.0054 55.756 75.0054 52.604ZM76.9254 52.604C76.9254 54.748 77.6774 55.932 78.7814 55.932C79.8694 55.932 80.6214 54.748 80.6214 52.604C80.6214 50.46 79.8694 49.292 78.7814 49.292C77.6774 49.292 76.9254 50.46 76.9254 52.604ZM99.0218 46.492H100.91V60.828H99.0218V46.492ZM88.4138 56.46C91.3098 54.732 92.5738 52.636 92.8458 49.788H89.1978V48.204H94.7978C94.7978 49.564 94.6538 50.844 94.3018 52.028H95.9978V46.812H97.8538V60.188H95.9978V53.612H93.6938C92.8778 55.244 91.5498 56.668 89.5338 57.852L88.4138 56.46ZM106.71 47.42H113.51V53.724H106.71V47.42ZM107.542 59.292C110.118 58.972 111.526 57.916 111.83 56.796H108.15V55.228H117.734V56.796H114.086C114.406 57.884 115.83 58.972 118.326 59.308L117.622 60.812C115.382 60.508 113.766 59.58 112.95 58.348C112.15 59.58 110.55 60.492 108.262 60.796L107.542 59.292ZM108.662 52.156H111.574V49.004H108.662V52.156ZM115.558 54.54V46.508H117.542V49.644H119.462V51.26H117.542V54.54H115.558ZM124.086 47.5C126.262 47.5 127.83 49.468 127.83 52.604C127.83 55.756 126.262 57.724 124.086 57.724C121.91 57.724 120.342 55.756 120.342 52.604C120.342 49.468 121.91 47.5 124.086 47.5ZM122.246 52.604C122.246 54.748 122.982 55.932 124.086 55.932C125.19 55.932 125.942 54.748 125.942 52.604C125.942 50.46 125.19 49.292 124.086 49.292C122.982 49.292 122.246 50.46 122.246 52.604ZM129.478 60.844V46.508H131.462V51.948H133.574V53.58H131.462V60.844H129.478ZM136.854 57.932L135.654 61.9H134.246L134.886 57.932H136.854ZM152.793 46.476H154.761V60.86H152.793V53.116H150.217V51.516H152.793V46.476ZM142.553 56.62C144.921 55.5 146.105 52.764 146.105 50.108V49.484H143.129V47.884H151.081V49.484H148.105V50.108C148.105 52.62 149.289 55.26 151.657 56.332L150.505 57.884C148.873 57.1 147.753 55.612 147.129 53.788C146.521 55.74 145.385 57.34 143.721 58.172L142.553 56.62ZM167.194 46.492H169.082V60.828H167.194V46.492ZM156.586 56.46C159.482 54.732 160.746 52.636 161.018 49.788H157.37V48.204H162.97C162.97 49.564 162.826 50.844 162.474 52.028H164.17V46.812H166.026V60.188H164.17V53.612H161.866C161.05 55.244 159.722 56.668 157.706 57.852L156.586 56.46ZM174.882 47.42H181.682V53.724H174.882V47.42ZM175.714 59.292C178.29 58.972 179.698 57.916 180.002 56.796H176.322V55.228H185.906V56.796H182.258C182.578 57.884 184.002 58.972 186.498 59.308L185.794 60.812C183.554 60.508 181.938 59.58 181.122 58.348C180.322 59.58 178.722 60.492 176.434 60.796L175.714 59.292ZM176.834 52.156H179.746V49.004H176.834V52.156ZM183.73 54.54V46.508H185.714V49.644H187.634V51.26H185.714V54.54H183.73ZM192.258 47.5C194.434 47.5 196.002 49.468 196.002 52.604C196.002 55.756 194.434 57.724 192.258 57.724C190.082 57.724 188.514 55.756 188.514 52.604C188.514 49.468 190.082 47.5 192.258 47.5ZM190.418 52.604C190.418 54.748 191.154 55.932 192.258 55.932C193.362 55.932 194.114 54.748 194.114 52.604C194.114 50.46 193.362 49.292 192.258 49.292C191.154 49.292 190.418 50.46 190.418 52.604ZM197.65 60.844V46.508H199.634V51.948H201.746V53.58H199.634V60.844H197.65ZM205.122 56.268C205.122 54.252 205.826 53.26 206.834 52.508C207.618 51.916 208.226 51.564 208.226 50.812C208.226 49.612 207.394 48.924 206.178 48.924C205.378 48.924 204.69 49.42 204.402 50.508L202.482 50.028C202.962 48.108 204.626 46.94 206.178 46.94C208.242 46.94 210.21 48.54 210.21 50.812C210.21 52.188 208.786 53.532 208.018 54.108C207.33 54.62 207.106 54.94 207.106 56.268H205.122ZM205.026 58.86C205.026 58.268 205.41 57.788 206.114 57.788C206.818 57.788 207.186 58.268 207.186 58.86C207.186 59.468 206.818 59.948 206.114 59.948C205.41 59.948 205.026 59.468 205.026 58.86ZM224.431 46.476H226.415V51.82H228.527V53.452H226.415V60.86H224.431V46.476ZM215.775 57.404V47.836H222.447V49.42H217.743V55.756C219.823 55.74 221.535 55.644 223.423 55.308L223.615 56.94C221.439 57.34 219.487 57.404 216.975 57.404H215.775ZM233.184 47.292C235.392 47.292 237.056 48.732 237.056 50.764C237.056 52.78 235.392 54.22 233.184 54.22C230.96 54.22 229.312 52.78 229.312 50.764C229.312 48.732 230.96 47.292 233.184 47.292ZM230.944 58.012C230.944 56.252 232.832 55.196 235.792 55.196C238.752 55.196 240.624 56.252 240.624 58.012C240.624 59.788 238.752 60.844 235.792 60.844C232.832 60.844 230.944 59.788 230.944 58.012ZM231.232 50.764C231.232 51.884 232.08 52.556 233.184 52.556C234.304 52.556 235.136 51.884 235.136 50.764C235.136 49.628 234.304 48.94 233.184 48.94C232.08 48.94 231.232 49.628 231.232 50.764ZM232.911 58.012C232.911 58.86 233.936 59.292 235.792 59.292C237.648 59.292 238.656 58.86 238.656 58.012C238.656 57.164 237.648 56.764 235.792 56.764C233.936 56.764 232.911 57.164 232.911 58.012ZM238.464 54.876V46.508H240.448V48.3H242.32V49.916H240.448V51.404H242.32V53.036H240.448V54.876H238.464ZM252.416 46.508H254.4V52.124H256.496V53.772H254.4V60.844H252.416V46.508ZM243.104 50.22V48.636H246.304V46.732H248.304V48.636H251.472V50.22H243.104ZM243.696 54.476C243.696 52.476 245.232 51.068 247.312 51.068C249.392 51.068 250.944 52.476 250.944 54.476C250.944 56.46 249.392 57.868 247.312 57.868C245.232 57.868 243.696 56.46 243.696 54.476ZM245.6 54.476C245.6 55.58 246.304 56.252 247.312 56.252C248.32 56.252 249.04 55.58 249.04 54.476C249.04 53.356 248.32 52.668 247.312 52.668C246.304 52.668 245.6 53.356 245.6 54.476ZM267.584 46.492H269.472V60.828H267.584V46.492ZM256.976 56.46C259.872 54.732 261.136 52.636 261.408 49.788H257.76V48.204H263.36C263.36 49.564 263.216 50.844 262.864 52.028H264.56V46.812H266.416V60.188H264.56V53.612H262.256C261.44 55.244 260.112 56.668 258.096 57.852L256.976 56.46ZM276.36 47.484H286.312V49.068H278.376V50.524H285.976V52.06H278.376V53.612H286.424V55.196H282.312V57.628H287.816V59.228H274.84V57.628H280.328V55.196H276.36V47.484ZM288.825 54.46H294.313V53.324H290.441V49.356H298.249V48.332H290.409V46.828H300.201V50.78H292.377V51.82H300.489V53.324H296.297V54.46H301.801V56.044H288.825V54.46ZM290.457 60.908V56.78H292.424V59.34H300.537V60.908H290.457ZM302.777 48.684H305.257V46.876H307.209V48.684H309.657V50.252H302.777V48.684ZM303.097 54.332C303.097 52.348 304.425 50.94 306.233 50.94C308.057 50.94 309.369 52.348 309.369 54.332C309.369 56.332 308.057 57.724 306.233 57.724C304.425 57.724 303.097 56.332 303.097 54.332ZM304.857 54.332C304.857 55.452 305.433 56.076 306.233 56.076C307.049 56.076 307.625 55.452 307.625 54.332C307.625 53.228 307.049 52.572 306.233 52.572C305.433 52.572 304.857 53.228 304.857 54.332ZM310.185 60.22V46.78H312.041V52.348H313.193V46.492H315.081V60.828H313.193V53.948H312.041V60.22H310.185ZM317.481 47.66H319.433V49.436H322.729V47.66H324.697V54.22H322.089V56.428C323.193 56.38 324.281 56.284 325.321 56.14L325.481 57.58C322.489 58.14 319.289 58.14 316.873 58.124L316.633 56.524C317.673 56.524 318.857 56.524 320.105 56.508V54.22H317.481V47.66ZM319.433 52.668H322.729V50.956H319.433V52.668ZM326.089 60.828V46.492H328.057V52.268H329.993V53.9H328.057V60.828H326.089ZM330.778 57.532H333.658V53.996C332.57 53.324 331.898 52.3 331.898 51.036C331.898 48.716 334.17 47.212 337.242 47.212C340.33 47.212 342.586 48.716 342.586 51.036C342.586 52.284 341.93 53.308 340.858 53.98V57.532H343.754V59.148H330.778V57.532ZM333.866 51.036C333.866 52.476 335.226 53.324 337.242 53.324C339.274 53.324 340.634 52.476 340.634 51.036C340.634 49.596 339.274 48.748 337.242 48.748C335.226 48.748 333.866 49.596 333.866 51.036ZM335.642 57.532H338.874V54.716C338.362 54.828 337.818 54.876 337.242 54.876C336.682 54.876 336.138 54.828 335.642 54.732V57.532Z" fill="#C6C6C6"/>
</svg>
