<svg width="345" height="64" viewBox="0 0 345 64" fill="none" xmlns="http://www.w3.org/2000/svg">
<path d="M108.464 11.5636C108.16 10.6478 107.78 9.80823 107.324 9.12134C106.868 8.43445 106.337 7.82388 105.653 7.28963C105.273 6.98435 104.893 6.67906 104.438 6.4501C103.982 6.14482 103.45 5.91585 102.766 5.68689C102.083 5.45793 101.399 5.30528 100.564 5.15264C99.7281 5 98.7406 5 97.6012 5H93.4233C91.6003 5.07632 90.0811 6.60274 90.0811 8.43445V20.0353C90.0811 21.867 91.6003 23.3934 93.4233 23.3934H97.905V25.3014C97.905 25.7593 98.2848 26.0646 98.7406 25.9883C101.247 25.6067 108.919 23.6987 108.919 15.227C108.919 15.227 108.919 14.7691 108.919 14.4638C108.919 13.548 108.767 12.4795 108.464 11.5636ZM95.3223 15.0744C94.8666 15.0744 94.4868 14.6928 94.4868 14.2349C94.4868 13.7769 94.8666 13.3953 95.3223 13.3953C95.7781 13.3953 96.1579 13.7769 96.1579 14.2349C96.1579 14.6928 95.7781 15.0744 95.3223 15.0744ZM99.5002 15.0744C99.0444 15.0744 98.6646 14.6928 98.6646 14.2349C98.6646 13.7769 99.0444 13.3953 99.5002 13.3953C99.9559 13.3953 100.336 13.7769 100.336 14.2349C100.336 14.6928 99.9559 15.0744 99.5002 15.0744ZM103.678 15.0744C103.222 15.0744 102.842 14.6928 102.842 14.2349C102.842 13.7769 103.222 13.3953 103.678 13.3953C104.134 13.3953 104.514 13.7769 104.514 14.2349C104.514 14.6928 104.134 15.0744 103.678 15.0744Z" fill="white"/>
<path d="M133.727 6.236H136.895V7.796C136.895 11.012 139.679 14.348 144.455 15.164L143.159 17.636C139.463 16.892 136.703 14.804 135.311 12.044C133.895 14.78 131.135 16.892 127.439 17.636L126.167 15.164C130.895 14.348 133.727 10.94 133.727 7.796V6.236ZM125.687 23.828V21.404H145.151V23.828H125.687ZM146.664 21.644H154.848V17.708H148.272V15.356H151.128V9.164H148.176V6.788H164.496V9.164H161.544V15.356H164.448V17.708H157.824V21.644H166.128V24.068H146.664V21.644ZM154.128 15.356H158.592V9.164H154.128V15.356ZM167.64 21.548H187.104V23.996H167.64V21.548ZM168.312 16.292C173.16 15.62 175.632 12.98 175.824 10.34H169.32V7.964H175.872V5.324H178.848V7.964H185.4V10.34H178.896C179.088 12.98 181.56 15.62 186.384 16.292L185.28 18.692C181.488 18.116 178.776 16.388 177.36 14.036C175.944 16.388 173.208 18.116 169.416 18.692L168.312 16.292ZM201.3 10.652L201.276 13.916L204.348 12.932L205.092 15.284L202.044 16.22L204.06 18.956L202.14 20.492L200.052 17.708L197.964 20.492L196.092 18.932L198.084 16.22L195.012 15.284L195.78 12.932L198.804 13.916L198.78 10.652H201.3ZM213.015 15.5H232.479V17.852H224.391V21.62H221.391V17.852H213.015V15.5ZM215.007 9.86C215.007 7.148 218.103 5.396 222.711 5.396C227.343 5.396 230.439 7.148 230.439 9.86C230.439 12.572 227.343 14.3 222.711 14.3C218.103 14.3 215.007 12.572 215.007 9.86ZM215.295 26.108V19.7H218.295V23.732H230.343V26.108H215.295ZM218.199 9.86C218.199 11.204 219.951 11.948 222.711 11.948C225.495 11.948 227.247 11.204 227.247 9.86C227.247 8.492 225.495 7.772 222.711 7.772C219.951 7.772 218.199 8.492 218.199 9.86ZM234.016 15.188H242.224V13.34H236.368V5.948H251.104V8.3H239.296V10.964H251.224V13.34H245.2V15.188H253.432V17.54H234.016V15.188ZM236.2 22.604C236.2 20.084 239.008 18.644 243.64 18.644C248.296 18.644 251.104 20.084 251.104 22.604C251.104 25.124 248.296 26.54 243.64 26.54C239.008 26.54 236.2 25.124 236.2 22.604ZM239.2 22.604C239.2 23.756 240.736 24.284 243.64 24.284C246.592 24.284 248.104 23.756 248.104 22.604C248.104 21.452 246.592 20.9 243.64 20.9C240.736 20.9 239.2 21.452 239.2 22.604Z" fill="white"/>
<path d="M10.228 46.476H12.212V51.82H14.324V53.452H12.212V60.86H10.228V46.476ZM1.572 57.404V47.836H8.244V49.42H3.54V55.756C5.62 55.74 7.332 55.644 9.22 55.308L9.412 56.94C7.236 57.34 5.284 57.404 2.772 57.404H1.572ZM18.9804 47.292C21.1884 47.292 22.8524 48.732 22.8524 50.764C22.8524 52.78 21.1884 54.22 18.9804 54.22C16.7564 54.22 15.1084 52.78 15.1084 50.764C15.1084 48.732 16.7564 47.292 18.9804 47.292ZM16.7404 58.012C16.7404 56.252 18.6284 55.196 21.5884 55.196C24.5484 55.196 26.4204 56.252 26.4204 58.012C26.4204 59.788 24.5484 60.844 21.5884 60.844C18.6284 60.844 16.7404 59.788 16.7404 58.012ZM17.0284 50.764C17.0284 51.884 17.8764 52.556 18.9804 52.556C20.1004 52.556 20.9324 51.884 20.9324 50.764C20.9324 49.628 20.1004 48.94 18.9804 48.94C17.8764 48.94 17.0284 49.628 17.0284 50.764ZM18.7084 58.012C18.7084 58.86 19.7324 59.292 21.5884 59.292C23.4444 59.292 24.4524 58.86 24.4524 58.012C24.4524 57.164 23.4444 56.764 21.5884 56.764C19.7324 56.764 18.7084 57.164 18.7084 58.012ZM24.2604 54.876V46.508H26.2444V48.3H28.1164V49.916H26.2444V51.404H28.1164V53.036H26.2444V54.876H24.2604ZM38.2448 46.508H40.2288V50.908H42.1648V52.54H40.2288V57.228H38.2448V46.508ZM28.9808 49.58V48.028H32.1968V46.492H34.1808V48.028H37.4128V49.58H28.9808ZM29.6848 52.876C29.6848 51.228 31.1408 50.124 33.2048 50.124C35.2528 50.124 36.7088 51.228 36.7088 52.876C36.7088 54.524 35.2528 55.628 33.2048 55.628C31.1408 55.628 29.6848 54.524 29.6848 52.876ZM31.0288 60.572V56.412H33.0128V58.988H40.7728V60.572H31.0288ZM31.5888 52.876C31.5888 53.676 32.2448 54.124 33.2048 54.124C34.1488 54.124 34.8048 53.676 34.8048 52.876C34.8048 52.076 34.1488 51.628 33.2048 51.628C32.2448 51.628 31.5888 52.076 31.5888 52.876ZM46.6526 57.532H59.6286V59.164H46.6526V57.532ZM47.6606 49.34V47.74H58.5406V49.34H56.5726V53.692H58.5086V55.292H47.7246V53.692H49.6286V49.34H47.6606ZM51.6286 53.692H54.6046V49.34H51.6286V53.692ZM60.637 57.612H66.109V55.42H62.141V50.62H70.173V49.004H62.109V47.436H72.141V52.156H64.093V53.836H72.461V55.42H68.093V57.612H73.613V59.228H60.637V57.612ZM83.6689 47.324H85.7809V48.364C85.7809 50.508 87.6369 52.732 90.8209 53.276L89.9569 54.924C87.4929 54.428 85.6529 53.036 84.7249 51.196C83.7809 53.02 81.9409 54.428 79.4769 54.924L78.6289 53.276C81.7809 52.732 83.6689 50.46 83.6689 48.364V47.324ZM78.3089 59.052V57.436H91.2849V59.052H78.3089ZM92.2933 57.596H97.7493V54.972H93.3653V53.404H95.2693V49.276H93.3013V47.692H104.181V49.276H102.213V53.404H104.149V54.972H99.7333V57.596H105.269V59.212H92.2933V57.596ZM97.2693 53.404H100.245V49.276H97.2693V53.404ZM106.278 57.532H119.254V59.164H106.278V57.532ZM106.726 54.028C109.958 53.58 111.606 51.82 111.734 50.06H107.398V48.476H111.766V46.716H113.75V48.476H118.118V50.06H113.782C113.91 51.82 115.558 53.58 118.774 54.028L118.038 55.628C115.51 55.244 113.702 54.092 112.758 52.524C111.814 54.092 109.99 55.244 107.462 55.628L106.726 54.028ZM124.486 47.356C126.694 47.356 128.374 48.812 128.374 50.844C128.374 52.588 127.19 53.884 125.494 54.252V56.268C126.614 56.204 127.734 56.124 128.79 55.98L128.95 57.404C125.974 57.964 122.758 57.964 120.342 57.964L120.102 56.348C121.126 56.348 122.294 56.348 123.526 56.332V54.268C121.798 53.916 120.582 52.604 120.582 50.844C120.582 48.812 122.262 47.356 124.486 47.356ZM122.518 50.844C122.518 51.996 123.35 52.684 124.486 52.684C125.606 52.684 126.438 51.996 126.438 50.844C126.438 49.708 125.606 49.02 124.486 49.02C123.35 49.02 122.518 49.708 122.518 50.844ZM129.558 60.828V46.492H131.526V52.14H133.462V53.788H131.526V60.828H129.558ZM137.934 53.5H150.91V55.068H145.518V57.58H143.518V55.068H137.934V53.5ZM139.262 49.74C139.262 47.932 141.326 46.764 144.398 46.764C147.486 46.764 149.55 47.932 149.55 49.74C149.55 51.548 147.486 52.7 144.398 52.7C141.326 52.7 139.262 51.548 139.262 49.74ZM139.454 60.572V56.3H141.454V58.988H149.486V60.572H139.454ZM141.39 49.74C141.39 50.636 142.558 51.132 144.398 51.132C146.254 51.132 147.422 50.636 147.422 49.74C147.422 48.828 146.254 48.348 144.398 48.348C142.558 48.348 141.39 48.828 141.39 49.74ZM151.934 53.292H157.406V52.06H153.502V47.132H163.326V48.7H155.454V50.476H163.406V52.06H159.39V53.292H164.878V54.86H151.934V53.292ZM153.39 58.236C153.39 56.556 155.262 55.596 158.35 55.596C161.454 55.596 163.326 56.556 163.326 58.236C163.326 59.916 161.454 60.86 158.35 60.86C155.262 60.86 153.39 59.916 153.39 58.236ZM155.39 58.236C155.39 59.004 156.414 59.356 158.35 59.356C160.318 59.356 161.326 59.004 161.326 58.236C161.326 57.468 160.318 57.1 158.35 57.1C156.414 57.1 155.39 57.468 155.39 58.236ZM176.303 46.492H178.175V60.828H176.303V46.492ZM165.999 52.716C165.999 49.484 167.215 47.516 169.103 47.516C170.815 47.516 171.983 49.116 172.191 51.804H173.375V46.732H175.231V60.172H173.375V53.404H172.207C172.047 56.22 170.863 57.9 169.103 57.9C167.215 57.9 165.999 55.948 165.999 52.716ZM167.807 52.716C167.807 54.924 168.287 56.028 169.103 56.028C169.935 56.028 170.415 54.924 170.415 52.716C170.415 50.492 169.935 49.388 169.103 49.388C168.287 49.388 167.807 50.492 167.807 52.716ZM184.215 47.548H191.543V48.428C191.543 49.42 191.543 50.844 191.191 52.652L189.271 52.428C189.527 51.068 189.575 49.996 189.591 49.132H184.215V47.548ZM183.367 53.692C184.167 53.692 185.062 53.692 186.023 53.676V50.876H187.975V53.612C189.399 53.548 190.855 53.436 192.199 53.244L192.327 54.652C189.367 55.196 186.023 55.26 183.559 55.276L183.367 53.692ZM185.463 60.572V56.284H187.447V58.988H195.431V60.572H185.463ZM192.999 57.228V46.492H194.983V50.908H196.727V52.524H194.983V57.228H192.999ZM197.527 48.684H200.007V46.876H201.959V48.684H204.407V50.252H197.527V48.684ZM197.847 54.332C197.847 52.348 199.175 50.94 200.983 50.94C202.807 50.94 204.119 52.348 204.119 54.332C204.119 56.332 202.807 57.724 200.983 57.724C199.175 57.724 197.847 56.332 197.847 54.332ZM199.607 54.332C199.607 55.452 200.183 56.076 200.983 56.076C201.799 56.076 202.375 55.452 202.375 54.332C202.375 53.228 201.799 52.572 200.983 52.572C200.183 52.572 199.607 53.228 199.607 54.332ZM204.935 60.22V46.78H206.791V52.348H207.943V46.492H209.831V60.828H207.943V53.948H206.791V60.22H204.935ZM219.167 46.892C220.319 46.892 221.327 47.292 222.015 47.964H225.199V46.508H227.183V53.692H225.199V52.412H222.047C221.375 53.1 220.351 53.516 219.167 53.516C217.007 53.516 215.391 52.14 215.391 50.22C215.391 48.284 217.007 46.892 219.167 46.892ZM217.263 50.22C217.263 51.276 218.063 51.932 219.167 51.932C220.271 51.932 221.055 51.276 221.055 50.22C221.055 49.148 220.271 48.508 219.167 48.508C218.063 48.508 217.263 49.148 217.263 50.22ZM217.727 55.82V54.3H227.183V58.172H219.727V59.148H227.599V60.684H217.759V56.732H225.215V55.82H217.727ZM222.863 49.5C222.911 49.724 222.943 49.964 222.943 50.22C222.943 50.444 222.927 50.668 222.879 50.876H225.199V49.5H222.863ZM236.943 49.996H239.183V46.508H241.167V55.02H239.183V51.596H236.943V49.996ZM229.135 53.452C231.423 52.668 232.511 50.796 232.543 48.972H229.663V47.388H237.375V48.972H234.543C234.575 50.636 235.615 52.332 237.823 53.084L236.831 54.636C235.263 54.108 234.191 53.068 233.583 51.772C232.959 53.244 231.807 54.428 230.127 55.004L229.135 53.452ZM231.423 58.092C231.423 56.38 233.295 55.34 236.319 55.34C239.343 55.34 241.215 56.38 241.215 58.092C241.215 59.852 239.343 60.86 236.319 60.86C233.295 60.86 231.423 59.852 231.423 58.092ZM233.407 58.092C233.407 58.924 234.415 59.356 236.319 59.356C238.207 59.356 239.247 58.924 239.247 58.092C239.247 57.276 238.207 56.844 236.319 56.844C234.415 56.844 233.407 57.276 233.407 58.092ZM250.96 49.948H253.152V46.508H255.152V55.02H253.152V51.564H250.96V49.948ZM243.104 53.356C245.424 52.572 246.496 50.716 246.512 48.892H243.648V47.308H251.36V48.892H248.528C248.544 50.588 249.568 52.316 251.808 53.084L250.816 54.636C249.248 54.108 248.176 53.052 247.552 51.756C246.928 53.196 245.792 54.348 244.112 54.908L243.104 53.356ZM245.392 57.276V55.692H255.152V60.844H253.152V57.276H245.392ZM263.648 47.212C266.672 47.212 268.992 48.876 268.992 51.34C268.992 53.836 266.672 55.468 263.648 55.468C260.64 55.468 258.304 53.836 258.304 51.34C258.304 48.876 260.64 47.212 263.648 47.212ZM257.184 59.084V57.452H270.16V59.084H257.184ZM260.256 51.34C260.256 52.908 261.664 53.852 263.648 53.852C265.648 53.852 267.056 52.908 267.056 51.34C267.056 49.772 265.648 48.828 263.648 48.828C261.664 48.828 260.256 49.772 260.256 51.34ZM271.168 57.612H276.64V55.42H272.672V50.62H280.704V49.004H272.64V47.436H282.672V52.156H274.624V53.836H282.992V55.42H278.624V57.612H284.144V59.228H271.168V57.612ZM290.36 47.484H300.312V49.068H292.376V50.524H299.976V52.06H292.376V53.612H300.424V55.196H296.312V57.628H301.816V59.228H288.84V57.628H294.328V55.196H290.36V47.484ZM302.825 54.46H308.313V53.324H304.441V49.356H312.249V48.332H304.409V46.828H314.201V50.78H306.377V51.82H314.489V53.324H310.297V54.46H315.801V56.044H302.825V54.46ZM304.457 60.908V56.78H306.424V59.34H314.537V60.908H304.457ZM316.777 48.684H319.257V46.876H321.209V48.684H323.657V50.252H316.777V48.684ZM317.097 54.332C317.097 52.348 318.425 50.94 320.233 50.94C322.057 50.94 323.369 52.348 323.369 54.332C323.369 56.332 322.057 57.724 320.233 57.724C318.425 57.724 317.097 56.332 317.097 54.332ZM318.857 54.332C318.857 55.452 319.433 56.076 320.233 56.076C321.049 56.076 321.625 55.452 321.625 54.332C321.625 53.228 321.049 52.572 320.233 52.572C319.433 52.572 318.857 53.228 318.857 54.332ZM324.185 60.22V46.78H326.041V52.348H327.193V46.492H329.081V60.828H327.193V53.948H326.041V60.22H324.185ZM330.793 57.532H333.673V53.996C332.585 53.324 331.913 52.3 331.913 51.036C331.913 48.716 334.185 47.212 337.257 47.212C340.345 47.212 342.601 48.716 342.601 51.036C342.601 52.284 341.945 53.308 340.873 53.98V57.532H343.769V59.148H330.793V57.532ZM333.881 51.036C333.881 52.476 335.241 53.324 337.257 53.324C339.289 53.324 340.649 52.476 340.649 51.036C340.649 49.596 339.289 48.748 337.257 48.748C335.241 48.748 333.881 49.596 333.881 51.036ZM335.657 57.532H338.889V54.716C338.377 54.828 337.833 54.876 337.257 54.876C336.697 54.876 336.153 54.828 335.657 54.732V57.532Z" fill="#C6C6C6"/>
</svg>
