<svg width="126" height="42" viewBox="0 0 126 42" fill="none" xmlns="http://www.w3.org/2000/svg">
<rect x="0.5" y="0.5" width="125" height="41" rx="15.5" fill="#1B1B1B"/>
<path d="M30 22H24V28H22V22H16V20H22V14H24V20H30V22Z" fill="white"/>
<path d="M49.956 23.392C53.214 23.392 55.212 24.508 55.212 26.38C55.212 28.27 53.214 29.368 49.956 29.368C46.698 29.368 44.7 28.27 44.7 26.38C44.7 24.508 46.698 23.392 49.956 23.392ZM43.296 21.862V14.5H44.934V16.786H49.092V14.5H50.712V21.862H43.296ZM44.934 20.548H49.092V18.082H44.934V20.548ZM46.302 26.38C46.302 27.46 47.67 28.072 49.956 28.072C52.224 28.072 53.574 27.46 53.574 26.38C53.574 25.318 52.224 24.706 49.956 24.706C47.67 24.706 46.302 25.318 46.302 26.38ZM53.394 22.996V13.51H55.05V17.434H57.318V18.802H55.05V22.996H53.394ZM63.1769 14.896H70.5389V22.33H63.1769V14.896ZM64.7969 20.998H68.9369V16.21H64.7969V20.998ZM64.9589 29.044V24.004H66.5969V27.694H75.5969V29.044H64.9589ZM73.2749 25.12V13.492H74.9309V18.262H77.1989V19.63H74.9309V25.12H73.2749ZM78.2973 20.026H92.6433V21.358H78.2973V20.026ZM79.9893 23.878V22.618H90.8073V26.452H81.6453V27.91H91.2753V29.206H80.0433V25.246H89.1873V23.878H79.9893ZM80.1693 18.838V13.978H90.7713V15.31H81.8073V17.542H90.9333V18.838H80.1693ZM105.424 13.492H107.08V29.368H105.424V13.492ZM94.1557 25.174C98.3677 23.14 100.402 20.242 100.726 16.516H94.9117V15.184H102.382C102.382 19.846 100.42 23.86 95.0197 26.47L94.1557 25.174Z" fill="white"/>
<rect x="0.5" y="0.5" width="125" height="41" rx="15.5" stroke="white"/>
</svg>
