<svg width="267" height="64" viewBox="0 0 267 64" fill="none" xmlns="http://www.w3.org/2000/svg">
<path d="M79.9635 11.5636C79.6597 10.6478 79.2799 9.80823 78.8241 9.12134C78.3684 8.43445 77.8366 7.82388 77.153 7.28963C76.7732 6.98435 76.3934 6.67906 75.9376 6.4501C75.4818 6.14482 74.9501 5.91585 74.2665 5.68689C73.5828 5.45793 72.8992 5.30528 72.0636 5.15264C71.2281 5 70.2406 5 69.1012 5H64.9233C63.1003 5.07632 61.5811 6.60274 61.5811 8.43445V20.0353C61.5811 21.867 63.1003 23.3934 64.9233 23.3934H69.405V25.3014C69.405 25.7593 69.7848 26.0646 70.2406 25.9883C72.7473 25.6067 80.4193 23.6987 80.4193 15.227C80.4193 15.227 80.4193 14.7691 80.4193 14.4638C80.4193 13.548 80.2674 12.4795 79.9635 11.5636ZM66.8223 15.0744C66.3666 15.0744 65.9868 14.6928 65.9868 14.2349C65.9868 13.7769 66.3666 13.3953 66.8223 13.3953C67.2781 13.3953 67.6579 13.7769 67.6579 14.2349C67.6579 14.6928 67.2781 15.0744 66.8223 15.0744ZM71.0002 15.0744C70.5444 15.0744 70.1646 14.6928 70.1646 14.2349C70.1646 13.7769 70.5444 13.3953 71.0002 13.3953C71.4559 13.3953 71.8357 13.7769 71.8357 14.2349C71.8357 14.6928 71.4559 15.0744 71.0002 15.0744ZM75.178 15.0744C74.7222 15.0744 74.3424 14.6928 74.3424 14.2349C74.3424 13.7769 74.7222 13.3953 75.178 13.3953C75.6338 13.3953 76.0136 13.7769 76.0136 14.2349C76.0136 14.6928 75.6338 15.0744 75.178 15.0744Z" fill="white"/>
<path d="M112.139 5.012H115.139V20.732H112.139V15.62H107.291C106.259 16.724 104.771 17.372 103.091 17.372C99.8989 17.372 97.4269 15.044 97.4269 11.828C97.4269 8.588 99.8989 6.284 103.091 6.284C104.771 6.284 106.259 6.932 107.291 8.012H112.139V5.012ZM100.235 11.828C100.235 13.676 101.459 14.78 103.091 14.78C104.699 14.78 105.923 13.676 105.923 11.828C105.923 10.004 104.699 8.9 103.091 8.9C101.459 8.9 100.235 10.004 100.235 11.828ZM100.955 26.108V19.196H103.955V23.732H115.619V26.108H100.955ZM108.587 10.388C108.683 10.844 108.755 11.324 108.755 11.828C108.755 12.332 108.707 12.788 108.587 13.244H112.139V10.388H108.587ZM133.764 4.988H136.572V26.492H133.764V4.988ZM118.308 14.324C118.308 9.476 120.132 6.524 122.964 6.524C124.764 6.524 126.156 7.7 126.924 9.764H129.468V5.348H132.252V25.508H129.468V18.836H126.948C126.156 20.924 124.764 22.1 122.964 22.1C120.132 22.1 118.308 19.172 118.308 14.324ZM120.996 14.324C120.996 17.636 121.716 19.292 122.964 19.292C124.236 19.292 124.956 17.636 124.956 14.324C124.956 10.988 124.236 9.332 122.964 9.332C121.716 9.332 120.996 10.988 120.996 14.324ZM127.5 12.164C127.596 12.836 127.644 13.556 127.644 14.324C127.644 15.068 127.596 15.764 127.524 16.412H129.468V12.164H127.5ZM151.823 10.652L151.799 13.916L154.871 12.932L155.615 15.284L152.567 16.22L154.583 18.956L152.663 20.492L150.575 17.708L148.487 20.492L146.615 18.932L148.607 16.22L145.535 15.284L146.303 12.932L149.327 13.916L149.303 10.652H151.823ZM178.323 4.964H181.323V26.54H178.323V4.964ZM164.115 14.156C164.115 9.452 166.515 6.5 169.779 6.5C173.019 6.5 175.395 9.452 175.395 14.156C175.395 18.884 173.019 21.836 169.779 21.836C166.515 21.836 164.115 18.884 164.115 14.156ZM166.995 14.156C166.995 17.372 168.123 19.148 169.779 19.148C171.411 19.148 172.539 17.372 172.539 14.156C172.539 10.94 171.411 9.188 169.779 9.188C168.123 9.188 166.995 10.94 166.995 14.156ZM184.515 16.892H203.979V19.268H199.563V26.588H196.563V19.268H191.955V26.588H188.979V19.268H184.515V16.892ZM185.259 12.788C190.059 12.116 192.675 9.308 192.675 6.692V5.636H195.819V6.692C195.819 9.284 198.435 12.116 203.235 12.788L202.059 15.188C198.363 14.612 195.627 12.812 194.259 10.46C192.867 12.836 190.131 14.612 186.411 15.188L185.259 12.788Z" fill="white"/>
<path d="M10.48 46.508H12.48V56.988H10.48V53.58H7.248C6.56 54.316 5.568 54.748 4.448 54.748C2.32 54.748 0.672 53.196 0.672 51.052C0.672 48.892 2.32 47.356 4.448 47.356C5.568 47.356 6.56 47.788 7.248 48.508H10.48V46.508ZM2.544 51.052C2.544 52.284 3.36 53.02 4.448 53.02C5.52 53.02 6.336 52.284 6.336 51.052C6.336 49.836 5.52 49.1 4.448 49.1C3.36 49.1 2.544 49.836 2.544 51.052ZM3.024 60.572V55.964H5.024V58.988H12.8V60.572H3.024ZM8.112 50.092C8.176 50.396 8.224 50.716 8.224 51.052C8.224 51.388 8.192 51.692 8.112 51.996H10.48V50.092H8.112ZM24.8964 46.492H26.7684V60.828H24.8964V46.492ZM14.5924 52.716C14.5924 49.484 15.8084 47.516 17.6964 47.516C18.8964 47.516 19.8244 48.3 20.3364 49.676H22.0324V46.732H23.8884V60.172H22.0324V55.724H20.3524C19.8244 57.116 18.8964 57.9 17.6964 57.9C15.8084 57.9 14.5924 55.948 14.5924 52.716ZM16.3844 52.716C16.3844 54.924 16.8644 56.028 17.6964 56.028C18.5444 56.028 19.0244 54.924 19.0244 52.716C19.0244 50.492 18.5444 49.388 17.6964 49.388C16.8644 49.388 16.3844 50.492 16.3844 52.716ZM20.7204 51.276C20.7844 51.724 20.8164 52.204 20.8164 52.716C20.8164 53.212 20.7844 53.676 20.7364 54.108H22.0324V51.276H20.7204ZM38.3688 46.508H40.3688V56.828H38.3688V46.508ZM28.6728 51.052C28.6728 48.924 30.3848 47.42 32.5608 47.42C34.7528 47.42 36.4488 48.924 36.4488 51.052C36.4488 53.148 34.7528 54.684 32.5608 54.684C30.3848 54.684 28.6728 53.148 28.6728 51.052ZM30.6088 51.052C30.6088 52.22 31.4728 52.956 32.5608 52.956C33.6648 52.956 34.5128 52.22 34.5128 51.052C34.5128 49.852 33.6648 49.132 32.5608 49.132C31.4728 49.132 30.6088 49.852 30.6088 51.052ZM30.8488 60.572V55.788H32.8168V58.988H40.7208V60.572H30.8488ZM43.0571 47.932H50.4331V49.068C50.4331 50.444 50.4331 52.172 50.0331 54.588L48.0971 54.428C48.4331 52.348 48.4811 50.78 48.4811 49.516H43.0571V47.932ZM42.3211 56.316C43.1211 56.316 44.0171 56.3 44.9451 56.284V52.044H46.8971V56.236C48.3051 56.172 49.7291 56.076 51.0411 55.916L51.1371 57.356C48.2411 57.852 45.0091 57.916 42.5131 57.916L42.3211 56.316ZM51.7131 60.828V46.492H53.6811V52.284H55.6491V53.916H53.6811V60.828H51.7131ZM69.353 46.476H71.337V51.82H73.449V53.452H71.337V60.86H69.353V46.476ZM60.697 57.404V47.836H67.369V49.42H62.665V55.756C64.745 55.74 66.457 55.644 68.345 55.308L68.537 56.94C66.361 57.34 64.409 57.404 61.897 57.404H60.697ZM78.1054 47.292C80.3134 47.292 81.9774 48.732 81.9774 50.764C81.9774 52.78 80.3134 54.22 78.1054 54.22C75.8814 54.22 74.2334 52.78 74.2334 50.764C74.2334 48.732 75.8814 47.292 78.1054 47.292ZM75.8654 58.012C75.8654 56.252 77.7534 55.196 80.7134 55.196C83.6734 55.196 85.5454 56.252 85.5454 58.012C85.5454 59.788 83.6734 60.844 80.7134 60.844C77.7534 60.844 75.8654 59.788 75.8654 58.012ZM76.1534 50.764C76.1534 51.884 77.0014 52.556 78.1054 52.556C79.2254 52.556 80.0574 51.884 80.0574 50.764C80.0574 49.628 79.2254 48.94 78.1054 48.94C77.0014 48.94 76.1534 49.628 76.1534 50.764ZM77.8334 58.012C77.8334 58.86 78.8574 59.292 80.7134 59.292C82.5694 59.292 83.5774 58.86 83.5774 58.012C83.5774 57.164 82.5694 56.764 80.7134 56.764C78.8574 56.764 77.8334 57.164 77.8334 58.012ZM83.3854 54.876V46.508H85.3694V48.3H87.2414V49.916H85.3694V51.404H87.2414V53.036H85.3694V54.876H83.3854ZM97.3698 46.508H99.3538V50.908H101.29V52.54H99.3538V57.228H97.3698V46.508ZM88.1058 49.58V48.028H91.3218V46.492H93.3058V48.028H96.5378V49.58H88.1058ZM88.8098 52.876C88.8098 51.228 90.2658 50.124 92.3298 50.124C94.3778 50.124 95.8338 51.228 95.8338 52.876C95.8338 54.524 94.3778 55.628 92.3298 55.628C90.2658 55.628 88.8098 54.524 88.8098 52.876ZM90.1538 60.572V56.412H92.1378V58.988H99.8978V60.572H90.1538ZM90.7138 52.876C90.7138 53.676 91.3698 54.124 92.3298 54.124C93.2738 54.124 93.9298 53.676 93.9298 52.876C93.9298 52.076 93.2738 51.628 92.3298 51.628C91.3698 51.628 90.7138 52.076 90.7138 52.876ZM114.978 46.476H116.978V52.012H118.994V53.644H116.978V60.828H114.978V46.476ZM105.65 56.828C109.01 55.1 110.802 52.78 111.17 49.564H106.434V47.964H113.17C113.17 52.252 111.506 55.932 106.754 58.332L105.65 56.828ZM123.122 46.924H125.138V48.252C125.138 49.98 126.21 51.644 128.514 52.316L127.57 53.868C125.938 53.372 124.802 52.38 124.162 51.1C123.522 52.492 122.354 53.596 120.642 54.108L119.666 52.572C122.05 51.836 123.122 50.028 123.122 48.252V46.924ZM122.13 60.684V54.844H124.082V56.204H129.666V54.844H131.634V60.684H122.13ZM124.082 59.1H129.666V57.74H124.082V59.1ZM129.634 54.204V46.508H131.634V54.204H129.634ZM143.698 46.508H145.682V60.844H143.698V53.628H140.882V52.028H143.698V46.508ZM133.57 56.796C137.17 55.004 138.674 52.716 138.978 49.564H134.242V47.98H140.962C140.962 52.3 139.57 55.868 134.61 58.348L133.57 56.796ZM157.651 46.476H159.635V60.86H157.651V46.476ZM148.467 49.308V47.724H155.219V53.228H150.499V55.884C152.691 55.868 154.547 55.772 156.611 55.42L156.819 57.004C154.467 57.42 152.339 57.5 149.747 57.5H148.499V51.644H153.203V49.308H148.467ZM172.115 46.492H173.987V60.828H172.115V46.492ZM161.811 52.716C161.811 49.484 163.027 47.516 164.915 47.516C166.627 47.516 167.795 49.116 168.003 51.804H169.187V46.732H171.043V60.172H169.187V53.404H168.019C167.859 56.22 166.675 57.9 164.915 57.9C163.027 57.9 161.811 55.948 161.811 52.716ZM163.619 52.716C163.619 54.924 164.099 56.028 164.915 56.028C165.747 56.028 166.227 54.924 166.227 52.716C166.227 50.492 165.747 49.388 164.915 49.388C164.099 49.388 163.619 50.492 163.619 52.716ZM189.771 46.492H191.659V60.828H189.771V53.644H188.411V60.14H186.571V46.764H188.411V52.028H189.771V46.492ZM179.787 57.58V48.172H185.067V49.772H181.739V55.948C183.131 55.916 184.363 55.836 185.739 55.58L185.899 57.18C184.155 57.516 182.651 57.58 180.779 57.58H179.787ZM193.339 48.684H195.819V46.876H197.771V48.684H200.219V50.252H193.339V48.684ZM193.659 54.332C193.659 52.348 194.987 50.94 196.795 50.94C198.619 50.94 199.931 52.348 199.931 54.332C199.931 56.332 198.619 57.724 196.795 57.724C194.987 57.724 193.659 56.332 193.659 54.332ZM195.419 54.332C195.419 55.452 195.995 56.076 196.795 56.076C197.611 56.076 198.187 55.452 198.187 54.332C198.187 53.228 197.611 52.572 196.795 52.572C195.995 52.572 195.419 53.228 195.419 54.332ZM200.747 60.22V46.78H202.603V52.348H203.755V46.492H205.643V60.828H203.755V53.948H202.603V60.22H200.747ZM212.563 47.484H222.515V49.068H214.579V50.524H222.179V52.06H214.579V53.612H222.627V55.196H218.515V57.628H224.019V59.228H211.043V57.628H216.531V55.196H212.563V47.484ZM225.028 54.46H230.516V53.324H226.644V49.356H234.452V48.332H226.612V46.828H236.404V50.78H228.58V51.82H236.692V53.324H232.5V54.46H238.004V56.044H225.028V54.46ZM226.66 60.908V56.78H228.628V59.34H236.74V60.908H226.66ZM238.98 48.684H241.46V46.876H243.412V48.684H245.86V50.252H238.98V48.684ZM239.3 54.332C239.3 52.348 240.628 50.94 242.436 50.94C244.26 50.94 245.572 52.348 245.572 54.332C245.572 56.332 244.26 57.724 242.436 57.724C240.628 57.724 239.3 56.332 239.3 54.332ZM241.06 54.332C241.06 55.452 241.636 56.076 242.436 56.076C243.252 56.076 243.828 55.452 243.828 54.332C243.828 53.228 243.252 52.572 242.436 52.572C241.636 52.572 241.06 53.228 241.06 54.332ZM246.388 60.22V46.78H248.244V52.348H249.396V46.492H251.284V60.828H249.396V53.948H248.244V60.22H246.388ZM252.996 57.532H255.876V53.996C254.788 53.324 254.116 52.3 254.116 51.036C254.116 48.716 256.388 47.212 259.46 47.212C262.548 47.212 264.804 48.716 264.804 51.036C264.804 52.284 264.148 53.308 263.076 53.98V57.532H265.972V59.148H252.996V57.532ZM256.084 51.036C256.084 52.476 257.444 53.324 259.46 53.324C261.492 53.324 262.852 52.476 262.852 51.036C262.852 49.596 261.492 48.748 259.46 48.748C257.444 48.748 256.084 49.596 256.084 51.036ZM257.86 57.532H261.092V54.716C260.58 54.828 260.036 54.876 259.46 54.876C258.9 54.876 258.356 54.828 257.86 54.732V57.532Z" fill="#C6C6C6"/>
</svg>
