<svg width="321" height="64" viewBox="0 0 321 64" fill="none" xmlns="http://www.w3.org/2000/svg">
<path d="M106.964 11.5636C106.66 10.6478 106.28 9.80823 105.824 9.12134C105.368 8.43445 104.837 7.82388 104.153 7.28963C103.773 6.98435 103.393 6.67906 102.938 6.4501C102.482 6.14482 101.95 5.91585 101.266 5.68689C100.583 5.45793 99.8992 5.30528 99.0636 5.15264C98.2281 5 97.2406 5 96.1012 5H91.9233C90.1003 5.07632 88.5811 6.60274 88.5811 8.43445V20.0353C88.5811 21.867 90.1003 23.3934 91.9233 23.3934H96.405V25.3014C96.405 25.7593 96.7848 26.0646 97.2406 25.9883C99.7473 25.6067 107.419 23.6987 107.419 15.227C107.419 15.227 107.419 14.7691 107.419 14.4638C107.419 13.548 107.267 12.4795 106.964 11.5636ZM93.8223 15.0744C93.3666 15.0744 92.9868 14.6928 92.9868 14.2349C92.9868 13.7769 93.3666 13.3953 93.8223 13.3953C94.2781 13.3953 94.6579 13.7769 94.6579 14.2349C94.6579 14.6928 94.2781 15.0744 93.8223 15.0744ZM98.0002 15.0744C97.5444 15.0744 97.1646 14.6928 97.1646 14.2349C97.1646 13.7769 97.5444 13.3953 98.0002 13.3953C98.4559 13.3953 98.8357 13.7769 98.8357 14.2349C98.8357 14.6928 98.4559 15.0744 98.0002 15.0744ZM102.178 15.0744C101.722 15.0744 101.342 14.6928 101.342 14.2349C101.342 13.7769 101.722 13.3953 102.178 13.3953C102.634 13.3953 103.014 13.7769 103.014 14.2349C103.014 14.6928 102.634 15.0744 102.178 15.0744Z" fill="white"/>
<path d="M139.139 4.988H142.115V15.812H139.139V14.156H134.267V11.876H139.139V9.98H134.507C133.187 13.22 130.139 15.26 125.411 16.292L124.427 13.916C129.347 12.908 131.603 10.796 131.963 8.204H125.627V5.828H135.251C135.251 6.5 135.203 7.124 135.107 7.724H139.139V4.988ZM127.955 18.956V16.628H142.115V22.484H130.955V23.972H142.571V26.3H127.979V20.276H139.139V18.956H127.955ZM145.14 17.42H153.372V16.148C149.748 15.908 147.708 14.804 147.708 12.908C147.708 10.772 150.3 9.644 154.86 9.644C159.42 9.644 162.036 10.772 162.036 12.908C162.036 14.804 159.996 15.908 156.348 16.148V17.42H164.58V19.724H145.14V17.42ZM146.076 8.996V6.764H153.372V4.892H156.348V6.764H163.548V8.996H146.076ZM147.516 26.108V20.804H150.468V23.804H162.396V26.108H147.516ZM150.732 12.908C150.732 13.748 152.004 14.084 154.86 14.084C157.716 14.084 159.012 13.748 159.012 12.908C159.012 12.068 157.716 11.708 154.86 11.708C152.004 11.708 150.732 12.068 150.732 12.908ZM178.823 10.652L178.799 13.916L181.871 12.932L182.615 15.284L179.567 16.22L181.583 18.956L179.663 20.492L177.575 17.708L175.487 20.492L173.615 18.932L175.607 16.22L172.535 15.284L173.303 12.932L176.327 13.916L176.303 10.652H178.823ZM190.515 15.068H209.955V17.42H205.275V19.484H207.603V26.516H204.651V21.812H192.675V19.484H195.147V17.42H190.515V15.068ZM192.459 9.644C192.459 7.052 195.531 5.444 200.235 5.444C204.963 5.444 208.011 7.052 208.011 9.644C208.011 12.284 204.963 13.892 200.235 13.892C195.531 13.892 192.459 12.284 192.459 9.644ZM195.531 9.644C195.531 10.94 197.235 11.564 200.235 11.564C203.211 11.564 204.939 10.94 204.939 9.644C204.939 8.396 203.211 7.724 200.235 7.724C197.235 7.724 195.531 8.396 195.531 9.644ZM198.123 19.484H202.347V17.42H198.123V19.484ZM217.251 6.5C220.515 6.5 222.867 9.452 222.867 14.156C222.867 18.884 220.515 21.836 217.251 21.836C213.987 21.836 211.635 18.884 211.635 14.156C211.635 9.452 213.987 6.5 217.251 6.5ZM214.491 14.156C214.491 17.372 215.595 19.148 217.251 19.148C218.907 19.148 220.035 17.372 220.035 14.156C220.035 10.94 218.907 9.188 217.251 9.188C215.595 9.188 214.491 10.94 214.491 14.156ZM225.339 26.516V5.012H228.315V13.172H231.483V15.62H228.315V26.516H225.339Z" fill="white"/>
<path d="M10.48 46.492H12.464V53.708H10.48V52.604H7.232V51.084H10.48V49.82H7.392C6.512 51.98 4.48 53.34 1.328 54.028L0.672 52.444C3.952 51.772 5.456 50.364 5.696 48.636H1.472V47.052H7.888C7.888 47.5 7.856 47.916 7.792 48.316H10.48V46.492ZM3.024 55.804V54.252H12.464V58.156H5.024V59.148H12.768V60.7H3.04V56.684H10.48V55.804H3.024ZM14.4804 54.78H19.9684V53.932C17.5524 53.772 16.1924 53.036 16.1924 51.772C16.1924 50.348 17.9204 49.596 20.9604 49.596C24.0004 49.596 25.7444 50.348 25.7444 51.772C25.7444 53.036 24.3844 53.772 21.9524 53.932V54.78H27.4404V56.316H14.4804V54.78ZM15.1044 49.164V47.676H19.9684V46.428H21.9524V47.676H26.7524V49.164H15.1044ZM16.0644 60.572V57.036H18.0324V59.036H25.9844V60.572H16.0644ZM18.2084 51.772C18.2084 52.332 19.0564 52.556 20.9604 52.556C22.8644 52.556 23.7284 52.332 23.7284 51.772C23.7284 51.212 22.8644 50.972 20.9604 50.972C19.0564 50.972 18.2084 51.212 18.2084 51.772ZM29.0728 47.932H36.4488V49.068C36.4488 50.444 36.4488 52.172 36.0487 54.588L34.1128 54.428C34.4488 52.348 34.4968 50.78 34.4968 49.516H29.0728V47.932ZM28.3368 56.316C29.1368 56.316 30.0328 56.3 30.9608 56.284V52.044H32.9128V56.236C34.3208 56.172 35.7448 56.076 37.0568 55.916L37.1528 57.356C34.2568 57.852 31.0248 57.916 28.5288 57.916L28.3368 56.316ZM37.7288 60.828V46.492H39.6968V52.284H41.6648V53.916H39.6968V60.828H37.7288ZM46.1366 53.212H59.0966V54.78H55.9766V56.156H57.5286V60.844H55.5606V57.708H47.5766V56.156H49.2246V54.78H46.1366V53.212ZM47.4326 49.596C47.4326 47.868 49.4806 46.796 52.6166 46.796C55.7686 46.796 57.8006 47.868 57.8006 49.596C57.8006 51.356 55.7686 52.428 52.6166 52.428C49.4806 52.428 47.4326 51.356 47.4326 49.596ZM49.4806 49.596C49.4806 50.46 50.6166 50.876 52.6166 50.876C54.6006 50.876 55.7526 50.46 55.7526 49.596C55.7526 48.764 54.6006 48.316 52.6166 48.316C50.6166 48.316 49.4806 48.764 49.4806 49.596ZM51.2086 56.156H54.0246V54.78H51.2086V56.156ZM63.961 47.5C66.137 47.5 67.705 49.468 67.705 52.604C67.705 55.756 66.137 57.724 63.961 57.724C61.785 57.724 60.217 55.756 60.217 52.604C60.217 49.468 61.785 47.5 63.961 47.5ZM62.121 52.604C62.121 54.748 62.857 55.932 63.961 55.932C65.065 55.932 65.817 54.748 65.817 52.604C65.817 50.46 65.065 49.292 63.961 49.292C62.857 49.292 62.121 50.46 62.121 52.604ZM69.353 60.844V46.508H71.337V51.948H73.449V53.58H71.337V60.844H69.353ZM84.5214 46.492H86.3934V60.828H84.5214V46.492ZM74.2174 52.716C74.2174 49.484 75.4334 47.516 77.3214 47.516C79.0334 47.516 80.2014 49.116 80.4094 51.804H81.5934V46.732H83.4494V60.172H81.5934V53.404H80.4254C80.2654 56.22 79.0814 57.9 77.3214 57.9C75.4334 57.9 74.2174 55.948 74.2174 52.716ZM76.0254 52.716C76.0254 54.924 76.5054 56.028 77.3214 56.028C78.1534 56.028 78.6334 54.924 78.6334 52.716C78.6334 50.492 78.1534 49.388 77.3214 49.388C76.5054 49.388 76.0254 50.492 76.0254 52.716ZM102.177 46.492H104.065V60.828H102.177V53.644H100.817V60.14H98.9773V46.764H100.817V52.028H102.177V46.492ZM92.1933 57.58V48.172H97.4733V49.772H94.1453V55.948C95.5373 55.916 96.7693 55.836 98.1453 55.58L98.3053 57.18C96.5613 57.516 95.0573 57.58 93.1853 57.58H92.1933ZM105.746 48.684H108.226V46.876H110.178V48.684H112.626V50.252H105.746V48.684ZM106.066 54.332C106.066 52.348 107.394 50.94 109.202 50.94C111.026 50.94 112.338 52.348 112.338 54.332C112.338 56.332 111.026 57.724 109.202 57.724C107.394 57.724 106.066 56.332 106.066 54.332ZM107.826 54.332C107.826 55.452 108.402 56.076 109.202 56.076C110.018 56.076 110.594 55.452 110.594 54.332C110.594 53.228 110.018 52.572 109.202 52.572C108.402 52.572 107.826 53.228 107.826 54.332ZM113.154 60.22V46.78H115.01V52.348H116.162V46.492H118.05V60.828H116.162V53.948H115.01V60.22H113.154ZM124.09 47.548H131.418V48.428C131.418 49.42 131.418 50.844 131.066 52.652L129.146 52.428C129.402 51.068 129.45 49.996 129.466 49.132H124.09V47.548ZM123.242 53.692C124.042 53.692 124.938 53.692 125.898 53.676V50.876H127.85V53.612C129.274 53.548 130.73 53.436 132.074 53.244L132.202 54.652C129.242 55.196 125.898 55.26 123.434 55.276L123.242 53.692ZM125.338 60.572V56.284H127.322V58.988H135.306V60.572H125.338ZM132.874 57.228V46.492H134.858V50.908H136.602V52.524H134.858V57.228H132.874ZM147.306 46.508H149.306V54.604H147.306V46.508ZM137.354 52.796C139.738 52.06 140.794 50.204 140.794 48.396V47.036H142.81V48.396C142.81 50.172 143.882 51.852 146.186 52.556L145.242 54.092C143.61 53.596 142.474 52.588 141.834 51.292C141.178 52.7 140.01 53.804 138.314 54.348L137.354 52.796ZM139.786 60.684V55.276H149.306V60.684H139.786ZM141.722 59.116H147.37V56.828H141.722V59.116ZM154.666 55.228H156.586V55.724C156.586 56.876 157.066 58.076 158.218 58.876C159.402 58.028 159.898 56.78 159.898 55.724V55.228H161.85V55.724C161.85 57.212 162.666 58.604 164.538 59.18L163.578 60.636C162.218 60.172 161.338 59.292 160.842 58.188C160.378 59.292 159.546 60.252 158.25 60.78C156.938 60.284 156.106 59.356 155.642 58.236C155.13 59.308 154.25 60.172 152.954 60.636L151.978 59.18C153.85 58.54 154.666 57.116 154.666 55.724V55.228ZM151.626 50.684C151.626 48.668 153.29 47.244 155.514 47.244C157.738 47.244 159.402 48.668 159.402 50.684C159.402 52.668 157.738 54.092 155.514 54.092C153.29 54.092 151.626 52.668 151.626 50.684ZM153.562 50.684C153.562 51.788 154.394 52.46 155.514 52.46C156.634 52.46 157.466 51.788 157.466 50.684C157.466 49.564 156.634 48.892 155.514 48.892C154.394 48.892 153.562 49.564 153.562 50.684ZM161.306 54.62V46.508H163.322V54.62H161.306ZM167.003 47.004H168.987V50.412H176.923V51.98H167.003V47.004ZM165.403 55.1V53.516H178.379V55.1H165.403ZM166.875 60.54V56.268H168.859V58.94H177.003V60.54H166.875ZM183.059 53.868H196.035V55.42H190.707V57.756H188.707V55.42H183.059V53.868ZM184.562 60.588V56.636H186.547V58.988H194.595V60.588H184.562ZM184.723 52.828V46.94H186.674V48.46H192.403V46.94H194.371V52.828H184.723ZM186.674 51.276H192.403V49.948H186.674V51.276ZM197.075 52.108H210.019V53.676H197.075V52.108ZM198.531 56.012V54.524H208.419V58.268H200.499V59.196H208.803V60.716H198.563V56.876H206.467V56.012H198.531ZM198.675 51.292V46.796H208.355V48.364H200.643V49.74H208.499V51.292H198.675ZM213.651 57.932L212.451 61.9H211.043L211.683 57.932H213.651ZM229.462 46.508H231.462V56.956H229.462V46.508ZM219.526 53.452C221.91 52.62 222.966 50.62 222.966 48.7V47.276H224.982V48.7C224.982 50.588 226.006 52.444 228.342 53.196L227.318 54.78C225.718 54.236 224.614 53.148 223.99 51.772C223.366 53.244 222.214 54.428 220.55 55.02L219.526 53.452ZM221.942 60.572V55.964H223.926V58.988H231.83V60.572H221.942ZM242.791 46.476H244.775V51.948H246.791V53.58H244.775V60.828H242.791V46.476ZM234.023 57.308V47.868H235.991V55.676C237.831 55.644 239.799 55.468 241.831 55.068L242.039 56.684C239.639 57.18 237.367 57.308 235.239 57.308H234.023ZM257.975 46.492H259.863V60.828H257.975V46.492ZM247.367 56.46C250.263 54.732 251.527 52.636 251.799 49.788H248.151V48.204H253.751C253.751 49.564 253.607 50.844 253.255 52.028H254.951V46.812H256.807V60.188H254.951V53.612H252.647C251.831 55.244 250.503 56.668 248.487 57.852L247.367 56.46ZM266.751 47.484H276.703V49.068H268.767V50.524H276.367V52.06H268.767V53.612H276.815V55.196H272.703V57.628H278.207V59.228H265.231V57.628H270.719V55.196H266.751V47.484ZM279.215 54.46H284.703V53.324H280.831V49.356H288.639V48.332H280.799V46.828H290.591V50.78H282.767V51.82H290.879V53.324H286.687V54.46H292.191V56.044H279.215V54.46ZM280.847 60.908V56.78H282.815V59.34H290.927V60.908H280.847ZM293.168 48.684H295.648V46.876H297.6V48.684H300.048V50.252H293.168V48.684ZM293.488 54.332C293.488 52.348 294.816 50.94 296.624 50.94C298.448 50.94 299.76 52.348 299.76 54.332C299.76 56.332 298.448 57.724 296.624 57.724C294.816 57.724 293.488 56.332 293.488 54.332ZM295.248 54.332C295.248 55.452 295.824 56.076 296.624 56.076C297.44 56.076 298.016 55.452 298.016 54.332C298.016 53.228 297.44 52.572 296.624 52.572C295.824 52.572 295.248 53.228 295.248 54.332ZM300.576 60.22V46.78H302.432V52.348H303.584V46.492H305.472V60.828H303.584V53.948H302.432V60.22H300.576ZM307.184 57.532H310.064V53.996C308.976 53.324 308.304 52.3 308.304 51.036C308.304 48.716 310.576 47.212 313.648 47.212C316.736 47.212 318.992 48.716 318.992 51.036C318.992 52.284 318.336 53.308 317.264 53.98V57.532H320.16V59.148H307.184V57.532ZM310.272 51.036C310.272 52.476 311.632 53.324 313.648 53.324C315.68 53.324 317.04 52.476 317.04 51.036C317.04 49.596 315.68 48.748 313.648 48.748C311.632 48.748 310.272 49.596 310.272 51.036ZM312.048 57.532H315.28V54.716C314.768 54.828 314.224 54.876 313.648 54.876C313.088 54.876 312.544 54.828 312.048 54.732V57.532Z" fill="#C6C6C6"/>
</svg>
