<svg width="125" height="30" viewBox="0 0 125 30" fill="none" xmlns="http://www.w3.org/2000/svg">
<path d="M18.5446 11.0636C18.2407 10.1478 17.8609 9.30823 17.4052 8.62134C16.9494 7.93445 16.4177 7.32388 15.734 6.78963C15.3542 6.48435 14.9744 6.17907 14.5187 5.9501C14.0629 5.64482 13.5312 5.41585 12.8475 5.18689C12.1639 4.95793 11.4802 4.80528 10.6447 4.65264C9.80911 4.5 8.82162 4.5 7.68221 4.5H3.50438C1.68132 4.57632 0.162109 6.10274 0.162109 7.93445V19.5353C0.162109 21.367 1.68132 22.8934 3.50438 22.8934H7.98605V24.8014C7.98605 25.2593 8.36586 25.5646 8.82162 25.4883C11.3283 25.1067 19.0003 23.1987 19.0003 14.727C19.0003 14.727 19.0003 14.2691 19.0003 13.9638C19.0003 13.048 18.8484 11.9795 18.5446 11.0636ZM5.40339 14.5744C4.94763 14.5744 4.56783 14.1928 4.56783 13.7349C4.56783 13.2769 4.94763 12.8953 5.40339 12.8953C5.85916 12.8953 6.23896 13.2769 6.23896 13.7349C6.23896 14.1928 5.85916 14.5744 5.40339 14.5744ZM9.58123 14.5744C9.12546 14.5744 8.74566 14.1928 8.74566 13.7349C8.74566 13.2769 9.12546 12.8953 9.58123 12.8953C10.037 12.8953 10.4168 13.2769 10.4168 13.7349C10.4168 14.1928 10.037 14.5744 9.58123 14.5744ZM13.7591 14.5744C13.3033 14.5744 12.9235 14.1928 12.9235 13.7349C12.9235 13.2769 13.3033 12.8953 13.7591 12.8953C14.2148 12.8953 14.5946 13.2769 14.5946 13.7349C14.5946 14.1928 14.2148 14.5744 13.7591 14.5744Z" fill="white"/>
<path d="M35.768 16.416H55.208V18.816H46.904V26.04H43.928V18.816H35.768V16.416ZM36.728 12.792C41.048 12.264 43.448 10.104 43.76 7.992H37.496V5.64H53.432V7.992H47.216C47.528 10.104 49.928 12.264 54.248 12.792L53.168 15.144C49.448 14.616 46.784 12.984 45.488 10.752C44.192 12.984 41.528 14.616 37.808 15.144L36.728 12.792ZM72.3206 4.488H75.1286V25.992H72.3206V4.488ZM56.2886 19.776C59.4086 17.808 60.5846 13.944 60.5846 10.248V9.096H57.0566V6.696H66.6806V9.096H63.4646V10.248C63.4646 13.848 64.5686 17.496 67.6646 19.296L65.9366 21.432C64.0406 20.304 62.7686 18.384 62.0486 16.08C61.3046 18.6 60.0326 20.736 58.0646 21.96L56.2886 19.776ZM65.1446 14.304V11.88H67.9766V4.872H70.7366V25.008H67.9766V14.304H65.1446ZM94.1964 9.12H98.2044V4.512H101.18V20.4H98.2044V11.52H94.1964V9.12ZM83.0844 15.408C86.6124 14.208 88.1964 11.256 88.1964 8.16V5.808H91.1964V8.184C91.1964 10.992 92.7084 13.752 96.0444 14.928L94.4604 17.208C92.2044 16.368 90.6444 14.784 89.7564 12.792C88.8204 15.048 87.1404 16.824 84.6684 17.736L83.0844 15.408ZM86.9724 25.608V18.768H89.9724V23.232H101.66V25.608H86.9724ZM104.949 5.952H113.373V8.304H107.805V10.176H113.181V12.408H107.805V14.376C110.181 14.352 111.909 14.232 113.901 13.896L114.189 16.248C111.741 16.704 109.653 16.752 106.437 16.752H104.949V5.952ZM107.757 20.928V18.552H122.493V26.016H119.541V20.928H107.757ZM115.077 17.472V4.896H117.837V9.792H119.685V4.488H122.493V17.616H119.685V12.192H117.837V17.472H115.077Z" fill="white"/>
</svg>
