<svg width="503" height="64" viewBox="0 0 503 64" fill="none" xmlns="http://www.w3.org/2000/svg">
<path d="M210.464 11.5636C210.16 10.6478 209.78 9.80823 209.324 9.12134C208.868 8.43445 208.337 7.82388 207.653 7.28963C207.273 6.98435 206.893 6.67906 206.438 6.4501C205.982 6.14482 205.45 5.91585 204.766 5.68689C204.083 5.45793 203.399 5.30528 202.564 5.15264C201.728 5 200.741 5 199.601 5H195.423C193.6 5.07632 192.081 6.60274 192.081 8.43445V20.0353C192.081 21.867 193.6 23.3934 195.423 23.3934H199.905V25.3014C199.905 25.7593 200.285 26.0646 200.741 25.9883C203.247 25.6067 210.919 23.6987 210.919 15.227C210.919 15.227 210.919 14.7691 210.919 14.4638C210.919 13.548 210.767 12.4795 210.464 11.5636ZM197.322 15.0744C196.867 15.0744 196.487 14.6928 196.487 14.2349C196.487 13.7769 196.867 13.3953 197.322 13.3953C197.778 13.3953 198.158 13.7769 198.158 14.2349C198.158 14.6928 197.778 15.0744 197.322 15.0744ZM201.5 15.0744C201.044 15.0744 200.665 14.6928 200.665 14.2349C200.665 13.7769 201.044 13.3953 201.5 13.3953C201.956 13.3953 202.336 13.7769 202.336 14.2349C202.336 14.6928 201.956 15.0744 201.5 15.0744ZM205.678 15.0744C205.222 15.0744 204.842 14.6928 204.842 14.2349C204.842 13.7769 205.222 13.3953 205.678 13.3953C206.134 13.3953 206.514 13.7769 206.514 14.2349C206.514 14.6928 206.134 15.0744 205.678 15.0744Z" fill="white"/>
<path d="M242.567 5.012H245.543V26.516H242.567V5.012ZM227.759 20.468C229.391 20.468 231.239 20.468 233.159 20.42V18.548C230.831 18.116 229.319 16.652 229.319 14.636C229.319 12.236 231.503 10.628 234.647 10.628C237.815 10.628 239.999 12.236 239.999 14.636C239.999 16.652 238.487 18.14 236.135 18.572V20.3C237.935 20.204 239.735 20.06 241.439 19.844L241.631 21.98C236.951 22.844 231.935 22.868 228.119 22.868L227.759 20.468ZM228.167 9.716V7.388H233.159V5.084H236.135V7.388H241.127V9.716H228.167ZM232.151 14.636C232.151 15.812 233.183 16.436 234.647 16.436C236.135 16.436 237.167 15.812 237.167 14.636C237.167 13.484 236.135 12.86 234.647 12.86C233.183 12.86 232.151 13.484 232.151 14.636ZM253.536 6.692H256.488V9.86C256.488 13.724 258.096 17.636 261.528 19.316L259.728 21.668C257.472 20.516 255.912 18.38 255.024 15.788C254.088 18.572 252.432 20.876 250.008 22.076L248.208 19.676C251.784 17.996 253.536 13.868 253.536 9.86V6.692ZM262.464 26.516V5.012H265.44V13.316H268.632V15.788H265.44V26.516H262.464ZM273.528 6.284H276.408V8.804C276.408 11.132 277.608 13.46 280.416 14.588L278.856 16.844C277.032 16.124 275.784 14.828 275.016 13.244C274.224 15.116 272.88 16.652 270.888 17.516L269.328 15.236C272.28 13.916 273.528 11.252 273.528 8.804V6.284ZM273.24 22.484C273.24 19.988 276.12 18.476 280.632 18.476C285.12 18.476 288 19.988 288 22.484C288 25.004 285.12 26.516 280.632 26.516C276.12 26.516 273.24 25.004 273.24 22.484ZM276.216 22.484C276.216 23.66 277.8 24.284 280.632 24.284C283.44 24.284 285.024 23.66 285.024 22.484C285.024 21.332 283.44 20.732 280.632 20.732C277.8 20.732 276.216 21.332 276.216 22.484ZM280.512 17.492V5.42H283.296V10.292H285.072V5.012H287.904V18.164H285.072V12.692H283.296V17.492H280.512ZM304.633 4.988H307.609V10.124H310.369V12.572H307.609V17.636H304.633V4.988ZM290.353 15.404C291.913 15.404 293.689 15.404 295.561 15.356V14.348C293.233 14.06 291.793 13.076 291.793 11.588C291.793 9.836 293.833 8.78 297.001 8.78C300.193 8.78 302.233 9.836 302.233 11.588C302.233 13.076 300.817 14.036 298.513 14.324V15.236C300.265 15.14 302.017 14.996 303.673 14.78L303.889 16.58C299.353 17.372 294.385 17.42 290.665 17.42L290.353 15.404ZM290.905 8.348V6.356H295.561V4.796H298.513V6.356H303.121V8.348H290.905ZM293.209 20.42V18.452H307.609V23.252H296.185V24.38H308.377V26.348H293.233V21.428H304.681V20.42H293.209ZM294.625 11.588C294.625 12.26 295.513 12.572 297.001 12.572C298.537 12.572 299.401 12.26 299.401 11.588C299.401 10.94 298.537 10.604 297.001 10.604C295.513 10.604 294.625 10.94 294.625 11.588Z" fill="white"/>
<path d="M10.432 46.492H12.416V60.828H10.432V46.492ZM0.544 56.812C4.224 55.068 5.824 52.764 6.128 49.564H1.28V47.98H8.16C8.16 52.348 6.64 55.932 1.568 58.38L0.544 56.812ZM16.1444 47.02H18.0964V48.46H23.8244V47.02H25.7924V52.86H21.9364V54.108H27.4404V55.676H14.4804V54.108H19.9524V52.86H16.1444V47.02ZM16.0644 60.588V56.556H18.0324V59.004H25.9844V60.588H16.0644ZM18.0964 51.308H23.8244V49.996H18.0964V51.308ZM30.0168 54.668H31.9688V56.204H37.9048V54.668H39.8728V60.7H30.0168V54.668ZM28.4808 53.724V52.124H37.6328C37.9208 50.732 37.9688 49.66 37.9688 48.668H30.0807V47.084H39.9048V48.22C39.9048 49.34 39.9048 50.508 39.5848 52.124H41.4568V53.724H28.4808ZM31.9688 59.1H37.9048V57.724H31.9688V59.1ZM52.3211 46.476H54.3211V60.86H52.3211V46.476ZM42.8491 52.604C42.8491 49.468 44.4491 47.5 46.6251 47.5C48.7851 47.5 50.3691 49.468 50.3691 52.604C50.3691 55.756 48.7851 57.724 46.6251 57.724C44.4491 57.724 42.8491 55.756 42.8491 52.604ZM44.7691 52.604C44.7691 54.748 45.5211 55.932 46.6251 55.932C47.7131 55.932 48.4651 54.748 48.4651 52.604C48.4651 50.46 47.7131 49.292 46.6251 49.292C45.5211 49.292 44.7691 50.46 44.7691 52.604ZM61.785 46.78H63.753V49.788H71.705V51.356H67.593V52.652H73.097V54.204H60.137V52.652H65.609V51.356H61.785V46.78ZM61.369 60.684V59.116H63.481V56.78H61.513V55.212H71.721V56.78H69.753V59.116H71.865V60.684H61.369ZM65.433 59.116H67.801V56.78H65.433V59.116ZM74.1054 53.836H87.0654V55.404H74.1054V53.836ZM75.4014 49.868C75.4014 48.06 77.4654 46.924 80.5854 46.924C83.7054 46.924 85.7694 48.06 85.7694 49.868C85.7694 51.708 83.7054 52.828 80.5854 52.828C77.4654 52.828 75.4014 51.708 75.4014 49.868ZM75.6894 60.588V56.412H77.6574V59.004H85.6094V60.588H75.6894ZM77.4494 49.868C77.4494 50.78 78.6174 51.244 80.5854 51.244C82.5534 51.244 83.7214 50.78 83.7214 49.868C83.7214 48.972 82.5534 48.508 80.5854 48.508C78.6174 48.508 77.4494 48.972 77.4494 49.868ZM102.209 46.492H104.097V60.828H102.209V46.492ZM91.6013 56.46C94.4973 54.732 95.7613 52.636 96.0333 49.788H92.3853V48.204H97.9853C97.9853 49.564 97.8413 50.844 97.4893 52.028H99.1853V46.812H101.041V60.188H99.1853V53.612H96.8813C96.0653 55.244 94.7373 56.668 92.7213 57.852L91.6013 56.46ZM114.921 50.78H116.905V52.124H122.441V53.676H109.465V52.124H114.921V50.78ZM110.009 50.108C112.585 49.964 114.041 49.212 114.441 48.38H110.633V46.86H121.257V48.38H117.417C117.817 49.212 119.273 49.964 121.849 50.108L121.241 51.58C118.489 51.404 116.665 50.508 115.929 49.228C115.193 50.508 113.353 51.404 110.617 51.58L110.009 50.108ZM110.617 56.668V55.18H114.921V54.124H116.905V55.18H121.225V56.668H110.617ZM111.545 59.004C111.545 57.772 113.145 57.116 115.897 57.116C118.681 57.116 120.265 57.772 120.265 59.004C120.265 60.236 118.681 60.876 115.897 60.876C113.145 60.876 111.545 60.236 111.545 59.004ZM113.593 59.004C113.593 59.404 114.377 59.58 115.897 59.58C117.449 59.58 118.233 59.404 118.233 59.004C118.233 58.572 117.449 58.412 115.897 58.412C114.377 58.412 113.593 58.572 113.593 59.004ZM127.274 47.5C129.45 47.5 131.017 49.468 131.017 52.604C131.017 55.756 129.45 57.724 127.274 57.724C125.098 57.724 123.53 55.756 123.53 52.604C123.53 49.468 125.098 47.5 127.274 47.5ZM125.434 52.604C125.434 54.748 126.17 55.932 127.274 55.932C128.378 55.932 129.13 54.748 129.13 52.604C129.13 50.46 128.378 49.292 127.274 49.292C126.17 49.292 125.434 50.46 125.434 52.604ZM132.666 60.844V46.508H134.65V51.948H136.762V53.58H134.65V60.844H132.666ZM140.042 57.932L138.842 61.9H137.434L138.074 57.932H140.042ZM149.901 47.276C151.053 47.276 152.045 47.692 152.733 48.396H155.949V46.508H157.933V54.908H155.949V53.18H152.701C152.029 53.868 151.037 54.268 149.901 54.268C147.773 54.268 146.141 52.812 146.141 50.78C146.141 48.748 147.773 47.276 149.901 47.276ZM148.013 50.78C148.013 51.916 148.829 52.604 149.901 52.604C151.005 52.604 151.789 51.916 151.789 50.78C151.789 49.628 151.005 48.956 149.901 48.956C148.829 48.956 148.013 49.628 148.013 50.78ZM148.189 58.028C148.189 56.252 150.077 55.196 153.085 55.196C156.093 55.196 157.981 56.252 157.981 58.028C157.981 59.804 156.093 60.844 153.085 60.844C150.077 60.844 148.189 59.804 148.189 58.028ZM150.141 58.028C150.141 58.876 151.181 59.324 153.085 59.324C155.005 59.324 156.029 58.876 156.029 58.028C156.029 57.164 155.005 56.732 153.085 56.732C151.181 56.732 150.141 57.164 150.141 58.028ZM153.581 51.596H155.949V49.98H153.581C153.645 50.236 153.677 50.508 153.677 50.78C153.677 51.068 153.645 51.34 153.581 51.596ZM159.949 51.612H163.325C163.757 50.316 163.853 49.356 163.885 48.524H161.069V46.94H165.805V47.852C165.805 48.796 165.805 50.06 165.373 51.612H168.973C169.325 50.316 169.421 49.324 169.437 48.524H166.653V46.94H171.373V47.74C171.373 48.636 171.373 49.932 170.957 51.612H172.925V53.18H159.949V51.612ZM161.437 55.692V54.172H171.309V58.076H163.421V59.148H171.709V60.684H161.453V56.652H169.325V55.692H161.437ZM183.806 46.476H185.806V60.86H183.806V46.476ZM174.334 52.604C174.334 49.468 175.934 47.5 178.11 47.5C180.27 47.5 181.854 49.468 181.854 52.604C181.854 55.756 180.27 57.724 178.11 57.724C175.934 57.724 174.334 55.756 174.334 52.604ZM176.254 52.604C176.254 54.748 177.006 55.932 178.11 55.932C179.198 55.932 179.95 54.748 179.95 52.604C179.95 50.46 179.198 49.292 178.11 49.292C177.006 49.292 176.254 50.46 176.254 52.604ZM193.269 46.78H195.237V49.788H203.189V51.356H199.077V52.652H204.581V54.204H191.621V52.652H197.093V51.356H193.269V46.78ZM192.853 60.684V59.116H194.965V56.78H192.997V55.212H203.205V56.78H201.237V59.116H203.349V60.684H192.853ZM196.917 59.116H199.285V56.78H196.917V59.116ZM205.59 53.836H218.55V55.404H205.59V53.836ZM206.886 49.868C206.886 48.06 208.95 46.924 212.07 46.924C215.19 46.924 217.254 48.06 217.254 49.868C217.254 51.708 215.19 52.828 212.07 52.828C208.95 52.828 206.886 51.708 206.886 49.868ZM207.174 60.588V56.412H209.142V59.004H217.094V60.588H207.174ZM208.934 49.868C208.934 50.78 210.102 51.244 212.07 51.244C214.038 51.244 215.206 50.78 215.206 49.868C215.206 48.972 214.038 48.508 212.07 48.508C210.102 48.508 208.934 48.972 208.934 49.868ZM233.694 46.492H235.582V60.828H233.694V46.492ZM223.086 56.46C225.982 54.732 227.246 52.636 227.518 49.788H223.87V48.204H229.47C229.47 49.564 229.326 50.844 228.974 52.028H230.67V46.812H232.526V60.188H230.67V53.612H228.366C227.55 55.244 226.222 56.668 224.206 57.852L223.086 56.46ZM246.406 50.78H248.39V52.124H253.926V53.676H240.95V52.124H246.406V50.78ZM241.493 50.108C244.07 49.964 245.526 49.212 245.926 48.38H242.118V46.86H252.742V48.38H248.902C249.302 49.212 250.758 49.964 253.334 50.108L252.726 51.58C249.974 51.404 248.15 50.508 247.414 49.228C246.678 50.508 244.838 51.404 242.102 51.58L241.493 50.108ZM242.102 56.668V55.18H246.406V54.124H248.39V55.18H252.71V56.668H242.102ZM243.03 59.004C243.03 57.772 244.63 57.116 247.382 57.116C250.166 57.116 251.75 57.772 251.75 59.004C251.75 60.236 250.166 60.876 247.382 60.876C244.63 60.876 243.03 60.236 243.03 59.004ZM245.078 59.004C245.078 59.404 245.862 59.58 247.382 59.58C248.934 59.58 249.718 59.404 249.718 59.004C249.718 58.572 248.934 58.412 247.382 58.412C245.862 58.412 245.078 58.572 245.078 59.004ZM258.758 47.5C260.934 47.5 262.502 49.468 262.502 52.604C262.502 55.756 260.934 57.724 258.758 57.724C256.582 57.724 255.014 55.756 255.014 52.604C255.014 49.468 256.582 47.5 258.758 47.5ZM256.918 52.604C256.918 54.748 257.654 55.932 258.758 55.932C259.862 55.932 260.614 54.748 260.614 52.604C260.614 50.46 259.862 49.292 258.758 49.292C257.654 49.292 256.918 50.46 256.918 52.604ZM264.15 60.844V46.508H266.134V51.948H268.246V53.58H266.134V60.844H264.15ZM271.622 56.268C271.622 54.252 272.326 53.26 273.334 52.508C274.118 51.916 274.726 51.564 274.726 50.812C274.726 49.612 273.894 48.924 272.678 48.924C271.878 48.924 271.19 49.42 270.902 50.508L268.982 50.028C269.462 48.108 271.126 46.94 272.678 46.94C274.742 46.94 276.71 48.54 276.71 50.812C276.71 52.188 275.286 53.532 274.518 54.108C273.83 54.62 273.606 54.94 273.606 56.268H271.622ZM271.526 58.86C271.526 58.268 271.91 57.788 272.614 57.788C273.318 57.788 273.686 58.268 273.686 58.86C273.686 59.468 273.318 59.948 272.614 59.948C271.91 59.948 271.526 59.468 271.526 58.86ZM290.947 46.508H292.931V52.124H295.027V53.772H292.931V60.844H290.947V46.508ZM281.635 50.22V48.636H284.835V46.732H286.835V48.636H290.003V50.22H281.635ZM282.227 54.476C282.227 52.476 283.763 51.068 285.843 51.068C287.923 51.068 289.475 52.476 289.475 54.476C289.475 56.46 287.923 57.868 285.843 57.868C283.763 57.868 282.227 56.46 282.227 54.476ZM284.131 54.476C284.131 55.58 284.835 56.252 285.843 56.252C286.851 56.252 287.571 55.58 287.571 54.476C287.571 53.356 286.851 52.668 285.843 52.668C284.835 52.668 284.131 53.356 284.131 54.476ZM304.916 46.476H306.9V51.948H308.916V53.58H306.9V60.828H304.916V46.476ZM296.148 57.308V47.868H298.116V55.676C299.956 55.644 301.924 55.468 303.956 55.068L304.164 56.684C301.764 57.18 299.492 57.308 297.364 57.308H296.148ZM318.916 46.508H320.9V52.124H322.996V53.772H320.9V60.844H318.916V46.508ZM309.604 50.22V48.636H312.804V46.732H314.804V48.636H317.972V50.22H309.604ZM310.196 54.476C310.196 52.476 311.732 51.068 313.812 51.068C315.892 51.068 317.444 52.476 317.444 54.476C317.444 56.46 315.892 57.868 313.812 57.868C311.732 57.868 310.196 56.46 310.196 54.476ZM312.1 54.476C312.1 55.58 312.804 56.252 313.812 56.252C314.82 56.252 315.54 55.58 315.54 54.476C315.54 53.356 314.82 52.668 313.812 52.668C312.804 52.668 312.1 53.356 312.1 54.476ZM332.884 46.476H334.868V51.948H336.884V53.58H334.868V60.828H332.884V46.476ZM324.116 57.308V47.868H326.084V55.676C327.924 55.644 329.892 55.468 331.924 55.068L332.132 56.684C329.732 57.18 327.46 57.308 325.332 57.308H324.116ZM350.556 46.476H352.54V51.82H354.652V53.452H352.54V60.86H350.556V46.476ZM341.9 57.404V47.836H348.572V49.42H343.868V55.756C345.948 55.74 347.66 55.644 349.548 55.308L349.74 56.94C347.564 57.34 345.612 57.404 343.1 57.404H341.9ZM355.325 54.268H368.301V55.852H355.325V54.268ZM356.909 48.348V46.844H366.701V50.78H358.877V51.836H366.989V53.34H356.941V49.372H364.749V48.348H356.909ZM356.957 60.572V56.668H358.924V59.004H367.037V60.572H356.957ZM382.196 46.476H384.196V52.012H386.212V53.644H384.196V60.828H382.196V46.476ZM372.868 56.828C376.228 55.1 378.02 52.78 378.388 49.564H373.652V47.964H380.388C380.388 52.252 378.724 55.932 373.972 58.332L372.868 56.828ZM396.853 46.492H398.853V60.828H396.853V46.492ZM387.029 56.668C389.365 55.612 390.517 53.196 390.517 50.972V50.412H387.509V48.86H390.517V46.812H392.501V48.86H395.461V50.412H392.501V50.972C392.501 53.084 393.701 55.42 396.037 56.412L394.965 57.932C393.349 57.26 392.197 55.868 391.541 54.204C390.917 55.98 389.765 57.452 388.101 58.172L387.029 56.668ZM401.605 47.548H408.933V48.428C408.933 49.42 408.933 50.844 408.581 52.652L406.661 52.428C406.917 51.068 406.965 49.996 406.981 49.132H401.605V47.548ZM400.757 53.692C401.557 53.692 402.453 53.692 403.413 53.676V50.876H405.365V53.612C406.789 53.548 408.245 53.436 409.589 53.244L409.717 54.652C406.757 55.196 403.413 55.26 400.949 55.276L400.757 53.692ZM402.853 60.572V56.284H404.837V58.988H412.821V60.572H402.853ZM410.389 57.228V46.492H412.373V50.908H414.117V52.524H412.373V57.228H410.389ZM421.414 46.716C424.678 46.716 426.598 47.564 426.598 49.164C426.598 50.748 424.678 51.612 421.414 51.612C418.166 51.612 416.23 50.748 416.23 49.164C416.23 47.564 418.166 46.716 421.414 46.716ZM414.934 53.884V52.3H427.894V53.884H414.934ZM416.422 56.188V54.716H426.31V58.364H418.39V59.244H426.694V60.732H416.454V56.972H424.358V56.188H416.422ZM418.294 49.164C418.294 49.852 419.318 50.156 421.414 50.156C423.51 50.156 424.534 49.852 424.534 49.164C424.534 48.492 423.51 48.156 421.414 48.156C419.318 48.156 418.294 48.492 418.294 49.164ZM434.141 47.484H444.093V49.068H436.157V50.524H443.757V52.06H436.157V53.612H444.205V55.196H440.093V57.628H445.597V59.228H432.621V57.628H438.109V55.196H434.141V47.484ZM446.606 54.46H452.094V53.324H448.222V49.356H456.03V48.332H448.19V46.828H457.982V50.78H450.158V51.82H458.27V53.324H454.078V54.46H459.582V56.044H446.606V54.46ZM448.238 60.908V56.78H450.206V59.34H458.318V60.908H448.238ZM460.558 48.684H463.038V46.876H464.99V48.684H467.438V50.252H460.558V48.684ZM460.878 54.332C460.878 52.348 462.206 50.94 464.014 50.94C465.838 50.94 467.15 52.348 467.15 54.332C467.15 56.332 465.838 57.724 464.014 57.724C462.206 57.724 460.878 56.332 460.878 54.332ZM462.638 54.332C462.638 55.452 463.214 56.076 464.014 56.076C464.83 56.076 465.406 55.452 465.406 54.332C465.406 53.228 464.83 52.572 464.014 52.572C463.214 52.572 462.638 53.228 462.638 54.332ZM467.966 60.22V46.78H469.822V52.348H470.974V46.492H472.862V60.828H470.974V53.948H469.822V60.22H467.966ZM475.263 47.66H477.215V49.436H480.511V47.66H482.479V54.22H479.871V56.428C480.975 56.38 482.062 56.284 483.102 56.14L483.263 57.58C480.271 58.14 477.071 58.14 474.655 58.124L474.415 56.524C475.455 56.524 476.639 56.524 477.887 56.508V54.22H475.263V47.66ZM477.215 52.668H480.511V50.956H477.215V52.668ZM483.871 60.828V46.492H485.839V52.268H487.775V53.9H485.839V60.828H483.871ZM488.559 57.532H491.439V53.996C490.351 53.324 489.679 52.3 489.679 51.036C489.679 48.716 491.951 47.212 495.023 47.212C498.111 47.212 500.367 48.716 500.367 51.036C500.367 52.284 499.711 53.308 498.639 53.98V57.532H501.535V59.148H488.559V57.532ZM491.647 51.036C491.647 52.476 493.007 53.324 495.023 53.324C497.055 53.324 498.415 52.476 498.415 51.036C498.415 49.596 497.055 48.748 495.023 48.748C493.007 48.748 491.647 49.596 491.647 51.036ZM493.423 57.532H496.655V54.716C496.143 54.828 495.599 54.876 495.023 54.876C494.463 54.876 493.919 54.828 493.423 54.732V57.532Z" fill="#C6C6C6"/>
</svg>
