<svg width="453" height="64" viewBox="0 0 453 64" fill="none" xmlns="http://www.w3.org/2000/svg">
<path d="M206.464 11.5636C206.16 10.6478 205.78 9.80823 205.324 9.12134C204.868 8.43445 204.337 7.82388 203.653 7.28963C203.273 6.98435 202.893 6.67906 202.438 6.4501C201.982 6.14482 201.45 5.91585 200.766 5.68689C200.083 5.45793 199.399 5.30528 198.564 5.15264C197.728 5 196.741 5 195.601 5H191.423C189.6 5.07632 188.081 6.60274 188.081 8.43445V20.0353C188.081 21.867 189.6 23.3934 191.423 23.3934H195.905V25.3014C195.905 25.7593 196.285 26.0646 196.741 25.9883C199.247 25.6067 206.919 23.6987 206.919 15.227C206.919 15.227 206.919 14.7691 206.919 14.4638C206.919 13.548 206.767 12.4795 206.464 11.5636ZM193.322 15.0744C192.867 15.0744 192.487 14.6928 192.487 14.2349C192.487 13.7769 192.867 13.3953 193.322 13.3953C193.778 13.3953 194.158 13.7769 194.158 14.2349C194.158 14.6928 193.778 15.0744 193.322 15.0744ZM197.5 15.0744C197.044 15.0744 196.665 14.6928 196.665 14.2349C196.665 13.7769 197.044 13.3953 197.5 13.3953C197.956 13.3953 198.336 13.7769 198.336 14.2349C198.336 14.6928 197.956 15.0744 197.5 15.0744ZM201.678 15.0744C201.222 15.0744 200.842 14.6928 200.842 14.2349C200.842 13.7769 201.222 13.3953 201.678 13.3953C202.134 13.3953 202.514 13.7769 202.514 14.2349C202.514 14.6928 202.134 15.0744 201.678 15.0744Z" fill="white"/>
<path d="M238.639 5.012H241.639V20.732H238.639V15.62H233.791C232.759 16.724 231.271 17.372 229.591 17.372C226.399 17.372 223.927 15.044 223.927 11.828C223.927 8.588 226.399 6.284 229.591 6.284C231.271 6.284 232.759 6.932 233.791 8.012H238.639V5.012ZM226.735 11.828C226.735 13.676 227.959 14.78 229.591 14.78C231.199 14.78 232.423 13.676 232.423 11.828C232.423 10.004 231.199 8.9 229.591 8.9C227.959 8.9 226.735 10.004 226.735 11.828ZM227.455 26.108V19.196H230.455V23.732H242.119V26.108H227.455ZM235.087 10.388C235.183 10.844 235.255 11.324 235.255 11.828C235.255 12.332 235.207 12.788 235.087 13.244H238.639V10.388H235.087ZM249.464 6.524C252.32 6.524 254.144 9.476 254.144 14.324C254.144 19.172 252.32 22.1 249.464 22.1C246.632 22.1 244.808 19.172 244.808 14.324C244.808 9.476 246.632 6.524 249.464 6.524ZM247.544 14.324C247.544 17.636 248.264 19.292 249.464 19.292C250.688 19.292 251.408 17.636 251.408 14.324C251.408 10.988 250.688 9.332 249.464 9.332C248.264 9.332 247.544 10.988 247.544 14.324ZM255.536 25.508V5.348H258.32V13.244H260.264V4.988H263.072V26.492H260.264V15.62H258.32V25.508H255.536Z" fill="white"/>
<path d="M10.48 46.508H12.48V56.988H10.48V53.58H7.248C6.56 54.316 5.568 54.748 4.448 54.748C2.32 54.748 0.672 53.196 0.672 51.052C0.672 48.892 2.32 47.356 4.448 47.356C5.568 47.356 6.56 47.788 7.248 48.508H10.48V46.508ZM2.544 51.052C2.544 52.284 3.36 53.02 4.448 53.02C5.52 53.02 6.336 52.284 6.336 51.052C6.336 49.836 5.52 49.1 4.448 49.1C3.36 49.1 2.544 49.836 2.544 51.052ZM3.024 60.572V55.964H5.024V58.988H12.8V60.572H3.024ZM8.112 50.092C8.176 50.396 8.224 50.716 8.224 51.052C8.224 51.388 8.192 51.692 8.112 51.996H10.48V50.092H8.112ZM17.6964 47.516C19.6004 47.516 20.8164 49.484 20.8164 52.716C20.8164 55.948 19.6004 57.9 17.6964 57.9C15.8084 57.9 14.5924 55.948 14.5924 52.716C14.5924 49.484 15.8084 47.516 17.6964 47.516ZM16.4164 52.716C16.4164 54.924 16.8964 56.028 17.6964 56.028C18.5124 56.028 18.9924 54.924 18.9924 52.716C18.9924 50.492 18.5124 49.388 17.6964 49.388C16.8964 49.388 16.4164 50.492 16.4164 52.716ZM21.7444 60.172V46.732H23.6004V51.996H24.8964V46.492H26.7684V60.828H24.8964V53.58H23.6004V60.172H21.7444ZM37.7448 46.492H39.7288V49.58H41.6648V51.196H39.7288V54.236H37.7448V46.492ZM28.4808 49.068V47.58H31.6968V46.38H33.6808V47.58H36.9128V49.068H28.4808ZM29.1848 51.788C29.1848 50.348 30.5768 49.436 32.7048 49.436C34.8168 49.436 36.2088 50.348 36.2088 51.788C36.2088 53.228 34.8168 54.124 32.7048 54.124C30.5768 54.124 29.1848 53.228 29.1848 51.788ZM30.3048 56.268V54.828H39.7288V58.428H32.2888V59.26H40.1608V60.732H30.3368V57.068H37.7768V56.268H30.3048ZM31.0888 51.788C31.0888 52.396 31.6968 52.716 32.7048 52.716C33.6968 52.716 34.3048 52.396 34.3048 51.788C34.3048 51.148 33.6968 50.844 32.7048 50.844C31.6968 50.844 31.0888 51.148 31.0888 51.788ZM53.8486 46.716H55.6726V52.076H56.7606V46.492H58.6326V60.828H56.7606V53.66H55.6726V60.172H53.8486V46.716ZM46.3926 57.34V48.22H49.4006V49.788H48.1846V55.692C48.5686 55.66 48.9686 55.596 49.4326 55.5L49.5766 57.116C48.5366 57.34 47.7526 57.34 47.0326 57.34H46.3926ZM49.9606 57.34V48.22H53.0806V49.788H51.7366V55.692C52.2006 55.66 52.7126 55.612 53.2726 55.484L53.4166 57.084C52.3286 57.324 51.4806 57.34 50.6166 57.34H49.9606ZM73.0405 46.476H75.0245V51.948H77.0405V53.58H75.0245V60.828H73.0405V46.476ZM64.2725 57.308V47.868H66.2405V55.676C68.0805 55.644 70.0485 55.468 72.0805 55.068L72.2885 56.684C69.8885 57.18 67.6165 57.308 65.4885 57.308H64.2725ZM78.2409 47.676H85.0409V54.588H78.2409V47.676ZM79.8569 60.572V55.932H81.8569V58.988H89.6009V60.572H79.8569ZM80.1929 53.004H83.1049V49.26H80.1929V53.004ZM87.0889 56.956V46.492H89.0729V50.652H90.9929V52.284H89.0729V56.956H87.0889ZM105.337 46.476H107.337V60.86H105.337V46.476ZM95.8648 52.604C95.8648 49.468 97.4648 47.5 99.6408 47.5C101.801 47.5 103.385 49.468 103.385 52.604C103.385 55.756 101.801 57.724 99.6408 57.724C97.4648 57.724 95.8648 55.756 95.8648 52.604ZM97.7848 52.604C97.7848 54.748 98.5368 55.932 99.6408 55.932C100.729 55.932 101.481 54.748 101.481 52.604C101.481 50.46 100.729 49.292 99.6408 49.292C98.5368 49.292 97.7848 50.46 97.7848 52.604ZM109.977 47.148H116.441V51.052H111.961V52.124C114.185 52.108 115.705 52.06 117.433 51.772L117.593 53.276C115.593 53.596 113.881 53.628 111.161 53.628H110.009V49.66H114.489V48.636H109.977V47.148ZM111.865 56.028V54.54H121.433V58.316H113.849V59.228H121.849V60.732H111.897V56.908H119.465V56.028H111.865ZM117.161 50.684V49.116H119.433V46.508H121.433V53.964H119.433V50.684H117.161ZM132.842 46.492H134.81V52.124H136.714V53.772H134.81V60.828H132.842V46.492ZM123.162 56.684C125.098 54.572 125.674 52.444 125.786 49.564H123.786V47.964H127.658C127.658 51.884 127.258 54.972 124.714 57.82L123.162 56.684ZM127.194 57.628C129.114 55.212 129.642 52.732 129.738 49.564H128.154V47.964H131.626C131.626 52.044 131.258 55.612 128.746 58.732L127.194 57.628ZM140.138 56.268C140.138 54.252 140.842 53.26 141.85 52.508C142.634 51.916 143.242 51.564 143.242 50.812C143.242 49.612 142.41 48.924 141.194 48.924C140.394 48.924 139.706 49.42 139.418 50.508L137.498 50.028C137.978 48.108 139.642 46.94 141.194 46.94C143.258 46.94 145.226 48.54 145.226 50.812C145.226 52.188 143.802 53.532 143.034 54.108C142.346 54.62 142.122 54.94 142.122 56.268H140.138ZM140.042 58.86C140.042 58.268 140.426 57.788 141.13 57.788C141.834 57.788 142.202 58.268 142.202 58.86C142.202 59.468 141.834 59.948 141.13 59.948C140.426 59.948 140.042 59.468 140.042 58.86ZM159.463 46.508H161.447V52.124H163.543V53.772H161.447V60.844H159.463V46.508ZM150.151 50.22V48.636H153.351V46.732H155.351V48.636H158.519V50.22H150.151ZM150.743 54.476C150.743 52.476 152.279 51.068 154.359 51.068C156.439 51.068 157.991 52.476 157.991 54.476C157.991 56.46 156.439 57.868 154.359 57.868C152.279 57.868 150.743 56.46 150.743 54.476ZM152.647 54.476C152.647 55.58 153.351 56.252 154.359 56.252C155.367 56.252 156.087 55.58 156.087 54.476C156.087 53.356 155.367 52.668 154.359 52.668C153.351 52.668 152.647 53.356 152.647 54.476ZM173.431 46.476H175.415V51.948H177.431V53.58H175.415V60.828H173.431V46.476ZM164.663 57.308V47.868H166.631V55.676C168.471 55.644 170.439 55.468 172.471 55.068L172.679 56.684C170.279 57.18 168.007 57.308 165.879 57.308H164.663ZM178.2 54.796H191.176V56.348H185.624V60.844H183.64V56.348H178.2V54.796ZM179.688 53.388V47.068H181.64V48.716H187.672V47.068H189.624V53.388H179.688ZM181.64 51.804H187.672V50.268H181.64V51.804ZM202.2 46.476H204.168V60.86H202.2V53.18H199.688V51.58H202.2V46.476ZM192.808 57.612V47.708H199.448V49.308H194.776V51.692H198.952V53.244H194.776V55.996C196.776 55.98 198.36 55.932 200.136 55.644L200.328 57.212C198.248 57.548 196.408 57.612 193.96 57.612H192.808ZM213.792 46.892C214.944 46.892 215.952 47.292 216.64 47.964H219.824V46.508H221.808V53.692H219.824V52.412H216.672C216 53.1 214.976 53.516 213.792 53.516C211.632 53.516 210.016 52.14 210.016 50.22C210.016 48.284 211.632 46.892 213.792 46.892ZM211.888 50.22C211.888 51.276 212.688 51.932 213.792 51.932C214.896 51.932 215.68 51.276 215.68 50.22C215.68 49.148 214.896 48.508 213.792 48.508C212.688 48.508 211.888 49.148 211.888 50.22ZM212.352 55.82V54.3H221.808V58.172H214.352V59.148H222.224V60.684H212.384V56.732H219.84V55.82H212.352ZM217.488 49.5C217.536 49.724 217.568 49.964 217.568 50.22C217.568 50.444 217.552 50.668 217.504 50.876H219.824V49.5H217.488ZM233.232 46.492H235.2V52.124H237.104V53.772H235.2V60.828H233.232V46.492ZM223.552 56.684C225.488 54.572 226.064 52.444 226.176 49.564H224.176V47.964H228.048C228.048 51.884 227.648 54.972 225.104 57.82L223.552 56.684ZM227.584 57.628C229.504 55.212 230.032 52.732 230.128 49.564H228.544V47.964H232.016C232.016 52.044 231.648 55.612 229.136 58.732L227.584 57.628ZM238.257 47.884H246.289V49.516H243.281V50.428C243.281 52.764 244.513 55.228 246.865 56.22L245.777 57.788C244.129 57.068 242.961 55.628 242.321 53.9C241.681 55.788 240.497 57.372 238.817 58.14L237.697 56.572C240.049 55.5 241.281 52.86 241.281 50.428V49.516H238.257V47.884ZM247.681 60.844V46.508H249.665V60.844H247.681ZM264.712 46.476H266.696V51.82H268.808V53.452H266.696V60.86H264.712V46.476ZM256.056 57.404V47.836H262.728V49.42H258.024V55.756C260.104 55.74 261.816 55.644 263.704 55.308L263.896 56.94C261.72 57.34 259.768 57.404 257.256 57.404H256.056ZM269.481 54.268H282.457V55.852H269.481V54.268ZM271.065 48.348V46.844H280.857V50.78H273.033V51.836H281.145V53.34H271.097V49.372H278.905V48.348H271.065ZM271.113 60.572V56.668H273.081V59.004H281.193V60.572H271.113ZM297.121 46.508H299.121V56.988H297.121V53.58H293.889C293.201 54.316 292.209 54.748 291.089 54.748C288.961 54.748 287.313 53.196 287.313 51.052C287.313 48.892 288.961 47.356 291.089 47.356C292.209 47.356 293.201 47.788 293.889 48.508H297.121V46.508ZM289.185 51.052C289.185 52.284 290.001 53.02 291.089 53.02C292.161 53.02 292.977 52.284 292.977 51.052C292.977 49.836 292.161 49.1 291.089 49.1C290.001 49.1 289.185 49.836 289.185 51.052ZM289.665 60.572V55.964H291.665V58.988H299.441V60.572H289.665ZM294.753 50.092C294.817 50.396 294.865 50.716 294.865 51.052C294.865 51.388 294.833 51.692 294.753 51.996H297.121V50.092H294.753ZM304.337 47.516C306.241 47.516 307.457 49.484 307.457 52.716C307.457 55.948 306.241 57.9 304.337 57.9C302.449 57.9 301.233 55.948 301.233 52.716C301.233 49.484 302.449 47.516 304.337 47.516ZM303.057 52.716C303.057 54.924 303.537 56.028 304.337 56.028C305.153 56.028 305.633 54.924 305.633 52.716C305.633 50.492 305.153 49.388 304.337 49.388C303.537 49.388 303.057 50.492 303.057 52.716ZM308.385 60.172V46.732H310.241V51.996H311.537V46.492H313.409V60.828H311.537V53.58H310.241V60.172H308.385ZM315.761 47.548H323.089V48.428C323.089 49.42 323.089 50.844 322.737 52.652L320.817 52.428C321.073 51.068 321.121 49.996 321.137 49.132H315.761V47.548ZM314.913 53.692C315.713 53.692 316.609 53.692 317.569 53.676V50.876H319.521V53.612C320.945 53.548 322.401 53.436 323.745 53.244L323.873 54.652C320.913 55.196 317.569 55.26 315.105 55.276L314.913 53.692ZM317.009 60.572V56.284H318.993V58.988H326.977V60.572H317.009ZM324.545 57.228V46.492H326.529V50.908H328.273V52.524H326.529V57.228H324.545ZM331.714 57.932L330.514 61.9H329.106L329.746 57.932H331.714ZM346.869 46.476H348.853V51.82H350.965V53.452H348.853V60.86H346.869V46.476ZM338.213 57.404V47.836H344.885V49.42H340.181V55.756C342.261 55.74 343.973 55.644 345.861 55.308L346.053 56.94C343.877 57.34 341.925 57.404 339.413 57.404H338.213ZM355.621 47.292C357.829 47.292 359.493 48.732 359.493 50.764C359.493 52.78 357.829 54.22 355.621 54.22C353.397 54.22 351.749 52.78 351.749 50.764C351.749 48.732 353.397 47.292 355.621 47.292ZM353.381 58.012C353.381 56.252 355.269 55.196 358.229 55.196C361.189 55.196 363.061 56.252 363.061 58.012C363.061 59.788 361.189 60.844 358.229 60.844C355.269 60.844 353.381 59.788 353.381 58.012ZM353.669 50.764C353.669 51.884 354.517 52.556 355.621 52.556C356.741 52.556 357.573 51.884 357.573 50.764C357.573 49.628 356.741 48.94 355.621 48.94C354.517 48.94 353.669 49.628 353.669 50.764ZM355.349 58.012C355.349 58.86 356.373 59.292 358.229 59.292C360.085 59.292 361.093 58.86 361.093 58.012C361.093 57.164 360.085 56.764 358.229 56.764C356.373 56.764 355.349 57.164 355.349 58.012ZM360.901 54.876V46.508H362.885V48.3H364.757V49.916H362.885V51.404H364.757V53.036H362.885V54.876H360.901ZM374.853 46.508H376.837V52.124H378.933V53.772H376.837V60.844H374.853V46.508ZM365.541 50.22V48.636H368.741V46.732H370.741V48.636H373.909V50.22H365.541ZM366.133 54.476C366.133 52.476 367.669 51.068 369.749 51.068C371.829 51.068 373.381 52.476 373.381 54.476C373.381 56.46 371.829 57.868 369.749 57.868C367.669 57.868 366.133 56.46 366.133 54.476ZM368.037 54.476C368.037 55.58 368.741 56.252 369.749 56.252C370.757 56.252 371.477 55.58 371.477 54.476C371.477 53.356 370.757 52.668 369.749 52.668C368.741 52.668 368.037 53.356 368.037 54.476ZM390.022 46.492H391.91V60.828H390.022V46.492ZM379.414 56.46C382.31 54.732 383.574 52.636 383.846 49.788H380.198V48.204H385.798C385.798 49.564 385.654 50.844 385.302 52.028H386.998V46.812H388.854V60.188H386.998V53.612H384.694C383.878 55.244 382.55 56.668 380.534 57.852L379.414 56.46ZM398.798 47.484H408.75V49.068H400.814V50.524H408.414V52.06H400.814V53.612H408.862V55.196H404.75V57.628H410.254V59.228H397.278V57.628H402.766V55.196H398.798V47.484ZM411.262 54.46H416.75V53.324H412.878V49.356H420.686V48.332H412.846V46.828H422.638V50.78H414.814V51.82H422.926V53.324H418.734V54.46H424.238V56.044H411.262V54.46ZM412.894 60.908V56.78H414.862V59.34H422.974V60.908H412.894ZM425.214 48.684H427.694V46.876H429.646V48.684H432.094V50.252H425.214V48.684ZM425.534 54.332C425.534 52.348 426.862 50.94 428.67 50.94C430.494 50.94 431.806 52.348 431.806 54.332C431.806 56.332 430.494 57.724 428.67 57.724C426.862 57.724 425.534 56.332 425.534 54.332ZM427.294 54.332C427.294 55.452 427.87 56.076 428.67 56.076C429.486 56.076 430.062 55.452 430.062 54.332C430.062 53.228 429.486 52.572 428.67 52.572C427.87 52.572 427.294 53.228 427.294 54.332ZM432.622 60.22V46.78H434.478V52.348H435.63V46.492H437.518V60.828H435.63V53.948H434.478V60.22H432.622ZM439.231 57.532H442.111V53.996C441.023 53.324 440.351 52.3 440.351 51.036C440.351 48.716 442.623 47.212 445.695 47.212C448.783 47.212 451.039 48.716 451.039 51.036C451.039 52.284 450.383 53.308 449.311 53.98V57.532H452.207V59.148H439.231V57.532ZM442.319 51.036C442.319 52.476 443.679 53.324 445.695 53.324C447.727 53.324 449.087 52.476 449.087 51.036C449.087 49.596 447.727 48.748 445.695 48.748C443.679 48.748 442.319 49.596 442.319 51.036ZM444.095 57.532H447.327V54.716C446.815 54.828 446.271 54.876 445.695 54.876C445.135 54.876 444.591 54.828 444.095 54.732V57.532Z" fill="#C6C6C6"/>
</svg>
