<svg width="509" height="64" viewBox="0 0 509 64" fill="none" xmlns="http://www.w3.org/2000/svg">
<path d="M202.964 11.5636C202.66 10.6478 202.28 9.80823 201.824 9.12134C201.368 8.43445 200.837 7.82388 200.153 7.28963C199.773 6.98435 199.393 6.67906 198.938 6.4501C198.482 6.14482 197.95 5.91585 197.266 5.68689C196.583 5.45793 195.899 5.30528 195.064 5.15264C194.228 5 193.241 5 192.101 5H187.923C186.1 5.07632 184.581 6.60274 184.581 8.43445V20.0353C184.581 21.867 186.1 23.3934 187.923 23.3934H192.405V25.3014C192.405 25.7593 192.785 26.0646 193.241 25.9883C195.747 25.6067 203.419 23.6987 203.419 15.227C203.419 15.227 203.419 14.7691 203.419 14.4638C203.419 13.548 203.267 12.4795 202.964 11.5636ZM189.822 15.0744C189.367 15.0744 188.987 14.6928 188.987 14.2349C188.987 13.7769 189.367 13.3953 189.822 13.3953C190.278 13.3953 190.658 13.7769 190.658 14.2349C190.658 14.6928 190.278 15.0744 189.822 15.0744ZM194 15.0744C193.544 15.0744 193.165 14.6928 193.165 14.2349C193.165 13.7769 193.544 13.3953 194 13.3953C194.456 13.3953 194.836 13.7769 194.836 14.2349C194.836 14.6928 194.456 15.0744 194 15.0744ZM198.178 15.0744C197.722 15.0744 197.342 14.6928 197.342 14.2349C197.342 13.7769 197.722 13.3953 198.178 13.3953C198.634 13.3953 199.014 13.7769 199.014 14.2349C199.014 14.6928 198.634 15.0744 198.178 15.0744Z" fill="white"/>
<path d="M220.955 6.092H223.715V8.444H226.667V6.092H229.427V15.284H220.955V6.092ZM223.715 13.004H226.667V10.652H223.715V13.004ZM223.907 19.148V16.868H238.475V22.604H226.907V24.044H239.099V26.348H223.931V20.444H235.523V19.148H223.907ZM231.083 15.884V5.396H233.867V9.356H235.643V5.012H238.475V16.076H235.643V11.708H233.867V15.884H231.083ZM241.932 6.428H251.628V13.268H244.908V15.668C248.268 15.644 250.524 15.548 253.116 15.14L253.332 17.492C250.404 17.996 247.812 18.044 243.708 18.044H241.98V11.012H248.7V8.78H241.932V6.428ZM244.836 26.108V19.58H247.812V23.732H259.644V26.108H244.836ZM252.708 12.692V10.196H256.116V5.012H259.116V20.828H256.116V12.692H252.708ZM270.18 6.236H273.348V7.796C273.348 11.012 276.132 14.348 280.908 15.164L279.612 17.636C275.916 16.892 273.156 14.804 271.764 12.044C270.348 14.78 267.588 16.892 263.892 17.636L262.62 15.164C267.348 14.348 270.18 10.94 270.18 7.796V6.236ZM262.14 23.828V21.404H281.604V23.828H262.14ZM298.741 4.988H301.573V26.492H298.741V4.988ZM282.829 19.94C287.173 17.348 289.069 14.204 289.477 9.932H284.005V7.556H292.405C292.405 9.596 292.189 11.516 291.661 13.292H294.205V5.468H296.989V25.532H294.205V15.668H290.749C289.525 18.116 287.533 20.252 284.509 22.028L282.829 19.94ZM318.901 5.012H321.901V17.18H318.901V5.012ZM304.381 11.156C304.381 8.132 306.877 5.996 310.213 5.996C313.549 5.996 316.045 8.132 316.045 11.156C316.045 14.132 313.549 16.292 310.213 16.292C306.877 16.292 304.381 14.132 304.381 11.156ZM307.285 11.156C307.285 12.812 308.533 13.82 310.213 13.82C311.893 13.82 313.141 12.812 313.141 11.156C313.141 9.476 311.893 8.468 310.213 8.468C308.533 8.468 307.285 9.476 307.285 11.156ZM307.621 26.276V18.164H321.901V26.276H307.621ZM310.549 23.924H318.997V20.492H310.549V23.924Z" fill="white"/>
<path d="M10.192 46.508H12.176V51.916H13.776V53.548H12.176V60.844H10.192V46.508ZM0.192 56.364C1.952 55.004 2.24 52.46 2.24 50.108V49.34H0.72V47.756H4.944V49.34H4.096V50.108C4.096 51.772 4.256 53.772 5.184 55.276C6.112 53.788 6.272 51.804 6.272 50.108V49.34H5.44V47.756H9.44V49.34H8.16V50.108C8.16 52.492 8.432 55.004 10.192 56.364L8.976 57.788C8.048 57.068 7.504 55.98 7.168 54.716C6.8 56.028 6.192 57.18 5.184 57.932C4.192 57.196 3.568 56.044 3.2 54.732C2.88 55.996 2.32 57.084 1.408 57.788L0.192 56.364ZM14.8164 47.452H22.5604V49.052H19.7124C19.7284 50.732 20.7364 52.348 23.0084 53.052L22.0644 54.588C20.4804 54.108 19.3924 53.132 18.7684 51.9C18.1444 53.356 16.9924 54.524 15.2804 55.084L14.2884 53.532C16.6404 52.732 17.6964 50.876 17.7124 49.052H14.8164V47.452ZM16.2404 58.06C16.2404 56.316 18.1124 55.292 21.0884 55.292C24.0484 55.292 25.9204 56.316 25.9204 58.06C25.9204 59.804 24.0484 60.844 21.0884 60.844C18.1124 60.844 16.2404 59.804 16.2404 58.06ZM18.2084 58.06C18.2084 58.892 19.2324 59.324 21.0884 59.324C22.9284 59.324 23.9524 58.892 23.9524 58.06C23.9524 57.228 22.9284 56.828 21.0884 56.828C19.2324 56.828 18.2084 57.228 18.2084 58.06ZM23.7604 55.02V46.508H25.7444V49.836H27.6804V51.452H25.7444V55.02H23.7604ZM29.0568 47.66H35.8088V48.78H38.4488V46.508H40.4488V56.94H38.4488V53.436H35.8088V54.636H29.0568V47.66ZM30.9768 60.572V55.964H32.9768V58.988H40.7528V60.572H30.9768ZM31.0088 53.068H33.8728V49.212H31.0088V53.068ZM35.8088 51.852H38.4488V50.364H35.8088V51.852ZM52.3211 46.476H54.3211V60.86H52.3211V46.476ZM42.8491 52.604C42.8491 49.468 44.4491 47.5 46.6251 47.5C48.7851 47.5 50.3691 49.468 50.3691 52.604C50.3691 55.756 48.7851 57.724 46.6251 57.724C44.4491 57.724 42.8491 55.756 42.8491 52.604ZM44.7691 52.604C44.7691 54.748 45.5211 55.932 46.6251 55.932C47.7131 55.932 48.4651 54.748 48.4651 52.604C48.4651 50.46 47.7131 49.292 46.6251 49.292C45.5211 49.292 44.7691 50.46 44.7691 52.604ZM65.593 50.78H67.577V52.124H73.113V53.676H60.137V52.124H65.593V50.78ZM60.681 50.108C63.257 49.964 64.713 49.212 65.113 48.38H61.305V46.86H71.929V48.38H68.089C68.489 49.212 69.945 49.964 72.521 50.108L71.913 51.58C69.161 51.404 67.337 50.508 66.601 49.228C65.865 50.508 64.025 51.404 61.289 51.58L60.681 50.108ZM61.289 56.668V55.18H65.593V54.124H67.577V55.18H71.897V56.668H61.289ZM62.217 59.004C62.217 57.772 63.817 57.116 66.569 57.116C69.353 57.116 70.937 57.772 70.937 59.004C70.937 60.236 69.353 60.876 66.569 60.876C63.817 60.876 62.217 60.236 62.217 59.004ZM64.265 59.004C64.265 59.404 65.049 59.58 66.569 59.58C68.121 59.58 68.905 59.404 68.905 59.004C68.905 58.572 68.121 58.412 66.569 58.412C65.049 58.412 64.265 58.572 64.265 59.004ZM77.9454 47.5C80.1214 47.5 81.6894 49.468 81.6894 52.604C81.6894 55.756 80.1214 57.724 77.9454 57.724C75.7694 57.724 74.2014 55.756 74.2014 52.604C74.2014 49.468 75.7694 47.5 77.9454 47.5ZM76.1054 52.604C76.1054 54.748 76.8414 55.932 77.9454 55.932C79.0494 55.932 79.8014 54.748 79.8014 52.604C79.8014 50.46 79.0494 49.292 77.9454 49.292C76.8414 49.292 76.1054 50.46 76.1054 52.604ZM83.3374 60.844V46.508H85.3214V51.948H87.4334V53.58H85.3214V60.844H83.3374ZM92.0333 47.372H96.1933V48.972H95.4573C95.4733 50.092 95.6653 51.388 96.4333 52.396C97.1853 51.388 97.3773 50.108 97.3933 48.972H96.6893V47.372H100.737V48.972H99.2653C99.2812 50.572 99.7933 52.252 101.377 53.1L100.337 54.524C99.3293 53.98 98.7053 53.1 98.3213 52.044C98.0013 53.116 97.4093 54.076 96.4333 54.668C95.4413 54.076 94.8653 53.132 94.5293 52.076C94.1613 53.116 93.5213 53.98 92.5293 54.524L91.4893 53.1C93.0573 52.252 93.5853 50.556 93.6013 48.972H92.0333V47.372ZM93.8733 60.684V55.484H103.457V60.684H93.8733ZM95.8253 59.116H101.521V57.02H95.8253V59.116ZM101.489 54.892V46.508H103.457V49.788H104.945V51.42H103.457V54.892H101.489ZM106.77 46.924H108.642V48.124H109.986V46.924H111.842V51.98H112.658V46.924H114.53V48.124H115.842V46.924H117.698V52.396H113.218V53.516H118.722V55.068H105.762V53.516H111.234V52.396H106.77V46.924ZM107.25 58.316C107.25 56.716 109.106 55.788 112.21 55.788C115.314 55.788 117.17 56.716 117.17 58.316C117.17 59.932 115.314 60.844 112.21 60.844C109.106 60.844 107.25 59.932 107.25 58.316ZM108.642 50.812H109.986V49.612H108.642V50.812ZM109.234 58.316C109.234 59.036 110.242 59.356 112.21 59.356C114.21 59.356 115.186 59.036 115.186 58.316C115.186 57.612 114.21 57.292 112.21 57.292C110.242 57.292 109.234 57.612 109.234 58.316ZM114.53 50.812H115.842V49.612H114.53V50.812ZM129.618 46.476H131.618V60.86H129.618V46.476ZM120.146 52.604C120.146 49.468 121.746 47.5 123.922 47.5C126.082 47.5 127.666 49.468 127.666 52.604C127.666 55.756 126.082 57.724 123.922 57.724C121.746 57.724 120.146 55.756 120.146 52.604ZM122.066 52.604C122.066 54.748 122.818 55.932 123.922 55.932C125.01 55.932 125.762 54.748 125.762 52.604C125.762 50.46 125.01 49.292 123.922 49.292C122.818 49.292 122.066 50.46 122.066 52.604ZM142.89 50.78H144.874V52.124H150.41V53.676H137.434V52.124H142.89V50.78ZM137.978 50.108C140.554 49.964 142.01 49.212 142.41 48.38H138.602V46.86H149.226V48.38H145.386C145.786 49.212 147.242 49.964 149.818 50.108L149.21 51.58C146.458 51.404 144.634 50.508 143.898 49.228C143.162 50.508 141.322 51.404 138.586 51.58L137.978 50.108ZM138.586 56.668V55.18H142.89V54.124H144.874V55.18H149.194V56.668H138.586ZM139.514 59.004C139.514 57.772 141.114 57.116 143.866 57.116C146.65 57.116 148.234 57.772 148.234 59.004C148.234 60.236 146.65 60.876 143.866 60.876C141.114 60.876 139.514 60.236 139.514 59.004ZM141.562 59.004C141.562 59.404 142.346 59.58 143.866 59.58C145.418 59.58 146.202 59.404 146.202 59.004C146.202 58.572 145.418 58.412 143.866 58.412C142.346 58.412 141.562 58.572 141.562 59.004ZM155.242 47.5C157.418 47.5 158.986 49.468 158.986 52.604C158.986 55.756 157.418 57.724 155.242 57.724C153.066 57.724 151.498 55.756 151.498 52.604C151.498 49.468 153.066 47.5 155.242 47.5ZM153.402 52.604C153.402 54.748 154.138 55.932 155.242 55.932C156.346 55.932 157.098 54.748 157.098 52.604C157.098 50.46 156.346 49.292 155.242 49.292C154.138 49.292 153.402 50.46 153.402 52.604ZM160.634 60.844V46.508H162.618V51.948H164.73V53.58H162.618V60.844H160.634ZM168.107 56.268C168.107 54.252 168.811 53.26 169.819 52.508C170.603 51.916 171.211 51.564 171.211 50.812C171.211 49.612 170.379 48.924 169.163 48.924C168.363 48.924 167.675 49.42 167.387 50.508L165.467 50.028C165.947 48.108 167.611 46.94 169.163 46.94C171.227 46.94 173.195 48.54 173.195 50.812C173.195 52.188 171.771 53.532 171.003 54.108C170.315 54.62 170.091 54.94 170.091 56.268H168.107ZM168.011 58.86C168.011 58.268 168.395 57.788 169.099 57.788C169.803 57.788 170.171 58.268 170.171 58.86C170.171 59.468 169.803 59.948 169.099 59.948C168.395 59.948 168.011 59.468 168.011 58.86ZM188.088 46.508H190.088V56.828H188.088V46.508ZM178.392 51.052C178.392 48.924 180.104 47.42 182.28 47.42C184.472 47.42 186.168 48.924 186.168 51.052C186.168 53.148 184.472 54.684 182.28 54.684C180.104 54.684 178.392 53.148 178.392 51.052ZM180.328 51.052C180.328 52.22 181.192 52.956 182.28 52.956C183.384 52.956 184.232 52.22 184.232 51.052C184.232 49.852 183.384 49.132 182.28 49.132C181.192 49.132 180.328 49.852 180.328 51.052ZM180.568 60.572V55.788H182.536V58.988H190.44V60.572H180.568ZM192.184 54.924H205.16V56.492H202.136V60.844H200.152V56.492H197.192V60.844H195.192V56.492H192.184V54.924ZM193.672 48.54V46.972H203.656V51.1H195.704V52.284H203.992V53.868H193.688V49.644H201.64V48.54H193.672ZM215.368 46.476H217.368V52.012H219.384V53.644H217.368V60.828H215.368V46.476ZM206.04 56.828C209.4 55.1 211.192 52.78 211.56 49.564H206.824V47.964H213.56C213.56 52.252 211.896 55.932 207.144 58.332L206.04 56.828ZM233.04 46.476H235.04V52.012H237.056V53.644H235.04V60.828H233.04V46.476ZM223.712 56.828C227.072 55.1 228.864 52.78 229.232 49.564H224.496V47.964H231.232C231.232 52.252 229.568 55.932 224.816 58.332L223.712 56.828ZM238.401 47.532H246.209V49.1H243.345V49.34C243.345 51.068 244.417 52.812 246.72 53.548L245.713 55.084C244.113 54.572 242.993 53.532 242.369 52.236C241.729 53.66 240.561 54.78 238.881 55.34L237.873 53.788C240.241 53.02 241.312 51.164 241.312 49.34V49.1H238.401V47.532ZM240.193 60.572V55.932H242.161V58.988H250.065V60.572H240.193ZM247.697 56.876V46.508H249.713V56.876H247.697ZM259.416 47.276C260.568 47.276 261.56 47.692 262.248 48.396H265.464V46.508H267.448V54.908H265.464V53.18H262.216C261.544 53.868 260.552 54.268 259.416 54.268C257.288 54.268 255.656 52.812 255.656 50.78C255.656 48.748 257.288 47.276 259.416 47.276ZM257.528 50.78C257.528 51.916 258.344 52.604 259.416 52.604C260.52 52.604 261.304 51.916 261.304 50.78C261.304 49.628 260.52 48.956 259.416 48.956C258.344 48.956 257.528 49.628 257.528 50.78ZM257.704 58.028C257.704 56.252 259.592 55.196 262.6 55.196C265.608 55.196 267.496 56.252 267.496 58.028C267.496 59.804 265.608 60.844 262.6 60.844C259.592 60.844 257.704 59.804 257.704 58.028ZM259.656 58.028C259.656 58.876 260.696 59.324 262.6 59.324C264.52 59.324 265.544 58.876 265.544 58.028C265.544 57.164 264.52 56.732 262.6 56.732C260.696 56.732 259.656 57.164 259.656 58.028ZM263.096 51.596H265.464V49.98H263.096C263.16 50.236 263.192 50.508 263.192 50.78C263.192 51.068 263.16 51.34 263.096 51.596ZM279.513 46.492H281.481V57.356H279.513V56.188H276.793V54.844H279.513V46.492ZM269.401 52.86C272.025 52.86 275.513 52.828 278.537 52.444L278.665 53.852C277.529 54.044 276.361 54.172 275.209 54.268V56.972H273.225V54.38C271.945 54.428 270.729 54.444 269.657 54.444L269.401 52.86ZM270.441 49.548C270.441 48.028 271.913 46.988 274.009 46.988C276.105 46.988 277.577 48.028 277.577 49.548C277.577 51.084 276.105 52.092 274.009 52.092C271.913 52.092 270.441 51.084 270.441 49.548ZM271.225 60.572V56.332H273.193V58.988H281.817V60.572H271.225ZM272.329 49.548C272.329 50.268 273.033 50.652 274.009 50.652C275.017 50.652 275.705 50.268 275.705 49.548C275.705 48.828 275.017 48.444 274.009 48.444C273.033 48.444 272.329 48.828 272.329 49.548ZM292.729 46.508H294.713V50.908H296.649V52.54H294.713V57.228H292.729V46.508ZM283.465 49.58V48.028H286.681V46.492H288.665V48.028H291.897V49.58H283.465ZM284.169 52.876C284.169 51.228 285.625 50.124 287.689 50.124C289.737 50.124 291.193 51.228 291.193 52.876C291.193 54.524 289.737 55.628 287.689 55.628C285.625 55.628 284.169 54.524 284.169 52.876ZM285.513 60.572V56.412H287.497V58.988H295.257V60.572H285.513ZM286.073 52.876C286.073 53.676 286.729 54.124 287.689 54.124C288.633 54.124 289.289 53.676 289.289 52.876C289.289 52.076 288.633 51.628 287.689 51.628C286.729 51.628 286.073 52.076 286.073 52.876ZM301.713 47.452H303.713V52.828C305.457 52.78 307.329 52.62 309.297 52.252L309.521 53.836C307.185 54.316 304.961 54.444 302.929 54.444H301.713V47.452ZM303.217 60.572V55.852H305.201V58.988H312.865V60.572H303.217ZM310.417 56.812V46.508H312.401V50.54H314.321V52.204H312.401V56.812H310.417ZM325.505 46.492H327.377V60.828H325.505V46.492ZM314.817 56.684C316.897 55.372 317.681 52.796 317.681 50.332V49.564H315.329V47.964H321.745V49.564H319.601V50.332C319.601 52.732 320.337 55.164 322.401 56.364L321.249 57.788C319.985 57.036 319.137 55.756 318.657 54.22C318.161 55.9 317.313 57.324 316.001 58.14L314.817 56.684ZM320.721 53.036V51.42H322.609V46.748H324.449V60.172H322.609V53.036H320.721ZM331.714 57.932L330.514 61.9H329.106L329.746 57.932H331.714ZM345.077 47.772L350.037 59.676H348.005L346.709 56.572H341.333L340.053 59.676H338.005L342.965 47.772H345.077ZM342.117 54.684H345.925L344.069 50.108L342.117 54.684ZM355.642 47.356C357.85 47.356 359.53 48.812 359.53 50.844C359.53 52.588 358.346 53.884 356.65 54.252V56.268C357.77 56.204 358.89 56.124 359.946 55.98L360.106 57.404C357.13 57.964 353.914 57.964 351.498 57.964L351.258 56.348C352.282 56.348 353.45 56.348 354.682 56.332V54.268C352.954 53.916 351.738 52.604 351.738 50.844C351.738 48.812 353.418 47.356 355.642 47.356ZM353.674 50.844C353.674 51.996 354.506 52.684 355.642 52.684C356.762 52.684 357.594 51.996 357.594 50.844C357.594 49.708 356.762 49.02 355.642 49.02C354.506 49.02 353.674 49.708 353.674 50.844ZM360.714 60.828V46.492H362.682V52.14H364.618V53.788H362.682V60.828H360.714ZM369.714 47.772H375.09C376.898 47.772 378.354 49.196 378.354 51.004C378.354 52.028 377.874 52.844 377.138 53.436C378.018 54.028 378.626 55.1 378.626 56.364C378.626 58.188 377.17 59.676 375.362 59.676H369.714V47.772ZM371.65 57.644H375.09C375.938 57.644 376.61 56.988 376.61 56.14C376.61 55.228 375.938 54.508 375.09 54.508H371.65V57.644ZM371.65 52.604H374.962C375.778 52.572 376.402 51.996 376.402 51.18C376.402 50.316 375.73 49.692 374.882 49.692H371.65V52.604ZM382.901 47.628H384.869V49.74C384.869 52.316 385.941 54.924 388.229 56.044L387.029 57.612C385.525 56.844 384.485 55.42 383.893 53.692C383.269 55.548 382.165 57.084 380.549 57.884L379.349 56.284C381.733 55.164 382.901 52.412 382.901 49.74V47.628ZM388.853 60.844V46.508H390.837V52.044H392.965V53.692H390.837V60.844H388.853ZM403.493 46.476H405.493V60.86H403.493V46.476ZM394.021 52.604C394.021 49.468 395.621 47.5 397.797 47.5C399.957 47.5 401.541 49.468 401.541 52.604C401.541 55.756 399.957 57.724 397.797 57.724C395.621 57.724 394.021 55.756 394.021 52.604ZM395.941 52.604C395.941 54.748 396.693 55.932 397.797 55.932C398.885 55.932 399.637 54.748 399.637 52.604C399.637 50.46 398.885 49.292 397.797 49.292C396.693 49.292 395.941 50.46 395.941 52.604ZM418.021 46.492H419.893V60.828H418.021V46.492ZM407.717 52.716C407.717 49.484 408.933 47.516 410.821 47.516C412.533 47.516 413.701 49.116 413.909 51.804H415.093V46.732H416.949V60.172H415.093V53.404H413.925C413.765 56.22 412.581 57.9 410.821 57.9C408.933 57.9 407.717 55.948 407.717 52.716ZM409.525 52.716C409.525 54.924 410.005 56.028 410.821 56.028C411.653 56.028 412.133 54.924 412.133 52.716C412.133 50.492 411.653 49.388 410.821 49.388C410.005 49.388 409.525 50.492 409.525 52.716ZM428.79 51.02H431.606V46.476H433.574V60.86H431.606V52.62H428.79V51.02ZM421.398 56.348C423.798 55.228 424.95 52.46 424.95 49.74V47.612H426.934V49.74C426.934 52.444 428.022 55.068 430.374 56.124L429.19 57.708C427.622 56.94 426.55 55.5 425.958 53.724C425.334 55.596 424.23 57.132 422.63 57.932L421.398 56.348ZM440.59 47.724H450.958V49.116C450.958 50.892 450.958 52.908 450.414 55.948L448.414 55.74C448.958 53.004 448.974 50.988 448.974 49.324H440.59V47.724ZM439.278 59.084V57.452H443.902V52.524H445.886V57.452H452.238V59.084H439.278ZM453.966 47.628H460.894V54.556H453.966V47.628ZM455.63 60.508V55.788H457.614V58.924H465.518V60.508H455.63ZM455.918 52.988H458.958V49.212H455.918V52.988ZM463.15 56.7V46.508H465.15V56.7H463.15ZM467.214 48.684H469.694V46.876H471.646V48.684H474.094V50.252H467.214V48.684ZM467.534 54.332C467.534 52.348 468.862 50.94 470.67 50.94C472.494 50.94 473.806 52.348 473.806 54.332C473.806 56.332 472.494 57.724 470.67 57.724C468.862 57.724 467.534 56.332 467.534 54.332ZM469.294 54.332C469.294 55.452 469.87 56.076 470.67 56.076C471.486 56.076 472.062 55.452 472.062 54.332C472.062 53.228 471.486 52.572 470.67 52.572C469.87 52.572 469.294 53.228 469.294 54.332ZM474.622 60.22V46.78H476.478V52.348H477.63V46.492H479.518V60.828H477.63V53.948H476.478V60.22H474.622ZM481.919 47.66H483.871V49.436H487.167V47.66H489.135V54.22H486.527V56.428C487.631 56.38 488.719 56.284 489.759 56.14L489.919 57.58C486.927 58.14 483.727 58.14 481.311 58.124L481.071 56.524C482.111 56.524 483.295 56.524 484.543 56.508V54.22H481.919V47.66ZM483.871 52.668H487.167V50.956H483.871V52.668ZM490.527 60.828V46.492H492.495V52.268H494.431V53.9H492.495V60.828H490.527ZM495.215 57.532H498.095V53.996C497.007 53.324 496.335 52.3 496.335 51.036C496.335 48.716 498.607 47.212 501.679 47.212C504.767 47.212 507.023 48.716 507.023 51.036C507.023 52.284 506.367 53.308 505.295 53.98V57.532H508.191V59.148H495.215V57.532ZM498.303 51.036C498.303 52.476 499.663 53.324 501.679 53.324C503.711 53.324 505.071 52.476 505.071 51.036C505.071 49.596 503.711 48.748 501.679 48.748C499.663 48.748 498.303 49.596 498.303 51.036ZM500.079 57.532H503.311V54.716C502.799 54.828 502.255 54.876 501.679 54.876C501.119 54.876 500.575 54.828 500.079 54.732V57.532Z" fill="#C6C6C6"/>
</svg>
