<svg width="603" height="64" viewBox="0 0 603 64" fill="none" xmlns="http://www.w3.org/2000/svg">
<path d="M216.464 11.5636C216.16 10.6478 215.78 9.80823 215.324 9.12134C214.868 8.43445 214.337 7.82388 213.653 7.28963C213.273 6.98435 212.893 6.67906 212.438 6.4501C211.982 6.14482 211.45 5.91585 210.766 5.68689C210.083 5.45793 209.399 5.30528 208.564 5.15264C207.728 5 206.741 5 205.601 5H201.423C199.6 5.07632 198.081 6.60274 198.081 8.43445V20.0353C198.081 21.867 199.6 23.3934 201.423 23.3934H205.905V25.3014C205.905 25.7593 206.285 26.0646 206.741 25.9883C209.247 25.6067 216.919 23.6987 216.919 15.227C216.919 15.227 216.919 14.7691 216.919 14.4638C216.919 13.548 216.767 12.4795 216.464 11.5636ZM203.322 15.0744C202.867 15.0744 202.487 14.6928 202.487 14.2349C202.487 13.7769 202.867 13.3953 203.322 13.3953C203.778 13.3953 204.158 13.7769 204.158 14.2349C204.158 14.6928 203.778 15.0744 203.322 15.0744ZM207.5 15.0744C207.044 15.0744 206.665 14.6928 206.665 14.2349C206.665 13.7769 207.044 13.3953 207.5 13.3953C207.956 13.3953 208.336 13.7769 208.336 14.2349C208.336 14.6928 207.956 15.0744 207.5 15.0744ZM211.678 15.0744C211.222 15.0744 210.842 14.6928 210.842 14.2349C210.842 13.7769 211.222 13.3953 211.678 13.3953C212.134 13.3953 212.514 13.7769 212.514 14.2349C212.514 14.6928 212.134 15.0744 211.678 15.0744Z" fill="white"/>
<path d="M249.311 4.988H252.143V26.492H249.311V4.988ZM233.399 19.94C237.743 17.348 239.639 14.204 240.047 9.932H234.575V7.556H242.975C242.975 9.596 242.759 11.516 242.231 13.292H244.775V5.468H247.559V25.532H244.775V15.668H241.319C240.095 18.116 238.103 20.252 235.079 22.028L233.399 19.94ZM269.472 5.012H272.472V17.18H269.472V5.012ZM254.952 11.156C254.952 8.132 257.448 5.996 260.784 5.996C264.12 5.996 266.616 8.132 266.616 11.156C266.616 14.132 264.12 16.292 260.784 16.292C257.448 16.292 254.952 14.132 254.952 11.156ZM257.856 11.156C257.856 12.812 259.104 13.82 260.784 13.82C262.464 13.82 263.712 12.812 263.712 11.156C263.712 9.476 262.464 8.468 260.784 8.468C259.104 8.468 257.856 9.476 257.856 11.156ZM258.192 26.276V18.164H272.472V26.276H258.192ZM261.12 23.924H269.568V20.492H261.12V23.924ZM288.323 10.652L288.299 13.916L291.371 12.932L292.115 15.284L289.067 16.22L291.083 18.956L289.163 20.492L287.075 17.708L284.987 20.492L283.115 18.932L285.107 16.22L282.035 15.284L282.803 12.932L285.827 13.916L285.803 10.652H288.323ZM300.039 21.548H319.503V23.996H300.039V21.548ZM301.551 9.26V6.86H317.871V9.26H314.919V15.788H317.823V18.188H301.647V15.788H304.503V9.26H301.551ZM307.503 15.788H311.967V9.26H307.503V15.788ZM321.015 21.668H329.223V18.38H323.271V11.18H335.319V8.756H323.223V6.404H338.271V13.484H326.199V16.004H338.751V18.38H332.199V21.668H340.479V24.092H321.015V21.668ZM357.616 4.988H360.448V26.492H357.616V4.988ZM341.704 19.94C346.048 17.348 347.944 14.204 348.352 9.932H342.88V7.556H351.28C351.28 9.596 351.064 11.516 350.536 13.292H353.08V5.468H355.864V25.532H353.08V15.668H349.624C348.4 18.116 346.408 20.252 343.384 22.028L341.704 19.94ZM377.752 4.964H380.752V26.54H377.752V4.964ZM363.544 14.156C363.544 9.452 365.944 6.5 369.208 6.5C372.448 6.5 374.824 9.452 374.824 14.156C374.824 18.884 372.448 21.836 369.208 21.836C365.944 21.836 363.544 18.884 363.544 14.156ZM366.424 14.156C366.424 17.372 367.552 19.148 369.208 19.148C370.84 19.148 371.968 17.372 371.968 14.156C371.968 10.94 370.84 9.188 369.208 9.188C367.552 9.188 366.424 10.94 366.424 14.156ZM384.713 6.908H394.937V12.452H398.969V4.964H401.921V26.54H398.969V14.852H394.937V21.26H384.713V6.908ZM387.641 18.932H391.985V9.236H387.641V18.932Z" fill="white"/>
<path d="M6.644 53.772C7.748 53.772 8.644 52.844 8.644 51.74C8.644 50.636 7.748 49.74 6.644 49.74H3.524V53.772H6.644ZM1.652 59.676V47.772H6.852C8.9 47.772 10.548 49.42 10.548 51.676C10.452 53.612 9.364 54.796 7.972 55.404L11.108 59.676H8.74L5.844 55.692H3.524V59.676H1.652ZM18.0663 53.756C19.1703 53.756 20.0663 52.828 20.0663 51.74C20.0663 50.636 19.1703 49.74 18.0663 49.74H14.9623V53.756H18.0663ZM13.0423 59.676V47.772H18.0343C20.2263 47.772 21.9703 49.548 21.9703 51.74C21.9703 53.9 20.2263 55.692 18.0343 55.692H14.9623V59.676H13.0423ZM34.5958 53.116C34.6598 53.516 34.5798 54.636 34.5798 54.636C34.2438 57.932 32.1158 59.772 28.8358 59.804C25.0918 59.804 22.8838 57.116 22.8838 53.724C22.8838 50.348 25.0918 47.66 28.8358 47.66C32.6758 47.66 33.9078 50.524 33.9078 50.524L32.2118 51.468C32.2118 51.468 31.3478 49.596 28.8358 49.596C26.2758 49.596 24.7878 51.404 24.7878 53.724C24.7878 56.06 26.2758 57.868 28.8358 57.868C30.5158 57.82 32.0998 57.164 32.5158 54.956H29.1078V53.116H34.5958ZM46.7093 46.492H48.5973V60.828H46.7093V46.492ZM36.1013 56.46C38.9973 54.732 40.2613 52.636 40.5333 49.788H36.8853V48.204H42.4853C42.4853 49.564 42.3413 50.844 41.9893 52.028H43.6853V46.812H45.5413V60.188H43.6853V53.612H41.3813C40.5653 55.244 39.2373 56.668 37.2213 57.852L36.1013 56.46ZM60.1496 46.508H62.1496V54.62H60.1496V46.508ZM50.4696 50.604C50.4696 48.588 52.1336 47.164 54.3576 47.164C56.5816 47.164 58.2456 48.588 58.2456 50.604C58.2456 52.588 56.5816 54.028 54.3576 54.028C52.1336 54.028 50.4696 52.588 50.4696 50.604ZM52.4056 50.604C52.4056 51.708 53.2376 52.38 54.3576 52.38C55.4776 52.38 56.3096 51.708 56.3096 50.604C56.3096 49.484 55.4776 48.812 54.3576 48.812C53.2376 48.812 52.4056 49.484 52.4056 50.604ZM52.6296 60.684V55.276H62.1496V60.684H52.6296ZM54.5816 59.116H60.2136V56.828H54.5816V59.116ZM74.118 46.476H76.118V60.86H74.118V46.476ZM64.646 52.604C64.646 49.468 66.246 47.5 68.422 47.5C70.582 47.5 72.166 49.468 72.166 52.604C72.166 55.756 70.582 57.724 68.422 57.724C66.246 57.724 64.646 55.756 64.646 52.604ZM66.566 52.604C66.566 54.748 67.318 55.932 68.422 55.932C69.51 55.932 70.262 54.748 70.262 52.604C70.262 50.46 69.51 49.292 68.422 49.292C67.318 49.292 66.566 50.46 66.566 52.604ZM83.5339 47.308H93.3739V48.524C93.3739 49.74 93.3739 51.1 93.0539 52.86H94.9099V54.46H81.9339V52.86H91.0699C91.3899 51.244 91.4219 50.012 91.4219 48.876H83.5339V47.308ZM83.5659 60.588V55.724H85.5339V59.004H93.7739V60.588H83.5659ZM97.5663 47.02H99.5182V48.46H105.246V47.02H107.214V52.86H103.358V54.108H108.862V55.676H95.9023V54.108H101.374V52.86H97.5663V47.02ZM97.4863 60.588V56.556H99.4543V59.004H107.406V60.588H97.4863ZM99.5182 51.308H105.246V49.996H99.5182V51.308ZM119.183 46.492H121.167V49.612H123.087V51.228H121.167V54.172H119.183V46.492ZM110.447 53.836V47.356H116.815V48.94H112.431V52.236C115.023 52.22 116.447 52.108 118.031 51.804L118.223 53.356C116.447 53.74 114.815 53.836 111.631 53.836H110.447ZM111.839 60.652V54.876H113.807V56.22H119.215V54.876H121.167V60.652H111.839ZM113.807 59.068H119.215V57.756H113.807V59.068ZM134.303 46.492H136.191V60.828H134.303V46.492ZM123.695 56.46C126.591 54.732 127.855 52.636 128.127 49.788H124.479V48.204H130.079C130.079 49.564 129.935 50.844 129.583 52.028H131.279V46.812H133.135V60.188H131.279V53.612H128.975C128.159 55.244 126.831 56.668 124.815 57.852L123.695 56.46ZM152.039 46.492H153.927V60.828H152.039V53.628H150.807V60.172H148.967V46.732H150.807V52.028H152.039V46.492ZM141.271 56.572C143.399 55.324 144.119 52.812 144.119 50.044V49.58H141.719V47.98H148.247V49.58H146.039V50.044C146.039 52.572 146.807 54.94 148.919 56.06L147.799 57.564C146.503 56.86 145.655 55.692 145.143 54.236C144.663 55.916 143.815 57.276 142.471 58.092L141.271 56.572ZM158.791 55.18H160.711V55.756C160.711 56.908 161.207 58.108 162.343 58.892C163.527 58.06 164.023 56.812 164.023 55.756V55.18H165.991V55.756C165.991 57.228 166.791 58.636 168.679 59.212L167.703 60.668C166.359 60.204 165.463 59.324 164.967 58.22C164.503 59.324 163.655 60.284 162.375 60.812C161.063 60.316 160.231 59.372 159.767 58.268C159.255 59.34 158.375 60.204 157.079 60.668L156.103 59.212C157.975 58.572 158.791 57.148 158.791 55.756V55.18ZM156.263 53.82V47.388H163.175V53.82H156.263ZM158.199 52.236H161.255V48.956H158.199V52.236ZM165.447 54.684V46.508H167.447V54.684H165.447ZM169.96 47.884H177.992V49.516H174.984V50.428C174.984 52.764 176.216 55.228 178.568 56.22L177.48 57.788C175.832 57.068 174.664 55.628 174.024 53.9C173.384 55.788 172.2 57.372 170.52 58.14L169.4 56.572C171.752 55.5 172.984 52.86 172.984 50.428V49.516H169.96V47.884ZM179.384 60.844V46.508H181.368V60.844H179.384ZM184.872 57.804C185.56 57.804 185.944 58.284 185.944 58.876C185.944 59.484 185.56 59.964 184.872 59.964C184.168 59.964 183.784 59.484 183.784 58.876C183.784 58.284 184.168 57.804 184.872 57.804ZM195.555 47.5C197.731 47.5 199.299 49.468 199.299 52.604C199.299 55.756 197.731 57.724 195.555 57.724C193.379 57.724 191.811 55.756 191.811 52.604C191.811 49.468 193.379 47.5 195.555 47.5ZM193.715 52.604C193.715 54.748 194.451 55.932 195.555 55.932C196.659 55.932 197.411 54.748 197.411 52.604C197.411 50.46 196.659 49.292 195.555 49.292C194.451 49.292 193.715 50.46 193.715 52.604ZM200.947 60.844V46.508H202.931V51.948H205.043V53.58H202.931V60.844H200.947ZM215.683 46.492H217.651V60.828H215.683V46.492ZM206.467 57.292V47.868H208.435V55.596C210.355 55.564 212.403 55.404 214.515 54.972L214.739 56.62C212.291 57.132 209.923 57.292 207.731 57.292H206.467ZM222.404 56.268C222.404 54.252 223.108 53.26 224.116 52.508C224.9 51.916 225.508 51.564 225.508 50.812C225.508 49.612 224.676 48.924 223.46 48.924C222.66 48.924 221.972 49.42 221.684 50.508L219.764 50.028C220.243 48.108 221.908 46.94 223.46 46.94C225.524 46.94 227.492 48.54 227.492 50.812C227.492 52.188 226.068 53.532 225.3 54.108C224.612 54.62 224.388 54.94 224.388 56.268H222.404ZM222.308 58.86C222.308 58.268 222.692 57.788 223.396 57.788C224.1 57.788 224.468 58.268 224.468 58.86C224.468 59.468 224.1 59.948 223.396 59.948C222.692 59.948 222.308 59.468 222.308 58.86ZM241.088 47.772V49.66H235.024V52.748H240.208V54.684H235.024V59.676H233.104V47.772H241.088ZM248.019 53.756C249.123 53.756 250.019 52.828 250.019 51.74C250.019 50.636 249.123 49.74 248.019 49.74H244.915V53.756H248.019ZM242.995 59.676V47.772H247.987C250.179 47.772 251.923 49.548 251.923 51.74C251.923 53.9 250.179 55.692 247.987 55.692H244.915V59.676H242.995ZM258.326 59.9C257.03 60.06 255.878 59.772 254.694 59.036C253.526 58.3 252.966 57.228 252.806 56.764L254.598 56.124C254.678 56.412 254.982 56.956 255.67 57.404C256.582 57.98 257.222 58.124 258.166 57.996C258.438 57.964 258.854 57.884 259.222 57.708C259.606 57.516 259.846 57.292 260.022 56.988C260.278 56.524 260.198 55.98 259.894 55.628C259.638 55.34 259.078 55.084 257.382 54.556L256.566 54.3C255.942 54.108 255.446 53.884 255.03 53.596C254.534 53.244 254.198 52.876 254.102 52.748C253.51 51.98 253.206 50.668 253.702 49.58C254.31 48.204 255.718 47.644 256.758 47.548C257.734 47.452 259.174 47.58 260.438 48.38C260.854 48.636 261.174 48.876 261.446 49.18L260.006 50.428C259.878 50.3 259.702 50.156 259.462 50.012C258.598 49.452 257.718 49.356 256.966 49.404C256.374 49.484 255.766 49.66 255.462 50.332C255.27 50.748 255.334 51.18 255.59 51.564C255.734 51.74 255.878 51.9 256.134 52.06C256.39 52.236 256.63 52.332 257.094 52.492L257.894 52.732C259.974 53.372 260.758 53.868 261.27 54.364C261.942 55.004 262.406 56.332 261.766 57.724C261.43 58.396 260.87 59.02 260.054 59.404C259.574 59.628 258.886 59.868 258.326 59.9ZM272.493 46.476H274.493V52.012H276.509V53.644H274.493V60.828H272.493V46.476ZM263.165 56.828C266.525 55.1 268.317 52.78 268.685 49.564H263.949V47.964H270.685C270.685 52.252 269.021 55.932 264.269 58.332L263.165 56.828ZM281.637 47.788H288.133V49.356H283.605V55.788C285.717 55.772 287.205 55.676 288.869 55.356L289.077 56.956C287.141 57.34 285.413 57.404 282.789 57.404H281.637V47.788ZM287.413 53.084V51.468H290.981V46.492H292.965V60.876H290.981V53.084H287.413ZM309.117 46.492H311.005V60.828H309.117V53.628H307.885V60.172H306.045V46.732H307.885V52.028H309.117V46.492ZM298.349 56.572C300.477 55.324 301.197 52.812 301.197 50.044V49.58H298.797V47.98H305.325V49.58H303.117V50.044C303.117 52.572 303.885 54.94 305.997 56.06L304.877 57.564C303.581 56.86 302.733 55.692 302.221 54.236C301.741 55.916 300.893 57.276 299.549 58.092L298.349 56.572ZM315.869 55.18H317.789V55.756C317.789 56.908 318.285 58.108 319.421 58.892C320.605 58.06 321.101 56.812 321.101 55.756V55.18H323.069V55.756C323.069 57.228 323.869 58.636 325.757 59.212L324.781 60.668C323.437 60.204 322.541 59.324 322.045 58.22C321.581 59.324 320.733 60.284 319.453 60.812C318.141 60.316 317.309 59.372 316.845 58.268C316.333 59.34 315.453 60.204 314.157 60.668L313.181 59.212C315.053 58.572 315.869 57.148 315.869 55.756V55.18ZM313.341 53.82V47.388H320.253V53.82H313.341ZM315.277 52.236H318.333V48.956H315.277V52.236ZM322.525 54.684V46.508H324.525V54.684H322.525ZM328.206 47.004H330.19V50.412H338.126V51.98H328.206V47.004ZM326.606 55.1V53.516H339.582V55.1H326.606ZM328.078 60.54V56.268H330.062V58.94H338.206V60.54H328.078ZM350.99 46.492H352.878V60.828H350.99V46.492ZM340.99 57.628V48.124H346.462V49.708H342.942V55.996C344.478 55.98 345.646 55.9 346.958 55.628L347.118 57.244C345.518 57.564 344.094 57.628 341.982 57.628H340.99ZM345.486 53.356V51.756H348.03V46.764H349.886V60.188H348.03V53.356H345.486ZM357.279 56.268C357.279 54.252 357.983 53.26 358.991 52.508C359.775 51.916 360.383 51.564 360.383 50.812C360.383 49.612 359.551 48.924 358.335 48.924C357.535 48.924 356.847 49.42 356.559 50.508L354.639 50.028C355.118 48.108 356.783 46.94 358.335 46.94C360.399 46.94 362.367 48.54 362.367 50.812C362.367 52.188 360.943 53.532 360.175 54.108C359.487 54.62 359.263 54.94 359.263 56.268H357.279ZM357.183 58.86C357.183 58.268 357.567 57.788 358.271 57.788C358.975 57.788 359.343 58.268 359.343 58.86C359.343 59.468 358.975 59.948 358.271 59.948C357.567 59.948 357.183 59.468 357.183 58.86ZM377.787 46.492H379.675V60.828H377.787V46.492ZM367.179 56.46C370.075 54.732 371.339 52.636 371.611 49.788H367.963V48.204H373.563C373.563 49.564 373.419 50.844 373.067 52.028H374.763V46.812H376.619V60.188H374.763V53.612H372.459C371.643 55.244 370.315 56.668 368.299 57.852L367.179 56.46ZM391.228 46.508H393.228V54.62H391.228V46.508ZM381.548 50.604C381.548 48.588 383.212 47.164 385.436 47.164C387.66 47.164 389.324 48.588 389.324 50.604C389.324 52.588 387.66 54.028 385.436 54.028C383.212 54.028 381.548 52.588 381.548 50.604ZM383.484 50.604C383.484 51.708 384.316 52.38 385.436 52.38C386.556 52.38 387.388 51.708 387.388 50.604C387.388 49.484 386.556 48.812 385.436 48.812C384.316 48.812 383.484 49.484 383.484 50.604ZM383.708 60.684V55.276H393.228V60.684H383.708ZM385.66 59.116H391.292V56.828H385.66V59.116ZM395.932 47.932H403.308V49.068C403.308 50.444 403.308 52.172 402.908 54.588L400.972 54.428C401.308 52.348 401.356 50.78 401.356 49.516H395.932V47.932ZM395.196 56.316C395.996 56.316 396.892 56.3 397.82 56.284V52.044H399.772V56.236C401.18 56.172 402.604 56.076 403.916 55.916L404.012 57.356C401.116 57.852 397.884 57.916 395.388 57.916L395.196 56.316ZM404.588 60.828V46.492H406.556V52.284H408.524V53.916H406.556V60.828H404.588ZM413.012 57.532H425.988V59.164H413.012V57.532ZM414.02 49.34V47.74H424.9V49.34H422.932V53.692H424.868V55.292H414.084V53.692H415.988V49.34H414.02ZM417.988 53.692H420.964V49.34H417.988V53.692ZM426.996 57.612H432.468V55.42H428.5V50.62H436.532V49.004H428.468V47.436H438.5V52.156H430.452V53.836H438.82V55.42H434.452V57.612H439.972V59.228H426.996V57.612ZM451.397 46.492H453.285V60.828H451.397V46.492ZM440.789 56.46C443.685 54.732 444.949 52.636 445.221 49.788H441.573V48.204H447.173C447.173 49.564 447.029 50.844 446.677 52.028H448.373V46.812H450.229V60.188H448.373V53.612H446.069C445.253 55.244 443.925 56.668 441.909 57.852L440.789 56.46ZM464.821 46.476H466.821V60.86H464.821V46.476ZM455.349 52.604C455.349 49.468 456.949 47.5 459.125 47.5C461.285 47.5 462.869 49.468 462.869 52.604C462.869 55.756 461.285 57.724 459.125 57.724C456.949 57.724 455.349 55.756 455.349 52.604ZM457.269 52.604C457.269 54.748 458.021 55.932 459.125 55.932C460.213 55.932 460.965 54.748 460.965 52.604C460.965 50.46 460.213 49.292 459.125 49.292C458.021 49.292 457.269 50.46 457.269 52.604ZM469.462 47.772H476.278V51.468H478.966V46.476H480.934V60.86H478.966V53.068H476.278V57.34H469.462V47.772ZM471.414 55.788H474.31V49.324H471.414V55.788ZM486.621 54.444H499.581V56.044H494.045V60.86H492.061V56.044H486.621V54.444ZM487.261 52.028C490.141 51.676 491.741 50.236 491.949 48.828H487.773V47.26H498.397V48.828H494.253C494.461 50.236 496.061 51.676 498.941 52.028L498.221 53.596C495.741 53.244 493.965 52.156 493.101 50.668C492.237 52.156 490.461 53.244 487.981 53.596L487.261 52.028ZM510.99 46.492H512.862V60.828H510.99V46.492ZM500.302 56.684C502.382 55.372 503.166 52.796 503.166 50.332V49.564H500.814V47.964H507.23V49.564H505.086V50.332C505.086 52.732 505.822 55.164 507.886 56.364L506.734 57.788C505.47 57.036 504.622 55.756 504.142 54.22C503.646 55.9 502.798 57.324 501.486 58.14L500.302 56.684ZM506.206 53.036V51.42H508.094V46.748H509.934V60.172H508.094V53.036H506.206ZM514.59 57.612H520.062V55.42H516.094V50.62H524.126V49.004H516.062V47.436H526.094V52.156H518.046V53.836H526.414V55.42H522.046V57.612H527.566V59.228H514.59V57.612ZM533.782 47.484H543.734V49.068H535.798V50.524H543.398V52.06H535.798V53.612H543.846V55.196H539.734V57.628H545.238V59.228H532.262V57.628H537.75V55.196H533.782V47.484ZM546.246 54.46H551.734V53.324H547.862V49.356H555.67V48.332H547.83V46.828H557.622V50.78H549.798V51.82H557.91V53.324H553.718V54.46H559.222V56.044H546.246V54.46ZM547.878 60.908V56.78H549.846V59.34H557.958V60.908H547.878ZM560.199 48.684H562.679V46.876H564.631V48.684H567.079V50.252H560.199V48.684ZM560.519 54.332C560.519 52.348 561.847 50.94 563.655 50.94C565.479 50.94 566.791 52.348 566.791 54.332C566.791 56.332 565.479 57.724 563.655 57.724C561.847 57.724 560.519 56.332 560.519 54.332ZM562.279 54.332C562.279 55.452 562.855 56.076 563.655 56.076C564.471 56.076 565.047 55.452 565.047 54.332C565.047 53.228 564.471 52.572 563.655 52.572C562.855 52.572 562.279 53.228 562.279 54.332ZM567.607 60.22V46.78H569.463V52.348H570.615V46.492H572.503V60.828H570.615V53.948H569.463V60.22H567.607ZM574.903 47.66H576.855V49.436H580.151V47.66H582.119V54.22H579.511V56.428C580.615 56.38 581.703 56.284 582.743 56.14L582.903 57.58C579.911 58.14 576.711 58.14 574.295 58.124L574.055 56.524C575.095 56.524 576.279 56.524 577.527 56.508V54.22H574.903V47.66ZM576.855 52.668H580.151V50.956H576.855V52.668ZM583.511 60.828V46.492H585.479V52.268H587.415V53.9H585.479V60.828H583.511ZM588.2 57.532H591.08V53.996C589.992 53.324 589.32 52.3 589.32 51.036C589.32 48.716 591.592 47.212 594.664 47.212C597.752 47.212 600.008 48.716 600.008 51.036C600.008 52.284 599.352 53.308 598.28 53.98V57.532H601.176V59.148H588.2V57.532ZM591.288 51.036C591.288 52.476 592.648 53.324 594.664 53.324C596.696 53.324 598.056 52.476 598.056 51.036C598.056 49.596 596.696 48.748 594.664 48.748C592.648 48.748 591.288 49.596 591.288 51.036ZM593.064 57.532H596.296V54.716C595.784 54.828 595.24 54.876 594.664 54.876C594.104 54.876 593.56 54.828 593.064 54.732V57.532Z" fill="#C6C6C6"/>
</svg>
