<svg width="current" height="current" xmlns="http://www.w3.org/2000/svg">
 <g className="layer" stroke="white">
  <title>Layer 1</title>
  <path d="m30.92,25.04c0,-1.51 1.22,-2.73 2.73,-2.73c1.51,0 2.73,1.23 2.73,2.73s-1.22,2.74 -2.73,2.74c-1.51,0 -2.73,-1.23 -2.73,-2.74zm14.77,2.74c1.51,0 2.73,-1.23 2.73,-2.74s-1.22,-2.73 -2.73,-2.73c-1.51,0 -2.73,1.23 -2.73,2.73s1.22,2.74 2.73,2.74zm-21.74,-12.49c0,5.67 -4.61,10.27 -10.27,10.27c-5.67,0 -10.27,-4.6 -10.27,-10.27s4.6,-10.27 10.27,-10.27c5.66,0 10.27,4.61 10.27,10.27zm-10.27,5.27c0.08,0 0.15,-0.02 0.23,-0.02c-0.25,-0.45 -0.4,-0.97 -0.4,-1.52c0,-1.75 1.42,-3.16 3.17,-3.16c0.79,0 1.51,0.3 2.07,0.78c0.11,-0.43 0.2,-0.88 0.2,-1.35c0,-2.9 -2.37,-5.27 -5.27,-5.27c-2.91,0 -5.27,2.37 -5.27,5.27s2.36,5.27 5.27,5.27zm51.98,5c-5.66,0 -10.27,-4.6 -10.27,-10.27s4.61,-10.27 10.27,-10.27c5.67,0 10.27,4.61 10.27,10.27s-4.6,10.27 -10.27,10.27zm5.27,-10.27c0,-2.9 -2.36,-5.27 -5.27,-5.27c-2.9,0 -5.27,2.37 -5.27,5.27c0,0.47 0.08,0.92 0.2,1.36c0.56,-0.49 1.28,-0.79 2.07,-0.79c1.75,0 3.17,1.41 3.17,3.16c0,0.56 -0.15,1.07 -0.4,1.52c0.08,0 0.15,0.03 0.23,0.03c2.91,-0.01 5.27,-2.37 5.27,-5.28zm-67.49,36.6c0.06,-0.59 0.13,-1.16 0.19,-1.73c0.04,-0.57 0.18,-1.11 0.24,-1.66c0.09,-0.54 0.13,-1.08 0.26,-1.59c0.24,-1.02 0.38,-2.01 0.64,-2.89c0.23,-0.9 0.44,-1.73 0.68,-2.44c0.24,-0.72 0.4,-1.37 0.62,-1.87c0.39,-1.03 0.58,-1.65 0.58,-1.65s-0.41,0.48 -1.11,1.36c-0.36,0.44 -0.73,1.01 -1.13,1.68c-0.2,0.34 -0.44,0.69 -0.65,1.08c-0.19,0.4 -0.4,0.81 -0.61,1.25c-0.45,0.86 -0.8,1.85 -1.18,2.9c-0.36,1.05 -0.69,2.19 -0.96,3.37c-0.24,1.19 -0.49,2.43 -0.6,3.7c-0.18,1.27 -0.17,2.57 -0.23,3.87c0.06,1.3 0.05,2.6 0.23,3.87c0.11,1.27 0.36,2.51 0.6,3.7c0.27,1.19 0.6,2.32 0.96,3.37c0.38,1.05 0.73,2.04 1.19,2.9c0.21,0.44 0.41,0.85 0.6,1.25c0.22,0.39 0.45,0.75 0.66,1.08c0.4,0.68 0.77,1.26 1.13,1.68c0.68,0.87 1.1,1.35 1.1,1.35s-0.19,-0.61 -0.59,-1.64c-0.22,-0.52 -0.38,-1.17 -0.62,-1.88c-0.24,-0.7 -0.44,-1.53 -0.67,-2.42c-0.26,-0.88 -0.41,-1.88 -0.65,-2.9c-0.19,-1.03 -0.34,-2.13 -0.5,-3.25c-0.06,-0.57 -0.12,-1.14 -0.19,-1.72c-0.07,-0.58 -0.07,-1.18 -0.12,-1.78c-0.11,-1.18 -0.09,-2.4 -0.13,-3.61c0.04,-1.21 0.02,-2.43 0.13,-3.62c0.05,-0.59 0.05,-1.18 0.13,-1.76zm75.49,1.52c-0.11,-1.28 -0.36,-2.52 -0.6,-3.71c-0.27,-1.18 -0.61,-2.31 -0.96,-3.37c-0.38,-1.05 -0.74,-2.03 -1.19,-2.9c-0.21,-0.43 -0.41,-0.85 -0.6,-1.25c-0.22,-0.39 -0.45,-0.74 -0.66,-1.08c-0.4,-0.68 -0.77,-1.25 -1.13,-1.68c-0.68,-0.87 -1.11,-1.35 -1.11,-1.35s0.2,0.61 0.59,1.65c0.23,0.51 0.39,1.16 0.62,1.87c0.25,0.71 0.45,1.53 0.68,2.43c0.26,0.88 0.41,1.87 0.64,2.89c0.2,1.03 0.34,2.13 0.51,3.25c0.06,0.57 0.12,1.14 0.18,1.73c0.08,0.58 0.08,1.17 0.13,1.77c0.11,1.19 0.09,2.4 0.13,3.61c-0.04,1.21 -0.02,2.43 -0.13,3.62c-0.05,0.59 -0.05,1.19 -0.13,1.77c-0.06,0.58 -0.13,1.16 -0.19,1.72c-0.04,0.57 -0.18,1.12 -0.24,1.66c-0.09,0.54 -0.13,1.09 -0.26,1.59c-0.24,1.02 -0.38,2.02 -0.64,2.9c-0.23,0.89 -0.44,1.72 -0.68,2.43c-0.24,0.72 -0.4,1.37 -0.62,1.87c-0.39,1.03 -0.59,1.65 -0.59,1.65s0.42,-0.47 1.12,-1.36c0.36,-0.44 0.73,-1.01 1.13,-1.68c0.2,-0.34 0.44,-0.69 0.65,-1.08c0.19,-0.39 0.4,-0.81 0.61,-1.24c0.45,-0.87 0.8,-1.86 1.18,-2.91c0.36,-1.05 0.69,-2.18 0.96,-3.37c0.24,-1.19 0.49,-2.43 0.6,-3.7c0.18,-1.27 0.17,-2.57 0.23,-3.87c-0.06,-1.3 -0.05,-2.6 -0.23,-3.86zm-39.26,-11.98c-8.75,0 -15.84,7.09 -15.84,15.84c0,8.75 7.09,15.85 15.84,15.85c8.75,0 15.84,-7.1 15.84,-15.85c0,-8.75 -7.09,-15.84 -15.84,-15.84z" id="svg_1"/>
 </g>
</svg>