<svg width="140" height="32" viewBox="0 0 140 32" fill="none" xmlns="http://www.w3.org/2000/svg">
<path d="M10.638 14.806V16.93H6.894V28.198H4.716V16.93H0.918V14.806H10.638ZM17.4277 22.636C17.3017 21.43 16.4737 20.584 15.0517 20.584C13.7197 20.584 12.6577 21.232 12.4597 22.636H17.4277ZM10.4437 23.446C10.4437 20.836 12.0997 18.64 15.0337 18.64C18.0577 18.64 18.9577 21.088 19.0117 21.214C19.5877 22.672 19.4617 24.382 19.4617 24.382H12.4597C12.7297 25.552 13.5757 26.308 15.0517 26.308C16.8337 26.308 17.1757 25.282 17.1757 25.282L19.0657 26.128C19.0657 26.128 18.2017 28.234 15.0337 28.234C12.0997 28.234 10.4437 26.038 10.4437 23.446ZM25.7588 26.272C27.0908 26.272 28.2788 25.138 28.2968 23.536C28.2788 21.916 27.0908 20.782 25.7588 20.782C24.0488 20.782 23.2208 21.97 23.2208 23.536C23.2208 25.102 24.0488 26.272 25.7588 26.272ZM21.0608 23.536C21.0608 20.944 22.6988 18.748 25.5788 18.748C26.6048 18.748 27.6488 19.216 28.4048 20.224V18.694H30.5648V28.18H28.4048V26.83C27.6488 27.856 26.6048 28.324 25.5788 28.324C22.6988 28.324 21.0608 26.11 21.0608 23.536ZM45.4077 22.924C45.4077 21.736 44.5437 20.836 43.4457 20.836C42.2757 20.836 41.3757 21.736 41.3757 22.924V28.18H39.2517V22.924C39.2517 21.736 38.6577 20.854 37.3077 20.854C36.2277 20.854 35.2197 21.736 35.2197 22.978V28.18H33.0777V18.694H35.2197V20.278C35.7597 19.342 36.5517 18.694 37.5597 18.694C39.0537 18.694 39.8637 19.468 40.4937 20.584C41.1237 19.594 41.9337 18.694 43.5717 18.694C45.6057 18.694 47.5497 20.116 47.5497 22.87V28.18H45.4077V22.924Z" fill="white"/>
<g clip-path="url(#clip0_439_1684)">
<path d="M124.852 13.5454C124.963 11.7602 124.807 10.4882 124.406 9.77413H125.431C125.743 9.77413 126.011 9.66255 126.212 9.4394C126.412 9.21625 126.546 8.92615 126.613 8.59142L127.126 5.75739C127.17 5.4673 127.126 5.26646 126.97 5.15488C126.814 5.06562 126.546 5.02099 126.167 5.02099H120.415C121.083 4.26228 121.596 3.7044 121.596 3.7044L123.313 1.91918C124.027 1.16046 123.826 0.758789 122.733 0.758789H120.593C119.701 0.758789 118.72 1.22741 117.627 2.16465C116.624 3.07957 115.688 4.03912 114.751 4.99868H113.525C112.901 4.99868 112.544 5.33341 112.432 5.98055L111.942 8.76995C111.83 9.4394 112.098 9.75181 112.789 9.75181H113.659C112.901 10.4882 112.232 11.7825 111.652 13.6123C111.05 15.4422 110.493 17.8299 109.98 20.7978C109.645 22.65 109.467 24.279 109.4 25.6849C109.355 27.0907 109.511 28.2511 109.868 29.1884C110.225 30.1256 110.805 30.8174 111.607 31.286C112.41 31.7546 113.525 32.0001 114.907 32.0001C116.267 32.0001 117.449 31.7546 118.43 31.286C119.411 30.8174 120.258 30.1033 120.972 29.166C121.663 28.2288 122.265 27.0461 122.711 25.6402C123.179 24.2121 123.581 22.5831 123.915 20.7309C124.428 17.7407 124.74 15.3529 124.852 13.5454ZM120.192 12.6082C120.125 14.4826 119.79 17.2274 119.144 20.8425C118.72 23.1633 118.296 24.9038 117.828 26.0642C117.36 27.2246 116.691 27.8048 115.821 27.8048C115.331 27.8048 114.952 27.6709 114.707 27.3808C114.439 27.0907 114.283 26.6667 114.216 26.0865C114.149 25.5063 114.171 24.7923 114.261 23.8997C114.372 23.0294 114.506 22.0029 114.729 20.8648C115.041 19.0796 115.353 17.4952 115.643 16.1116C115.933 14.7281 116.223 13.59 116.557 12.6528C116.869 11.7156 117.226 11.0238 117.583 10.5328C117.962 10.0419 118.386 9.81876 118.876 9.81876C119.813 9.77413 120.236 10.7114 120.192 12.6082Z" fill="#FB0200"/>
<path d="M138.943 0.0888672H136.558C135.8 0.0888672 135.331 0.445911 135.22 1.18231L133.86 8.85874H132.433L133.815 1.09305C133.927 0.423595 133.659 0.111182 132.968 0.111182H130.292C129.623 0.111182 129.244 0.44591 129.111 1.13768L123.804 30.9062C123.67 31.6426 124.005 32.0219 124.83 32.0219H127.126C127.907 32.0219 128.375 31.6426 128.509 30.9062L131.541 13.9243H132.968L129.936 30.9731C129.802 31.6872 130.159 32.0219 130.984 32.0219H133.325C134.06 32.0219 134.506 31.6203 134.662 30.8392L139.902 1.20463C140.036 0.468226 139.701 0.0888672 138.943 0.0888672Z" fill="#FB0200"/>
<path d="M59.2334 17.785H61.9759C62.9347 17.785 63.6705 17.3387 64.2056 16.4684C64.9191 15.2857 65.811 13.9245 66.9481 12.407C67.3271 12.8533 67.617 13.2104 67.7285 13.3889C68.3305 14.1923 68.8656 14.6162 69.7352 14.6162H72.7898C73.4141 14.5716 73.6148 13.9914 73.3026 13.5451C71.9648 11.7376 70.9169 10.354 69.7129 8.94818C69.8243 8.8366 69.9135 8.70271 70.025 8.59113C70.9838 7.47537 74.4398 3.65947 74.4398 3.65947L76.1566 1.87426C76.8701 1.11554 76.6694 0.713867 75.5769 0.713867H73.4364C72.5445 0.713867 71.5635 1.18249 70.471 2.11973C69.1555 3.36938 67.9068 4.61903 66.7028 5.91331C66.4799 5.71247 66.2569 5.51164 66.0116 5.28848C65.2981 4.77523 64.6738 4.52977 64.0495 4.52977H61.2401C60.2368 4.52977 60.0807 4.86449 60.705 5.55627L62.2435 7.16296C62.6225 7.52 63.2691 8.21178 63.9826 9.01512C62.0205 11.4252 60.2368 13.9468 58.6314 16.58C58.3193 17.0709 58.5423 17.7404 59.2334 17.785Z" fill="#FB0200"/>
<path d="M83.6037 0H80.9504C80.1031 0 79.6126 0.379358 79.4788 1.11576L76.7363 16.4017C76.5802 17.2497 76.9593 17.6736 77.8734 17.6736H80.3706C81.2402 17.6736 81.753 17.272 81.8868 16.4463L84.6516 1.11576C84.7854 0.379358 84.4286 0 83.6037 0Z" fill="#FB0200"/>
<path d="M79.8351 19.3691H59.3668C58.4972 19.3691 57.9844 19.7931 57.8283 20.6634L56.0223 30.7945C55.8885 31.5309 56.2675 31.9103 57.1594 31.9103H77.5831C78.5865 31.9103 79.1662 31.464 79.3223 30.5714L81.106 20.5518C81.2621 19.7708 80.8161 19.3691 79.8351 19.3691ZM74.9075 27.782L61.2174 27.8712L61.9755 23.5867H75.6433L74.9075 27.782Z" fill="#FB0200"/>
<path d="M85.3196 17.785H88.0621C89.0209 17.785 89.7567 17.3387 90.2918 16.4684C91.0053 15.2857 91.8971 13.9245 93.0343 12.407C93.4133 12.8533 93.7032 13.2104 93.8146 13.3889C94.4167 14.1923 94.9518 14.6162 95.8213 14.6162H98.876C99.5003 14.5716 99.701 13.9914 99.3888 13.5451C98.051 11.7376 97.0031 10.354 95.799 8.94818C95.9105 8.8366 95.9997 8.70271 96.1112 8.59113C97.07 7.47537 100.526 3.65947 100.526 3.65947L102.243 1.87426C102.956 1.11554 102.756 0.713867 101.663 0.713867H99.5226C98.6307 0.713867 97.6497 1.18249 96.5571 2.11973C95.2416 3.34706 93.993 4.59671 92.8113 5.89099C92.5883 5.69016 92.3654 5.48932 92.1201 5.26617C91.4066 4.75292 90.7823 4.50745 90.158 4.50745H87.3486C86.3453 4.50745 86.1892 4.84218 86.8135 5.53395L88.352 7.14065C88.731 7.49769 89.3776 8.18946 90.0911 8.99281C88.129 11.4029 86.3453 13.9245 84.7399 16.5577C84.4055 17.0709 84.6284 17.7404 85.3196 17.785Z" fill="#FB0200"/>
<path d="M109.691 0H107.037C106.19 0 105.699 0.379358 105.566 1.11576L102.823 16.4017C102.667 17.2497 103.046 17.6736 103.96 17.6736H106.458C107.327 17.6736 107.84 17.272 107.974 16.4463L110.739 1.11576C110.872 0.379358 110.516 0 109.691 0Z" fill="#FB0200"/>
<path d="M105.922 19.3691H85.4761C84.6066 19.3691 84.0937 19.7931 83.9377 20.6634L82.1316 30.7945C81.9979 31.5309 82.3769 31.9103 83.2688 31.9103H103.692C104.696 31.9103 105.276 31.464 105.432 30.5714L107.215 20.5518C107.349 19.7708 106.903 19.3691 105.922 19.3691ZM100.995 27.782L87.3045 27.8712L88.0625 23.5867H101.73L100.995 27.782Z" fill="#FB0200"/>
</g>
<defs>
<clipPath id="clip0_439_1684">
<rect width="83.9245" height="32" fill="white" transform="translate(56)"/>
</clipPath>
</defs>
</svg>
