<svg width="current" height="current" viewBox="0 0 60 60" fill="none" xmlns="http://www.w3.org/2000/svg">
<g clip-path="url(#clip0_154_7955)">
<path d="M33.75 18.75H22.5C21.4625 18.75 20.575 19.375 20.2 20.275L16.425 29.0875C16.3125 29.375 16.25 29.675 16.25 30V32.5C16.25 33.875 17.375 35 18.75 35H26.6375L25.45 40.7125L25.4125 41.1125C25.4125 41.625 25.625 42.1 25.9625 42.4375L27.2875 43.75L35.5125 35.5125C35.975 35.0625 36.25 34.4375 36.25 33.75V21.25C36.25 19.875 35.125 18.75 33.75 18.75ZM33.75 33.75L28.325 39.175L29.7125 32.5H18.75V30L22.5 21.25H33.75V33.75ZM38.75 18.75H43.75V33.75H38.75V18.75Z" fill="#919191"/>
</g>
<defs>
<clipPath id="clip0_154_7955">
<rect width="30" height="30" fill="white" transform="translate(15 15)"/>
</clipPath>
</defs>
</svg>
