<svg width="456" height="278" viewBox="0 0 456 278" fill="none" xmlns="http://www.w3.org/2000/svg">
<rect width="456" height="278" rx="24" fill="#2F3131"/>
<circle cx="269.5" cy="151.5" r="1.5" fill="#C6C6C6"/>
<circle cx="280" cy="151.5" r="1.5" fill="#C6C6C6"/>
<circle cx="290.5" cy="151.5" r="1.5" fill="#C6C6C6"/>
<circle cx="301" cy="151.5" r="1.5" fill="#C6C6C6"/>
<circle cx="311.5" cy="151.5" r="1.5" fill="#C6C6C6"/>
<circle cx="322" cy="151.5" r="1.5" fill="#C6C6C6"/>
<path d="M265.209 199.399C265.209 226.681 243.092 248.798 215.81 248.798C188.528 248.798 166.411 226.681 166.411 199.399C166.411 172.117 188.528 150 215.81 150C243.092 150 265.209 172.117 265.209 199.399Z" fill="#919191"/>
<path d="M156.883 212.68L185.056 222.703C190.441 224.618 193.27 230.493 191.374 235.823L190.681 237.77C187.578 246.493 177.919 251.022 169.106 247.887L147.138 240.072L156.883 212.68Z" fill="#777777"/>
<path d="M300.099 212.627L271.925 222.649C266.54 224.565 263.714 230.448 265.614 235.789L266.308 237.739C269.417 246.479 279.081 251.022 287.894 247.887L309.862 240.072L300.099 212.627Z" fill="#777777"/>
<path fill-rule="evenodd" clip-rule="evenodd" d="M129.063 228.442C129.987 225.738 132.929 224.295 135.633 225.219L164.081 234.943C166.786 235.867 168.229 238.809 167.304 241.514C166.38 244.218 163.438 245.661 160.733 244.737L132.286 235.013C129.581 234.089 128.138 231.147 129.063 228.442Z" fill="#777777"/>
<path fill-rule="evenodd" clip-rule="evenodd" d="M327.937 228.442C327.013 225.738 324.071 224.295 321.367 225.219L292.919 234.943C290.214 235.867 288.771 238.809 289.696 241.514C290.62 244.218 293.562 245.661 296.267 244.737L324.714 235.013C327.419 234.089 328.862 231.147 327.937 228.442Z" fill="#777777"/>
<path fill-rule="evenodd" clip-rule="evenodd" d="M130.518 219.586C131.355 216.853 134.248 215.316 136.981 216.152L165.489 224.879C168.222 225.715 169.759 228.609 168.923 231.342C168.086 234.075 165.192 235.612 162.459 234.776L133.952 226.049C131.219 225.213 129.681 222.319 130.518 219.586Z" fill="#777777"/>
<path fill-rule="evenodd" clip-rule="evenodd" d="M326.482 219.586C325.645 216.853 322.752 215.316 320.019 216.152L291.511 224.879C288.778 225.715 287.241 228.609 288.077 231.342C288.914 234.075 291.808 235.612 294.541 234.776L323.048 226.049C325.781 225.213 327.319 222.319 326.482 219.586Z" fill="#777777"/>
<path fill-rule="evenodd" clip-rule="evenodd" d="M132.196 209.609C133.12 206.904 136.062 205.461 138.766 206.386L167.214 216.11C169.918 217.034 171.361 219.976 170.437 222.681C169.513 225.385 166.571 226.828 163.866 225.904L135.419 216.18C132.714 215.255 131.271 212.313 132.196 209.609Z" fill="#777777"/>
<path fill-rule="evenodd" clip-rule="evenodd" d="M324.804 209.609C323.88 206.904 320.938 205.461 318.234 206.386L289.786 216.11C287.082 217.034 285.639 219.976 286.563 222.681C287.487 225.385 290.429 226.828 293.134 225.904L321.581 216.18C324.286 215.255 325.729 212.313 324.804 209.609Z" fill="#777777"/>
<path fill-rule="evenodd" clip-rule="evenodd" d="M160.603 204.321C162.821 202.13 166.395 202.151 168.587 204.369L188.449 224.472C190.641 226.69 190.619 230.265 188.401 232.456C186.183 234.647 182.609 234.626 180.417 232.408L160.555 212.305C158.364 210.087 158.385 206.513 160.603 204.321Z" fill="#777777"/>
<path fill-rule="evenodd" clip-rule="evenodd" d="M296.397 204.321C294.179 202.13 290.605 202.151 288.413 204.369L268.551 224.472C266.359 226.69 266.381 230.265 268.599 232.456C270.817 234.647 274.391 234.626 276.583 232.408L296.445 212.305C298.636 210.087 298.615 206.513 296.397 204.321Z" fill="#777777"/>
<path fill-rule="evenodd" clip-rule="evenodd" d="M186.199 180.073C186.419 178.53 187.849 177.457 189.392 177.678C189.392 177.678 189.392 177.678 189.392 177.678C189.392 177.678 189.414 177.681 189.464 177.683C189.519 177.685 189.594 177.687 189.692 177.685C189.891 177.681 190.149 177.664 190.471 177.631C191.117 177.565 191.933 177.44 192.893 177.258C194.808 176.894 197.169 176.327 199.644 175.636C204.659 174.237 209.819 172.422 212.589 170.93C213.962 170.191 215.674 170.704 216.413 172.077C217.152 173.449 216.639 175.161 215.266 175.901C211.921 177.702 206.261 179.651 201.161 181.074C198.579 181.795 196.058 182.404 193.945 182.805C192.89 183.005 191.906 183.159 191.048 183.247C190.243 183.33 189.359 183.376 188.594 183.267C187.051 183.046 185.978 181.617 186.199 180.073Z" fill="#464747"/>
<path d="M204.772 180.905C200.401 181.498 202.624 189.932 206.051 194.262C206.873 193.85 210.887 193.028 211.395 193.028C212.134 187.058 209.627 180.245 204.772 180.905Z" fill="#505050"/>
<path fill-rule="evenodd" clip-rule="evenodd" d="M198.68 181.149C199.516 178.917 201.393 177.091 204.202 176.709C209.212 176.029 212.454 179.445 213.995 182.642C215.546 185.859 216.049 189.896 215.597 193.549C215.345 195.579 213.683 197.125 211.667 197.254C211.666 197.254 211.664 197.255 211.663 197.255C211.569 197.268 211.419 197.293 211.216 197.33C210.814 197.403 210.291 197.508 209.749 197.627C209.204 197.746 208.679 197.872 208.265 197.984C208.057 198.04 207.906 198.085 207.81 198.116C207.803 198.118 207.797 198.12 207.791 198.122C206.028 198.917 203.94 198.417 202.731 196.89C200.573 194.163 198.861 190.3 198.307 186.854C198.035 185.161 197.959 183.074 198.68 181.149ZM207.742 198.139C207.742 198.139 207.746 198.138 207.755 198.134C207.747 198.138 207.742 198.139 207.742 198.139Z" fill="#464747"/>
<path fill-rule="evenodd" clip-rule="evenodd" d="M240.446 173.582C236.496 173.206 233.447 174.447 232.055 176.208C231.088 177.431 229.313 177.639 228.09 176.672C226.867 175.705 226.659 173.93 227.626 172.707C230.598 168.948 235.852 167.474 240.981 167.962C246.22 168.46 251.837 171.013 256.069 175.997C257.078 177.185 256.933 178.967 255.745 179.976C254.556 180.985 252.775 180.84 251.766 179.652C248.527 175.838 244.287 173.947 240.446 173.582Z" fill="#464747"/>
<path d="M243.414 177.971C239.104 178.462 240.672 185.657 243.548 189.212C244.101 188.957 247.336 188.81 248.401 188.878C249.008 183.618 248.592 177.382 243.414 177.971Z" fill="#505050"/>
<path fill-rule="evenodd" clip-rule="evenodd" d="M237.453 177.487C238.516 175.436 240.456 174.047 242.935 173.765C245.132 173.515 247.277 173.969 249.048 175.334C250.722 176.625 251.621 178.392 252.115 179.959C253.07 182.987 252.926 186.602 252.608 189.364C252.349 191.604 250.381 193.248 248.131 193.104C248.039 193.099 247.774 193.092 247.346 193.1C246.944 193.107 246.482 193.124 246.033 193.151C245.577 193.178 245.182 193.212 244.903 193.246C244.858 193.251 244.82 193.256 244.788 193.261C243.155 193.762 241.354 193.232 240.257 191.876C238.302 189.46 236.861 185.984 236.57 182.832C236.425 181.26 236.52 179.286 237.453 177.487Z" fill="#464747"/>
<path fill-rule="evenodd" clip-rule="evenodd" d="M238.863 210.219C232.368 210.22 224.165 210.98 220.729 211.839C219.216 212.217 217.684 211.297 217.306 209.785C216.927 208.272 217.847 206.74 219.359 206.362C223.45 205.339 232.184 204.574 238.863 204.574C240.422 204.574 241.685 205.838 241.685 207.397C241.685 208.956 240.422 210.219 238.863 210.219Z" fill="#464747"/>
<path d="M104.056 79.968C106.904 79.968 108.648 80.928 108.648 82.56C108.648 84.208 106.904 85.152 104.056 85.152C101.208 85.152 99.464 84.208 99.464 82.56C99.464 80.928 101.208 79.968 104.056 79.968ZM98.264 78.496V72.048H99.448V74.192H103.528V72.048H104.712V78.496H98.264ZM99.448 77.52H103.528V75.152H99.448V77.52ZM100.632 82.56C100.632 83.584 101.944 84.192 104.056 84.192C106.152 84.192 107.448 83.584 107.448 82.56C107.448 81.552 106.152 80.944 104.056 80.944C101.944 80.944 100.632 81.552 100.632 82.56ZM107.304 79.6V71.168H108.504V74.72H110.584V75.728H108.504V79.6H107.304ZM115.936 72.432H122.336V78.896H115.936V72.432ZM117.104 77.904H121.168V73.408H117.104V77.904ZM117.504 84.848V80.448H118.688V83.856H126.816V84.848H117.504ZM124.976 81.424V71.152H126.176V75.44H128.256V76.448H126.176V81.424H124.976ZM129.312 77.072H141.952V78.048H129.312V77.072ZM130.832 80.256V79.312H140.304V82.544H132.048V84.032H140.736V85.008H130.88V81.648H139.136V80.256H130.832ZM131.008 75.888V71.648H140.288V72.64H132.192V74.928H140.448V75.888H131.008ZM153.537 71.168H154.737V85.168H153.537V71.168ZM143.457 81.568C147.233 79.76 149.137 77.024 149.393 73.664H144.081V72.672H150.609C150.609 76.704 148.753 80.256 144.097 82.528L143.457 81.568ZM171.257 71.152H172.441V85.184H171.257V77.376H167.913V81.632H161.513V72.272H162.713V75.936H166.729V72.272H167.913V76.4H171.257V71.152ZM162.713 80.64H166.729V76.896H162.713V80.64ZM174.937 78.944H187.577V79.92H174.937V78.944ZM176.585 84.864V80.976H177.769V83.872H186.249V84.864H176.585ZM176.617 77.6V71.696H186.009V72.64H177.817V74.16H185.641V75.088H177.817V76.656H186.089V77.6H176.617ZM195.241 71.424C198.313 71.424 200.153 72.272 200.153 73.84C200.153 75.408 198.313 76.272 195.241 76.272C192.169 76.272 190.329 75.408 190.329 73.84C190.329 72.272 192.169 71.424 195.241 71.424ZM188.921 78.224V77.248H201.561V78.224H188.921ZM190.457 80.384V79.456H199.929V82.56H191.673V84.064H200.361V85.008H190.505V81.68H198.761V80.384H190.457ZM191.561 73.84C191.561 74.816 192.937 75.36 195.241 75.36C197.545 75.36 198.921 74.816 198.921 73.84C198.921 72.88 197.545 72.32 195.241 72.32C192.937 72.32 191.561 72.88 191.561 73.84ZM206.593 78.608H212.305V77.184H208.273V71.584H217.665V72.544H209.473V73.872H217.297V74.8H209.473V76.24H217.745V77.184H213.505V78.608H219.233V79.584H206.593V78.608ZM208.129 82.912C208.129 81.44 209.857 80.688 212.913 80.688C215.953 80.688 217.697 81.44 217.697 82.912C217.697 84.368 215.953 85.136 212.913 85.136C209.857 85.136 208.129 84.368 208.129 82.912ZM209.329 82.912C209.329 83.776 210.625 84.224 212.913 84.224C215.185 84.224 216.497 83.776 216.497 82.912C216.497 82.064 215.185 81.584 212.913 81.584C210.625 81.584 209.329 82.064 209.329 82.912ZM220.546 73.6H223.442V71.568H224.626V73.6H227.506V74.576H220.546V73.6ZM221.042 78.72C221.042 76.864 222.289 75.552 224.034 75.552C225.778 75.552 227.042 76.864 227.042 78.72C227.042 80.608 225.778 81.904 224.034 81.904C222.289 81.904 221.042 80.608 221.042 78.72ZM222.114 78.72C222.114 79.984 222.914 80.88 224.034 80.88C225.154 80.88 225.97 79.984 225.97 78.72C225.97 77.472 225.154 76.56 224.034 76.56C222.914 76.56 222.114 77.472 222.114 78.72ZM228.242 84.464V71.504H229.378V77.088H231.25V71.168H232.386V85.168H231.25V78.08H229.378V84.464H228.242ZM244.665 79.968C247.513 79.968 249.257 80.928 249.257 82.56C249.257 84.208 247.513 85.152 244.665 85.152C241.817 85.152 240.073 84.208 240.073 82.56C240.073 80.928 241.817 79.968 244.665 79.968ZM238.873 78.496V72.048H240.057V74.192H244.137V72.048H245.321V78.496H238.873ZM240.057 77.52H244.137V75.152H240.057V77.52ZM241.241 82.56C241.241 83.584 242.553 84.192 244.665 84.192C246.761 84.192 248.057 83.584 248.057 82.56C248.057 81.552 246.761 80.944 244.665 80.944C242.553 80.944 241.241 81.552 241.241 82.56ZM247.913 79.6V71.168H249.113V74.72H251.193V75.728H249.113V79.6H247.913ZM258.554 71.424C261.626 71.424 263.466 72.272 263.466 73.84C263.466 75.408 261.626 76.272 258.554 76.272C255.482 76.272 253.642 75.408 253.642 73.84C253.642 72.272 255.482 71.424 258.554 71.424ZM252.234 78.224V77.248H264.874V78.224H252.234ZM253.77 80.384V79.456H263.242V82.56H254.986V84.064H263.674V85.008H253.818V81.68H262.074V80.384H253.77ZM254.874 73.84C254.874 74.816 256.25 75.36 258.554 75.36C260.858 75.36 262.234 74.816 262.234 73.84C262.234 72.88 260.858 72.32 258.554 72.32C256.25 72.32 254.874 72.88 254.874 73.84ZM270.53 72.432H276.93V78.896H270.53V72.432ZM271.698 77.904H275.762V73.408H271.698V77.904ZM272.098 84.848V80.448H273.282V83.856H281.41V84.848H272.098ZM279.57 81.424V71.152H280.77V75.44H282.85V76.448H280.77V81.424H279.57ZM283.906 77.072H296.546V78.048H283.906V77.072ZM285.426 80.256V79.312H294.898V82.544H286.642V84.032H295.33V85.008H285.474V81.648H293.73V80.256H285.426ZM285.602 75.888V71.648H294.882V72.64H286.786V74.928H295.042V75.888H285.602ZM301.586 72.256C303.49 72.256 304.866 73.904 305.042 76.544H308.178V71.152H309.362V85.184H308.178V77.504H305.042C304.93 80.256 303.522 82 301.586 82C299.554 82 298.114 80.096 298.114 77.12C298.114 74.144 299.554 72.256 301.586 72.256ZM299.25 77.12C299.25 79.408 300.21 80.928 301.586 80.928C302.978 80.928 303.922 79.408 303.922 77.12C303.922 74.832 302.978 73.328 301.586 73.328C300.21 73.328 299.25 74.832 299.25 77.12ZM311.859 79.184H324.515V80.176H318.755V85.168H317.571V80.176H311.859V79.184ZM312.627 76.992C315.011 76.64 317.523 75.04 317.523 73.152V73.04H313.059V72.064H323.283V73.04H318.851V73.152C318.851 75.04 321.363 76.64 323.747 76.992L323.283 77.968C321.155 77.6 319.027 76.416 318.195 74.72C317.347 76.416 315.219 77.6 313.091 77.968L312.627 76.992ZM331.347 76.208H333.715V71.488H334.835V84.448H333.715V77.216H331.347V76.208ZM325.683 81.232C327.587 80.112 328.787 77.6 328.787 75.2V72.512H329.939V75.168C329.939 77.392 331.043 79.792 332.883 80.896L332.179 81.824C330.835 81.024 329.875 79.504 329.379 77.808C328.867 79.664 327.827 81.28 326.435 82.128L325.683 81.232ZM336.563 85.168V71.168H337.715V85.168H336.563ZM339.828 82.352H342.98V78.528C341.796 77.92 341.076 76.912 341.076 75.648C341.076 73.472 343.204 72.064 346.148 72.064C349.124 72.064 351.22 73.472 351.22 75.648C351.22 76.896 350.516 77.888 349.364 78.512V82.352H352.516V83.344H339.828V82.352ZM342.244 75.648C342.244 77.232 343.876 78.272 346.148 78.272C348.42 78.272 350.068 77.232 350.068 75.648C350.068 74.064 348.42 73.024 346.148 73.024C343.876 73.024 342.244 74.064 342.244 75.648ZM344.164 82.352H348.164V78.976C347.556 79.136 346.884 79.216 346.148 79.216C345.428 79.216 344.772 79.136 344.164 78.976V82.352ZM354.98 82.608C355.492 82.608 355.764 82.96 355.764 83.392C355.764 83.856 355.492 84.208 354.98 84.208C354.452 84.208 354.164 83.856 354.164 83.392C354.164 82.96 354.452 82.608 354.98 82.608Z" fill="#C6C6C6"/>
<path d="M137.049 42.053H138.96V60.638H137.049V42.053ZM124.407 49.97C124.407 45.98 126.381 43.481 129.153 43.481C131.904 43.481 133.899 45.98 133.899 49.97C133.899 53.939 131.904 56.48 129.153 56.48C126.381 56.48 124.407 53.939 124.407 49.97ZM126.255 49.97C126.255 52.91 127.452 54.758 129.153 54.758C130.854 54.758 132.051 52.91 132.051 49.97C132.051 47.03 130.854 45.203 129.153 45.203C127.452 45.203 126.255 47.03 126.255 49.97ZM142.845 43.376H151.077V48.899H144.777V51.629C148.074 51.629 150.132 51.545 152.547 51.125L152.694 52.679C150.111 53.12 147.927 53.204 144.315 53.204H142.887V47.429H149.187V44.888H142.845V43.376ZM145.386 60.218V54.674H147.318V58.643H157.965V60.218H145.386ZM152.19 48.437V46.799H155.508V42.095H157.419V55.682H155.508V48.437H152.19ZM163.195 57.257L161.914 61.583H160.549L161.242 57.257H163.195ZM185.133 42.074H187.002V60.596H185.133V50.978H182.865V59.714H181.038V42.557H182.865V49.424H185.133V42.074ZM171.21 55.304C175.326 52.994 177.027 49.823 177.321 46.022H171.966V44.447H179.19C179.19 49.319 177.594 53.687 172.323 56.69L171.21 55.304ZM199.12 45.287H203.005V42.095H204.916V51.608H203.005V46.862H199.12V45.287ZM189.586 50.159C192.442 49.235 194.143 46.925 194.143 44.3V42.662H196.054V44.3C196.054 46.652 197.776 48.899 200.485 49.781L199.498 51.251C197.482 50.558 195.949 49.151 195.151 47.366C194.353 49.361 192.757 50.915 190.594 51.65L189.586 50.159ZM192.925 54.023V52.511H204.916V57.089H194.836V58.853H205.567V60.365H192.946V55.661H203.026V54.023H192.925ZM209.704 43.271H218.524V44.825H211.594V48.059H218.65V49.592H215.08V51.965C216.718 51.902 218.335 51.776 219.868 51.608L220.015 53.015C216.088 53.582 211.762 53.666 208.339 53.666L208.045 52.112C209.62 52.112 211.384 52.091 213.169 52.049V49.592H209.704V43.271ZM211.09 60.218V55.01H213.001V58.643H223.774V60.218H211.09ZM221.275 55.955V42.095H223.186V55.955H221.275ZM239.681 53.624C243.482 53.624 245.813 54.926 245.813 57.11C245.813 59.315 243.482 60.596 239.681 60.596C235.88 60.596 233.549 59.315 233.549 57.11C233.549 54.926 235.88 53.624 239.681 53.624ZM231.911 51.839V43.25H233.822V45.917H238.673V43.25H240.563V51.839H231.911ZM233.822 50.306H238.673V47.429H233.822V50.306ZM235.418 57.11C235.418 58.37 237.014 59.084 239.681 59.084C242.327 59.084 243.902 58.37 243.902 57.11C243.902 55.871 242.327 55.157 239.681 55.157C237.014 55.157 235.418 55.871 235.418 57.11ZM243.692 53.162V42.095H245.624V46.673H248.27V48.269H245.624V53.162H243.692ZM262.803 42.053H264.714V60.638H262.803V42.053ZM250.161 49.97C250.161 45.98 252.135 43.481 254.907 43.481C257.658 43.481 259.653 45.98 259.653 49.97C259.653 53.939 257.658 56.48 254.907 56.48C252.135 56.48 250.161 53.939 250.161 49.97ZM252.009 49.97C252.009 52.91 253.206 54.758 254.907 54.758C256.608 54.758 257.805 52.91 257.805 49.97C257.805 47.03 256.608 45.203 254.907 45.203C253.206 45.203 252.009 47.03 252.009 49.97ZM274.825 52.952H276.631V55.136H279.55V52.952H281.335V60.365H274.825V52.952ZM273.019 47.156C273.019 44.615 275.035 42.872 277.807 42.872C280.243 42.872 282.154 44.258 282.532 46.337H286.123V42.095H288.034V51.881H286.123V47.912H282.553C282.196 50.033 280.285 51.461 277.807 51.461C275.035 51.461 273.019 49.697 273.019 47.156ZM274.867 47.156C274.867 48.773 276.085 49.865 277.807 49.865C279.529 49.865 280.768 48.773 280.768 47.156C280.768 45.56 279.529 44.468 277.807 44.468C276.085 44.468 274.867 45.56 274.867 47.156ZM276.631 58.895H279.55V56.564H276.631V58.895ZM281.44 59.084C283.645 58.16 284.737 56.186 284.737 54.338V52.826H286.627V54.338C286.627 56.291 287.719 58.244 289.945 59.084L288.979 60.533C287.341 59.861 286.249 58.643 285.682 57.173C285.094 58.622 284.002 59.861 282.385 60.533L281.44 59.084ZM296.036 43.481C298.535 43.481 300.383 45.602 300.656 49.067H304.478V42.053H306.389V60.638H304.478V50.6H300.677C300.488 54.212 298.598 56.48 296.036 56.48C293.327 56.48 291.395 53.939 291.395 49.97C291.395 45.98 293.327 43.481 296.036 43.481ZM293.201 49.97C293.201 52.91 294.356 54.758 296.036 54.758C297.737 54.758 298.871 52.91 298.871 49.97C298.871 47.03 297.737 45.203 296.036 45.203C294.356 45.203 293.201 47.03 293.201 49.97ZM309.434 56.69H313.466V51.797C311.954 50.978 311.03 49.655 311.03 47.996C311.03 45.077 313.886 43.187 317.792 43.187C321.761 43.187 324.575 45.077 324.575 47.996C324.575 49.634 323.693 50.936 322.202 51.776V56.69H326.213V58.265H309.434V56.69ZM312.899 47.996C312.899 50.012 314.936 51.293 317.792 51.293C320.669 51.293 322.706 50.012 322.706 47.996C322.706 45.98 320.669 44.699 317.792 44.699C314.936 44.699 312.899 45.98 312.899 47.996ZM315.356 56.69H320.27V52.511C319.514 52.7 318.674 52.784 317.792 52.784C316.931 52.784 316.112 52.7 315.356 52.511V56.69ZM329.406 57.047C330.162 57.047 330.561 57.551 330.561 58.202C330.561 58.874 330.162 59.378 329.406 59.378C328.65 59.378 328.23 58.874 328.23 58.202C328.23 57.551 328.65 57.047 329.406 57.047Z" fill="#C6C6C6"/>
<circle cx="404.5" cy="222.5" r="31.5" fill="#D9D9D9"/>
<path d="M421.5 223H389" stroke="black" stroke-width="6"/>
<path d="M405 207L405 239.5" stroke="black" stroke-width="6"/>
</svg>
