<svg width="456" height="278" viewBox="0 0 456 278" fill="none" xmlns="http://www.w3.org/2000/svg">
<rect width="456" height="278" rx="24" fill="#2F3131"/>
<circle cx="269.5" cy="151.5" r="1.5" fill="#C6C6C6"/>
<circle cx="280" cy="151.5" r="1.5" fill="#C6C6C6"/>
<circle cx="290.5" cy="151.5" r="1.5" fill="#C6C6C6"/>
<circle cx="301" cy="151.5" r="1.5" fill="#C6C6C6"/>
<circle cx="311.5" cy="151.5" r="1.5" fill="#C6C6C6"/>
<circle cx="322" cy="151.5" r="1.5" fill="#C6C6C6"/>
<path d="M265.209 199.399C265.209 226.681 243.092 248.798 215.81 248.798C188.528 248.798 166.411 226.681 166.411 199.399C166.411 172.117 188.528 150 215.81 150C243.092 150 265.209 172.117 265.209 199.399Z" fill="#919191"/>
<path d="M156.882 212.68L185.056 222.702C190.441 224.618 193.27 230.492 191.374 235.823L190.681 237.769C187.578 246.492 177.918 251.022 169.106 247.887L147.138 240.072L156.882 212.68Z" fill="#777777"/>
<path d="M300.099 212.627L271.925 222.649C266.54 224.565 263.714 230.448 265.614 235.789L266.308 237.739C269.417 246.479 279.081 251.022 287.894 247.887L309.862 240.072L300.099 212.627Z" fill="#777777"/>
<path fill-rule="evenodd" clip-rule="evenodd" d="M129.063 228.442C129.987 225.738 132.929 224.295 135.633 225.219L164.081 234.943C166.786 235.868 168.229 238.809 167.304 241.514C166.38 244.218 163.438 245.662 160.733 244.737L132.286 235.013C129.581 234.089 128.138 231.147 129.063 228.442Z" fill="#777777"/>
<path fill-rule="evenodd" clip-rule="evenodd" d="M327.937 228.442C327.013 225.738 324.071 224.295 321.367 225.219L292.919 234.943C290.214 235.868 288.771 238.809 289.696 241.514C290.62 244.218 293.562 245.662 296.267 244.737L324.714 235.013C327.419 234.089 328.862 231.147 327.937 228.442Z" fill="#777777"/>
<path fill-rule="evenodd" clip-rule="evenodd" d="M130.518 219.586C131.355 216.853 134.248 215.316 136.981 216.152L165.489 224.878C168.222 225.715 169.759 228.609 168.923 231.342C168.086 234.075 165.192 235.612 162.459 234.775L133.952 226.049C131.219 225.212 129.681 222.319 130.518 219.586Z" fill="#777777"/>
<path fill-rule="evenodd" clip-rule="evenodd" d="M326.482 219.586C325.645 216.853 322.752 215.316 320.019 216.152L291.511 224.878C288.778 225.715 287.241 228.609 288.077 231.342C288.914 234.075 291.808 235.612 294.541 234.775L323.048 226.049C325.781 225.212 327.319 222.319 326.482 219.586Z" fill="#777777"/>
<path fill-rule="evenodd" clip-rule="evenodd" d="M132.195 209.608C133.12 206.904 136.062 205.461 138.766 206.385L167.214 216.109C169.918 217.034 171.361 219.976 170.437 222.68C169.512 225.385 166.571 226.828 163.866 225.903L135.419 216.179C132.714 215.255 131.271 212.313 132.195 209.608Z" fill="#777777"/>
<path fill-rule="evenodd" clip-rule="evenodd" d="M324.805 209.608C323.88 206.904 320.938 205.461 318.234 206.385L289.786 216.109C287.082 217.034 285.639 219.976 286.563 222.68C287.488 225.385 290.429 226.828 293.134 225.903L321.581 216.179C324.286 215.255 325.729 212.313 324.805 209.608Z" fill="#777777"/>
<path fill-rule="evenodd" clip-rule="evenodd" d="M160.603 204.321C162.821 202.13 166.395 202.151 168.587 204.369L188.449 224.472C190.641 226.69 190.619 230.264 188.401 232.456C186.183 234.647 182.609 234.626 180.417 232.408L160.555 212.305C158.364 210.087 158.385 206.513 160.603 204.321Z" fill="#777777"/>
<path fill-rule="evenodd" clip-rule="evenodd" d="M296.397 204.321C294.179 202.13 290.605 202.151 288.413 204.369L268.551 224.472C266.359 226.69 266.381 230.264 268.599 232.456C270.817 234.647 274.391 234.626 276.583 232.408L296.445 212.305C298.636 210.087 298.615 206.513 296.397 204.321Z" fill="#777777"/>
<path fill-rule="evenodd" clip-rule="evenodd" d="M186.199 180.073C186.419 178.53 187.849 177.457 189.392 177.678C189.392 177.678 189.392 177.678 189.392 177.678C189.392 177.678 189.414 177.681 189.464 177.683C189.519 177.685 189.594 177.687 189.692 177.685C189.891 177.681 190.149 177.664 190.471 177.631C191.117 177.565 191.933 177.44 192.893 177.258C194.808 176.894 197.169 176.327 199.644 175.636C204.659 174.237 209.819 172.422 212.589 170.93C213.962 170.191 215.674 170.704 216.413 172.077C217.152 173.449 216.639 175.161 215.266 175.901C211.921 177.702 206.261 179.651 201.161 181.074C198.579 181.795 196.058 182.404 193.945 182.805C192.89 183.005 191.906 183.159 191.048 183.247C190.242 183.33 189.359 183.376 188.594 183.267C187.051 183.046 185.978 181.617 186.199 180.073Z" fill="#464747"/>
<path d="M204.772 180.905C200.401 181.498 202.624 189.932 206.051 194.262C206.873 193.851 210.886 193.029 211.395 193.029C212.134 187.058 209.627 180.246 204.772 180.905Z" fill="#505050"/>
<path fill-rule="evenodd" clip-rule="evenodd" d="M198.68 181.149C199.516 178.917 201.393 177.091 204.202 176.709C209.212 176.029 212.454 179.445 213.995 182.642C215.546 185.859 216.049 189.896 215.597 193.549C215.345 195.579 213.683 197.125 211.667 197.254C211.666 197.254 211.664 197.255 211.663 197.255C211.569 197.268 211.419 197.293 211.216 197.33C210.814 197.403 210.291 197.508 209.749 197.627C209.204 197.746 208.679 197.872 208.265 197.984C208.057 198.04 207.906 198.085 207.81 198.116C207.803 198.118 207.796 198.12 207.791 198.122C206.028 198.917 203.94 198.417 202.731 196.89C200.573 194.163 198.861 190.301 198.307 186.854C198.035 185.161 197.959 183.075 198.68 181.149ZM207.742 198.139C207.742 198.139 207.746 198.138 207.755 198.134C207.747 198.138 207.742 198.139 207.742 198.139Z" fill="#464747"/>
<path fill-rule="evenodd" clip-rule="evenodd" d="M240.447 173.582C236.496 173.206 233.447 174.448 232.055 176.209C231.088 177.432 229.313 177.639 228.09 176.672C226.867 175.706 226.66 173.93 227.626 172.707C230.598 168.948 235.852 167.474 240.981 167.962C246.221 168.461 251.837 171.014 256.069 175.997C257.078 177.186 256.933 178.967 255.745 179.976C254.556 180.985 252.775 180.84 251.766 179.652C248.527 175.838 244.287 173.948 240.447 173.582Z" fill="#464747"/>
<path d="M243.414 177.971C239.104 178.462 240.672 185.657 243.548 189.211C244.101 188.957 247.336 188.81 248.401 188.878C249.008 183.618 248.592 177.382 243.414 177.971Z" fill="#505050"/>
<path fill-rule="evenodd" clip-rule="evenodd" d="M237.453 177.487C238.516 175.436 240.456 174.047 242.935 173.765C245.132 173.515 247.277 173.969 249.048 175.334C250.722 176.625 251.621 178.392 252.115 179.959C253.07 182.987 252.926 186.602 252.608 189.364C252.349 191.604 250.381 193.248 248.131 193.104C248.039 193.099 247.774 193.092 247.346 193.1C246.944 193.107 246.482 193.124 246.033 193.151C245.577 193.178 245.182 193.212 244.903 193.246C244.858 193.251 244.82 193.256 244.788 193.261C243.156 193.762 241.354 193.232 240.257 191.876C238.302 189.46 236.861 185.984 236.57 182.832C236.425 181.26 236.52 179.286 237.453 177.487Z" fill="#464747"/>
<path fill-rule="evenodd" clip-rule="evenodd" d="M238.863 210.22C232.368 210.22 224.165 210.98 220.729 211.839C219.216 212.217 217.684 211.298 217.306 209.785C216.928 208.273 217.847 206.74 219.36 206.362C223.451 205.339 232.184 204.574 238.863 204.574C240.422 204.574 241.685 205.838 241.686 207.397C241.686 208.956 240.422 210.22 238.863 210.22Z" fill="#464747"/>
<path d="M137.549 42.053H139.46V60.638H137.549V42.053ZM124.907 49.97C124.907 45.98 126.881 43.481 129.653 43.481C132.404 43.481 134.399 45.98 134.399 49.97C134.399 53.939 132.404 56.48 129.653 56.48C126.881 56.48 124.907 53.939 124.907 49.97ZM126.755 49.97C126.755 52.91 127.952 54.758 129.653 54.758C131.354 54.758 132.551 52.91 132.551 49.97C132.551 47.03 131.354 45.203 129.653 45.203C127.952 45.203 126.755 47.03 126.755 49.97ZM143.345 43.376H151.577V48.899H145.277V51.629C148.574 51.629 150.632 51.545 153.047 51.125L153.194 52.679C150.611 53.12 148.427 53.204 144.815 53.204H143.387V47.429H149.687V44.888H143.345V43.376ZM145.886 60.218V54.674H147.818V58.643H158.465V60.218H145.886ZM152.69 48.437V46.799H156.008V42.095H157.919V55.682H156.008V48.437H152.69ZM163.695 57.257L162.414 61.583H161.049L161.742 57.257H163.695ZM185.633 42.074H187.502V60.596H185.633V50.978H183.365V59.714H181.538V42.557H183.365V49.424H185.633V42.074ZM171.71 55.304C175.826 52.994 177.527 49.823 177.821 46.022H172.466V44.447H179.69C179.69 49.319 178.094 53.687 172.823 56.69L171.71 55.304ZM199.62 45.287H203.505V42.095H205.416V51.608H203.505V46.862H199.62V45.287ZM190.086 50.159C192.942 49.235 194.643 46.925 194.643 44.3V42.662H196.554V44.3C196.554 46.652 198.276 48.899 200.985 49.781L199.998 51.251C197.982 50.558 196.449 49.151 195.651 47.366C194.853 49.361 193.257 50.915 191.094 51.65L190.086 50.159ZM193.425 54.023V52.511H205.416V57.089H195.336V58.853H206.067V60.365H193.446V55.661H203.526V54.023H193.425ZM210.204 43.271H219.024V44.825H212.094V48.059H219.15V49.592H215.58V51.965C217.218 51.902 218.835 51.776 220.368 51.608L220.515 53.015C216.588 53.582 212.262 53.666 208.839 53.666L208.545 52.112C210.12 52.112 211.884 52.091 213.669 52.049V49.592H210.204V43.271ZM211.59 60.218V55.01H213.501V58.643H224.274V60.218H211.59ZM221.775 55.955V42.095H223.686V55.955H221.775ZM240.181 53.624C243.982 53.624 246.313 54.926 246.313 57.11C246.313 59.315 243.982 60.596 240.181 60.596C236.38 60.596 234.049 59.315 234.049 57.11C234.049 54.926 236.38 53.624 240.181 53.624ZM232.411 51.839V43.25H234.322V45.917H239.173V43.25H241.063V51.839H232.411ZM234.322 50.306H239.173V47.429H234.322V50.306ZM235.918 57.11C235.918 58.37 237.514 59.084 240.181 59.084C242.827 59.084 244.402 58.37 244.402 57.11C244.402 55.871 242.827 55.157 240.181 55.157C237.514 55.157 235.918 55.871 235.918 57.11ZM244.192 53.162V42.095H246.124V46.673H248.77V48.269H246.124V53.162H244.192ZM263.303 42.053H265.214V60.638H263.303V42.053ZM250.661 49.97C250.661 45.98 252.635 43.481 255.407 43.481C258.158 43.481 260.153 45.98 260.153 49.97C260.153 53.939 258.158 56.48 255.407 56.48C252.635 56.48 250.661 53.939 250.661 49.97ZM252.509 49.97C252.509 52.91 253.706 54.758 255.407 54.758C257.108 54.758 258.305 52.91 258.305 49.97C258.305 47.03 257.108 45.203 255.407 45.203C253.706 45.203 252.509 47.03 252.509 49.97ZM275.325 52.952H277.131V55.136H280.05V52.952H281.835V60.365H275.325V52.952ZM273.519 47.156C273.519 44.615 275.535 42.872 278.307 42.872C280.743 42.872 282.654 44.258 283.032 46.337H286.623V42.095H288.534V51.881H286.623V47.912H283.053C282.696 50.033 280.785 51.461 278.307 51.461C275.535 51.461 273.519 49.697 273.519 47.156ZM275.367 47.156C275.367 48.773 276.585 49.865 278.307 49.865C280.029 49.865 281.268 48.773 281.268 47.156C281.268 45.56 280.029 44.468 278.307 44.468C276.585 44.468 275.367 45.56 275.367 47.156ZM277.131 58.895H280.05V56.564H277.131V58.895ZM281.94 59.084C284.145 58.16 285.237 56.186 285.237 54.338V52.826H287.127V54.338C287.127 56.291 288.219 58.244 290.445 59.084L289.479 60.533C287.841 59.861 286.749 58.643 286.182 57.173C285.594 58.622 284.502 59.861 282.885 60.533L281.94 59.084ZM296.536 43.481C299.035 43.481 300.883 45.602 301.156 49.067H304.978V42.053H306.889V60.638H304.978V50.6H301.177C300.988 54.212 299.098 56.48 296.536 56.48C293.827 56.48 291.895 53.939 291.895 49.97C291.895 45.98 293.827 43.481 296.536 43.481ZM293.701 49.97C293.701 52.91 294.856 54.758 296.536 54.758C298.237 54.758 299.371 52.91 299.371 49.97C299.371 47.03 298.237 45.203 296.536 45.203C294.856 45.203 293.701 47.03 293.701 49.97ZM309.934 56.69H313.966V51.797C312.454 50.978 311.53 49.655 311.53 47.996C311.53 45.077 314.386 43.187 318.292 43.187C322.261 43.187 325.075 45.077 325.075 47.996C325.075 49.634 324.193 50.936 322.702 51.776V56.69H326.713V58.265H309.934V56.69ZM313.399 47.996C313.399 50.012 315.436 51.293 318.292 51.293C321.169 51.293 323.206 50.012 323.206 47.996C323.206 45.98 321.169 44.699 318.292 44.699C315.436 44.699 313.399 45.98 313.399 47.996ZM315.856 56.69H320.77V52.511C320.014 52.7 319.174 52.784 318.292 52.784C317.431 52.784 316.612 52.7 315.856 52.511V56.69ZM329.906 57.047C330.662 57.047 331.061 57.551 331.061 58.202C331.061 58.874 330.662 59.378 329.906 59.378C329.15 59.378 328.73 58.874 328.73 58.202C328.73 57.551 329.15 57.047 329.906 57.047Z" fill="#C6C6C6"/>
<path d="M105.056 79.968C107.904 79.968 109.648 80.928 109.648 82.56C109.648 84.208 107.904 85.152 105.056 85.152C102.208 85.152 100.464 84.208 100.464 82.56C100.464 80.928 102.208 79.968 105.056 79.968ZM99.264 78.496V72.048H100.448V74.192H104.528V72.048H105.712V78.496H99.264ZM100.448 77.52H104.528V75.152H100.448V77.52ZM101.632 82.56C101.632 83.584 102.944 84.192 105.056 84.192C107.152 84.192 108.448 83.584 108.448 82.56C108.448 81.552 107.152 80.944 105.056 80.944C102.944 80.944 101.632 81.552 101.632 82.56ZM108.304 79.6V71.168H109.504V74.72H111.584V75.728H109.504V79.6H108.304ZM116.936 72.432H123.336V78.896H116.936V72.432ZM118.104 77.904H122.168V73.408H118.104V77.904ZM118.504 84.848V80.448H119.688V83.856H127.816V84.848H118.504ZM125.976 81.424V71.152H127.176V75.44H129.256V76.448H127.176V81.424H125.976ZM130.312 77.072H142.952V78.048H130.312V77.072ZM131.832 80.256V79.312H141.304V82.544H133.048V84.032H141.736V85.008H131.88V81.648H140.136V80.256H131.832ZM132.008 75.888V71.648H141.288V72.64H133.192V74.928H141.448V75.888H132.008ZM154.537 71.168H155.737V85.168H154.537V71.168ZM144.457 81.568C148.233 79.76 150.137 77.024 150.393 73.664H145.081V72.672H151.609C151.609 76.704 149.753 80.256 145.097 82.528L144.457 81.568ZM172.257 71.152H173.441V85.184H172.257V77.376H168.913V81.632H162.513V72.272H163.713V75.936H167.729V72.272H168.913V76.4H172.257V71.152ZM163.713 80.64H167.729V76.896H163.713V80.64ZM175.937 78.944H188.577V79.92H175.937V78.944ZM177.585 84.864V80.976H178.769V83.872H187.249V84.864H177.585ZM177.617 77.6V71.696H187.009V72.64H178.817V74.16H186.641V75.088H178.817V76.656H187.089V77.6H177.617ZM196.241 71.424C199.313 71.424 201.153 72.272 201.153 73.84C201.153 75.408 199.313 76.272 196.241 76.272C193.169 76.272 191.329 75.408 191.329 73.84C191.329 72.272 193.169 71.424 196.241 71.424ZM189.921 78.224V77.248H202.561V78.224H189.921ZM191.457 80.384V79.456H200.929V82.56H192.673V84.064H201.361V85.008H191.505V81.68H199.761V80.384H191.457ZM192.561 73.84C192.561 74.816 193.937 75.36 196.241 75.36C198.545 75.36 199.921 74.816 199.921 73.84C199.921 72.88 198.545 72.32 196.241 72.32C193.937 72.32 192.561 72.88 192.561 73.84ZM207.593 78.608H213.305V77.184H209.273V71.584H218.665V72.544H210.473V73.872H218.297V74.8H210.473V76.24H218.745V77.184H214.505V78.608H220.233V79.584H207.593V78.608ZM209.129 82.912C209.129 81.44 210.857 80.688 213.913 80.688C216.953 80.688 218.697 81.44 218.697 82.912C218.697 84.368 216.953 85.136 213.913 85.136C210.857 85.136 209.129 84.368 209.129 82.912ZM210.329 82.912C210.329 83.776 211.625 84.224 213.913 84.224C216.185 84.224 217.497 83.776 217.497 82.912C217.497 82.064 216.185 81.584 213.913 81.584C211.625 81.584 210.329 82.064 210.329 82.912ZM221.546 73.6H224.442V71.568H225.626V73.6H228.506V74.576H221.546V73.6ZM222.042 78.72C222.042 76.864 223.289 75.552 225.034 75.552C226.778 75.552 228.042 76.864 228.042 78.72C228.042 80.608 226.778 81.904 225.034 81.904C223.289 81.904 222.042 80.608 222.042 78.72ZM223.114 78.72C223.114 79.984 223.914 80.88 225.034 80.88C226.154 80.88 226.97 79.984 226.97 78.72C226.97 77.472 226.154 76.56 225.034 76.56C223.914 76.56 223.114 77.472 223.114 78.72ZM229.242 84.464V71.504H230.378V77.088H232.25V71.168H233.386V85.168H232.25V78.08H230.378V84.464H229.242ZM245.665 79.968C248.513 79.968 250.257 80.928 250.257 82.56C250.257 84.208 248.513 85.152 245.665 85.152C242.817 85.152 241.073 84.208 241.073 82.56C241.073 80.928 242.817 79.968 245.665 79.968ZM239.873 78.496V72.048H241.057V74.192H245.137V72.048H246.321V78.496H239.873ZM241.057 77.52H245.137V75.152H241.057V77.52ZM242.241 82.56C242.241 83.584 243.553 84.192 245.665 84.192C247.761 84.192 249.057 83.584 249.057 82.56C249.057 81.552 247.761 80.944 245.665 80.944C243.553 80.944 242.241 81.552 242.241 82.56ZM248.913 79.6V71.168H250.113V74.72H252.193V75.728H250.113V79.6H248.913ZM259.554 71.424C262.626 71.424 264.466 72.272 264.466 73.84C264.466 75.408 262.626 76.272 259.554 76.272C256.482 76.272 254.642 75.408 254.642 73.84C254.642 72.272 256.482 71.424 259.554 71.424ZM253.234 78.224V77.248H265.874V78.224H253.234ZM254.77 80.384V79.456H264.242V82.56H255.986V84.064H264.674V85.008H254.818V81.68H263.074V80.384H254.77ZM255.874 73.84C255.874 74.816 257.25 75.36 259.554 75.36C261.858 75.36 263.234 74.816 263.234 73.84C263.234 72.88 261.858 72.32 259.554 72.32C257.25 72.32 255.874 72.88 255.874 73.84ZM271.53 72.432H277.93V78.896H271.53V72.432ZM272.698 77.904H276.762V73.408H272.698V77.904ZM273.098 84.848V80.448H274.282V83.856H282.41V84.848H273.098ZM280.57 81.424V71.152H281.77V75.44H283.85V76.448H281.77V81.424H280.57ZM284.906 77.072H297.546V78.048H284.906V77.072ZM286.426 80.256V79.312H295.898V82.544H287.642V84.032H296.33V85.008H286.474V81.648H294.73V80.256H286.426ZM286.602 75.888V71.648H295.882V72.64H287.786V74.928H296.042V75.888H286.602ZM302.586 72.256C304.49 72.256 305.866 73.904 306.042 76.544H309.178V71.152H310.362V85.184H309.178V77.504H306.042C305.93 80.256 304.522 82 302.586 82C300.554 82 299.114 80.096 299.114 77.12C299.114 74.144 300.554 72.256 302.586 72.256ZM300.25 77.12C300.25 79.408 301.21 80.928 302.586 80.928C303.978 80.928 304.922 79.408 304.922 77.12C304.922 74.832 303.978 73.328 302.586 73.328C301.21 73.328 300.25 74.832 300.25 77.12ZM312.859 79.184H325.515V80.176H319.755V85.168H318.571V80.176H312.859V79.184ZM313.627 76.992C316.011 76.64 318.523 75.04 318.523 73.152V73.04H314.059V72.064H324.283V73.04H319.851V73.152C319.851 75.04 322.363 76.64 324.747 76.992L324.283 77.968C322.155 77.6 320.027 76.416 319.195 74.72C318.347 76.416 316.219 77.6 314.091 77.968L313.627 76.992ZM332.347 76.208H334.715V71.488H335.835V84.448H334.715V77.216H332.347V76.208ZM326.683 81.232C328.587 80.112 329.787 77.6 329.787 75.2V72.512H330.939V75.168C330.939 77.392 332.043 79.792 333.883 80.896L333.179 81.824C331.835 81.024 330.875 79.504 330.379 77.808C329.867 79.664 328.827 81.28 327.435 82.128L326.683 81.232ZM337.563 85.168V71.168H338.715V85.168H337.563ZM340.828 82.352H343.98V78.528C342.796 77.92 342.076 76.912 342.076 75.648C342.076 73.472 344.204 72.064 347.148 72.064C350.124 72.064 352.22 73.472 352.22 75.648C352.22 76.896 351.516 77.888 350.364 78.512V82.352H353.516V83.344H340.828V82.352ZM343.244 75.648C343.244 77.232 344.876 78.272 347.148 78.272C349.42 78.272 351.068 77.232 351.068 75.648C351.068 74.064 349.42 73.024 347.148 73.024C344.876 73.024 343.244 74.064 343.244 75.648ZM345.164 82.352H349.164V78.976C348.556 79.136 347.884 79.216 347.148 79.216C346.428 79.216 345.772 79.136 345.164 78.976V82.352ZM355.98 82.608C356.492 82.608 356.764 82.96 356.764 83.392C356.764 83.856 356.492 84.208 355.98 84.208C355.452 84.208 355.164 83.856 355.164 83.392C355.164 82.96 355.452 82.608 355.98 82.608Z" fill="#C6C6C6"/>
</svg>
