<svg width="20" height="22" viewBox="0 2 20 22.5" fill="none" xmlns="http://www.w3.org/2000/svg">
<path d="M18.9633 7.06362C18.6594 6.14776 18.2796 5.30823 17.8239 4.62134C17.3681 3.93445 16.8364 3.32388 16.1527 2.78963C15.7729 2.48435 15.3931 2.17907 14.9374 1.9501C14.4816 1.64482 13.9499 1.41585 13.2662 1.18689C12.5826 0.957927 11.8989 0.805285 11.0634 0.652642C10.2278 0.5 9.24032 0.5 8.10091 0.5H3.92308C2.10002 0.576321 0.580811 2.10274 0.580811 3.93445V15.5353C0.580811 17.367 2.10002 18.8934 3.92308 18.8934H8.40475V20.8014C8.40475 21.2593 8.78456 21.5646 9.24032 21.4883C11.747 21.1067 19.419 19.1987 19.419 10.727C19.419 10.727 19.419 10.2691 19.419 9.96382C19.419 9.04797 19.2671 7.97947 18.9633 7.06362ZM5.82209 10.5744C5.36633 10.5744 4.98653 10.1928 4.98653 9.73486C4.98653 9.27693 5.36633 8.89533 5.82209 8.89533C6.27786 8.89533 6.65766 9.27693 6.65766 9.73486C6.65766 10.1928 6.27786 10.5744 5.82209 10.5744ZM9.99993 10.5744C9.54416 10.5744 9.16436 10.1928 9.16436 9.73486C9.16436 9.27693 9.54416 8.89533 9.99993 8.89533C10.4557 8.89533 10.8355 9.27693 10.8355 9.73486C10.8355 10.1928 10.4557 10.5744 9.99993 10.5744ZM14.1778 10.5744C13.722 10.5744 13.3422 10.1928 13.3422 9.73486C13.3422 9.27693 13.722 8.89533 14.1778 8.89533C14.6335 8.89533 15.0133 9.27693 15.0133 9.73486C15.0133 10.1928 14.6335 10.5744 14.1778 10.5744Z" fill="white"/>
</svg>
