<svg width="current" height="current" viewBox="0 0 41 24" fill="none" xmlns="http://www.w3.org/2000/svg">
<path d="M5.28826 1.18182L10.5617 17.7585H10.7641L16.0482 1.18182H21.1618L13.6405 23H7.69593L0.163974 1.18182H5.28826ZM35.6238 7.45668C35.5386 6.5973 35.1729 5.92969 34.5265 5.45383C33.8802 4.97798 33.0031 4.74006 31.8952 4.74006C31.1423 4.74006 30.5067 4.84659 29.9882 5.05966C29.4697 5.26562 29.072 5.55327 28.795 5.92258C28.5251 6.2919 28.3902 6.71094 28.3902 7.17969C28.376 7.57031 28.4577 7.91122 28.6352 8.20241C28.8199 8.49361 29.072 8.74574 29.3916 8.95881C29.7112 9.16477 30.0805 9.34588 30.4996 9.50213C30.9186 9.65128 31.366 9.77912 31.8419 9.88565L33.8021 10.3544C34.7538 10.5675 35.6274 10.8516 36.4229 11.2067C37.2183 11.5618 37.9072 11.9986 38.4896 12.517C39.072 13.0355 39.523 13.6463 39.8426 14.3494C40.1693 15.0526 40.3362 15.8587 40.3433 16.7678C40.3362 18.103 39.9953 19.2607 39.3206 20.2408C38.653 21.2138 37.6871 21.9702 36.4229 22.5099C35.1657 23.0426 33.6494 23.3089 31.8738 23.3089C30.1125 23.3089 28.5784 23.0391 27.2716 22.4993C25.9719 21.9595 24.9562 21.1605 24.2247 20.1023C23.5003 19.0369 23.1203 17.7195 23.0848 16.1499H27.5486C27.5983 16.8814 27.8078 17.4922 28.1771 17.9822C28.5535 18.4652 29.0542 18.831 29.6792 19.0795C30.3113 19.321 31.0251 19.4418 31.8206 19.4418C32.6018 19.4418 33.2801 19.3281 33.8554 19.1009C34.4378 18.8736 34.8888 18.5575 35.2084 18.1527C35.528 17.7479 35.6878 17.2827 35.6878 16.7571C35.6878 16.267 35.5422 15.8551 35.251 15.5213C34.9669 15.1875 34.5479 14.9034 33.9939 14.669C33.447 14.4347 32.7758 14.2216 31.9804 14.0298L29.6047 13.4332C27.7652 12.9858 26.3128 12.2862 25.2474 11.3345C24.1821 10.3828 23.653 9.10085 23.6601 7.48864C23.653 6.16761 24.0045 5.01349 24.7148 4.02628C25.4321 3.03906 26.4157 2.26847 27.6657 1.71449C28.9157 1.16051 30.3362 0.883522 31.9271 0.883522C33.5464 0.883522 34.9598 1.16051 36.1672 1.71449C37.3817 2.26847 38.3263 3.03906 39.001 4.02628C39.6757 5.01349 40.0237 6.15696 40.045 7.45668H35.6238Z" fill="white"/>
<path d="M5.28826 1.18182L6.24121 0.878664L6.01952 0.181818H5.28826V1.18182ZM10.5617 17.7585L9.60876 18.0617L9.83044 18.7585H10.5617V17.7585ZM10.7641 17.7585V18.7585H11.4949L11.7169 18.0622L10.7641 17.7585ZM16.0482 1.18182V0.181818H15.3174L15.0954 0.878108L16.0482 1.18182ZM21.1618 1.18182L22.1072 1.50772L22.5643 0.181818H21.1618V1.18182ZM13.6405 23V24H14.3536L14.5859 23.3259L13.6405 23ZM7.69593 23L6.75067 23.3263L6.98324 24H7.69593V23ZM0.163974 1.18182V0.181818H-1.23915L-0.781286 1.50814L0.163974 1.18182ZM4.33532 1.48497L9.60876 18.0617L11.5146 17.4554L6.24121 0.878664L4.33532 1.48497ZM10.5617 18.7585H10.7641V16.7585H10.5617V18.7585ZM11.7169 18.0622L17.001 1.48553L15.0954 0.878108L9.81135 17.4548L11.7169 18.0622ZM16.0482 2.18182H21.1618V0.181818H16.0482V2.18182ZM20.2164 0.855912L12.6951 22.6741L14.5859 23.3259L22.1072 1.50772L20.2164 0.855912ZM13.6405 22H7.69593V24H13.6405V22ZM8.64119 22.6737L1.10923 0.8555L-0.781286 1.50814L6.75067 23.3263L8.64119 22.6737ZM0.163974 2.18182H5.28826V0.181818H0.163974V2.18182ZM35.6238 7.45668L34.6287 7.55537L34.7181 8.45668H35.6238V7.45668ZM29.9882 5.05966L30.3574 5.98908L30.3683 5.9846L29.9882 5.05966ZM28.795 5.92258L27.9949 5.32254L27.9876 5.33257L28.795 5.92258ZM28.3902 7.17969L29.3895 7.21603L29.3902 7.19786V7.17969H28.3902ZM28.6352 8.20241L27.7814 8.72302L27.786 8.73053L27.7907 8.73796L28.6352 8.20241ZM29.3916 8.95881L28.8369 9.79086L28.8434 9.79517L28.8499 9.79938L29.3916 8.95881ZM30.4996 9.50213L30.1502 10.4391L30.1572 10.4417L30.1642 10.4442L30.4996 9.50213ZM31.8419 9.88565L32.0745 8.91307L32.0674 8.91139L32.0604 8.90981L31.8419 9.88565ZM33.8021 10.3544L33.5695 11.327L33.5766 11.3287L33.5836 11.3302L33.8021 10.3544ZM36.4229 11.2067L36.0152 12.1198L36.0152 12.1198L36.4229 11.2067ZM38.4896 12.517L39.1545 11.7701L39.1545 11.7701L38.4896 12.517ZM39.8426 14.3494L38.9322 14.7632L38.9357 14.7708L39.8426 14.3494ZM40.3433 16.7678L41.3434 16.7731L41.3433 16.7599L40.3433 16.7678ZM39.3206 20.2408L38.4969 19.6737L38.496 19.675L39.3206 20.2408ZM36.4229 22.5099L36.813 23.4307L36.8155 23.4296L36.4229 22.5099ZM27.2716 22.4993L26.888 23.4228L26.8898 23.4236L27.2716 22.4993ZM24.2247 20.1023L23.3977 20.6646L23.4021 20.6709L24.2247 20.1023ZM23.0848 16.1499V15.1499H22.0619L22.085 16.1725L23.0848 16.1499ZM27.5486 16.1499L28.5463 16.0821L28.4829 15.1499H27.5486V16.1499ZM28.1771 17.9822L27.3785 18.5841L27.3834 18.5906L27.3884 18.597L28.1771 17.9822ZM29.6792 19.0795L29.3096 20.0088L29.3224 20.0137L29.6792 19.0795ZM33.8554 19.1009L33.4918 18.1693L33.488 18.1708L33.8554 19.1009ZM35.2084 18.1527L35.9932 18.7723L35.9932 18.7723L35.2084 18.1527ZM35.251 15.5213L34.4894 16.1695L34.4974 16.1787L35.251 15.5213ZM33.9939 14.669L33.6 15.5882L33.6042 15.59L33.9939 14.669ZM31.9804 14.0298L31.7368 14.9998L31.746 15.002L31.9804 14.0298ZM29.6047 13.4332L29.8482 12.4633L29.841 12.4616L29.6047 13.4332ZM25.2474 11.3345L24.5812 12.0803L24.5812 12.0803L25.2474 11.3345ZM23.6601 7.48864L24.6601 7.49304L24.6601 7.48326L23.6601 7.48864ZM24.7148 4.02628L23.9058 3.43845L23.903 3.44228L24.7148 4.02628ZM36.1672 1.71449L35.7501 2.62339L35.7522 2.62431L36.1672 1.71449ZM39.001 4.02628L38.1754 4.59054L38.1754 4.59054L39.001 4.02628ZM40.045 7.45668V8.45668H41.0615L41.0449 7.44028L40.045 7.45668ZM36.619 7.35799C36.5082 6.24083 36.0126 5.30618 35.1194 4.64856L33.9336 6.25911C34.3331 6.55319 34.5691 6.95377 34.6287 7.55537L36.619 7.35799ZM35.1194 4.64856C34.2468 4.00608 33.137 3.74006 31.8952 3.74006V5.74006C32.8692 5.74006 33.5137 5.94989 33.9336 6.25911L35.1194 4.64856ZM31.8952 3.74006C31.0541 3.74006 30.2808 3.85825 29.6081 4.13472L30.3683 5.9846C30.7325 5.83493 31.2305 5.74006 31.8952 5.74006V3.74006ZM29.619 4.13031C28.9652 4.39005 28.4036 4.77783 27.995 5.32258L29.595 6.52259C29.7404 6.3287 29.9743 6.1412 30.3574 5.98901L29.619 4.13031ZM27.9876 5.33257C27.5893 5.87765 27.3902 6.50445 27.3902 7.17969H29.3902C29.3902 6.91743 29.461 6.70616 29.6024 6.5126L27.9876 5.33257ZM27.3908 7.14335C27.3706 7.70045 27.4875 8.24097 27.7814 8.72302L29.489 7.68181C29.4278 7.58147 29.3814 7.44018 29.3895 7.21603L27.3908 7.14335ZM27.7907 8.73796C28.0583 9.15994 28.4143 9.50916 28.8369 9.79086L29.9463 8.12676C29.7296 7.98232 29.5814 7.82727 29.4797 7.66687L27.7907 8.73796ZM28.8499 9.79938C29.2394 10.0504 29.6752 10.262 30.1502 10.4391L30.8489 8.56515C30.4858 8.42976 30.183 8.27914 29.9333 8.11824L28.8499 9.79938ZM30.1642 10.4442C30.6249 10.6082 31.1117 10.7469 31.6234 10.8615L32.0604 8.90981C31.6204 8.81131 31.2122 8.69434 30.8349 8.56003L30.1642 10.4442ZM31.6093 10.8582L33.5695 11.327L34.0347 9.38182L32.0745 8.91307L31.6093 10.8582ZM33.5836 11.3302C34.4779 11.5305 35.2873 11.7948 36.0152 12.1198L36.8305 10.2935C35.9675 9.90828 35.0297 9.60448 34.0206 9.37856L33.5836 11.3302ZM36.0152 12.1198C36.7277 12.4379 37.3274 12.8213 37.8247 13.264L39.1545 11.7701C38.487 11.1759 37.7089 10.6857 36.8305 10.2935L36.0152 12.1198ZM37.8247 13.264C38.304 13.6906 38.6709 14.1883 38.9322 14.7632L40.753 13.9356C40.3751 13.1043 39.84 12.3804 39.1545 11.7701L37.8247 13.264ZM38.9357 14.7708C39.1927 15.3239 39.3372 15.985 39.3433 16.7756L41.3433 16.7599C41.3352 15.7324 41.1459 14.7813 40.7495 13.9281L38.9357 14.7708ZM39.3433 16.7624C39.3372 17.9224 39.0442 18.8787 38.4969 19.6737L40.1443 20.8078C40.9464 19.6426 41.3353 18.2835 41.3433 16.7731L39.3433 16.7624ZM38.496 19.675C37.9526 20.467 37.1491 21.1125 36.0302 21.5903L36.8155 23.4296C38.225 22.8278 39.3534 21.9605 40.1451 20.8065L38.496 19.675ZM36.0327 21.5892C34.9301 22.0564 33.5538 22.3089 31.8738 22.3089V24.3089C33.745 24.3089 35.4014 24.0288 36.813 23.4307L36.0327 21.5892ZM31.8738 22.3089C30.2124 22.3089 28.8133 22.0541 27.6533 21.575L26.8898 23.4236C28.3435 24.024 30.0126 24.3089 31.8738 24.3089V22.3089ZM27.6551 21.5758C26.5155 21.1025 25.6594 20.4191 25.0473 19.5336L23.4021 20.6709C24.2531 21.9019 25.4282 22.8166 26.888 23.4228L27.6551 21.5758ZM25.0516 19.54C24.4573 18.6659 24.1166 17.5465 24.0845 16.1272L22.085 16.1725C22.124 17.8924 22.5433 19.408 23.3978 20.6646L25.0516 19.54ZM23.0848 17.1499H27.5486V15.1499H23.0848V17.1499ZM26.5509 16.2177C26.6111 17.1045 26.8713 17.9111 27.3785 18.5841L28.9757 17.3804C28.7443 17.0733 28.5854 16.6583 28.5463 16.0821L26.5509 16.2177ZM27.3884 18.597C27.8847 19.2337 28.5362 19.7011 29.3097 20.0087L30.0488 18.1503C29.5723 17.9608 29.2224 17.6967 28.9658 17.3675L27.3884 18.597ZM29.3224 20.0137C30.0865 20.3056 30.9241 20.4418 31.8206 20.4418V18.4418C31.1261 18.4418 30.5362 18.3364 30.0361 18.1454L29.3224 20.0137ZM31.8206 20.4418C32.6958 20.4418 33.5042 20.3148 34.2228 20.0309L33.488 18.1708C33.056 18.3415 32.5078 18.4418 31.8206 18.4418V20.4418ZM34.2189 20.0324C34.9319 19.7542 35.5422 19.3436 35.9932 18.7723L34.4235 17.5331C34.2353 17.7714 33.9436 17.993 33.4918 18.1693L34.2189 20.0324ZM35.9932 18.7723C36.455 18.1874 36.6878 17.5029 36.6878 16.7571H34.6878C34.6878 17.0624 34.6009 17.3083 34.4235 17.5331L35.9932 18.7723ZM36.6878 16.7571C36.6878 16.053 36.4719 15.3997 36.0045 14.8639L34.4974 16.1787C34.6125 16.3106 34.6878 16.4811 34.6878 16.7571H36.6878ZM36.0125 14.8732C35.597 14.3849 35.0304 14.0218 34.3835 13.7481L33.6042 15.59C34.0653 15.7851 34.3368 15.9901 34.4894 16.1694L36.0125 14.8732ZM34.3878 13.7499C33.7742 13.4869 33.0461 13.2581 32.2147 13.0577L31.746 15.002C32.5056 15.1851 33.1198 15.3824 33.6 15.5882L34.3878 13.7499ZM32.2239 13.0599L29.8482 12.4634L29.3611 14.4031L31.7368 14.9997L32.2239 13.0599ZM29.841 12.4616C28.1112 12.0408 26.8231 11.4012 25.9136 10.5888L24.5812 12.0803C25.8025 13.1713 27.4192 13.9308 29.3683 14.4049L29.841 12.4616ZM25.9136 10.5888C25.0906 9.85348 24.654 8.85991 24.6601 7.49304L22.6601 7.48423C22.6519 9.3418 23.2736 10.9121 24.5812 12.0803L25.9136 10.5888ZM24.6601 7.48326C24.654 6.35441 24.9505 5.41088 25.5265 4.61028L23.903 3.44228C23.0585 4.61611 22.6519 5.98082 22.6601 7.49401L24.6601 7.48326ZM25.5237 4.6141C26.1255 3.78592 26.9621 3.12014 28.0709 2.62873L27.2606 0.800249C25.8694 1.4168 24.7387 2.29221 23.9058 3.43845L25.5237 4.6141ZM28.0709 2.62873C29.1741 2.1398 30.4531 1.88352 31.9271 1.88352V-0.116478C30.2193 -0.116478 28.6574 0.181222 27.2606 0.800249L28.0709 2.62873ZM31.9271 1.88352C33.4334 1.88352 34.699 2.1411 35.7501 2.62338L36.5842 0.805592C35.2206 0.179924 33.6595 -0.116478 31.9271 -0.116478V1.88352ZM35.7522 2.62431C36.8207 3.1117 37.6151 3.77078 38.1754 4.59054L39.8266 3.46202C39.0374 2.30734 37.9426 1.42524 36.5822 0.804669L35.7522 2.62431ZM38.1754 4.59054C38.73 5.40203 39.0268 6.3513 39.0451 7.47307L41.0449 7.44028C41.0207 5.96262 40.6214 4.62495 39.8266 3.46202L38.1754 4.59054ZM40.045 6.45668H35.6238V8.45668H40.045V6.45668Z" fill="#464747"/>
</svg>
