<svg width="current" height="current" viewBox="0 0 65 57" fill="none" xmlns="http://www.w3.org/2000/svg">
<path d="M37.5 18.5V15C37.5 14.45 37.05 14 36.5 14H24.5C23.95 14 23.5 14.45 23.5 15V25C23.5 25.55 23.95 26 24.5 26H36.5C37.05 26 37.5 25.55 37.5 25V21.5L41.5 25.5V14.5L37.5 18.5Z" fill="#C6C6C6"/>
<path d="M9.366 42.702H10.64V55.092H9.366V42.702ZM1.19 52.124V43.752H2.464V46.944H5.81V43.752H7.07V52.124H1.19ZM2.464 51.088H5.81V47.952H2.464V51.088ZM21.6023 42.716H22.8763V55.092H21.6023V42.716ZM13.5383 52.054V43.878H19.4043V44.942H14.7983V50.976C17.1363 50.976 18.6483 50.906 20.3843 50.57L20.5103 51.648C18.6763 51.998 17.0803 52.054 14.5463 52.054H13.5383ZM30.5627 43.486C33.1947 43.486 35.0847 44.774 35.0847 46.748C35.0847 48.582 33.5027 49.8 31.2067 49.996V52.46H36.1767V53.51H24.9907V52.46H29.9327V49.996C27.6507 49.814 26.0547 48.582 26.0547 46.748C26.0547 44.774 27.9587 43.486 30.5627 43.486ZM27.3007 46.748C27.3007 48.12 28.6727 49.016 30.5627 49.016C32.4667 49.016 33.8387 48.12 33.8387 46.748C33.8387 45.376 32.4667 44.494 30.5627 44.494C28.6727 44.494 27.3007 45.376 27.3007 46.748ZM41.3075 44.032H45.3675V44.564C45.3675 45.684 45.3815 47.672 44.5275 50.934L43.2535 50.724C44.0095 48.134 44.1075 46.244 44.1215 45.054H41.3075V44.032ZM40.4535 53.258V52.194H51.6115V53.258H40.4535ZM46.2355 45.054V44.032H50.3935V44.942C50.3935 46.286 50.3935 48.134 49.8475 50.92L48.5735 50.78C49.0915 48.204 49.1055 46.37 49.1055 45.054H46.2355ZM61.5659 42.716H62.8539V55.064H61.5659V42.716ZM52.8019 51.802C56.0779 50.22 57.6599 47.966 57.9119 45.068H53.3899V44.032H59.1999C59.1999 47.658 57.6739 50.78 53.4739 52.81L52.8019 51.802Z" fill="#C6C6C6"/>
</svg>
