<svg width="current" height="current" viewBox="0 0 65 57" fill="none" xmlns="http://www.w3.org/2000/svg">
<path d="M41.5 14.5L37.5 18.5V15C37.5 14.45 37.05 14 36.5 14H30.32L41.5 25.18V14.5ZM23.77 10L22.5 11.27L25.23 14H24.5C23.95 14 23.5 14.45 23.5 15V25C23.5 25.55 23.95 26 24.5 26H36.5C36.71 26 36.89 25.92 37.04 25.82L40.23 29L41.5 27.73L23.77 10Z" fill="#C6C6C6"/>
<path d="M9.366 42.702H10.64V55.092H9.366V42.702ZM1.19 52.124V43.752H2.464V46.944H5.81V43.752H7.07V52.124H1.19ZM2.464 51.088H5.81V47.952H2.464V51.088ZM21.6023 42.716H22.8763V55.092H21.6023V42.716ZM13.5383 52.054V43.878H19.4043V44.942H14.7983V50.976C17.1363 50.976 18.6483 50.906 20.3843 50.57L20.5103 51.648C18.6763 51.998 17.0803 52.054 14.5463 52.054H13.5383ZM30.5627 43.486C33.1947 43.486 35.0847 44.774 35.0847 46.748C35.0847 48.582 33.5027 49.8 31.2067 49.996V52.46H36.1767V53.51H24.9907V52.46H29.9327V49.996C27.6507 49.814 26.0547 48.582 26.0547 46.748C26.0547 44.774 27.9587 43.486 30.5627 43.486ZM27.3007 46.748C27.3007 48.12 28.6727 49.016 30.5627 49.016C32.4667 49.016 33.8387 48.12 33.8387 46.748C33.8387 45.376 32.4667 44.494 30.5627 44.494C28.6727 44.494 27.3007 45.376 27.3007 46.748ZM43.6315 43.766H44.9195V45.866C44.9195 48.134 46.2775 50.416 48.1535 51.27L47.3975 52.292C45.9835 51.606 44.8775 50.206 44.3035 48.498C43.7295 50.318 42.5955 51.816 41.1255 52.53L40.3555 51.48C42.2595 50.598 43.6315 48.232 43.6315 45.866V43.766ZM49.2875 55.092V42.702H50.5615V55.092H49.2875ZM52.9839 43.556H59.6059V44.592H56.9459V44.928C56.9459 46.538 58.0659 48.036 59.9139 48.666L59.2559 49.674C57.8839 49.198 56.8619 48.218 56.3299 47C55.7979 48.33 54.7199 49.38 53.2919 49.898L52.6059 48.904C54.5239 48.246 55.6719 46.65 55.6719 44.942V44.592H52.9839V43.556ZM54.2439 51.83V50.794H62.3079V55.078H61.0199V51.83H54.2439ZM61.0199 50.15V42.73H62.3079V45.922H64.0859V46.986H62.3079V50.15H61.0199Z" fill="#C6C6C6"/>
</svg>
