<svg width="60" height="60" viewBox="0 0 60 60" fill="none" xmlns="http://www.w3.org/2000/svg">
<path d="M28.5746 30.748C28.5746 27.472 29.7186 25.86 31.3566 24.638C32.6306 23.676 33.6186 23.104 33.6186 21.882C33.6186 19.932 32.2666 18.814 30.2906 18.814C28.9906 18.814 27.8726 19.62 27.4046 21.388L24.2846 20.608C25.0646 17.488 27.7686 15.59 30.2906 15.59C33.6446 15.59 36.8426 18.19 36.8426 21.882C36.8426 24.118 34.5286 26.302 33.2806 27.238C32.1626 28.07 31.7986 28.59 31.7986 30.748H28.5746ZM28.4186 34.96C28.4186 33.998 29.0426 33.218 30.1866 33.218C31.3306 33.218 31.9286 33.998 31.9286 34.96C31.9286 35.948 31.3306 36.728 30.1866 36.728C29.0426 36.728 28.4186 35.948 28.4186 34.96Z" fill="black"/>
<path d="M28.5746 30.748H26.5746V32.748H28.5746V30.748ZM31.3566 24.638L32.5526 26.2411L32.5618 26.2341L31.3566 24.638ZM27.4046 21.388L26.9196 23.3283L28.8333 23.8067L29.338 21.8998L27.4046 21.388ZM24.2846 20.608L22.3443 20.1229L21.8593 22.0632L23.7996 22.5483L24.2846 20.608ZM33.2806 27.238L34.4747 28.8425L34.4806 28.838L33.2806 27.238ZM31.7986 30.748V32.748H33.7986V30.748H31.7986ZM30.5746 30.748C30.5746 29.3448 30.8186 28.4499 31.1342 27.8292C31.4464 27.2151 31.9002 26.7277 32.5526 26.241L30.1607 23.035C29.1751 23.7703 28.2379 24.6999 27.5686 26.0163C26.9027 27.3261 26.5746 28.8752 26.5746 30.748H30.5746ZM32.5618 26.2341C33.0654 25.8539 33.8501 25.3141 34.3963 24.7548C35.0587 24.0765 35.6186 23.1525 35.6186 21.882H31.6186C31.6186 21.9024 31.618 21.8771 31.6328 21.8453C31.6415 21.8268 31.6304 21.8619 31.5345 21.9602C31.4324 22.0647 31.2794 22.1958 31.032 22.3851C30.9111 22.4776 30.7807 22.5744 30.6308 22.6852C30.4846 22.7932 30.3206 22.9142 30.1514 23.0419L32.5618 26.2341ZM35.6186 21.882C35.6186 20.4173 35.094 19.0786 34.029 18.126C32.9925 17.1989 31.6435 16.814 30.2906 16.814V20.814C30.9138 20.814 31.2288 20.9881 31.3623 21.1074C31.4673 21.2013 31.6186 21.3967 31.6186 21.882H35.6186ZM30.2906 16.814C29.2089 16.814 28.1367 17.1575 27.2455 17.9097C26.3665 18.6517 25.7862 19.6862 25.4712 20.8762L29.338 21.8998C29.491 21.3218 29.7037 21.0693 29.8257 20.9663C29.9356 20.8735 30.0724 20.814 30.2906 20.814V16.814ZM27.8897 19.4477L24.7697 18.6677L23.7996 22.5483L26.9196 23.3283L27.8897 19.4477ZM26.2249 21.0931C26.7891 18.8364 28.7139 17.59 30.2906 17.59V13.59C26.8234 13.59 23.3402 16.1396 22.3443 20.1229L26.2249 21.0931ZM30.2906 17.59C32.7174 17.59 34.8426 19.464 34.8426 21.882H38.8426C38.8426 16.916 34.5718 13.59 30.2906 13.59V17.59ZM34.8426 21.882C34.8426 22.3428 34.5802 23.0121 33.9521 23.8181C33.3548 24.5845 32.6053 25.2445 32.0806 25.638L34.4806 28.838C35.204 28.2955 36.2355 27.3955 37.1072 26.2769C37.948 25.1979 38.8426 23.6572 38.8426 21.882H34.8426ZM32.0866 25.6335C31.4746 26.089 30.7534 26.6775 30.3021 27.6628C29.8815 28.581 29.7986 29.6191 29.7986 30.748H33.7986C33.7986 29.7189 33.8978 29.418 33.9387 29.3287C33.9488 29.3065 33.9686 29.219 34.4747 28.8425L32.0866 25.6335ZM31.7986 28.748H28.5746V32.748H31.7986V28.748ZM30.4186 34.96C30.4186 34.9073 30.4319 34.9916 30.3248 35.1046C30.2735 35.1586 30.2171 35.1931 30.1735 35.2107C30.132 35.2273 30.1292 35.218 30.1866 35.218V31.218C29.1369 31.218 28.1454 31.5897 27.4225 32.3519C26.7174 33.0954 26.4186 34.0507 26.4186 34.96H30.4186ZM30.1866 35.218C30.2441 35.218 30.2367 35.2273 30.1885 35.2078C30.1376 35.1871 30.0754 35.1477 30.0205 35.0886C29.9081 34.9675 29.9286 34.8848 29.9286 34.96H33.9286C33.9286 34.0732 33.6501 33.1195 32.9528 32.3679C32.233 31.5922 31.2389 31.218 30.1866 31.218V35.218ZM29.9286 34.96C29.9286 35.0606 29.9008 34.9845 30.0136 34.8617C30.0688 34.8015 30.1325 34.7607 30.1855 34.739C30.2355 34.7186 30.2442 34.728 30.1866 34.728V38.728C31.2395 38.728 32.238 38.3531 32.9597 37.5673C33.6575 36.8075 33.9286 35.8474 33.9286 34.96H29.9286ZM30.1866 34.728C30.1291 34.728 30.1332 34.7186 30.1765 34.7361C30.2222 34.7546 30.28 34.7905 30.3318 34.8456C30.4397 34.9606 30.4186 35.0385 30.4186 34.96H26.4186C26.4186 35.8695 26.7095 36.8314 27.4155 37.5834C28.1404 38.3556 29.1364 38.728 30.1866 38.728V34.728Z" fill="#919191"/>
</svg>
