<svg width="698" height="707" viewBox="0 0 698 735" fill="none" xmlns="http://www.w3.org/2000/svg">
<g filter="url(#filter0_f_497_4134)">
<ellipse cx="349" cy="353.5" rx="109" ry="113.5" fill="#3D1B1B" fill-opacity="0.4"/>
</g>
<path d="M461.394 430.105C460.993 431.925 459.693 433.439 457.915 434.149L453.23 436.031C452.81 436.19 452.465 436.491 452.258 436.877L449.848 441.185C448.315 443.932 444.772 444.955 441.936 443.471C441.3 443.139 440.734 442.695 440.265 442.164L436.98 438.42C436.688 438.095 436.29 437.874 435.852 437.799L430.876 436.896C428.976 436.576 427.37 435.353 426.6 433.641C425.815 431.943 425.946 429.98 426.949 428.393L429.613 424.216C429.846 423.852 429.943 423.419 429.885 422.993L429.204 418.121C428.777 415.035 431.015 412.197 434.205 411.783C434.924 411.689 435.653 411.727 436.358 411.894L441.295 413.041C441.725 413.14 442.179 413.093 442.578 412.91L447.165 410.784C450.071 409.443 453.548 410.636 454.933 413.448C455.242 414.076 455.429 414.756 455.485 415.449L455.893 420.341C455.915 420.773 456.102 421.183 456.418 421.488L459.917 425.044C461.234 426.396 461.785 428.284 461.394 430.105Z" fill="#EFFE37"/>
<path d="M243.369 256.447C242.888 257.549 241.899 258.341 240.726 258.559L238.13 259.039C238.031 259.055 237.94 259.105 237.877 259.183L236.167 261.215C234.877 262.75 232.6 262.938 231.083 261.631C230.743 261.339 230.46 260.987 230.248 260.591L228.982 258.239C228.932 258.151 228.853 258.083 228.76 258.047L226.323 257.023C224.481 256.255 223.605 254.125 224.362 252.263C224.532 251.845 224.78 251.461 225.088 251.135L226.909 249.198C226.978 249.124 227.023 249.028 227.035 248.926L227.225 246.27C227.324 245.07 227.999 243.994 229.029 243.39C230.058 242.79 231.314 242.742 232.385 243.262L234.775 244.414C234.864 244.456 234.965 244.468 235.059 244.446L237.623 243.822C239.564 243.348 241.515 244.556 241.984 246.516C242.087 246.948 242.11 247.396 242.055 247.838L241.707 250.495C241.687 250.595 241.711 250.699 241.77 250.783L243.147 253.055C243.778 254.077 243.861 255.351 243.369 256.447Z" fill="#14B5FF"/>
<path d="M212.784 298.68C216.53 298.68 219.567 295.642 219.567 291.896C219.567 288.149 216.53 285.112 212.784 285.112C209.037 285.112 206 288.149 206 291.896C206 295.642 209.037 298.68 212.784 298.68Z" fill="#EFFE37"/>
<path d="M259.891 481.839C263.43 481.839 266.298 478.971 266.298 475.432C266.298 471.894 263.43 469.025 259.891 469.025C256.353 469.025 253.484 471.894 253.484 475.432C253.484 478.971 256.353 481.839 259.891 481.839Z" fill="#EFFE37"/>
<path d="M397.449 454.704C402.028 454.704 405.74 450.992 405.74 446.413C405.74 441.834 402.028 438.122 397.449 438.122C392.87 438.122 389.158 441.834 389.158 446.413C389.158 450.992 392.87 454.704 397.449 454.704Z" fill="#FF90E3"/>
<path d="M222.582 438.122C227.161 438.122 230.873 434.41 230.873 429.831C230.873 425.252 227.161 421.54 222.582 421.54C218.003 421.54 214.291 425.252 214.291 429.831C214.291 434.41 218.003 438.122 222.582 438.122Z" fill="#7A48DE"/>
<path d="M237.14 316.769C238.675 316.769 239.918 315.526 239.918 313.991C239.918 313.255 239.626 312.55 239.105 312.03L226.604 299.529C225.538 298.424 223.781 298.393 222.677 299.459C221.573 300.525 221.542 302.282 222.608 303.387C222.629 303.411 222.653 303.432 222.677 303.456L235.178 315.957C235.699 316.478 236.404 316.773 237.143 316.769H237.14Z" fill="#FF90E3"/>
<path d="M473.791 454.641L486.361 441.544C487.432 440.387 487.401 438.546 486.291 437.429C485.208 436.341 483.491 436.341 482.408 437.429L469.839 450.526C468.767 451.683 468.798 453.524 469.908 454.641C470.991 455.729 472.709 455.729 473.791 454.641Z" fill="#7A48DE"/>
<path d="M464.598 322.738C465.686 323.826 467.453 323.826 468.54 322.738L481.087 310.188C482.157 309.08 482.125 307.316 481.017 306.246C479.937 305.203 478.222 305.203 477.141 306.246L464.595 318.795C463.507 319.883 463.507 321.65 464.595 322.738H464.598Z" fill="#7A48DE"/>
<path d="M437.103 238.448C436.41 237.042 434.73 236.473 433.348 237.174L419.349 244.294C417.966 244.998 417.406 246.707 418.096 248.113C418.785 249.519 420.469 250.089 421.851 249.388L435.85 242.268C437.232 241.563 437.792 239.855 437.103 238.448Z" fill="#7A48DE"/>
<path d="M425.548 475.805C427.1 475.805 428.357 474.584 428.353 473.08C428.353 472.631 428.237 472.189 428.016 471.794L423.101 462.948C422.381 461.615 420.685 461.101 419.309 461.799C417.932 462.496 417.402 464.139 418.122 465.473C418.133 465.493 418.143 465.51 418.154 465.531L423.069 474.376C423.561 475.257 424.512 475.808 425.544 475.808L425.548 475.805Z" fill="#14B5FF"/>
<path d="M409.26 328.446C413.107 323.033 412.202 318.106 411.475 314.15C410.805 310.496 410.275 307.614 412.742 304.14C415.21 300.666 418.099 300.23 421.76 299.674C425.726 299.072 430.669 298.322 434.512 292.905C438.356 287.489 437.457 282.565 436.731 278.605C436.06 274.952 435.53 272.062 437.998 268.588C440.465 265.115 443.365 264.668 447.029 264.108C450.999 263.503 455.938 262.746 459.789 257.326C463.639 251.906 462.734 246.978 462.011 243.019C461.34 239.362 460.814 236.476 463.281 232.998C464.162 231.717 463.843 229.964 462.565 229.081C461.316 228.215 459.606 228.504 458.707 229.732C454.86 235.149 455.762 240.076 456.486 244.036C457.156 247.693 457.686 250.579 455.215 254.06C452.744 257.537 449.851 257.984 446.183 258.54C442.213 259.145 437.275 259.902 433.424 265.319C429.573 270.735 430.479 275.663 431.206 279.619C431.876 283.272 432.406 286.158 429.938 289.632C427.471 293.106 424.582 293.542 420.917 294.099C416.951 294.7 412.012 295.45 408.169 300.863C404.325 306.276 405.227 311.204 405.954 315.163C406.624 318.817 407.154 321.699 404.69 325.173C402.226 328.647 399.33 329.083 395.669 329.643C391.703 330.245 386.76 330.998 382.917 336.411C382.001 337.668 382.274 339.427 383.527 340.346C384.781 341.265 386.536 340.99 387.452 339.734C387.466 339.716 387.48 339.698 387.49 339.677C389.958 336.207 392.85 335.767 396.511 335.207C400.478 334.606 405.417 333.856 409.26 328.439V328.446Z" fill="#FF90E3"/>
<path d="M282.825 285.87C283.545 287.238 285.251 287.768 286.636 287.06C288.021 286.348 288.557 284.663 287.84 283.295C284.955 277.812 280.214 276.65 276.403 275.722C273.012 274.891 270.331 274.235 268.622 270.99C266.912 267.744 267.908 265.2 269.169 261.979C270.586 258.364 272.348 253.862 269.462 248.38C266.577 242.898 261.836 241.743 258.029 240.811C254.638 239.984 251.957 239.328 250.251 236.086C248.548 232.847 249.545 230.307 250.805 227.093C252.225 223.481 253.988 218.983 251.106 213.504C250.385 212.136 248.679 211.606 247.295 212.314C245.91 213.026 245.373 214.711 246.09 216.079C247.793 219.318 246.796 221.858 245.535 225.076C244.119 228.688 242.353 233.186 245.235 238.665C248.118 244.144 252.861 245.302 256.669 246.234C260.06 247.061 262.741 247.717 264.447 250.959C266.153 254.201 265.16 256.748 263.899 259.969C262.483 263.585 260.72 268.086 263.61 273.572C266.499 279.058 271.236 280.217 275.047 281.145C278.438 281.975 281.119 282.632 282.828 285.877L282.825 285.87Z" fill="#EFFE37"/>
<path d="M232.737 396.199C235.894 401.023 240.612 401.405 244.401 401.712C248.071 402.008 250.228 402.294 251.793 404.687C253.357 407.08 252.757 409.173 251.556 412.652C250.32 416.245 248.78 420.72 251.938 425.548C255.095 430.377 259.816 430.765 263.609 431.075C267.286 431.375 269.44 431.661 271.008 434.061C272.576 436.461 271.975 438.547 270.778 442.034C269.542 445.63 268.002 450.102 271.163 454.933C272.018 456.239 273.769 456.603 275.073 455.752C276.379 454.898 276.743 453.148 275.892 451.845C274.32 449.445 274.924 447.356 276.121 443.873C277.357 440.276 278.897 435.805 275.736 430.973C272.576 426.141 267.861 425.76 264.068 425.45C260.392 425.15 258.238 424.864 256.666 422.464C255.095 420.064 255.702 417.982 256.899 414.498C258.135 410.905 259.675 406.43 256.518 401.602C253.361 396.774 248.643 396.396 244.853 396.089C241.181 395.793 239.026 395.507 237.462 393.114C235.898 390.721 236.498 388.632 237.699 385.152C238.935 381.559 240.478 377.084 237.321 372.256C236.434 370.975 234.672 370.654 233.39 371.54C232.154 372.394 231.804 374.07 232.596 375.348C234.164 377.744 233.563 379.83 232.362 383.313C231.123 386.906 229.58 391.381 232.737 396.206V396.199Z" fill="#14B5FF"/>
<path fill-rule="evenodd" clip-rule="evenodd" d="M449.832 321.67C449.832 310.639 440.889 301.696 429.858 301.696H396.317V391.014H404.231V398.929C429.416 398.929 449.832 378.512 449.832 353.327V321.67ZM412.145 382.037V317.525H429.858C432.147 317.525 434.004 319.381 434.004 321.67V353.327C434.004 367.03 424.747 378.571 412.145 382.037Z" fill="url(#paint0_linear_497_4134)"/>
<path fill-rule="evenodd" clip-rule="evenodd" d="M248.961 321.67C248.961 310.639 257.904 301.696 268.935 301.696H302.476V391.014H294.562V398.929C269.377 398.929 248.961 378.512 248.961 353.327V321.67ZM286.648 382.037V317.525H268.935C266.645 317.525 264.789 319.381 264.789 321.67V353.327C264.789 367.03 274.046 378.571 286.648 382.037Z" fill="url(#paint1_linear_497_4134)"/>
<path fill-rule="evenodd" clip-rule="evenodd" d="M367.299 426.062C367.299 416.072 359.199 407.973 349.209 407.973C339.218 407.973 331.119 416.072 331.119 426.062V452.443C331.119 460.352 324.707 466.764 316.798 466.764C308.888 466.764 302.477 473.176 302.477 481.085C302.477 488.994 308.888 495.406 316.798 495.406H381.619C389.528 495.406 395.94 488.994 395.94 481.085C395.94 473.176 389.529 466.764 381.619 466.764C373.71 466.764 367.299 460.352 367.299 452.443V426.062Z" fill="url(#paint2_linear_497_4134)"/>
<g filter="url(#filter1_i_497_4134)">
<rect x="321.32" y="420.032" width="55.7767" height="18.0897" rx="9.04487" fill="#FE9F3E"/>
</g>
<rect x="276.096" y="276.822" width="145.472" height="15.8285" rx="7.91426" fill="#FBD050"/>
<g filter="url(#filter2_i_497_4134)">
<path d="M276.096 300.65C276.096 296.232 279.677 292.65 284.096 292.65H413.567C417.986 292.65 421.567 296.232 421.567 300.65V356.341C421.567 396.512 389.002 429.077 348.832 429.077C308.661 429.077 276.096 396.512 276.096 356.341V300.65Z" fill="url(#paint3_radial_497_4134)"/>
<path d="M276.096 300.65C276.096 296.232 279.677 292.65 284.096 292.65H413.567C417.986 292.65 421.567 296.232 421.567 300.65V356.341C421.567 396.512 389.002 429.077 348.832 429.077C308.661 429.077 276.096 396.512 276.096 356.341V300.65Z" fill="url(#paint4_linear_497_4134)"/>
</g>
<rect x="284.387" y="465.257" width="129.643" height="30.1496" rx="15.0748" fill="#FE9F3E"/>
<rect x="284.387" y="465.257" width="129.643" height="30.1496" rx="15.0748" fill="url(#paint5_linear_497_4134)"/>
<g filter="url(#filter3_i_497_4134)">
<path d="M342.523 332.221C345.683 327.412 352.735 327.412 355.895 332.221L359.513 337.727C360.582 339.355 362.208 340.536 364.087 341.05L370.441 342.789C375.991 344.309 378.17 351.015 374.573 355.507L370.454 360.649C369.237 362.169 368.616 364.08 368.707 366.026L369.017 372.606C369.287 378.354 363.582 382.499 358.199 380.466L352.036 378.138C350.214 377.45 348.204 377.45 346.382 378.138L340.219 380.466C334.836 382.499 329.131 378.354 329.401 372.606L329.711 366.026C329.802 364.08 329.181 362.169 327.964 360.649L323.845 355.507C320.248 351.015 322.427 344.309 327.977 342.789L334.332 341.05C336.21 340.536 337.836 339.355 338.906 337.727L342.523 332.221Z" fill="white"/>
</g>
<path fill-rule="evenodd" clip-rule="evenodd" d="M336.786 372.105C336.552 372.336 336.413 372.647 336.398 372.976C336.354 373.917 337.288 374.596 338.17 374.263L345.968 371.318C348.715 370.28 351.745 370.28 354.491 371.318L359.884 373.355C361.903 374.117 364.042 372.563 363.941 370.407L363.67 364.649C363.532 361.716 364.468 358.835 366.303 356.543L369.907 352.044C371.256 350.36 370.439 347.845 368.358 347.275L365.002 346.356C363.97 346.074 362.865 346.363 362.103 347.115L336.786 372.105Z" fill="url(#paint6_linear_497_4134)"/>
<g filter="url(#filter4_f_497_4134)">
<ellipse cx="420.004" cy="286.519" rx="12.0598" ry="12.0598" transform="rotate(-106.496 420.004 286.519)" fill="url(#paint7_radial_497_4134)"/>
</g>
<g filter="url(#filter5_f_497_4134)">
<ellipse cx="420.004" cy="286.52" rx="1.50748" ry="18.0897" transform="rotate(-16.496 420.004 286.52)" fill="white"/>
</g>
<g filter="url(#filter6_f_497_4134)">
<ellipse cx="420.003" cy="286.521" rx="1.50748" ry="16.5823" transform="rotate(-106.496 420.003 286.521)" fill="white"/>
</g>
<g filter="url(#filter7_f_497_4134)">
<path d="M383.145 297.435L457.223 275.497" stroke="url(#paint8_linear_497_4134)"/>
</g>
<g filter="url(#filter8_f_497_4134)">
<path d="M434.342 334.941L405.663 238.098" stroke="url(#paint9_linear_497_4134)"/>
</g>
<defs>
<filter id="filter0_f_497_4134" x="0" y="0" width="698" height="707" filterUnits="userSpaceOnUse" color-interpolation-filters="sRGB">
<feFlood flood-opacity="0" result="BackgroundImageFix"/>
<feBlend mode="normal" in="SourceGraphic" in2="BackgroundImageFix" result="shape"/>
<feGaussianBlur stdDeviation="120" result="effect1_foregroundBlur_497_4134"/>
</filter>
<filter id="filter1_i_497_4134" x="321.32" y="420.032" width="55.7773" height="18.0898" filterUnits="userSpaceOnUse" color-interpolation-filters="sRGB">
<feFlood flood-opacity="0" result="BackgroundImageFix"/>
<feBlend mode="normal" in="SourceGraphic" in2="BackgroundImageFix" result="shape"/>
<feColorMatrix in="SourceAlpha" type="matrix" values="0 0 0 0 0 0 0 0 0 0 0 0 0 0 0 0 0 0 127 0" result="hardAlpha"/>
<feOffset/>
<feGaussianBlur stdDeviation="3.5"/>
<feComposite in2="hardAlpha" operator="arithmetic" k2="-1" k3="1"/>
<feColorMatrix type="matrix" values="0 0 0 0 0 0 0 0 0 0 0 0 0 0 0 0 0 0 0.25 0"/>
<feBlend mode="normal" in2="shape" result="effect1_innerShadow_497_4134"/>
</filter>
<filter id="filter2_i_497_4134" x="276.096" y="292.65" width="145.471" height="136.427" filterUnits="userSpaceOnUse" color-interpolation-filters="sRGB">
<feFlood flood-opacity="0" result="BackgroundImageFix"/>
<feBlend mode="normal" in="SourceGraphic" in2="BackgroundImageFix" result="shape"/>
<feColorMatrix in="SourceAlpha" type="matrix" values="0 0 0 0 0 0 0 0 0 0 0 0 0 0 0 0 0 0 127 0" result="hardAlpha"/>
<feOffset/>
<feGaussianBlur stdDeviation="18"/>
<feComposite in2="hardAlpha" operator="arithmetic" k2="-1" k3="1"/>
<feColorMatrix type="matrix" values="0 0 0 0 1 0 0 0 0 1 0 0 0 0 1 0 0 0 0.5 0"/>
<feBlend mode="normal" in2="shape" result="effect1_innerShadow_497_4134"/>
</filter>
<filter id="filter3_i_497_4134" x="322.084" y="327.614" width="54.25" height="53.376" filterUnits="userSpaceOnUse" color-interpolation-filters="sRGB">
<feFlood flood-opacity="0" result="BackgroundImageFix"/>
<feBlend mode="normal" in="SourceGraphic" in2="BackgroundImageFix" result="shape"/>
<feColorMatrix in="SourceAlpha" type="matrix" values="0 0 0 0 0 0 0 0 0 0 0 0 0 0 0 0 0 0 127 0" result="hardAlpha"/>
<feOffset dy="-3"/>
<feGaussianBlur stdDeviation="0.5"/>
<feComposite in2="hardAlpha" operator="arithmetic" k2="-1" k3="1"/>
<feColorMatrix type="matrix" values="0 0 0 0 0 0 0 0 0 0 0 0 0 0 0 0 0 0 0.25 0"/>
<feBlend mode="normal" in2="shape" result="effect1_innerShadow_497_4134"/>
</filter>
<filter id="filter4_f_497_4134" x="397.941" y="264.456" width="44.125" height="44.126" filterUnits="userSpaceOnUse" color-interpolation-filters="sRGB">
<feFlood flood-opacity="0" result="BackgroundImageFix"/>
<feBlend mode="normal" in="SourceGraphic" in2="BackgroundImageFix" result="shape"/>
<feGaussianBlur stdDeviation="5" result="effect1_foregroundBlur_497_4134"/>
</filter>
<filter id="filter5_f_497_4134" x="404.666" y="259.169" width="30.6758" height="54.7012" filterUnits="userSpaceOnUse" color-interpolation-filters="sRGB">
<feFlood flood-opacity="0" result="BackgroundImageFix"/>
<feBlend mode="normal" in="SourceGraphic" in2="BackgroundImageFix" result="shape"/>
<feGaussianBlur stdDeviation="5" result="effect1_foregroundBlur_497_4134"/>
</filter>
<filter id="filter6_f_497_4134" x="394.098" y="271.594" width="51.8105" height="29.8535" filterUnits="userSpaceOnUse" color-interpolation-filters="sRGB">
<feFlood flood-opacity="0" result="BackgroundImageFix"/>
<feBlend mode="normal" in="SourceGraphic" in2="BackgroundImageFix" result="shape"/>
<feGaussianBlur stdDeviation="5" result="effect1_foregroundBlur_497_4134"/>
</filter>
<filter id="filter7_f_497_4134" x="381.002" y="273.018" width="78.3633" height="26.8965" filterUnits="userSpaceOnUse" color-interpolation-filters="sRGB">
<feFlood flood-opacity="0" result="BackgroundImageFix"/>
<feBlend mode="normal" in="SourceGraphic" in2="BackgroundImageFix" result="shape"/>
<feGaussianBlur stdDeviation="1" result="effect1_foregroundBlur_497_4134"/>
</filter>
<filter id="filter8_f_497_4134" x="403.184" y="235.956" width="33.6367" height="101.127" filterUnits="userSpaceOnUse" color-interpolation-filters="sRGB">
<feFlood flood-opacity="0" result="BackgroundImageFix"/>
<feBlend mode="normal" in="SourceGraphic" in2="BackgroundImageFix" result="shape"/>
<feGaussianBlur stdDeviation="1" result="effect1_foregroundBlur_497_4134"/>
</filter>
<linearGradient id="paint0_linear_497_4134" x1="414.783" y1="350.312" x2="450.209" y2="350.312" gradientUnits="userSpaceOnUse">
<stop stop-color="#CC6A0F"/>
<stop offset="0.338542" stop-color="#FBA024"/>
<stop offset="1" stop-color="#FBA024"/>
</linearGradient>
<linearGradient id="paint1_linear_497_4134" x1="284.01" y1="350.312" x2="248.584" y2="350.312" gradientUnits="userSpaceOnUse">
<stop stop-color="#CC6A0F"/>
<stop offset="0.338542" stop-color="#FBA024"/>
<stop offset="1" stop-color="#FBA024"/>
</linearGradient>
<linearGradient id="paint2_linear_497_4134" x1="304.738" y1="471.287" x2="393.679" y2="471.287" gradientUnits="userSpaceOnUse">
<stop offset="0.200757" stop-color="#CD6A10"/>
<stop offset="0.386242" stop-color="#E99137"/>
<stop offset="0.631348" stop-color="#E99137"/>
<stop offset="0.801376" stop-color="#CD6A10"/>
</linearGradient>
<radialGradient id="paint3_radial_497_4134" cx="0" cy="0" r="1" gradientUnits="userSpaceOnUse" gradientTransform="translate(348.832 360.864) rotate(90) scale(72.359 77.1562)">
<stop stop-color="#FFE69B"/>
<stop offset="0.609375" stop-color="#F0C644"/>
<stop offset="1" stop-color="#F0C644"/>
</radialGradient>
<linearGradient id="paint4_linear_497_4134" x1="348.832" y1="292.65" x2="348.832" y2="302.826" gradientUnits="userSpaceOnUse">
<stop stop-color="#DD9710"/>
<stop offset="1" stop-color="#F2C94A" stop-opacity="0"/>
</linearGradient>
<linearGradient id="paint5_linear_497_4134" x1="349.208" y1="465.257" x2="349.208" y2="495.406" gradientUnits="userSpaceOnUse">
<stop stop-color="#CD6A10" stop-opacity="0"/>
<stop offset="1" stop-color="#CD6A10"/>
</linearGradient>
<linearGradient id="paint6_linear_497_4134" x1="354.576" y1="353.013" x2="361.772" y2="368.348" gradientUnits="userSpaceOnUse">
<stop stop-color="#83C3FF"/>
<stop offset="1" stop-color="#D3EAFF" stop-opacity="0"/>
</linearGradient>
<radialGradient id="paint7_radial_497_4134" cx="0" cy="0" r="1" gradientUnits="userSpaceOnUse" gradientTransform="translate(420.004 286.519) rotate(90) scale(12.0598)">
<stop stop-color="white"/>
<stop offset="0.3125" stop-color="white"/>
<stop offset="1" stop-color="#FFE86F" stop-opacity="0"/>
</radialGradient>
<linearGradient id="paint8_linear_497_4134" x1="383.145" y1="297.435" x2="457.584" y2="275.39" gradientUnits="userSpaceOnUse">
<stop stop-color="white" stop-opacity="0"/>
<stop offset="0.53125" stop-color="white"/>
<stop offset="1" stop-color="white" stop-opacity="0"/>
</linearGradient>
<linearGradient id="paint9_linear_497_4134" x1="434.342" y1="334.941" x2="405.523" y2="237.625" gradientUnits="userSpaceOnUse">
<stop stop-color="white" stop-opacity="0"/>
<stop offset="0.53125" stop-color="white"/>
<stop offset="1" stop-color="white" stop-opacity="0"/>
</linearGradient>
</defs>
</svg>
