<svg width="80" height="80" xmlns="http://www.w3.org/2000/svg">
 <defs>
  <style type="text/css">.fil0 {fill:black}</style>
 </defs>
 <g className="layer">
  <title>Layer 1</title>
  <g id="svg_1" stroke="white">
   <path className="fil0" d="m38.68,12.43c0.25,0.98 0.25,1.97 0.25,3.2c0,5.42 -2.48,10.34 -5.96,11.33l0,2.95l-1.74,3.45c0.74,0.74 3.48,2.95 3.48,2.95l-1.49,2.71c2.98,9.6 3.72,18.96 4.22,28.56c0.5,0 1.24,0.25 1.99,0c0.25,0 0.5,0 0.74,-0.25l1.74,-15.02l37.48,0l-3.23,27.08c-13.9,0 -28.05,0 -41.95,0l0,-2.22l1.99,0c-1.49,-0.98 -2.73,-1.72 -3.72,-2.46l-5.21,-0.74l-0.74,5.42l-18.12,0l0.99,-9.85l-6.45,-3.2c-1.74,-0.98 -2.73,-2.71 -1.74,-5.66l6.21,-22.4c0.5,-2.22 1.99,-3.94 3.97,-4.68l10.67,-3.69c6.21,11.57 7.2,22.16 6.21,35.95l4.47,0.98c-0.5,-9.6 0,-17.97 -1.49,-27.58l-2.48,-2.71l1.99,-2.95l-6.45,-4.92l0,-8.12c-0.74,-0.49 -1.99,-1.23 -1.99,-1.72c-0.5,-1.48 -1.99,-4.19 -2.23,-6.16c-0.25,-2.71 0.5,-5.66 1.24,-7.39c0.5,-1.72 1.99,-2.22 3.72,-2.46c0.99,0 0.5,-0.74 2.73,-1.23c6.45,-0.98 12.41,0.74 12.66,6.4c0,0.74 0.74,2.71 -0.5,3.94c-0.25,0.25 -0.74,0.49 -1.24,0.49zm-3.23,17.97c2.98,7.88 4.22,14.28 4.72,20.68l15.89,0l-4.72,-9.85c-1.24,-2.46 -2.48,-4.19 -5.46,-5.66l-10.43,-5.17zm3.48,46.78l0,0l0.99,-8.37c-0.74,0 -1.49,0.25 -2.48,0c-2.23,1.23 -2.98,3.45 -3.23,5.66c1.99,0.49 3.23,1.72 4.72,2.71zm20.36,-13.79c1.49,0 2.48,0.98 2.48,2.46c-0.25,1.48 -1.49,2.46 -2.98,2.46c-1.49,0 -2.48,-0.98 -2.23,-2.46c0.25,-1.48 1.49,-2.46 2.73,-2.46zm-35.75,-47.76c0.5,1.48 1.24,1.48 1.99,4.43c0.99,3.45 3.23,5.91 5.71,5.91c3.48,0 6.45,-4.68 6.45,-10.34c0,-0.98 0,-1.97 -0.25,-2.95c-1.49,0 -2.98,-0.25 -4.47,-0.74c-2.48,-0.74 -4.72,-1.72 -5.71,-0.25c-0.99,1.72 0,4.19 0,4.68c0,0.49 -0.99,0.49 -0.99,0.49c0,0 -0.25,-0.74 -0.74,-1.72c0,-0.74 -0.99,-2.22 -1.99,-1.48c0,0 -0.5,0.74 0,1.97zm8.19,11.82c-0.25,0 -0.25,0 -0.5,0c-2.23,0 -4.22,-1.48 -5.71,-3.94l0,4.43l4.96,3.69l1.24,-1.97l0,-2.22z" id="svg_2"/>
  </g>
 </g>
</svg>