<svg width="current" height="current" viewBox="0 0 556 81" fill="none" xmlns="http://www.w3.org/2000/svg">
<path d="M5.408 6.517H46.17V11.412C46.17 16.93 46.17 24.851 44.212 34.908L33.532 33.662C34.956 26.097 35.223 20.134 35.312 15.328H5.408V6.517ZM0.691 40.693C5.141 40.693 10.125 40.693 15.465 40.604V25.029H26.323V40.248C34.244 39.892 42.343 39.269 49.819 38.201L50.531 46.033C34.066 49.059 15.465 49.415 1.759 49.504L0.691 40.693ZM12.35 78.963V55.111H23.386V70.152H67.797V78.963H12.35ZM54.269 60.362V0.642998H65.305V25.207H75.006V34.196H65.305V60.362H54.269ZM81.6831 7.407H97.6141V0.375996H108.561V7.407H124.492V16.04H108.561V16.485C108.561 23.694 114.791 30.814 127.34 33.484L122.801 41.85C113.545 39.803 107.048 35.264 103.399 29.39C99.7501 35.976 93.1641 41.049 83.5521 43.274L78.8351 34.73C91.6511 31.793 97.6141 24.317 97.6141 16.485V16.04H81.6831V7.407ZM93.5201 53.509V45.143H146.119V66.236H104.556V71.487H148.433V79.853H93.6981V58.404H135.172V53.509H93.5201ZM122.534 28.144V19.333H135.083V0.731997H146.119V42.028H135.083V28.144H122.534ZM208.777 0.731997H219.813V31.971H231.472V41.138H219.813V80.476H208.777V0.731997ZM156.979 21.38V12.569H174.779V1.978H185.904V12.569H203.526V21.38H156.979ZM160.272 45.054C160.272 33.929 168.816 26.097 180.386 26.097C191.956 26.097 200.589 33.929 200.589 45.054C200.589 56.09 191.956 63.922 180.386 63.922C168.816 63.922 160.272 56.09 160.272 45.054ZM170.863 45.054C170.863 51.195 174.779 54.933 180.386 54.933C185.993 54.933 189.998 51.195 189.998 45.054C189.998 38.824 185.993 34.997 180.386 34.997C174.779 34.997 170.863 38.824 170.863 45.054ZM238.06 7.763H275.974V18.799H290.926V0.553999H301.873V80.565H290.926V49.237H275.974V60.985H238.06V7.763ZM248.918 52.352H265.027V16.396H248.918V52.352ZM275.974 40.337H290.926V27.61H275.974V40.337ZM388.336 0.553999H399.461V80.565H388.336V0.553999ZM335.648 34.641C335.648 17.197 344.548 6.24999 356.652 6.24999C368.667 6.24999 377.478 17.197 377.478 34.641C377.478 52.174 368.667 63.121 356.652 63.121C344.548 63.121 335.648 52.174 335.648 34.641ZM346.328 34.641C346.328 46.567 350.511 53.153 356.652 53.153C362.704 53.153 366.887 46.567 366.887 34.641C366.887 22.715 362.704 16.218 356.652 16.218C350.511 16.218 346.328 22.715 346.328 34.641ZM432.571 6.24999C444.675 6.24999 453.397 17.197 453.397 34.641C453.397 52.174 444.675 63.121 432.571 63.121C420.467 63.121 411.745 52.174 411.745 34.641C411.745 17.197 420.467 6.24999 432.571 6.24999ZM422.336 34.641C422.336 46.567 426.43 53.153 432.571 53.153C438.712 53.153 442.806 46.567 442.806 34.641C442.806 22.715 438.712 16.218 432.571 16.218C426.43 16.218 422.336 22.715 422.336 34.641ZM462.475 80.476V0.731997H473.6V19.422H484.725V28.5H473.6V42.829H484.725V51.907H473.6V80.476H462.475ZM544.268 0.642998H555.304V80.387H544.268V0.642998ZM489.266 58.048C509.736 48.347 518.636 35.531 520.327 17.731H493.36V8.92H531.63C531.63 33.217 523.175 53.153 494.962 66.77L489.266 58.048Z" fill="white"/>
</svg>
