<svg width="483" height="81" viewBox="0 0 483 81" fill="none" xmlns="http://www.w3.org/2000/svg">
<path d="M0.848 61.964H31.019V43.986H42.055V61.964H73.027V70.953H0.848V61.964ZM2.539 37.222C20.339 34.374 30.663 22.181 30.663 10.967V5.093H42.411V10.967C42.411 22.359 52.735 34.374 70.446 37.222L65.907 46.478C52.023 43.808 41.699 36.332 36.537 26.364C31.286 36.243 20.962 43.897 7.167 46.478L2.539 37.222ZM133.816 0.553999H144.852V80.565H133.816V0.553999ZM82.7301 16.307V7.49599H120.288V38.112H94.0331V52.886C106.226 52.797 116.55 52.263 128.031 50.305L129.188 59.116C116.105 61.43 104.268 61.875 89.8501 61.875H82.9081V29.301H109.074V16.307H82.7301ZM207.599 0.553999H218.724V31.348H229.938V40.426H218.724V80.387H207.599V0.553999ZM155.712 58.137C174.402 48.525 184.37 35.62 186.417 17.731H160.073V8.831H197.542C197.542 32.683 188.286 53.153 161.853 66.503L155.712 58.137ZM254.813 31.882H326.814V40.604H254.813V31.882ZM262.912 53.598V45.321H317.914V66.147H273.859V71.309H320.05V79.764H263.09V58.404H307.056V53.598H262.912ZM263.713 27.343V2.334H317.558V11.056H274.66V18.71H318.359V27.343H263.713ZM387.692 0.553999H398.728V80.565H387.692V0.553999ZM336.606 16.307V7.49599H374.164V38.112H347.909V52.886C360.102 52.797 370.426 52.263 381.907 50.305L383.064 59.116C369.981 61.43 358.144 61.875 343.726 61.875H336.784V29.301H362.95V16.307H336.606ZM419.2 3.491H430.236V22.448H474.38V31.17H419.2V3.491ZM410.3 48.525V39.714H482.479V48.525H410.3ZM418.488 78.785V55.022H429.524V69.885H474.825V78.785H418.488Z" fill="white"/>
</svg>
