<svg width="2747" height="214" viewBox="0 0 2747 214" fill="none" xmlns="http://www.w3.org/2000/svg">
<path d="M41.4253 117.792C42.0973 114.768 43.0493 107.712 41.5933 106.2C42.7133 105.024 42.9373 103.288 42.9373 101.664C42.8813 96.288 41.4813 92.928 42.4333 87.664H51.3373C50.4413 89.848 49.4333 95.168 49.9373 99.088C50.1613 99.928 50.6653 100.768 52.0093 100.768H54.0253C55.4253 100.768 56.1533 99.928 56.3773 98.584C56.7693 95 56.3213 90.688 55.1453 87.664H65.2813C64.8893 90.576 64.8333 94.328 65.1693 98.024C65.3933 101.776 65.9533 105.36 66.3453 109.168C67.0733 113.648 67.2973 117.4 67.2973 120.256H55.9853C56.3213 117.792 56.6573 113.536 56.6013 110.456C56.5453 108.216 55.4253 107.04 54.0253 107.04H52.0093C50.6653 107.04 50.1613 108.104 49.9933 109.392C49.8253 111.912 50.4973 115.664 50.9453 117.792H41.4253ZM2.44926 115.72V110.96C6.20126 111.856 9.72926 112.08 12.5853 112.08C13.5373 112.08 14.3213 111.968 14.7133 111.632C15.2173 110.792 14.9933 109.728 14.9933 108.72C14.9933 108.44 14.9373 108.104 14.8813 107.824C11.9693 107.488 9.67326 106.816 7.99326 105.976C4.57726 104.408 3.06526 102.28 3.90526 98.696C4.40926 97.184 5.19326 95.952 5.02526 94.832C4.74526 91.416 6.14526 89.736 9.44926 88.616C11.6333 87.776 15.2173 87.496 18.8573 87.496H19.3613C21.7133 87.496 24.5693 87.664 26.0253 88.056L22.8893 93.208C22.6653 92.816 22.2733 92.592 21.9373 92.424C21.6013 92.256 20.7613 92.032 19.9213 92.032C16.7293 92.032 12.6413 93.6 12.3613 97.184C12.2493 98.64 13.2013 100.096 14.4333 101.328C16.5613 103.344 19.3053 104.408 21.8253 104.408C24.1773 104.408 26.0813 103.232 27.0333 101.608C27.8173 100.32 27.9293 98.752 27.4813 97.296C27.2013 95.616 25.8013 94.328 23.5613 93.656L23.8413 93.208L24.2893 93.264C26.6413 92.424 28.7133 91.864 31.7373 90.8C35.0413 92.312 37.1133 94.496 37.4493 97.744C37.8413 100.936 35.8813 103.904 31.9053 105.36C30.1693 106.032 28.5453 106.872 26.2493 107.432C26.0813 108.272 26.0253 109.224 25.9693 110.288C25.9133 111.128 26.1373 111.576 26.9773 111.8C28.0413 111.968 29.3853 112.08 30.6733 111.968C33.8653 111.856 36.8333 110.96 39.5213 108.44L38.7933 111.184C35.8253 114.264 31.6253 115.72 24.3453 115.72H2.44926ZM9.11326 130.728C9.22526 129.384 9.56126 128.096 10.1213 126.752C10.6253 125.128 11.0733 123.56 11.1293 121.936C11.2413 120.984 11.0733 119.92 10.2333 119.08H26.4173C26.4173 119.92 26.1933 120.76 25.7453 121.768C25.1293 122.888 25.3533 124.568 26.4733 125.352C27.5373 125.912 30.7293 126.248 35.6573 126.248C51.0013 126.248 59.3453 125.128 67.3533 125.184L66.5693 130.728H9.11326ZM75.0813 127.368C76.9293 123.672 79.0573 119.808 80.7933 115.608C83.5373 110.232 85.5533 104.128 86.0013 98.36C86.0013 97.24 85.5533 95.672 83.4813 95.672C81.0173 95.672 78.3853 96.008 76.0893 96.68V89.288H113.721V97.128C108.793 97.128 104.481 95.784 98.8813 95.784C96.6973 96.008 95.1293 98.304 94.8493 100.152C94.5693 103.008 94.5693 104.856 95.7453 105.304H107.617C108.233 108.272 108.793 112.136 110.137 115.384C112.041 119.248 113.833 122.328 115.569 127.368H101.345C101.513 125.464 101.457 123.336 101.289 121.544C101.121 119.976 100.897 118.184 100.281 116.056C99.8333 114.264 99.2173 112.696 98.6013 111.408C97.9293 110.344 97.5373 109.448 96.0253 108.832H95.7453L95.1853 109.784C94.1213 110.568 92.7773 113.2 92.1053 116.616C91.3213 120.536 90.9293 124.96 90.0333 127.368H75.0813ZM121.337 130.28C120.945 126.416 121.113 122.384 121.393 117.792C121.729 111.576 122.625 104.072 122.569 98.248C122.569 94.16 122.289 90.632 121.953 87.664H135.057C134.721 94.272 133.993 101.664 133.881 108.44C133.769 116.728 134.609 123.616 136.401 130.28H121.337ZM156.572 110.624C157.468 106.536 157.468 102.392 156.572 97.632C155.844 93.768 155.956 91.192 156.236 88.168H170.74C168.836 91.192 167.716 95.336 167.716 100.04C167.716 104.8 168.332 107.6 171.02 109.504C172.084 108.328 172.42 107.376 173.036 107.376C177.292 107.376 179.42 106.816 180.82 106.312C181.324 105.864 181.772 105.024 181.94 104.128C182.332 101.328 182.388 97.184 181.604 95.112C181.268 94.16 180.204 93.544 178.916 93.264C177.74 93.04 176.452 92.984 174.996 93.04L175.276 91.024C175.332 91.024 175.388 91.024 175.5 90.8L176.62 88.336C180.652 87.888 183.34 87.72 186.308 88C189.892 88.448 192.412 90.296 192.972 93.264C193.42 96.176 193.14 99.984 193.308 104.24C193.42 106.48 193.756 108.552 194.484 110.624H156.572ZM159.428 130.616C159.54 128.768 160.212 126.696 161.332 124.68C162.172 123.168 162.34 121.656 161.444 120.536H195.716C196.612 120.424 197.956 120.256 198.684 119.64C199.524 118.8 199.524 117.568 199.3 116.896C198.964 116.168 197.06 116.168 193.756 116.168C183.116 116.168 171.188 116.392 160.548 117.008V113.648H214.196V115.328C214.196 117.232 213.916 118.856 212.348 120.088C210.948 120.872 210.22 121.376 207.084 121.768H178.804C178.412 121.768 177.18 121.824 176.62 121.936C175.892 122.16 175.388 122.608 175.276 123.112C174.884 124.288 175.332 125.184 177.124 125.856C178.58 126.248 180.54 126.416 183.676 126.416H195.436C203.388 126.416 209.38 125.128 216.324 124.96L215.596 130.616H159.428ZM200.812 87.664H213.972C212.908 89.568 212.46 92.088 212.292 94.832C212.068 97.912 212.292 103.12 213.188 104.856C212.068 106.928 213.412 108.16 214.364 110.624H201.316C201.652 108.552 201.82 106.424 201.932 104.352C201.932 102.952 201.82 101.496 201.708 100.152C201.092 95.504 200.308 92.088 200.812 87.664ZM213.076 105.248C214.644 103.792 215.372 101.664 215.764 99.256C216.156 97.184 216.324 94.216 216.156 92.816H219.572V105.248H213.076ZM240.079 130.616C240.191 128.768 240.359 127.2 240.583 125.632C240.919 123.168 241.479 120.424 241.535 117.904C241.535 116.616 241.423 115.216 240.919 114.04H253.015C253.015 115.496 252.791 116.952 252.567 118.52C252.175 120.592 251.895 123.336 252.567 124.792C253.183 125.576 254.023 126.192 255.871 126.192C260.407 126.192 262.535 124.512 264.719 124.4V130.616H240.079ZM237.447 88.168H251.951C250.047 91.192 248.927 95.336 248.927 100.04C248.927 104.8 249.543 107.6 252.231 109.504C253.295 108.328 253.631 107.376 254.247 107.376C258.503 107.376 260.631 106.816 262.031 106.312C262.535 105.864 262.983 105.024 263.151 104.128C263.543 101.328 263.599 97.184 262.815 95.112C262.479 94.16 261.415 93.544 260.127 93.264C258.951 93.04 257.663 92.984 256.207 93.04L256.487 91.024C256.543 91.024 256.599 91.024 256.711 90.8L257.831 88.336C261.863 87.888 264.551 87.72 267.519 88C271.103 88.448 273.623 90.296 274.183 93.264C274.631 96.176 274.351 99.984 274.519 104.24C274.631 106.48 274.967 108.552 275.695 110.624H237.783C238.679 106.536 238.679 102.392 237.783 97.632C237.055 93.768 237.167 91.192 237.447 88.168ZM265.559 122.16V119.584H298.991V122.16C294.343 122.104 289.583 121.6 283.871 121.6C279.839 121.656 278.943 122.16 278.215 122.664C276.255 123.672 276.143 125.464 276.927 126.416C277.879 127.704 279.223 128.6 282.527 128.6C285.663 128.6 287.063 127.312 287.455 126.192C287.959 125.016 287.175 123.896 286.055 123.504L292.831 124.344C293.783 124.456 295.071 124.68 295.855 124.904C296.695 126.36 296.303 127.816 294.455 128.992C293.111 130.84 288.911 131.568 283.479 131.568C280.119 131.568 277.711 131.4 275.863 131.008C274.183 130.672 272.167 130.056 270.711 129.496C268.471 128.712 267.351 127.312 267.351 125.688C267.463 123.784 269.647 123 271.495 122.216C272.615 121.88 272.279 121.432 271.103 121.432C268.527 121.432 267.463 121.712 265.559 122.16ZM268.247 117.568V113.536H296.247L295.743 116.728C292.775 116.728 288.743 116.112 285.719 116.112C281.855 116.112 278.999 116.392 275.639 116.896C273.399 117.12 270.487 117.568 268.247 117.568ZM282.023 87.664H295.183C294.119 89.568 293.671 92.088 293.503 94.832C293.279 97.912 293.503 103.12 294.399 104.856C293.279 106.928 294.623 108.16 295.575 110.624H282.527C282.863 108.552 283.031 106.424 283.143 104.352C283.143 102.952 283.031 101.496 282.919 100.152C282.303 95.504 281.519 92.088 282.023 87.664ZM294.287 105.248C295.855 103.792 296.583 101.664 296.975 99.256C297.367 97.184 297.535 94.216 297.367 92.816H300.783V105.248H294.287ZM350.287 115.944C351.575 110.176 351.911 104.632 351.631 100.544C351.015 96.904 347.487 96.344 341.943 96.344H332.199C323.183 96.344 316.463 98.08 309.071 98.08V89.736H365.799C365.799 96.848 365.127 105.192 366.079 112.024L350.287 115.944ZM305.823 128.768V120.816C308.567 121.936 310.975 122.328 313.495 122.384C316.127 122.44 318.367 122.272 321.391 121.096C322.343 120.368 322.287 118.184 322.175 116.728C322.119 114.824 321.951 112.64 321.559 111.016H338.471C338.079 113.368 337.799 115.776 337.967 118.688C338.135 120.48 338.751 121.32 339.927 121.712C344.687 122.384 348.831 122.44 353.535 122.272C359.919 122.048 364.231 121.04 369.999 120.592V128.768H305.823Z" fill="white"/>
<path fill-rule="evenodd" clip-rule="evenodd" d="M451.928 49.7456C421.862 49.7456 397.489 74.1186 397.489 104.184C397.489 134.25 421.862 158.623 451.928 158.623H692.673C692.682 158.623 692.691 158.623 692.7 158.623H764.643C773.355 158.623 775.791 146.67 767.773 143.261L746.164 134.073C751.81 125.494 755.095 115.223 755.095 104.184C755.095 74.1186 730.722 49.7456 700.656 49.7456H451.928Z" fill="#ECFF78"/>
<path d="M547.526 0C496.804 0 455.685 40.9291 455.685 91.4178C455.685 118.043 467.12 142.009 485.368 158.717H609.685C627.933 142.009 639.368 118.043 639.368 91.4178C639.368 40.9291 598.249 0 547.526 0Z" fill="#7949DF"/>
<path d="M602.364 56.6208L568.48 63.7542L498.484 79.8042" stroke="white" stroke-width="14" stroke-linecap="round"/>
<path d="M603.702 92.7334V92.7334C574.126 73.8047 542.041 59.1181 508.385 49.1028L502.497 47.3506" stroke="white" stroke-width="14" stroke-linecap="round"/>
<path fill-rule="evenodd" clip-rule="evenodd" d="M489.57 105.53C496.564 102.925 502.051 104.922 509.185 114.134C516.318 123.347 525.708 125.729 544.329 128.792C566.697 130.184 578.16 126.534 586.362 119.001C590.585 112.672 598.967 111.082 605.085 115.45C611.203 119.818 612.74 128.49 608.518 134.819C600.316 147.113 576.505 167.327 540.623 164.115C504.731 160.902 486.381 137.472 481.465 123.347C478.947 116.112 482.576 108.135 489.57 105.53Z" fill="#1B1B1B"/>
<path d="M542.784 142.242C527.092 129.435 510.892 139.041 504.754 145.444C508.277 149.286 515.829 153.716 519.165 155.45C523.008 161.213 525.57 174.394 526.371 180.264C533.577 215.083 579.213 225.889 587.219 198.674C595.225 171.459 583.216 151.848 572.007 140.642C563.04 131.677 548.789 137.973 542.784 142.242Z" fill="#EA6767"/>
<path d="M545.405 138.933C551.804 145.564 565.204 162.955 567.613 179.47" stroke="#1B1B1B" stroke-width="11" stroke-linecap="round"/>
<path fill-rule="evenodd" clip-rule="evenodd" d="M736.35 90.0502C751.043 90.4033 766.058 89.697 780.106 94.7052C780.944 95.0006 781.865 94.5704 782.167 93.7357C782.464 92.901 782.032 91.9829 781.195 91.6811C766.818 86.5573 751.461 87.1994 736.427 86.8398C735.538 86.8141 734.797 87.5204 734.778 88.4065C734.752 89.2925 735.461 90.0245 736.35 90.0502Z" fill="#B484F1"/>
<path fill-rule="evenodd" clip-rule="evenodd" d="M737.478 72.5415C742.058 68.341 747.056 65.1942 753.098 63.6346C753.961 63.4125 754.477 62.536 754.258 61.6782C754.032 60.8204 753.15 60.3048 752.293 60.527C745.723 62.222 740.28 65.6135 735.301 70.178C734.644 70.7777 734.598 71.7941 735.204 72.4465C735.803 73.0982 736.827 73.1412 737.478 72.5415Z" fill="#B484F1"/>
<path fill-rule="evenodd" clip-rule="evenodd" d="M721.238 40.7275C723.338 33.5523 727.474 27.9393 733.812 23.8858C734.559 23.4075 734.778 22.4136 734.295 21.6681C733.818 20.9227 732.82 20.7056 732.073 21.184C725.058 25.6721 720.472 31.8835 718.146 39.8279C717.895 40.6781 718.391 41.5706 719.241 41.8184C720.098 42.0669 720.994 41.5776 721.238 40.7275Z" fill="#B484F1"/>
<path fill-rule="evenodd" clip-rule="evenodd" d="M658.508 25.7228C657.376 27.0498 656.361 28.4797 655.497 30.0021C655.112 30.6798 654.435 32.1202 654.33 33.3554C654.214 34.6714 654.663 35.7816 655.818 36.3664C657.352 37.1418 658.578 37.061 659.523 36.5919C660.433 36.1414 661.145 35.2561 661.594 34.0692C662.452 31.8005 662.323 28.3333 661.874 26.3547C663.082 25.1131 664.406 23.9871 665.824 22.9862C676.384 15.5315 691.873 18.2803 703.793 29.4266C707.964 33.3292 709.971 41.5251 711.015 50.3678C712.643 64.1362 711.715 79.5142 711.587 84.0196C711.558 85.1321 711.663 85.7924 711.721 85.9244C711.995 86.5731 712.48 86.7416 712.818 86.8056C713.308 86.8928 713.699 86.7998 714.014 86.637C714.44 86.4138 714.79 86.0209 714.953 85.4146C715.041 85.0798 715.064 84.6136 715.052 84.1167C715.041 83.772 714.971 83.3953 715.041 83.1483C715.496 81.5661 716.044 80.021 716.581 78.465C718.372 73.2342 720.688 68.3324 723.261 63.4364C731.435 47.8795 739.34 31.4419 752.741 19.5893C753.342 19.0574 753.401 18.1379 752.864 17.538C752.333 16.9382 751.411 16.8835 750.804 17.4159C737.135 29.5028 729.014 46.2234 720.677 62.0885C718.489 66.2532 716.482 70.4238 714.813 74.7862C714.982 67.0693 714.918 56.3874 713.501 46.9361C712.24 38.5304 709.843 31.1018 705.788 27.3079C692.731 15.0973 675.701 12.4485 664.138 20.6152C662.901 21.4895 661.722 22.4509 660.625 23.4937C654.575 12.6095 641.624 8.24708 630.177 13.4529C629.442 13.786 629.121 14.6486 629.453 15.378C629.792 16.1075 630.655 16.4296 631.39 16.0965C641.705 11.4057 653.403 15.5919 658.508 25.7228ZM659.354 29.3667C658.881 30.0317 658.443 30.7211 658.035 31.4337C657.819 31.8162 657.446 32.5515 657.288 33.2711C657.253 33.4397 657.247 33.7036 657.247 33.8256C657.65 34.0233 657.965 34.1186 658.222 33.9901C658.543 33.832 658.706 33.46 658.864 33.0444C659.26 32.0016 659.389 30.6194 659.354 29.3667Z" fill="#B484F1"/>
<path d="M830.285 112.64C823.901 112.64 819.085 111.632 816.005 110.008C812.085 108.048 810.293 105.528 811.301 101.16C811.861 99.312 812.757 97.744 812.589 96.4C812.253 92.144 813.989 90.128 817.741 88.784C820.261 87.832 824.517 87.44 828.717 87.44H829.333C832.021 87.44 835.437 87.72 837.229 88.168L833.141 94.104C832.861 93.6 832.413 93.32 832.021 93.096C831.629 92.872 830.733 92.592 829.725 92.592C826.085 92.592 821.381 94.552 821.101 99.032C820.933 100.88 822.109 102.728 823.453 104.24C825.917 106.872 829.053 108.16 831.909 108.16C834.597 108.16 836.725 106.704 837.845 104.632C838.685 103.008 838.853 101.048 838.349 99.144C838.013 97.184 836.445 95.56 833.925 94.664L834.149 94.44L834.541 94.496C837.229 93.712 840.197 92.704 843.725 91.64C847.589 93.432 849.941 96.008 850.389 99.984C850.781 103.848 848.541 107.432 843.949 109.224C840.477 110.624 837.397 112.64 830.285 112.64ZM816.789 115.272H831.685C831.069 116.224 830.901 117.176 831.125 118.184C831.405 119.08 834.653 119.416 837.789 119.416H848.093C853.021 119.416 856.549 119.192 856.829 118.464C857.221 117.12 856.045 115.888 855.485 115.272H870.213C870.549 117.008 870.717 118.968 870.605 121.32C870.437 124.232 869.541 127.312 869.149 130.616H817.965C818.973 128.264 818.469 126.248 817.461 123.504C816.621 120.424 816.453 117.736 816.789 115.272ZM830.117 122.44C829.669 123.728 830.117 125.184 830.901 126.192C831.741 126.808 833.421 127.2 835.549 127.2H848.709C851.733 127.2 854.589 126.976 856.213 126.36C857.725 125.24 857.725 123.168 857.109 121.992C856.437 121.208 852.013 121.152 849.829 121.152H839.021C835.269 121.152 830.845 121.208 830.117 122.44ZM856.325 112.36C856.157 110.288 856.213 107.824 856.493 104.912C856.885 100.936 857.613 96.736 857.613 93.432C857.557 91.136 857.333 89.288 856.941 87.664H870.045C869.709 91.472 869.093 95.616 869.037 99.48C868.925 104.296 869.597 108.496 871.389 112.36H856.325ZM926.325 130.28C925.933 126.416 926.101 122.384 926.381 117.792C926.717 111.576 927.613 104.072 927.557 98.248C927.557 94.16 927.277 90.632 926.941 87.664H940.045C939.709 94.272 938.981 101.664 938.869 108.44C938.757 116.728 939.597 123.616 941.389 130.28H926.325ZM881.021 109.896C881.581 106.928 882.421 104.632 882.253 102.448C881.917 95.56 883.821 92.256 887.573 90.072C890.149 88.504 894.293 87.776 898.549 87.776H899.165C901.853 87.776 905.325 88.112 907.229 89.008L902.917 97.688C902.637 96.904 902.189 96.456 901.797 96.064C901.405 95.728 900.509 95.224 899.501 95.224C896.085 95.224 891.437 98.584 891.157 106.088C891.045 109.168 892.109 112.248 893.453 114.768C895.861 119.024 898.941 121.208 901.741 121.208C904.317 121.208 906.445 118.8 907.509 115.328C908.293 112.696 908.461 109.392 907.957 106.312C907.565 102.784 906.109 100.152 903.701 98.64H903.813L903.925 98.696C906.613 97.744 910.141 96.008 913.613 94.44C917.477 97.464 919.941 101.72 920.333 107.992C920.725 114.096 918.485 119.976 913.837 122.832C910.421 125.184 907.285 128.488 900.117 128.488C893.677 128.488 888.805 126.696 885.725 124.008C881.805 120.76 880.013 116.728 881.021 109.896ZM962.904 112.136C963.8 107.88 963.8 103.456 962.904 98.472C962.176 94.44 962.288 91.696 962.568 88.504H977.072C975.168 91.696 974.048 95.952 974.048 100.824C974.048 105.864 974.664 108.888 977.408 110.904C978.416 109.728 978.752 108.664 979.368 108.664C983.624 108.664 985.752 108.048 987.096 107.488C987.656 107.096 988.104 106.2 988.272 105.304C988.608 102.336 988.72 97.968 987.88 95.672C987.544 94.72 986.536 94.104 985.248 93.768C984.128 93.544 982.784 93.432 981.384 93.488L981.664 91.528C981.72 91.528 981.776 91.472 981.888 91.304L982.952 88.616C986.984 88.168 989.672 88 992.696 88.392C996.224 88.784 998.744 90.688 999.304 93.768C999.752 96.904 999.472 100.936 999.64 105.36C999.752 107.824 1000.09 109.952 1000.82 112.136H962.904ZM968.56 130.616C968.952 126.808 970.408 124.12 970.296 120.984C970.296 119.024 970.016 117.288 969.624 115.664H986.928C984.744 116.168 983.848 117.232 983.344 118.352C982.56 119.64 981.776 122.104 982.224 123.728C982.728 125.24 983.792 126.192 986.704 126.696H1004.79C1007.65 126.696 1008.82 126.304 1009.1 125.52C1009.44 124.064 1009.22 120.872 1007.48 119.416C1006.25 118.688 1003.45 118.296 1000.59 118.296H991.016L990.4 115.664H1021.14C1022.15 118.184 1021.87 120.928 1021.98 123.392C1022.04 125.856 1022.21 128.208 1022.54 130.616H968.56ZM1000.03 103.568V96.512H1008.1C1009.44 96.512 1010.5 96.064 1010.67 95.28C1010.95 93.32 1009.94 90.128 1009.89 87.664H1022.43C1021.54 91.976 1021.37 96.344 1021.87 100.6C1022.38 104.632 1022.82 109 1022.6 112.304H1008.88C1009.61 111.184 1010.17 110.008 1010.62 108.776C1011.06 107.432 1011.18 105.584 1011.01 104.688C1010.73 103.848 1009.55 103.568 1007.76 103.568H1000.03ZM1052.9 130C1053.62 129.16 1054.07 128.04 1054.3 126.808C1054.41 126.08 1054.46 125.016 1054.35 124.288C1054.07 123.448 1053.18 122.944 1050.77 122.944C1044.61 122.944 1036.77 123.952 1030.38 123.952V117.904H1094.56V124.512C1089.41 124.344 1082.24 123.056 1076.58 122.944C1074.79 122.832 1072.66 122.888 1071.54 123.392C1070.59 124.12 1070.48 124.904 1070.54 126.304C1070.65 127.648 1071.15 128.88 1071.1 130H1052.9ZM1030.83 113.592V113.536C1033.41 111.072 1036.66 108.608 1039.68 106.424C1043.04 104.352 1046.18 102.392 1046.68 100.544C1046.51 99.872 1045.73 99.536 1043.77 99.536C1040.07 99.536 1035.59 99.704 1031.9 100.656V96.848H1093.05V100.656C1084.09 100.656 1075.46 99.536 1065.83 99.648C1064.1 99.816 1062.3 100.32 1061.46 101.888C1060.57 103.512 1060.79 104.24 1062.36 104.352H1084.59C1085.32 105.64 1086.72 106.984 1088.34 108.216C1091.31 110.176 1092.66 111.688 1094.11 113.592H1073.28C1073.39 111.912 1073.17 110.344 1071.99 108.664C1070.59 106.984 1068.18 106.536 1066.11 106.088H1059.73C1057.26 106.088 1056.26 106.424 1055.08 107.152C1053.23 109.168 1052.11 111.352 1052.11 113.592H1030.83ZM1038.06 92.704V87.776H1087L1085.77 91.64C1068.3 91.64 1058.22 91.808 1051.22 92.704H1038.06ZM1101.84 110.568C1103.63 108.552 1105.65 106.424 1107.38 104.016C1110.02 100.88 1112.09 97.296 1112.42 93.936C1112.42 93.152 1111.92 92.312 1110.07 92.312C1108.06 92.312 1105.87 92.48 1102.85 93.096V88.28H1140.42V93.32C1135.55 93.32 1130.85 92.368 1125.7 92.368C1123.4 92.536 1121.83 93.88 1121.55 95.056C1121.16 96.624 1121.22 97.912 1122.39 98.192H1135.05C1135.5 99.704 1135.94 101.832 1137.18 103.456C1139.02 105.752 1140.87 107.6 1142.5 110.568H1128.27C1128.5 109.392 1128.38 108.16 1128.22 107.04C1128.1 106.144 1127.88 105.08 1127.21 103.848C1126.76 102.84 1126.31 102 1125.7 101.216C1125.19 100.712 1124.63 100.208 1123.12 99.984H1122.39L1121.78 100.544C1120.66 101.272 1119.48 102.728 1118.81 104.576C1118.08 106.536 1117.86 108.832 1116.85 110.568H1101.84ZM1107.16 130.616C1107.27 128.768 1107.94 126.696 1109.06 124.68C1109.9 123.168 1110.07 121.656 1109.18 120.536H1143.45C1144.34 120.424 1145.69 120.256 1146.42 119.64C1147.26 118.8 1147.26 117.568 1147.03 116.896C1146.7 116.168 1144.79 116.168 1141.49 116.168C1130.85 116.168 1118.92 116.392 1108.28 117.008V113.648H1161.93V115.328C1161.93 117.232 1161.65 118.856 1160.08 120.088C1158.68 120.872 1157.95 121.376 1154.82 121.768H1126.54C1126.14 121.768 1124.91 121.824 1124.35 121.936C1123.62 122.16 1123.12 122.608 1123.01 123.112C1122.62 124.288 1123.06 125.184 1124.86 125.856C1126.31 126.248 1128.27 126.416 1131.41 126.416H1143.17C1151.12 126.416 1157.11 125.128 1164.06 124.96L1163.33 130.616H1107.16ZM1147.54 110.68C1147.37 108.72 1147.42 106.424 1147.7 103.68C1148.1 99.928 1148.82 96.064 1148.82 92.984C1148.77 90.856 1148.54 89.12 1148.15 87.664H1161.26C1160.92 91.192 1160.36 95.056 1160.25 98.696C1160.14 103.176 1160.81 107.04 1162.6 110.68H1147.54ZM1185.85 130.616C1185.96 128.768 1186.13 127.2 1186.35 125.632C1186.69 123.168 1187.25 120.424 1187.31 117.904C1187.31 116.616 1187.19 115.216 1186.69 114.04H1198.79C1198.79 115.496 1198.56 116.952 1198.34 118.52C1197.95 120.592 1197.67 123.336 1198.34 124.792C1198.95 125.576 1199.79 126.192 1201.64 126.192C1206.18 126.192 1208.31 124.512 1210.49 124.4V130.616H1185.85ZM1182.88 100.32C1183.44 98.528 1184.34 97.072 1184.17 95.784C1183.83 91.696 1185.57 89.848 1189.38 88.56C1191.95 87.664 1196.15 87.272 1200.41 87.272H1201.03C1203.71 87.272 1207.19 87.552 1208.98 88L1204.83 93.656C1204.55 93.152 1204.11 92.872 1203.71 92.704C1203.32 92.48 1202.43 92.144 1201.36 92.144C1197.72 92.144 1193.07 94.048 1192.74 98.304C1192.63 100.04 1193.69 101.776 1195.15 103.232C1197.55 105.696 1200.75 106.984 1203.6 106.984C1206.29 106.984 1208.47 105.584 1209.59 103.568C1210.43 102.056 1210.6 100.152 1210.1 98.416C1209.71 96.568 1208.19 95.056 1205.62 94.216L1205.84 93.992L1206.29 94.048C1208.98 93.264 1211.95 92.312 1215.47 91.248C1219.34 92.984 1221.8 95.448 1222.19 99.144C1222.59 102.784 1220.35 106.256 1215.7 107.936C1212.28 109.28 1209.15 111.128 1201.98 111.128C1195.54 111.128 1190.72 110.176 1187.59 108.664C1183.67 106.816 1181.87 104.464 1182.88 100.32ZM1211.33 122.16V119.584H1244.76V122.16C1240.11 122.104 1235.35 121.6 1229.64 121.6C1225.61 121.656 1224.71 122.16 1223.99 122.664C1222.03 123.672 1221.91 125.464 1222.7 126.416C1223.65 127.704 1224.99 128.6 1228.3 128.6C1231.43 128.6 1232.83 127.312 1233.23 126.192C1233.73 125.016 1232.95 123.896 1231.83 123.504L1238.6 124.344C1239.55 124.456 1240.84 124.68 1241.63 124.904C1242.47 126.36 1242.07 127.816 1240.23 128.992C1238.88 130.84 1234.68 131.568 1229.25 131.568C1225.89 131.568 1223.48 131.4 1221.63 131.008C1219.95 130.672 1217.94 130.056 1216.48 129.496C1214.24 128.712 1213.12 127.312 1213.12 125.688C1213.23 123.784 1215.42 123 1217.27 122.216C1218.39 121.88 1218.05 121.432 1216.87 121.432C1214.3 121.432 1213.23 121.712 1211.33 122.16ZM1214.02 117.568V113.536H1242.02L1241.51 116.728C1238.55 116.728 1234.51 116.112 1231.49 116.112C1227.63 116.112 1224.77 116.392 1221.41 116.896C1219.17 117.12 1216.26 117.568 1214.02 117.568ZM1227.79 87.664H1240.95C1239.89 89.568 1239.44 92.088 1239.27 94.832C1239.05 97.912 1239.27 103.12 1240.17 104.856C1239.05 106.928 1240.39 108.16 1241.35 110.624H1228.3C1228.63 108.552 1228.8 106.424 1228.91 104.352C1228.91 102.952 1228.8 101.496 1228.69 100.152C1228.07 95.504 1227.29 92.088 1227.79 87.664ZM1240.06 105.248C1241.63 103.792 1242.35 101.664 1242.75 99.256C1243.14 97.184 1243.31 94.216 1243.14 92.816H1246.55V105.248H1240.06ZM1251.59 109.336C1259.88 109.448 1266.83 110.456 1277.63 110.456H1283.74C1294.94 110.456 1305.63 109.784 1315.77 109V114.32H1251.59V109.336ZM1253.72 130.616C1253.83 129.216 1254.23 127.872 1254.79 126.528C1255.35 124.736 1255.79 123.112 1255.85 121.32C1255.96 120.368 1255.79 119.304 1254.84 118.464H1271.36C1271.36 119.36 1271.19 120.088 1270.69 121.152C1270.13 122.16 1270.19 123.896 1271.42 124.736C1272.59 125.24 1275.95 125.632 1281.05 125.632C1297.29 125.632 1305.91 124.512 1314.43 124.568L1313.75 130.616H1253.72ZM1253.95 105.08C1254.11 103.904 1254.62 102.504 1255.12 101.272C1255.91 99.312 1256.91 97.576 1257.42 95.56C1258.2 93.264 1258.15 90.632 1255.91 88.224H1271.81C1271.81 89.512 1271.7 90.968 1270.97 92.928C1270.24 95.504 1269.91 97.8 1270.86 99.76C1271.87 100.88 1273.88 101.104 1281.11 101.104C1293.54 101.104 1304.07 99.928 1313.98 99.872L1312.75 105.08H1253.95Z" fill="white"/>
<path d="M1423.78 52.3896C1433.06 61.0548 1431.06 74.9345 1421.4 83.2163C1417.26 87.2038 1414.42 90.3479 1415.11 95.3323C1418.64 96.7126 1421.71 99.6266 1423.09 103.154C1427.92 103.231 1429.15 103.001 1434.97 96.4825C1443.03 86.2836 1456.83 83.9831 1465.49 93.3385C1477.61 104.841 1469.41 128.536 1452.07 128.153C1439.73 129.917 1434.21 112.433 1423.17 113.43C1421.94 117.11 1419.02 120.101 1415.34 121.405C1414.58 131.91 1431.68 136.895 1430.76 150.008C1431.52 167.338 1407.91 176.08 1396.1 164.194C1390.04 158.749 1388.35 149.394 1391.8 142.109C1394.56 135.208 1406.45 129.456 1405.07 121.405C1401.46 120.024 1398.4 117.187 1396.86 113.66C1388.58 112.433 1383.44 123.782 1376.7 126.926C1364.12 133.981 1347.86 123.475 1348.48 108.982C1347.4 92.0349 1369.26 81.4526 1381.22 93.7986C1386.43 98.2463 1390.34 104.534 1396.86 103.461C1398.24 99.8566 1401.39 96.9426 1404.91 95.4856C1405.91 90.0411 1400.39 85.9002 1396.56 82.0661C1375.47 62.7418 1403.69 34.599 1423.78 52.3896Z" fill="#0B77A9"/>
<path fill-rule="evenodd" clip-rule="evenodd" d="M1392.43 66.7711C1392.43 70.8095 1394.15 75.33 1398.81 79.6031L1398.87 79.6524L1398.92 79.7039C1399.36 80.1462 1399.88 80.6413 1400.44 81.1753C1401.96 82.6211 1403.79 84.353 1405.17 86.1005C1407.15 88.6151 1408.95 91.9856 1408.2 96.0875L1407.87 97.8784L1406.19 98.5735C1403.39 99.7312 1400.99 102.027 1399.98 104.656L1399.3 106.446L1397.41 106.757C1392.79 107.518 1389.23 105.561 1386.44 103.289C1385.07 102.17 1383.77 100.883 1382.59 99.7016L1382.47 99.5876C1381.29 98.4093 1380.2 97.3201 1379.05 96.3405L1378.93 96.2375L1378.82 96.1235C1374.02 91.1733 1367.18 90.6907 1361.38 93.4268C1355.56 96.1739 1351.37 101.906 1351.81 108.771L1351.82 108.947L1351.81 109.123C1351.3 121.169 1364.91 129.706 1375.06 124.012L1375.17 123.951L1375.28 123.898C1376.47 123.346 1377.74 122.353 1379.22 120.936C1379.95 120.241 1380.69 119.492 1381.46 118.692C1381.52 118.633 1381.58 118.573 1381.64 118.512C1382.35 117.779 1383.11 117.005 1383.87 116.259C1387.03 113.192 1391.46 109.482 1397.35 110.355L1399.19 110.627L1399.93 112.328C1401.08 114.991 1403.45 117.209 1406.26 118.285L1408.04 118.965L1408.36 120.84C1409.36 126.689 1405.46 131.285 1402.41 134.49C1401.65 135.291 1400.95 135.99 1400.29 136.658C1399.4 137.554 1398.57 138.392 1397.71 139.337C1396.3 140.891 1395.37 142.189 1394.9 143.35L1394.86 143.446L1394.82 143.539C1391.98 149.54 1393.41 157.29 1398.33 161.709L1398.4 161.773L1398.47 161.84C1403.22 166.628 1410.58 167.443 1416.92 164.948C1423.22 162.468 1427.72 157.056 1427.42 150.155L1427.41 149.964L1427.42 149.774C1427.77 144.869 1424.86 141.342 1420.71 137.052C1420.49 136.828 1420.27 136.601 1420.04 136.371C1418.27 134.547 1416.3 132.521 1414.81 130.357C1413.07 127.831 1411.75 124.801 1412.01 121.162L1412.17 118.984L1414.23 118.256C1416.93 117.298 1419.09 115.083 1420 112.373L1420.69 110.299L1422.86 110.102C1426.61 109.764 1429.77 111.031 1432.43 112.757C1434.77 114.281 1436.94 116.316 1438.87 118.126C1439.05 118.299 1439.23 118.471 1439.41 118.639C1443.9 122.835 1447.23 125.471 1451.6 124.846L1451.87 124.807L1452.15 124.813C1459.05 124.966 1464.36 120.364 1466.69 114.045C1469.04 107.686 1468.07 100.392 1463.19 95.7615L1463.12 95.6876L1463.04 95.6088C1456.14 88.1594 1444.74 89.5032 1437.6 98.5528L1437.53 98.6331L1437.46 98.7094C1434.6 101.911 1432.46 104.063 1430.21 105.248C1427.73 106.553 1425.41 106.532 1423.04 106.494L1420.79 106.459L1419.98 104.372C1418.96 101.774 1416.62 99.5096 1413.9 98.4435L1412.07 97.73L1411.8 95.7906C1410.86 88.9416 1415.06 84.6875 1419.08 80.81L1419.15 80.7429L1419.23 80.6799C1427.76 73.3626 1428.96 61.8352 1421.53 54.8612C1413.03 47.3672 1403.01 49.4954 1397.14 55.6221C1394.19 58.6957 1392.42 62.6647 1392.43 66.7711ZM1392.31 50.9977C1400.29 42.6776 1414.4 39.6272 1425.99 49.8886L1426.03 49.9179L1426.06 49.9481C1437.13 60.2832 1434.36 76.4407 1423.65 85.6874C1420.25 88.9661 1418.65 90.9202 1418.39 93.1891C1421.15 94.7176 1423.57 97.0183 1425.17 99.7958C1426.11 99.7437 1426.58 99.6069 1427.1 99.3351C1428.12 98.7988 1429.5 97.5902 1432.42 94.3294C1441.37 83.0747 1457.46 79.8497 1467.87 90.9902C1475.04 97.8619 1476.01 108.123 1472.96 116.361C1469.92 124.598 1462.55 131.601 1452.27 131.497C1444.44 132.478 1438.92 127.33 1434.85 123.519C1434.69 123.371 1434.53 123.224 1434.38 123.079C1432.34 121.171 1430.6 119.542 1428.78 118.359C1427.57 117.573 1426.45 117.067 1425.33 116.851C1423.86 119.637 1421.59 121.961 1418.83 123.488C1419.07 124.473 1419.56 125.474 1420.31 126.567C1421.46 128.234 1423.01 129.83 1424.85 131.727C1425.07 131.949 1425.28 132.175 1425.51 132.405C1429.45 136.479 1434.58 141.947 1434.1 150.049C1434.47 160.382 1427.58 167.933 1419.37 171.166C1411.16 174.393 1400.84 173.651 1393.79 166.615C1386.68 160.161 1384.75 149.297 1388.74 140.77C1389.66 138.521 1391.22 136.545 1392.76 134.853C1393.65 133.863 1394.74 132.766 1395.76 131.735C1396.41 131.076 1397.04 130.445 1397.57 129.887C1400.05 127.278 1401.42 125.315 1401.75 123.55C1398.93 122.025 1396.49 119.746 1394.82 116.975C1392.95 117.279 1391.02 118.632 1388.53 121.048C1387.83 121.728 1387.14 122.439 1386.41 123.186L1386.25 123.354C1385.48 124.148 1384.66 124.981 1383.83 125.772C1382.23 127.302 1380.36 128.876 1378.22 129.899C1363.29 138.167 1344.55 125.828 1345.13 109.017C1344.57 99.0175 1350.75 91.057 1358.53 87.3842C1366.34 83.6982 1376.35 84.0741 1383.51 91.3588C1384.81 92.4837 1386.03 93.6988 1387.13 94.7957C1387.19 94.8541 1387.25 94.9122 1387.31 94.97C1388.52 96.1845 1389.59 97.2364 1390.66 98.1115C1392.16 99.3315 1393.43 100.013 1394.72 100.192C1396.34 97.31 1398.82 94.9663 1401.6 93.3909C1401.41 92.4625 1400.88 91.4463 1399.93 90.2437C1398.85 88.8879 1397.61 87.7041 1396.23 86.397C1395.59 85.7938 1394.93 85.1642 1394.24 84.4794C1388.4 79.1018 1385.75 72.8774 1385.75 66.779C1385.74 60.7296 1388.33 55.1515 1392.31 50.9977Z" fill="#0B77A9"/>
<path d="M1418.6 46.6564C1427.88 55.3216 1425.89 69.2013 1416.22 77.4831C1412.08 81.4707 1409.25 84.6147 1409.94 89.5991C1413.46 90.9794 1416.53 93.8934 1417.91 97.4208C1422.74 97.4975 1423.97 97.2675 1429.8 90.7494C1437.85 80.5505 1451.65 78.25 1460.32 87.6054C1472.43 99.1079 1464.23 122.803 1446.9 122.42C1434.55 124.183 1429.03 106.7 1417.99 107.696C1416.76 111.377 1413.85 114.368 1410.17 115.672C1409.4 126.177 1426.5 131.162 1425.58 144.274C1426.35 161.605 1402.73 170.347 1390.92 158.461C1384.86 153.016 1383.17 143.661 1386.63 136.376C1389.39 129.475 1401.27 123.723 1399.89 115.672C1396.29 114.291 1393.22 111.454 1391.69 107.926C1383.4 106.7 1378.27 118.049 1371.52 121.193C1358.94 128.248 1342.69 117.742 1343.3 103.249C1342.23 86.3017 1364.08 75.7194 1376.04 88.0655C1381.26 92.5131 1385.17 98.8011 1391.69 97.7276C1393.07 94.1235 1396.21 91.2095 1399.74 89.7525C1400.73 84.308 1395.21 80.1671 1391.38 76.3329C1370.29 57.0087 1398.51 28.8659 1418.6 46.6564Z" fill="#FF90E3" stroke="#14B5FF" stroke-width="9"/>
<path d="M1512.71 121.712C1521 121.768 1527.89 123.056 1538.64 123.056H1544.97C1556.17 123.056 1566.75 122.328 1576.89 121.376V129.104H1512.71V121.712ZM1514.11 95V89.288H1575.49V94.832C1567.14 94.888 1559.58 93.432 1551.91 93.6C1546.09 93.712 1541.38 94.328 1537.8 95.84C1535.84 94.888 1533.54 94.384 1530.63 94.216C1526.21 93.936 1519.94 94.048 1514.11 95ZM1514.5 115.328V110.008C1522.34 110.008 1535.22 111.464 1543.06 111.464C1544.02 111.464 1547.99 111.52 1549.62 110.68C1551.35 109 1551.69 106.424 1551.97 103.344C1552.25 100.992 1552.3 98.248 1551.91 96.456L1568.6 96.848C1567.42 98.416 1566.75 100.432 1565.91 103.68C1565.24 106.312 1565.41 108.384 1565.91 110.288C1566.47 111.128 1567.37 111.52 1568.94 111.52C1571.01 111.52 1572.97 111.072 1575.1 110.848V115.328H1514.5ZM1521.34 98.416L1537.69 97.184C1537.07 101.216 1537.41 107.04 1540.77 110.456L1530.69 110.12C1524.08 108.552 1522.12 104.184 1521.34 98.416ZM1585.4 114.376C1585.46 112.92 1585.9 110.96 1586.91 108.888C1587.75 106.928 1587.92 105.36 1587.75 103.736C1587.64 102.672 1587.36 101.664 1586.74 100.6H1623.03C1625.83 100.208 1627.51 99.816 1628.8 98.696C1630.09 97.408 1629.75 95.56 1629.19 94.832C1628.35 93.88 1625.89 93.432 1621.24 93.432C1609.76 93.432 1597.66 93.432 1586.18 94.048V88.728H1643.25V92.256C1643.25 94.104 1642.86 97.184 1640.11 98.64C1638.6 99.648 1637.54 99.928 1634.23 100.6H1642.3L1642.74 103.288H1604.16C1603.77 103.288 1602.54 103.4 1601.7 103.736C1600.58 104.352 1600.02 105.248 1600.02 106.312C1600.02 108.16 1600.74 109.392 1602.76 110.12C1604.05 110.512 1606.06 110.792 1612.28 110.792C1623.37 110.792 1634.01 109.84 1645.1 109.84L1644.26 114.376H1585.4ZM1582.71 128.768V122.048C1587.19 123 1590.5 123.392 1594.81 123.392C1598.62 123.448 1602.54 123.392 1606.06 122.608C1607.18 121.992 1607.07 120.424 1606.96 119.416C1606.9 118.464 1606.74 117.288 1606.34 116.504H1623.14C1622.81 117.792 1622.47 119.136 1622.64 120.816C1622.81 122.048 1623.37 122.664 1624.43 123C1627.9 123.336 1630.76 123.504 1634.85 123.336C1638.71 123.168 1642.86 122.272 1646.89 121.88V128.768H1582.71ZM1689.39 111.296C1689.39 109.672 1689.62 108.048 1690.12 106.48C1690.62 104.968 1691.24 103.512 1691.13 102.056C1690.96 101.44 1690.4 101.104 1688.72 101.104H1684.69V97.632H1688.72C1690.06 97.632 1690.79 97.128 1691.02 96.512C1691.46 94.216 1691.52 90.744 1690.18 87.664H1699.53C1699.64 91.696 1698.91 95.392 1698.63 100.712C1698.52 104.632 1698.86 108.328 1699.58 111.296H1689.39ZM1652.26 92.76V88.112H1685.98V92.536C1682.39 92.536 1678.02 92.088 1673.6 92.088C1670.41 92.088 1667.94 92.424 1665.82 93.544C1662.01 92.424 1657.42 92.2 1652.26 92.76ZM1652.77 111.184V107.208C1656.74 107.6 1661.62 108.16 1665.54 108.16C1667.61 108.16 1668.17 107.768 1669.01 107.264C1670.46 105.584 1671.42 102.672 1671.92 100.488C1672.42 98.248 1672.54 96.792 1672.03 95.504L1683.12 95.616C1681.78 97.184 1680.32 100.544 1679.54 102.336C1678.58 104.016 1677.74 106.2 1677.86 107.264C1678.14 107.712 1678.75 108.048 1679.7 108.048C1681.38 108.048 1683.74 107.712 1685.42 107.712V111.184H1652.77ZM1654.78 96.064L1665.7 95.28C1665.26 96.792 1665.09 98.64 1665.42 100.544C1665.87 102.616 1666.99 104.576 1668.73 105.584L1662.34 104.968C1658.48 103.512 1654.95 100.712 1654.78 96.064ZM1658.26 130.616C1658.37 128.824 1659.15 126.864 1660.27 124.904C1661.17 123.448 1661.28 121.992 1660.38 120.928H1695.61C1696.5 120.872 1697.9 120.704 1698.63 120.088C1699.42 119.304 1699.42 118.072 1699.19 117.456C1698.86 116.728 1697.18 116.728 1693.31 116.728C1682.39 116.728 1670.35 116.952 1659.43 117.568V114.376H1714.14V116C1714.14 117.792 1713.98 119.36 1712.3 120.536C1710.95 121.264 1710.22 121.712 1707.09 122.104H1677.74C1677.41 122.104 1676.18 122.16 1675.62 122.272C1674.83 122.496 1674.33 122.944 1674.22 123.448C1673.82 124.512 1674.27 125.408 1676.06 126.024C1677.58 126.472 1679.76 126.584 1682.95 126.584H1695.1C1703.22 126.584 1709.1 125.296 1716.22 125.24L1715.6 130.616H1658.26ZM1702.33 111.296C1704.18 107.768 1704.9 103.568 1704.79 98.528C1704.79 94.496 1704.06 90.632 1703.45 87.664H1714.76C1714.7 90.912 1714.65 93.88 1714.48 97.24C1714.31 102.504 1714.65 107.208 1715.49 111.296H1702.33ZM1771.1 129.776C1771.82 127.2 1772.33 124.792 1772.78 122.048C1773.22 118.912 1773.39 114.6 1773.22 112.64C1772.94 110.848 1771.77 110.288 1769.98 110.288H1762.92V105.752H1769.98C1771.43 105.752 1772.61 105.136 1772.94 104.352C1773.45 101.44 1772.38 92.984 1772.1 87.664H1784.76C1783.86 95.056 1783.7 102.504 1784.2 109.728C1784.7 116.672 1785.15 124.12 1784.93 129.776H1771.1ZM1723.66 127.928C1723.61 125.128 1723.83 121.936 1724.62 118.352C1725.29 115.272 1726.07 112.416 1726.18 109.728C1726.3 107.992 1726.02 106.928 1725.23 105.864H1743.77C1746.4 105.304 1747.58 104.408 1748.08 103.064C1748.7 101.16 1748.86 98.304 1748.58 97.184C1748.08 95.952 1746.79 95.168 1743.71 95.168C1737.27 95.168 1730.61 95.448 1724.34 95.728V88.784H1761.07L1760.74 92.872C1760.46 97.408 1759.67 100.096 1757.88 102.224C1756.2 103.96 1754.91 105.08 1753.06 105.864H1760.12C1760.23 107.264 1760.29 108.72 1760.46 110.176H1740.58C1739.62 110.176 1738.73 110.512 1738.11 110.904C1737.38 111.576 1737.1 112.416 1736.88 113.648C1736.32 115.832 1736.66 118.52 1738.34 120.424C1739.51 121.6 1740.8 121.824 1743.6 121.824C1750.26 121.824 1756.93 120.872 1763.59 120.872L1762.36 127.928H1723.66ZM1806.78 130.616C1806.89 128.712 1807.62 126.64 1808.8 124.624C1809.69 123.112 1809.86 121.544 1808.96 120.48H1845.81C1846.71 120.368 1848.16 120.2 1848.89 119.528C1849.73 118.744 1849.73 117.456 1849.51 116.784C1849.17 116 1847.44 116 1843.35 116C1831.98 116 1819.44 116.224 1808.12 116.896V113.536H1864.52V115.216C1864.52 117.12 1864.35 118.8 1862.67 119.976C1861.27 120.816 1860.6 121.32 1857.52 121.712H1826.38C1826.1 121.712 1824.76 121.768 1824.2 121.88C1823.47 122.104 1822.91 122.552 1822.74 123.056C1822.35 124.232 1822.8 125.184 1824.7 125.8C1826.21 126.248 1828.68 126.416 1831.92 126.416H1844.97C1853.37 126.416 1859.36 125.072 1866.7 124.96L1866.03 130.616H1806.78ZM1803.92 110.064V106.48C1808.4 107.096 1811.71 107.32 1816.02 107.376C1819.83 107.376 1824.03 107.32 1827.72 106.928C1828.68 106.48 1828.79 105.416 1828.68 104.8C1828.62 104.24 1828.51 103.568 1828.06 103.008H1806.72C1807.45 100.656 1809.92 99.536 1810.59 97.632C1810.92 96.512 1810.48 95.616 1808.96 94.888L1818.15 93.656C1819.55 93.656 1820.44 93.544 1822.07 93.32H1827.44C1826.49 94.944 1823.47 95.896 1823.08 97.856C1822.74 99.312 1826.6 100.264 1832.99 100.264C1845.2 100.264 1854.1 99.76 1865.75 99.032L1864.96 103.008H1843.85C1843.4 103.624 1843.29 104.52 1843.4 105.64C1843.52 106.424 1843.91 106.928 1844.8 107.152C1848.56 107.376 1851.97 107.376 1856.06 107.376C1859.98 107.32 1864.07 106.592 1868.1 106.368V110.064H1803.92ZM1806.89 91.92V87.776H1864.68C1864.18 89.344 1863.73 91.248 1863.45 93.096H1856.84C1843.8 91.976 1814.06 92.368 1806.89 91.92ZM1894.03 128.488C1887.59 128.488 1882.72 126.696 1879.64 124.008C1875.72 120.76 1873.92 116.728 1874.93 109.896C1875.49 106.928 1876.33 104.632 1876.16 102.448C1875.83 95.56 1877.73 92.256 1881.48 90.072C1884.06 88.504 1888.2 87.776 1892.46 87.776H1893.08C1895.76 87.776 1899.24 88.112 1901.14 89.008L1896.83 97.688C1896.55 96.904 1896.1 96.456 1895.71 96.064C1895.32 95.728 1894.42 95.224 1893.41 95.224C1890 95.224 1885.35 98.584 1885.07 106.088C1884.96 109.168 1886.02 112.248 1887.36 114.768C1889.77 119.024 1892.85 121.208 1895.65 121.208C1898.23 121.208 1900.36 118.8 1901.42 115.328C1902.2 112.696 1902.37 109.392 1901.87 106.312C1901.48 102.784 1900.02 100.152 1897.61 98.64H1897.72L1897.84 98.696C1900.52 97.744 1904.05 96.008 1907.52 94.44C1911.39 97.464 1913.85 101.72 1914.24 107.992C1914.64 114.096 1912.4 119.976 1907.75 122.832C1904.33 125.184 1901.2 128.488 1894.03 128.488ZM1920.01 87.664H1933.28C1932.16 91.192 1931.77 95.168 1931.49 99.76C1931.16 105.528 1931.32 111.968 1932.39 115.104C1931.1 118.744 1932.72 125.352 1933.68 130.224H1920.46C1920.91 126.304 1921.08 122.216 1921.08 118.24C1921.02 115.72 1920.96 113.2 1920.85 110.736C1920.29 102.168 1919.51 95.84 1920.01 87.664ZM1932.39 115.104C1933.96 113.424 1934.68 110.736 1935.08 107.712C1935.47 105.024 1935.64 101.16 1935.47 99.48H1938.88V115.104H1932.39ZM1957.42 127.424C1958.65 124.344 1960.39 121.88 1962.07 118.632C1964.31 114.152 1966.04 109.728 1966.6 105.584C1967 102.28 1966.32 99.48 1965.37 97.296C1963.92 96.12 1962.24 95.952 1960 95.952C1955.07 95.952 1950.64 97.52 1944.93 97.52V89.232H1983.24C1977.8 104.856 1975.9 115.44 1973.6 127.424H1957.42ZM1990.8 87.664H2004.07C2002.95 91.192 2002.56 95.168 2002.28 99.76C2001.94 105.528 2002.11 111.968 2003.17 115.104C2001.88 118.744 2003.51 125.352 2004.46 130.224H1991.24C1991.69 126.304 1991.86 122.216 1991.86 118.24C1991.8 115.72 1991.75 113.2 1991.64 110.736C1991.08 102.168 1990.29 95.84 1990.8 87.664ZM2003.17 115.104C2004.74 113.424 2005.47 110.736 2005.86 107.712C2006.25 105.024 2006.42 101.16 2006.25 99.48H2009.67V115.104H2003.17ZM2013.92 109.336C2022.21 109.448 2029.16 110.456 2039.96 110.456H2046.07C2057.27 110.456 2067.96 109.784 2078.1 109V114.32H2013.92V109.336ZM2016.05 130.616C2016.16 129.216 2016.56 127.872 2017.12 126.528C2017.68 124.736 2018.12 123.112 2018.18 121.32C2018.29 120.368 2018.12 119.304 2017.17 118.464H2033.69C2033.69 119.36 2033.52 120.088 2033.02 121.152C2032.46 122.16 2032.52 123.896 2033.75 124.736C2034.92 125.24 2038.28 125.632 2043.38 125.632C2059.62 125.632 2068.24 124.512 2076.76 124.568L2076.08 130.616H2016.05ZM2016.28 105.08C2016.44 103.904 2016.95 102.504 2017.45 101.272C2018.24 99.312 2019.24 97.576 2019.75 95.56C2020.53 93.264 2020.48 90.632 2018.24 88.224H2034.14C2034.14 89.512 2034.03 90.968 2033.3 92.928C2032.57 95.504 2032.24 97.8 2033.19 99.76C2034.2 100.88 2036.21 101.104 2043.44 101.104C2055.87 101.104 2066.4 99.928 2076.31 99.872L2075.08 105.08H2016.28Z" fill="white"/>
<rect x="2105.59" y="84.73" width="14.5767" height="44.5399" rx="7.28834" fill="#EFFE37"/>
<rect x="2129.88" y="59.6257" width="14.5767" height="94.7485" rx="7.28834" fill="#EFFE37"/>
<rect x="2178.47" y="41" width="14.5767" height="132" rx="7.28834" fill="#EFFE37"/>
<rect x="2202.77" y="59.6257" width="14.5767" height="94.7485" rx="7.28834" fill="#EFFE37"/>
<rect x="2227.06" y="73.3926" width="14.5767" height="67.2147" rx="7.28834" fill="#EFFE37"/>
<rect x="2251.36" y="90.3987" width="14.5767" height="33.2025" rx="7.28834" fill="#EFFE37"/>
<rect x="2275.65" y="96.0674" width="14.5767" height="22.6748" rx="7.28834" fill="#EFFE37"/>
<rect x="2154.18" y="67.7239" width="14.5767" height="78.5521" rx="7.28834" fill="#EFFE37"/>
<path d="M2317.81 114.096C2320.33 110.176 2325.09 105.248 2327.78 101.608C2331.08 97.24 2333.6 92.928 2334.61 88.616H2356.56C2353.32 90.352 2350.96 92.312 2349 94.384C2348.33 95.672 2348.67 96.68 2349.68 96.68L2368.1 96.736C2368.88 99.2 2370.73 102.224 2373.25 104.8C2375.94 107.6 2379.02 111.296 2380.64 114.096H2361.16C2361.21 112.248 2360.88 109.728 2360.2 107.88C2359.42 105.696 2358.41 103.4 2357.29 101.44C2356 99.872 2354.16 99.2 2352.25 99.088H2346.54C2344.41 99.2 2342.68 99.984 2341.22 101.552C2338.87 105.248 2337.3 109.672 2337.13 114.096H2317.81ZM2317.14 128.768V121.432C2321.62 122.384 2324.92 122.776 2329.24 122.776C2332.99 122.832 2336.91 122.776 2340.94 121.936C2342.06 121.208 2341.95 119.528 2341.84 118.352C2341.78 116.896 2341.56 115.216 2341.22 113.928H2357.12C2356.79 115.72 2356.51 117.624 2356.68 119.92C2356.84 121.32 2357.4 121.992 2358.47 122.328C2362.39 122.664 2365.24 122.888 2369.28 122.72C2373.08 122.552 2377.28 121.656 2381.32 121.264V128.768H2317.14ZM2434.29 130.28C2433.9 126.416 2434.07 122.384 2434.35 117.792C2434.68 111.576 2435.58 104.072 2435.52 98.248C2435.52 94.16 2435.24 90.632 2434.91 87.664H2448.01C2447.68 94.272 2446.95 101.664 2446.84 108.44C2446.72 116.728 2447.56 123.616 2449.36 130.28H2434.29ZM2388.37 127.928C2388.32 125.128 2388.54 121.936 2389.32 118.352C2390 115.272 2390.78 112.416 2390.89 109.728C2391 107.992 2390.72 106.928 2389.94 105.864H2408.48C2411.11 105.304 2412.28 104.408 2412.79 103.064C2413.4 101.16 2413.57 98.304 2413.29 97.184C2412.79 95.952 2411.5 95.168 2408.42 95.168C2401.98 95.168 2395.32 95.448 2389.04 95.728V88.784H2425.78L2425.44 92.872C2425.16 97.408 2424.38 100.096 2422.59 102.224C2420.91 103.96 2419.62 105.08 2417.77 105.864H2424.83C2424.94 107.264 2425 108.72 2425.16 110.176H2405.28C2404.33 110.176 2403.44 110.512 2402.82 110.904C2402.09 111.576 2401.81 112.416 2401.59 113.648C2401.03 115.832 2401.36 118.52 2403.04 120.424C2404.22 121.6 2405.51 121.824 2408.31 121.824C2414.97 121.824 2421.64 120.872 2428.3 120.872L2427.07 127.928H2388.37ZM2470.64 127.424C2471.87 124.344 2473.6 121.88 2475.28 118.632C2477.52 114.152 2479.26 109.728 2479.82 105.584C2480.21 102.28 2479.54 99.48 2478.59 97.296C2477.13 96.12 2475.45 95.952 2473.21 95.952C2468.28 95.952 2463.86 97.52 2458.15 97.52V89.232H2496.45C2491.02 104.856 2489.12 115.44 2486.82 127.424H2470.64ZM2504.01 87.664H2517.28C2516.16 91.192 2515.77 95.168 2515.49 99.76C2515.16 105.528 2515.32 111.968 2516.39 115.104C2515.1 118.744 2516.72 125.352 2517.68 130.224H2504.46C2504.91 126.304 2505.08 122.216 2505.08 118.24C2505.02 115.72 2504.96 113.2 2504.85 110.736C2504.29 102.168 2503.51 95.84 2504.01 87.664ZM2516.39 115.104C2517.96 113.424 2518.68 110.736 2519.08 107.712C2519.47 105.024 2519.64 101.16 2519.47 99.48H2522.88V115.104H2516.39ZM2541.21 130.616C2541.32 128.712 2542.05 126.64 2543.22 124.624C2544.12 123.112 2544.29 121.544 2543.39 120.48H2580.24C2581.13 120.368 2582.59 120.2 2583.32 119.528C2584.16 118.744 2584.16 117.456 2583.93 116.784C2583.6 116 2581.86 116 2577.77 116C2566.41 116 2553.86 116.224 2542.55 116.896V113.536H2598.94V115.216C2598.94 117.12 2598.77 118.8 2597.09 119.976C2595.69 120.816 2595.02 121.32 2591.94 121.712H2560.81C2560.53 121.712 2559.18 121.768 2558.62 121.88C2557.89 122.104 2557.33 122.552 2557.17 123.056C2556.77 124.232 2557.22 125.184 2559.13 125.8C2560.64 126.248 2563.1 126.416 2566.35 126.416H2579.4C2587.8 126.416 2593.79 125.072 2601.13 124.96L2600.45 130.616H2541.21ZM2538.35 109.56V105.808C2546.64 105.864 2553.69 106.648 2564.5 106.648H2570.38C2581.64 106.648 2592.39 106.032 2602.53 105.36V109.56H2538.35ZM2541.15 103.008C2541.88 100.656 2544.34 99.536 2545.01 97.632C2545.35 96.512 2544.9 95.616 2543.39 94.888L2552.57 93.656C2553.97 93.656 2554.87 93.544 2556.49 93.32H2561.87C2560.92 94.944 2557.89 95.896 2557.5 97.856C2557.17 99.312 2561.03 100.264 2567.41 100.264C2579.62 100.264 2588.53 99.76 2600.17 99.032L2599.39 103.008H2541.15ZM2541.32 91.92V87.776H2599.11C2598.61 89.344 2598.16 91.248 2597.88 93.096H2591.27C2578.22 91.976 2548.49 92.368 2541.32 91.92ZM2655.5 130.28C2655.11 126.416 2655.28 122.384 2655.56 117.792C2655.89 111.576 2656.79 104.072 2656.73 98.248C2656.73 94.16 2656.45 90.632 2656.12 87.664H2669.22C2668.89 94.272 2668.16 101.664 2668.05 108.44C2667.93 116.728 2668.77 123.616 2670.57 130.28H2655.5ZM2609.58 127.928C2609.53 125.128 2609.75 121.936 2610.53 118.352C2611.21 115.272 2611.99 112.416 2612.1 109.728C2612.21 107.992 2611.93 106.928 2611.15 105.864H2629.69C2632.32 105.304 2633.49 104.408 2634 103.064C2634.61 101.16 2634.78 98.304 2634.5 97.184C2634 95.952 2632.71 95.168 2629.63 95.168C2623.19 95.168 2616.53 95.448 2610.25 95.728V88.784H2646.99L2646.65 92.872C2646.37 97.408 2645.59 100.096 2643.8 102.224C2642.12 103.96 2640.83 105.08 2638.98 105.864H2646.04C2646.15 107.264 2646.21 108.72 2646.37 110.176H2626.49C2625.54 110.176 2624.65 110.512 2624.03 110.904C2623.3 111.576 2623.02 112.416 2622.8 113.648C2622.24 115.832 2622.57 118.52 2624.25 120.424C2625.43 121.6 2626.72 121.824 2629.52 121.824C2636.18 121.824 2642.85 120.872 2649.51 120.872L2648.28 127.928H2609.58ZM2678.35 109.336C2686.64 109.448 2693.58 110.456 2704.39 110.456H2710.49C2721.69 110.456 2732.39 109.784 2742.53 109V114.32H2678.35V109.336ZM2680.48 130.616C2680.59 129.216 2680.98 127.872 2681.54 126.528C2682.1 124.736 2682.55 123.112 2682.61 121.32C2682.72 120.368 2682.55 119.304 2681.6 118.464H2698.12C2698.12 119.36 2697.95 120.088 2697.45 121.152C2696.89 122.16 2696.94 123.896 2698.17 124.736C2699.35 125.24 2702.71 125.632 2707.81 125.632C2724.05 125.632 2732.67 124.512 2741.18 124.568L2740.51 130.616H2680.48ZM2680.7 105.08C2680.87 103.904 2681.37 102.504 2681.88 101.272C2682.66 99.312 2683.67 97.576 2684.17 95.56C2684.96 93.264 2684.9 90.632 2682.66 88.224H2698.57C2698.57 89.512 2698.45 90.968 2697.73 92.928C2697 95.504 2696.66 97.8 2697.61 99.76C2698.62 100.88 2700.64 101.104 2707.86 101.104C2720.29 101.104 2730.82 99.928 2740.73 99.872L2739.5 105.08H2680.7Z" fill="white"/>
</svg>
