<svg width="426" height="81" viewBox="0 0 426 81" fill="none" xmlns="http://www.w3.org/2000/svg">
<path d="M59.054 0.731997H69.645V60.273H59.054V34.196H53.002V58.315H42.678V2.15599H53.002V25.207H59.054V0.731997ZM0.492 40.782C4.497 40.782 9.748 40.782 15.266 40.604V34.908C7.701 33.217 2.628 27.61 2.628 20.223C2.628 11.145 10.015 4.826 20.428 4.826C30.663 4.826 38.139 11.145 38.139 20.223C38.139 27.61 33.066 33.217 25.501 34.908V40.159C30.396 39.892 35.202 39.536 39.474 38.913L40.097 46.478C27.548 48.97 11.528 49.237 1.56 49.237L0.492 40.782ZM12.418 20.223C12.418 24.762 15.622 27.521 20.428 27.521C25.145 27.521 28.438 24.762 28.438 20.223C28.438 15.595 25.145 12.836 20.428 12.836C15.622 12.836 12.418 15.595 12.418 20.223ZM13.664 78.963V54.755H24.611V70.152H71.425V78.963H13.664ZM81.0391 8.386H125.717V17.464H108.985V22.537C108.985 35.531 115.838 49.237 128.921 54.755L122.869 63.477C113.702 59.472 107.205 51.462 103.645 41.85C100.085 52.352 93.4991 61.163 84.1541 65.435L77.9241 56.713C91.0071 50.75 97.8601 36.065 97.8601 22.537V17.464H81.0391V8.386ZM133.46 80.476V0.731997H144.496V80.476H133.46ZM228.556 0.731997H239.592V16.129H250.183V25.118H239.592V40.604H228.556V0.731997ZM179.339 37.489V4.47H217.164V37.489H179.339ZM187.171 52.263V43.808H239.592V65.435H198.207V70.953H241.906V79.586H187.26V57.425H228.734V52.263H187.171ZM190.197 28.856H206.395V13.103H190.197V28.856ZM326.856 0.731997H337.892V17.464H348.572V26.542H337.892V40.337H326.856V0.731997ZM277.639 38.913V5.627H315.464V38.913H277.639ZM282.356 78.429V47.279H293.036V69.44C297.486 69.084 301.669 68.372 305.763 66.948L307.365 75.759C300.69 77.984 294.282 78.429 286.806 78.429H282.356ZM288.497 30.28H304.695V14.26H288.497V30.28ZM304.517 55.912V47.991H319.202V42.295H329.882V47.991H344.389V55.912H304.517ZM309.145 69.262C309.145 62.409 315.464 58.048 324.453 58.048C333.531 58.048 339.761 62.409 339.761 69.262C339.761 76.115 333.531 80.476 324.453 80.476C315.464 80.476 309.145 76.115 309.145 69.262ZM318.935 69.262C318.935 71.754 321.249 73 324.453 73C327.568 73 330.06 71.754 330.06 69.262C330.06 66.681 327.568 65.524 324.453 65.524C321.249 65.524 318.935 66.681 318.935 69.262ZM360.322 7.49599H417.994V15.239C417.994 25.118 417.994 36.332 414.968 53.242L403.843 52.085C406.869 36.866 406.958 25.652 406.958 16.396H360.322V7.49599ZM353.024 70.686V61.608H378.745V34.196H389.781V61.608H425.114V70.686H353.024Z" fill="white"/>
</svg>
