<svg width="580" height="81" viewBox="0 0 580 81" fill="none" xmlns="http://www.w3.org/2000/svg">
<path d="M54.761 0.731997H65.886V43.541H54.761V0.731997ZM0.916 22.804C0.916 11.768 10.172 4.025 22.543 4.025C34.914 4.025 44.17 11.768 44.17 22.804C44.17 33.751 34.914 41.583 22.543 41.583C10.172 41.583 0.916 33.751 0.916 22.804ZM11.685 22.804C11.685 28.856 16.313 32.416 22.543 32.416C28.773 32.416 33.401 28.856 33.401 22.804C33.401 16.752 28.773 13.103 22.543 13.103C16.313 13.103 11.685 16.752 11.685 22.804ZM13.02 79.586V47.101H23.967V54.666H54.939V47.101H65.886V79.586H13.02ZM23.967 70.775H54.939V63.21H23.967V70.775ZM132.46 0.553999H143.585V80.565H132.46V0.553999ZM79.7721 34.641C79.7721 17.197 88.6721 6.24999 100.776 6.24999C112.791 6.24999 121.602 17.197 121.602 34.641C121.602 52.174 112.791 63.121 100.776 63.121C88.6721 63.121 79.7721 52.174 79.7721 34.641ZM90.4521 34.641C90.4521 46.567 94.6351 53.153 100.776 53.153C106.828 53.153 111.011 46.567 111.011 34.641C111.011 22.715 106.828 16.218 100.776 16.218C94.6351 16.218 90.4521 22.715 90.4521 34.641ZM231.383 0.731997H242.508V45.944H231.383V27.877H216.698V42.117H179.14V5.983H216.698V18.977H231.383V0.731997ZM189.464 79.586V49.504H242.508V79.586H189.464ZM189.998 33.484H205.929V14.705H189.998V33.484ZM200.322 70.864H231.65V58.137H200.322V70.864ZM253.724 48.436H325.814V57.425H295.198V80.565H284.073V57.425H253.724V48.436ZM257.462 35.531C273.838 33.662 282.738 25.741 283.895 18.532H260.221V9.899H284.073V0.909994H295.198V9.899H319.228V18.532H295.376C296.622 25.652 305.611 33.662 321.809 35.531L317.982 44.164C304.543 42.562 294.842 37.044 289.68 29.657C284.518 37.044 274.817 42.562 261.289 44.164L257.462 35.531ZM386.425 0.731997H397.55V41.583H386.425V0.731997ZM331.779 33.751C344.15 30.28 350.202 21.825 350.825 13.103H334.716V4.381H378.148V13.103H362.306C363.018 21.202 368.981 29.034 380.996 32.327L375.923 40.782C366.756 38.201 360.348 32.861 356.788 26.008C353.228 33.573 346.553 39.625 336.852 42.384L331.779 33.751ZM344.595 53.153V44.876H397.55V66.058H355.542V71.487H399.597V79.853H344.773V58.226H386.603V53.153H344.595ZM451.528 4.559C463.81 4.559 472.799 12.302 472.799 23.16C472.799 34.018 463.81 41.85 451.528 41.85C439.513 41.85 430.435 34.018 430.435 23.16C430.435 12.302 439.513 4.559 451.528 4.559ZM436.932 78.429V47.813H447.612V69.44C451.973 69.084 456.156 68.372 460.25 66.948L461.941 75.759C455.266 77.984 448.858 78.429 441.293 78.429H436.932ZM441.026 23.16C441.026 29.123 445.565 32.861 451.528 32.861C457.669 32.861 462.119 29.123 462.119 23.16C462.119 17.197 457.669 13.548 451.528 13.548C445.565 13.548 441.026 17.197 441.026 23.16ZM459.093 55.912V48.08H473.689V42.206H484.458V48.08H498.965V55.912H459.093ZM463.721 69.262C463.721 62.409 470.04 58.048 479.029 58.048C488.018 58.048 494.337 62.409 494.337 69.262C494.337 76.115 488.018 80.476 479.029 80.476C470.04 80.476 463.721 76.115 463.721 69.262ZM473.511 69.262C473.511 71.754 475.736 73.089 479.029 73.089C482.144 73.089 484.547 71.754 484.547 69.262C484.547 66.77 482.144 65.524 479.029 65.524C475.736 65.524 473.511 66.77 473.511 69.262ZM481.343 39.981V0.731997H492.379V17.375H503.148V26.364H492.379V39.981H481.343ZM516.5 3.491H527.536V22.448H571.68V31.17H516.5V3.491ZM507.6 48.525V39.714H579.779V48.525H507.6ZM515.788 78.785V55.022H526.824V69.885H572.125V78.785H515.788Z" fill="white"/>
</svg>
