<svg width="current" height="current" viewBox="0 0 484 81" fill="none" xmlns="http://www.w3.org/2000/svg">
<path d="M31.197 24.495H42.233V31.971H73.027V40.604H0.848V31.971H31.197V24.495ZM3.874 20.757C18.203 19.956 26.302 15.773 28.527 11.145H7.345V2.69H66.441V11.145H45.081C47.306 15.773 55.405 19.956 69.734 20.757L66.352 28.945C51.044 27.966 40.898 22.982 36.804 15.862C32.71 22.982 22.475 27.966 7.256 28.945L3.874 20.757ZM7.256 57.247V48.97H31.197V43.096H42.233V48.97H66.263V57.247H7.256ZM12.418 70.241C12.418 63.388 21.318 59.739 36.626 59.739C52.112 59.739 60.923 63.388 60.923 70.241C60.923 77.094 52.112 80.654 36.626 80.654C21.318 80.654 12.418 77.094 12.418 70.241ZM23.81 70.241C23.81 72.466 28.171 73.445 36.626 73.445C45.259 73.445 49.62 72.466 49.62 70.241C49.62 67.838 45.259 66.948 36.626 66.948C28.171 66.948 23.81 67.838 23.81 70.241ZM99.9071 6.24999C112.011 6.24999 120.733 17.197 120.733 34.641C120.733 52.174 112.011 63.121 99.9071 63.121C87.8031 63.121 79.0811 52.174 79.0811 34.641C79.0811 17.197 87.8031 6.24999 99.9071 6.24999ZM89.6721 34.641C89.6721 46.567 93.7661 53.153 99.9071 53.153C106.048 53.153 110.231 46.567 110.231 34.641C110.231 22.715 106.048 16.218 99.9071 16.218C93.7661 16.218 89.6721 22.715 89.6721 34.641ZM129.9 80.476V0.731997H140.936V30.992H152.684V40.07H140.936V80.476H129.9ZM207.777 0.731997H218.813V31.971H230.472V41.138H218.813V80.476H207.777V0.731997ZM155.979 21.38V12.569H173.779V1.978H184.904V12.569H202.526V21.38H155.979ZM159.272 45.054C159.272 33.929 167.816 26.097 179.386 26.097C190.956 26.097 199.589 33.929 199.589 45.054C199.589 56.09 190.956 63.922 179.386 63.922C167.816 63.922 159.272 56.09 159.272 45.054ZM169.863 45.054C169.863 51.195 173.779 54.933 179.386 54.933C184.993 54.933 188.998 51.195 188.998 45.054C188.998 38.824 184.993 34.997 179.386 34.997C173.779 34.997 169.863 38.824 169.863 45.054ZM241.51 7.49599H299.182V15.239C299.182 25.118 299.182 36.332 296.156 53.242L285.031 52.085C288.057 36.866 288.146 25.652 288.146 16.396H241.51V7.49599ZM234.212 70.686V61.608H259.933V34.196H270.969V61.608H306.302V70.686H234.212ZM387.959 0.642998H399.084V59.027H387.959V32.95H373.897V23.961H387.959V0.642998ZM333.313 42.384C350.045 37.044 360.636 27.432 362.594 15.506H337.496V6.69499H374.431C374.431 28.055 360.992 43.808 337.852 51.195L333.313 42.384ZM346.93 78.963V53.153H358.055V70.152H401.042V78.963H346.93ZM461.831 0.642998H472.867V19.511H483.636V28.589H472.867V46.923H461.831V0.642998ZM409.677 39.892C427.299 35.086 437.267 25.919 438.869 14.794H413.415V5.894H450.973C450.973 27.343 437.623 42.117 414.216 48.703L409.677 39.892ZM420.357 64.278C420.357 54.31 431.037 48.08 447.146 48.08C463.166 48.08 473.757 54.31 473.757 64.278C473.757 74.246 463.166 80.476 447.146 80.476C431.037 80.476 420.357 74.246 420.357 64.278ZM431.393 64.278C431.393 69.262 437.267 71.932 447.146 71.932C457.025 71.932 462.988 69.262 462.988 64.278C462.988 59.205 457.025 56.624 447.146 56.624C437.267 56.624 431.393 59.205 431.393 64.278Z" fill="white"/>
<path d="M31.197 24.495V23.495H30.197V24.495H31.197ZM42.233 24.495H43.233V23.495H42.233V24.495ZM42.233 31.971H41.233V32.971H42.233V31.971ZM73.027 31.971H74.027V30.971H73.027V31.971ZM73.027 40.604V41.604H74.027V40.604H73.027ZM0.848 40.604H-0.152V41.604H0.848V40.604ZM0.848 31.971V30.971H-0.152V31.971H0.848ZM31.197 31.971V32.971H32.197V31.971H31.197ZM3.874 20.757L3.81819 19.7586L2.41212 19.8372L2.94974 21.1388L3.874 20.757ZM28.527 11.145L29.4283 11.5783L30.1173 10.145H28.527V11.145ZM7.345 11.145H6.345V12.145H7.345V11.145ZM7.345 2.69V1.69H6.345V2.69H7.345ZM66.441 2.69H67.441V1.69H66.441V2.69ZM66.441 11.145V12.145H67.441V11.145H66.441ZM45.081 11.145V10.145H43.4907L44.1798 11.5783L45.081 11.145ZM69.734 20.757L70.6583 21.1388L71.1959 19.8372L69.7898 19.7586L69.734 20.757ZM66.352 28.945L66.2882 29.943L67.0029 29.9887L67.2763 29.3268L66.352 28.945ZM36.804 15.862L37.6709 15.3635L36.804 13.8559L35.9371 15.3635L36.804 15.862ZM7.256 28.945L6.33174 29.3268L6.60524 29.9889L7.3202 29.9429L7.256 28.945ZM7.256 57.247H6.256V58.247H7.256V57.247ZM7.256 48.97V47.97H6.256V48.97H7.256ZM31.197 48.97V49.97H32.197V48.97H31.197ZM31.197 43.096V42.096H30.197V43.096H31.197ZM42.233 43.096H43.233V42.096H42.233V43.096ZM42.233 48.97H41.233V49.97H42.233V48.97ZM66.263 48.97H67.263V47.97H66.263V48.97ZM66.263 57.247V58.247H67.263V57.247H66.263ZM31.197 25.495H42.233V23.495H31.197V25.495ZM41.233 24.495V31.971H43.233V24.495H41.233ZM42.233 32.971H73.027V30.971H42.233V32.971ZM72.027 31.971V40.604H74.027V31.971H72.027ZM73.027 39.604H0.848V41.604H73.027V39.604ZM1.848 40.604V31.971H-0.152V40.604H1.848ZM0.848 32.971H31.197V30.971H0.848V32.971ZM32.197 31.971V24.495H30.197V31.971H32.197ZM3.92981 21.7554C11.1731 21.3505 16.8996 20.0886 21.1277 18.3077C25.3349 16.5357 28.1672 14.2012 29.4283 11.5783L27.6257 10.7117C26.6618 12.7168 24.3321 14.7878 20.3513 16.4645C16.3914 18.1324 10.9039 19.3625 3.81819 19.7586L3.92981 21.7554ZM28.527 10.145H7.345V12.145H28.527V10.145ZM8.345 11.145V2.69H6.345V11.145H8.345ZM7.345 3.69H66.441V1.69H7.345V3.69ZM65.441 2.69V11.145H67.441V2.69H65.441ZM66.441 10.145H45.081V12.145H66.441V10.145ZM44.1798 11.5783C45.4408 14.2012 48.2731 16.5357 52.4803 18.3077C56.7084 20.0886 62.4349 21.3505 69.6782 21.7554L69.7898 19.7586C62.7041 19.3625 57.2166 18.1324 53.2567 16.4645C49.2759 14.7878 46.9462 12.7168 45.9823 10.7117L44.1798 11.5783ZM68.8097 20.3752L65.4277 28.5632L67.2763 29.3268L70.6583 21.1388L68.8097 20.3752ZM66.4158 27.947C51.2241 26.9755 41.5123 22.0442 37.6709 15.3635L35.9371 16.3605C40.2837 23.9197 50.8639 28.9565 66.2882 29.943L66.4158 27.947ZM35.9371 15.3635C32.0962 22.0434 22.2965 26.9754 7.19181 27.9471L7.3202 29.9429C22.6535 28.9566 33.3238 23.9206 37.6709 16.3605L35.9371 15.3635ZM8.18026 28.5632L4.79826 20.3752L2.94974 21.1388L6.33174 29.3268L8.18026 28.5632ZM8.256 57.247V48.97H6.256V57.247H8.256ZM7.256 49.97H31.197V47.97H7.256V49.97ZM32.197 48.97V43.096H30.197V48.97H32.197ZM31.197 44.096H42.233V42.096H31.197V44.096ZM41.233 43.096V48.97H43.233V43.096H41.233ZM42.233 49.97H66.263V47.97H42.233V49.97ZM65.263 48.97V57.247H67.263V48.97H65.263ZM66.263 56.247H7.256V58.247H66.263V56.247ZM13.418 70.241C13.418 67.3685 15.2385 65.022 19.1745 63.3397C23.1314 61.6484 29.0262 60.739 36.626 60.739V58.739C28.9178 58.739 22.7086 59.6541 18.3885 61.5006C14.0475 63.356 11.418 66.2605 11.418 70.241H13.418ZM36.626 60.739C44.3162 60.739 50.2327 61.6487 54.1887 63.3397C58.1204 65.0201 59.923 67.3651 59.923 70.241H61.923C61.923 66.2639 59.3201 63.3579 54.9748 61.5006C50.6539 59.6537 44.4218 58.739 36.626 58.739V60.739ZM59.923 70.241C59.923 73.1138 58.1243 75.4368 54.1929 77.0961C50.2361 78.766 44.3186 79.654 36.626 79.654V81.654C44.4194 81.654 50.6504 80.762 54.9706 78.9387C59.3162 77.1047 61.923 74.2212 61.923 70.241H59.923ZM36.626 79.654C29.0238 79.654 23.1279 78.7663 19.1703 77.0961C15.2346 75.435 13.418 73.1103 13.418 70.241H11.418C11.418 74.2247 14.0514 77.1065 18.3927 78.9387C22.7121 80.7617 28.9202 81.654 36.626 81.654V79.654ZM22.81 70.241C22.81 71.1846 23.2952 71.9355 24.0245 72.481C24.722 73.0028 25.6816 73.374 26.8108 73.649C29.0792 74.2014 32.3822 74.445 36.626 74.445V72.445C32.4148 72.445 29.3098 72.1991 27.284 71.7058C26.266 71.4579 25.607 71.1671 25.2225 70.8796C24.8699 70.6158 24.81 70.4099 24.81 70.241H22.81ZM36.626 74.445C40.9579 74.445 44.3048 74.2015 46.5947 73.6495C47.7345 73.3748 48.7 73.004 49.4007 72.4825C50.134 71.9368 50.62 71.1854 50.62 70.241H48.62C48.62 70.4091 48.5609 70.6145 48.2067 70.8781C47.82 71.1659 47.1557 71.4571 46.1261 71.7052C44.0772 72.199 40.9271 72.445 36.626 72.445V74.445ZM50.62 70.241C50.62 69.28 50.161 68.4994 49.4162 67.9223C48.7102 67.3751 47.7371 66.9966 46.5947 66.7212C44.3019 66.1686 40.9517 65.948 36.626 65.948V67.948C40.9333 67.948 44.0801 68.1724 46.1261 68.6655C47.1531 68.9131 47.8097 69.2076 48.1912 69.5031C48.5338 69.7687 48.62 70.0005 48.62 70.241H50.62ZM36.626 65.948C32.3884 65.948 29.0821 66.1686 26.8108 66.7218C25.679 66.9974 24.7117 67.3764 24.009 67.9238C23.2683 68.5008 22.81 69.2807 22.81 70.241H24.81C24.81 69.9998 24.8968 69.7674 25.238 69.5016C25.6172 69.2063 26.2686 68.9122 27.284 68.665C29.3069 68.1724 32.4086 67.948 36.626 67.948V65.948ZM129.9 80.476H128.9V81.476H129.9V80.476ZM129.9 0.731997V-0.268003H128.9V0.731997H129.9ZM140.936 0.731997H141.936V-0.268003H140.936V0.731997ZM140.936 30.992H139.936V31.992H140.936V30.992ZM152.684 30.992H153.684V29.992H152.684V30.992ZM152.684 40.07V41.07H153.684V40.07H152.684ZM140.936 40.07V39.07H139.936V40.07H140.936ZM140.936 80.476V81.476H141.936V80.476H140.936ZM99.9071 7.24999C105.626 7.24999 110.543 9.82353 114.06 14.5046C117.591 19.2059 119.733 26.0753 119.733 34.641H121.733C121.733 25.7626 119.514 18.4366 115.659 13.3034C111.788 8.14996 106.292 5.24999 99.9071 5.24999V7.24999ZM119.733 34.641C119.733 43.2522 117.59 50.1439 114.059 54.8562C110.543 59.5477 105.626 62.121 99.9071 62.121V64.121C106.292 64.121 111.788 61.2208 115.659 56.0556C119.515 50.9111 121.733 43.5628 121.733 34.641H119.733ZM99.9071 62.121C94.1884 62.121 89.2713 59.5477 85.7553 54.8562C82.2238 50.1439 80.0811 43.2522 80.0811 34.641H78.0811C78.0811 43.5628 80.2994 50.9111 84.1549 56.0556C88.0259 61.2208 93.5217 64.121 99.9071 64.121V62.121ZM80.0811 34.641C80.0811 26.0753 82.2233 19.2059 85.7547 14.5046C89.2707 9.82353 94.1882 7.24999 99.9071 7.24999V5.24999C93.522 5.24999 88.0264 8.14996 84.1555 13.3034C80.2999 18.4366 78.0811 25.7626 78.0811 34.641H80.0811ZM88.6721 34.641C88.6721 40.6971 89.7082 45.5194 91.6183 48.8651C93.5505 52.2495 96.409 54.153 99.9071 54.153V52.153C97.2642 52.153 95.0051 50.7635 93.3551 47.8734C91.683 44.9446 90.6721 40.5109 90.6721 34.641H88.6721ZM99.9071 54.153C103.403 54.153 106.283 52.2523 108.238 48.8697C110.172 45.5238 111.231 40.7003 111.231 34.641H109.231C109.231 40.5077 108.199 44.9402 106.506 47.8688C104.835 50.7607 102.552 52.153 99.9071 52.153V54.153ZM111.231 34.641C111.231 28.582 110.172 23.7792 108.236 20.4541C106.278 17.0905 103.397 15.218 99.9071 15.218V17.218C102.558 17.218 104.839 18.594 106.508 21.4604C108.199 24.3653 109.231 28.774 109.231 34.641H111.231ZM99.9071 15.218C96.4147 15.218 93.5549 17.0933 91.6198 20.4588C89.7081 23.7835 88.6721 28.5852 88.6721 34.641H90.6721C90.6721 28.7708 91.6831 24.361 93.3536 21.4557C95.0007 18.5912 97.2585 17.218 99.9071 17.218V15.218ZM130.9 80.476V0.731997H128.9V80.476H130.9ZM129.9 1.732H140.936V-0.268003H129.9V1.732ZM139.936 0.731997V30.992H141.936V0.731997H139.936ZM140.936 31.992H152.684V29.992H140.936V31.992ZM151.684 30.992V40.07H153.684V30.992H151.684ZM152.684 39.07H140.936V41.07H152.684V39.07ZM139.936 40.07V80.476H141.936V40.07H139.936ZM140.936 79.476H129.9V81.476H140.936V79.476ZM207.777 0.731997V-0.268003H206.777V0.731997H207.777ZM218.813 0.731997H219.813V-0.268003H218.813V0.731997ZM218.813 31.971H217.813V32.971H218.813V31.971ZM230.472 31.971H231.472V30.971H230.472V31.971ZM230.472 41.138V42.138H231.472V41.138H230.472ZM218.813 41.138V40.138H217.813V41.138H218.813ZM218.813 80.476V81.476H219.813V80.476H218.813ZM207.777 80.476H206.777V81.476H207.777V80.476ZM155.979 21.38H154.979V22.38H155.979V21.38ZM155.979 12.569V11.569H154.979V12.569H155.979ZM173.779 12.569V13.569H174.779V12.569H173.779ZM173.779 1.978V0.977997H172.779V1.978H173.779ZM184.904 1.978H185.904V0.977997H184.904V1.978ZM184.904 12.569H183.904V13.569H184.904V12.569ZM202.526 12.569H203.526V11.569H202.526V12.569ZM202.526 21.38V22.38H203.526V21.38H202.526ZM207.777 1.732H218.813V-0.268003H207.777V1.732ZM217.813 0.731997V31.971H219.813V0.731997H217.813ZM218.813 32.971H230.472V30.971H218.813V32.971ZM229.472 31.971V41.138H231.472V31.971H229.472ZM230.472 40.138H218.813V42.138H230.472V40.138ZM217.813 41.138V80.476H219.813V41.138H217.813ZM218.813 79.476H207.777V81.476H218.813V79.476ZM208.777 80.476V0.731997H206.777V80.476H208.777ZM156.979 21.38V12.569H154.979V21.38H156.979ZM155.979 13.569H173.779V11.569H155.979V13.569ZM174.779 12.569V1.978H172.779V12.569H174.779ZM173.779 2.978H184.904V0.977997H173.779V2.978ZM183.904 1.978V12.569H185.904V1.978H183.904ZM184.904 13.569H202.526V11.569H184.904V13.569ZM201.526 12.569V21.38H203.526V12.569H201.526ZM202.526 20.38H155.979V22.38H202.526V20.38ZM160.272 45.054C160.272 34.5437 168.304 27.097 179.386 27.097V25.097C167.328 25.097 158.272 33.3143 158.272 45.054H160.272ZM179.386 27.097C190.475 27.097 198.589 34.5494 198.589 45.054H200.589C200.589 33.3086 191.438 25.097 179.386 25.097V27.097ZM198.589 45.054C198.589 55.4666 190.478 62.922 179.386 62.922V64.922C191.435 64.922 200.589 56.7134 200.589 45.054H198.589ZM179.386 62.922C168.301 62.922 160.272 55.4722 160.272 45.054H158.272C158.272 56.7078 167.332 64.922 179.386 64.922V62.922ZM168.863 45.054C168.863 48.3411 169.916 51.0789 171.81 52.9988C173.705 54.9185 176.356 55.933 179.386 55.933V53.933C176.809 53.933 174.699 53.0784 173.234 51.5939C171.769 50.1096 170.863 47.9079 170.863 45.054H168.863ZM179.386 55.933C182.415 55.933 185.086 54.9193 187.002 53.0035C188.919 51.0859 189.998 48.3475 189.998 45.054H187.998C187.998 47.9015 187.074 50.1026 185.588 51.5893C184.099 53.0777 181.964 53.933 179.386 53.933V55.933ZM189.998 45.054C189.998 41.7205 188.922 38.9403 187.009 36.989C185.095 35.0377 182.422 33.997 179.386 33.997V35.997C181.957 35.997 184.09 36.8698 185.581 38.3895C187.071 39.9092 187.998 42.1575 187.998 45.054H189.998ZM179.386 33.997C176.349 33.997 173.696 35.0385 171.804 36.9938C169.913 38.9473 168.863 41.7268 168.863 45.054H170.863C170.863 42.1512 171.772 39.9022 173.241 38.3847C174.708 36.869 176.816 35.997 179.386 35.997V33.997ZM241.51 7.49599V6.49599H240.51V7.49599H241.51ZM299.182 7.49599H300.182V6.49599H299.182V7.49599ZM296.156 53.242L296.053 54.2366L296.977 54.3327L297.141 53.4181L296.156 53.242ZM285.031 52.085L284.05 51.89L283.836 52.9661L284.928 53.0796L285.031 52.085ZM288.146 16.396H289.146V15.396H288.146V16.396ZM241.51 16.396H240.51V17.396H241.51V16.396ZM234.212 70.686H233.212V71.686H234.212V70.686ZM234.212 61.608V60.608H233.212V61.608H234.212ZM259.933 61.608V62.608H260.933V61.608H259.933ZM259.933 34.196V33.196H258.933V34.196H259.933ZM270.969 34.196H271.969V33.196H270.969V34.196ZM270.969 61.608H269.969V62.608H270.969V61.608ZM306.302 61.608H307.302V60.608H306.302V61.608ZM306.302 70.686V71.686H307.302V70.686H306.302ZM241.51 8.49599H299.182V6.49599H241.51V8.49599ZM298.182 7.49599V15.239H300.182V7.49599H298.182ZM298.182 15.239C298.182 25.1008 298.182 36.2443 295.172 53.0658L297.141 53.4181C300.182 36.4197 300.182 25.1352 300.182 15.239H298.182ZM296.26 52.2474L285.135 51.0904L284.928 53.0796L296.053 54.2366L296.26 52.2474ZM286.012 52.28C289.057 36.9634 289.146 25.6713 289.146 16.396H287.146C287.146 25.6327 287.057 36.7686 284.05 51.89L286.012 52.28ZM288.146 15.396H241.51V17.396H288.146V15.396ZM242.51 16.396V7.49599H240.51V16.396H242.51ZM235.212 70.686V61.608H233.212V70.686H235.212ZM234.212 62.608H259.933V60.608H234.212V62.608ZM260.933 61.608V34.196H258.933V61.608H260.933ZM259.933 35.196H270.969V33.196H259.933V35.196ZM269.969 34.196V61.608H271.969V34.196H269.969ZM270.969 62.608H306.302V60.608H270.969V62.608ZM305.302 61.608V70.686H307.302V61.608H305.302ZM306.302 69.686H234.212V71.686H306.302V69.686ZM387.959 0.642998V-0.357002H386.959V0.642998H387.959ZM399.084 0.642998H400.084V-0.357002H399.084V0.642998ZM399.084 59.027V60.027H400.084V59.027H399.084ZM387.959 59.027H386.959V60.027H387.959V59.027ZM387.959 32.95H388.959V31.95H387.959V32.95ZM373.897 32.95H372.897V33.95H373.897V32.95ZM373.897 23.961V22.961H372.897V23.961H373.897ZM387.959 23.961V24.961H388.959V23.961H387.959ZM333.313 42.384L333.009 41.4313L331.883 41.7908L332.424 42.842L333.313 42.384ZM362.594 15.506L363.581 15.668L363.772 14.506H362.594V15.506ZM337.496 15.506H336.496V16.506H337.496V15.506ZM337.496 6.69499V5.69499H336.496V6.69499H337.496ZM374.431 6.69499H375.431V5.69499H374.431V6.69499ZM337.852 51.195L336.963 51.653L337.35 52.4049L338.156 52.1476L337.852 51.195ZM346.93 78.963H345.93V79.963H346.93V78.963ZM346.93 53.153V52.153H345.93V53.153H346.93ZM358.055 53.153H359.055V52.153H358.055V53.153ZM358.055 70.152H357.055V71.152H358.055V70.152ZM401.042 70.152H402.042V69.152H401.042V70.152ZM401.042 78.963V79.963H402.042V78.963H401.042ZM387.959 1.643H399.084V-0.357002H387.959V1.643ZM398.084 0.642998V59.027H400.084V0.642998H398.084ZM399.084 58.027H387.959V60.027H399.084V58.027ZM388.959 59.027V32.95H386.959V59.027H388.959ZM387.959 31.95H373.897V33.95H387.959V31.95ZM374.897 32.95V23.961H372.897V32.95H374.897ZM373.897 24.961H387.959V22.961H373.897V24.961ZM388.959 23.961V0.642998H386.959V23.961H388.959ZM333.617 43.3367C350.516 37.9434 361.535 28.1283 363.581 15.668L361.607 15.344C359.737 26.7357 349.574 36.1446 333.009 41.4313L333.617 43.3367ZM362.594 14.506H337.496V16.506H362.594V14.506ZM338.496 15.506V6.69499H336.496V15.506H338.496ZM337.496 7.69499H374.431V5.69499H337.496V7.69499ZM373.431 6.69499C373.431 17.1521 370.146 26.2019 364.05 33.5461C357.945 40.9001 348.978 46.5934 337.548 50.2424L338.156 52.1476C349.866 48.4096 359.189 42.5329 365.588 34.8236C371.996 27.1046 375.431 17.5979 375.431 6.69499H373.431ZM338.741 50.737L334.202 41.926L332.424 42.842L336.963 51.653L338.741 50.737ZM347.93 78.963V53.153H345.93V78.963H347.93ZM346.93 54.153H358.055V52.153H346.93V54.153ZM357.055 53.153V70.152H359.055V53.153H357.055ZM358.055 71.152H401.042V69.152H358.055V71.152ZM400.042 70.152V78.963H402.042V70.152H400.042ZM401.042 77.963H346.93V79.963H401.042V77.963ZM461.831 0.642998V-0.357002H460.831V0.642998H461.831ZM472.867 0.642998H473.867V-0.357002H472.867V0.642998ZM472.867 19.511H471.867V20.511H472.867V19.511ZM483.636 19.511H484.636V18.511H483.636V19.511ZM483.636 28.589V29.589H484.636V28.589H483.636ZM472.867 28.589V27.589H471.867V28.589H472.867ZM472.867 46.923V47.923H473.867V46.923H472.867ZM461.831 46.923H460.831V47.923H461.831V46.923ZM409.677 39.892L409.414 38.9272L408.223 39.2522L408.788 40.35L409.677 39.892ZM438.869 14.794L439.859 14.9365L440.023 13.794H438.869V14.794ZM413.415 14.794H412.415V15.794H413.415V14.794ZM413.415 5.894V4.894H412.415V5.894H413.415ZM450.973 5.894H451.973V4.894H450.973V5.894ZM414.216 48.703L413.327 49.161L413.701 49.8868L414.487 49.6656L414.216 48.703ZM461.831 1.643H472.867V-0.357002H461.831V1.643ZM471.867 0.642998V19.511H473.867V0.642998H471.867ZM472.867 20.511H483.636V18.511H472.867V20.511ZM482.636 19.511V28.589H484.636V19.511H482.636ZM483.636 27.589H472.867V29.589H483.636V27.589ZM471.867 28.589V46.923H473.867V28.589H471.867ZM472.867 45.923H461.831V47.923H472.867V45.923ZM462.831 46.923V0.642998H460.831V46.923H462.831ZM409.94 40.8568C427.731 36.0048 438.174 26.638 439.859 14.9365L437.879 14.6515C436.36 25.2 426.868 34.1672 409.414 38.9272L409.94 40.8568ZM438.869 13.794H413.415V15.794H438.869V13.794ZM414.415 14.794V5.894H412.415V14.794H414.415ZM413.415 6.894H450.973V4.894H413.415V6.894ZM449.973 5.894C449.973 16.3965 446.711 25.2139 440.618 32.2157C434.514 39.2301 425.514 44.4853 413.945 47.7404L414.487 49.6656C426.325 46.3347 435.704 40.9099 442.127 33.5286C448.561 26.1346 451.973 16.8405 451.973 5.894H449.973ZM415.105 48.245L410.566 39.434L408.788 40.35L413.327 49.161L415.105 48.245ZM421.357 64.278C421.357 59.7149 423.778 55.9606 428.224 53.299C432.702 50.619 439.202 49.08 447.146 49.08V47.08C438.981 47.08 432.087 48.656 427.197 51.583C422.276 54.5284 419.357 58.8731 419.357 64.278H421.357ZM447.146 49.08C455.045 49.08 461.5 50.6187 465.943 53.2974C470.355 55.9571 472.757 59.711 472.757 64.278H474.757C474.757 58.877 471.864 54.5319 466.975 51.5846C462.118 48.6563 455.267 47.08 447.146 47.08V49.08ZM472.757 64.278C472.757 68.845 470.355 72.5989 465.943 75.2586C461.5 77.9373 455.045 79.476 447.146 79.476V81.476C455.267 81.476 462.118 79.8997 466.975 76.9714C471.864 74.0241 474.757 69.679 474.757 64.278H472.757ZM447.146 79.476C439.202 79.476 432.702 77.937 428.224 75.257C423.778 72.5954 421.357 68.8411 421.357 64.278H419.357C419.357 69.6829 422.276 74.0276 427.197 76.973C432.087 79.9 438.981 81.476 447.146 81.476V79.476ZM430.393 64.278C430.393 67.2667 432.196 69.474 435.134 70.8764C438.032 72.2597 442.142 72.932 447.146 72.932V70.932C442.271 70.932 438.505 70.2693 435.996 69.0716C433.527 67.893 432.393 66.2733 432.393 64.278H430.393ZM447.146 72.932C452.151 72.932 456.281 72.2595 459.2 70.8778C462.155 69.4787 463.988 67.2735 463.988 64.278H461.988C461.988 66.2665 460.84 67.8883 458.344 69.0702C455.811 70.2695 452.021 70.932 447.146 70.932V72.932ZM463.988 64.278C463.988 61.2418 462.159 59.0339 459.197 57.6434C456.278 56.2732 452.146 55.624 447.146 55.624V57.624C452.025 57.624 455.815 58.2653 458.347 59.4539C460.836 60.6221 461.988 62.2412 461.988 64.278H463.988ZM447.146 55.624C442.146 55.624 438.036 56.273 435.137 57.6447C432.192 59.0386 430.393 61.2487 430.393 64.278H432.393C432.393 62.2343 433.531 60.6174 435.993 59.4525C438.501 58.2655 442.267 57.624 447.146 57.624V55.624Z" fill="white"/>
</svg>
