<svg width="current" height="current" viewBox="0 0 229 80" fill="none" xmlns="http://www.w3.org/2000/svg">
<path d="M9.303 5.161H64.661V13.972H20.517V22.071H62.792V30.615H20.517V39.248H65.284V48.059H42.411V61.587H73.027V70.487H0.848V61.587H31.375V48.059H9.303V5.161ZM78.6361 43.965H109.163V37.646H87.6251V15.574H131.057V9.878H87.4471V1.512H141.915V23.495H98.3941V29.28H143.517V37.646H120.199V43.965H150.815V52.776H78.6361V43.965ZM87.7141 79.832V56.87H98.6611V71.11H143.784V79.832H87.7141ZM192.38 0.888998C210.536 0.888998 221.216 5.606 221.216 14.506C221.216 23.317 210.536 28.123 192.38 28.123C174.313 28.123 163.544 23.317 163.544 14.506C163.544 5.606 174.313 0.888998 192.38 0.888998ZM156.335 40.761V31.95H228.425V40.761H156.335ZM164.612 53.577V45.389H219.614V65.681H175.559V70.576H221.75V78.853H164.79V57.938H208.756V53.577H164.612ZM175.025 14.506C175.025 18.333 180.721 20.024 192.38 20.024C204.039 20.024 209.735 18.333 209.735 14.506C209.735 10.768 204.039 8.899 192.38 8.899C180.721 8.899 175.025 10.768 175.025 14.506Z" fill="white"/>
</svg>
