<svg width="638" height="81" viewBox="0 0 638 81" fill="none" xmlns="http://www.w3.org/2000/svg">
<path d="M0.359719 62.053H72.5387V71.131H0.359719V62.053ZM5.96672 16.485V7.585H66.4867V16.485H55.5397V40.693H66.3087V49.593H6.32272V40.693H16.9137V16.485H5.96672ZM28.0387 40.693H44.5927V16.485H28.0387V40.693ZM78.1478 62.498H108.586V50.305H86.5138V23.605H131.192V14.616H86.3358V5.894H142.139V32.149H97.3718V41.494H143.919V50.305H119.622V62.498H150.327V71.487H78.1478V62.498ZM156.559 5.093H193.138V13.637H187.798V31.615C190.112 31.437 192.337 31.259 194.384 30.992L194.918 38.735C182.636 41.138 166.616 41.316 156.292 41.316L155.224 32.594H161.632V13.637H156.559V5.093ZM169.998 54.221V45.855H224.11V66.592H181.123V71.487H226.424V79.853H170.176V58.76H213.252V54.221H169.998ZM171.511 32.416C173.558 32.416 175.694 32.327 177.83 32.238V13.637H171.511V32.416ZM191.002 26.364V17.731H198.567V1.978H208.891V42.562H198.567V26.364H191.002ZM213.697 42.829V0.731997H224.11V42.829H213.697ZM289.171 0.553999H300.207V80.565H289.171V38.379H276.444V29.479H289.171V0.553999ZM236.216 16.218V7.49599H272.083V37.222H247.252V52.975C258.288 52.886 267.455 52.441 277.69 50.75L278.758 59.65C266.921 61.608 256.241 62.053 242.891 62.053H236.305V28.589H261.225V16.218H236.216ZM341.013 3.491H394.858V12.124H351.96V19.333H395.659V27.966H373.498V33.217H404.025V41.939H331.935V33.217H362.462V27.966H341.013V3.491ZM340.212 54.488V46.389H395.214V66.592H351.159V71.576H397.35V79.853H340.39V58.938H384.356V54.488H340.212ZM431.083 6.24999C443.187 6.24999 451.909 17.197 451.909 34.641C451.909 52.174 443.187 63.121 431.083 63.121C418.979 63.121 410.257 52.174 410.257 34.641C410.257 17.197 418.979 6.24999 431.083 6.24999ZM420.848 34.641C420.848 46.567 424.942 53.153 431.083 53.153C437.224 53.153 441.407 46.567 441.407 34.641C441.407 22.715 437.224 16.218 431.083 16.218C424.942 16.218 420.848 22.715 420.848 34.641ZM461.076 80.476V0.731997H472.112V30.992H483.86V40.07H472.112V80.476H461.076ZM538.775 0.553999H549.9V31.348H561.114V40.426H549.9V80.387H538.775V0.553999ZM486.888 58.137C505.578 48.525 515.546 35.62 517.593 17.731H491.249V8.831H528.718C528.718 32.683 519.462 53.153 493.029 66.503L486.888 58.137ZM574.288 3.491H585.324V22.448H629.468V31.17H574.288V3.491ZM565.388 48.525V39.714H637.567V48.525H565.388ZM573.576 78.785V55.022H584.612V69.885H629.913V78.785H573.576Z" fill="white"/>
</svg>
