<svg width="current" height="current" viewBox="0 0 659 81" fill="none" xmlns="http://www.w3.org/2000/svg">
<path d="M52.201 0.731997H63.237V31.971H74.896V41.138H63.237V80.476H52.201V0.731997ZM0.403 21.38V12.569H18.203V1.978H29.328V12.569H46.95V21.38H0.403ZM3.696 45.054C3.696 33.929 12.24 26.097 23.81 26.097C35.38 26.097 44.013 33.929 44.013 45.054C44.013 56.09 35.38 63.922 23.81 63.922C12.24 63.922 3.696 56.09 3.696 45.054ZM14.287 45.054C14.287 51.195 18.203 54.933 23.81 54.933C29.417 54.933 33.422 51.195 33.422 45.054C33.422 38.824 29.417 34.997 23.81 34.997C18.203 34.997 14.287 38.824 14.287 45.054ZM136.575 0.642998H147.077V80.387H136.575V0.642998ZM77.5681 56.09C93.6771 46.478 100.708 34.819 102.221 18.977H81.9291V10.166H113.079C113.079 17.731 112.278 24.851 110.32 31.437H119.754V2.423H130.078V76.827H119.754V40.248H106.938C102.399 49.326 95.0121 57.247 83.7981 63.833L77.5681 56.09ZM178.182 8.386H221.97V17.464H205.95V22.537C205.95 34.641 212.447 48.792 225.352 54.755L219.3 63.477C210.4 59.294 204.081 51.195 200.61 41.583C197.05 52.085 190.553 61.074 181.386 65.435L175.156 56.713C188.061 50.572 194.914 35.62 194.914 22.537V17.464H178.182V8.386ZM228.111 80.476V0.731997H239.147V31.348H250.895V40.426H239.147V80.476H228.111ZM309.637 0.731997H320.762V58.849H309.637V0.731997ZM254.368 39.358C267.629 34.73 273.503 23.605 273.503 12.925V5.00399H284.717V12.925C284.717 23.427 290.413 33.751 303.407 37.934L297.711 46.745C288.811 43.719 282.67 37.667 279.199 30.013C275.728 38.201 269.32 44.787 260.064 48.08L254.368 39.358ZM267.807 78.963V53.331H278.843V70.152H322.809V78.963H267.807ZM358.055 5.983C370.515 5.983 379.86 14.171 379.86 25.563C379.86 37.044 370.515 45.143 358.055 45.143C345.506 45.143 336.072 37.044 336.072 25.563C336.072 14.171 345.506 5.983 358.055 5.983ZM332.69 55.289C346.752 55.289 366.421 55.2 383.242 52.708L384.043 60.718C366.688 64.1 347.82 64.278 334.025 64.278L332.69 55.289ZM346.841 25.563C346.841 31.882 351.647 35.709 358.055 35.709C364.285 35.709 369.091 31.882 369.091 25.563C369.091 19.155 364.285 15.417 358.055 15.417C351.647 15.417 346.841 19.155 346.841 25.563ZM387.692 80.565V0.553999H398.728V80.565H387.692ZM430.812 44.876H502.902V53.776H472.108V80.565H461.072V53.776H430.812V44.876ZM434.372 31.437C450.392 29.479 459.292 21.469 460.449 13.637H437.22V4.915H496.316V13.637H473.265C474.422 21.469 483.322 29.479 499.342 31.437L495.337 40.159C481.542 38.201 471.663 32.149 466.857 23.872C462.051 32.149 452.172 38.201 438.377 40.159L434.372 31.437ZM510.38 5.983H553.456V14.883H537.614C537.703 24.228 543.31 33.217 555.948 37.133L550.697 45.677C541.886 43.007 535.834 37.578 532.363 30.725C528.892 38.824 522.484 45.321 512.961 48.436L507.443 39.803C520.526 35.353 526.4 25.029 526.489 14.883H510.38V5.983ZM518.301 64.99C518.301 55.289 528.714 49.593 545.268 49.593C561.733 49.593 572.146 55.289 572.146 64.99C572.146 74.691 561.733 80.476 545.268 80.476C528.714 80.476 518.301 74.691 518.301 64.99ZM529.248 64.99C529.248 69.618 534.944 72.021 545.268 72.021C555.503 72.021 561.199 69.618 561.199 64.99C561.199 60.362 555.503 58.137 545.268 58.137C534.944 58.137 529.248 60.362 529.248 64.99ZM560.131 48.08V0.731997H571.167V19.244H581.936V28.233H571.167V48.08H560.131ZM622.344 1.889C640.5 1.889 651.18 6.606 651.18 15.506C651.18 24.317 640.5 29.123 622.344 29.123C604.277 29.123 593.508 24.317 593.508 15.506C593.508 6.606 604.277 1.889 622.344 1.889ZM586.299 41.761V32.95H658.389V41.761H586.299ZM594.576 54.577V46.389H649.578V66.681H605.523V71.576H651.714V79.853H594.754V58.938H638.72V54.577H594.576ZM604.989 15.506C604.989 19.333 610.685 21.024 622.344 21.024C634.003 21.024 639.699 19.333 639.699 15.506C639.699 11.768 634.003 9.899 622.344 9.899C610.685 9.899 604.989 11.768 604.989 15.506Z" fill="white"/>
</svg>
