<svg width="current" height="current" viewBox="0 0 483 81" fill="none" xmlns="http://www.w3.org/2000/svg">
<path d="M52.201 0.731997H63.237V31.971H74.896V41.138H63.237V80.476H52.201V0.731997ZM0.403 21.38V12.569H18.203V1.978H29.328V12.569H46.95V21.38H0.403ZM3.696 45.054C3.696 33.929 12.24 26.097 23.81 26.097C35.38 26.097 44.013 33.929 44.013 45.054C44.013 56.09 35.38 63.922 23.81 63.922C12.24 63.922 3.696 56.09 3.696 45.054ZM14.287 45.054C14.287 51.195 18.203 54.933 23.81 54.933C29.417 54.933 33.422 51.195 33.422 45.054C33.422 38.824 29.417 34.997 23.81 34.997C18.203 34.997 14.287 38.824 14.287 45.054ZM133.638 0.642998H144.763V40.782H133.638V0.642998ZM79.7041 33.573C99.3731 29.924 107.472 22.27 108.54 12.48H83.8871V3.669H120.733C120.733 25.385 108.54 37.311 83.5311 42.384L79.7041 33.573ZM91.7191 52.53V44.075H144.763V65.524H102.844V71.131H146.721V79.675H91.8971V57.603H133.638V52.53H91.7191ZM207.285 24.495H218.321V31.971H249.115V40.604H176.936V31.971H207.285V24.495ZM179.962 20.757C194.291 19.956 202.39 15.773 204.615 11.145H183.433V2.69H242.529V11.145H221.169C223.394 15.773 231.493 19.956 245.822 20.757L242.44 28.945C227.132 27.966 216.986 22.982 212.892 15.862C208.798 22.982 198.563 27.966 183.344 28.945L179.962 20.757ZM183.344 57.247V48.97H207.285V43.096H218.321V48.97H242.351V57.247H183.344ZM188.506 70.241C188.506 63.388 197.406 59.739 212.714 59.739C228.2 59.739 237.011 63.388 237.011 70.241C237.011 77.094 228.2 80.654 212.714 80.654C197.406 80.654 188.506 77.094 188.506 70.241ZM199.898 70.241C199.898 72.466 204.259 73.445 212.714 73.445C221.347 73.445 225.708 72.466 225.708 70.241C225.708 67.838 221.347 66.948 212.714 66.948C204.259 66.948 199.898 67.838 199.898 70.241ZM275.995 6.24999C288.099 6.24999 296.821 17.197 296.821 34.641C296.821 52.174 288.099 63.121 275.995 63.121C263.891 63.121 255.169 52.174 255.169 34.641C255.169 17.197 263.891 6.24999 275.995 6.24999ZM265.76 34.641C265.76 46.567 269.854 53.153 275.995 53.153C282.136 53.153 286.319 46.567 286.319 34.641C286.319 22.715 282.136 16.218 275.995 16.218C269.854 16.218 265.76 22.715 265.76 34.641ZM305.988 80.476V0.731997H317.024V30.992H328.772V40.07H317.024V80.476H305.988ZM383.865 0.731997H394.901V31.971H406.56V41.138H394.901V80.476H383.865V0.731997ZM332.067 21.38V12.569H349.867V1.978H360.992V12.569H378.614V21.38H332.067ZM335.36 45.054C335.36 33.929 343.904 26.097 355.474 26.097C367.044 26.097 375.677 33.929 375.677 45.054C375.677 56.09 367.044 63.922 355.474 63.922C343.904 63.922 335.36 56.09 335.36 45.054ZM345.951 45.054C345.951 51.195 349.867 54.933 355.474 54.933C361.081 54.933 365.086 51.195 365.086 45.054C365.086 38.824 361.081 34.997 355.474 34.997C349.867 34.997 345.951 38.824 345.951 45.054ZM419.2 3.491H430.236V22.448H474.38V31.17H419.2V3.491ZM410.3 48.525V39.714H482.479V48.525H410.3ZM418.488 78.785V55.022H429.524V69.885H474.825V78.785H418.488Z" fill="white"/>
</svg>
